<?xml version="1.0" encoding="UTF-8" standalone="no"?>
<svg
   viewBox="0 0 750 314"
   width="750pt"
   height="314pt"
   version="1.1"
   id="svg303"
   sodipodi:docname="cavity_mohamadw.svg"
   inkscape:version="1.1 (c68e22c387, 2021-05-23)"
   xmlns:inkscape="http://www.inkscape.org/namespaces/inkscape"
   xmlns:sodipodi="http://sodipodi.sourceforge.net/DTD/sodipodi-0.dtd"
   xmlns="http://www.w3.org/2000/svg"
   xmlns:svg="http://www.w3.org/2000/svg"
   xmlns:rdf="http://www.w3.org/1999/02/22-rdf-syntax-ns#"
   xmlns:cc="http://creativecommons.org/ns#"
   xmlns:dc="http://purl.org/dc/elements/1.1/">
  <sodipodi:namedview
     id="namedview305"
     pagecolor="#ffffff"
     bordercolor="#666666"
     borderopacity="1.0"
     inkscape:pageshadow="2"
     inkscape:pageopacity="0.0"
     inkscape:pagecheckerboard="0"
     inkscape:document-units="pt"
     showgrid="false"
     inkscape:zoom="0.61580177"
     inkscape:cx="278.49871"
     inkscape:cy="208.67105"
     inkscape:window-width="1828"
     inkscape:window-height="1055"
     inkscape:window-x="85"
     inkscape:window-y="-7"
     inkscape:window-maximized="1"
     inkscape:current-layer="svg303" />
  <title
     id="title158">gl2ps_renderer figure</title>
  <desc
     id="desc160">
Creator: GL2PS 1.4.2, (C) 1999-2020 C. Geuzaine
For: Octave
CreationDate: Sat Jan 28 20:44:08 2023
</desc>
  <defs
     id="defs162" />
  <polygon
     fill="#ffffff"
     points="419,314 0,314 0,0 419,0 "
     id="polygon164" />
  <g
     id="g301">
    <polygon
       fill="#ffffff"
       shape-rendering="crispEdges"
       points="419,0 0,0 0,314 419,314 "
       id="polygon166" />
    <clipPath
       id="cp00419314">
      <polygon
         points="419,0 0,0 0,314 419,314 "
         id="polygon168" />
    </clipPath>
    <g
       clip-path="url(#cp00419314)"
       id="g299">
      <polygon
         fill="#ffffff"
         shape-rendering="crispEdges"
         points="379.945,23.6153 54.5777,23.6153 54.5777,280.235 379.945,280.235 "
         id="polygon171" />
      <polyline
         fill="none"
         stroke-linecap="butt"
         stroke="#262626"
         stroke-width="0.5"
         points="54.5777,280.235 54.5777,276.987"
         stroke-linejoin="miter"
         id="polyline173" />
      <polyline
         fill="none"
         stroke-linecap="butt"
         stroke="#262626"
         stroke-width="0.5"
         points="54.5777,23.6153 54.5777,26.8642"
         stroke-linejoin="miter"
         id="polyline175" />
      <polyline
         fill="none"
         stroke-linecap="butt"
         stroke="#262626"
         stroke-width="0.5"
         points="120.308,280.235 120.308,276.987"
         stroke-linejoin="miter"
         id="polyline177" />
      <polyline
         fill="none"
         stroke-linecap="butt"
         stroke="#262626"
         stroke-width="0.5"
         points="120.308,23.6153 120.308,26.8642"
         stroke-linejoin="miter"
         id="polyline179" />
      <polyline
         fill="none"
         stroke-linecap="butt"
         stroke="#262626"
         stroke-width="0.5"
         points="186.039,280.235 186.039,276.987"
         stroke-linejoin="miter"
         id="polyline181" />
      <polyline
         fill="none"
         stroke-linecap="butt"
         stroke="#262626"
         stroke-width="0.5"
         points="186.039,23.6153 186.039,26.8642"
         stroke-linejoin="miter"
         id="polyline183" />
      <polyline
         fill="none"
         stroke-linecap="butt"
         stroke="#262626"
         stroke-width="0.5"
         points="251.77,280.235 251.77,276.987"
         stroke-linejoin="miter"
         id="polyline185" />
      <polyline
         fill="none"
         stroke-linecap="butt"
         stroke="#262626"
         stroke-width="0.5"
         points="251.77,23.6153 251.77,26.8642"
         stroke-linejoin="miter"
         id="polyline187" />
      <polyline
         fill="none"
         stroke-linecap="butt"
         stroke="#262626"
         stroke-width="0.5"
         points="317.5,280.235 317.5,276.987"
         stroke-linejoin="miter"
         id="polyline189" />
      <polyline
         fill="none"
         stroke-linecap="butt"
         stroke="#262626"
         stroke-width="0.5"
         points="317.5,23.6153 317.5,26.8642"
         stroke-linejoin="miter"
         id="polyline191" />
      <text
         xml:space="preserve"
         font-family="FreeSans"
         font-size="10px"
         transform="translate(51.5777,295.724)"
         font-weight="normal"
         font-style="normal"
         id="text195">     <tspan
   x="0"
   y="0"
   fill="#262626"
   id="tspan193">0</tspan>   </text>
      <text
         xml:space="preserve"
         font-family="FreeSans"
         font-size="10px"
         transform="translate(114.308,295.724)"
         font-weight="normal"
         font-style="normal"
         id="text199">     <tspan
   x="0 6"
   y="0"
   fill="#262626"
   id="tspan197">20</tspan>   </text>
      <text
         xml:space="preserve"
         font-family="FreeSans"
         font-size="10px"
         transform="translate(180.039,295.724)"
         font-weight="normal"
         font-style="normal"
         id="text203">     <tspan
   x="0 6"
   y="0"
   fill="#262626"
   id="tspan201">40</tspan>   </text>
      <text
         xml:space="preserve"
         font-family="FreeSans"
         font-size="10px"
         transform="translate(245.77,295.724)"
         font-weight="normal"
         font-style="normal"
         id="text207">     <tspan
   x="0 6"
   y="0"
   fill="#262626"
   id="tspan205">60</tspan>   </text>
      <text
         xml:space="preserve"
         font-family="FreeSans"
         font-size="10px"
         transform="translate(311.5,295.724)"
         font-weight="normal"
         font-style="normal"
         id="text211">     <tspan
   x="0 6"
   y="0"
   fill="#262626"
   id="tspan209">80</tspan>   </text>
      <polyline
         fill="none"
         stroke-linecap="butt"
         stroke="#262626"
         stroke-width="0.5"
         points="54.5777,280.235 57.835,280.235"
         stroke-linejoin="miter"
         id="polyline213" />
      <polyline
         fill="none"
         stroke-linecap="butt"
         stroke="#262626"
         stroke-width="0.5"
         points="379.945,280.235 376.687,280.235"
         stroke-linejoin="miter"
         id="polyline215" />
      <polyline
         fill="none"
         stroke-linecap="butt"
         stroke="#262626"
         stroke-width="0.5"
         points="54.5777,228.393 57.835,228.393"
         stroke-linejoin="miter"
         id="polyline217" />
      <polyline
         fill="none"
         stroke-linecap="butt"
         stroke="#262626"
         stroke-width="0.5"
         points="379.945,228.393 376.687,228.393"
         stroke-linejoin="miter"
         id="polyline219" />
      <polyline
         fill="none"
         stroke-linecap="butt"
         stroke="#262626"
         stroke-width="0.5"
         points="54.5777,176.551 57.835,176.551"
         stroke-linejoin="miter"
         id="polyline221" />
      <polyline
         fill="none"
         stroke-linecap="butt"
         stroke="#262626"
         stroke-width="0.5"
         points="379.945,176.551 376.687,176.551"
         stroke-linejoin="miter"
         id="polyline223" />
      <polyline
         fill="none"
         stroke-linecap="butt"
         stroke="#262626"
         stroke-width="0.5"
         points="54.5777,124.708 57.835,124.708"
         stroke-linejoin="miter"
         id="polyline225" />
      <polyline
         fill="none"
         stroke-linecap="butt"
         stroke="#262626"
         stroke-width="0.5"
         points="379.945,124.708 376.687,124.708"
         stroke-linejoin="miter"
         id="polyline227" />
      <polyline
         fill="none"
         stroke-linecap="butt"
         stroke="#262626"
         stroke-width="0.5"
         points="54.5777,72.8656 57.835,72.8656"
         stroke-linejoin="miter"
         id="polyline229" />
      <polyline
         fill="none"
         stroke-linecap="butt"
         stroke="#262626"
         stroke-width="0.5"
         points="379.945,72.8656 376.687,72.8656"
         stroke-linejoin="miter"
         id="polyline231" />
      <text
         xml:space="preserve"
         font-family="FreeSans"
         font-size="10px"
         transform="translate(43.572,284.235)"
         font-weight="normal"
         font-style="normal"
         id="text235">     <tspan
   x="0"
   y="0"
   fill="#262626"
   id="tspan233">0</tspan>   </text>
      <text
         xml:space="preserve"
         font-family="FreeSans"
         font-size="10px"
         transform="translate(37.572,232.393)"
         font-weight="normal"
         font-style="normal"
         id="text239">     <tspan
   x="0 6"
   y="0"
   fill="#262626"
   id="tspan237">20</tspan>   </text>
      <text
         xml:space="preserve"
         font-family="FreeSans"
         font-size="10px"
         transform="translate(37.572,180.551)"
         font-weight="normal"
         font-style="normal"
         id="text243">     <tspan
   x="0 6"
   y="0"
   fill="#262626"
   id="tspan241">40</tspan>   </text>
      <text
         xml:space="preserve"
         font-family="FreeSans"
         font-size="10px"
         transform="translate(37.572,128.708)"
         font-weight="normal"
         font-style="normal"
         id="text247">     <tspan
   x="0 6"
   y="0"
   fill="#262626"
   id="tspan245">60</tspan>   </text>
      <text
         xml:space="preserve"
         font-family="FreeSans"
         font-size="10px"
         transform="translate(37.572,76.8656)"
         font-weight="normal"
         font-style="normal"
         id="text251">     <tspan
   x="0 6"
   y="0"
   fill="#262626"
   id="tspan249">80</tspan>   </text>
      <polyline
         fill="none"
         stroke-dasharray="16, 0"
         stroke-linecap="square"
         stroke="#262626"
         stroke-width="0.5"
         points="54.5777,280.235 379.945,280.235"
         stroke-linejoin="miter"
         id="polyline253" />
      <polyline
         fill="none"
         stroke-dasharray="16, 0"
         stroke-linecap="square"
         stroke="#262626"
         stroke-width="0.5"
         points="54.5777,23.6153 379.945,23.6153"
         stroke-linejoin="miter"
         id="polyline255" />
      <polyline
         fill="none"
         stroke-dasharray="16, 0"
         stroke-linecap="square"
         stroke="#262626"
         stroke-width="0.5"
         points="54.5777,280.235 54.5777,23.6153"
         stroke-linejoin="miter"
         id="polyline257" />
      <polyline
         fill="none"
         stroke-dasharray="16, 0"
         stroke-linecap="square"
         stroke="#262626"
         stroke-width="0.5"
         points="379.945,280.235 379.945,23.6153"
         stroke-linejoin="miter"
         id="polyline259" />
      <text
         xml:space="preserve"
         font-family="FreeSans"
         font-size="11px"
         transform="translate(214.761,307.724)"
         font-weight="normal"
         font-style="normal"
         id="text263">     <tspan
   x="0"
   y="0"
   fill="#262626"
   id="tspan261">x</tspan>   </text>
      <text
         xml:space="preserve"
         font-family="FreeSans"
         font-size="11px"
         transform="rotate(-90,93.4985,60.9265)"
         font-weight="normal"
         font-style="normal"
         id="text267">     <tspan
   x="0"
   y="-2"
   fill="#262626"
   id="tspan265">y</tspan>   </text>
      <text
         xml:space="preserve"
         font-family="FreeSans"
         font-size="11px"
         transform="translate(194.761,13.6153)"
         font-weight="bold"
         font-style="normal"
         id="text271">     <tspan
   x="0 7 14 17 24 28 31 38"
   y="0"
   fill="#000000"
   id="tspan269">Solution</tspan>   </text>
      <polyline
         fill="none"
         stroke-linecap="butt"
         stroke="#440154"
         stroke-width="0.5"
         points="364.882,36.5759 363.827,39.1681 363.512,39.5974 361.21,41.7602 360.225,42.444 356.939,43.7155 354.117,44.3523 353.652,44.4515 350.366,44.5762 347.321,44.3523 347.079,44.3278 343.793,43.8747 340.506,43.3553 337.22,42.7708 333.933,42.2103 330.691,41.7602 330.647,41.7513 327.36,41.3148 324.074,40.98 320.787,40.756 317.5,40.6127 314.214,40.4231 310.927,40.0031 307.679,39.1681 307.641,39.1144 306.58,36.5759 307.641,36.225 310.927,35.588 314.214,35.2439 317.5,35.0399 320.787,34.8696 324.074,34.6022 327.36,34.1127 328.018,33.9838 330.647,33.8115 333.933,33.5328 337.22,33.1678 340.506,32.7599 343.793,32.4129 347.079,32.0166 350.366,31.6917 353.652,31.547 356.939,31.6688 360.225,31.858 363.512,33.1544 364.409,33.9838 364.882,36.5759"
         stroke-linejoin="miter"
         id="polyline273" />
      <polyline
         fill="none"
         stroke-linecap="butt"
         stroke="#472877"
         stroke-width="0.5"
         points="368.002,33.9838 367.984,36.5759 367.112,39.1681 366.798,39.7047 365.158,41.7602 363.512,43.493 362.289,44.3523 360.225,45.7117 357.516,46.9444 356.939,47.2284 353.652,48.2037 350.366,48.8509 347.079,49.2989 343.793,49.506 342.869,49.5366 340.506,49.6267 337.22,49.7266 333.933,49.769 330.647,49.8235 327.36,49.9771 324.074,50.1726 320.787,50.3798 317.5,50.6006 314.214,50.7488 310.927,50.6973 307.641,50.363 304.354,49.6387 304.069,49.5366 301.068,48.4413 298.192,46.9444 297.781,46.7201 294.495,44.447 294.377,44.3523 291.541,41.7602 291.208,41.3141 289.72,39.1681 289.617,36.5759 291.208,35.1623 292.569,33.9838 294.495,33.3719 297.781,32.4406 301.068,31.6735 302.697,31.3917 304.354,31.2452 307.641,31.0564 310.927,30.9485 314.214,30.8964 317.5,30.8716 320.787,30.8487 324.074,30.801 327.36,30.7243 330.647,30.6147 333.933,30.4679 337.22,30.2898 340.506,30.1092 343.793,29.9321 347.079,29.7509 350.366,29.6275 353.652,29.5695 356.939,29.5842 360.225,29.6863 363.512,30.2932 366.777,31.3917 366.798,31.4136 368.002,33.9838"
         stroke-linejoin="miter"
         id="polyline275" />
      <polyline
         fill="none"
         stroke-linecap="butt"
         stroke="#472877"
         stroke-width="0.5"
         points="139.126,36.5759 137.016,39.1681 136.741,39.3482 133.454,40.9326 130.607,41.7602 130.168,41.8697 126.881,42.2156 123.595,42.1635 120.308,41.8191 119.996,41.7602 117.022,41.1524 113.735,40.2848 110.449,39.2523 110.234,39.1681 107.162,37.6771 104.997,36.5759 103.876,35.2467 102.829,33.9838 103.876,33.4062 107.162,32.1598 110.449,31.4112 110.584,31.3917 113.735,31.2531 117.022,31.1698 120.308,31.1454 123.595,31.1936 126.881,31.3276 127.771,31.3917 130.168,31.8056 133.454,32.6133 136.741,33.628 137.717,33.9838 139.126,36.5759"
         stroke-linejoin="miter"
         id="polyline277" />
      <polyline
         fill="none"
         stroke-linecap="butt"
         stroke="#3e4a89"
         stroke-width="0.5"
         points="370.626,33.9838 370.305,36.5759 370.085,37.2811 369.336,39.1681 367.833,41.7602 366.798,43.221 365.722,44.3523 363.512,46.4635 362.787,46.9444 360.225,48.7687 358.707,49.5366 356.939,50.5767 353.652,52.0061 353.279,52.1287 350.366,53.284 347.079,54.2699 345.255,54.7208 343.793,55.1497 340.506,55.8516 337.22,56.4702 333.933,57.0699 332.402,57.3129 330.647,57.6204 327.36,58.2327 324.074,58.8656 320.787,59.4573 318.161,59.905 317.5,60.0273 314.214,60.4727 310.927,60.6535 307.641,60.5166 304.354,59.9656 304.161,59.905 301.068,58.9389 297.781,57.4149 297.609,57.3129 294.495,55.442 293.471,54.7208 291.208,53.0951 289.965,52.1287 287.922,50.5014 286.723,49.5366 284.635,47.8029 283.548,46.9444 281.349,45.1009 280.357,44.3523 278.062,42.339 277.294,41.7602 275.108,39.1681 275.454,36.5759 278.062,35.1774 279.87,33.9838 281.349,33.6025 284.635,32.6261 287.922,31.5535 288.404,31.3917 291.208,30.9025 294.495,30.3546 297.781,29.8676 301.068,29.4721 304.354,29.1819 307.641,28.9969 310.927,28.8935 314.214,28.8517 317.5,28.8344 320.787,28.8183 322.215,28.7996 324.074,28.7848 327.36,28.7442 330.647,28.6767 333.933,28.5889 337.22,28.4849 340.506,28.3828 343.793,28.2744 347.079,28.1759 350.366,28.1125 353.652,28.0775 356.939,28.0763 360.225,28.1276 363.512,28.4327 366.798,28.7632 366.923,28.7996 370.085,30.938 370.337,31.3917 370.626,33.9838"
         stroke-linejoin="miter"
         id="polyline279" />
      <polyline
         fill="none"
         stroke-linecap="butt"
         stroke="#3e4a89"
         stroke-width="0.5"
         points="153.604,36.5759 153.174,37.6694 152.618,39.1681 149.909,41.7602 149.887,41.7764 146.601,44.2865 146.51,44.3523 143.314,46.5316 142.634,46.9444 140.028,48.5048 137.898,49.5366 136.741,50.0993 133.454,51.2553 130.168,51.9292 127.075,52.1287 126.881,52.1414 126.651,52.1287 123.595,51.968 120.308,51.5261 117.022,50.8207 113.735,49.901 112.636,49.5366 110.449,48.8315 107.162,47.4727 106.054,46.9444 103.876,45.9703 100.895,44.3523 100.589,44.1897 97.3026,42.3557 96.316,41.7602 94.0161,40.3253 92.2178,39.1681 90.7295,38.2484 88.2855,36.5759 87.443,35.8665 84.9946,33.9838 84.1565,32.6122 83.4146,31.3917 84.1565,30.964 87.443,29.8883 90.7295,29.3825 94.0161,29.0667 97.3026,28.8162 97.5522,28.7996 100.589,28.7189 103.876,28.6464 107.162,28.591 110.449,28.5491 113.735,28.5298 117.022,28.5328 120.308,28.5612 123.595,28.6201 126.881,28.7233 128.471,28.7996 130.168,28.9499 133.454,29.3484 136.741,29.8477 140.028,30.4303 143.314,31.0634 144.965,31.3917 146.601,32.0911 149.887,33.422 151.434,33.9838 153.174,36.1306 153.604,36.5759"
         stroke-linejoin="miter"
         id="polyline281" />
      <polyline
         fill="none"
         stroke-linecap="butt"
         stroke="#30678d"
         stroke-width="0.5"
         points="372.534,33.9838 372.057,36.5759 371.27,39.1681 370.085,41.7536 370.081,41.7602 368.41,44.3523 366.798,46.4281 366.269,46.9444 363.61,49.5366 363.512,49.6391 360.401,52.1287 360.225,52.2927 356.939,54.6489 356.809,54.7208 353.652,56.8604 352.781,57.3129 350.366,58.8408 348.225,59.905 347.079,60.5668 343.793,62.0709 342.676,62.4972 340.506,63.4282 337.22,64.6116 335.787,65.0893 333.933,65.7767 330.647,66.8711 328.165,67.6814 327.36,67.9721 324.074,69.064 320.787,70.0564 319.963,70.2735 317.5,70.9632 314.214,71.6096 310.927,71.9307 307.641,71.8534 304.354,71.304 301.081,70.2735 301.068,70.2696 297.781,68.8208 295.748,67.6814 294.495,66.9819 291.583,65.0893 291.208,64.8428 287.922,62.5126 287.9,62.4972 284.635,60.1136 284.335,59.905 281.349,57.7809 280.62,57.3129 278.062,55.6393 276.428,54.7208 274.775,53.7804 271.489,52.243 271.175,52.1287 268.202,51.0409 264.916,50.1245 262.044,49.5366 261.629,49.4512 258.343,48.9756 255.056,48.6464 251.77,48.4196 248.483,48.2591 245.197,48.1364 241.91,48.03 238.624,47.925 235.337,47.8141 232.051,47.6948 228.764,47.5651 225.477,47.4221 222.191,47.2635 218.904,47.0873 216.507,46.9444 215.618,46.8898 212.331,46.6677 209.045,46.4276 205.758,46.1703 202.472,45.8964 199.185,45.6079 195.899,45.3082 192.612,45.0036 189.326,44.7077 186.039,44.4395 184.721,44.3523 182.753,44.2099 179.466,44.0707 176.179,44.0792 172.893,44.2867 172.434,44.3523 169.606,44.7177 166.32,45.4329 163.033,46.4711 161.917,46.9444 159.747,47.8454 156.46,49.5317 156.452,49.5366 153.174,51.5119 152.238,52.1287 149.887,53.6782 148.347,54.7208 146.601,55.8973 144.408,57.3129 143.314,58.015 140.028,59.8862 139.987,59.905 136.741,61.4175 133.468,62.4972 133.454,62.5016 130.168,63.1554 126.881,63.3491 123.595,63.1262 120.308,62.5934 119.89,62.4972 117.022,61.8571 113.735,60.8791 111.022,59.905 110.449,59.7077 107.162,58.2784 105.371,57.3129 103.876,56.5518 100.894,54.7208 100.589,54.5349 97.3026,52.2812 97.099,52.1287 94.0161,49.8685 93.6093,49.5366 90.7295,47.4171 90.1499,46.9444 87.443,44.7498 86.9874,44.3523 84.1565,42.2025 83.6804,41.7602 80.8699,39.228 80.8047,39.1681 77.7188,36.5759 77.5834,36.4418 74.9209,33.9838 74.2969,33.5552 72.2935,31.3917 71.0103,28.8948 70.9137,28.7996 71.0103,28.7661 74.2969,27.821 77.5834,27.5079 80.8699,27.372 84.1565,27.2584 87.443,27.1996 90.7295,27.1717 94.0161,27.1613 97.3026,27.1387 100.589,27.1076 103.876,27.0787 107.162,27.059 110.449,27.046 113.735,27.0503 117.022,27.0729 120.308,27.1187 123.595,27.1931 126.881,27.3105 130.168,27.4807 133.454,27.7111 136.741,28.0013 140.028,28.3438 143.314,28.7209 143.971,28.7996 146.601,29.3508 149.887,30.0157 153.174,30.6228 156.46,31.1503 158.261,31.3917 159.747,31.7968 163.033,32.4994 166.32,33.0184 169.606,33.383 172.893,33.6237 176.179,33.7697 179.466,33.847 182.753,33.8763 186.039,33.8738 189.326,33.8521 192.612,33.8196 195.899,33.7822 199.185,33.7433 202.472,33.7049 205.758,33.6676 209.045,33.6317 212.331,33.5975 215.618,33.5653 218.904,33.5352 222.191,33.5071 225.477,33.4809 228.764,33.4556 232.051,33.4304 235.337,33.4048 238.624,33.3784 241.91,33.3504 245.197,33.3189 248.483,33.2801 251.77,33.2272 255.056,33.1507 258.343,33.0385 261.629,32.8759 264.916,32.6443 268.202,32.3226 271.489,31.8887 274.367,31.3917 274.775,31.3543 278.062,30.9774 281.349,30.5237 284.635,30.0027 287.922,29.4357 291.208,28.8545 291.534,28.7996 294.495,28.4958 297.781,28.1971 301.068,27.9564 304.354,27.7809 307.641,27.6704 310.927,27.6107 314.214,27.5889 317.5,27.5814 320.787,27.5751 324.074,27.5522 327.36,27.5133 330.647,27.4468 333.933,27.3622 337.22,27.2609 340.506,27.1599 343.793,27.0563 347.079,26.9673 350.366,26.907 353.652,26.8672 356.939,26.8701 360.225,26.8947 363.512,27.1037 366.798,27.2668 370.085,28.1279 371.012,28.7996 372.261,31.3917 372.534,33.9838"
         stroke-linejoin="miter"
         id="polyline283" />
      <polyline
         fill="none"
         stroke-linecap="butt"
         stroke="#25828e"
         stroke-width="0.5"
         points="374.405,33.9838 373.829,36.5759 373.372,38.0956 373.056,39.1681 372.171,41.7602 370.911,44.3523 370.085,45.7782 369.285,46.9444 367.323,49.5366 366.798,50.2574 365.117,52.1287 363.512,54.0221 362.78,54.7208 360.48,57.3129 360.225,57.6364 358.064,59.905 356.939,61.2355 355.595,62.4972 353.652,64.4858 352.926,65.0893 350.366,67.404 349.981,67.6814 347.079,69.9635 346.596,70.2735 343.793,72.2133 342.672,72.8656 340.506,74.2382 338.288,75.4578 337.22,76.0913 333.933,77.8595 333.548,78.0499 330.647,79.5951 328.504,80.642 327.36,81.2328 324.074,82.7463 322.839,83.2341 320.787,84.0721 317.5,85.0955 314.214,85.7464 312.915,85.8263 310.927,85.9504 309.604,85.8263 307.641,85.6528 304.354,84.8627 301.068,83.5907 300.377,83.2341 297.781,81.9397 295.607,80.642 294.495,79.9953 291.476,78.0499 291.208,77.8798 287.922,75.715 287.521,75.4578 284.635,73.5925 283.428,72.8656 281.349,71.5942 278.931,70.2735 278.062,69.7901 274.775,68.2438 273.31,67.6814 271.489,66.9759 268.202,65.9844 264.916,65.2307 264.07,65.0893 261.629,64.6864 258.343,64.294 255.056,64.0137 251.77,63.81 248.483,63.6524 245.197,63.5172 241.91,63.3904 238.624,63.2621 235.337,63.1264 232.051,62.9803 228.764,62.8229 225.477,62.6517 222.786,62.4972 222.191,62.4638 218.904,62.259 215.618,62.0343 212.331,61.7901 209.045,61.5257 205.758,61.2411 202.472,60.9367 199.185,60.6112 195.899,60.2653 192.612,59.9069 192.595,59.905 189.326,59.5569 186.039,59.2204 182.753,58.9244 179.466,58.7016 176.179,58.5914 172.893,58.6484 169.606,58.9305 166.32,59.4876 164.753,59.905 163.033,60.3662 159.747,61.5857 157.8,62.4972 156.46,63.1176 153.174,64.909 152.877,65.0893 149.887,66.8836 148.612,67.6814 146.601,68.9348 144.419,70.2735 143.314,70.9593 140.028,72.8473 139.99,72.8656 136.741,74.5136 134.313,75.4578 133.454,75.8092 130.168,76.6758 126.881,77.0573 123.595,76.9942 120.308,76.5551 117.022,75.8278 115.716,75.4578 113.735,74.9145 110.449,73.7904 108.301,72.8656 107.162,72.386 103.876,70.6306 103.339,70.2735 100.589,68.4557 99.6169,67.6814 97.3026,65.8748 96.4298,65.0893 94.0161,62.9428 93.5639,62.4972 90.8463,59.905 90.7295,59.7965 88.3141,57.3129 87.443,56.4606 85.8366,54.7208 84.1565,52.9316 83.486,52.1287 81.1742,49.5366 80.8699,49.2061 79.0401,46.9444 77.5834,45.314 76.8405,44.3523 74.8385,41.7602 74.2969,41.1597 72.7007,39.1681 71.0103,36.9683 70.7696,36.5759 68.7386,33.9838 67.7238,32.4698 67.0404,31.3917 64.6823,28.7996 65.3256,26.2075 67.7238,25.6731 71.0103,25.842 74.2969,25.7285 77.5834,25.7166 80.8699,25.7274 84.1565,25.7298 87.443,25.749 90.7295,25.7701 94.0161,25.7941 97.3026,25.807 100.589,25.8102 103.876,25.8102 107.162,25.8123 110.449,25.8155 113.735,25.8272 117.022,25.8486 120.308,25.8836 123.595,25.936 126.881,26.0155 130.168,26.1287 131.863,26.2075 133.454,26.3247 136.741,26.6276 140.028,26.9825 143.314,27.372 146.601,27.7749 149.887,28.1689 153.174,28.535 155.858,28.7996 156.46,28.9011 159.747,29.3682 163.033,29.741 166.32,30.0259 169.606,30.2344 172.893,30.38 176.179,30.4761 179.466,30.5351 182.753,30.5676 186.039,30.5821 189.326,30.5849 192.612,30.5808 195.899,30.5728 199.185,30.5629 202.472,30.5522 205.758,30.5411 209.045,30.5299 212.331,30.5189 215.618,30.5081 218.904,30.4979 222.191,30.4883 225.477,30.479 228.764,30.4697 232.051,30.46 235.337,30.4496 238.624,30.4382 241.91,30.4256 245.197,30.4107 248.483,30.3916 251.77,30.3644 255.056,30.3243 258.343,30.2645 261.629,30.1772 264.916,30.0523 268.202,29.8793 271.489,29.6462 274.775,29.3423 278.062,28.96 279.21,28.7996 281.349,28.6163 284.635,28.2935 287.922,27.9438 291.208,27.5868 294.495,27.2472 297.781,26.9468 301.068,26.7056 304.354,26.5304 307.641,26.4215 310.927,26.3648 314.214,26.3464 317.5,26.3421 320.787,26.3392 324.074,26.3196 327.36,26.2824 330.647,26.2169 331.029,26.2075 333.933,26.158 337.22,26.0903 340.506,26.021 343.793,25.9529 347.079,25.8956 350.366,25.8558 353.652,25.8238 356.939,25.8292 360.225,25.8293 363.512,25.9222 366.798,25.9383 369.294,26.2075 370.085,26.3701 373.372,28.6744 373.446,28.7996 374.249,31.3917 374.405,33.9838"
         stroke-linejoin="miter"
         id="polyline285" />
      <polyline
         fill="none"
         stroke-linecap="butt"
         stroke="#1e9d88"
         stroke-width="0.5"
         points="375.658,36.5759 375.126,39.1681 374.537,41.7602 373.424,44.3523 373.372,44.465 372.341,46.9444 370.993,49.5366 370.085,51.1182 369.473,52.1287 368.028,54.7208 366.798,56.8752 366.528,57.3129 365.207,59.905 363.812,62.4972 363.512,63.1148 362.473,65.0893 361.071,67.6814 360.225,69.2213 359.582,70.2735 358.044,72.8656 356.939,74.625 356.336,75.4578 354.537,78.0499 353.652,79.2825 352.503,80.642 350.366,83.2206 350.353,83.2341 347.878,85.8263 347.079,86.6787 345.246,88.4184 343.793,89.8103 342.386,91.0105 340.506,92.6886 339.368,93.6026 337.22,95.36 336.083,96.1947 333.933,97.8163 332.432,98.7869 330.647,99.9472 327.993,101.379 327.36,101.719 324.074,103.097 321.066,103.971 320.787,104.052 317.5,104.592 314.214,104.663 310.927,104.25 309.944,103.971 307.641,103.364 304.354,102.021 303.166,101.379 301.068,100.296 298.642,98.7869 297.781,98.2688 294.704,96.1947 294.495,96.0568 291.208,93.7867 290.936,93.6026 287.922,91.5828 287,91.0105 284.635,89.5505 282.547,88.4184 281.349,87.772 278.062,86.3004 276.713,85.8263 274.775,85.1475 271.489,84.2881 268.202,83.6735 264.916,83.2557 264.661,83.2341 261.629,82.9789 258.343,82.7802 255.056,82.6243 251.77,82.477 248.483,82.3103 245.197,82.1105 241.91,81.8757 238.624,81.609 235.337,81.3185 232.051,81.0143 228.764,80.7064 228.071,80.642 225.477,80.4162 222.191,80.1332 218.904,79.8529 215.618,79.5778 212.331,79.308 209.045,79.0399 205.758,78.7701 202.472,78.4935 199.185,78.1991 197.648,78.0499 195.899,77.8869 192.612,77.5559 189.326,77.1996 186.039,76.8279 182.753,76.4634 179.466,76.1305 176.179,75.8651 172.893,75.723 169.606,75.7576 166.32,76.0229 163.033,76.5785 159.747,77.4619 158.185,78.0499 156.46,78.7052 153.174,80.2934 152.566,80.642 149.887,82.2091 148.306,83.2341 146.601,84.367 144.494,85.8263 143.314,86.6657 140.798,88.4184 140.028,88.9725 136.936,91.0105 136.741,91.1447 133.454,93.0598 132.235,93.6026 130.168,94.5832 126.881,95.6153 123.595,96.1115 120.308,96.1137 117.022,95.7287 113.735,95.0707 110.449,94.2204 108.483,93.6026 107.162,93.1891 103.876,91.8471 102.343,91.0105 100.589,90.0377 98.4128,88.4184 97.3026,87.5657 95.465,85.8263 94.0161,84.416 92.9891,83.2341 90.7686,80.642 90.7295,80.5974 88.7484,78.0499 87.443,76.322 86.8386,75.4578 84.9926,72.8656 84.1565,71.6573 83.2835,70.2735 81.5803,67.6814 80.8699,66.5754 80.0191,65.0893 78.4704,62.4972 77.5834,61.0376 76.9802,59.905 75.6062,57.3129 74.2969,55.045 74.1276,54.7208 72.8479,52.1287 71.4427,49.5366 71.0103,48.7988 70.1065,46.9444 68.9685,44.3523 67.7238,42.2427 67.4683,41.7602 66.5131,39.1681 64.9198,36.5759 64.4373,35.8095 63.7205,33.9838 62.8306,31.3917 61.2231,28.7996 61.1507,28.6641 57.8642,26.9285 57.5126,26.2075 57.8642,25.9294 61.1507,25.5755 64.4373,25.228 67.7238,24.6018 71.0103,24.8257 74.2969,24.6983 77.5834,24.7252 80.8699,24.7633 84.1565,24.7781 87.443,24.8107 90.7295,24.8449 94.0161,24.8799 97.3026,24.9001 100.589,24.9101 103.876,24.9163 107.162,24.9226 110.449,24.9289 113.735,24.9436 117.022,24.9675 120.308,25.0044 123.595,25.0585 126.881,25.14 130.168,25.2549 133.454,25.4092 136.741,25.6035 140.028,25.8337 143.314,26.0891 144.767,26.2075 146.601,26.438 149.887,26.8433 153.174,27.22 156.46,27.5532 159.747,27.835 163.033,28.0635 166.32,28.2415 169.606,28.3742 172.893,28.4695 176.179,28.5347 179.466,28.577 182.753,28.6028 186.039,28.6171 189.326,28.624 192.612,28.626 195.899,28.6254 199.185,28.6232 202.472,28.6201 205.758,28.6165 209.045,28.6125 212.331,28.6085 215.618,28.6043 218.904,28.6002 222.191,28.5963 225.477,28.5924 228.764,28.5884 232.051,28.5839 235.337,28.5788 238.624,28.5729 241.91,28.5662 245.197,28.5579 248.483,28.5468 251.77,28.5305 255.056,28.5062 258.343,28.4695 261.629,28.4155 264.916,28.3381 268.202,28.2308 271.489,28.0862 274.775,27.8979 278.062,27.6615 281.349,27.3778 284.635,27.0525 287.922,26.7003 291.208,26.3406 292.49,26.2075 294.495,26.0659 297.781,25.8615 301.068,25.6978 304.354,25.5795 307.641,25.506 310.927,25.4686 314.214,25.4566 317.5,25.4546 320.787,25.4531 324.074,25.4409 327.36,25.415 330.647,25.3711 333.933,25.3149 337.22,25.2488 340.506,25.178 343.793,25.113 347.079,25.0558 350.366,25.0179 353.652,24.9802 356.939,24.99 360.225,24.9751 363.512,25.0465 366.798,25.0165 370.085,25.3358 373.372,25.646 376.658,25.5099 377.434,26.2075 376.658,28.0364 376.227,28.7996 376.327,31.3917 376.249,33.9838 375.658,36.5759"
         stroke-linejoin="miter"
         id="polyline287" />
      <polyline
         fill="none"
         stroke-linecap="butt"
         stroke="#35b778"
         stroke-width="0.5"
         points="68.6875,23.6153 71.0103,23.8094 74.2969,23.6682 77.5834,23.7338 80.8699,23.7992 84.1565,23.8265 87.443,23.8724 90.7295,23.9199 94.0161,23.9657 97.3026,23.9932 100.589,24.01 103.876,24.0223 107.162,24.033 110.449,24.0423 113.735,24.0601 117.022,24.0864 120.308,24.1252 123.595,24.1811 126.881,24.2644 130.168,24.381 133.454,24.5371 136.741,24.7333 140.028,24.9656 143.314,25.2231 146.601,25.4926 149.887,25.7591 153.174,26.0097 156.071,26.2075 156.46,26.2477 159.747,26.5382 163.033,26.7744 166.32,26.959 169.606,27.0978 172.893,27.1981 176.179,27.2678 179.466,27.314 182.753,27.3431 186.039,27.3604 189.326,27.3698 192.612,27.3743 195.899,27.3758 199.185,27.3756 202.472,27.3743 205.758,27.3723 209.045,27.3699 212.331,27.3672 215.618,27.3643 218.904,27.3614 222.191,27.3586 225.477,27.3557 228.764,27.3525 232.051,27.3488 235.337,27.3445 238.624,27.3392 241.91,27.333 245.197,27.3251 248.483,27.3145 251.77,27.2986 255.056,27.2744 258.343,27.2378 261.629,27.1838 264.916,27.1061 268.202,26.9982 271.489,26.8527 274.775,26.6631 278.062,26.4251 280.566,26.2075 281.349,26.1609 284.635,25.9378 287.922,25.697 291.208,25.4518 294.495,25.2193 297.781,25.0148 301.068,24.851 304.354,24.7329 307.641,24.6595 310.927,24.6229 314.214,24.6112 317.5,24.61 320.787,24.6087 324.074,24.5977 327.36,24.5712 330.647,24.5281 333.933,24.4719 337.22,24.4074 340.506,24.3351 343.793,24.2732 347.079,24.2159 350.366,24.1799 353.652,24.1367 356.939,24.1508 360.225,24.1209 363.512,24.1707 366.798,24.0947 370.085,24.3754 373.372,24.4603 376.658,23.6329 379.521,26.2075 379.308,28.7996 379.306,31.3917 379.265,33.9838 378.928,36.5759 378.567,39.1681 378.391,41.7602 377.531,44.3523 376.658,45.7493 376.375,46.9444 376.041,49.5366 375.37,52.1287 374.544,54.7208 373.967,57.3129 373.372,59.3678 373.258,59.905 372.752,62.4972 372.352,65.0893 371.835,67.6814 371.305,70.2735 370.793,72.8656 370.163,75.4578 370.085,75.7951 369.645,78.0499 369.143,80.642 368.544,83.2341 367.916,85.8263 367.247,88.4184 366.798,89.985 366.515,91.0105 365.786,93.6026 364.981,96.1947 364.052,98.7869 363.512,100.211 363.062,101.379 361.982,103.971 360.757,106.563 360.225,107.634 359.444,109.155 358.006,111.747 356.939,113.555 356.464,114.34 354.854,116.932 353.652,118.77 353.153,119.524 351.424,122.116 350.366,123.646 349.596,124.708 347.67,127.3 347.079,128.07 345.487,129.892 343.793,131.699 342.851,132.484 340.506,134.265 338.852,135.077 337.22,135.811 333.933,136.555 330.647,136.723 327.36,136.486 324.074,135.921 320.973,135.077 320.787,135.031 317.5,133.829 314.723,132.484 314.214,132.257 310.927,130.354 310.274,129.892 307.641,128.146 306.545,127.3 304.354,125.697 303.14,124.708 301.068,123.088 299.896,122.116 297.781,120.411 296.694,119.524 294.495,117.761 293.419,116.932 291.208,115.247 289.902,114.34 287.922,112.977 285.846,111.747 284.635,111.036 281.349,109.482 280.409,109.155 278.062,108.347 274.775,107.593 271.489,107.174 268.202,107.036 264.916,107.12 261.629,107.385 258.343,107.788 255.056,108.295 251.77,108.888 250.394,109.155 248.483,109.574 245.197,110.307 241.91,111.025 238.624,111.68 238.214,111.747 235.337,112.257 232.051,112.683 228.764,112.919 225.477,112.941 222.191,112.728 218.904,112.261 216.609,111.747 215.618,111.526 212.331,110.537 209.045,109.31 208.688,109.155 205.758,107.951 202.645,106.563 202.472,106.493 199.185,105.094 196.553,103.971 195.899,103.724 192.612,102.488 189.548,101.379 189.326,101.307 186.039,100.282 182.753,99.3207 180.758,98.7869 179.466,98.4717 176.179,97.7679 172.893,97.208 169.606,96.8592 166.32,96.791 163.033,97.069 159.747,97.7525 156.7,98.7869 156.46,98.8694 153.174,100.469 151.686,101.379 149.887,102.49 147.851,103.971 146.601,104.892 144.561,106.563 143.314,107.6 141.543,109.155 140.028,110.513 138.652,111.747 136.741,113.513 135.801,114.34 133.454,116.491 132.922,116.932 130.168,119.343 129.926,119.524 126.881,121.964 126.643,122.116 123.595,124.237 122.674,124.708 120.308,126.042 117.022,127.274 116.877,127.3 113.735,127.939 110.449,128.1 107.162,127.946 103.876,127.671 100.589,127.355 100.177,127.3 97.3026,126.913 94.0161,126.094 91.0544,124.708 90.7295,124.543 87.7154,122.116 87.443,121.874 85.4361,119.524 84.1565,117.855 83.5494,116.932 81.926,114.34 80.8699,112.522 80.4512,111.747 79.1044,109.155 77.8591,106.563 77.5834,105.963 76.7095,103.971 75.6496,101.379 74.6797,98.7869 74.2969,97.693 73.7811,96.1947 72.9234,93.6026 72.139,91.0105 71.4137,88.4184 71.0103,86.9805 70.6791,85.8263 69.9554,83.2341 69.273,80.642 68.5752,78.0499 67.922,75.4578 67.7238,74.6704 67.221,72.8656 66.4737,70.2735 65.8042,67.6814 65.1815,65.0893 64.5212,62.4972 64.4373,62.132 63.8666,59.905 63.2523,57.3129 62.5237,54.7208 62.0068,52.1287 61.5785,49.5366 61.1507,47.8775 60.8116,46.9444 60.1482,44.3523 59.8759,41.7602 59.0307,39.1681 58.5545,36.5759 58.9882,33.9838 57.8642,32.6646 56.4339,31.3917 55.3821,28.7996 55.0727,26.2075 57.8642,24.0004 61.1507,23.9303 64.4373,24.0266 67.1061,23.6153"
         stroke-linejoin="miter"
         id="polyline289" />
      <polyline
         fill="none"
         stroke-linecap="butt"
         stroke="#6ccd59"
         stroke-width="0.5"
         points="334.64,23.6153 333.933,23.6289 330.647,23.6852 327.36,23.7274 324.074,23.7544 320.787,23.7643 317.5,23.7654 314.214,23.7658 310.927,23.7772 307.641,23.813 304.354,23.8863 301.068,24.0041 297.781,24.1682 294.495,24.3728 291.208,24.6058 287.922,24.8513 284.635,25.0926 281.349,25.3161 278.062,25.5117 274.775,25.6748 271.489,25.8049 268.202,25.905 264.916,25.9791 261.629,26.0325 258.343,26.0695 255.056,26.0946 251.77,26.111 248.483,26.1216 245.197,26.1287 241.91,26.1338 238.624,26.1377 235.337,26.1409 232.051,26.1434 228.764,26.1454 225.477,26.147 222.191,26.1483 218.904,26.1496 215.618,26.1508 212.331,26.1519 209.045,26.1529 205.758,26.1536 202.472,26.1538 199.185,26.1536 195.899,26.1524 192.612,26.15 189.326,26.1454 186.039,26.1373 182.753,26.1238 179.466,26.1021 176.179,26.0688 172.893,26.0195 169.606,25.9496 166.32,25.8542 163.033,25.7287 159.747,25.5697 156.46,25.3761 153.174,25.15 149.887,24.8974 146.601,24.6287 143.314,24.3572 140.028,24.0976 136.741,23.8632 133.454,23.6651 132.417,23.6153"
         stroke-linejoin="miter"
         id="polyline291" />
      <polyline
         fill="none"
         stroke-linecap="butt"
         stroke="#6ccd59"
         stroke-width="0.5"
         points="166.821,171.366 166.677,173.958 166.329,176.551 166.32,176.592 165.772,179.143 165.01,181.735 164.04,184.327 163.033,186.536 162.855,186.919 161.457,189.511 159.835,192.103 159.747,192.229 157.963,194.695 156.46,196.547 155.827,197.287 153.397,199.88 153.174,200.099 150.599,202.472 149.887,203.081 147.383,205.064 146.601,205.648 143.633,207.656 143.314,207.862 140.028,209.706 138.787,210.248 136.741,211.131 133.454,211.962 130.168,211.787 127.753,210.248 126.881,209.429 126.003,207.656 125.136,205.064 124.576,202.472 124.219,199.88 124.003,197.287 123.893,194.695 123.87,192.103 123.925,189.511 124.061,186.919 124.28,184.327 124.588,181.735 124.988,179.143 125.481,176.551 126.068,173.958 126.746,171.366 126.881,170.932 127.623,168.774 128.59,166.182 129.619,163.59 130.168,162.327 130.812,160.998 132.134,158.406 133.454,155.849 133.476,155.814 135.112,153.221 136.705,150.629 136.741,150.574 138.658,148.037 140.028,146.171 140.68,145.445 142.98,142.853 143.314,142.479 145.853,140.261 146.601,139.591 149.668,137.669 149.887,137.529 153.174,136.566 156.46,136.887 157.827,137.669 159.747,139.267 160.459,140.261 161.804,142.853 162.763,145.445 163.033,146.42 163.441,148.037 163.984,150.629 164.47,153.221 164.932,155.814 165.385,158.406 165.827,160.998 166.232,163.59 166.32,164.295 166.566,166.182 166.776,168.774 166.821,171.366"
         stroke-linejoin="miter"
         id="polyline293" />
      <polyline
         fill="none"
         stroke-linecap="butt"
         stroke="#b4dd2b"
         stroke-width="0.5"
         points="293.241,23.6153 291.208,23.7597 287.922,24.0056 284.635,24.2474 281.349,24.4713 278.062,24.6672 274.775,24.8305 271.489,24.9609 268.202,25.0611 264.916,25.1353 261.629,25.1887 258.343,25.2258 255.056,25.2508 251.77,25.2672 248.483,25.2778 245.197,25.2848 241.91,25.2898 238.624,25.2936 235.337,25.2966 232.051,25.299 228.764,25.3008 225.477,25.3022 222.191,25.3034 218.904,25.3044 215.618,25.3054 212.331,25.3063 209.045,25.307 205.758,25.3074 202.472,25.3074 199.185,25.3068 195.899,25.3053 192.612,25.3025 189.326,25.2975 186.039,25.2889 182.753,25.2748 179.466,25.2525 176.179,25.2184 172.893,25.1683 169.606,25.0975 166.32,25.0009 163.033,24.874 159.747,24.7135 156.46,24.5182 153.174,24.2903 149.887,24.0357 146.601,23.7649 144.803,23.6153"
         stroke-linejoin="miter"
         id="polyline295" />
      <polyline
         fill="none"
         stroke-linecap="butt"
         stroke="#fde724"
         stroke-width="0.5"
         points="281.51,23.6153 281.349,23.6263 278.062,23.8227 274.775,23.9863 271.489,24.1169 268.202,24.2172 264.916,24.2916 261.629,24.345 258.343,24.3821 255.056,24.407 251.77,24.4233 248.483,24.4339 245.197,24.4408 241.91,24.4457 238.624,24.4494 235.337,24.4523 232.051,24.4546 228.764,24.4562 225.477,24.4575 222.191,24.4584 218.904,24.4593 215.618,24.4601 212.331,24.4608 209.045,24.4612 205.758,24.4613 202.472,24.461 199.185,24.46 195.899,24.4582 192.612,24.455 189.326,24.4495 186.039,24.4404 182.753,24.4258 179.466,24.4029 176.179,24.3681 172.893,24.3171 169.606,24.2452 166.32,24.1476 163.033,24.0193 159.747,23.8574 156.46,23.6604 155.815,23.6153"
         stroke-linejoin="miter"
         id="polyline297" />
    </g>
  </g>
  <metadata
     id="metadata387">
    <rdf:RDF>
      <cc:Work
         rdf:about="">
        <dc:title>gl2ps_renderer figure</dc:title>
      </cc:Work>
    </rdf:RDF>
  </metadata>
</svg>
