<?xml version="1.0" encoding="UTF-8" standalone="no"?>
<svg
   height="290pt"
   width="800pt"
   viewBox="0 0 800 290"
   version="1.1"
   id="svg6497"
   sodipodi:docname="crankfig1w.svg"
   inkscape:version="1.1 (c68e22c387, 2021-05-23)"
   xmlns:inkscape="http://www.inkscape.org/namespaces/inkscape"
   xmlns:sodipodi="http://sodipodi.sourceforge.net/DTD/sodipodi-0.dtd"
   xmlns="http://www.w3.org/2000/svg"
   xmlns:svg="http://www.w3.org/2000/svg"
   xmlns:rdf="http://www.w3.org/1999/02/22-rdf-syntax-ns#"
   xmlns:cc="http://creativecommons.org/ns#"
   xmlns:dc="http://purl.org/dc/elements/1.1/">
  <sodipodi:namedview
     id="namedview6499"
     pagecolor="#ffffff"
     bordercolor="#666666"
     borderopacity="1.0"
     inkscape:pageshadow="2"
     inkscape:pageopacity="0.0"
     inkscape:pagecheckerboard="0"
     inkscape:document-units="pt"
     showgrid="false"
     inkscape:zoom="0.68"
     inkscape:cx="407.35294"
     inkscape:cy="184.55882"
     inkscape:window-width="1763"
     inkscape:window-height="1055"
     inkscape:window-x="150"
     inkscape:window-y="-7"
     inkscape:window-maximized="1"
     inkscape:current-layer="svg6497" />
  <title
     id="title6298">Figure 1</title>
  <desc
     id="desc6300">
Creator: GL2PS 1.4.2, (C) 1999-2020 C. Geuzaine
For: Octave
CreationDate: Fri Feb 03 14:48:15 2023
</desc>
  <defs
     id="defs6302">
    <clipPath
       id="cp00384277">
      <polygon
         points="0,277 384,277 384,0 0,0 "
         id="polygon5835" />
    </clipPath>
  </defs>
  <polygon
     fill="#ffffff"
     points="0,0 392,0 392,276 0,276 "
     id="polygon6304" />
  <metadata
     id="metadata6501">
    <rdf:RDF>
      <cc:Work
         rdf:about="">
        <dc:title>Figure 1</dc:title>
      </cc:Work>
    </rdf:RDF>
  </metadata>
  <g
     id="g6889"
     transform="translate(15.372,7.719)">
    <g
       id="g6495">
      <path
         id="polygon6306"
         style="fill:#ffffff;shape-rendering:crispEdges"
         d="M 392,276 V 0 H 0 v 276 z" />
      <clipPath
         id="cp00392276">
        <polygon
           points="0,276 392,276 392,0 0,0 "
           id="polygon6308" />
      </clipPath>
      <g
         clip-path="url(#cp00392276)"
         id="g6493">
        <path
           id="polygon6311"
           style="fill:#ffffff;shape-rendering:crispEdges"
           d="M 355.628,246.016 V 20.7317 H 51.0847 V 246.016 Z" />
        <path
           id="polyline6313"
           style="fill:none;stroke:#262626;stroke-width:0.5"
           d="m 51.0847,246.016 v -3.049" />
        <path
           id="polyline6315"
           style="fill:none;stroke:#262626;stroke-width:0.5"
           d="M 51.0847,20.7317 V 23.781" />
        <path
           id="polyline6317"
           style="fill:none;stroke:#262626;stroke-width:0.5"
           d="m 111.993,246.016 v -3.049" />
        <path
           id="polyline6319"
           style="fill:none;stroke:#262626;stroke-width:0.5"
           d="M 111.993,20.7317 V 23.781" />
        <path
           id="polyline6321"
           style="fill:none;stroke:#262626;stroke-width:0.5"
           d="m 172.902,246.016 v -3.049" />
        <path
           id="polyline6323"
           style="fill:none;stroke:#262626;stroke-width:0.5"
           d="M 172.902,20.7317 V 23.781" />
        <path
           id="polyline6325"
           style="fill:none;stroke:#262626;stroke-width:0.5"
           d="m 233.811,246.016 v -3.049" />
        <path
           id="polyline6327"
           style="fill:none;stroke:#262626;stroke-width:0.5"
           d="M 233.811,20.7317 V 23.781" />
        <path
           id="polyline6329"
           style="fill:none;stroke:#262626;stroke-width:0.5"
           d="m 294.719,246.016 v -3.049" />
        <path
           id="polyline6331"
           style="fill:none;stroke:#262626;stroke-width:0.5"
           d="M 294.719,20.7317 V 23.781" />
        <path
           id="polyline6333"
           style="fill:none;stroke:#262626;stroke-width:0.5"
           d="m 355.628,246.016 v -3.049" />
        <path
           id="polyline6335"
           style="fill:none;stroke:#262626;stroke-width:0.5"
           d="M 355.628,20.7317 V 23.781" />
        <g
           font-size="10px"
           font-weight="normal"
           font-style="normal"
           font-family="FreeSans"
           xml:space="preserve"
           transform="translate(48.0847,261.526)"
           id="g6339">
    <g
   aria-label="0"
   id="text6337"
   style="fill:#262626"><path
     d="m 5.6982422,-3.6376953 q 0,1.9580078 -0.6152344,2.87597655 -0.6103516,0.91308594 -1.899414,0.91308594 -1.3085938,0 -1.9140626,-0.92773438 -0.60058589,-0.92773441 -0.60058589,-2.85156251 0,-1.9384765 0.61035159,-2.8613281 0.6103515,-0.9277344 1.9042969,-0.9277344 1.3085937,0 1.9091796,0.9423828 0.6054688,0.9375 0.6054688,2.8369141 z m -1.2841797,2.2167969 q 0.1708984,-0.3955078 0.2294922,-0.9277344 0.063477,-0.5371094 0.063477,-1.2890625 0,-0.7421875 -0.063477,-1.2890625 -0.058594,-0.546875 -0.234375,-0.9277344 -0.1708985,-0.3759765 -0.46875,-0.5664062 -0.2929688,-0.1904297 -0.7568359,-0.1904297 -0.4589844,0 -0.7617188,0.1904297 -0.2978516,0.1904297 -0.4736328,0.5761718 -0.1660156,0.3613282 -0.2294922,0.9423829 -0.058594,0.5810546 -0.058594,1.274414 0,0.7617188 0.053711,1.2744141 0.053711,0.5126953 0.2294922,0.9179687 0.1611328,0.3808594 0.4541015,0.58105471 0.2978516,0.20019532 0.7861329,0.20019532 0.4589843,0 0.7617187,-0.19042969 0.3027344,-0.19042964 0.4687502,-0.57617184 z"
     style="fill:#262626"
     id="path6905" /></g>
   </g>
        <g
           font-size="10px"
           font-weight="normal"
           font-style="normal"
           font-family="FreeSans"
           xml:space="preserve"
           transform="translate(104.493,261.526)"
           id="g6343">
    <g
   aria-label="0.2"
   id="text6341"
   style="fill:#262626"><path
     d="m 5.6982422,-3.6376953 q 0,1.9580078 -0.6152344,2.87597655 -0.6103516,0.91308594 -1.899414,0.91308594 -1.3085938,0 -1.9140626,-0.92773438 -0.60058589,-0.92773441 -0.60058589,-2.85156251 0,-1.9384765 0.61035159,-2.8613281 0.6103515,-0.9277344 1.9042969,-0.9277344 1.3085937,0 1.9091796,0.9423828 0.6054688,0.9375 0.6054688,2.8369141 z m -1.2841797,2.2167969 q 0.1708984,-0.3955078 0.2294922,-0.9277344 0.063477,-0.5371094 0.063477,-1.2890625 0,-0.7421875 -0.063477,-1.2890625 -0.058594,-0.546875 -0.234375,-0.9277344 -0.1708985,-0.3759765 -0.46875,-0.5664062 -0.2929688,-0.1904297 -0.7568359,-0.1904297 -0.4589844,0 -0.7617188,0.1904297 -0.2978516,0.1904297 -0.4736328,0.5761718 -0.1660156,0.3613282 -0.2294922,0.9423829 -0.058594,0.5810546 -0.058594,1.274414 0,0.7617188 0.053711,1.2744141 0.053711,0.5126953 0.2294922,0.9179687 0.1611328,0.3808594 0.4541015,0.58105471 0.2978516,0.20019532 0.7861329,0.20019532 0.4589843,0 0.7617187,-0.19042969 0.3027344,-0.19042964 0.4687502,-0.57617184 z"
     style="fill:#262626"
     id="path6908" /><path
     d="M 8.4023438,0 H 7.2353516 v -1.3916016 h 1.1669922 z"
     style="fill:#262626"
     id="path6910" /><path
     d="M 14.708008,0 H 9.7861328 v -1.0205078 q 0.5126952,-0.4394531 1.0253902,-0.8789063 0.517579,-0.4394531 0.961915,-0.8740234 0.9375,-0.9082031 1.284179,-1.4404297 0.34668,-0.5371094 0.34668,-1.1572265 0,-0.5664063 -0.375977,-0.8837891 -0.371093,-0.3222656 -1.040039,-0.3222656 -0.444336,0 -0.961914,0.15625 -0.517578,0.15625 -1.010742,0.4785156 H 9.966797 v -1.0253906 q 0.34668,-0.1708985 0.922851,-0.3125 0.581055,-0.1416016 1.123047,-0.1416016 1.118164,0 1.75293,0.5419922 0.634766,0.5371094 0.634766,1.4599609 0,0.4150391 -0.107422,0.7763672 -0.102539,0.3564453 -0.307617,0.6787109 -0.19043,0.3027344 -0.449219,0.5957032 -0.253906,0.2929687 -0.620117,0.649414 -0.522461,0.5126953 -1.079102,0.9960938 -0.556641,0.4785156 -1.040039,0.88867186 h 3.911133 z"
     style="fill:#262626"
     id="path6912" /></g>
   </g>
        <g
           font-size="10px"
           font-weight="normal"
           font-style="normal"
           font-family="FreeSans"
           xml:space="preserve"
           transform="translate(165.402,261.526)"
           id="g6347">
    <g
   aria-label="0.4"
   id="text6345"
   style="fill:#262626"><path
     d="m 5.6982422,-3.6376953 q 0,1.9580078 -0.6152344,2.87597655 -0.6103516,0.91308594 -1.899414,0.91308594 -1.3085938,0 -1.9140626,-0.92773438 -0.60058589,-0.92773441 -0.60058589,-2.85156251 0,-1.9384765 0.61035159,-2.8613281 0.6103515,-0.9277344 1.9042969,-0.9277344 1.3085937,0 1.9091796,0.9423828 0.6054688,0.9375 0.6054688,2.8369141 z m -1.2841797,2.2167969 q 0.1708984,-0.3955078 0.2294922,-0.9277344 0.063477,-0.5371094 0.063477,-1.2890625 0,-0.7421875 -0.063477,-1.2890625 -0.058594,-0.546875 -0.234375,-0.9277344 -0.1708985,-0.3759765 -0.46875,-0.5664062 -0.2929688,-0.1904297 -0.7568359,-0.1904297 -0.4589844,0 -0.7617188,0.1904297 -0.2978516,0.1904297 -0.4736328,0.5761718 -0.1660156,0.3613282 -0.2294922,0.9423829 -0.058594,0.5810546 -0.058594,1.274414 0,0.7617188 0.053711,1.2744141 0.053711,0.5126953 0.2294922,0.9179687 0.1611328,0.3808594 0.4541015,0.58105471 0.2978516,0.20019532 0.7861329,0.20019532 0.4589843,0 0.7617187,-0.19042969 0.3027344,-0.19042964 0.4687502,-0.57617184 z"
     style="fill:#262626"
     id="path6915" /><path
     d="M 8.4023438,0 H 7.2353516 v -1.3916016 h 1.1669922 z"
     style="fill:#262626"
     id="path6917" /><path
     d="M 14.874023,-2.0458984 H 13.794922 V 0 h -0.9375 V -2.0458984 H 9.3759766 v -1.1230469 l 3.5205074,-4.1015625 h 0.898438 v 4.4433594 h 1.079101 z m -2.016601,-0.78125 v -3.28125 l -2.817383,3.28125 z"
     style="fill:#262626"
     id="path6919" /></g>
   </g>
        <g
           font-size="10px"
           font-weight="normal"
           font-style="normal"
           font-family="FreeSans"
           xml:space="preserve"
           transform="translate(226.311,261.526)"
           id="g6351">
    <g
   aria-label="0.6"
   id="text6349"
   style="fill:#262626"><path
     d="m 5.6982422,-3.6376953 q 0,1.9580078 -0.6152344,2.87597655 -0.6103516,0.91308594 -1.899414,0.91308594 -1.3085938,0 -1.9140626,-0.92773438 -0.60058589,-0.92773441 -0.60058589,-2.85156251 0,-1.9384765 0.61035159,-2.8613281 0.6103515,-0.9277344 1.9042969,-0.9277344 1.3085937,0 1.9091796,0.9423828 0.6054688,0.9375 0.6054688,2.8369141 z m -1.2841797,2.2167969 q 0.1708984,-0.3955078 0.2294922,-0.9277344 0.063477,-0.5371094 0.063477,-1.2890625 0,-0.7421875 -0.063477,-1.2890625 -0.058594,-0.546875 -0.234375,-0.9277344 -0.1708985,-0.3759765 -0.46875,-0.5664062 -0.2929688,-0.1904297 -0.7568359,-0.1904297 -0.4589844,0 -0.7617188,0.1904297 -0.2978516,0.1904297 -0.4736328,0.5761718 -0.1660156,0.3613282 -0.2294922,0.9423829 -0.058594,0.5810546 -0.058594,1.274414 0,0.7617188 0.053711,1.2744141 0.053711,0.5126953 0.2294922,0.9179687 0.1611328,0.3808594 0.4541015,0.58105471 0.2978516,0.20019532 0.7861329,0.20019532 0.4589843,0 0.7617187,-0.19042969 0.3027344,-0.19042964 0.4687502,-0.57617184 z"
     style="fill:#262626"
     id="path6922" /><path
     d="M 8.4023438,0 H 7.2353516 v -1.3916016 h 1.1669922 z"
     style="fill:#262626"
     id="path6924" /><path
     d="m 14.81543,-2.3583984 q 0,1.1083984 -0.732422,1.8115234 -0.727539,0.69824219 -1.78711,0.69824219 -0.537109,0 -0.976562,-0.16601563 -0.439453,-0.16601562 -0.776367,-0.49316406 -0.419922,-0.40527344 -0.6494143,-1.0742187 -0.2246094,-0.6689454 -0.2246094,-1.6113282 0,-0.9667968 0.2050781,-1.7138672 0.2099606,-0.7470703 0.6640626,-1.328125 0.429687,-0.5517578 1.108398,-0.859375 0.678711,-0.3125 1.582032,-0.3125 0.288086,0 0.483398,0.024414 0.195313,0.024414 0.395508,0.087891 v 0.9326172 h -0.04883 q -0.136719,-0.073242 -0.415039,-0.1367187 -0.273438,-0.068359 -0.561524,-0.068359 -1.049804,0 -1.674804,0.6591797 -0.625,0.6542969 -0.727539,1.7724609 0.410156,-0.2490234 0.805664,-0.3759765 0.40039,-0.131836 0.922851,-0.131836 0.463867,0 0.81543,0.087891 0.356445,0.083008 0.727539,0.3417969 0.429687,0.2978516 0.644531,0.7519531 0.219727,0.4541016 0.219727,1.1035157 z m -0.991211,0.039063 q 0,-0.4541016 -0.136719,-0.7519532 -0.131836,-0.2978515 -0.439453,-0.5175781 -0.224609,-0.15625 -0.498047,-0.2050781 -0.273437,-0.048828 -0.571289,-0.048828 -0.415039,0 -0.771484,0.097656 -0.356446,0.097656 -0.732422,0.3027344 -0.0098,0.1074219 -0.01465,0.2099609 -0.0049,0.097656 -0.0049,0.2490235 0,0.7714843 0.15625,1.2207031 0.161133,0.4443359 0.439454,0.703125 0.224609,0.21484374 0.483398,0.3173828 0.263672,0.0976563 0.571289,0.0976563 0.708008,0 1.113281,-0.4296875 0.405274,-0.4345704 0.405274,-1.2451172 z"
     style="fill:#262626"
     id="path6926" /></g>
   </g>
        <g
           font-size="10px"
           font-weight="normal"
           font-style="normal"
           font-family="FreeSans"
           xml:space="preserve"
           transform="translate(287.219,261.526)"
           id="g6355">
    <g
   aria-label="0.8"
   id="text6353"
   style="fill:#262626"><path
     d="m 5.6982422,-3.6376953 q 0,1.9580078 -0.6152344,2.87597655 -0.6103516,0.91308594 -1.899414,0.91308594 -1.3085938,0 -1.9140626,-0.92773438 -0.60058589,-0.92773441 -0.60058589,-2.85156251 0,-1.9384765 0.61035159,-2.8613281 0.6103515,-0.9277344 1.9042969,-0.9277344 1.3085937,0 1.9091796,0.9423828 0.6054688,0.9375 0.6054688,2.8369141 z m -1.2841797,2.2167969 q 0.1708984,-0.3955078 0.2294922,-0.9277344 0.063477,-0.5371094 0.063477,-1.2890625 0,-0.7421875 -0.063477,-1.2890625 -0.058594,-0.546875 -0.234375,-0.9277344 -0.1708985,-0.3759765 -0.46875,-0.5664062 -0.2929688,-0.1904297 -0.7568359,-0.1904297 -0.4589844,0 -0.7617188,0.1904297 -0.2978516,0.1904297 -0.4736328,0.5761718 -0.1660156,0.3613282 -0.2294922,0.9423829 -0.058594,0.5810546 -0.058594,1.274414 0,0.7617188 0.053711,1.2744141 0.053711,0.5126953 0.2294922,0.9179687 0.1611328,0.3808594 0.4541015,0.58105471 0.2978516,0.20019532 0.7861329,0.20019532 0.4589843,0 0.7617187,-0.19042969 0.3027344,-0.19042964 0.4687502,-0.57617184 z"
     style="fill:#262626"
     id="path6929" /><path
     d="M 8.4023438,0 H 7.2353516 v -1.3916016 h 1.1669922 z"
     style="fill:#262626"
     id="path6931" /><path
     d="m 14.761719,-2.0263672 q 0,0.9423828 -0.737305,1.56738282 -0.732422,0.625 -1.845703,0.625 -1.181641,0 -1.884766,-0.61035156 -0.6982419,-0.61035156 -0.6982419,-1.56249996 0,-0.6054688 0.3515625,-1.09375 0.3515624,-0.4931641 0.9912114,-0.78125 v -0.029297 q -0.585938,-0.3125 -0.869141,-0.6835938 -0.2783204,-0.3710937 -0.2783204,-0.9277343 0,-0.8203125 0.6738284,-1.3671875 0.673828,-0.546875 1.713867,-0.546875 1.088867,0 1.738281,0.5224609 0.649414,0.5224609 0.649414,1.328125 0,0.4931641 -0.307617,0.9716797 -0.307617,0.4736328 -0.90332,0.7421875 v 0.029297 q 0.683594,0.2929687 1.044922,0.7226562 0.361328,0.4296875 0.361328,1.09375 z m -1.157227,-3.5498047 q 0,-0.5224609 -0.405273,-0.8300781 -0.400391,-0.3125 -1.025391,-0.3125 -0.615234,0 -1.010742,0.2929688 -0.390625,0.2929687 -0.390625,0.7910156 0,0.3515625 0.195312,0.6103515 0.200196,0.2539063 0.600586,0.4541016 0.180664,0.087891 0.517579,0.2294922 0.341796,0.1416016 0.664062,0.234375 0.483398,-0.3222656 0.668945,-0.6689453 0.185547,-0.3466797 0.185547,-0.8007813 z m 0.151367,3.6425782 q 0,-0.4492188 -0.200195,-0.7177735 -0.195312,-0.2734375 -0.771484,-0.546875 -0.229492,-0.1074219 -0.50293,-0.2001953 -0.273437,-0.092773 -0.727539,-0.2587891 -0.439453,0.2392578 -0.708008,0.6494141 -0.263672,0.4101562 -0.263672,0.9277344 0,0.6591797 0.454102,1.08886716 0.454101,0.4296875 1.152344,0.4296875 0.71289,0 1.137695,-0.36621094 0.429687,-0.36621092 0.429687,-1.00585932 z"
     style="fill:#262626"
     id="path6933" /></g>
   </g>
        <g
           font-size="10px"
           font-weight="normal"
           font-style="normal"
           font-family="FreeSans"
           xml:space="preserve"
           transform="translate(352.628,261.526)"
           id="g6359">
    <g
   aria-label="1"
   id="text6357"
   style="fill:#262626"><path
     d="M 5.2929687,0 H 1.3574219 V -0.7421875 H 2.8710938 V -5.6152344 H 1.3574219 v -0.6640625 q 0.3076172,0 0.6591797,-0.048828 0.3515625,-0.053711 0.5322265,-0.1513672 0.2246094,-0.1220703 0.3515625,-0.3076172 0.131836,-0.1904297 0.1513672,-0.5078125 h 0.756836 v 6.5527344 h 1.4843749 z"
     style="fill:#262626"
     id="path6936" /></g>
   </g>
        <path
           id="polyline6361"
           style="fill:none;stroke:#262626;stroke-width:0.5"
           d="m 51.0847,246.016 h 3.0409" />
        <path
           id="polyline6363"
           style="fill:none;stroke:#262626;stroke-width:0.5"
           d="m 355.628,246.016 h -3.041" />
        <path
           id="polyline6365"
           style="fill:none;stroke:#262626;stroke-width:0.5"
           d="m 51.0847,189.695 h 3.0409" />
        <path
           id="polyline6367"
           style="fill:none;stroke:#262626;stroke-width:0.5"
           d="m 355.628,189.695 h -3.041" />
        <path
           id="polyline6369"
           style="fill:none;stroke:#262626;stroke-width:0.5"
           d="m 51.0847,133.374 h 3.0409" />
        <path
           id="polyline6371"
           style="fill:none;stroke:#262626;stroke-width:0.5"
           d="m 355.628,133.374 h -3.041" />
        <path
           id="polyline6373"
           style="fill:none;stroke:#262626;stroke-width:0.5"
           d="m 51.0847,77.0529 h 3.0409" />
        <path
           id="polyline6375"
           style="fill:none;stroke:#262626;stroke-width:0.5"
           d="m 355.628,77.0529 h -3.041" />
        <path
           id="polyline6377"
           style="fill:none;stroke:#262626;stroke-width:0.5"
           d="m 51.0847,20.7317 h 3.0409" />
        <path
           id="polyline6379"
           style="fill:none;stroke:#262626;stroke-width:0.5"
           d="m 355.628,20.7317 h -3.041" />
        <g
           font-size="10px"
           font-weight="normal"
           font-style="normal"
           font-family="FreeSans"
           xml:space="preserve"
           transform="translate(37.0922,250.016)"
           id="g6383">
    <g
   aria-label="-1"
   id="text6381"
   style="fill:#262626"><path
     d="M 3.7939453,-2.7392578 H 0.74707031 V -3.6230469 H 3.7939453 Z"
     style="fill:#262626"
     id="path6949" /><path
     d="M 8.2929688,0 H 4.3574219 V -0.7421875 H 5.8710937 V -5.6152344 H 4.3574219 v -0.6640625 q 0.3076172,0 0.6591797,-0.048828 0.3515625,-0.053711 0.5322265,-0.1513672 0.2246094,-0.1220703 0.3515625,-0.3076172 0.131836,-0.1904297 0.1513672,-0.5078125 h 0.7568359 v 6.5527344 h 1.4843751 z"
     style="fill:#262626"
     id="path6951" /></g>
   </g>
        <g
           font-size="10px"
           font-weight="normal"
           font-style="normal"
           font-family="FreeSans"
           xml:space="preserve"
           transform="translate(28.0922,193.695)"
           id="g6387">
    <g
   aria-label="-0.5"
   id="text6385"
   style="fill:#262626"><path
     d="M 3.7939453,-2.7392578 H 0.74707031 V -3.6230469 H 3.7939453 Z"
     style="fill:#262626"
     id="path6954" /><path
     d="m 8.6982422,-3.6376953 q 0,1.9580078 -0.6152344,2.87597655 -0.6103516,0.91308594 -1.8994141,0.91308594 -1.3085937,0 -1.9140625,-0.92773438 -0.6005859,-0.92773441 -0.6005859,-2.85156251 0,-1.9384765 0.6103516,-2.8613281 0.6103515,-0.9277344 1.9042968,-0.9277344 1.3085938,0 1.9091797,0.9423828 0.6054688,0.9375 0.6054688,2.8369141 z m -1.2841797,2.2167969 q 0.1708984,-0.3955078 0.2294922,-0.9277344 0.063477,-0.5371094 0.063477,-1.2890625 0,-0.7421875 -0.063477,-1.2890625 -0.058594,-0.546875 -0.234375,-0.9277344 -0.1708985,-0.3759765 -0.46875,-0.5664062 -0.2929688,-0.1904297 -0.756836,-0.1904297 -0.4589843,0 -0.7617187,0.1904297 -0.2978516,0.1904297 -0.4736328,0.5761718 -0.1660156,0.3613282 -0.2294922,0.9423829 -0.058594,0.5810546 -0.058594,1.274414 0,0.7617188 0.053711,1.2744141 0.053711,0.5126953 0.2294922,0.9179687 0.1611328,0.3808594 0.4541015,0.58105471 0.2978516,0.20019532 0.7861328,0.20019532 0.4589844,0 0.7617188,-0.19042969 0.3027344,-0.19042964 0.4687502,-0.57617184 z"
     style="fill:#262626"
     id="path6956" /><path
     d="m 11.402344,0 h -1.166992 v -1.3916016 h 1.166992 z"
     style="fill:#262626"
     id="path6958" /><path
     d="m 17.649414,-2.3095703 q 0,0.5078125 -0.185547,0.9716797 -0.185547,0.46386716 -0.507812,0.78124998 -0.351563,0.34179687 -0.839844,0.52734374 -0.483398,0.18066407 -1.123047,0.18066407 -0.595703,0 -1.147461,-0.12695313 -0.551758,-0.12207031 -0.932617,-0.29785156 v -1.0302734 h 0.06836 q 0.400391,0.2539062 0.9375,0.43457027 0.53711,0.17578126 1.054688,0.17578126 0.34668,0 0.668945,-0.0976563 0.327149,-0.0976563 0.581055,-0.34179683 0.214844,-0.2099609 0.322265,-0.5029297 0.112305,-0.2929687 0.112305,-0.6787109 0,-0.3759766 -0.131836,-0.6347657 -0.126953,-0.2587891 -0.356445,-0.4150391 -0.253906,-0.1855468 -0.620117,-0.2587891 -0.361328,-0.078125 -0.810547,-0.078125 -0.429688,0 -0.830078,0.058594 -0.395508,0.058594 -0.683594,0.1171875 v -3.7451172 h 4.375 v 0.8544922 H 14.16797 v 1.9335937 q 0.209961,-0.019531 0.429687,-0.029297 0.219727,-0.00977 0.38086,-0.00977 0.59082,0 1.035156,0.1025391 0.444336,0.097656 0.81543,0.3515625 0.390625,0.2685546 0.605468,0.6933593 0.214844,0.4248046 0.214844,1.0644531 z"
     style="fill:#262626"
     id="path6960" /></g>
   </g>
        <g
           font-size="10px"
           font-weight="normal"
           font-style="normal"
           font-family="FreeSans"
           xml:space="preserve"
           transform="translate(40.0922,137.374)"
           id="g6391">
    <g
   aria-label="0"
   id="text6389"
   style="fill:#262626"><path
     d="m 5.6982422,-3.6376953 q 0,1.9580078 -0.6152344,2.87597655 -0.6103516,0.91308594 -1.899414,0.91308594 -1.3085938,0 -1.9140626,-0.92773438 -0.60058589,-0.92773441 -0.60058589,-2.85156251 0,-1.9384765 0.61035159,-2.8613281 0.6103515,-0.9277344 1.9042969,-0.9277344 1.3085937,0 1.9091796,0.9423828 0.6054688,0.9375 0.6054688,2.8369141 z m -1.2841797,2.2167969 q 0.1708984,-0.3955078 0.2294922,-0.9277344 0.063477,-0.5371094 0.063477,-1.2890625 0,-0.7421875 -0.063477,-1.2890625 -0.058594,-0.546875 -0.234375,-0.9277344 -0.1708985,-0.3759765 -0.46875,-0.5664062 -0.2929688,-0.1904297 -0.7568359,-0.1904297 -0.4589844,0 -0.7617188,0.1904297 -0.2978516,0.1904297 -0.4736328,0.5761718 -0.1660156,0.3613282 -0.2294922,0.9423829 -0.058594,0.5810546 -0.058594,1.274414 0,0.7617188 0.053711,1.2744141 0.053711,0.5126953 0.2294922,0.9179687 0.1611328,0.3808594 0.4541015,0.58105471 0.2978516,0.20019532 0.7861329,0.20019532 0.4589843,0 0.7617187,-0.19042969 0.3027344,-0.19042964 0.4687502,-0.57617184 z"
     style="fill:#262626"
     id="path6963" /></g>
   </g>
        <g
           font-size="10px"
           font-weight="normal"
           font-style="normal"
           font-family="FreeSans"
           xml:space="preserve"
           transform="translate(31.0922,81.0529)"
           id="g6395">
    <g
   aria-label="0.5"
   id="text6393"
   style="fill:#262626"><path
     d="m 5.6982422,-3.6376953 q 0,1.9580078 -0.6152344,2.87597655 -0.6103516,0.91308594 -1.899414,0.91308594 -1.3085938,0 -1.9140626,-0.92773438 -0.60058589,-0.92773441 -0.60058589,-2.85156251 0,-1.9384765 0.61035159,-2.8613281 0.6103515,-0.9277344 1.9042969,-0.9277344 1.3085937,0 1.9091796,0.9423828 0.6054688,0.9375 0.6054688,2.8369141 z m -1.2841797,2.2167969 q 0.1708984,-0.3955078 0.2294922,-0.9277344 0.063477,-0.5371094 0.063477,-1.2890625 0,-0.7421875 -0.063477,-1.2890625 -0.058594,-0.546875 -0.234375,-0.9277344 -0.1708985,-0.3759765 -0.46875,-0.5664062 -0.2929688,-0.1904297 -0.7568359,-0.1904297 -0.4589844,0 -0.7617188,0.1904297 -0.2978516,0.1904297 -0.4736328,0.5761718 -0.1660156,0.3613282 -0.2294922,0.9423829 -0.058594,0.5810546 -0.058594,1.274414 0,0.7617188 0.053711,1.2744141 0.053711,0.5126953 0.2294922,0.9179687 0.1611328,0.3808594 0.4541015,0.58105471 0.2978516,0.20019532 0.7861329,0.20019532 0.4589843,0 0.7617187,-0.19042969 0.3027344,-0.19042964 0.4687502,-0.57617184 z"
     style="fill:#262626"
     id="path6966" /><path
     d="M 8.4023438,0 H 7.2353516 v -1.3916016 h 1.1669922 z"
     style="fill:#262626"
     id="path6968" /><path
     d="m 14.649414,-2.3095703 q 0,0.5078125 -0.185547,0.9716797 -0.185547,0.46386716 -0.507812,0.78124998 -0.351563,0.34179687 -0.839844,0.52734374 -0.483398,0.18066407 -1.123047,0.18066407 -0.595703,0 -1.147461,-0.12695313 -0.551758,-0.12207031 -0.9326171,-0.29785156 v -1.0302734 h 0.068359 q 0.4003911,0.2539062 0.9375001,0.43457027 0.53711,0.17578126 1.054688,0.17578126 0.34668,0 0.668945,-0.0976563 0.327149,-0.0976563 0.581055,-0.34179683 0.214844,-0.2099609 0.322265,-0.5029297 0.112305,-0.2929687 0.112305,-0.6787109 0,-0.3759766 -0.131836,-0.6347657 -0.126953,-0.2587891 -0.356445,-0.4150391 -0.253906,-0.1855468 -0.620117,-0.2587891 -0.361328,-0.078125 -0.810547,-0.078125 -0.429688,0 -0.830078,0.058594 -0.395508,0.058594 -0.683594,0.1171875 v -3.7451172 h 4.375 v 0.8544922 h -3.432617 v 1.9335937 q 0.209961,-0.019531 0.429687,-0.029297 0.219727,-0.00977 0.38086,-0.00977 0.59082,0 1.035156,0.1025391 0.444336,0.097656 0.81543,0.3515625 0.390625,0.2685546 0.605468,0.6933593 0.214844,0.4248046 0.214844,1.0644531 z"
     style="fill:#262626"
     id="path6970" /></g>
   </g>
        <g
           font-size="10px"
           font-weight="normal"
           font-style="normal"
           font-family="FreeSans"
           xml:space="preserve"
           transform="translate(40.0922,24.7317)"
           id="g6399">
    <g
   aria-label="1"
   id="text6397"
   style="fill:#262626"><path
     d="M 5.2929687,0 H 1.3574219 V -0.7421875 H 2.8710938 V -5.6152344 H 1.3574219 v -0.6640625 q 0.3076172,0 0.6591797,-0.048828 0.3515625,-0.053711 0.5322265,-0.1513672 0.2246094,-0.1220703 0.3515625,-0.3076172 0.131836,-0.1904297 0.1513672,-0.5078125 h 0.756836 v 6.5527344 h 1.4843749 z"
     style="fill:#262626"
     id="path6973" /></g>
   </g>
        <path
           id="polyline6401"
           style="fill:none;stroke:#262626;stroke-width:0.5;stroke-linecap:square;stroke-dasharray:16, 0"
           d="M 51.0847,246.016 H 355.628" />
        <path
           id="polyline6403"
           style="fill:none;stroke:#262626;stroke-width:0.5;stroke-linecap:square;stroke-dasharray:16, 0"
           d="M 51.0847,20.7317 H 355.628" />
        <path
           id="polyline6405"
           style="fill:none;stroke:#262626;stroke-width:0.5;stroke-linecap:square;stroke-dasharray:16, 0"
           d="M 51.0847,246.016 V 20.7317" />
        <path
           id="polyline6407"
           style="fill:none;stroke:#262626;stroke-width:0.5;stroke-linecap:square;stroke-dasharray:16, 0"
           d="M 355.628,246.016 V 20.7317" />
        <path
           id="polyline6409"
           style="fill:none;stroke:#0071bc;stroke-width:0.5;stroke-linecap:round;stroke-linejoin:round"
           d="m 54.0847,53.5478 -0.573,1.7634 -1.5,1.0898 h -1.8541 l -1.5,-1.0898 -0.5729,-1.7634 0.5729,-1.7633 1.5,-1.0898 h 1.8541 l 1.5,1.0898 0.573,1.7633" />
        <path
           id="polyline6411"
           style="fill:none;stroke:#0071bc;stroke-width:0.5;stroke-linecap:round;stroke-linejoin:round"
           d="m 61.6983,53.7917 -0.573,1.7634 -1.5,1.0898 h -1.8541 l -1.5,-1.0898 -0.5729,-1.7634 0.5729,-1.7633 1.5,-1.0898 h 1.8541 l 1.5,1.0898 0.573,1.7633" />
        <path
           id="polyline6413"
           style="fill:none;stroke:#0071bc;stroke-width:0.5;stroke-linecap:round;stroke-linejoin:round"
           d="m 69.3118,54.5265 -0.5729,1.7634 -1.5,1.0898 h -1.8541 l -1.5,-1.0898 -0.573,-1.7634 0.573,-1.7633 1.5,-1.0898 h 1.8541 l 1.5,1.0898 0.5729,1.7633" />
        <path
           id="polyline6415"
           style="fill:none;stroke:#0071bc;stroke-width:0.5;stroke-linecap:round;stroke-linejoin:round"
           d="m 76.9254,55.7477 -0.5729,1.7634 -1.5,1.0898 h -1.8541 l -1.5,-1.0898 -0.573,-1.7634 0.573,-1.7633 1.5,-1.0898 h 1.8541 l 1.5,1.0898 0.5729,1.7633" />
        <path
           id="polyline6417"
           style="fill:none;stroke:#0071bc;stroke-width:0.5;stroke-linecap:round;stroke-linejoin:round"
           d="m 84.539,57.4478 -0.573,1.7633 -1.5,1.0898 h -1.8541 l -1.5,-1.0898 -0.5729,-1.7633 0.5729,-1.7634 1.5,-1.0898 h 1.8541 l 1.5,1.0898 0.573,1.7634" />
        <path
           id="polyline6419"
           style="fill:none;stroke:#0071bc;stroke-width:0.5;stroke-linecap:round;stroke-linejoin:round"
           d="m 92.1526,59.6162 -0.573,1.7633 -1.5,1.0898 h -1.8541 l -1.5,-1.0898 -0.5729,-1.7633 0.5729,-1.7634 1.5,-1.0898 h 1.8541 l 1.5,1.0898 0.573,1.7634" />
        <path
           id="polyline6421"
           style="fill:none;stroke:#0071bc;stroke-width:0.5;stroke-linecap:round;stroke-linejoin:round"
           d="m 99.7662,62.2395 -0.573,1.7634 -1.5,1.0898 h -1.8541 l -1.5,-1.0898 -0.5729,-1.7634 0.5729,-1.7633 1.5,-1.0899 h 1.8541 l 1.5,1.0899 0.573,1.7633" />
        <path
           id="polyline6423"
           style="fill:none;stroke:#0071bc;stroke-width:0.5;stroke-linecap:round;stroke-linejoin:round"
           d="m 107.38,65.3016 -0.573,1.7634 -1.5,1.0898 h -1.854 l -1.5,-1.0898 -0.573,-1.7634 0.573,-1.7633 1.5,-1.0899 h 1.854 l 1.5,1.0899 0.573,1.7633" />
        <path
           id="polyline6425"
           style="fill:none;stroke:#0071bc;stroke-width:0.5;stroke-linecap:round;stroke-linejoin:round"
           d="m 114.993,68.7836 -0.573,1.7634 -1.5,1.0898 h -1.854 l -1.5,-1.0898 -0.573,-1.7634 0.573,-1.7634 1.5,-1.0898 h 1.854 l 1.5,1.0898 0.573,1.7634" />
        <path
           id="polyline6427"
           style="fill:none;stroke:#0071bc;stroke-width:0.5;stroke-linecap:round;stroke-linejoin:round"
           d="m 122.607,72.664 -0.573,1.7633 -1.5,1.0898 h -1.854 l -1.5,-1.0898 -0.573,-1.7633 0.573,-1.7634 1.5,-1.0898 h 1.854 l 1.5,1.0898 0.573,1.7634" />
        <path
           id="polyline6429"
           style="fill:none;stroke:#0071bc;stroke-width:0.5;stroke-linecap:round;stroke-linejoin:round"
           d="m 130.22,76.9188 -0.572,1.7634 -1.5,1.0898 h -1.855 l -1.5,-1.0898 -0.573,-1.7634 0.573,-1.7634 1.5,-1.0898 h 1.855 l 1.5,1.0898 0.572,1.7634" />
        <path
           id="polyline6431"
           style="fill:none;stroke:#0071bc;stroke-width:0.5;stroke-linecap:round;stroke-linejoin:round"
           d="m 137.834,81.5218 -0.573,1.7634 -1.5,1.0898 h -1.854 l -1.5,-1.0898 -0.573,-1.7634 0.573,-1.7633 1.5,-1.0898 h 1.854 l 1.5,1.0898 0.573,1.7633" />
        <path
           id="polyline6433"
           style="fill:none;stroke:#0071bc;stroke-width:0.5;stroke-linecap:round;stroke-linejoin:round"
           d="m 145.448,86.4447 -0.573,1.7633 -1.5,1.0899 h -1.854 l -1.5,-1.0899 -0.573,-1.7633 0.573,-1.7634 1.5,-1.0898 h 1.854 l 1.5,1.0898 0.573,1.7634" />
        <path
           id="polyline6435"
           style="fill:none;stroke:#0071bc;stroke-width:0.5;stroke-linecap:round;stroke-linejoin:round"
           d="m 153.061,91.657 -0.573,1.7633 -1.5,1.0899 h -1.854 l -1.5,-1.0899 -0.573,-1.7633 0.573,-1.7634 1.5,-1.0898 h 1.854 l 1.5,1.0898 0.573,1.7634" />
        <path
           id="polyline6437"
           style="fill:none;stroke:#0071bc;stroke-width:0.5;stroke-linecap:round;stroke-linejoin:round"
           d="m 160.675,97.1266 -0.573,1.7633 -1.5,1.0899 h -1.854 l -1.5,-1.0899 -0.573,-1.7633 0.573,-1.7634 1.5,-1.0898 h 1.854 l 1.5,1.0898 0.573,1.7634" />
        <path
           id="polyline6439"
           style="fill:none;stroke:#0071bc;stroke-width:0.5;stroke-linecap:round;stroke-linejoin:round"
           d="m 168.288,102.82 -0.573,1.763 -1.5,1.09 h -1.854 l -1.5,-1.09 -0.573,-1.763 0.573,-1.764 1.5,-1.0894 h 1.854 l 1.5,1.0894 0.573,1.764" />
        <path
           id="polyline6441"
           style="fill:none;stroke:#0071bc;stroke-width:0.5;stroke-linecap:round;stroke-linejoin:round"
           d="m 175.902,108.701 -0.573,1.764 -1.5,1.09 h -1.854 l -1.5,-1.09 -0.573,-1.764 0.573,-1.763 1.5,-1.09 h 1.854 l 1.5,1.09 0.573,1.763" />
        <path
           id="polyline6443"
           style="fill:none;stroke:#0071bc;stroke-width:0.5;stroke-linecap:round;stroke-linejoin:round"
           d="m 183.516,114.735 -0.573,1.763 -1.5,1.09 h -1.854 l -1.5,-1.09 -0.573,-1.763 0.573,-1.763 1.5,-1.09 h 1.854 l 1.5,1.09 0.573,1.763" />
        <path
           id="polyline6445"
           style="fill:none;stroke:#0071bc;stroke-width:0.5;stroke-linecap:round;stroke-linejoin:round"
           d="m 191.129,120.884 -0.573,1.763 -1.5,1.09 h -1.854 l -1.5,-1.09 -0.573,-1.763 0.573,-1.764 1.5,-1.089 h 1.854 l 1.5,1.089 0.573,1.764" />
        <path
           id="polyline6447"
           style="fill:none;stroke:#0071bc;stroke-width:0.5;stroke-linecap:round;stroke-linejoin:round"
           d="m 198.743,127.11 -0.573,1.763 -1.5,1.09 h -1.854 l -1.5,-1.09 -0.573,-1.763 0.573,-1.764 1.5,-1.09 h 1.854 l 1.5,1.09 0.573,1.764" />
        <path
           id="polyline6449"
           style="fill:none;stroke:#0071bc;stroke-width:0.5;stroke-linecap:round;stroke-linejoin:round"
           d="m 206.356,133.374 -0.573,1.763 -1.5,1.09 h -1.854 l -1.5,-1.09 -0.573,-1.763 0.573,-1.763 1.5,-1.09 h 1.854 l 1.5,1.09 0.573,1.763" />
        <path
           id="polyline6451"
           style="fill:none;stroke:#0071bc;stroke-width:0.5;stroke-linecap:round;stroke-linejoin:round"
           d="m 213.97,139.638 -0.573,1.764 -1.5,1.09 h -1.854 l -1.5,-1.09 -0.573,-1.764 0.573,-1.763 1.5,-1.09 h 1.854 l 1.5,1.09 0.573,1.763" />
        <path
           id="polyline6453"
           style="fill:none;stroke:#0071bc;stroke-width:0.5;stroke-linecap:round;stroke-linejoin:round"
           d="m 221.583,145.864 -0.572,1.764 -1.5,1.089 h -1.855 l -1.5,-1.089 -0.573,-1.764 0.573,-1.763 1.5,-1.09 h 1.855 l 1.5,1.09 0.572,1.763" />
        <path
           id="polyline6455"
           style="fill:none;stroke:#0071bc;stroke-width:0.5;stroke-linecap:round;stroke-linejoin:round"
           d="m 229.197,152.013 -0.573,1.763 -1.5,1.09 h -1.854 l -1.5,-1.09 -0.573,-1.763 0.573,-1.763 1.5,-1.09 h 1.854 l 1.5,1.09 0.573,1.763" />
        <path
           id="polyline6457"
           style="fill:none;stroke:#0071bc;stroke-width:0.5;stroke-linecap:round;stroke-linejoin:round"
           d="m 236.811,158.047 -0.573,1.763 -1.5,1.09 h -1.854 l -1.5,-1.09 -0.573,-1.763 0.573,-1.764 1.5,-1.089 h 1.854 l 1.5,1.089 0.573,1.764" />
        <path
           id="polyline6459"
           style="fill:none;stroke:#0071bc;stroke-width:0.5;stroke-linecap:round;stroke-linejoin:round"
           d="m 244.424,163.928 -0.573,1.764 -1.5,1.089 h -1.854 l -1.5,-1.089 -0.573,-1.764 0.573,-1.763 1.5,-1.09 h 1.854 l 1.5,1.09 0.573,1.763" />
        <path
           id="polyline6461"
           style="fill:none;stroke:#0071bc;stroke-width:0.5;stroke-linecap:round;stroke-linejoin:round"
           d="m 252.038,169.621 -0.573,1.764 -1.5,1.09 h -1.854 l -1.5,-1.09 -0.573,-1.764 0.573,-1.763 1.5,-1.09 h 1.854 l 1.5,1.09 0.573,1.763" />
        <path
           id="polyline6463"
           style="fill:none;stroke:#0071bc;stroke-width:0.5;stroke-linecap:round;stroke-linejoin:round"
           d="m 259.651,175.091 -0.573,1.763 -1.5,1.09 h -1.854 l -1.5,-1.09 -0.573,-1.763 0.573,-1.763 1.5,-1.09 h 1.854 l 1.5,1.09 0.573,1.763" />
        <path
           id="polyline6465"
           style="fill:none;stroke:#0071bc;stroke-width:0.5;stroke-linecap:round;stroke-linejoin:round"
           d="m 267.265,180.303 -0.573,1.764 -1.5,1.09 h -1.854 l -1.5,-1.09 -0.573,-1.764 0.573,-1.763 1.5,-1.09 h 1.854 l 1.5,1.09 0.573,1.763" />
        <path
           id="polyline6467"
           style="fill:none;stroke:#0071bc;stroke-width:0.5;stroke-linecap:round;stroke-linejoin:round"
           d="m 274.879,185.226 -0.573,1.764 -1.5,1.089 h -1.855 l -1.5,-1.089 -0.572,-1.764 0.572,-1.763 1.5,-1.09 h 1.855 l 1.5,1.09 0.573,1.763" />
        <path
           id="polyline6469"
           style="fill:none;stroke:#0071bc;stroke-width:0.5;stroke-linecap:round;stroke-linejoin:round"
           d="m 282.492,189.829 -0.573,1.764 -1.5,1.089 h -1.854 l -1.5,-1.089 -0.573,-1.764 0.573,-1.763 1.5,-1.09 h 1.854 l 1.5,1.09 0.573,1.763" />
        <path
           id="polyline6471"
           style="fill:none;stroke:#0071bc;stroke-width:0.5;stroke-linecap:round;stroke-linejoin:round"
           d="m 290.106,194.084 -0.573,1.763 -1.5,1.09 h -1.854 l -1.5,-1.09 -0.573,-1.763 0.573,-1.763 1.5,-1.09 h 1.854 l 1.5,1.09 0.573,1.763" />
        <path
           id="polyline6473"
           style="fill:none;stroke:#0071bc;stroke-width:0.5;stroke-linecap:round;stroke-linejoin:round"
           d="m 297.719,197.964 -0.573,1.764 -1.5,1.09 h -1.854 l -1.5,-1.09 -0.573,-1.764 0.573,-1.763 1.5,-1.09 h 1.854 l 1.5,1.09 0.573,1.763" />
        <path
           id="polyline6475"
           style="fill:none;stroke:#0071bc;stroke-width:0.5;stroke-linecap:round;stroke-linejoin:round"
           d="m 305.333,201.446 -0.573,1.764 -1.5,1.09 h -1.854 l -1.5,-1.09 -0.573,-1.764 0.573,-1.763 1.5,-1.09 h 1.854 l 1.5,1.09 0.573,1.763" />
        <path
           id="polyline6477"
           style="fill:none;stroke:#0071bc;stroke-width:0.5;stroke-linecap:round;stroke-linejoin:round"
           d="m 312.946,204.509 -0.572,1.763 -1.5,1.09 h -1.855 l -1.5,-1.09 -0.573,-1.763 0.573,-1.764 1.5,-1.09 h 1.855 l 1.5,1.09 0.572,1.764" />
        <path
           id="polyline6479"
           style="fill:none;stroke:#0071bc;stroke-width:0.5;stroke-linecap:round;stroke-linejoin:round"
           d="m 320.56,207.132 -0.573,1.763 -1.5,1.09 h -1.854 l -1.5,-1.09 -0.573,-1.763 0.573,-1.763 1.5,-1.09 h 1.854 l 1.5,1.09 0.573,1.763" />
        <path
           id="polyline6481"
           style="fill:none;stroke:#0071bc;stroke-width:0.5;stroke-linecap:round;stroke-linejoin:round"
           d="m 328.174,209.3 -0.573,1.764 -1.5,1.089 h -1.854 l -1.5,-1.089 -0.573,-1.764 0.573,-1.763 1.5,-1.09 h 1.854 l 1.5,1.09 0.573,1.763" />
        <path
           id="polyline6483"
           style="fill:none;stroke:#0071bc;stroke-width:0.5;stroke-linecap:round;stroke-linejoin:round"
           d="m 335.787,211 -0.573,1.764 -1.5,1.089 h -1.854 l -1.5,-1.089 -0.573,-1.764 0.573,-1.763 1.5,-1.09 h 1.854 l 1.5,1.09 0.573,1.763" />
        <path
           id="polyline6485"
           style="fill:none;stroke:#0071bc;stroke-width:0.5;stroke-linecap:round;stroke-linejoin:round"
           d="m 343.401,212.222 -0.573,1.763 -1.5,1.09 h -1.854 l -1.5,-1.09 -0.573,-1.763 0.573,-1.764 1.5,-1.09 h 1.854 l 1.5,1.09 0.573,1.764" />
        <path
           id="polyline6487"
           style="fill:none;stroke:#0071bc;stroke-width:0.5;stroke-linecap:round;stroke-linejoin:round"
           d="m 351.014,212.956 -0.573,1.764 -1.5,1.09 h -1.854 l -1.5,-1.09 -0.573,-1.764 0.573,-1.763 1.5,-1.09 h 1.854 l 1.5,1.09 0.573,1.763" />
        <path
           id="polyline6489"
           style="fill:none;stroke:#0071bc;stroke-width:0.5;stroke-linecap:round;stroke-linejoin:round"
           d="m 358.628,213.2 -0.573,1.764 -1.5,1.089 h -1.854 l -1.5,-1.089 -0.573,-1.764 0.573,-1.763 1.5,-1.09 h 1.854 l 1.5,1.09 0.573,1.763" />
        <path
           id="polyline6491"
           style="fill:none;stroke:#d85218;stroke-width:0.5;stroke-linejoin:round"
           d="m 51.0847,53.5478 7.6136,0.2461 7.6136,0.7367 7.6135,1.2228 7.6136,1.7014 7.6136,2.1694 7.6136,2.6242 7.6138,3.0626 7.613,3.4823 7.614,3.8804 7.614,4.2547 7.613,4.6027 7.614,4.9223 7.613,5.2115 7.614,5.4688 7.613,5.6923 7.614,5.88 7.614,6.033 7.613,6.147 7.614,6.225 7.613,6.263 7.614,6.263 7.613,6.225 7.614,6.147 7.614,6.033 7.613,5.88 7.614,5.692 7.613,5.469 7.614,5.212 7.614,4.922 7.613,4.603 7.614,4.254 7.613,3.881 7.614,3.482 7.613,3.063 7.614,2.624 7.614,2.169 7.613,1.702 7.614,1.222 7.613,0.737 7.614,0.246" />
      </g>
    </g>
    <g
       id="g5940"
       transform="translate(392,-1)">
      <path
         id="polygon5833"
         style="fill:#ffffff;shape-rendering:crispEdges"
         d="M 0,0 V 277 H 384 V 0 Z" />
      <clipPath
         id="clipPath6041">
        <polygon
           points="384,0 0,0 0,277 384,277 "
           id="polygon6039" />
      </clipPath>
      <g
         clip-path="url(#cp00384277)"
         id="g5938">
        <path
           id="polygon5838"
           style="fill:#ffffff;shape-rendering:crispEdges"
           d="M 49.9244,20.7891 V 246.697 H 347.551 V 20.7891 Z" />
        <path
           id="polyline5840"
           style="fill:none;stroke:#262626;stroke-width:0.5"
           d="m 49.9244,246.697 v -2.975" />
        <path
           id="polyline5842"
           style="fill:none;stroke:#262626;stroke-width:0.5"
           d="m 49.9244,20.7891 v 2.975" />
        <path
           id="polyline5844"
           style="fill:none;stroke:#262626;stroke-width:0.5"
           d="m 109.45,246.697 v -2.975" />
        <path
           id="polyline5846"
           style="fill:none;stroke:#262626;stroke-width:0.5"
           d="m 109.45,20.7891 v 2.975" />
        <path
           id="polyline5848"
           style="fill:none;stroke:#262626;stroke-width:0.5"
           d="m 168.975,246.697 v -2.975" />
        <path
           id="polyline5850"
           style="fill:none;stroke:#262626;stroke-width:0.5"
           d="m 168.975,20.7891 v 2.975" />
        <path
           id="polyline5852"
           style="fill:none;stroke:#262626;stroke-width:0.5"
           d="m 228.5,246.697 v -2.975" />
        <path
           id="polyline5854"
           style="fill:none;stroke:#262626;stroke-width:0.5"
           d="m 228.5,20.7891 v 2.975" />
        <path
           id="polyline5856"
           style="fill:none;stroke:#262626;stroke-width:0.5"
           d="m 288.025,246.697 v -2.975" />
        <path
           id="polyline5858"
           style="fill:none;stroke:#262626;stroke-width:0.5"
           d="m 288.025,20.7891 v 2.975" />
        <path
           id="polyline5860"
           style="fill:none;stroke:#262626;stroke-width:0.5"
           d="m 347.551,246.697 v -2.975" />
        <path
           id="polyline5862"
           style="fill:none;stroke:#262626;stroke-width:0.5"
           d="m 347.551,20.7891 v 2.975" />
        <g
           font-size="10px"
           font-family="FreeSans"
           transform="translate(46.9244,262.194)"
           font-weight="normal"
           xml:space="preserve"
           font-style="normal"
           id="g5866">
    <g
   aria-label="0"
   id="text5864"
   style="fill:#262626"><path
     d="m 5.6982422,-3.6376953 q 0,1.9580078 -0.6152344,2.87597655 -0.6103516,0.91308594 -1.899414,0.91308594 -1.3085938,0 -1.9140626,-0.92773438 -0.60058589,-0.92773441 -0.60058589,-2.85156251 0,-1.9384765 0.61035159,-2.8613281 0.6103515,-0.9277344 1.9042969,-0.9277344 1.3085937,0 1.9091796,0.9423828 0.6054688,0.9375 0.6054688,2.8369141 z m -1.2841797,2.2167969 q 0.1708984,-0.3955078 0.2294922,-0.9277344 0.063477,-0.5371094 0.063477,-1.2890625 0,-0.7421875 -0.063477,-1.2890625 -0.058594,-0.546875 -0.234375,-0.9277344 -0.1708985,-0.3759765 -0.46875,-0.5664062 -0.2929688,-0.1904297 -0.7568359,-0.1904297 -0.4589844,0 -0.7617188,0.1904297 -0.2978516,0.1904297 -0.4736328,0.5761718 -0.1660156,0.3613282 -0.2294922,0.9423829 -0.058594,0.5810546 -0.058594,1.274414 0,0.7617188 0.053711,1.2744141 0.053711,0.5126953 0.2294922,0.9179687 0.1611328,0.3808594 0.4541015,0.58105471 0.2978516,0.20019532 0.7861329,0.20019532 0.4589843,0 0.7617187,-0.19042969 0.3027344,-0.19042964 0.4687502,-0.57617184 z"
     style="fill:#262626"
     id="path7036" /></g>
   </g>
        <g
           font-size="10px"
           font-family="FreeSans"
           transform="translate(101.95,262.194)"
           font-weight="normal"
           xml:space="preserve"
           font-style="normal"
           id="g5870">
    <g
   aria-label="0.2"
   id="text5868"
   style="fill:#262626"><path
     d="m 5.6982422,-3.6376953 q 0,1.9580078 -0.6152344,2.87597655 -0.6103516,0.91308594 -1.899414,0.91308594 -1.3085938,0 -1.9140626,-0.92773438 -0.60058589,-0.92773441 -0.60058589,-2.85156251 0,-1.9384765 0.61035159,-2.8613281 0.6103515,-0.9277344 1.9042969,-0.9277344 1.3085937,0 1.9091796,0.9423828 0.6054688,0.9375 0.6054688,2.8369141 z m -1.2841797,2.2167969 q 0.1708984,-0.3955078 0.2294922,-0.9277344 0.063477,-0.5371094 0.063477,-1.2890625 0,-0.7421875 -0.063477,-1.2890625 -0.058594,-0.546875 -0.234375,-0.9277344 -0.1708985,-0.3759765 -0.46875,-0.5664062 -0.2929688,-0.1904297 -0.7568359,-0.1904297 -0.4589844,0 -0.7617188,0.1904297 -0.2978516,0.1904297 -0.4736328,0.5761718 -0.1660156,0.3613282 -0.2294922,0.9423829 -0.058594,0.5810546 -0.058594,1.274414 0,0.7617188 0.053711,1.2744141 0.053711,0.5126953 0.2294922,0.9179687 0.1611328,0.3808594 0.4541015,0.58105471 0.2978516,0.20019532 0.7861329,0.20019532 0.4589843,0 0.7617187,-0.19042969 0.3027344,-0.19042964 0.4687502,-0.57617184 z"
     style="fill:#262626"
     id="path7039" /><path
     d="M 8.4023438,0 H 7.2353516 v -1.3916016 h 1.1669922 z"
     style="fill:#262626"
     id="path7041" /><path
     d="M 14.708008,0 H 9.7861328 v -1.0205078 q 0.5126952,-0.4394531 1.0253902,-0.8789063 0.517579,-0.4394531 0.961915,-0.8740234 0.9375,-0.9082031 1.284179,-1.4404297 0.34668,-0.5371094 0.34668,-1.1572265 0,-0.5664063 -0.375977,-0.8837891 -0.371093,-0.3222656 -1.040039,-0.3222656 -0.444336,0 -0.961914,0.15625 -0.517578,0.15625 -1.010742,0.4785156 H 9.966797 v -1.0253906 q 0.34668,-0.1708985 0.922851,-0.3125 0.581055,-0.1416016 1.123047,-0.1416016 1.118164,0 1.75293,0.5419922 0.634766,0.5371094 0.634766,1.4599609 0,0.4150391 -0.107422,0.7763672 -0.102539,0.3564453 -0.307617,0.6787109 -0.19043,0.3027344 -0.449219,0.5957032 -0.253906,0.2929687 -0.620117,0.649414 -0.522461,0.5126953 -1.079102,0.9960938 -0.556641,0.4785156 -1.040039,0.88867186 h 3.911133 z"
     style="fill:#262626"
     id="path7043" /></g>
   </g>
        <g
           font-size="10px"
           font-family="FreeSans"
           transform="translate(161.475,262.194)"
           font-weight="normal"
           xml:space="preserve"
           font-style="normal"
           id="g5874">
    <g
   aria-label="0.4"
   id="text5872"
   style="fill:#262626"><path
     d="m 5.6982422,-3.6376953 q 0,1.9580078 -0.6152344,2.87597655 -0.6103516,0.91308594 -1.899414,0.91308594 -1.3085938,0 -1.9140626,-0.92773438 -0.60058589,-0.92773441 -0.60058589,-2.85156251 0,-1.9384765 0.61035159,-2.8613281 0.6103515,-0.9277344 1.9042969,-0.9277344 1.3085937,0 1.9091796,0.9423828 0.6054688,0.9375 0.6054688,2.8369141 z m -1.2841797,2.2167969 q 0.1708984,-0.3955078 0.2294922,-0.9277344 0.063477,-0.5371094 0.063477,-1.2890625 0,-0.7421875 -0.063477,-1.2890625 -0.058594,-0.546875 -0.234375,-0.9277344 -0.1708985,-0.3759765 -0.46875,-0.5664062 -0.2929688,-0.1904297 -0.7568359,-0.1904297 -0.4589844,0 -0.7617188,0.1904297 -0.2978516,0.1904297 -0.4736328,0.5761718 -0.1660156,0.3613282 -0.2294922,0.9423829 -0.058594,0.5810546 -0.058594,1.274414 0,0.7617188 0.053711,1.2744141 0.053711,0.5126953 0.2294922,0.9179687 0.1611328,0.3808594 0.4541015,0.58105471 0.2978516,0.20019532 0.7861329,0.20019532 0.4589843,0 0.7617187,-0.19042969 0.3027344,-0.19042964 0.4687502,-0.57617184 z"
     style="fill:#262626"
     id="path7046" /><path
     d="M 8.4023438,0 H 7.2353516 v -1.3916016 h 1.1669922 z"
     style="fill:#262626"
     id="path7048" /><path
     d="M 14.874023,-2.0458984 H 13.794922 V 0 h -0.9375 V -2.0458984 H 9.3759766 v -1.1230469 l 3.5205074,-4.1015625 h 0.898438 v 4.4433594 h 1.079101 z m -2.016601,-0.78125 v -3.28125 l -2.817383,3.28125 z"
     style="fill:#262626"
     id="path7050" /></g>
   </g>
        <g
           font-size="10px"
           font-family="FreeSans"
           transform="translate(221,262.194)"
           font-weight="normal"
           xml:space="preserve"
           font-style="normal"
           id="g5878">
    <g
   aria-label="0.6"
   id="text5876"
   style="fill:#262626"><path
     d="m 5.6982422,-3.6376953 q 0,1.9580078 -0.6152344,2.87597655 -0.6103516,0.91308594 -1.899414,0.91308594 -1.3085938,0 -1.9140626,-0.92773438 -0.60058589,-0.92773441 -0.60058589,-2.85156251 0,-1.9384765 0.61035159,-2.8613281 0.6103515,-0.9277344 1.9042969,-0.9277344 1.3085937,0 1.9091796,0.9423828 0.6054688,0.9375 0.6054688,2.8369141 z m -1.2841797,2.2167969 q 0.1708984,-0.3955078 0.2294922,-0.9277344 0.063477,-0.5371094 0.063477,-1.2890625 0,-0.7421875 -0.063477,-1.2890625 -0.058594,-0.546875 -0.234375,-0.9277344 -0.1708985,-0.3759765 -0.46875,-0.5664062 -0.2929688,-0.1904297 -0.7568359,-0.1904297 -0.4589844,0 -0.7617188,0.1904297 -0.2978516,0.1904297 -0.4736328,0.5761718 -0.1660156,0.3613282 -0.2294922,0.9423829 -0.058594,0.5810546 -0.058594,1.274414 0,0.7617188 0.053711,1.2744141 0.053711,0.5126953 0.2294922,0.9179687 0.1611328,0.3808594 0.4541015,0.58105471 0.2978516,0.20019532 0.7861329,0.20019532 0.4589843,0 0.7617187,-0.19042969 0.3027344,-0.19042964 0.4687502,-0.57617184 z"
     style="fill:#262626"
     id="path7053" /><path
     d="M 8.4023438,0 H 7.2353516 v -1.3916016 h 1.1669922 z"
     style="fill:#262626"
     id="path7055" /><path
     d="m 14.81543,-2.3583984 q 0,1.1083984 -0.732422,1.8115234 -0.727539,0.69824219 -1.78711,0.69824219 -0.537109,0 -0.976562,-0.16601563 -0.439453,-0.16601562 -0.776367,-0.49316406 -0.419922,-0.40527344 -0.6494143,-1.0742187 -0.2246094,-0.6689454 -0.2246094,-1.6113282 0,-0.9667968 0.2050781,-1.7138672 0.2099606,-0.7470703 0.6640626,-1.328125 0.429687,-0.5517578 1.108398,-0.859375 0.678711,-0.3125 1.582032,-0.3125 0.288086,0 0.483398,0.024414 0.195313,0.024414 0.395508,0.087891 v 0.9326172 h -0.04883 q -0.136719,-0.073242 -0.415039,-0.1367187 -0.273438,-0.068359 -0.561524,-0.068359 -1.049804,0 -1.674804,0.6591797 -0.625,0.6542969 -0.727539,1.7724609 0.410156,-0.2490234 0.805664,-0.3759765 0.40039,-0.131836 0.922851,-0.131836 0.463867,0 0.81543,0.087891 0.356445,0.083008 0.727539,0.3417969 0.429687,0.2978516 0.644531,0.7519531 0.219727,0.4541016 0.219727,1.1035157 z m -0.991211,0.039063 q 0,-0.4541016 -0.136719,-0.7519532 -0.131836,-0.2978515 -0.439453,-0.5175781 -0.224609,-0.15625 -0.498047,-0.2050781 -0.273437,-0.048828 -0.571289,-0.048828 -0.415039,0 -0.771484,0.097656 -0.356446,0.097656 -0.732422,0.3027344 -0.0098,0.1074219 -0.01465,0.2099609 -0.0049,0.097656 -0.0049,0.2490235 0,0.7714843 0.15625,1.2207031 0.161133,0.4443359 0.439454,0.703125 0.224609,0.21484374 0.483398,0.3173828 0.263672,0.0976563 0.571289,0.0976563 0.708008,0 1.113281,-0.4296875 0.405274,-0.4345704 0.405274,-1.2451172 z"
     style="fill:#262626"
     id="path7057" /></g>
   </g>
        <g
           font-size="10px"
           font-family="FreeSans"
           transform="translate(280.525,262.194)"
           font-weight="normal"
           xml:space="preserve"
           font-style="normal"
           id="g5882">
    <g
   aria-label="0.8"
   id="text5880"
   style="fill:#262626"><path
     d="m 5.6982422,-3.6376953 q 0,1.9580078 -0.6152344,2.87597655 -0.6103516,0.91308594 -1.899414,0.91308594 -1.3085938,0 -1.9140626,-0.92773438 -0.60058589,-0.92773441 -0.60058589,-2.85156251 0,-1.9384765 0.61035159,-2.8613281 0.6103515,-0.9277344 1.9042969,-0.9277344 1.3085937,0 1.9091796,0.9423828 0.6054688,0.9375 0.6054688,2.8369141 z m -1.2841797,2.2167969 q 0.1708984,-0.3955078 0.2294922,-0.9277344 0.063477,-0.5371094 0.063477,-1.2890625 0,-0.7421875 -0.063477,-1.2890625 -0.058594,-0.546875 -0.234375,-0.9277344 -0.1708985,-0.3759765 -0.46875,-0.5664062 -0.2929688,-0.1904297 -0.7568359,-0.1904297 -0.4589844,0 -0.7617188,0.1904297 -0.2978516,0.1904297 -0.4736328,0.5761718 -0.1660156,0.3613282 -0.2294922,0.9423829 -0.058594,0.5810546 -0.058594,1.274414 0,0.7617188 0.053711,1.2744141 0.053711,0.5126953 0.2294922,0.9179687 0.1611328,0.3808594 0.4541015,0.58105471 0.2978516,0.20019532 0.7861329,0.20019532 0.4589843,0 0.7617187,-0.19042969 0.3027344,-0.19042964 0.4687502,-0.57617184 z"
     style="fill:#262626"
     id="path7060" /><path
     d="M 8.4023438,0 H 7.2353516 v -1.3916016 h 1.1669922 z"
     style="fill:#262626"
     id="path7062" /><path
     d="m 14.761719,-2.0263672 q 0,0.9423828 -0.737305,1.56738282 -0.732422,0.625 -1.845703,0.625 -1.181641,0 -1.884766,-0.61035156 -0.6982419,-0.61035156 -0.6982419,-1.56249996 0,-0.6054688 0.3515625,-1.09375 0.3515624,-0.4931641 0.9912114,-0.78125 v -0.029297 q -0.585938,-0.3125 -0.869141,-0.6835938 -0.2783204,-0.3710937 -0.2783204,-0.9277343 0,-0.8203125 0.6738284,-1.3671875 0.673828,-0.546875 1.713867,-0.546875 1.088867,0 1.738281,0.5224609 0.649414,0.5224609 0.649414,1.328125 0,0.4931641 -0.307617,0.9716797 -0.307617,0.4736328 -0.90332,0.7421875 v 0.029297 q 0.683594,0.2929687 1.044922,0.7226562 0.361328,0.4296875 0.361328,1.09375 z m -1.157227,-3.5498047 q 0,-0.5224609 -0.405273,-0.8300781 -0.400391,-0.3125 -1.025391,-0.3125 -0.615234,0 -1.010742,0.2929688 -0.390625,0.2929687 -0.390625,0.7910156 0,0.3515625 0.195312,0.6103515 0.200196,0.2539063 0.600586,0.4541016 0.180664,0.087891 0.517579,0.2294922 0.341796,0.1416016 0.664062,0.234375 0.483398,-0.3222656 0.668945,-0.6689453 0.185547,-0.3466797 0.185547,-0.8007813 z m 0.151367,3.6425782 q 0,-0.4492188 -0.200195,-0.7177735 -0.195312,-0.2734375 -0.771484,-0.546875 -0.229492,-0.1074219 -0.50293,-0.2001953 -0.273437,-0.092773 -0.727539,-0.2587891 -0.439453,0.2392578 -0.708008,0.6494141 -0.263672,0.4101562 -0.263672,0.9277344 0,0.6591797 0.454102,1.08886716 0.454101,0.4296875 1.152344,0.4296875 0.71289,0 1.137695,-0.36621094 0.429687,-0.36621092 0.429687,-1.00585932 z"
     style="fill:#262626"
     id="path7064" /></g>
   </g>
        <g
           font-size="10px"
           font-family="FreeSans"
           transform="translate(344.551,262.194)"
           font-weight="normal"
           xml:space="preserve"
           font-style="normal"
           id="g5886">
    <g
   aria-label="1"
   id="text5884"
   style="fill:#262626"><path
     d="M 5.2929687,0 H 1.3574219 V -0.7421875 H 2.8710938 V -5.6152344 H 1.3574219 v -0.6640625 q 0.3076172,0 0.6591797,-0.048828 0.3515625,-0.053711 0.5322265,-0.1513672 0.2246094,-0.1220703 0.3515625,-0.3076172 0.131836,-0.1904297 0.1513672,-0.5078125 h 0.756836 v 6.5527344 h 1.4843749 z"
     style="fill:#262626"
     id="path7067" /></g>
   </g>
        <path
           id="polyline5888"
           style="fill:none;stroke:#262626;stroke-width:0.5"
           d="m 49.9244,246.697 h 2.9725" />
        <path
           id="polyline5890"
           style="fill:none;stroke:#262626;stroke-width:0.5"
           d="m 347.551,246.697 h -2.973" />
        <path
           id="polyline5892"
           style="fill:none;stroke:#262626;stroke-width:0.5"
           d="m 49.9244,190.22 h 2.9725" />
        <path
           id="polyline5894"
           style="fill:none;stroke:#262626;stroke-width:0.5"
           d="m 347.551,190.22 h -2.973" />
        <path
           id="polyline5896"
           style="fill:none;stroke:#262626;stroke-width:0.5"
           d="m 49.9244,133.743 h 2.9725" />
        <path
           id="polyline5898"
           style="fill:none;stroke:#262626;stroke-width:0.5"
           d="m 347.551,133.743 h -2.973" />
        <path
           id="polyline5900"
           style="fill:none;stroke:#262626;stroke-width:0.5"
           d="m 49.9244,77.2661 h 2.9725" />
        <path
           id="polyline5902"
           style="fill:none;stroke:#262626;stroke-width:0.5"
           d="m 347.551,77.2661 h -2.973" />
        <path
           id="polyline5904"
           style="fill:none;stroke:#262626;stroke-width:0.5"
           d="m 49.9244,20.7891 h 2.9725" />
        <path
           id="polyline5906"
           style="fill:none;stroke:#262626;stroke-width:0.5"
           d="m 347.551,20.7891 h -2.973" />
        <g
           font-size="10px"
           font-family="FreeSans"
           transform="translate(8.93068,250.697)"
           font-weight="normal"
           xml:space="preserve"
           font-style="normal"
           id="g5910">
    <g
   aria-label="-0.0001"
   id="text5908"
   style="fill:#262626"><path
     d="M 3.7939453,-2.7392578 H 0.74707031 V -3.6230469 H 3.7939453 Z"
     style="fill:#262626"
     id="path7080" /><path
     d="m 8.6982422,-3.6376953 q 0,1.9580078 -0.6152344,2.87597655 -0.6103516,0.91308594 -1.8994141,0.91308594 -1.3085937,0 -1.9140625,-0.92773438 -0.6005859,-0.92773441 -0.6005859,-2.85156251 0,-1.9384765 0.6103516,-2.8613281 0.6103515,-0.9277344 1.9042968,-0.9277344 1.3085938,0 1.9091797,0.9423828 0.6054688,0.9375 0.6054688,2.8369141 z m -1.2841797,2.2167969 q 0.1708984,-0.3955078 0.2294922,-0.9277344 0.063477,-0.5371094 0.063477,-1.2890625 0,-0.7421875 -0.063477,-1.2890625 -0.058594,-0.546875 -0.234375,-0.9277344 -0.1708985,-0.3759765 -0.46875,-0.5664062 -0.2929688,-0.1904297 -0.756836,-0.1904297 -0.4589843,0 -0.7617187,0.1904297 -0.2978516,0.1904297 -0.4736328,0.5761718 -0.1660156,0.3613282 -0.2294922,0.9423829 -0.058594,0.5810546 -0.058594,1.274414 0,0.7617188 0.053711,1.2744141 0.053711,0.5126953 0.2294922,0.9179687 0.1611328,0.3808594 0.4541015,0.58105471 0.2978516,0.20019532 0.7861328,0.20019532 0.4589844,0 0.7617188,-0.19042969 0.3027344,-0.19042964 0.4687502,-0.57617184 z"
     style="fill:#262626"
     id="path7082" /><path
     d="m 11.402344,0 h -1.166992 v -1.3916016 h 1.166992 z"
     style="fill:#262626"
     id="path7084" /><path
     d="m 17.698242,-3.6376953 q 0,1.9580078 -0.615234,2.87597655 -0.610352,0.91308594 -1.899414,0.91308594 -1.308594,0 -1.914063,-0.92773438 -0.600586,-0.92773441 -0.600586,-2.85156251 0,-1.9384765 0.610352,-2.8613281 0.610351,-0.9277344 1.904297,-0.9277344 1.308593,0 1.909179,0.9423828 0.605469,0.9375 0.605469,2.8369141 z m -1.28418,2.2167969 q 0.170899,-0.3955078 0.229493,-0.9277344 0.06348,-0.5371094 0.06348,-1.2890625 0,-0.7421875 -0.06348,-1.2890625 -0.05859,-0.546875 -0.234375,-0.9277344 -0.170899,-0.3759765 -0.46875,-0.5664062 -0.292969,-0.1904297 -0.756836,-0.1904297 -0.458985,0 -0.761719,0.1904297 -0.297852,0.1904297 -0.473633,0.5761718 -0.166015,0.3613282 -0.229492,0.9423829 -0.05859,0.5810546 -0.05859,1.274414 0,0.7617188 0.05371,1.2744141 0.05371,0.5126953 0.229492,0.9179687 0.161133,0.3808594 0.454102,0.58105471 0.297852,0.20019532 0.786133,0.20019532 0.458984,0 0.761719,-0.19042969 0.302734,-0.19042964 0.468749,-0.57617184 z"
     style="fill:#262626"
     id="path7086" /><path
     d="m 23.698242,-3.6376953 q 0,1.9580078 -0.615234,2.87597655 -0.610352,0.91308594 -1.899414,0.91308594 -1.308594,0 -1.914063,-0.92773438 -0.600586,-0.92773441 -0.600586,-2.85156251 0,-1.9384765 0.610352,-2.8613281 0.610351,-0.9277344 1.904297,-0.9277344 1.308593,0 1.909179,0.9423828 0.605469,0.9375 0.605469,2.8369141 z m -1.28418,2.2167969 q 0.170899,-0.3955078 0.229493,-0.9277344 0.06348,-0.5371094 0.06348,-1.2890625 0,-0.7421875 -0.06348,-1.2890625 -0.05859,-0.546875 -0.234375,-0.9277344 -0.170899,-0.3759765 -0.46875,-0.5664062 -0.292969,-0.1904297 -0.756836,-0.1904297 -0.458985,0 -0.761719,0.1904297 -0.297852,0.1904297 -0.473633,0.5761718 -0.166015,0.3613282 -0.229492,0.9423829 -0.05859,0.5810546 -0.05859,1.274414 0,0.7617188 0.05371,1.2744141 0.05371,0.5126953 0.229492,0.9179687 0.161133,0.3808594 0.454102,0.58105471 0.297851,0.20019532 0.786133,0.20019532 0.458984,0 0.761718,-0.19042969 0.302735,-0.19042964 0.46875,-0.57617184 z"
     style="fill:#262626"
     id="path7088" /><path
     d="m 29.698242,-3.6376953 q 0,1.9580078 -0.615234,2.87597655 -0.610352,0.91308594 -1.899414,0.91308594 -1.308594,0 -1.914063,-0.92773438 -0.600586,-0.92773441 -0.600586,-2.85156251 0,-1.9384765 0.610352,-2.8613281 0.610351,-0.9277344 1.904297,-0.9277344 1.308593,0 1.909179,0.9423828 0.605469,0.9375 0.605469,2.8369141 z m -1.28418,2.2167969 q 0.170899,-0.3955078 0.229493,-0.9277344 0.06348,-0.5371094 0.06348,-1.2890625 0,-0.7421875 -0.06348,-1.2890625 -0.05859,-0.546875 -0.234375,-0.9277344 -0.170899,-0.3759765 -0.46875,-0.5664062 -0.292969,-0.1904297 -0.756836,-0.1904297 -0.458985,0 -0.761719,0.1904297 -0.297852,0.1904297 -0.473633,0.5761718 -0.166015,0.3613282 -0.229492,0.9423829 -0.05859,0.5810546 -0.05859,1.274414 0,0.7617188 0.05371,1.2744141 0.05371,0.5126953 0.229492,0.9179687 0.161133,0.3808594 0.454102,0.58105471 0.297851,0.20019532 0.786133,0.20019532 0.458984,0 0.761718,-0.19042969 0.302735,-0.19042964 0.46875,-0.57617184 z"
     style="fill:#262626"
     id="path7090" /><path
     d="m 35.292969,0 h -3.935547 v -0.7421875 h 1.513672 v -4.8730469 h -1.513672 v -0.6640625 q 0.307617,0 0.65918,-0.048828 0.351562,-0.053711 0.532226,-0.1513672 0.224609,-0.1220703 0.351563,-0.3076172 0.131836,-0.1904297 0.151367,-0.5078125 h 0.756836 v 6.5527344 h 1.484375 z"
     style="fill:#262626"
     id="path7092" /></g>
   </g>
        <g
           font-size="10px"
           font-family="FreeSans"
           transform="translate(15.9307,194.22)"
           font-weight="normal"
           xml:space="preserve"
           font-style="normal"
           id="g5914">
    <g
   aria-label="-5e-05"
   id="text5912"
   style="fill:#262626"><path
     d="M 3.7939453,-2.7392578 H 0.74707031 V -3.6230469 H 3.7939453 Z"
     style="fill:#262626"
     id="path7095" /><path
     d="m 8.6494141,-2.3095703 q 0,0.5078125 -0.1855469,0.9716797 -0.1855469,0.46386716 -0.5078125,0.78124998 -0.3515625,0.34179687 -0.8398438,0.52734374 -0.4833984,0.18066407 -1.1230468,0.18066407 -0.5957032,0 -1.147461,-0.12695313 Q 4.2939453,-0.09765625 3.9130859,-0.2734375 v -1.0302734 h 0.068359 q 0.4003906,0.2539062 0.9375,0.43457027 0.5371094,0.17578126 1.0546875,0.17578126 0.3466797,0 0.6689453,-0.0976563 0.3271485,-0.0976563 0.5810547,-0.34179693 0.2148438,-0.2099609 0.3222656,-0.5029297 0.1123047,-0.2929687 0.1123047,-0.6787109 0,-0.3759766 -0.1318359,-0.6347657 Q 7.3994137,-3.2080079 7.1699215,-3.3642579 6.9160152,-3.5498048 6.5498043,-3.623047 6.1884762,-3.701172 5.7392574,-3.701172 q -0.4296875,0 -0.8300781,0.058594 -0.3955078,0.058594 -0.6835938,0.1171875 v -3.7451172 h 4.375 v 0.8544922 H 5.1679687 v 1.9335937 q 0.209961,-0.019531 0.4296875,-0.029297 0.2197266,-0.00977 0.3808594,-0.00977 0.5908203,0 1.0351563,0.1025391 0.4443359,0.097656 0.8154297,0.3515625 0.390625,0.2685546 0.6054687,0.6933593 0.2148438,0.4248046 0.2148438,1.0644531 z"
     style="fill:#262626"
     id="path7097" /><path
     d="m 14.46875,-2.6318359 h -4.018555 q 0,0.5029296 0.151368,0.8789062 0.151367,0.3710938 0.415039,0.6103516 0.253906,0.23437497 0.600586,0.35156248 0.351562,0.1171875 0.771484,0.1171875 0.556641,0 1.118164,-0.21972657 0.566406,-0.22460941 0.805664,-0.43945311 h 0.04883 v 1.00097655 q -0.463867,0.1953125 -0.947265,0.32714844 -0.483399,0.13183593 -1.015625,0.13183593 -1.357422,0 -2.119141,-0.73242187 -0.7617189,-0.73730465 -0.7617189,-2.08984375 0,-1.3378906 0.7275389,-2.1240234 0.732422,-0.7861328 1.923828,-0.7861328 1.103516,0 1.699219,0.6445312 0.600586,0.6445313 0.600586,1.8310547 z m -0.893555,-0.703125 q -0.0049,-0.7226563 -0.366211,-1.1181641 -0.356445,-0.3955078 -1.088867,-0.3955078 -0.737304,0 -1.176758,0.4345703 -0.43457,0.4345703 -0.493164,1.0791016 z"
     style="fill:#262626"
     id="path7099" /><path
     d="M 17.793945,-2.7392578 H 14.74707 v -0.8837891 h 3.046875 z"
     style="fill:#262626"
     id="path7101" /><path
     d="m 22.698242,-3.6376953 q 0,1.9580078 -0.615234,2.87597655 -0.610352,0.91308594 -1.899414,0.91308594 -1.308594,0 -1.914063,-0.92773438 -0.600586,-0.92773441 -0.600586,-2.85156251 0,-1.9384765 0.610352,-2.8613281 0.610351,-0.9277344 1.904297,-0.9277344 1.308593,0 1.909179,0.9423828 0.605469,0.9375 0.605469,2.8369141 z m -1.28418,2.2167969 q 0.170899,-0.3955078 0.229493,-0.9277344 0.06348,-0.5371094 0.06348,-1.2890625 0,-0.7421875 -0.06348,-1.2890625 -0.05859,-0.546875 -0.234375,-0.9277344 -0.170899,-0.3759765 -0.46875,-0.5664062 -0.292969,-0.1904297 -0.756836,-0.1904297 -0.458985,0 -0.761719,0.1904297 -0.297852,0.1904297 -0.473633,0.5761718 -0.166015,0.3613282 -0.229492,0.9423829 -0.05859,0.5810546 -0.05859,1.274414 0,0.7617188 0.05371,1.2744141 0.05371,0.5126953 0.229492,0.9179687 0.161133,0.3808594 0.454102,0.58105471 0.297851,0.20019532 0.786133,0.20019532 0.458984,0 0.761718,-0.19042969 0.302735,-0.19042964 0.46875,-0.57617184 z"
     style="fill:#262626"
     id="path7103" /><path
     d="m 28.649414,-2.3095703 q 0,0.5078125 -0.185547,0.9716797 -0.185547,0.46386716 -0.507812,0.78124998 -0.351563,0.34179687 -0.839844,0.52734374 -0.483399,0.18066407 -1.123047,0.18066407 -0.595703,0 -1.147461,-0.12695313 -0.551758,-0.12207031 -0.932617,-0.29785156 v -1.0302734 h 0.06836 q 0.400391,0.2539062 0.9375,0.43457027 0.53711,0.17578126 1.054688,0.17578126 0.346679,0 0.668945,-0.0976563 0.327149,-0.0976563 0.581055,-0.34179683 0.214844,-0.2099609 0.322265,-0.5029297 0.112305,-0.2929687 0.112305,-0.6787109 0,-0.3759766 -0.131836,-0.6347657 -0.126953,-0.2587891 -0.356445,-0.4150391 -0.253906,-0.1855468 -0.620117,-0.2587891 -0.361328,-0.078125 -0.810547,-0.078125 -0.429688,0 -0.830078,0.058594 -0.395508,0.058594 -0.683594,0.1171875 v -3.7451172 h 4.375 v 0.8544922 H 25.16797 v 1.9335937 q 0.209961,-0.019531 0.429687,-0.029297 0.219727,-0.00977 0.38086,-0.00977 0.59082,0 1.035156,0.1025391 0.444336,0.097656 0.81543,0.3515625 0.390625,0.2685546 0.605468,0.6933593 0.214844,0.4248046 0.214844,1.0644531 z"
     style="fill:#262626"
     id="path7105" /></g>
   </g>
        <g
           font-size="10px"
           font-family="FreeSans"
           transform="translate(38.9307,137.743)"
           font-weight="normal"
           xml:space="preserve"
           font-style="normal"
           id="g5918">
    <g
   aria-label="0"
   id="text5916"
   style="fill:#262626"><path
     d="m 5.6982422,-3.6376953 q 0,1.9580078 -0.6152344,2.87597655 -0.6103516,0.91308594 -1.899414,0.91308594 -1.3085938,0 -1.9140626,-0.92773438 -0.60058589,-0.92773441 -0.60058589,-2.85156251 0,-1.9384765 0.61035159,-2.8613281 0.6103515,-0.9277344 1.9042969,-0.9277344 1.3085937,0 1.9091796,0.9423828 0.6054688,0.9375 0.6054688,2.8369141 z m -1.2841797,2.2167969 q 0.1708984,-0.3955078 0.2294922,-0.9277344 0.063477,-0.5371094 0.063477,-1.2890625 0,-0.7421875 -0.063477,-1.2890625 -0.058594,-0.546875 -0.234375,-0.9277344 -0.1708985,-0.3759765 -0.46875,-0.5664062 -0.2929688,-0.1904297 -0.7568359,-0.1904297 -0.4589844,0 -0.7617188,0.1904297 -0.2978516,0.1904297 -0.4736328,0.5761718 -0.1660156,0.3613282 -0.2294922,0.9423829 -0.058594,0.5810546 -0.058594,1.274414 0,0.7617188 0.053711,1.2744141 0.053711,0.5126953 0.2294922,0.9179687 0.1611328,0.3808594 0.4541015,0.58105471 0.2978516,0.20019532 0.7861329,0.20019532 0.4589843,0 0.7617187,-0.19042969 0.3027344,-0.19042964 0.4687502,-0.57617184 z"
     style="fill:#262626"
     id="path7108" /></g>
   </g>
        <g
           font-size="10px"
           font-family="FreeSans"
           transform="translate(18.9307,81.2661)"
           font-weight="normal"
           xml:space="preserve"
           font-style="normal"
           id="g5922">
    <g
   aria-label="5e-05"
   id="text5920"
   style="fill:#262626"><path
     d="m 5.6494141,-2.3095703 q 0,0.5078125 -0.1855469,0.9716797 -0.1855469,0.46386716 -0.5078125,0.78124998 -0.3515625,0.34179687 -0.8398438,0.52734374 -0.4833984,0.18066407 -1.1230468,0.18066407 -0.5957032,0 -1.147461,-0.12695313 Q 1.2939453,-0.09765625 0.91308594,-0.2734375 v -1.0302734 h 0.0683594 q 0.40039056,0.2539062 0.93749996,0.43457027 0.5371094,0.17578126 1.0546875,0.17578126 0.3466797,0 0.6689453,-0.0976563 0.3271485,-0.0976563 0.5810547,-0.34179693 0.2148438,-0.2099609 0.3222656,-0.5029297 0.1123047,-0.2929687 0.1123047,-0.6787109 0,-0.3759766 -0.1318359,-0.6347657 Q 4.3994141,-3.2080079 4.1699219,-3.3642579 3.9160156,-3.5498048 3.5498047,-3.623047 3.1884766,-3.701172 2.7392578,-3.701172 q -0.4296875,0 -0.8300781,0.058594 -0.3955078,0.058594 -0.6835938,0.1171875 v -3.7451172 h 4.375 v 0.8544922 H 2.1679688 v 1.9335937 q 0.2099609,-0.019531 0.4296875,-0.029297 0.2197265,-0.00977 0.3808593,-0.00977 0.5908203,0 1.0351563,0.1025391 0.4443359,0.097656 0.8154297,0.3515625 0.390625,0.2685546 0.6054687,0.6933593 0.2148438,0.4248046 0.2148438,1.0644531 z"
     style="fill:#262626"
     id="path7111" /><path
     d="M 11.46875,-2.6318359 H 7.4501953 q 0,0.5029296 0.1513672,0.8789062 0.1513672,0.3710938 0.4150391,0.6103516 0.2539062,0.23437497 0.6005859,0.35156248 0.3515625,0.1171875 0.7714844,0.1171875 0.5566406,0 1.1181641,-0.21972657 0.566406,-0.22460941 0.805664,-0.43945311 h 0.04883 v 1.00097655 q -0.463867,0.1953125 -0.947265,0.32714844 -0.4833989,0.13183593 -1.0156255,0.13183593 -1.3574219,0 -2.1191406,-0.73242187 -0.7617188,-0.73730465 -0.7617188,-2.08984375 0,-1.3378906 0.7275391,-2.1240234 0.7324219,-0.7861328 1.9238281,-0.7861328 1.1035157,0 1.6992187,0.6445312 0.600586,0.6445313 0.600586,1.8310547 z m -0.893555,-0.703125 q -0.0049,-0.7226563 -0.366211,-1.1181641 -0.3564449,-0.3955078 -1.0888668,-0.3955078 -0.7373047,0 -1.1767578,0.4345703 -0.4345703,0.4345703 -0.4931641,1.0791016 z"
     style="fill:#262626"
     id="path7113" /><path
     d="M 14.793945,-2.7392578 H 11.74707 v -0.8837891 h 3.046875 z"
     style="fill:#262626"
     id="path7115" /><path
     d="m 19.698242,-3.6376953 q 0,1.9580078 -0.615234,2.87597655 -0.610352,0.91308594 -1.899414,0.91308594 -1.308594,0 -1.914063,-0.92773438 -0.600586,-0.92773441 -0.600586,-2.85156251 0,-1.9384765 0.610352,-2.8613281 0.610351,-0.9277344 1.904297,-0.9277344 1.308593,0 1.909179,0.9423828 0.605469,0.9375 0.605469,2.8369141 z m -1.28418,2.2167969 q 0.170899,-0.3955078 0.229493,-0.9277344 0.06348,-0.5371094 0.06348,-1.2890625 0,-0.7421875 -0.06348,-1.2890625 -0.05859,-0.546875 -0.234375,-0.9277344 -0.170899,-0.3759765 -0.46875,-0.5664062 -0.292969,-0.1904297 -0.756836,-0.1904297 -0.458985,0 -0.761719,0.1904297 -0.297852,0.1904297 -0.473633,0.5761718 -0.166015,0.3613282 -0.229492,0.9423829 -0.05859,0.5810546 -0.05859,1.274414 0,0.7617188 0.05371,1.2744141 0.05371,0.5126953 0.229492,0.9179687 0.161133,0.3808594 0.454102,0.58105471 0.297851,0.20019532 0.786133,0.20019532 0.458984,0 0.761718,-0.19042969 0.302735,-0.19042964 0.46875,-0.57617184 z"
     style="fill:#262626"
     id="path7117" /><path
     d="m 25.649414,-2.3095703 q 0,0.5078125 -0.185547,0.9716797 -0.185547,0.46386716 -0.507812,0.78124998 -0.351563,0.34179687 -0.839844,0.52734374 -0.483399,0.18066407 -1.123047,0.18066407 -0.595703,0 -1.147461,-0.12695313 -0.551758,-0.12207031 -0.932617,-0.29785156 v -1.0302734 h 0.06836 q 0.400391,0.2539062 0.9375,0.43457027 0.53711,0.17578126 1.054688,0.17578126 0.346679,0 0.668945,-0.0976563 0.327149,-0.0976563 0.581055,-0.34179683 0.214844,-0.2099609 0.322265,-0.5029297 0.112305,-0.2929687 0.112305,-0.6787109 0,-0.3759766 -0.131836,-0.6347657 -0.126953,-0.2587891 -0.356445,-0.4150391 -0.253906,-0.1855468 -0.620117,-0.2587891 -0.361328,-0.078125 -0.810547,-0.078125 -0.429688,0 -0.830078,0.058594 -0.395508,0.058594 -0.683594,0.1171875 v -3.7451172 h 4.375 v 0.8544922 H 22.16797 v 1.9335937 q 0.209961,-0.019531 0.429687,-0.029297 0.219727,-0.00977 0.38086,-0.00977 0.59082,0 1.035156,0.1025391 0.444336,0.097656 0.81543,0.3515625 0.390625,0.2685546 0.605468,0.6933593 0.214844,0.4248046 0.214844,1.0644531 z"
     style="fill:#262626"
     id="path7119" /></g>
   </g>
        <g
           font-size="10px"
           font-family="FreeSans"
           transform="translate(11.9307,24.7891)"
           font-weight="normal"
           xml:space="preserve"
           font-style="normal"
           id="g5926">
    <g
   aria-label="0.0001"
   id="text5924"
   style="fill:#262626"><path
     d="m 5.6982422,-3.6376953 q 0,1.9580078 -0.6152344,2.87597655 -0.6103516,0.91308594 -1.899414,0.91308594 -1.3085938,0 -1.9140626,-0.92773438 -0.60058589,-0.92773441 -0.60058589,-2.85156251 0,-1.9384765 0.61035159,-2.8613281 0.6103515,-0.9277344 1.9042969,-0.9277344 1.3085937,0 1.9091796,0.9423828 0.6054688,0.9375 0.6054688,2.8369141 z m -1.2841797,2.2167969 q 0.1708984,-0.3955078 0.2294922,-0.9277344 0.063477,-0.5371094 0.063477,-1.2890625 0,-0.7421875 -0.063477,-1.2890625 -0.058594,-0.546875 -0.234375,-0.9277344 -0.1708985,-0.3759765 -0.46875,-0.5664062 -0.2929688,-0.1904297 -0.7568359,-0.1904297 -0.4589844,0 -0.7617188,0.1904297 -0.2978516,0.1904297 -0.4736328,0.5761718 -0.1660156,0.3613282 -0.2294922,0.9423829 -0.058594,0.5810546 -0.058594,1.274414 0,0.7617188 0.053711,1.2744141 0.053711,0.5126953 0.2294922,0.9179687 0.1611328,0.3808594 0.4541015,0.58105471 0.2978516,0.20019532 0.7861329,0.20019532 0.4589843,0 0.7617187,-0.19042969 0.3027344,-0.19042964 0.4687502,-0.57617184 z"
     style="fill:#262626"
     id="path7122" /><path
     d="M 8.4023438,0 H 7.2353516 v -1.3916016 h 1.1669922 z"
     style="fill:#262626"
     id="path7124" /><path
     d="m 14.698242,-3.6376953 q 0,1.9580078 -0.615234,2.87597655 -0.610352,0.91308594 -1.899414,0.91308594 -1.308594,0 -1.914063,-0.92773438 -0.6005857,-0.92773441 -0.6005857,-2.85156251 0,-1.9384765 0.6103517,-2.8613281 0.610351,-0.9277344 1.904297,-0.9277344 1.308594,0 1.909179,0.9423828 0.605469,0.9375 0.605469,2.8369141 z m -1.284179,2.2167969 q 0.170898,-0.3955078 0.229492,-0.9277344 0.06348,-0.5371094 0.06348,-1.2890625 0,-0.7421875 -0.06348,-1.2890625 -0.05859,-0.546875 -0.234375,-0.9277344 -0.170899,-0.3759765 -0.46875,-0.5664062 -0.292969,-0.1904297 -0.756836,-0.1904297 -0.458985,0 -0.761719,0.1904297 -0.297852,0.1904297 -0.473633,0.5761718 -0.166015,0.3613282 -0.229492,0.9423829 -0.05859,0.5810546 -0.05859,1.274414 0,0.7617188 0.05371,1.2744141 0.05371,0.5126953 0.229492,0.9179687 0.161133,0.3808594 0.454102,0.58105471 0.297852,0.20019532 0.786133,0.20019532 0.458984,0 0.761719,-0.19042969 0.302734,-0.19042964 0.46875,-0.57617184 z"
     style="fill:#262626"
     id="path7126" /><path
     d="m 20.698242,-3.6376953 q 0,1.9580078 -0.615234,2.87597655 -0.610352,0.91308594 -1.899414,0.91308594 -1.308594,0 -1.914063,-0.92773438 -0.600586,-0.92773441 -0.600586,-2.85156251 0,-1.9384765 0.610352,-2.8613281 0.610351,-0.9277344 1.904297,-0.9277344 1.308593,0 1.909179,0.9423828 0.605469,0.9375 0.605469,2.8369141 z m -1.28418,2.2167969 q 0.170899,-0.3955078 0.229493,-0.9277344 0.06348,-0.5371094 0.06348,-1.2890625 0,-0.7421875 -0.06348,-1.2890625 -0.05859,-0.546875 -0.234375,-0.9277344 -0.170899,-0.3759765 -0.46875,-0.5664062 -0.292969,-0.1904297 -0.756836,-0.1904297 -0.458985,0 -0.761719,0.1904297 -0.297852,0.1904297 -0.473633,0.5761718 -0.166015,0.3613282 -0.229492,0.9423829 -0.05859,0.5810546 -0.05859,1.274414 0,0.7617188 0.05371,1.2744141 0.05371,0.5126953 0.229492,0.9179687 0.161133,0.3808594 0.454102,0.58105471 0.297851,0.20019532 0.786133,0.20019532 0.458984,0 0.761718,-0.19042969 0.302735,-0.19042964 0.46875,-0.57617184 z"
     style="fill:#262626"
     id="path7128" /><path
     d="m 26.698242,-3.6376953 q 0,1.9580078 -0.615234,2.87597655 -0.610352,0.91308594 -1.899414,0.91308594 -1.308594,0 -1.914063,-0.92773438 -0.600586,-0.92773441 -0.600586,-2.85156251 0,-1.9384765 0.610352,-2.8613281 0.610351,-0.9277344 1.904297,-0.9277344 1.308593,0 1.909179,0.9423828 0.605469,0.9375 0.605469,2.8369141 z m -1.28418,2.2167969 q 0.170899,-0.3955078 0.229493,-0.9277344 0.06348,-0.5371094 0.06348,-1.2890625 0,-0.7421875 -0.06348,-1.2890625 -0.05859,-0.546875 -0.234375,-0.9277344 -0.170899,-0.3759765 -0.46875,-0.5664062 -0.292969,-0.1904297 -0.756836,-0.1904297 -0.458985,0 -0.761719,0.1904297 -0.297852,0.1904297 -0.473633,0.5761718 -0.166015,0.3613282 -0.229492,0.9423829 -0.05859,0.5810546 -0.05859,1.274414 0,0.7617188 0.05371,1.2744141 0.05371,0.5126953 0.229492,0.9179687 0.161133,0.3808594 0.454102,0.58105471 0.297851,0.20019532 0.786133,0.20019532 0.458984,0 0.761718,-0.19042969 0.302735,-0.19042964 0.46875,-0.57617184 z"
     style="fill:#262626"
     id="path7130" /><path
     d="m 32.292969,0 h -3.935547 v -0.7421875 h 1.513672 v -4.8730469 h -1.513672 v -0.6640625 q 0.307617,0 0.65918,-0.048828 0.351562,-0.053711 0.532226,-0.1513672 0.224609,-0.1220703 0.351563,-0.3076172 0.131836,-0.1904297 0.151367,-0.5078125 h 0.756836 v 6.5527344 h 1.484375 z"
     style="fill:#262626"
     id="path7132" /></g>
   </g>
        <path
           id="polyline5928"
           style="fill:none;stroke:#262626;stroke-width:0.5;stroke-linecap:square;stroke-dasharray:16, 0"
           d="M 49.9244,246.697 H 347.551" />
        <path
           id="polyline5930"
           style="fill:none;stroke:#262626;stroke-width:0.5;stroke-linecap:square;stroke-dasharray:16, 0"
           d="M 49.9244,20.7891 H 347.551" />
        <path
           id="polyline5932"
           style="fill:none;stroke:#262626;stroke-width:0.5;stroke-linecap:square;stroke-dasharray:16, 0"
           d="M 49.9244,246.697 V 20.7891" />
        <path
           id="polyline5934"
           style="fill:none;stroke:#262626;stroke-width:0.5;stroke-linecap:square;stroke-dasharray:16, 0"
           d="M 347.551,246.697 V 20.7891" />
        <path
           id="polyline5936"
           style="fill:none;stroke:#0071bc;stroke-width:0.5;stroke-linejoin:round"
           d="m 49.9244,133.743 7.4407,-21.914 7.4406,-19.0012 7.4407,-16.1266 7.4406,-13.3084 7.4407,-10.5609 7.4407,-7.9003 7.4406,-5.3413 7.441,-2.8985 7.44,-0.5858 7.441,1.5837 7.441,3.5977 7.44,5.4446 7.441,7.114 7.441,8.5962 7.44,9.8829 7.441,10.9665 7.441,11.8411 7.44,12.5013 7.441,12.944 7.441,13.165 7.44,13.166 7.441,12.943 7.441,12.502 7.44,11.841 7.441,10.966 7.441,9.883 7.44,8.596 7.441,7.114 7.44,5.445 7.441,3.598 7.441,1.583 7.44,-0.586 7.441,-2.898 7.441,-5.341 7.44,-7.901 7.441,-10.56 7.441,-13.309 7.44,-16.127 7.441,-19.001 7.441,-21.914" />
      </g>
    </g>
  </g>
</svg>
