<?xml version="1.0" encoding="UTF-8" standalone="no"?>
<svg
   height="290pt"
   width="830pt"
   viewBox="0 0 830 290"
   version="1.1"
   id="svg4015"
   sodipodi:docname="FW_Eulfig2w.svg"
   inkscape:version="1.1 (c68e22c387, 2021-05-23)"
   xmlns:inkscape="http://www.inkscape.org/namespaces/inkscape"
   xmlns:sodipodi="http://sodipodi.sourceforge.net/DTD/sodipodi-0.dtd"
   xmlns="http://www.w3.org/2000/svg"
   xmlns:svg="http://www.w3.org/2000/svg"
   xmlns:rdf="http://www.w3.org/1999/02/22-rdf-syntax-ns#"
   xmlns:cc="http://creativecommons.org/ns#"
   xmlns:dc="http://purl.org/dc/elements/1.1/">
  <sodipodi:namedview
     id="namedview4017"
     pagecolor="#ffffff"
     bordercolor="#666666"
     borderopacity="1.0"
     inkscape:pageshadow="2"
     inkscape:pageopacity="0.0"
     inkscape:pagecheckerboard="0"
     inkscape:document-units="pt"
     showgrid="false"
     inkscape:zoom="0.68"
     inkscape:cx="551.47059"
     inkscape:cy="184.55882"
     inkscape:window-width="1763"
     inkscape:window-height="1055"
     inkscape:window-x="150"
     inkscape:window-y="-7"
     inkscape:window-maximized="1"
     inkscape:current-layer="svg4015" />
  <title
     id="title3774">Figure 1</title>
  <desc
     id="desc3776">
Creator: GL2PS 1.4.2, (C) 1999-2020 C. Geuzaine
For: Octave
CreationDate: Fri Feb 03 13:57:12 2023
</desc>
  <defs
     id="defs3778">
    <clipPath
       id="cp00377278">
      <polygon
         points="377,0 0,0 0,278 377,278 "
         id="polygon2756" />
    </clipPath>
    <clipPath
       id="cp00377278-3">
      <polygon
         points="377,0 0,0 0,278 377,278 "
         id="polygon2756-4" />
    </clipPath>
  </defs>
  <polygon
     fill="#ffffff"
     points="393,277 0,277 0,0 393,0 "
     id="polygon3780" />
  <metadata
     id="metadata4019">
    <rdf:RDF>
      <cc:Work
         rdf:about="">
        <dc:title>Figure 1</dc:title>
      </cc:Work>
    </rdf:RDF>
  </metadata>
  <g
     id="g4806"
     transform="translate(38.553578,7.072)">
    <g
       id="g4013">
      <path
         id="polygon3782"
         style="fill:#ffffff;shape-rendering:crispEdges"
         d="M 393,277 V 0 H 0 v 277 z" />
      <clipPath
         id="cp00393277">
        <polygon
           points="0,277 393,277 393,0 0,0 "
           id="polygon3784" />
      </clipPath>
      <g
         clip-path="url(#cp00393277)"
         id="g4011">
        <path
           id="polygon3787"
           style="fill:#ffffff;shape-rendering:crispEdges"
           d="M 356.089,246.924 V 20.8082 H 51.151 V 246.924 Z" />
        <path
           id="polyline3789"
           style="fill:none;stroke:#262626;stroke-width:0.5"
           d="m 51.151,246.924 v -3.051" />
        <path
           id="polyline3791"
           style="fill:none;stroke:#262626;stroke-width:0.5"
           d="m 51.151,20.8082 v 3.051" />
        <path
           id="polyline3793"
           style="fill:none;stroke:#262626;stroke-width:0.5"
           d="m 112.139,246.924 v -3.051" />
        <path
           id="polyline3795"
           style="fill:none;stroke:#262626;stroke-width:0.5"
           d="m 112.139,20.8082 v 3.051" />
        <path
           id="polyline3797"
           style="fill:none;stroke:#262626;stroke-width:0.5"
           d="m 173.126,246.924 v -3.051" />
        <path
           id="polyline3799"
           style="fill:none;stroke:#262626;stroke-width:0.5"
           d="m 173.126,20.8082 v 3.051" />
        <path
           id="polyline3801"
           style="fill:none;stroke:#262626;stroke-width:0.5"
           d="m 234.114,246.924 v -3.051" />
        <path
           id="polyline3803"
           style="fill:none;stroke:#262626;stroke-width:0.5"
           d="m 234.114,20.8082 v 3.051" />
        <path
           id="polyline3805"
           style="fill:none;stroke:#262626;stroke-width:0.5"
           d="m 295.102,246.924 v -3.051" />
        <path
           id="polyline3807"
           style="fill:none;stroke:#262626;stroke-width:0.5"
           d="m 295.102,20.8082 v 3.051" />
        <path
           id="polyline3809"
           style="fill:none;stroke:#262626;stroke-width:0.5"
           d="m 356.089,246.924 v -3.051" />
        <path
           id="polyline3811"
           style="fill:none;stroke:#262626;stroke-width:0.5"
           d="m 356.089,20.8082 v 3.051" />
        <g
           xml:space="preserve"
           font-family="FreeSans"
           transform="translate(48.151,262.428)"
           font-size="10px"
           font-style="normal"
           font-weight="normal"
           id="g3815">
    <g
   aria-label="0"
   id="text3813"
   style="fill:#262626"><path
     d="m 5.6982422,-3.6376953 q 0,1.9580078 -0.6152344,2.87597655 -0.6103516,0.91308594 -1.899414,0.91308594 -1.3085938,0 -1.9140626,-0.92773438 -0.60058589,-0.92773441 -0.60058589,-2.85156251 0,-1.9384765 0.61035159,-2.8613281 0.6103515,-0.9277344 1.9042969,-0.9277344 1.3085937,0 1.9091796,0.9423828 0.6054688,0.9375 0.6054688,2.8369141 z m -1.2841797,2.2167969 q 0.1708984,-0.3955078 0.2294922,-0.9277344 0.063477,-0.5371094 0.063477,-1.2890625 0,-0.7421875 -0.063477,-1.2890625 -0.058594,-0.546875 -0.234375,-0.9277344 -0.1708985,-0.3759765 -0.46875,-0.5664062 -0.2929688,-0.1904297 -0.7568359,-0.1904297 -0.4589844,0 -0.7617188,0.1904297 -0.2978516,0.1904297 -0.4736328,0.5761718 -0.1660156,0.3613282 -0.2294922,0.9423829 -0.058594,0.5810546 -0.058594,1.274414 0,0.7617188 0.053711,1.2744141 0.053711,0.5126953 0.2294922,0.9179687 0.1611328,0.3808594 0.4541015,0.58105471 0.2978516,0.20019532 0.7861329,0.20019532 0.4589843,0 0.7617187,-0.19042969 0.3027344,-0.19042964 0.4687502,-0.57617184 z"
     style="fill:#262626"
     id="path4822" /></g>
   </g>
        <g
           xml:space="preserve"
           font-family="FreeSans"
           transform="translate(104.639,262.428)"
           font-size="10px"
           font-style="normal"
           font-weight="normal"
           id="g3819">
    <g
   aria-label="0.2"
   id="text3817"
   style="fill:#262626"><path
     d="m 5.6982422,-3.6376953 q 0,1.9580078 -0.6152344,2.87597655 -0.6103516,0.91308594 -1.899414,0.91308594 -1.3085938,0 -1.9140626,-0.92773438 -0.60058589,-0.92773441 -0.60058589,-2.85156251 0,-1.9384765 0.61035159,-2.8613281 0.6103515,-0.9277344 1.9042969,-0.9277344 1.3085937,0 1.9091796,0.9423828 0.6054688,0.9375 0.6054688,2.8369141 z m -1.2841797,2.2167969 q 0.1708984,-0.3955078 0.2294922,-0.9277344 0.063477,-0.5371094 0.063477,-1.2890625 0,-0.7421875 -0.063477,-1.2890625 -0.058594,-0.546875 -0.234375,-0.9277344 -0.1708985,-0.3759765 -0.46875,-0.5664062 -0.2929688,-0.1904297 -0.7568359,-0.1904297 -0.4589844,0 -0.7617188,0.1904297 -0.2978516,0.1904297 -0.4736328,0.5761718 -0.1660156,0.3613282 -0.2294922,0.9423829 -0.058594,0.5810546 -0.058594,1.274414 0,0.7617188 0.053711,1.2744141 0.053711,0.5126953 0.2294922,0.9179687 0.1611328,0.3808594 0.4541015,0.58105471 0.2978516,0.20019532 0.7861329,0.20019532 0.4589843,0 0.7617187,-0.19042969 0.3027344,-0.19042964 0.4687502,-0.57617184 z"
     style="fill:#262626"
     id="path4825" /><path
     d="M 8.4023438,0 H 7.2353516 v -1.3916016 h 1.1669922 z"
     style="fill:#262626"
     id="path4827" /><path
     d="M 14.708008,0 H 9.7861328 v -1.0205078 q 0.5126952,-0.4394531 1.0253902,-0.8789063 0.517579,-0.4394531 0.961915,-0.8740234 0.9375,-0.9082031 1.284179,-1.4404297 0.34668,-0.5371094 0.34668,-1.1572265 0,-0.5664063 -0.375977,-0.8837891 -0.371093,-0.3222656 -1.040039,-0.3222656 -0.444336,0 -0.961914,0.15625 -0.517578,0.15625 -1.010742,0.4785156 H 9.966797 v -1.0253906 q 0.34668,-0.1708985 0.922851,-0.3125 0.581055,-0.1416016 1.123047,-0.1416016 1.118164,0 1.75293,0.5419922 0.634766,0.5371094 0.634766,1.4599609 0,0.4150391 -0.107422,0.7763672 -0.102539,0.3564453 -0.307617,0.6787109 -0.19043,0.3027344 -0.449219,0.5957032 -0.253906,0.2929687 -0.620117,0.649414 -0.522461,0.5126953 -1.079102,0.9960938 -0.556641,0.4785156 -1.040039,0.88867186 h 3.911133 z"
     style="fill:#262626"
     id="path4829" /></g>
   </g>
        <g
           xml:space="preserve"
           font-family="FreeSans"
           transform="translate(165.626,262.428)"
           font-size="10px"
           font-style="normal"
           font-weight="normal"
           id="g3823">
    <g
   aria-label="0.4"
   id="text3821"
   style="fill:#262626"><path
     d="m 5.6982422,-3.6376953 q 0,1.9580078 -0.6152344,2.87597655 -0.6103516,0.91308594 -1.899414,0.91308594 -1.3085938,0 -1.9140626,-0.92773438 -0.60058589,-0.92773441 -0.60058589,-2.85156251 0,-1.9384765 0.61035159,-2.8613281 0.6103515,-0.9277344 1.9042969,-0.9277344 1.3085937,0 1.9091796,0.9423828 0.6054688,0.9375 0.6054688,2.8369141 z m -1.2841797,2.2167969 q 0.1708984,-0.3955078 0.2294922,-0.9277344 0.063477,-0.5371094 0.063477,-1.2890625 0,-0.7421875 -0.063477,-1.2890625 -0.058594,-0.546875 -0.234375,-0.9277344 -0.1708985,-0.3759765 -0.46875,-0.5664062 -0.2929688,-0.1904297 -0.7568359,-0.1904297 -0.4589844,0 -0.7617188,0.1904297 -0.2978516,0.1904297 -0.4736328,0.5761718 -0.1660156,0.3613282 -0.2294922,0.9423829 -0.058594,0.5810546 -0.058594,1.274414 0,0.7617188 0.053711,1.2744141 0.053711,0.5126953 0.2294922,0.9179687 0.1611328,0.3808594 0.4541015,0.58105471 0.2978516,0.20019532 0.7861329,0.20019532 0.4589843,0 0.7617187,-0.19042969 0.3027344,-0.19042964 0.4687502,-0.57617184 z"
     style="fill:#262626"
     id="path4832" /><path
     d="M 8.4023438,0 H 7.2353516 v -1.3916016 h 1.1669922 z"
     style="fill:#262626"
     id="path4834" /><path
     d="M 14.874023,-2.0458984 H 13.794922 V 0 h -0.9375 V -2.0458984 H 9.3759766 v -1.1230469 l 3.5205074,-4.1015625 h 0.898438 v 4.4433594 h 1.079101 z m -2.016601,-0.78125 v -3.28125 l -2.817383,3.28125 z"
     style="fill:#262626"
     id="path4836" /></g>
   </g>
        <g
           xml:space="preserve"
           font-family="FreeSans"
           transform="translate(226.614,262.428)"
           font-size="10px"
           font-style="normal"
           font-weight="normal"
           id="g3827">
    <g
   aria-label="0.6"
   id="text3825"
   style="fill:#262626"><path
     d="m 5.6982422,-3.6376953 q 0,1.9580078 -0.6152344,2.87597655 -0.6103516,0.91308594 -1.899414,0.91308594 -1.3085938,0 -1.9140626,-0.92773438 -0.60058589,-0.92773441 -0.60058589,-2.85156251 0,-1.9384765 0.61035159,-2.8613281 0.6103515,-0.9277344 1.9042969,-0.9277344 1.3085937,0 1.9091796,0.9423828 0.6054688,0.9375 0.6054688,2.8369141 z m -1.2841797,2.2167969 q 0.1708984,-0.3955078 0.2294922,-0.9277344 0.063477,-0.5371094 0.063477,-1.2890625 0,-0.7421875 -0.063477,-1.2890625 -0.058594,-0.546875 -0.234375,-0.9277344 -0.1708985,-0.3759765 -0.46875,-0.5664062 -0.2929688,-0.1904297 -0.7568359,-0.1904297 -0.4589844,0 -0.7617188,0.1904297 -0.2978516,0.1904297 -0.4736328,0.5761718 -0.1660156,0.3613282 -0.2294922,0.9423829 -0.058594,0.5810546 -0.058594,1.274414 0,0.7617188 0.053711,1.2744141 0.053711,0.5126953 0.2294922,0.9179687 0.1611328,0.3808594 0.4541015,0.58105471 0.2978516,0.20019532 0.7861329,0.20019532 0.4589843,0 0.7617187,-0.19042969 0.3027344,-0.19042964 0.4687502,-0.57617184 z"
     style="fill:#262626"
     id="path4839" /><path
     d="M 8.4023438,0 H 7.2353516 v -1.3916016 h 1.1669922 z"
     style="fill:#262626"
     id="path4841" /><path
     d="m 14.81543,-2.3583984 q 0,1.1083984 -0.732422,1.8115234 -0.727539,0.69824219 -1.78711,0.69824219 -0.537109,0 -0.976562,-0.16601563 -0.439453,-0.16601562 -0.776367,-0.49316406 -0.419922,-0.40527344 -0.6494143,-1.0742187 -0.2246094,-0.6689454 -0.2246094,-1.6113282 0,-0.9667968 0.2050781,-1.7138672 0.2099606,-0.7470703 0.6640626,-1.328125 0.429687,-0.5517578 1.108398,-0.859375 0.678711,-0.3125 1.582032,-0.3125 0.288086,0 0.483398,0.024414 0.195313,0.024414 0.395508,0.087891 v 0.9326172 h -0.04883 q -0.136719,-0.073242 -0.415039,-0.1367187 -0.273438,-0.068359 -0.561524,-0.068359 -1.049804,0 -1.674804,0.6591797 -0.625,0.6542969 -0.727539,1.7724609 0.410156,-0.2490234 0.805664,-0.3759765 0.40039,-0.131836 0.922851,-0.131836 0.463867,0 0.81543,0.087891 0.356445,0.083008 0.727539,0.3417969 0.429687,0.2978516 0.644531,0.7519531 0.219727,0.4541016 0.219727,1.1035157 z m -0.991211,0.039063 q 0,-0.4541016 -0.136719,-0.7519532 -0.131836,-0.2978515 -0.439453,-0.5175781 -0.224609,-0.15625 -0.498047,-0.2050781 -0.273437,-0.048828 -0.571289,-0.048828 -0.415039,0 -0.771484,0.097656 -0.356446,0.097656 -0.732422,0.3027344 -0.0098,0.1074219 -0.01465,0.2099609 -0.0049,0.097656 -0.0049,0.2490235 0,0.7714843 0.15625,1.2207031 0.161133,0.4443359 0.439454,0.703125 0.224609,0.21484374 0.483398,0.3173828 0.263672,0.0976563 0.571289,0.0976563 0.708008,0 1.113281,-0.4296875 0.405274,-0.4345704 0.405274,-1.2451172 z"
     style="fill:#262626"
     id="path4843" /></g>
   </g>
        <g
           xml:space="preserve"
           font-family="FreeSans"
           transform="translate(287.602,262.428)"
           font-size="10px"
           font-style="normal"
           font-weight="normal"
           id="g3831">
    <g
   aria-label="0.8"
   id="text3829"
   style="fill:#262626"><path
     d="m 5.6982422,-3.6376953 q 0,1.9580078 -0.6152344,2.87597655 -0.6103516,0.91308594 -1.899414,0.91308594 -1.3085938,0 -1.9140626,-0.92773438 -0.60058589,-0.92773441 -0.60058589,-2.85156251 0,-1.9384765 0.61035159,-2.8613281 0.6103515,-0.9277344 1.9042969,-0.9277344 1.3085937,0 1.9091796,0.9423828 0.6054688,0.9375 0.6054688,2.8369141 z m -1.2841797,2.2167969 q 0.1708984,-0.3955078 0.2294922,-0.9277344 0.063477,-0.5371094 0.063477,-1.2890625 0,-0.7421875 -0.063477,-1.2890625 -0.058594,-0.546875 -0.234375,-0.9277344 -0.1708985,-0.3759765 -0.46875,-0.5664062 -0.2929688,-0.1904297 -0.7568359,-0.1904297 -0.4589844,0 -0.7617188,0.1904297 -0.2978516,0.1904297 -0.4736328,0.5761718 -0.1660156,0.3613282 -0.2294922,0.9423829 -0.058594,0.5810546 -0.058594,1.274414 0,0.7617188 0.053711,1.2744141 0.053711,0.5126953 0.2294922,0.9179687 0.1611328,0.3808594 0.4541015,0.58105471 0.2978516,0.20019532 0.7861329,0.20019532 0.4589843,0 0.7617187,-0.19042969 0.3027344,-0.19042964 0.4687502,-0.57617184 z"
     style="fill:#262626"
     id="path4846" /><path
     d="M 8.4023438,0 H 7.2353516 v -1.3916016 h 1.1669922 z"
     style="fill:#262626"
     id="path4848" /><path
     d="m 14.761719,-2.0263672 q 0,0.9423828 -0.737305,1.56738282 -0.732422,0.625 -1.845703,0.625 -1.181641,0 -1.884766,-0.61035156 -0.6982419,-0.61035156 -0.6982419,-1.56249996 0,-0.6054688 0.3515625,-1.09375 0.3515624,-0.4931641 0.9912114,-0.78125 v -0.029297 q -0.585938,-0.3125 -0.869141,-0.6835938 -0.2783204,-0.3710937 -0.2783204,-0.9277343 0,-0.8203125 0.6738284,-1.3671875 0.673828,-0.546875 1.713867,-0.546875 1.088867,0 1.738281,0.5224609 0.649414,0.5224609 0.649414,1.328125 0,0.4931641 -0.307617,0.9716797 -0.307617,0.4736328 -0.90332,0.7421875 v 0.029297 q 0.683594,0.2929687 1.044922,0.7226562 0.361328,0.4296875 0.361328,1.09375 z m -1.157227,-3.5498047 q 0,-0.5224609 -0.405273,-0.8300781 -0.400391,-0.3125 -1.025391,-0.3125 -0.615234,0 -1.010742,0.2929688 -0.390625,0.2929687 -0.390625,0.7910156 0,0.3515625 0.195312,0.6103515 0.200196,0.2539063 0.600586,0.4541016 0.180664,0.087891 0.517579,0.2294922 0.341796,0.1416016 0.664062,0.234375 0.483398,-0.3222656 0.668945,-0.6689453 0.185547,-0.3466797 0.185547,-0.8007813 z m 0.151367,3.6425782 q 0,-0.4492188 -0.200195,-0.7177735 -0.195312,-0.2734375 -0.771484,-0.546875 -0.229492,-0.1074219 -0.50293,-0.2001953 -0.273437,-0.092773 -0.727539,-0.2587891 -0.439453,0.2392578 -0.708008,0.6494141 -0.263672,0.4101562 -0.263672,0.9277344 0,0.6591797 0.454102,1.08886716 0.454101,0.4296875 1.152344,0.4296875 0.71289,0 1.137695,-0.36621094 0.429687,-0.36621092 0.429687,-1.00585932 z"
     style="fill:#262626"
     id="path4850" /></g>
   </g>
        <g
           xml:space="preserve"
           font-family="FreeSans"
           transform="translate(353.089,262.428)"
           font-size="10px"
           font-style="normal"
           font-weight="normal"
           id="g3835">
    <g
   aria-label="1"
   id="text3833"
   style="fill:#262626"><path
     d="M 5.2929687,0 H 1.3574219 V -0.7421875 H 2.8710938 V -5.6152344 H 1.3574219 v -0.6640625 q 0.3076172,0 0.6591797,-0.048828 0.3515625,-0.053711 0.5322265,-0.1513672 0.2246094,-0.1220703 0.3515625,-0.3076172 0.131836,-0.1904297 0.1513672,-0.5078125 h 0.756836 v 6.5527344 h 1.4843749 z"
     style="fill:#262626"
     id="path4853" /></g>
   </g>
        <path
           id="polyline3837"
           style="fill:none;stroke:#262626;stroke-width:0.5"
           d="m 51.151,246.924 h 3.0487" />
        <path
           id="polyline3839"
           style="fill:none;stroke:#262626;stroke-width:0.5"
           d="m 356.089,246.924 h -3.048" />
        <path
           id="polyline3841"
           style="fill:none;stroke:#262626;stroke-width:0.5"
           d="m 51.151,214.622 h 3.0487" />
        <path
           id="polyline3843"
           style="fill:none;stroke:#262626;stroke-width:0.5"
           d="m 356.089,214.622 h -3.048" />
        <path
           id="polyline3845"
           style="fill:none;stroke:#262626;stroke-width:0.5"
           d="m 51.151,182.32 h 3.0487" />
        <path
           id="polyline3847"
           style="fill:none;stroke:#262626;stroke-width:0.5"
           d="m 356.089,182.32 h -3.048" />
        <path
           id="polyline3849"
           style="fill:none;stroke:#262626;stroke-width:0.5"
           d="m 51.151,150.017 h 3.0487" />
        <path
           id="polyline3851"
           style="fill:none;stroke:#262626;stroke-width:0.5"
           d="m 356.089,150.017 h -3.048" />
        <path
           id="polyline3853"
           style="fill:none;stroke:#262626;stroke-width:0.5"
           d="m 51.151,117.715 h 3.0487" />
        <path
           id="polyline3855"
           style="fill:none;stroke:#262626;stroke-width:0.5"
           d="m 356.089,117.715 h -3.048" />
        <path
           id="polyline3857"
           style="fill:none;stroke:#262626;stroke-width:0.5"
           d="m 51.151,85.4128 h 3.0487" />
        <path
           id="polyline3859"
           style="fill:none;stroke:#262626;stroke-width:0.5"
           d="m 356.089,85.4128 h -3.048" />
        <path
           id="polyline3861"
           style="fill:none;stroke:#262626;stroke-width:0.5"
           d="m 51.151,53.1105 h 3.0487" />
        <path
           id="polyline3863"
           style="fill:none;stroke:#262626;stroke-width:0.5"
           d="m 356.089,53.1105 h -3.048" />
        <path
           id="polyline3865"
           style="fill:none;stroke:#262626;stroke-width:0.5"
           d="m 51.151,20.8082 h 3.0487" />
        <path
           id="polyline3867"
           style="fill:none;stroke:#262626;stroke-width:0.5"
           d="m 356.089,20.8082 h -3.048" />
        <g
           xml:space="preserve"
           font-family="FreeSans"
           transform="translate(40.152,250.924)"
           font-size="10px"
           font-style="normal"
           font-weight="normal"
           id="g3871">
    <g
   aria-label="0"
   id="text3869"
   style="fill:#262626"><path
     d="m 5.6982422,-3.6376953 q 0,1.9580078 -0.6152344,2.87597655 -0.6103516,0.91308594 -1.899414,0.91308594 -1.3085938,0 -1.9140626,-0.92773438 -0.60058589,-0.92773441 -0.60058589,-2.85156251 0,-1.9384765 0.61035159,-2.8613281 0.6103515,-0.9277344 1.9042969,-0.9277344 1.3085937,0 1.9091796,0.9423828 0.6054688,0.9375 0.6054688,2.8369141 z m -1.2841797,2.2167969 q 0.1708984,-0.3955078 0.2294922,-0.9277344 0.063477,-0.5371094 0.063477,-1.2890625 0,-0.7421875 -0.063477,-1.2890625 -0.058594,-0.546875 -0.234375,-0.9277344 -0.1708985,-0.3759765 -0.46875,-0.5664062 -0.2929688,-0.1904297 -0.7568359,-0.1904297 -0.4589844,0 -0.7617188,0.1904297 -0.2978516,0.1904297 -0.4736328,0.5761718 -0.1660156,0.3613282 -0.2294922,0.9423829 -0.058594,0.5810546 -0.058594,1.274414 0,0.7617188 0.053711,1.2744141 0.053711,0.5126953 0.2294922,0.9179687 0.1611328,0.3808594 0.4541015,0.58105471 0.2978516,0.20019532 0.7861329,0.20019532 0.4589843,0 0.7617187,-0.19042969 0.3027344,-0.19042964 0.4687502,-0.57617184 z"
     style="fill:#262626"
     id="path4872" /></g>
   </g>
        <g
           xml:space="preserve"
           font-family="FreeSans"
           transform="translate(31.152,218.622)"
           font-size="10px"
           font-style="normal"
           font-weight="normal"
           id="g3875">
    <g
   aria-label="0.2"
   id="text3873"
   style="fill:#262626"><path
     d="m 5.6982422,-3.6376953 q 0,1.9580078 -0.6152344,2.87597655 -0.6103516,0.91308594 -1.899414,0.91308594 -1.3085938,0 -1.9140626,-0.92773438 -0.60058589,-0.92773441 -0.60058589,-2.85156251 0,-1.9384765 0.61035159,-2.8613281 0.6103515,-0.9277344 1.9042969,-0.9277344 1.3085937,0 1.9091796,0.9423828 0.6054688,0.9375 0.6054688,2.8369141 z m -1.2841797,2.2167969 q 0.1708984,-0.3955078 0.2294922,-0.9277344 0.063477,-0.5371094 0.063477,-1.2890625 0,-0.7421875 -0.063477,-1.2890625 -0.058594,-0.546875 -0.234375,-0.9277344 -0.1708985,-0.3759765 -0.46875,-0.5664062 -0.2929688,-0.1904297 -0.7568359,-0.1904297 -0.4589844,0 -0.7617188,0.1904297 -0.2978516,0.1904297 -0.4736328,0.5761718 -0.1660156,0.3613282 -0.2294922,0.9423829 -0.058594,0.5810546 -0.058594,1.274414 0,0.7617188 0.053711,1.2744141 0.053711,0.5126953 0.2294922,0.9179687 0.1611328,0.3808594 0.4541015,0.58105471 0.2978516,0.20019532 0.7861329,0.20019532 0.4589843,0 0.7617187,-0.19042969 0.3027344,-0.19042964 0.4687502,-0.57617184 z"
     style="fill:#262626"
     id="path4875" /><path
     d="M 8.4023438,0 H 7.2353516 v -1.3916016 h 1.1669922 z"
     style="fill:#262626"
     id="path4877" /><path
     d="M 14.708008,0 H 9.7861328 v -1.0205078 q 0.5126952,-0.4394531 1.0253902,-0.8789063 0.517579,-0.4394531 0.961915,-0.8740234 0.9375,-0.9082031 1.284179,-1.4404297 0.34668,-0.5371094 0.34668,-1.1572265 0,-0.5664063 -0.375977,-0.8837891 -0.371093,-0.3222656 -1.040039,-0.3222656 -0.444336,0 -0.961914,0.15625 -0.517578,0.15625 -1.010742,0.4785156 H 9.966797 v -1.0253906 q 0.34668,-0.1708985 0.922851,-0.3125 0.581055,-0.1416016 1.123047,-0.1416016 1.118164,0 1.75293,0.5419922 0.634766,0.5371094 0.634766,1.4599609 0,0.4150391 -0.107422,0.7763672 -0.102539,0.3564453 -0.307617,0.6787109 -0.19043,0.3027344 -0.449219,0.5957032 -0.253906,0.2929687 -0.620117,0.649414 -0.522461,0.5126953 -1.079102,0.9960938 -0.556641,0.4785156 -1.040039,0.88867186 h 3.911133 z"
     style="fill:#262626"
     id="path4879" /></g>
   </g>
        <g
           xml:space="preserve"
           font-family="FreeSans"
           transform="translate(31.152,186.32)"
           font-size="10px"
           font-style="normal"
           font-weight="normal"
           id="g3879">
    <g
   aria-label="0.4"
   id="text3877"
   style="fill:#262626"><path
     d="m 5.6982422,-3.6376953 q 0,1.9580078 -0.6152344,2.87597655 -0.6103516,0.91308594 -1.899414,0.91308594 -1.3085938,0 -1.9140626,-0.92773438 -0.60058589,-0.92773441 -0.60058589,-2.85156251 0,-1.9384765 0.61035159,-2.8613281 0.6103515,-0.9277344 1.9042969,-0.9277344 1.3085937,0 1.9091796,0.9423828 0.6054688,0.9375 0.6054688,2.8369141 z m -1.2841797,2.2167969 q 0.1708984,-0.3955078 0.2294922,-0.9277344 0.063477,-0.5371094 0.063477,-1.2890625 0,-0.7421875 -0.063477,-1.2890625 -0.058594,-0.546875 -0.234375,-0.9277344 -0.1708985,-0.3759765 -0.46875,-0.5664062 -0.2929688,-0.1904297 -0.7568359,-0.1904297 -0.4589844,0 -0.7617188,0.1904297 -0.2978516,0.1904297 -0.4736328,0.5761718 -0.1660156,0.3613282 -0.2294922,0.9423829 -0.058594,0.5810546 -0.058594,1.274414 0,0.7617188 0.053711,1.2744141 0.053711,0.5126953 0.2294922,0.9179687 0.1611328,0.3808594 0.4541015,0.58105471 0.2978516,0.20019532 0.7861329,0.20019532 0.4589843,0 0.7617187,-0.19042969 0.3027344,-0.19042964 0.4687502,-0.57617184 z"
     style="fill:#262626"
     id="path4882" /><path
     d="M 8.4023438,0 H 7.2353516 v -1.3916016 h 1.1669922 z"
     style="fill:#262626"
     id="path4884" /><path
     d="M 14.874023,-2.0458984 H 13.794922 V 0 h -0.9375 V -2.0458984 H 9.3759766 v -1.1230469 l 3.5205074,-4.1015625 h 0.898438 v 4.4433594 h 1.079101 z m -2.016601,-0.78125 v -3.28125 l -2.817383,3.28125 z"
     style="fill:#262626"
     id="path4886" /></g>
   </g>
        <g
           xml:space="preserve"
           font-family="FreeSans"
           transform="translate(31.152,154.017)"
           font-size="10px"
           font-style="normal"
           font-weight="normal"
           id="g3883">
    <g
   aria-label="0.6"
   id="text3881"
   style="fill:#262626"><path
     d="m 5.6982422,-3.6376953 q 0,1.9580078 -0.6152344,2.87597655 -0.6103516,0.91308594 -1.899414,0.91308594 -1.3085938,0 -1.9140626,-0.92773438 -0.60058589,-0.92773441 -0.60058589,-2.85156251 0,-1.9384765 0.61035159,-2.8613281 0.6103515,-0.9277344 1.9042969,-0.9277344 1.3085937,0 1.9091796,0.9423828 0.6054688,0.9375 0.6054688,2.8369141 z m -1.2841797,2.2167969 q 0.1708984,-0.3955078 0.2294922,-0.9277344 0.063477,-0.5371094 0.063477,-1.2890625 0,-0.7421875 -0.063477,-1.2890625 -0.058594,-0.546875 -0.234375,-0.9277344 -0.1708985,-0.3759765 -0.46875,-0.5664062 -0.2929688,-0.1904297 -0.7568359,-0.1904297 -0.4589844,0 -0.7617188,0.1904297 -0.2978516,0.1904297 -0.4736328,0.5761718 -0.1660156,0.3613282 -0.2294922,0.9423829 -0.058594,0.5810546 -0.058594,1.274414 0,0.7617188 0.053711,1.2744141 0.053711,0.5126953 0.2294922,0.9179687 0.1611328,0.3808594 0.4541015,0.58105471 0.2978516,0.20019532 0.7861329,0.20019532 0.4589843,0 0.7617187,-0.19042969 0.3027344,-0.19042964 0.4687502,-0.57617184 z"
     style="fill:#262626"
     id="path4889" /><path
     d="M 8.4023438,0 H 7.2353516 v -1.3916016 h 1.1669922 z"
     style="fill:#262626"
     id="path4891" /><path
     d="m 14.81543,-2.3583984 q 0,1.1083984 -0.732422,1.8115234 -0.727539,0.69824219 -1.78711,0.69824219 -0.537109,0 -0.976562,-0.16601563 -0.439453,-0.16601562 -0.776367,-0.49316406 -0.419922,-0.40527344 -0.6494143,-1.0742187 -0.2246094,-0.6689454 -0.2246094,-1.6113282 0,-0.9667968 0.2050781,-1.7138672 0.2099606,-0.7470703 0.6640626,-1.328125 0.429687,-0.5517578 1.108398,-0.859375 0.678711,-0.3125 1.582032,-0.3125 0.288086,0 0.483398,0.024414 0.195313,0.024414 0.395508,0.087891 v 0.9326172 h -0.04883 q -0.136719,-0.073242 -0.415039,-0.1367187 -0.273438,-0.068359 -0.561524,-0.068359 -1.049804,0 -1.674804,0.6591797 -0.625,0.6542969 -0.727539,1.7724609 0.410156,-0.2490234 0.805664,-0.3759765 0.40039,-0.131836 0.922851,-0.131836 0.463867,0 0.81543,0.087891 0.356445,0.083008 0.727539,0.3417969 0.429687,0.2978516 0.644531,0.7519531 0.219727,0.4541016 0.219727,1.1035157 z m -0.991211,0.039063 q 0,-0.4541016 -0.136719,-0.7519532 -0.131836,-0.2978515 -0.439453,-0.5175781 -0.224609,-0.15625 -0.498047,-0.2050781 -0.273437,-0.048828 -0.571289,-0.048828 -0.415039,0 -0.771484,0.097656 -0.356446,0.097656 -0.732422,0.3027344 -0.0098,0.1074219 -0.01465,0.2099609 -0.0049,0.097656 -0.0049,0.2490235 0,0.7714843 0.15625,1.2207031 0.161133,0.4443359 0.439454,0.703125 0.224609,0.21484374 0.483398,0.3173828 0.263672,0.0976563 0.571289,0.0976563 0.708008,0 1.113281,-0.4296875 0.405274,-0.4345704 0.405274,-1.2451172 z"
     style="fill:#262626"
     id="path4893" /></g>
   </g>
        <g
           xml:space="preserve"
           font-family="FreeSans"
           transform="translate(31.152,121.715)"
           font-size="10px"
           font-style="normal"
           font-weight="normal"
           id="g3887">
    <g
   aria-label="0.8"
   id="text3885"
   style="fill:#262626"><path
     d="m 5.6982422,-3.6376953 q 0,1.9580078 -0.6152344,2.87597655 -0.6103516,0.91308594 -1.899414,0.91308594 -1.3085938,0 -1.9140626,-0.92773438 -0.60058589,-0.92773441 -0.60058589,-2.85156251 0,-1.9384765 0.61035159,-2.8613281 0.6103515,-0.9277344 1.9042969,-0.9277344 1.3085937,0 1.9091796,0.9423828 0.6054688,0.9375 0.6054688,2.8369141 z m -1.2841797,2.2167969 q 0.1708984,-0.3955078 0.2294922,-0.9277344 0.063477,-0.5371094 0.063477,-1.2890625 0,-0.7421875 -0.063477,-1.2890625 -0.058594,-0.546875 -0.234375,-0.9277344 -0.1708985,-0.3759765 -0.46875,-0.5664062 -0.2929688,-0.1904297 -0.7568359,-0.1904297 -0.4589844,0 -0.7617188,0.1904297 -0.2978516,0.1904297 -0.4736328,0.5761718 -0.1660156,0.3613282 -0.2294922,0.9423829 -0.058594,0.5810546 -0.058594,1.274414 0,0.7617188 0.053711,1.2744141 0.053711,0.5126953 0.2294922,0.9179687 0.1611328,0.3808594 0.4541015,0.58105471 0.2978516,0.20019532 0.7861329,0.20019532 0.4589843,0 0.7617187,-0.19042969 0.3027344,-0.19042964 0.4687502,-0.57617184 z"
     style="fill:#262626"
     id="path4896" /><path
     d="M 8.4023438,0 H 7.2353516 v -1.3916016 h 1.1669922 z"
     style="fill:#262626"
     id="path4898" /><path
     d="m 14.761719,-2.0263672 q 0,0.9423828 -0.737305,1.56738282 -0.732422,0.625 -1.845703,0.625 -1.181641,0 -1.884766,-0.61035156 -0.6982419,-0.61035156 -0.6982419,-1.56249996 0,-0.6054688 0.3515625,-1.09375 0.3515624,-0.4931641 0.9912114,-0.78125 v -0.029297 q -0.585938,-0.3125 -0.869141,-0.6835938 -0.2783204,-0.3710937 -0.2783204,-0.9277343 0,-0.8203125 0.6738284,-1.3671875 0.673828,-0.546875 1.713867,-0.546875 1.088867,0 1.738281,0.5224609 0.649414,0.5224609 0.649414,1.328125 0,0.4931641 -0.307617,0.9716797 -0.307617,0.4736328 -0.90332,0.7421875 v 0.029297 q 0.683594,0.2929687 1.044922,0.7226562 0.361328,0.4296875 0.361328,1.09375 z m -1.157227,-3.5498047 q 0,-0.5224609 -0.405273,-0.8300781 -0.400391,-0.3125 -1.025391,-0.3125 -0.615234,0 -1.010742,0.2929688 -0.390625,0.2929687 -0.390625,0.7910156 0,0.3515625 0.195312,0.6103515 0.200196,0.2539063 0.600586,0.4541016 0.180664,0.087891 0.517579,0.2294922 0.341796,0.1416016 0.664062,0.234375 0.483398,-0.3222656 0.668945,-0.6689453 0.185547,-0.3466797 0.185547,-0.8007813 z m 0.151367,3.6425782 q 0,-0.4492188 -0.200195,-0.7177735 -0.195312,-0.2734375 -0.771484,-0.546875 -0.229492,-0.1074219 -0.50293,-0.2001953 -0.273437,-0.092773 -0.727539,-0.2587891 -0.439453,0.2392578 -0.708008,0.6494141 -0.263672,0.4101562 -0.263672,0.9277344 0,0.6591797 0.454102,1.08886716 0.454101,0.4296875 1.152344,0.4296875 0.71289,0 1.137695,-0.36621094 0.429687,-0.36621092 0.429687,-1.00585932 z"
     style="fill:#262626"
     id="path4900" /></g>
   </g>
        <g
           xml:space="preserve"
           font-family="FreeSans"
           transform="translate(40.152,89.4128)"
           font-size="10px"
           font-style="normal"
           font-weight="normal"
           id="g3891">
    <g
   aria-label="1"
   id="text3889"
   style="fill:#262626"><path
     d="M 5.2929687,0 H 1.3574219 V -0.7421875 H 2.8710938 V -5.6152344 H 1.3574219 v -0.6640625 q 0.3076172,0 0.6591797,-0.048828 0.3515625,-0.053711 0.5322265,-0.1513672 0.2246094,-0.1220703 0.3515625,-0.3076172 0.131836,-0.1904297 0.1513672,-0.5078125 h 0.756836 v 6.5527344 h 1.4843749 z"
     style="fill:#262626"
     id="path4903" /></g>
   </g>
        <g
           xml:space="preserve"
           font-family="FreeSans"
           transform="translate(31.152,57.1105)"
           font-size="10px"
           font-style="normal"
           font-weight="normal"
           id="g3895">
    <g
   aria-label="1.2"
   id="text3893"
   style="fill:#262626"><path
     d="M 5.2929687,0 H 1.3574219 V -0.7421875 H 2.8710938 V -5.6152344 H 1.3574219 v -0.6640625 q 0.3076172,0 0.6591797,-0.048828 0.3515625,-0.053711 0.5322265,-0.1513672 0.2246094,-0.1220703 0.3515625,-0.3076172 0.131836,-0.1904297 0.1513672,-0.5078125 h 0.756836 v 6.5527344 h 1.4843749 z"
     style="fill:#262626"
     id="path4906" /><path
     d="M 8.4023438,0 H 7.2353516 v -1.3916016 h 1.1669922 z"
     style="fill:#262626"
     id="path4908" /><path
     d="M 14.708008,0 H 9.7861328 v -1.0205078 q 0.5126952,-0.4394531 1.0253902,-0.8789063 0.517579,-0.4394531 0.961915,-0.8740234 0.9375,-0.9082031 1.284179,-1.4404297 0.34668,-0.5371094 0.34668,-1.1572265 0,-0.5664063 -0.375977,-0.8837891 -0.371093,-0.3222656 -1.040039,-0.3222656 -0.444336,0 -0.961914,0.15625 -0.517578,0.15625 -1.010742,0.4785156 H 9.966797 v -1.0253906 q 0.34668,-0.1708985 0.922851,-0.3125 0.581055,-0.1416016 1.123047,-0.1416016 1.118164,0 1.75293,0.5419922 0.634766,0.5371094 0.634766,1.4599609 0,0.4150391 -0.107422,0.7763672 -0.102539,0.3564453 -0.307617,0.6787109 -0.19043,0.3027344 -0.449219,0.5957032 -0.253906,0.2929687 -0.620117,0.649414 -0.522461,0.5126953 -1.079102,0.9960938 -0.556641,0.4785156 -1.040039,0.88867186 h 3.911133 z"
     style="fill:#262626"
     id="path4910" /></g>
   </g>
        <g
           xml:space="preserve"
           font-family="FreeSans"
           transform="translate(31.152,24.8082)"
           font-size="10px"
           font-style="normal"
           font-weight="normal"
           id="g3899">
    <g
   aria-label="1.4"
   id="text3897"
   style="fill:#262626"><path
     d="M 5.2929687,0 H 1.3574219 V -0.7421875 H 2.8710938 V -5.6152344 H 1.3574219 v -0.6640625 q 0.3076172,0 0.6591797,-0.048828 0.3515625,-0.053711 0.5322265,-0.1513672 0.2246094,-0.1220703 0.3515625,-0.3076172 0.131836,-0.1904297 0.1513672,-0.5078125 h 0.756836 v 6.5527344 h 1.4843749 z"
     style="fill:#262626"
     id="path4913" /><path
     d="M 8.4023438,0 H 7.2353516 v -1.3916016 h 1.1669922 z"
     style="fill:#262626"
     id="path4915" /><path
     d="M 14.874023,-2.0458984 H 13.794922 V 0 h -0.9375 V -2.0458984 H 9.3759766 v -1.1230469 l 3.5205074,-4.1015625 h 0.898438 v 4.4433594 h 1.079101 z m -2.016601,-0.78125 v -3.28125 l -2.817383,3.28125 z"
     style="fill:#262626"
     id="path4917" /></g>
   </g>
        <path
           id="polyline3901"
           style="fill:none;stroke:#262626;stroke-width:0.5;stroke-linecap:square;stroke-dasharray:16, 0"
           d="M 51.151,246.924 H 356.089" />
        <path
           id="polyline3903"
           style="fill:none;stroke:#262626;stroke-width:0.5;stroke-linecap:square;stroke-dasharray:16, 0"
           d="M 51.151,20.8082 H 356.089" />
        <path
           id="polyline3905"
           style="fill:none;stroke:#262626;stroke-width:0.5;stroke-linecap:square;stroke-dasharray:16, 0"
           d="M 51.151,246.924 V 20.8082" />
        <path
           id="polyline3907"
           style="fill:none;stroke:#262626;stroke-width:0.5;stroke-linecap:square;stroke-dasharray:16, 0"
           d="M 356.089,246.924 V 20.8082" />
        <g
           xml:space="preserve"
           font-family="FreeSans"
           transform="translate(186.12,276.428)"
           font-size="10px"
           font-style="normal"
           font-weight="normal"
           id="g3911">
    <g
   aria-label="x = time"
   id="text3909"
   style="fill:#262626"><path
     d="M 5.625,0 H 4.4677734 L 2.9199219,-2.0947266 1.3623047,0 H 0.29296875 L 2.421875,-2.7197266 0.3125,-5.4541016 h 1.1572266 l 1.5380859,2.0605469 1.5429687,-2.0605469 H 5.625 l -2.1435547,2.6855469 z"
     style="fill:#262626"
     id="path4924" /><path
     d="M 14.987305,-3.8183594 H 9.1962891 v -0.78125 h 5.7910159 z m 0,2.0507813 H 9.1962891 v -0.78125 h 5.7910159 z"
     style="fill:#262626"
     id="path4926" /><path
     d="m 20.735352,-0.04882812 q -0.25879,0.06835937 -0.566407,0.11230468 -0.302734,0.04394531 -0.541992,0.04394531 -0.834961,0 -1.269531,-0.44921875 -0.43457,-0.44921874 -0.43457,-1.44042972 v -2.9003906 h -0.620118 v -0.7714844 h 0.620118 v -1.5673828 h 0.917968 v 1.5673828 h 1.894532 v 0.7714844 H 18.84082 v 2.4853516 q 0,0.4296875 0.01953,0.6738281 0.01953,0.2392578 0.136718,0.4492188 0.107422,0.19531245 0.292969,0.28808589 0.19043,0.0878906 0.576172,0.0878906 0.224609,0 0.46875,-0.0634766 0.244141,-0.0683594 0.351562,-0.11230469 h 0.04883 z"
     style="fill:#262626"
     id="path4928" /><path
     d="m 21.889648,-6.3671875 h -1.035156 v -0.9521484 h 1.035156 z M 21.831055,0 h -0.917969 v -5.4541016 h 0.917969 z"
     style="fill:#262626"
     id="path4930" /><path
     d="m 30.862305,0 h -0.917969 v -3.1054688 q 0,-0.3515625 -0.03418,-0.6787109 -0.0293,-0.3271484 -0.131836,-0.5224609 -0.112304,-0.209961 -0.322265,-0.3173828 -0.209961,-0.1074219 -0.605469,-0.1074219 -0.385742,0 -0.771484,0.1953125 -0.385743,0.1904297 -0.771485,0.4882812 0.01465,0.1123047 0.02441,0.2636719 0.0098,0.1464844 0.0098,0.2929688 V 0 h -0.917969 v -3.1054688 q 0,-0.3613281 -0.03418,-0.6835937 -0.0293,-0.3271484 -0.131836,-0.5224609 -0.112304,-0.209961 -0.322265,-0.3125 -0.209961,-0.1074219 -0.605469,-0.1074219 -0.375976,0 -0.756836,0.1855469 -0.375976,0.1855468 -0.751953,0.4736328 V 0 H 22.90332 v -5.4541016 h 0.917969 v 0.6054688 q 0.429688,-0.3564453 0.854492,-0.5566406 0.429688,-0.2001953 0.913086,-0.2001953 0.556641,0 0.942383,0.234375 0.390625,0.234375 0.581055,0.649414 0.55664,-0.46875 1.015625,-0.6738281 0.458984,-0.2099609 0.981445,-0.2099609 0.898437,0 1.323242,0.546875 0.429688,0.5419921 0.429688,1.5185546 z"
     style="fill:#262626"
     id="path4932" /><path
     d="m 35.46875,-2.6318359 h -4.018555 q 0,0.5029296 0.151367,0.8789062 0.151368,0.3710938 0.41504,0.6103516 0.253906,0.23437497 0.600585,0.35156248 0.351563,0.1171875 0.771485,0.1171875 0.55664,0 1.118164,-0.21972657 0.566406,-0.22460941 0.805664,-0.43945311 h 0.04883 v 1.00097655 q -0.463867,0.1953125 -0.947266,0.32714844 -0.483398,0.13183593 -1.015625,0.13183593 -1.357421,0 -2.11914,-0.73242187 -0.761719,-0.73730465 -0.761719,-2.08984375 0,-1.3378906 0.727539,-2.1240234 0.732422,-0.7861328 1.923828,-0.7861328 1.103516,0 1.699219,0.6445312 0.600586,0.6445313 0.600586,1.8310547 z m -0.893555,-0.703125 q -0.0049,-0.7226563 -0.366211,-1.1181641 -0.356445,-0.3955078 -1.088867,-0.3955078 -0.737305,0 -1.176758,0.4345703 -0.43457,0.4345703 -0.493164,1.0791016 z"
     style="fill:#262626"
     id="path4934" /></g>
   </g>
        <g
           xml:space="preserve"
           font-family="FreeSans"
           transform="rotate(-90,87.009,60.857)"
           font-size="10px"
           font-style="normal"
           font-weight="normal"
           id="g3919">
    <g
   aria-label="y = u"
   id="text3913"
   style="fill:#262626"><path
     d="M 5.6201172,-7.4541016 2.4365234,0.01171875 H 1.4550781 L 2.4707031,-2.2636719 0.29785156,-7.4541016 H 1.2939453 L 2.96875,-3.4111328 4.6582031,-7.4541016 Z"
     style="fill:#262626"
     id="path4937" /><path
     d="M 14.987305,-5.8183594 H 9.1962891 v -0.78125 h 5.7910159 z m 0,2.0507813 H 9.1962891 v -0.78125 h 5.7910159 z"
     style="fill:#262626"
     id="path4939" /><path
     d="m 22.424805,-2 h -0.917969 v -0.6054688 q -0.463867,0.366211 -0.888672,0.5615235 -0.424805,0.1953125 -0.9375,0.1953125 -0.859375,0 -1.337891,-0.522461 -0.478515,-0.5273437 -0.478515,-1.5429687 v -3.5400391 h 0.917969 v 3.1054688 q 0,0.415039 0.03906,0.7128906 0.03906,0.2929688 0.166016,0.5029297 0.131836,0.2148437 0.341797,0.3125 0.20996,0.097656 0.610351,0.097656 0.356445,0 0.776367,-0.1855468 0.424805,-0.1855469 0.791016,-0.4736328 v -4.0722657 h 0.917969 z"
     style="fill:#262626"
     id="path4941" /></g>
    <g
   aria-label="e"
   id="text3915"
   style="font-size:7px;fill:#262626"><path
     d="m 25.828125,-1.8422852 h -2.812988 q 0,0.3520508 0.105957,0.6152344 0.105957,0.25976564 0.290527,0.42724611 0.177734,0.1640625 0.42041,0.24609375 0.246094,0.0820313 0.540039,0.0820313 0.389649,0 0.782715,-0.15380859 0.396485,-0.15722656 0.563965,-0.30761719 h 0.03418 v 0.70068359 q -0.324707,0.13671876 -0.663086,0.22900391 -0.338379,0.09228516 -0.710938,0.09228516 -0.950195,0 -1.483398,-0.51269532 -0.533203,-0.51611328 -0.533203,-1.46289052 0,-0.9365236 0.509277,-1.4868166 0.512695,-0.5502929 1.34668,-0.5502929 0.772461,0 1.189453,0.4511718 0.42041,0.4511719 0.42041,1.2817383 z m -0.625488,-0.4921875 q -0.0034,-0.5058593 -0.256348,-0.7827148 -0.249512,-0.2768555 -0.762207,-0.2768555 -0.516113,0 -0.82373,0.3041992 -0.3042,0.3041993 -0.345215,0.7553711 z"
     style="font-size:7px;fill:#262626"
     id="path4944" /></g>
    <g
   aria-label="i"
   id="text3917"
   style="fill:#262626"><path
     d="m 27.889648,-8.3671875 h -1.035156 v -0.9521484 h 1.035156 z M 27.831055,-2 h -0.917969 v -5.4541016 h 0.917969 z"
     style="fill:#262626"
     id="path4947" /></g>
   </g>
        <path
           id="polyline3921"
           style="fill:none;stroke:#000000;stroke-width:0.5;stroke-linejoin:round"
           d="m 51.151,246.924 30.4938,-49.91 30.4942,-45.024 30.494,-35.731 30.493,-22.9413 30.494,-7.9049 30.494,7.9049 30.494,22.9413 30.494,35.731 30.494,45.024 30.493,49.91" />
        <path
           id="polyline3923"
           style="fill:none;stroke:#ff0000;stroke-width:0.5;stroke-linejoin:round"
           d="m 51.151,246.924 30.4938,-49.99 30.4942,-45.097 30.494,-35.79 30.493,-22.9779 30.494,-7.9177 30.494,7.9177 30.494,22.9779 30.494,35.79 30.494,45.097 30.493,49.99" />
        <path
           id="polyline3925"
           style="fill:none;stroke:#ff0000;stroke-width:0.5;stroke-linejoin:round"
           d="m 51.151,246.924 30.4938,-50.033 30.4942,-45.136 30.494,-35.82 30.493,-22.9982 30.494,-7.9246 30.494,7.9246 30.494,22.9982 30.494,35.82 30.494,45.136 30.493,50.033" />
        <path
           id="polyline3927"
           style="fill:none;stroke:#ff0000;stroke-width:0.5;stroke-linejoin:round"
           d="m 51.151,246.924 30.4938,-50.042 30.4942,-45.144 30.494,-35.826 30.493,-23.0021 30.494,-7.9259 30.494,7.9259 30.494,23.0021 30.494,35.826 30.494,45.144 30.493,50.042" />
        <path
           id="polyline3929"
           style="fill:none;stroke:#ff0000;stroke-width:0.5;stroke-linejoin:round"
           d="m 51.151,246.924 30.4938,-50.019 30.4942,-45.124 30.494,-35.81 30.493,-22.9911 30.494,-7.9223 30.494,7.9223 30.494,22.9911 30.494,35.81 30.494,45.124 30.493,50.019" />
        <path
           id="polyline3931"
           style="fill:none;stroke:#ff0000;stroke-width:0.5;stroke-linejoin:round"
           d="m 51.151,246.924 30.4938,-49.967 30.4942,-45.077 30.494,-35.772 30.493,-22.968 30.494,-7.9141 30.494,7.9141 30.494,22.968 30.494,35.772 30.494,45.077 30.493,49.967" />
        <path
           id="polyline3933"
           style="fill:none;stroke:#ff0000;stroke-width:0.5;stroke-linejoin:round"
           d="m 51.151,246.924 30.4938,-49.888 30.4942,-45.005 30.494,-35.716 30.493,-22.9306 30.494,-7.9015 30.494,7.9015 30.494,22.9306 30.494,35.716 30.494,45.005 30.493,49.888" />
        <path
           id="polyline3935"
           style="fill:none;stroke:#ff0000;stroke-width:0.5;stroke-linejoin:round"
           d="m 51.151,246.924 30.4938,-49.783 30.4942,-44.909 30.494,-35.641 30.493,-22.8824 30.494,-7.8848 30.494,7.8848 30.494,22.8824 30.494,35.641 30.494,44.909 30.493,49.783" />
        <path
           id="polyline3937"
           style="fill:none;stroke:#ff0000;stroke-width:0.5;stroke-linejoin:round"
           d="m 51.151,246.924 30.4938,-49.653 30.4942,-44.792 30.494,-35.547 30.493,-22.8231 30.494,-7.8643 30.494,7.8643 30.494,22.8231 30.494,35.547 30.494,44.792 30.493,49.653" />
        <path
           id="polyline3939"
           style="fill:none;stroke:#ff0000;stroke-width:0.5;stroke-linejoin:round"
           d="m 51.151,246.924 30.4938,-49.499 30.4942,-44.653 30.494,-35.438 30.493,-22.7519 30.494,-7.8398 30.494,7.8398 30.494,22.7519 30.494,35.438 30.494,44.653 30.493,49.499" />
        <path
           id="polyline3941"
           style="fill:none;stroke:#ff0000;stroke-width:0.5;stroke-linejoin:round"
           d="m 51.151,246.924 30.4938,-49.322 30.4942,-44.494 30.494,-35.311 30.493,-22.6711 30.494,-7.8119 30.494,7.8119 30.494,22.6711 30.494,35.311 30.494,44.494 30.493,49.322" />
        <path
           id="polyline3943"
           style="fill:none;stroke:#ff0000;stroke-width:0.5;stroke-linejoin:round"
           d="m 51.151,246.924 30.4938,-49.123 30.4942,-44.315 30.494,-35.168 30.493,-22.5799 30.494,-7.7804 30.494,7.7804 30.494,22.5799 30.494,35.168 30.494,44.315 30.493,49.123" />
        <path
           id="polyline3945"
           style="fill:none;stroke:#ff0000;stroke-width:0.5;stroke-linejoin:round"
           d="m 51.151,246.924 30.4938,-48.903 30.4942,-44.115 30.494,-35.011 30.493,-22.4781 30.494,-7.7454 30.494,7.7454 30.494,22.4781 30.494,35.011 30.494,44.115 30.493,48.903" />
        <path
           id="polyline3947"
           style="fill:none;stroke:#ff0000;stroke-width:0.5;stroke-linejoin:round"
           d="m 51.151,246.924 30.4938,-48.661 30.4942,-43.898 30.494,-34.837 30.493,-22.3672 30.494,-7.707 30.494,7.7071 30.494,22.3671 30.494,34.837 30.494,43.898 30.493,48.661" />
        <path
           id="polyline3949"
           style="fill:none;stroke:#ff0000;stroke-width:0.5;stroke-linejoin:round"
           d="m 51.151,246.924 30.4938,-48.399 30.4942,-43.66 30.494,-34.65 30.493,-22.2456 30.494,-7.6666 30.494,7.6663 30.494,22.2459 30.494,34.65 30.494,43.661 30.493,48.398" />
        <path
           id="polyline3951"
           style="fill:none;stroke:#ff0000;stroke-width:0.5;stroke-linejoin:round"
           d="m 51.151,246.924 30.4938,-48.114 30.4942,-43.41 30.494,-34.44 30.493,-22.1242 30.494,-7.6139 30.494,7.6155 30.494,22.1196 30.494,34.445 30.494,43.407 30.493,48.115" />
        <path
           id="polyline3953"
           style="fill:none;stroke:#ff0000;stroke-width:0.5;stroke-linejoin:round"
           d="m 51.151,246.924 30.4938,-47.824 30.4942,-43.101 30.494,-34.275 30.493,-21.9269 30.494,-7.6189 30.494,7.6086 30.494,21.9542 30.494,34.242 30.494,43.128 30.493,47.813" />
        <path
           id="polyline3955"
           style="fill:none;stroke:#ff0000;stroke-width:0.5;stroke-linejoin:round"
           d="m 51.151,246.924 30.4938,-47.416 30.4942,-43.048 30.494,-33.7 30.493,-22.162 30.494,-7.2113 30.494,7.2753 30.494,21.994 30.494,33.908 30.494,42.88 30.493,47.48" />
        <path
           id="polyline3957"
           style="fill:none;stroke:#ff0000;stroke-width:0.5;stroke-linejoin:round"
           d="m 51.151,246.924 30.4938,-47.636 30.4942,-41.165 30.494,-35.73 30.493,-19.455 30.494,-9.5556 30.494,9.1546 30.494,20.505 30.494,34.432 30.494,42.215 30.493,47.235" />
        <path
           id="polyline3959"
           style="fill:none;stroke:#ff0000;stroke-width:0.5;stroke-linejoin:round"
           d="m 51.151,246.924 30.4938,-43.563 30.4942,-51.235 30.494,-20.403 30.493,-36.2797 30.494,6.6587 30.494,-4.1588 30.494,29.7358 30.494,28.489 30.494,44.695 30.493,46.061" />
        <path
           id="polyline3961"
           style="fill:none;stroke:#ff0000;stroke-width:0.5;stroke-linejoin:round"
           d="m 51.151,246.924 30.4938,-67.685 30.4942,17.853 30.494,-120.1055 30.493,77.3155 30.494,-102.2441 30.494,86.6561 30.494,-36.512 30.494,69.68 30.494,22.934 30.493,52.108" />
        <path
           id="polygon3963"
           style="shape-rendering:crispEdges"
           d="m 50.401,248.223 -0.75,-1.299 0.75,-1.299 h 1.5 l 0.75,1.299 v 0 l -0.75,1.299 z" />
        <path
           id="polygon3965"
           style="shape-rendering:crispEdges"
           d="m 80.8948,180.538 -0.75,-1.299 0.75,-1.299 h 1.5 l 0.75,1.299 v 0 l -0.75,1.299 z" />
        <path
           id="polygon3967"
           style="shape-rendering:crispEdges"
           d="m 111.389,198.391 -0.75,-1.299 0.75,-1.299 h 1.5 l 0.75,1.299 v 0 l -0.75,1.299 z" />
        <path
           id="polygon3969"
           style="shape-rendering:crispEdges"
           d="m 141.883,78.2855 -0.75,-1.299 0.75,-1.299 h 1.5 l 0.75,1.299 v 0 l -0.75,1.299 z" />
        <path
           id="polygon3971"
           style="shape-rendering:crispEdges"
           d="m 172.376,155.601 -0.75,-1.299 0.75,-1.299 h 1.5 l 0.75,1.299 v 0 l -0.75,1.299 z" />
        <path
           id="polygon3973"
           style="shape-rendering:crispEdges"
           d="m 202.87,53.3569 -0.75,-1.299 0.75,-1.2991 h 1.5 l 0.75,1.2991 v 0 l -0.75,1.299 z" />
        <path
           id="polygon3975"
           style="shape-rendering:crispEdges"
           d="m 233.364,140.013 -0.75,-1.299 0.75,-1.299 h 1.5 l 0.75,1.299 v 0 l -0.75,1.299 z" />
        <path
           id="polygon3977"
           style="shape-rendering:crispEdges"
           d="m 263.858,103.501 -0.75,-1.299 0.75,-1.299 h 1.5 l 0.75,1.299 v 0 l -0.75,1.299 z" />
        <path
           id="polygon3979"
           style="shape-rendering:crispEdges"
           d="m 294.352,173.181 -0.75,-1.299 0.75,-1.299 h 1.5 l 0.75,1.299 v 0 l -0.75,1.299 z" />
        <path
           id="polygon3981"
           style="shape-rendering:crispEdges"
           d="m 324.846,196.115 -0.75,-1.299 0.75,-1.299 h 1.5 l 0.75,1.299 v 0 l -0.75,1.299 z" />
        <path
           id="polygon3983"
           style="shape-rendering:crispEdges"
           d="m 355.339,248.223 -0.749,-1.299 0.749,-1.299 h 1.5 l 0.75,1.299 v 0 l -0.75,1.299 z" />
        <path
           id="polyline3985"
           style="fill:none;stroke:#0071bc;stroke-width:0.5;stroke-linejoin:round"
           d="m 51.151,246.924 30.4938,-45.97 30.4942,-41.47 30.494,-32.911 30.493,-21.13 30.494,-7.2807 30.494,7.2807 30.494,21.13 30.494,32.911 30.494,41.47 30.493,45.97" />
        <path
           id="polyline3987"
           style="fill:none;stroke:#0000ff;stroke-width:0.5;stroke-linecap:round;stroke-linejoin:round"
           d="m 53.151,246.924 -0.382,1.176 -1,0.726 h -1.2361 l -1,-0.726 -0.3819,-1.176 0.3819,-1.175 1,-0.727 h 1.2361 l 1,0.727 0.382,1.175" />
        <path
           id="polyline3989"
           style="fill:none;stroke:#0000ff;stroke-width:0.5;stroke-linecap:round;stroke-linejoin:round"
           d="m 83.6448,196.995 -0.3819,1.175 -1,0.727 h -1.2361 l -1,-0.727 -0.382,-1.175 0.382,-1.176 1,-0.726 h 1.2361 l 1,0.726 0.3819,1.176" />
        <path
           id="polyline3991"
           style="fill:none;stroke:#0000ff;stroke-width:0.5;stroke-linecap:round;stroke-linejoin:round"
           d="m 114.139,151.953 -0.382,1.176 -1,0.726 h -1.236 l -1,-0.726 -0.382,-1.176 0.382,-1.176 1,-0.726 h 1.236 l 1,0.726 0.382,1.176" />
        <path
           id="polyline3993"
           style="fill:none;stroke:#0000ff;stroke-width:0.5;stroke-linecap:round;stroke-linejoin:round"
           d="m 144.633,116.208 -0.382,1.175 -1,0.727 h -1.237 l -1,-0.727 -0.381,-1.175 0.381,-1.176 1,-0.727 h 1.237 l 1,0.727 0.382,1.176" />
        <path
           id="polyline3995"
           style="fill:none;stroke:#0000ff;stroke-width:0.5;stroke-linecap:round;stroke-linejoin:round"
           d="m 175.126,93.2576 -0.382,1.1756 -1,0.7265 h -1.236 l -1,-0.7265 -0.382,-1.1756 0.382,-1.1756 1,-0.7265 h 1.236 l 1,0.7265 0.382,1.1756" />
        <path
           id="polyline3997"
           style="fill:none;stroke:#0000ff;stroke-width:0.5;stroke-linecap:round;stroke-linejoin:round"
           d="m 205.62,85.3496 -0.382,1.1755 -1,0.7266 h -1.236 l -1,-0.7266 -0.382,-1.1755 0.382,-1.1756 1,-0.7265 h 1.236 l 1,0.7265 0.382,1.1756" />
        <path
           id="polyline3999"
           style="fill:none;stroke:#0000ff;stroke-width:0.5;stroke-linecap:round;stroke-linejoin:round"
           d="m 236.114,93.2576 -0.382,1.1756 -1,0.7265 h -1.236 l -1,-0.7265 -0.382,-1.1756 0.382,-1.1756 1,-0.7265 h 1.236 l 1,0.7265 0.382,1.1756" />
        <path
           id="polyline4001"
           style="fill:none;stroke:#0000ff;stroke-width:0.5;stroke-linecap:round;stroke-linejoin:round"
           d="m 266.608,116.208 -0.382,1.175 -1,0.727 h -1.236 l -1,-0.727 -0.382,-1.175 0.382,-1.176 1,-0.727 h 1.236 l 1,0.727 0.382,1.176" />
        <path
           id="polyline4003"
           style="fill:none;stroke:#0000ff;stroke-width:0.5;stroke-linecap:round;stroke-linejoin:round"
           d="m 297.102,151.953 -0.382,1.176 -1,0.726 h -1.236 l -1,-0.726 -0.382,-1.176 0.382,-1.176 1,-0.726 h 1.236 l 1,0.726 0.382,1.176" />
        <path
           id="polyline4005"
           style="fill:none;stroke:#0000ff;stroke-width:0.5;stroke-linecap:round;stroke-linejoin:round"
           d="m 327.596,196.995 -0.382,1.175 -1,0.727 h -1.236 l -1,-0.727 -0.382,-1.175 0.382,-1.176 1,-0.726 h 1.236 l 1,0.726 0.382,1.176" />
        <path
           id="polyline4007"
           style="fill:none;stroke:#0000ff;stroke-width:0.5;stroke-linecap:round;stroke-linejoin:round"
           d="m 358.089,246.924 -0.381,1.176 -1,0.726 h -1.237 l -1,-0.726 -0.381,-1.176 0.381,-1.175 1,-0.727 h 1.237 l 1,0.727 0.381,1.175" />
        <path
           id="polyline4009"
           style="fill:none;stroke:#0000ff;stroke-width:0.5;stroke-linejoin:round"
           d="m 51.151,246.924 30.4938,-49.66 30.4942,-44.8 30.494,-35.553 30.493,-22.8259 30.494,-7.8654 30.494,7.8654 30.494,22.8259 30.494,35.553 30.494,44.8 30.493,49.66" />
      </g>
    </g>
    <g
       id="g2875"
       transform="translate(381.32421,-0.395012)">
      <path
         id="polygon2754"
         style="fill:#ffffff;shape-rendering:crispEdges"
         d="M 0,278 H 377 V 0 H 0 Z" />
      <clipPath
         id="clipPath2976">
        <polygon
           points="0,0 0,278 377,278 377,0 "
           id="polygon2974" />
      </clipPath>
      <g
         clip-path="url(#cp00377278-3)"
         id="g2873">
        <path
           id="polygon2759"
           style="fill:#ffffff;shape-rendering:crispEdges"
           d="M 49.0294,247.605 H 341.32 V 20.8656 H 49.0294 Z" />
        <path
           id="polyline2761"
           style="fill:none;stroke:#262626;stroke-width:0.5"
           d="m 49.0294,247.605 v -2.92" />
        <path
           id="polyline2763"
           style="fill:none;stroke:#262626;stroke-width:0.5"
           d="m 49.0294,20.8656 v 2.9195" />
        <path
           id="polyline2765"
           style="fill:none;stroke:#262626;stroke-width:0.5"
           d="m 107.487,247.605 v -2.92" />
        <path
           id="polyline2767"
           style="fill:none;stroke:#262626;stroke-width:0.5"
           d="m 107.487,20.8656 v 2.9195" />
        <path
           id="polyline2769"
           style="fill:none;stroke:#262626;stroke-width:0.5"
           d="m 165.946,247.605 v -2.92" />
        <path
           id="polyline2771"
           style="fill:none;stroke:#262626;stroke-width:0.5"
           d="m 165.946,20.8656 v 2.9195" />
        <path
           id="polyline2773"
           style="fill:none;stroke:#262626;stroke-width:0.5"
           d="m 224.404,247.605 v -2.92" />
        <path
           id="polyline2775"
           style="fill:none;stroke:#262626;stroke-width:0.5"
           d="m 224.404,20.8656 v 2.9195" />
        <path
           id="polyline2777"
           style="fill:none;stroke:#262626;stroke-width:0.5"
           d="m 282.862,247.605 v -2.92" />
        <path
           id="polyline2779"
           style="fill:none;stroke:#262626;stroke-width:0.5"
           d="m 282.862,20.8656 v 2.9195" />
        <path
           id="polyline2781"
           style="fill:none;stroke:#262626;stroke-width:0.5"
           d="m 341.32,247.605 v -2.92" />
        <path
           id="polyline2783"
           style="fill:none;stroke:#262626;stroke-width:0.5"
           d="m 341.32,20.8656 v 2.9195" />
        <g
           xml:space="preserve"
           font-size="10px"
           font-family="FreeSans"
           transform="translate(46.0294,263.096)"
           font-style="normal"
           font-weight="normal"
           id="g2787">
    <g
   aria-label="0"
   id="text2785"
   style="fill:#262626"><path
     d="m 5.6982422,-3.6376953 q 0,1.9580078 -0.6152344,2.87597655 -0.6103516,0.91308594 -1.899414,0.91308594 -1.3085938,0 -1.9140626,-0.92773438 -0.60058589,-0.92773441 -0.60058589,-2.85156251 0,-1.9384765 0.61035159,-2.8613281 0.6103515,-0.9277344 1.9042969,-0.9277344 1.3085937,0 1.9091796,0.9423828 0.6054688,0.9375 0.6054688,2.8369141 z m -1.2841797,2.2167969 q 0.1708984,-0.3955078 0.2294922,-0.9277344 0.063477,-0.5371094 0.063477,-1.2890625 0,-0.7421875 -0.063477,-1.2890625 -0.058594,-0.546875 -0.234375,-0.9277344 -0.1708985,-0.3759765 -0.46875,-0.5664062 -0.2929688,-0.1904297 -0.7568359,-0.1904297 -0.4589844,0 -0.7617188,0.1904297 -0.2978516,0.1904297 -0.4736328,0.5761718 -0.1660156,0.3613282 -0.2294922,0.9423829 -0.058594,0.5810546 -0.058594,1.274414 0,0.7617188 0.053711,1.2744141 0.053711,0.5126953 0.2294922,0.9179687 0.1611328,0.3808594 0.4541015,0.58105471 0.2978516,0.20019532 0.7861329,0.20019532 0.4589843,0 0.7617187,-0.19042969 0.3027344,-0.19042964 0.4687502,-0.57617184 z"
     style="fill:#262626"
     id="path5009" /></g>
   </g>
        <g
           xml:space="preserve"
           font-size="10px"
           font-family="FreeSans"
           transform="translate(99.9874,263.096)"
           font-style="normal"
           font-weight="normal"
           id="g2791">
    <g
   aria-label="0.2"
   id="text2789"
   style="fill:#262626"><path
     d="m 5.6982422,-3.6376953 q 0,1.9580078 -0.6152344,2.87597655 -0.6103516,0.91308594 -1.899414,0.91308594 -1.3085938,0 -1.9140626,-0.92773438 -0.60058589,-0.92773441 -0.60058589,-2.85156251 0,-1.9384765 0.61035159,-2.8613281 0.6103515,-0.9277344 1.9042969,-0.9277344 1.3085937,0 1.9091796,0.9423828 0.6054688,0.9375 0.6054688,2.8369141 z m -1.2841797,2.2167969 q 0.1708984,-0.3955078 0.2294922,-0.9277344 0.063477,-0.5371094 0.063477,-1.2890625 0,-0.7421875 -0.063477,-1.2890625 -0.058594,-0.546875 -0.234375,-0.9277344 -0.1708985,-0.3759765 -0.46875,-0.5664062 -0.2929688,-0.1904297 -0.7568359,-0.1904297 -0.4589844,0 -0.7617188,0.1904297 -0.2978516,0.1904297 -0.4736328,0.5761718 -0.1660156,0.3613282 -0.2294922,0.9423829 -0.058594,0.5810546 -0.058594,1.274414 0,0.7617188 0.053711,1.2744141 0.053711,0.5126953 0.2294922,0.9179687 0.1611328,0.3808594 0.4541015,0.58105471 0.2978516,0.20019532 0.7861329,0.20019532 0.4589843,0 0.7617187,-0.19042969 0.3027344,-0.19042964 0.4687502,-0.57617184 z"
     style="fill:#262626"
     id="path5012" /><path
     d="M 8.4023438,0 H 7.2353516 v -1.3916016 h 1.1669922 z"
     style="fill:#262626"
     id="path5014" /><path
     d="M 14.708008,0 H 9.7861328 v -1.0205078 q 0.5126952,-0.4394531 1.0253902,-0.8789063 0.517579,-0.4394531 0.961915,-0.8740234 0.9375,-0.9082031 1.284179,-1.4404297 0.34668,-0.5371094 0.34668,-1.1572265 0,-0.5664063 -0.375977,-0.8837891 -0.371093,-0.3222656 -1.040039,-0.3222656 -0.444336,0 -0.961914,0.15625 -0.517578,0.15625 -1.010742,0.4785156 H 9.966797 v -1.0253906 q 0.34668,-0.1708985 0.922851,-0.3125 0.581055,-0.1416016 1.123047,-0.1416016 1.118164,0 1.75293,0.5419922 0.634766,0.5371094 0.634766,1.4599609 0,0.4150391 -0.107422,0.7763672 -0.102539,0.3564453 -0.307617,0.6787109 -0.19043,0.3027344 -0.449219,0.5957032 -0.253906,0.2929687 -0.620117,0.649414 -0.522461,0.5126953 -1.079102,0.9960938 -0.556641,0.4785156 -1.040039,0.88867186 h 3.911133 z"
     style="fill:#262626"
     id="path5016" /></g>
   </g>
        <g
           xml:space="preserve"
           font-size="10px"
           font-family="FreeSans"
           transform="translate(158.446,263.096)"
           font-style="normal"
           font-weight="normal"
           id="g2795">
    <g
   aria-label="0.4"
   id="text2793"
   style="fill:#262626"><path
     d="m 5.6982422,-3.6376953 q 0,1.9580078 -0.6152344,2.87597655 -0.6103516,0.91308594 -1.899414,0.91308594 -1.3085938,0 -1.9140626,-0.92773438 -0.60058589,-0.92773441 -0.60058589,-2.85156251 0,-1.9384765 0.61035159,-2.8613281 0.6103515,-0.9277344 1.9042969,-0.9277344 1.3085937,0 1.9091796,0.9423828 0.6054688,0.9375 0.6054688,2.8369141 z m -1.2841797,2.2167969 q 0.1708984,-0.3955078 0.2294922,-0.9277344 0.063477,-0.5371094 0.063477,-1.2890625 0,-0.7421875 -0.063477,-1.2890625 -0.058594,-0.546875 -0.234375,-0.9277344 -0.1708985,-0.3759765 -0.46875,-0.5664062 -0.2929688,-0.1904297 -0.7568359,-0.1904297 -0.4589844,0 -0.7617188,0.1904297 -0.2978516,0.1904297 -0.4736328,0.5761718 -0.1660156,0.3613282 -0.2294922,0.9423829 -0.058594,0.5810546 -0.058594,1.274414 0,0.7617188 0.053711,1.2744141 0.053711,0.5126953 0.2294922,0.9179687 0.1611328,0.3808594 0.4541015,0.58105471 0.2978516,0.20019532 0.7861329,0.20019532 0.4589843,0 0.7617187,-0.19042969 0.3027344,-0.19042964 0.4687502,-0.57617184 z"
     style="fill:#262626"
     id="path5019" /><path
     d="M 8.4023438,0 H 7.2353516 v -1.3916016 h 1.1669922 z"
     style="fill:#262626"
     id="path5021" /><path
     d="M 14.874023,-2.0458984 H 13.794922 V 0 h -0.9375 V -2.0458984 H 9.3759766 v -1.1230469 l 3.5205074,-4.1015625 h 0.898438 v 4.4433594 h 1.079101 z m -2.016601,-0.78125 v -3.28125 l -2.817383,3.28125 z"
     style="fill:#262626"
     id="path5023" /></g>
   </g>
        <g
           xml:space="preserve"
           font-size="10px"
           font-family="FreeSans"
           transform="translate(216.904,263.096)"
           font-style="normal"
           font-weight="normal"
           id="g2799">
    <g
   aria-label="0.6"
   id="text2797"
   style="fill:#262626"><path
     d="m 5.6982422,-3.6376953 q 0,1.9580078 -0.6152344,2.87597655 -0.6103516,0.91308594 -1.899414,0.91308594 -1.3085938,0 -1.9140626,-0.92773438 -0.60058589,-0.92773441 -0.60058589,-2.85156251 0,-1.9384765 0.61035159,-2.8613281 0.6103515,-0.9277344 1.9042969,-0.9277344 1.3085937,0 1.9091796,0.9423828 0.6054688,0.9375 0.6054688,2.8369141 z m -1.2841797,2.2167969 q 0.1708984,-0.3955078 0.2294922,-0.9277344 0.063477,-0.5371094 0.063477,-1.2890625 0,-0.7421875 -0.063477,-1.2890625 -0.058594,-0.546875 -0.234375,-0.9277344 -0.1708985,-0.3759765 -0.46875,-0.5664062 -0.2929688,-0.1904297 -0.7568359,-0.1904297 -0.4589844,0 -0.7617188,0.1904297 -0.2978516,0.1904297 -0.4736328,0.5761718 -0.1660156,0.3613282 -0.2294922,0.9423829 -0.058594,0.5810546 -0.058594,1.274414 0,0.7617188 0.053711,1.2744141 0.053711,0.5126953 0.2294922,0.9179687 0.1611328,0.3808594 0.4541015,0.58105471 0.2978516,0.20019532 0.7861329,0.20019532 0.4589843,0 0.7617187,-0.19042969 0.3027344,-0.19042964 0.4687502,-0.57617184 z"
     style="fill:#262626"
     id="path5026" /><path
     d="M 8.4023438,0 H 7.2353516 v -1.3916016 h 1.1669922 z"
     style="fill:#262626"
     id="path5028" /><path
     d="m 14.81543,-2.3583984 q 0,1.1083984 -0.732422,1.8115234 -0.727539,0.69824219 -1.78711,0.69824219 -0.537109,0 -0.976562,-0.16601563 -0.439453,-0.16601562 -0.776367,-0.49316406 -0.419922,-0.40527344 -0.6494143,-1.0742187 -0.2246094,-0.6689454 -0.2246094,-1.6113282 0,-0.9667968 0.2050781,-1.7138672 0.2099606,-0.7470703 0.6640626,-1.328125 0.429687,-0.5517578 1.108398,-0.859375 0.678711,-0.3125 1.582032,-0.3125 0.288086,0 0.483398,0.024414 0.195313,0.024414 0.395508,0.087891 v 0.9326172 h -0.04883 q -0.136719,-0.073242 -0.415039,-0.1367187 -0.273438,-0.068359 -0.561524,-0.068359 -1.049804,0 -1.674804,0.6591797 -0.625,0.6542969 -0.727539,1.7724609 0.410156,-0.2490234 0.805664,-0.3759765 0.40039,-0.131836 0.922851,-0.131836 0.463867,0 0.81543,0.087891 0.356445,0.083008 0.727539,0.3417969 0.429687,0.2978516 0.644531,0.7519531 0.219727,0.4541016 0.219727,1.1035157 z m -0.991211,0.039063 q 0,-0.4541016 -0.136719,-0.7519532 -0.131836,-0.2978515 -0.439453,-0.5175781 -0.224609,-0.15625 -0.498047,-0.2050781 -0.273437,-0.048828 -0.571289,-0.048828 -0.415039,0 -0.771484,0.097656 -0.356446,0.097656 -0.732422,0.3027344 -0.0098,0.1074219 -0.01465,0.2099609 -0.0049,0.097656 -0.0049,0.2490235 0,0.7714843 0.15625,1.2207031 0.161133,0.4443359 0.439454,0.703125 0.224609,0.21484374 0.483398,0.3173828 0.263672,0.0976563 0.571289,0.0976563 0.708008,0 1.113281,-0.4296875 0.405274,-0.4345704 0.405274,-1.2451172 z"
     style="fill:#262626"
     id="path5030" /></g>
   </g>
        <g
           xml:space="preserve"
           font-size="10px"
           font-family="FreeSans"
           transform="translate(275.362,263.096)"
           font-style="normal"
           font-weight="normal"
           id="g2803">
    <g
   aria-label="0.8"
   id="text2801"
   style="fill:#262626"><path
     d="m 5.6982422,-3.6376953 q 0,1.9580078 -0.6152344,2.87597655 -0.6103516,0.91308594 -1.899414,0.91308594 -1.3085938,0 -1.9140626,-0.92773438 -0.60058589,-0.92773441 -0.60058589,-2.85156251 0,-1.9384765 0.61035159,-2.8613281 0.6103515,-0.9277344 1.9042969,-0.9277344 1.3085937,0 1.9091796,0.9423828 0.6054688,0.9375 0.6054688,2.8369141 z m -1.2841797,2.2167969 q 0.1708984,-0.3955078 0.2294922,-0.9277344 0.063477,-0.5371094 0.063477,-1.2890625 0,-0.7421875 -0.063477,-1.2890625 -0.058594,-0.546875 -0.234375,-0.9277344 -0.1708985,-0.3759765 -0.46875,-0.5664062 -0.2929688,-0.1904297 -0.7568359,-0.1904297 -0.4589844,0 -0.7617188,0.1904297 -0.2978516,0.1904297 -0.4736328,0.5761718 -0.1660156,0.3613282 -0.2294922,0.9423829 -0.058594,0.5810546 -0.058594,1.274414 0,0.7617188 0.053711,1.2744141 0.053711,0.5126953 0.2294922,0.9179687 0.1611328,0.3808594 0.4541015,0.58105471 0.2978516,0.20019532 0.7861329,0.20019532 0.4589843,0 0.7617187,-0.19042969 0.3027344,-0.19042964 0.4687502,-0.57617184 z"
     style="fill:#262626"
     id="path5033" /><path
     d="M 8.4023438,0 H 7.2353516 v -1.3916016 h 1.1669922 z"
     style="fill:#262626"
     id="path5035" /><path
     d="m 14.761719,-2.0263672 q 0,0.9423828 -0.737305,1.56738282 -0.732422,0.625 -1.845703,0.625 -1.181641,0 -1.884766,-0.61035156 -0.6982419,-0.61035156 -0.6982419,-1.56249996 0,-0.6054688 0.3515625,-1.09375 0.3515624,-0.4931641 0.9912114,-0.78125 v -0.029297 q -0.585938,-0.3125 -0.869141,-0.6835938 -0.2783204,-0.3710937 -0.2783204,-0.9277343 0,-0.8203125 0.6738284,-1.3671875 0.673828,-0.546875 1.713867,-0.546875 1.088867,0 1.738281,0.5224609 0.649414,0.5224609 0.649414,1.328125 0,0.4931641 -0.307617,0.9716797 -0.307617,0.4736328 -0.90332,0.7421875 v 0.029297 q 0.683594,0.2929687 1.044922,0.7226562 0.361328,0.4296875 0.361328,1.09375 z m -1.157227,-3.5498047 q 0,-0.5224609 -0.405273,-0.8300781 -0.400391,-0.3125 -1.025391,-0.3125 -0.615234,0 -1.010742,0.2929688 -0.390625,0.2929687 -0.390625,0.7910156 0,0.3515625 0.195312,0.6103515 0.200196,0.2539063 0.600586,0.4541016 0.180664,0.087891 0.517579,0.2294922 0.341796,0.1416016 0.664062,0.234375 0.483398,-0.3222656 0.668945,-0.6689453 0.185547,-0.3466797 0.185547,-0.8007813 z m 0.151367,3.6425782 q 0,-0.4492188 -0.200195,-0.7177735 -0.195312,-0.2734375 -0.771484,-0.546875 -0.229492,-0.1074219 -0.50293,-0.2001953 -0.273437,-0.092773 -0.727539,-0.2587891 -0.439453,0.2392578 -0.708008,0.6494141 -0.263672,0.4101562 -0.263672,0.9277344 0,0.6591797 0.454102,1.08886716 0.454101,0.4296875 1.152344,0.4296875 0.71289,0 1.137695,-0.36621094 0.429687,-0.36621092 0.429687,-1.00585932 z"
     style="fill:#262626"
     id="path5037" /></g>
   </g>
        <g
           xml:space="preserve"
           font-size="10px"
           font-family="FreeSans"
           transform="translate(338.32,263.096)"
           font-style="normal"
           font-weight="normal"
           id="g2807">
    <g
   aria-label="1"
   id="text2805"
   style="fill:#262626"><path
     d="M 5.2929687,0 H 1.3574219 V -0.7421875 H 2.8710938 V -5.6152344 H 1.3574219 v -0.6640625 q 0.3076172,0 0.6591797,-0.048828 0.3515625,-0.053711 0.5322265,-0.1513672 0.2246094,-0.1220703 0.3515625,-0.3076172 0.131836,-0.1904297 0.1513672,-0.5078125 h 0.756836 v 6.5527344 h 1.4843749 z"
     style="fill:#262626"
     id="path5040" /></g>
   </g>
        <path
           id="polyline2809"
           style="fill:none;stroke:#262626;stroke-width:0.5"
           d="m 49.0294,247.605 h 2.9258" />
        <path
           id="polyline2811"
           style="fill:none;stroke:#262626;stroke-width:0.5"
           d="m 341.32,247.605 h -2.926" />
        <path
           id="polyline2813"
           style="fill:none;stroke:#262626;stroke-width:0.5"
           d="m 49.0294,190.92 h 2.9258" />
        <path
           id="polyline2815"
           style="fill:none;stroke:#262626;stroke-width:0.5"
           d="m 341.32,190.92 h -2.926" />
        <path
           id="polyline2817"
           style="fill:none;stroke:#262626;stroke-width:0.5"
           d="m 49.0294,134.235 h 2.9258" />
        <path
           id="polyline2819"
           style="fill:none;stroke:#262626;stroke-width:0.5"
           d="m 341.32,134.235 h -2.926" />
        <path
           id="polyline2821"
           style="fill:none;stroke:#262626;stroke-width:0.5"
           d="m 49.0294,77.5504 h 2.9258" />
        <path
           id="polyline2823"
           style="fill:none;stroke:#262626;stroke-width:0.5"
           d="m 341.32,77.5504 h -2.926" />
        <path
           id="polyline2825"
           style="fill:none;stroke:#262626;stroke-width:0.5"
           d="m 49.0294,20.8656 h 2.9258" />
        <path
           id="polyline2827"
           style="fill:none;stroke:#262626;stroke-width:0.5"
           d="m 341.32,20.8656 h -2.926" />
        <g
           xml:space="preserve"
           font-size="10px"
           font-family="FreeSans"
           transform="translate(26.0244,251.605)"
           font-style="normal"
           font-weight="normal"
           id="g2831">
    <g
   aria-label="-0.4"
   id="text2829"
   style="fill:#262626"><path
     d="M 3.7939453,-2.7392578 H 0.74707031 V -3.6230469 H 3.7939453 Z"
     style="fill:#262626"
     id="path5053" /><path
     d="m 8.6982422,-3.6376953 q 0,1.9580078 -0.6152344,2.87597655 -0.6103516,0.91308594 -1.8994141,0.91308594 -1.3085937,0 -1.9140625,-0.92773438 -0.6005859,-0.92773441 -0.6005859,-2.85156251 0,-1.9384765 0.6103516,-2.8613281 0.6103515,-0.9277344 1.9042968,-0.9277344 1.3085938,0 1.9091797,0.9423828 0.6054688,0.9375 0.6054688,2.8369141 z m -1.2841797,2.2167969 q 0.1708984,-0.3955078 0.2294922,-0.9277344 0.063477,-0.5371094 0.063477,-1.2890625 0,-0.7421875 -0.063477,-1.2890625 -0.058594,-0.546875 -0.234375,-0.9277344 -0.1708985,-0.3759765 -0.46875,-0.5664062 -0.2929688,-0.1904297 -0.756836,-0.1904297 -0.4589843,0 -0.7617187,0.1904297 -0.2978516,0.1904297 -0.4736328,0.5761718 -0.1660156,0.3613282 -0.2294922,0.9423829 -0.058594,0.5810546 -0.058594,1.274414 0,0.7617188 0.053711,1.2744141 0.053711,0.5126953 0.2294922,0.9179687 0.1611328,0.3808594 0.4541015,0.58105471 0.2978516,0.20019532 0.7861328,0.20019532 0.4589844,0 0.7617188,-0.19042969 0.3027344,-0.19042964 0.4687502,-0.57617184 z"
     style="fill:#262626"
     id="path5055" /><path
     d="m 11.402344,0 h -1.166992 v -1.3916016 h 1.166992 z"
     style="fill:#262626"
     id="path5057" /><path
     d="M 17.874023,-2.0458984 H 16.794922 V 0 h -0.9375 v -2.0458984 h -3.481445 v -1.1230469 l 3.520507,-4.1015625 h 0.898438 v 4.4433594 h 1.079101 z m -2.016601,-0.78125 v -3.28125 l -2.817383,3.28125 z"
     style="fill:#262626"
     id="path5059" /></g>
   </g>
        <g
           xml:space="preserve"
           font-size="10px"
           font-family="FreeSans"
           transform="translate(26.0244,194.92)"
           font-style="normal"
           font-weight="normal"
           id="g2835">
    <g
   aria-label="-0.2"
   id="text2833"
   style="fill:#262626"><path
     d="M 3.7939453,-2.7392578 H 0.74707031 V -3.6230469 H 3.7939453 Z"
     style="fill:#262626"
     id="path5062" /><path
     d="m 8.6982422,-3.6376953 q 0,1.9580078 -0.6152344,2.87597655 -0.6103516,0.91308594 -1.8994141,0.91308594 -1.3085937,0 -1.9140625,-0.92773438 -0.6005859,-0.92773441 -0.6005859,-2.85156251 0,-1.9384765 0.6103516,-2.8613281 0.6103515,-0.9277344 1.9042968,-0.9277344 1.3085938,0 1.9091797,0.9423828 0.6054688,0.9375 0.6054688,2.8369141 z m -1.2841797,2.2167969 q 0.1708984,-0.3955078 0.2294922,-0.9277344 0.063477,-0.5371094 0.063477,-1.2890625 0,-0.7421875 -0.063477,-1.2890625 -0.058594,-0.546875 -0.234375,-0.9277344 -0.1708985,-0.3759765 -0.46875,-0.5664062 -0.2929688,-0.1904297 -0.756836,-0.1904297 -0.4589843,0 -0.7617187,0.1904297 -0.2978516,0.1904297 -0.4736328,0.5761718 -0.1660156,0.3613282 -0.2294922,0.9423829 -0.058594,0.5810546 -0.058594,1.274414 0,0.7617188 0.053711,1.2744141 0.053711,0.5126953 0.2294922,0.9179687 0.1611328,0.3808594 0.4541015,0.58105471 0.2978516,0.20019532 0.7861328,0.20019532 0.4589844,0 0.7617188,-0.19042969 0.3027344,-0.19042964 0.4687502,-0.57617184 z"
     style="fill:#262626"
     id="path5064" /><path
     d="m 11.402344,0 h -1.166992 v -1.3916016 h 1.166992 z"
     style="fill:#262626"
     id="path5066" /><path
     d="m 17.708008,0 h -4.921875 v -1.0205078 q 0.512695,-0.4394531 1.02539,-0.8789063 0.517579,-0.4394531 0.961915,-0.8740234 0.9375,-0.9082031 1.284179,-1.4404297 0.34668,-0.5371094 0.34668,-1.1572265 0,-0.5664063 -0.375977,-0.8837891 -0.371093,-0.3222656 -1.040039,-0.3222656 -0.444336,0 -0.961914,0.15625 -0.517578,0.15625 -1.010742,0.4785156 h -0.04883 v -1.0253906 q 0.34668,-0.1708985 0.922851,-0.3125 0.581055,-0.1416016 1.123047,-0.1416016 1.118164,0 1.75293,0.5419922 0.634766,0.5371094 0.634766,1.4599609 0,0.4150391 -0.107422,0.7763672 -0.102539,0.3564453 -0.307617,0.6787109 -0.19043,0.3027344 -0.449219,0.5957032 -0.253906,0.2929687 -0.620117,0.649414 -0.522461,0.5126953 -1.079102,0.9960938 -0.556641,0.4785156 -1.040039,0.88867186 h 3.911133 z"
     style="fill:#262626"
     id="path5068" /></g>
   </g>
        <g
           xml:space="preserve"
           font-size="10px"
           font-family="FreeSans"
           transform="translate(38.0244,138.235)"
           font-style="normal"
           font-weight="normal"
           id="g2839">
    <g
   aria-label="0"
   id="text2837"
   style="fill:#262626"><path
     d="m 5.6982422,-3.6376953 q 0,1.9580078 -0.6152344,2.87597655 -0.6103516,0.91308594 -1.899414,0.91308594 -1.3085938,0 -1.9140626,-0.92773438 -0.60058589,-0.92773441 -0.60058589,-2.85156251 0,-1.9384765 0.61035159,-2.8613281 0.6103515,-0.9277344 1.9042969,-0.9277344 1.3085937,0 1.9091796,0.9423828 0.6054688,0.9375 0.6054688,2.8369141 z m -1.2841797,2.2167969 q 0.1708984,-0.3955078 0.2294922,-0.9277344 0.063477,-0.5371094 0.063477,-1.2890625 0,-0.7421875 -0.063477,-1.2890625 -0.058594,-0.546875 -0.234375,-0.9277344 -0.1708985,-0.3759765 -0.46875,-0.5664062 -0.2929688,-0.1904297 -0.7568359,-0.1904297 -0.4589844,0 -0.7617188,0.1904297 -0.2978516,0.1904297 -0.4736328,0.5761718 -0.1660156,0.3613282 -0.2294922,0.9423829 -0.058594,0.5810546 -0.058594,1.274414 0,0.7617188 0.053711,1.2744141 0.053711,0.5126953 0.2294922,0.9179687 0.1611328,0.3808594 0.4541015,0.58105471 0.2978516,0.20019532 0.7861329,0.20019532 0.4589843,0 0.7617187,-0.19042969 0.3027344,-0.19042964 0.4687502,-0.57617184 z"
     style="fill:#262626"
     id="path5071" /></g>
   </g>
        <g
           xml:space="preserve"
           font-size="10px"
           font-family="FreeSans"
           transform="translate(29.0244,81.5504)"
           font-style="normal"
           font-weight="normal"
           id="g2843">
    <g
   aria-label="0.2"
   id="text2841"
   style="fill:#262626"><path
     d="m 5.6982422,-3.6376953 q 0,1.9580078 -0.6152344,2.87597655 -0.6103516,0.91308594 -1.899414,0.91308594 -1.3085938,0 -1.9140626,-0.92773438 -0.60058589,-0.92773441 -0.60058589,-2.85156251 0,-1.9384765 0.61035159,-2.8613281 0.6103515,-0.9277344 1.9042969,-0.9277344 1.3085937,0 1.9091796,0.9423828 0.6054688,0.9375 0.6054688,2.8369141 z m -1.2841797,2.2167969 q 0.1708984,-0.3955078 0.2294922,-0.9277344 0.063477,-0.5371094 0.063477,-1.2890625 0,-0.7421875 -0.063477,-1.2890625 -0.058594,-0.546875 -0.234375,-0.9277344 -0.1708985,-0.3759765 -0.46875,-0.5664062 -0.2929688,-0.1904297 -0.7568359,-0.1904297 -0.4589844,0 -0.7617188,0.1904297 -0.2978516,0.1904297 -0.4736328,0.5761718 -0.1660156,0.3613282 -0.2294922,0.9423829 -0.058594,0.5810546 -0.058594,1.274414 0,0.7617188 0.053711,1.2744141 0.053711,0.5126953 0.2294922,0.9179687 0.1611328,0.3808594 0.4541015,0.58105471 0.2978516,0.20019532 0.7861329,0.20019532 0.4589843,0 0.7617187,-0.19042969 0.3027344,-0.19042964 0.4687502,-0.57617184 z"
     style="fill:#262626"
     id="path5074" /><path
     d="M 8.4023438,0 H 7.2353516 v -1.3916016 h 1.1669922 z"
     style="fill:#262626"
     id="path5076" /><path
     d="M 14.708008,0 H 9.7861328 v -1.0205078 q 0.5126952,-0.4394531 1.0253902,-0.8789063 0.517579,-0.4394531 0.961915,-0.8740234 0.9375,-0.9082031 1.284179,-1.4404297 0.34668,-0.5371094 0.34668,-1.1572265 0,-0.5664063 -0.375977,-0.8837891 -0.371093,-0.3222656 -1.040039,-0.3222656 -0.444336,0 -0.961914,0.15625 -0.517578,0.15625 -1.010742,0.4785156 H 9.966797 v -1.0253906 q 0.34668,-0.1708985 0.922851,-0.3125 0.581055,-0.1416016 1.123047,-0.1416016 1.118164,0 1.75293,0.5419922 0.634766,0.5371094 0.634766,1.4599609 0,0.4150391 -0.107422,0.7763672 -0.102539,0.3564453 -0.307617,0.6787109 -0.19043,0.3027344 -0.449219,0.5957032 -0.253906,0.2929687 -0.620117,0.649414 -0.522461,0.5126953 -1.079102,0.9960938 -0.556641,0.4785156 -1.040039,0.88867186 h 3.911133 z"
     style="fill:#262626"
     id="path5078" /></g>
   </g>
        <g
           xml:space="preserve"
           font-size="10px"
           font-family="FreeSans"
           transform="translate(29.0244,24.8656)"
           font-style="normal"
           font-weight="normal"
           id="g2847">
    <g
   aria-label="0.4"
   id="text2845"
   style="fill:#262626"><path
     d="m 5.6982422,-3.6376953 q 0,1.9580078 -0.6152344,2.87597655 -0.6103516,0.91308594 -1.899414,0.91308594 -1.3085938,0 -1.9140626,-0.92773438 -0.60058589,-0.92773441 -0.60058589,-2.85156251 0,-1.9384765 0.61035159,-2.8613281 0.6103515,-0.9277344 1.9042969,-0.9277344 1.3085937,0 1.9091796,0.9423828 0.6054688,0.9375 0.6054688,2.8369141 z m -1.2841797,2.2167969 q 0.1708984,-0.3955078 0.2294922,-0.9277344 0.063477,-0.5371094 0.063477,-1.2890625 0,-0.7421875 -0.063477,-1.2890625 -0.058594,-0.546875 -0.234375,-0.9277344 -0.1708985,-0.3759765 -0.46875,-0.5664062 -0.2929688,-0.1904297 -0.7568359,-0.1904297 -0.4589844,0 -0.7617188,0.1904297 -0.2978516,0.1904297 -0.4736328,0.5761718 -0.1660156,0.3613282 -0.2294922,0.9423829 -0.058594,0.5810546 -0.058594,1.274414 0,0.7617188 0.053711,1.2744141 0.053711,0.5126953 0.2294922,0.9179687 0.1611328,0.3808594 0.4541015,0.58105471 0.2978516,0.20019532 0.7861329,0.20019532 0.4589843,0 0.7617187,-0.19042969 0.3027344,-0.19042964 0.4687502,-0.57617184 z"
     style="fill:#262626"
     id="path5081" /><path
     d="M 8.4023438,0 H 7.2353516 v -1.3916016 h 1.1669922 z"
     style="fill:#262626"
     id="path5083" /><path
     d="M 14.874023,-2.0458984 H 13.794922 V 0 h -0.9375 V -2.0458984 H 9.3759766 v -1.1230469 l 3.5205074,-4.1015625 h 0.898438 v 4.4433594 h 1.079101 z m -2.016601,-0.78125 v -3.28125 l -2.817383,3.28125 z"
     style="fill:#262626"
     id="path5085" /></g>
   </g>
        <path
           id="polyline2849"
           style="fill:none;stroke:#262626;stroke-width:0.5;stroke-linecap:square;stroke-dasharray:16, 0"
           d="M 49.0294,247.605 H 341.32" />
        <path
           id="polyline2851"
           style="fill:none;stroke:#262626;stroke-width:0.5;stroke-linecap:square;stroke-dasharray:16, 0"
           d="M 49.0294,20.8656 H 341.32" />
        <path
           id="polyline2853"
           style="fill:none;stroke:#262626;stroke-width:0.5;stroke-linecap:square;stroke-dasharray:16, 0"
           d="M 49.0294,247.605 V 20.8656" />
        <path
           id="polyline2855"
           style="fill:none;stroke:#262626;stroke-width:0.5;stroke-linecap:square;stroke-dasharray:16, 0"
           d="M 341.32,247.605 V 20.8656" />
        <g
           xml:space="preserve"
           font-size="10px"
           font-family="FreeSans"
           transform="translate(177.675,277.096)"
           font-style="normal"
           font-weight="normal"
           id="g2859">
    <g
   aria-label="x = time"
   id="text2857"
   style="fill:#262626"><path
     d="M 5.625,0 H 4.4677734 L 2.9199219,-2.0947266 1.3623047,0 H 0.29296875 L 2.421875,-2.7197266 0.3125,-5.4541016 h 1.1572266 l 1.5380859,2.0605469 1.5429687,-2.0605469 H 5.625 l -2.1435547,2.6855469 z"
     style="fill:#262626"
     id="path5092" /><path
     d="M 14.987305,-3.8183594 H 9.1962891 v -0.78125 h 5.7910159 z m 0,2.0507813 H 9.1962891 v -0.78125 h 5.7910159 z"
     style="fill:#262626"
     id="path5094" /><path
     d="m 20.735352,-0.04882812 q -0.25879,0.06835937 -0.566407,0.11230468 -0.302734,0.04394531 -0.541992,0.04394531 -0.834961,0 -1.269531,-0.44921875 -0.43457,-0.44921874 -0.43457,-1.44042972 v -2.9003906 h -0.620118 v -0.7714844 h 0.620118 v -1.5673828 h 0.917968 v 1.5673828 h 1.894532 v 0.7714844 H 18.84082 v 2.4853516 q 0,0.4296875 0.01953,0.6738281 0.01953,0.2392578 0.136718,0.4492188 0.107422,0.19531245 0.292969,0.28808589 0.19043,0.0878906 0.576172,0.0878906 0.224609,0 0.46875,-0.0634766 0.244141,-0.0683594 0.351562,-0.11230469 h 0.04883 z"
     style="fill:#262626"
     id="path5096" /><path
     d="m 21.889648,-6.3671875 h -1.035156 v -0.9521484 h 1.035156 z M 21.831055,0 h -0.917969 v -5.4541016 h 0.917969 z"
     style="fill:#262626"
     id="path5098" /><path
     d="m 30.862305,0 h -0.917969 v -3.1054688 q 0,-0.3515625 -0.03418,-0.6787109 -0.0293,-0.3271484 -0.131836,-0.5224609 -0.112304,-0.209961 -0.322265,-0.3173828 -0.209961,-0.1074219 -0.605469,-0.1074219 -0.385742,0 -0.771484,0.1953125 -0.385743,0.1904297 -0.771485,0.4882812 0.01465,0.1123047 0.02441,0.2636719 0.0098,0.1464844 0.0098,0.2929688 V 0 h -0.917969 v -3.1054688 q 0,-0.3613281 -0.03418,-0.6835937 -0.0293,-0.3271484 -0.131836,-0.5224609 -0.112304,-0.209961 -0.322265,-0.3125 -0.209961,-0.1074219 -0.605469,-0.1074219 -0.375976,0 -0.756836,0.1855469 -0.375976,0.1855468 -0.751953,0.4736328 V 0 H 22.90332 v -5.4541016 h 0.917969 v 0.6054688 q 0.429688,-0.3564453 0.854492,-0.5566406 0.429688,-0.2001953 0.913086,-0.2001953 0.556641,0 0.942383,0.234375 0.390625,0.234375 0.581055,0.649414 0.55664,-0.46875 1.015625,-0.6738281 0.458984,-0.2099609 0.981445,-0.2099609 0.898437,0 1.323242,0.546875 0.429688,0.5419921 0.429688,1.5185546 z"
     style="fill:#262626"
     id="path5100" /><path
     d="m 35.46875,-2.6318359 h -4.018555 q 0,0.5029296 0.151367,0.8789062 0.151368,0.3710938 0.41504,0.6103516 0.253906,0.23437497 0.600585,0.35156248 0.351563,0.1171875 0.771485,0.1171875 0.55664,0 1.118164,-0.21972657 0.566406,-0.22460941 0.805664,-0.43945311 h 0.04883 v 1.00097655 q -0.463867,0.1953125 -0.947266,0.32714844 -0.483398,0.13183593 -1.015625,0.13183593 -1.357421,0 -2.11914,-0.73242187 -0.761719,-0.73730465 -0.761719,-2.08984375 0,-1.3378906 0.727539,-2.1240234 0.732422,-0.7861328 1.923828,-0.7861328 1.103516,0 1.699219,0.6445312 0.600586,0.6445313 0.600586,1.8310547 z m -0.893555,-0.703125 q -0.0049,-0.7226563 -0.366211,-1.1181641 -0.356445,-0.3955078 -1.088867,-0.3955078 -0.737305,0 -1.176758,0.4345703 -0.43457,0.4345703 -0.493164,1.0791016 z"
     style="fill:#262626"
     id="path5102" /></g>
   </g>
        <g
           xml:space="preserve"
           font-size="10px"
           font-family="FreeSans"
           transform="rotate(-90,85.62969,64.60531)"
           font-style="normal"
           font-weight="normal"
           id="g2867">
    <g
   aria-label="y = u"
   id="text2861"
   style="fill:#262626"><path
     d="M 5.6201172,-7.4541016 2.4365234,0.01171875 H 1.4550781 L 2.4707031,-2.2636719 0.29785156,-7.4541016 H 1.2939453 L 2.96875,-3.4111328 4.6582031,-7.4541016 Z"
     style="fill:#262626"
     id="path5105" /><path
     d="M 14.987305,-5.8183594 H 9.1962891 v -0.78125 h 5.7910159 z m 0,2.0507813 H 9.1962891 v -0.78125 h 5.7910159 z"
     style="fill:#262626"
     id="path5107" /><path
     d="m 22.424805,-2 h -0.917969 v -0.6054688 q -0.463867,0.366211 -0.888672,0.5615235 -0.424805,0.1953125 -0.9375,0.1953125 -0.859375,0 -1.337891,-0.522461 -0.478515,-0.5273437 -0.478515,-1.5429687 v -3.5400391 h 0.917969 v 3.1054688 q 0,0.415039 0.03906,0.7128906 0.03906,0.2929688 0.166016,0.5029297 0.131836,0.2148437 0.341797,0.3125 0.20996,0.097656 0.610351,0.097656 0.356445,0 0.776367,-0.1855468 0.424805,-0.1855469 0.791016,-0.4736328 v -4.0722657 h 0.917969 z"
     style="fill:#262626"
     id="path5109" /></g>
    <g
   aria-label="e"
   id="text2863"
   style="font-size:7px;fill:#262626"><path
     d="m 25.828125,-1.8422852 h -2.812988 q 0,0.3520508 0.105957,0.6152344 0.105957,0.25976564 0.290527,0.42724611 0.177734,0.1640625 0.42041,0.24609375 0.246094,0.0820313 0.540039,0.0820313 0.389649,0 0.782715,-0.15380859 0.396485,-0.15722656 0.563965,-0.30761719 h 0.03418 v 0.70068359 q -0.324707,0.13671876 -0.663086,0.22900391 -0.338379,0.09228516 -0.710938,0.09228516 -0.950195,0 -1.483398,-0.51269532 -0.533203,-0.51611328 -0.533203,-1.46289052 0,-0.9365236 0.509277,-1.4868166 0.512695,-0.5502929 1.34668,-0.5502929 0.772461,0 1.189453,0.4511718 0.42041,0.4511719 0.42041,1.2817383 z m -0.625488,-0.4921875 q -0.0034,-0.5058593 -0.256348,-0.7827148 -0.249512,-0.2768555 -0.762207,-0.2768555 -0.516113,0 -0.82373,0.3041992 -0.3042,0.3041993 -0.345215,0.7553711 z"
     style="font-size:7px;fill:#262626"
     id="path5112" /></g>
    <g
   aria-label="2"
   id="text2865"
   style="fill:#262626"><path
     d="m 31.708008,-2 h -4.921875 v -1.0205078 q 0.512695,-0.4394531 1.02539,-0.8789063 0.517579,-0.4394531 0.961914,-0.8740234 0.9375,-0.9082031 1.28418,-1.4404297 0.34668,-0.5371094 0.34668,-1.1572265 0,-0.5664063 -0.375977,-0.8837891 -0.371093,-0.3222656 -1.040039,-0.3222656 -0.444336,0 -0.961914,0.15625 -0.517578,0.15625 -1.010742,0.4785156 h -0.04883 v -1.0253906 q 0.34668,-0.1708985 0.922851,-0.3125 0.581055,-0.1416016 1.123047,-0.1416016 1.118164,0 1.75293,0.5419922 0.634766,0.5371094 0.634766,1.4599609 0,0.4150391 -0.107422,0.7763672 -0.102539,0.3564453 -0.307617,0.678711 -0.19043,0.3027343 -0.449219,0.5957031 -0.253906,0.2929687 -0.620117,0.649414 -0.522461,0.5126954 -1.079102,0.9960938 -0.556641,0.4785156 -1.040039,0.8886719 h 3.911133 z"
     style="fill:#262626"
     id="path5115" /></g>
   </g>
        <path
           id="polyline2869"
           style="fill:none;stroke:#000000;stroke-width:0.5;stroke-linejoin:round"
           d="M 49.0294,134.235 78.2584,96.1287 107.487,200.23 136.716,47.2191 165.946,219.973 195.175,53.3301 224.404,192.62 253.633,91.4684 l 29.229,64.5236 29.229,-32.528 29.229,10.771" />
        <path
           id="polyline2871"
           style="fill:none;stroke:#0000ff;stroke-width:0.5;stroke-linejoin:round"
           d="m 49.0294,134.235 29.229,-0.472 29.2286,-0.425 29.229,-0.338 29.23,-0.217 29.229,-0.075 29.229,0.075 29.229,0.217 29.229,0.338 29.229,0.425 29.229,0.472" />
      </g>
    </g>
  </g>
</svg>
