<?xml version="1.0" encoding="UTF-8" standalone="no"?>
<!-- Created with Inkscape (http://www.inkscape.org/) -->

<svg
   width="810mm"
   height="170mm"
   viewBox="0 0 810 170"
   version="1.1"
   id="svg5"
   inkscape:version="1.1.1 (3bf5ae0d25, 2021-09-20)"
   sodipodi:docname="soln_top_810w.svg"
   xmlns:inkscape="http://www.inkscape.org/namespaces/inkscape"
   xmlns:sodipodi="http://sodipodi.sourceforge.net/DTD/sodipodi-0.dtd"
   xmlns="http://www.w3.org/2000/svg"
   xmlns:svg="http://www.w3.org/2000/svg">
  <sodipodi:namedview
     id="namedview7"
     pagecolor="#ffffff"
     bordercolor="#666666"
     borderopacity="1.0"
     inkscape:pageshadow="2"
     inkscape:pageopacity="0.0"
     inkscape:pagecheckerboard="0"
     inkscape:document-units="mm"
     showgrid="false"
     width="1000mm"
     inkscape:zoom="0.5"
     inkscape:cx="1748"
     inkscape:cy="561"
     inkscape:window-width="3739"
     inkscape:window-height="2123"
     inkscape:window-x="101"
     inkscape:window-y="0"
     inkscape:window-maximized="1"
     inkscape:current-layer="layer1" />
  <defs
     id="defs2" />
  <g
     inkscape:label="Layer 1"
     inkscape:groupmode="layer"
     id="layer1">
    <g
       transform="matrix(0.03125084,0,0,-0.03265675,-2.0923472,165.25876)"
       fill="#000000"
       stroke="none"
       id="g841">
      <path
         d="m 2060,4574 c 0,-55 0,-55 -22,-40 -23,17 -55,20 -83,10 -59,-23 -59,-195 0,-218 28,-10 60,-7 81,9 25,19 34,19 34,0 0,-8 7,-15 15,-15 13,0 15,24 15,155 0,148 -1,155 -20,155 -18,0 -20,-7 -20,-56 z m -16,-70 c 22,-21 21,-111 -1,-136 -20,-22 -56,-23 -77,-2 -18,18 -22,104 -6,135 13,23 62,26 84,3 z"
         id="path445" />
      <path
         d="m 2160,4609 c 0,-14 5,-19 17,-17 26,5 29,38 4,38 -15,0 -21,-6 -21,-21 z"
         id="path447" />
      <path
         d="m 2288,4619 c -11,-6 -18,-22 -18,-39 0,-20 -5,-30 -15,-30 -8,0 -15,-7 -15,-15 0,-8 7,-15 15,-15 12,0 15,-18 15,-100 0,-93 1,-100 20,-100 19,0 20,7 20,100 v 100 h 35 35 v -100 c 0,-93 1,-100 20,-100 19,0 20,7 20,100 0,93 1,100 20,100 11,0 20,7 20,15 0,8 -9,15 -20,15 -15,0 -20,7 -20,25 0,18 5,25 20,25 11,0 20,7 20,15 0,17 -32,20 -61,5 -12,-7 -19,-21 -19,-40 0,-28 -3,-30 -35,-30 -31,0 -35,3 -35,25 0,18 5,25 20,25 11,0 20,7 20,15 0,17 -36,20 -62,4 z"
         id="path449" />
      <path
         d="m 2530,4584 c -34,-54 -45,-112 -37,-196 7,-74 50,-151 87,-157 24,-3 24,-2 8,16 -77,85 -77,281 -1,365 15,17 15,18 -6,18 -15,0 -31,-14 -51,-46 z"
         id="path451" />
      <path
         d="m 3803,4568 c 28,-53 32,-71 32,-138 0,-67 -4,-85 -32,-139 -26,-50 -29,-62 -16,-59 29,5 73,79 84,143 15,78 -1,158 -42,214 -47,66 -63,52 -26,-21 z"
         id="path453" />
      <path
         d="m 5500,4574 c 0,-55 0,-55 -22,-40 -23,17 -55,20 -83,10 -59,-23 -59,-195 0,-218 28,-10 60,-7 81,9 25,19 34,19 34,0 0,-8 7,-15 15,-15 13,0 15,24 15,155 0,148 -1,155 -20,155 -18,0 -20,-7 -20,-56 z m -16,-70 c 22,-21 21,-111 -1,-136 -20,-22 -56,-23 -77,-2 -18,18 -22,104 -6,135 13,23 62,26 84,3 z"
         id="path455" />
      <path
         d="m 5600,4609 c 0,-14 5,-19 17,-17 26,5 29,38 4,38 -15,0 -21,-6 -21,-21 z"
         id="path457" />
      <path
         d="m 5728,4619 c -11,-6 -18,-22 -18,-39 0,-20 -5,-30 -15,-30 -8,0 -15,-7 -15,-15 0,-8 7,-15 15,-15 12,0 15,-18 15,-100 0,-93 1,-100 20,-100 19,0 20,7 20,100 v 100 h 35 35 v -100 c 0,-93 1,-100 20,-100 19,0 20,7 20,100 0,93 1,100 20,100 11,0 20,7 20,15 0,8 -9,15 -20,15 -15,0 -20,7 -20,25 0,18 5,25 20,25 11,0 20,7 20,15 0,17 -32,20 -61,5 -12,-7 -19,-21 -19,-40 0,-28 -3,-30 -35,-30 -31,0 -35,3 -35,25 0,18 5,25 20,25 11,0 20,7 20,15 0,17 -36,20 -62,4 z"
         id="path459" />
      <path
         d="m 5970,4584 c -34,-54 -45,-112 -37,-196 7,-74 50,-151 87,-157 24,-3 24,-2 8,16 -77,85 -77,281 -1,365 15,17 15,18 -6,18 -15,0 -31,-14 -51,-46 z"
         id="path461" />
      <path
         d="m 6763,4568 c 28,-53 32,-71 32,-138 0,-67 -4,-85 -32,-139 -26,-50 -29,-62 -16,-59 29,5 73,79 84,143 15,78 -1,158 -42,214 -47,66 -63,52 -26,-21 z"
         id="path463" />
      <path
         d="m 11480,4609 c 0,-14 5,-19 17,-17 26,5 29,38 4,38 -15,0 -21,-6 -21,-21 z"
         id="path465" />
      <path
         d="m 11860,4584 c -34,-54 -45,-112 -37,-196 7,-74 50,-151 87,-157 24,-3 24,-2 8,16 -77,85 -77,281 -1,365 15,17 15,18 -6,18 -15,0 -31,-14 -51,-46 z"
         id="path467" />
      <path
         d="m 13053,4568 c 28,-53 32,-71 32,-138 0,-67 -4,-85 -32,-139 -26,-50 -29,-62 -16,-59 29,5 73,79 84,143 15,78 -1,158 -42,214 -47,66 -63,52 -26,-21 z"
         id="path469" />
      <path
         d="m 1830,4596 c 0,-36 14,-76 26,-76 10,0 14,13 14,45 0,38 -3,45 -20,45 -11,0 -20,-6 -20,-14 z"
         id="path471" />
      <path
         d="m 3589,4595 c -31,-17 -44,-44 -30,-58 7,-7 17,-2 31,16 28,35 73,37 95,3 22,-33 12,-51 -72,-131 -101,-97 -99,-105 27,-105 82,0 100,3 100,15 0,12 -16,15 -82,15 l -83,1 78,73 c 67,64 77,77 77,108 0,22 -7,41 -19,52 -27,24 -90,30 -122,11 z"
         id="path473" />
      <path
         d="m 4467,4585 c -20,-14 -37,-33 -37,-41 0,-13 5,-12 29,5 16,12 32,21 35,21 3,0 6,-49 6,-110 v -110 h -35 c -24,0 -35,-5 -35,-15 0,-12 17,-15 90,-15 73,0 90,3 90,15 0,10 -11,15 -35,15 h -35 v 130 c 0,148 -3,152 -73,105 z"
         id="path475" />
      <path
         d="m 4703,4598 c -38,-18 -56,-72 -50,-152 4,-63 8,-73 36,-98 41,-37 81,-37 123,1 29,26 33,35 36,99 3,51 0,79 -12,104 -25,52 -81,71 -133,46 z m 92,-38 c 14,-16 19,-37 19,-88 1,-84 -19,-122 -64,-122 -43,0 -65,39 -65,115 0,75 22,115 64,115 15,0 36,-9 46,-20 z"
         id="path477" />
      <path
         d="m 4943,4598 c -38,-18 -56,-72 -50,-152 4,-63 8,-73 36,-98 41,-37 81,-37 123,1 29,26 33,35 36,99 3,51 0,79 -12,104 -25,52 -81,71 -133,46 z m 92,-38 c 14,-16 19,-37 19,-88 1,-84 -19,-122 -64,-122 -43,0 -65,39 -65,115 0,75 22,115 64,115 15,0 36,-9 46,-20 z"
         id="path479" />
      <path
         d="m 5270,4596 c 0,-36 14,-76 26,-76 10,0 14,13 14,45 0,38 -3,45 -20,45 -11,0 -20,-6 -20,-14 z"
         id="path481" />
      <path
         d="m 7386,4573 c -3,-21 -6,-55 -6,-77 0,-37 1,-38 28,-31 93,23 122,12 122,-49 0,-60 -68,-88 -110,-46 -21,21 -50,27 -50,10 0,-20 39,-49 75,-56 102,-19 166,86 96,157 -31,31 -61,36 -107,19 -25,-10 -26,-9 -20,12 3,13 6,33 6,46 0,21 4,22 65,22 51,0 65,3 65,15 0,12 -15,15 -79,15 h -78 z"
         id="path483" />
      <path
         d="m 7663,4598 c -38,-18 -56,-72 -50,-152 4,-63 8,-73 36,-98 41,-37 81,-37 123,1 29,26 33,35 36,99 3,51 0,79 -12,104 -25,52 -81,71 -133,46 z m 92,-38 c 14,-16 19,-37 19,-88 1,-84 -19,-122 -64,-122 -43,0 -65,39 -65,115 0,75 22,115 64,115 15,0 36,-9 46,-20 z"
         id="path485" />
      <path
         d="m 7903,4598 c -38,-18 -56,-72 -50,-152 4,-63 8,-73 36,-98 41,-37 81,-37 123,1 29,26 33,35 36,99 3,51 0,79 -12,104 -25,52 -81,71 -133,46 z m 92,-38 c 14,-16 19,-37 19,-88 1,-84 -19,-122 -64,-122 -43,0 -65,39 -65,115 0,75 22,115 64,115 15,0 36,-9 46,-20 z"
         id="path487" />
      <path
         d="m 8143,4598 c -38,-18 -56,-72 -50,-152 4,-63 8,-73 36,-98 41,-37 81,-37 123,1 29,26 33,35 36,99 3,51 0,79 -12,104 -25,52 -81,71 -133,46 z m 92,-38 c 14,-16 19,-37 19,-88 1,-84 -19,-122 -64,-122 -43,0 -65,39 -65,115 0,75 22,115 64,115 15,0 36,-9 46,-20 z"
         id="path489" />
      <path
         d="m 8383,4598 c -38,-18 -56,-72 -50,-152 4,-63 8,-73 36,-98 41,-37 81,-37 123,1 29,26 33,35 36,99 3,51 0,79 -12,104 -25,52 -81,71 -133,46 z m 92,-38 c 14,-16 19,-37 19,-88 1,-84 -19,-122 -64,-122 -43,0 -65,39 -65,115 0,75 22,115 64,115 15,0 36,-9 46,-20 z"
         id="path491" />
      <path
         d="m 9731,4518 c -90,-127 -90,-128 -2,-128 h 71 v -35 c 0,-24 5,-35 15,-35 10,0 15,11 15,35 0,31 3,35 25,35 16,0 25,6 25,15 0,9 -9,15 -25,15 -25,0 -25,0 -25,95 0,125 -13,126 -99,3 z m 66,-95 c -3,-2 -26,-3 -51,-1 l -47,3 48,69 48,68 3,-67 c 2,-37 1,-69 -1,-72 z"
         id="path493" />
      <path
         d="m 9963,4598 c -38,-18 -56,-72 -50,-152 4,-63 8,-73 36,-98 41,-37 81,-37 123,1 29,26 33,35 36,99 3,51 0,79 -12,104 -25,52 -81,71 -133,46 z m 92,-38 c 14,-16 19,-37 19,-88 1,-84 -19,-122 -64,-122 -43,0 -65,39 -65,115 0,75 22,115 64,115 15,0 36,-9 46,-20 z"
         id="path495" />
      <path
         d="m 10203,4598 c -38,-18 -56,-72 -50,-152 4,-63 8,-73 36,-98 41,-37 81,-37 123,1 29,26 33,35 36,99 3,51 0,79 -12,104 -25,52 -81,71 -133,46 z m 92,-38 c 14,-16 19,-37 19,-88 1,-84 -19,-122 -64,-122 -43,0 -65,39 -65,115 0,75 22,115 64,115 15,0 36,-9 46,-20 z"
         id="path497" />
      <path
         d="m 10443,4598 c -38,-18 -56,-72 -50,-152 4,-63 8,-73 36,-98 41,-37 81,-37 123,1 29,26 33,35 36,99 3,51 0,79 -12,104 -25,52 -81,71 -133,46 z m 92,-38 c 14,-16 19,-37 19,-88 1,-84 -19,-122 -64,-122 -43,0 -65,39 -65,115 0,75 22,115 64,115 15,0 36,-9 46,-20 z"
         id="path499" />
      <path
         d="m 10683,4598 c -38,-18 -56,-72 -50,-152 4,-63 8,-73 36,-98 41,-37 81,-37 123,1 29,26 33,35 36,99 3,51 0,79 -12,104 -25,52 -81,71 -133,46 z m 92,-38 c 14,-16 19,-37 19,-88 1,-84 -19,-122 -64,-122 -43,0 -65,39 -65,115 0,75 22,115 64,115 15,0 36,-9 46,-20 z"
         id="path501" />
      <path
         d="m 10923,4598 c -38,-18 -56,-72 -50,-152 4,-63 8,-73 36,-98 41,-37 81,-37 123,1 29,26 33,35 36,99 3,51 0,79 -12,104 -25,52 -81,71 -133,46 z m 92,-38 c 14,-16 19,-37 19,-88 1,-84 -19,-122 -64,-122 -43,0 -65,39 -65,115 0,75 22,115 64,115 15,0 36,-9 46,-20 z"
         id="path503" />
      <path
         d="m 12007,4585 c -20,-14 -37,-33 -37,-41 0,-13 5,-12 29,5 16,12 32,21 35,21 3,0 6,-49 6,-110 v -110 h -35 c -24,0 -35,-5 -35,-15 0,-12 17,-15 90,-15 73,0 90,3 90,15 0,10 -11,15 -35,15 h -35 v 130 c 0,148 -3,152 -73,105 z"
         id="path505" />
      <path
         d="m 12243,4598 c -38,-18 -56,-72 -50,-152 4,-63 8,-73 36,-98 41,-37 81,-37 123,1 29,26 33,35 36,99 3,51 0,79 -12,104 -25,52 -81,71 -133,46 z m 92,-38 c 14,-16 19,-37 19,-88 1,-84 -19,-122 -64,-122 -43,0 -65,39 -65,115 0,75 22,115 64,115 15,0 36,-9 46,-20 z"
         id="path507" />
      <path
         d="m 12483,4598 c -38,-18 -56,-72 -50,-152 4,-63 8,-73 36,-98 41,-37 81,-37 123,1 29,26 33,35 36,99 3,51 0,79 -12,104 -25,52 -81,71 -133,46 z m 92,-38 c 14,-16 19,-37 19,-88 1,-84 -19,-122 -64,-122 -43,0 -65,39 -65,115 0,75 22,115 64,115 15,0 36,-9 46,-20 z"
         id="path509" />
      <path
         d="m 4130,4525 v -45 h -45 c -33,0 -45,-4 -45,-15 0,-11 12,-15 45,-15 h 45 v -45 c 0,-33 4,-45 15,-45 11,0 15,12 15,45 v 45 h 45 c 33,0 45,4 45,15 0,11 -12,15 -45,15 h -45 v 45 c 0,33 -4,45 -15,45 -11,0 -15,-12 -15,-45 z"
         id="path511" />
      <path
         d="m 7090,4525 v -45 h -45 c -33,0 -45,-4 -45,-15 0,-11 12,-15 45,-15 h 45 v -45 c 0,-33 4,-45 15,-45 11,0 15,12 15,45 v 45 h 45 c 33,0 45,4 45,15 0,11 -12,15 -45,15 h -45 v 45 c 0,33 -4,45 -15,45 -11,0 -15,-12 -15,-45 z"
         id="path513" />
      <path
         d="m 1164,4536 c -50,-22 -68,-94 -40,-160 24,-57 119,-73 161,-26 22,24 1,38 -24,16 -39,-36 -111,-8 -111,42 0,21 5,22 80,22 87,0 89,1 69,59 -11,32 -53,61 -86,61 -10,-1 -32,-7 -49,-14 z m 94,-28 c 7,-7 12,-20 12,-30 0,-15 -9,-18 -60,-18 -64,0 -76,12 -44,44 18,19 75,21 92,4 z"
         id="path515" />
      <path
         d="m 1384,4527 c -27,-23 -29,-31 -29,-92 0,-61 3,-69 28,-91 34,-29 66,-31 101,-3 l 26,20 v -65 c 0,-52 3,-66 15,-66 13,0 15,24 15,160 0,136 -2,160 -15,160 -9,0 -15,-9 -15,-22 0,-20 -1,-20 -18,-5 -33,30 -75,32 -108,4 z m 104,-19 c 20,-25 24,-83 8,-121 -13,-33 -19,-37 -50,-37 -43,0 -56,20 -56,85 0,64 13,85 54,85 19,0 38,-6 44,-12 z"
         id="path517" />
      <path
         d="m 1610,4530 c 0,-13 7,-20 20,-20 13,0 20,7 20,20 0,13 -7,20 -20,20 -13,0 -20,-7 -20,-20 z"
         id="path519" />
      <path
         d="m 2160,4435 c 0,-108 1,-115 20,-115 19,0 20,7 20,115 0,108 -1,115 -20,115 -19,0 -20,-7 -20,-115 z"
         id="path521" />
      <path
         d="m 2610,4542 c 0,-5 18,-53 40,-107 22,-54 40,-106 40,-114 0,-26 -29,-61 -51,-61 -10,0 -19,-7 -19,-15 0,-23 38,-18 64,8 23,23 131,285 122,294 -15,15 -34,-14 -60,-91 -16,-47 -33,-86 -37,-86 -5,0 -9,5 -9,10 0,29 -63,170 -76,170 -8,0 -14,-4 -14,-8 z"
         id="path523" />
      <path
         d="m 3080,4544 c 0,-4 16,-29 35,-56 l 35,-49 -40,-59 c -33,-49 -37,-60 -23,-60 10,0 30,19 46,45 16,25 32,45 35,45 4,0 20,-20 35,-45 17,-27 36,-45 47,-45 16,0 12,10 -22,60 l -42,60 31,42 c 45,65 46,68 26,68 -11,-1 -30,-20 -46,-47 l -28,-47 -31,47 c -17,26 -37,47 -44,47 -8,0 -14,-3 -14,-6 z"
         id="path525" />
      <path
         d="m 5600,4435 c 0,-108 1,-115 20,-115 19,0 20,7 20,115 0,108 -1,115 -20,115 -19,0 -20,-7 -20,-115 z"
         id="path527" />
      <path
         d="m 6050,4542 c 0,-5 18,-53 40,-107 22,-54 40,-106 40,-114 0,-26 -29,-61 -51,-61 -10,0 -19,-7 -19,-15 0,-23 38,-18 64,8 23,23 131,285 122,294 -15,15 -34,-14 -60,-91 -16,-47 -33,-86 -37,-86 -5,0 -9,5 -9,10 0,29 -63,170 -76,170 -8,0 -14,-4 -14,-8 z"
         id="path529" />
      <path
         d="m 6520,4544 c 0,-4 16,-29 35,-56 l 35,-49 -40,-59 c -33,-49 -37,-60 -23,-60 10,0 30,19 46,45 16,25 32,45 35,45 4,0 20,-20 35,-45 17,-27 36,-45 47,-45 16,0 12,10 -22,60 l -42,60 31,42 c 45,65 46,68 26,68 -11,-1 -30,-20 -46,-47 l -28,-47 -31,47 c -17,26 -37,47 -44,47 -8,0 -14,-3 -14,-6 z"
         id="path531" />
      <path
         d="m 8700,4542 c 0,-5 18,-53 40,-107 22,-54 40,-106 40,-114 0,-26 -29,-61 -51,-61 -10,0 -19,-7 -19,-15 0,-23 38,-18 64,8 23,23 131,285 122,294 -15,15 -34,-14 -60,-91 -16,-47 -33,-86 -37,-86 -5,0 -9,5 -9,10 0,29 -63,170 -76,170 -8,0 -14,-4 -14,-8 z"
         id="path533" />
      <path
         d="m 11283,4538 c -13,-6 -25,-19 -28,-29 -11,-35 5,-57 53,-74 70,-25 77,-30 77,-56 0,-21 -5,-24 -41,-27 -27,-2 -45,2 -54,13 -17,21 -42,19 -38,-2 8,-43 107,-57 152,-22 52,41 27,88 -63,115 -44,13 -52,18 -49,37 2,17 11,23 39,25 23,2 42,-3 52,-12 20,-20 37,-20 37,-2 0,38 -86,59 -137,34 z"
         id="path535" />
      <path
         d="m 11480,4435 c 0,-108 1,-115 20,-115 19,0 20,7 20,115 0,108 -1,115 -20,115 -19,0 -20,-7 -20,-115 z"
         id="path537" />
      <path
         d="m 11580,4435 c 0,-108 1,-115 20,-115 18,0 20,7 20,83 0,95 15,121 67,115 l 28,-3 3,-97 c 2,-90 4,-98 22,-98 19,0 20,7 20,95 0,82 -3,98 -20,115 -24,24 -67,26 -98,4 -20,-14 -23,-14 -28,0 -3,9 -12,16 -20,16 -11,0 -14,-23 -14,-115 z"
         id="path539" />
      <path
         d="m 12810,4544 c 0,-4 16,-29 35,-56 l 35,-49 -40,-59 c -33,-49 -37,-60 -23,-60 10,0 30,19 46,45 16,25 32,45 35,45 4,0 20,-20 35,-45 17,-27 36,-45 47,-45 16,0 12,10 -22,60 l -42,60 31,42 c 45,65 46,68 26,68 -11,-1 -30,-20 -46,-47 l -28,-47 -31,47 c -17,26 -37,47 -44,47 -8,0 -14,-3 -14,-6 z"
         id="path541" />
      <path
         d="m 9050,4515 c 0,-12 18,-15 105,-15 87,0 105,3 105,15 0,12 -18,15 -105,15 -87,0 -105,-3 -105,-15 z"
         id="path543" />
      <path
         d="m 9420,4465 c 0,-12 18,-15 105,-15 87,0 105,3 105,15 0,12 -18,15 -105,15 -87,0 -105,-3 -105,-15 z"
         id="path545" />
      <path
         d="m 5167,4453 c -15,-15 -7,-43 13,-43 15,0 20,7 20,25 0,24 -18,34 -33,18 z"
         id="path547" />
      <path
         d="m 8607,4453 c -15,-15 -7,-43 13,-43 15,0 20,7 20,25 0,24 -18,34 -33,18 z"
         id="path549" />
      <path
         d="m 11147,4453 c -15,-15 -7,-43 13,-43 15,0 20,7 20,25 0,24 -18,34 -33,18 z"
         id="path551" />
      <path
         d="m 12707,4453 c -15,-15 -7,-43 13,-43 15,0 20,7 20,25 0,24 -18,34 -33,18 z"
         id="path553" />
      <path
         d="m 9050,4405 c 0,-12 18,-15 105,-15 87,0 105,3 105,15 0,12 -18,15 -105,15 -87,0 -105,-3 -105,-15 z"
         id="path555" />
      <path
         d="m 2860,4345 c 0,-14 4,-25 10,-25 5,0 7,-14 4,-32 -5,-31 -5,-32 10,-14 9,11 16,37 16,58 0,31 -4,38 -20,38 -15,0 -20,-7 -20,-25 z"
         id="path557" />
      <path
         d="m 3320,4345 c 0,-14 4,-25 10,-25 5,0 7,-14 4,-32 -5,-31 -5,-32 10,-14 9,11 16,37 16,58 0,31 -4,38 -20,38 -15,0 -20,-7 -20,-25 z"
         id="path559" />
      <path
         d="m 6300,4345 c 0,-14 4,-25 10,-25 5,0 7,-14 4,-32 -5,-31 -5,-32 10,-14 9,11 16,37 16,58 0,31 -4,38 -20,38 -15,0 -20,-7 -20,-25 z"
         id="path561" />
      <path
         d="m 1610,4340 c 0,-13 7,-20 20,-20 13,0 20,7 20,20 0,13 -7,20 -20,20 -13,0 -20,-7 -20,-20 z"
         id="path563" />
      <path
         d="m 1700,3860 c -24,-24 -26,-40 -5,-40 8,0 15,5 15,10 0,16 43,29 63,18 32,-16 19,-51 -38,-108 -77,-76 -74,-90 15,-90 56,0 70,3 70,15 0,12 -13,15 -57,15 h -58 l 58,55 c 44,42 57,61 57,84 0,55 -79,82 -120,41 z"
         id="path565" />
      <path
         d="m 3762,3782 c -22,-48 -22,-56 -22,-576 0,-418 3,-527 13,-523 6,2 17,-5 24,-17 17,-29 16,-7 -2,44 -22,62 -22,993 0,1065 8,27 13,50 11,52 -1,2 -12,-19 -24,-45 z"
         id="path567" />
      <path
         d="m 5120,3828 c 0,-2 7,-25 15,-52 23,-75 22,-1004 -1,-1072 -8,-25 -13,-48 -11,-51 3,-2 8,5 12,16 4,12 12,18 21,14 12,-4 14,67 14,530 0,317 -4,538 -9,542 -5,3 -12,19 -16,35 -4,16 -11,32 -16,35 -5,4 -9,5 -9,3 z"
         id="path569" />
      <path
         d="m 4320,3569 c 0,-50 0,-50 -22,-35 -32,23 -65,20 -93,-9 -20,-20 -25,-34 -25,-78 0,-91 56,-134 118,-91 20,14 22,14 22,0 0,-9 7,-16 15,-16 13,0 15,22 15,140 0,118 -2,140 -15,140 -11,0 -15,-12 -15,-51 z m -10,-75 c 25,-64 0,-124 -50,-124 -25,0 -31,5 -41,39 -9,29 -9,47 1,75 10,32 15,36 46,36 28,0 36,-5 44,-26 z"
         id="path571" />
      <path
         d="m 1570,3559 c 0,-50 0,-50 -22,-35 -32,23 -65,20 -93,-9 -20,-20 -25,-34 -25,-78 0,-91 56,-134 118,-91 20,14 22,14 22,0 0,-9 7,-16 15,-16 13,0 15,22 15,140 0,118 -2,140 -15,140 -11,0 -15,-12 -15,-51 z m -10,-75 c 25,-64 0,-124 -50,-124 -25,0 -31,5 -41,39 -9,29 -9,47 1,75 10,32 15,36 46,36 28,0 36,-5 44,-26 z"
         id="path573" />
      <path
         d="m 9590,3349 c 0,-25 33,-22 38,4 2,12 -3,17 -17,17 -15,0 -21,-6 -21,-21 z"
         id="path575" />
      <path
         d="m 10030,3324 c -34,-54 -45,-112 -37,-196 7,-74 50,-151 87,-157 24,-3 24,-2 8,16 -77,85 -77,281 -1,365 15,17 15,18 -6,18 -15,0 -31,-14 -51,-46 z"
         id="path577" />
      <path
         d="m 11343,3308 c 28,-53 32,-71 32,-138 0,-67 -4,-85 -32,-139 -26,-50 -29,-62 -16,-59 29,5 73,79 84,143 15,78 -1,158 -42,214 -47,66 -63,52 -26,-21 z"
         id="path579" />
      <path
         d="m 2973,3324 c -18,-14 -33,-32 -33,-41 0,-12 7,-10 35,7 l 35,22 v -111 -111 h -40 c -29,0 -40,-4 -40,-15 0,-12 17,-15 95,-15 78,0 95,3 95,15 0,10 -11,15 -35,15 h -35 v 130 c 0,128 0,130 -22,130 -13,0 -38,-12 -55,-26 z"
         id="path581" />
      <path
         d="m 3209,3335 c -33,-18 -49,-61 -49,-130 0,-70 16,-113 51,-130 55,-29 119,-8 138,46 16,46 14,145 -4,180 -25,47 -85,62 -136,34 z m 85,-28 c 22,-16 34,-84 25,-146 -9,-67 -58,-92 -99,-51 -16,16 -20,33 -20,95 0,62 4,79 20,95 23,23 49,26 74,7 z"
         id="path583" />
      <path
         d="m 3449,3335 c -33,-18 -49,-61 -49,-130 0,-70 16,-113 51,-130 55,-29 119,-8 138,46 16,46 14,145 -4,180 -25,47 -85,62 -136,34 z m 85,-28 c 22,-16 34,-84 25,-146 -9,-67 -58,-92 -99,-51 -16,16 -20,33 -20,95 0,62 4,79 20,95 23,23 49,26 74,7 z"
         id="path585" />
      <path
         d="m 5556,3334 c -3,-9 -6,-43 -6,-76 v -60 l 28,6 c 71,18 83,18 102,1 28,-25 27,-79 -2,-99 -31,-22 -64,-20 -88,4 -20,20 -50,27 -50,11 0,-5 9,-19 19,-32 16,-20 28,-24 76,-24 50,0 60,3 81,28 25,30 32,83 14,116 -13,26 -65,44 -105,38 l -35,-6 v 40 39 h 70 c 56,0 70,3 70,15 0,23 -165,22 -174,-1 z"
         id="path587" />
      <path
         d="m 5829,3335 c -33,-18 -49,-61 -49,-130 0,-70 16,-113 51,-130 55,-29 119,-8 138,46 16,46 14,145 -4,180 -25,47 -85,62 -136,34 z m 85,-28 c 22,-16 34,-84 25,-146 -9,-67 -58,-92 -99,-51 -16,16 -20,33 -20,95 0,62 4,79 20,95 23,23 49,26 74,7 z"
         id="path589" />
      <path
         d="m 6069,3335 c -33,-18 -49,-61 -49,-130 0,-70 16,-113 51,-130 55,-29 119,-8 138,46 16,46 14,145 -4,180 -25,47 -85,62 -136,34 z m 85,-28 c 22,-16 34,-84 25,-146 -9,-67 -58,-92 -99,-51 -16,16 -20,33 -20,95 0,62 4,79 20,95 23,23 49,26 74,7 z"
         id="path591" />
      <path
         d="m 6309,3335 c -33,-18 -49,-61 -49,-130 0,-70 16,-113 51,-130 55,-29 119,-8 138,46 16,46 14,145 -4,180 -25,47 -85,62 -136,34 z m 85,-28 c 22,-16 34,-84 25,-146 -9,-67 -58,-92 -99,-51 -16,16 -20,33 -20,95 0,62 4,79 20,95 23,23 49,26 74,7 z"
         id="path593" />
      <path
         d="m 6549,3335 c -33,-18 -49,-61 -49,-130 0,-70 16,-113 51,-130 55,-29 119,-8 138,46 16,46 14,145 -4,180 -25,47 -85,62 -136,34 z m 85,-28 c 22,-16 34,-84 25,-146 -9,-67 -58,-92 -99,-51 -16,16 -20,33 -20,95 0,62 4,79 20,95 23,23 49,26 74,7 z"
         id="path595" />
      <path
         d="m 7838,3255 c -38,-53 -68,-102 -68,-110 0,-12 15,-15 70,-15 h 70 v -35 c 0,-28 4,-35 20,-35 16,0 20,7 20,35 0,28 4,35 20,35 11,0 20,7 20,15 0,8 -9,15 -20,15 -19,0 -20,7 -20,95 0,92 -1,95 -22,95 -17,0 -40,-24 -90,-95 z m 69,-92 c -3,-2 -26,-3 -51,-1 l -46,3 47,67 48,66 3,-65 c 2,-36 1,-67 -1,-70 z"
         id="path597" />
      <path
         d="m 8069,3335 c -33,-18 -49,-61 -49,-130 0,-70 16,-113 51,-130 55,-29 119,-8 138,46 16,46 14,145 -4,180 -25,47 -85,62 -136,34 z m 85,-28 c 22,-16 34,-84 25,-146 -9,-67 -58,-92 -99,-51 -16,16 -20,33 -20,95 0,62 4,79 20,95 23,23 49,26 74,7 z"
         id="path599" />
      <path
         d="m 8309,3335 c -33,-18 -49,-61 -49,-130 0,-70 16,-113 51,-130 55,-29 119,-8 138,46 16,46 14,145 -4,180 -25,47 -85,62 -136,34 z m 85,-28 c 22,-16 34,-84 25,-146 -9,-67 -58,-92 -99,-51 -16,16 -20,33 -20,95 0,62 4,79 20,95 23,23 49,26 74,7 z"
         id="path601" />
      <path
         d="m 8549,3335 c -33,-18 -49,-61 -49,-130 0,-70 16,-113 51,-130 55,-29 119,-8 138,46 16,46 14,145 -4,180 -25,47 -85,62 -136,34 z m 85,-28 c 22,-16 34,-84 25,-146 -9,-67 -58,-92 -99,-51 -16,16 -20,33 -20,95 0,62 4,79 20,95 23,23 49,26 74,7 z"
         id="path603" />
      <path
         d="m 8789,3335 c -33,-18 -49,-61 -49,-130 0,-70 16,-113 51,-130 55,-29 119,-8 138,46 16,46 14,145 -4,180 -25,47 -85,62 -136,34 z m 85,-28 c 22,-16 34,-84 25,-146 -9,-67 -58,-92 -99,-51 -16,16 -20,33 -20,95 0,62 4,79 20,95 23,23 49,26 74,7 z"
         id="path605" />
      <path
         d="m 9029,3335 c -33,-18 -49,-61 -49,-130 0,-70 16,-113 51,-130 55,-29 119,-8 138,46 16,46 14,145 -4,180 -25,47 -85,62 -136,34 z m 85,-28 c 22,-16 34,-84 25,-146 -9,-67 -58,-92 -99,-51 -16,16 -20,33 -20,95 0,62 4,79 20,95 23,23 49,26 74,7 z"
         id="path607" />
      <path
         d="m 10233,3324 c -18,-14 -33,-32 -33,-41 0,-12 7,-10 35,7 l 35,22 v -111 -111 h -40 c -29,0 -40,-4 -40,-15 0,-12 17,-15 95,-15 78,0 95,3 95,15 0,10 -11,15 -35,15 h -35 v 130 c 0,128 0,130 -22,130 -13,0 -38,-12 -55,-26 z"
         id="path609" />
      <path
         d="m 10469,3335 c -33,-18 -49,-61 -49,-130 0,-70 16,-113 51,-130 55,-29 119,-8 138,46 16,46 14,145 -4,180 -25,47 -85,62 -136,34 z m 85,-28 c 22,-16 34,-84 25,-146 -9,-67 -58,-92 -99,-51 -16,16 -20,33 -20,95 0,62 4,79 20,95 23,23 49,26 74,7 z"
         id="path611" />
      <path
         d="m 10709,3335 c -33,-18 -49,-61 -49,-130 0,-70 16,-113 51,-130 55,-29 119,-8 138,46 16,46 14,145 -4,180 -25,47 -85,62 -136,34 z m 85,-28 c 22,-16 34,-84 25,-146 -9,-67 -58,-92 -99,-51 -16,16 -20,33 -20,95 0,62 4,79 20,95 23,23 49,26 74,7 z"
         id="path613" />
      <path
         d="m 2710,3265 v -45 h -45 c -33,0 -45,-4 -45,-15 0,-11 12,-15 45,-15 h 45 v -45 c 0,-33 4,-45 15,-45 11,0 15,12 15,45 v 45 h 45 c 33,0 45,4 45,15 0,11 -12,15 -45,15 h -45 v 45 c 0,33 -4,45 -15,45 -11,0 -15,-12 -15,-45 z"
         id="path615" />
      <path
         d="m 5330,3265 v -45 h -45 c -33,0 -45,-4 -45,-15 0,-11 12,-15 45,-15 h 45 v -45 c 0,-33 4,-45 15,-45 11,0 15,12 15,45 v 45 h 45 c 33,0 45,4 45,15 0,11 -12,15 -45,15 h -45 v 45 c 0,33 -4,45 -15,45 -11,0 -15,-12 -15,-45 z"
         id="path617" />
      <path
         d="m 4880,3287 c 0,-8 9,-60 21,-115 19,-96 19,-102 3,-127 -9,-14 -30,-29 -46,-32 -36,-7 -37,-33 -2,-33 38,0 73,43 159,193 67,115 72,127 52,127 -17,0 -32,-19 -72,-93 l -49,-92 -16,90 c -12,69 -20,91 -33,93 -10,2 -17,-3 -17,-11 z"
         id="path619" />
      <path
         d="m 2340,3277 c 0,-8 9,-60 21,-115 19,-96 19,-102 3,-127 -9,-14 -30,-29 -46,-32 -36,-7 -37,-33 -2,-33 38,0 73,43 159,193 67,115 72,127 52,127 -17,0 -32,-19 -72,-93 l -49,-92 -16,90 c -12,69 -20,91 -33,93 -10,2 -17,-3 -17,-11 z"
         id="path621" />
      <path
         d="m 6890,3277 c 0,-8 9,-60 21,-115 19,-96 19,-102 3,-127 -9,-14 -30,-29 -46,-32 -36,-7 -37,-33 -2,-33 38,0 73,43 159,193 67,115 72,127 52,127 -17,0 -32,-19 -72,-93 l -49,-92 -16,90 c -12,69 -20,91 -33,93 -10,2 -17,-3 -17,-11 z"
         id="path623" />
      <path
         d="m 9395,3278 c -64,-36 -42,-86 52,-117 40,-13 48,-20 48,-41 0,-22 -5,-25 -41,-28 -27,-2 -45,2 -54,13 -16,19 -40,20 -40,1 0,-38 94,-61 143,-35 28,15 37,28 37,55 0,29 -28,52 -89,70 -44,13 -52,18 -49,37 2,17 11,23 39,25 23,2 42,-3 52,-12 20,-20 37,-20 37,-2 0,38 -89,60 -135,34 z"
         id="path625" />
      <path
         d="m 9590,3175 c 0,-108 1,-115 20,-115 19,0 20,7 20,115 0,108 -1,115 -20,115 -19,0 -20,-7 -20,-115 z"
         id="path627" />
      <path
         d="m 9690,3175 c 0,-108 1,-115 20,-115 18,0 20,7 20,83 0,95 15,121 67,115 l 28,-3 3,-97 c 2,-90 4,-98 22,-98 19,0 20,7 20,99 0,92 -2,101 -22,115 -12,9 -34,16 -48,16 -14,0 -36,-7 -48,-16 -20,-14 -22,-14 -22,0 0,9 -9,16 -20,16 -19,0 -20,-7 -20,-115 z"
         id="path629" />
      <path
         d="m 11075,3240 c 14,-27 25,-54 25,-61 0,-6 -21,-34 -46,-63 -38,-42 -43,-52 -29,-55 12,-2 32,14 58,44 l 40,47 24,-46 c 16,-31 30,-46 43,-46 19,0 19,4 -10,60 l -30,60 45,49 c 50,53 53,61 28,61 -10,0 -34,-19 -54,-42 l -36,-43 -22,43 c -14,28 -28,42 -41,42 -20,0 -19,-2 5,-50 z"
         id="path631" />
      <path
         d="m 7170,3255 c 0,-12 18,-15 105,-15 87,0 105,3 105,15 0,12 -18,15 -105,15 -87,0 -105,-3 -105,-15 z"
         id="path633" />
      <path
         d="m 7480,3205 c 0,-12 18,-15 105,-15 87,0 105,3 105,15 0,12 -18,15 -105,15 -87,0 -105,-3 -105,-15 z"
         id="path635" />
      <path
         d="m 3817,3173 c -4,-3 -7,-10 -7,-15 0,-4 208,-7 462,-6 358,2 462,6 466,16 3,9 -93,12 -455,12 -253,0 -463,-3 -466,-7 z"
         id="path637" />
      <path
         d="m 1067,3163 c -4,-3 -7,-10 -7,-15 0,-4 255,-7 567,-6 442,2 567,6 571,16 3,9 -114,12 -560,12 -311,0 -568,-3 -571,-7 z"
         id="path639" />
      <path
         d="m 7170,3145 c 0,-12 18,-15 105,-15 87,0 105,3 105,15 0,12 -18,15 -105,15 -87,0 -105,-3 -105,-15 z"
         id="path641" />
      <path
         d="m 1870,2980 c -24,-24 -26,-40 -5,-40 8,0 15,5 15,10 0,16 43,29 63,18 32,-16 19,-51 -38,-108 -77,-76 -74,-90 15,-90 56,0 70,3 70,15 0,12 -13,15 -57,15 h -58 l 58,55 c 44,42 57,61 57,84 0,55 -79,82 -120,41 z"
         id="path643" />
      <path
         d="m 4160,2949 c 0,-50 0,-50 -22,-35 -32,23 -65,20 -93,-9 -20,-20 -25,-34 -25,-78 0,-91 56,-134 118,-91 20,14 22,14 22,0 0,-9 7,-16 15,-16 13,0 15,22 15,140 0,118 -2,140 -15,140 -11,0 -15,-12 -15,-51 z m -10,-75 c 25,-64 0,-124 -50,-124 -25,0 -31,5 -41,39 -9,29 -9,47 1,75 10,32 15,36 46,36 28,0 36,-5 44,-26 z"
         id="path645" />
      <path
         d="m 4405,2880 26,-51 -46,-52 c -34,-39 -41,-53 -30,-55 9,-2 33,16 55,40 l 39,43 18,-42 c 11,-27 24,-43 36,-43 22,0 22,1 -8,60 l -26,50 47,50 c 39,42 43,50 26,50 -12,0 -36,-18 -56,-41 l -35,-42 -17,42 c -11,28 -22,41 -35,41 -18,0 -18,-3 6,-50 z"
         id="path647" />
      <path
         d="m 1410,2679 c 0,-50 0,-50 -22,-35 -32,23 -65,20 -93,-9 -20,-20 -25,-34 -25,-78 0,-91 56,-134 118,-91 20,14 22,14 22,0 0,-9 7,-16 15,-16 13,0 15,22 15,140 0,118 -2,140 -15,140 -11,0 -15,-12 -15,-51 z m -10,-75 c 25,-64 0,-124 -50,-124 -25,0 -31,5 -41,39 -9,29 -9,47 1,75 10,32 15,36 46,36 28,0 36,-5 44,-26 z"
         id="path649" />
      <path
         d="m 1655,2610 26,-51 -46,-52 c -34,-39 -41,-53 -30,-55 9,-2 33,16 55,40 l 39,43 18,-42 c 11,-27 24,-43 36,-43 22,0 22,1 -8,60 l -26,50 47,50 c 39,42 43,50 26,50 -12,0 -36,-18 -56,-41 l -35,-42 -17,42 c -11,28 -22,41 -35,41 -18,0 -18,-3 6,-50 z"
         id="path651" />
      <path
         d="m 1580,1845 c 0,-131 2,-155 15,-155 13,0 15,24 15,155 0,131 -2,155 -15,155 -13,0 -15,-24 -15,-155 z"
         id="path653" />
      <path
         d="m 2540,1944 c 0,-55 0,-55 -22,-40 -42,30 -91,19 -113,-25 -30,-57 -11,-167 30,-183 28,-10 60,-7 81,9 25,19 34,19 34,0 0,-8 7,-15 15,-15 13,0 15,24 15,155 0,148 -1,155 -20,155 -18,0 -20,-7 -20,-56 z m -16,-70 c 22,-21 21,-111 -1,-136 -20,-22 -56,-23 -77,-2 -18,18 -22,104 -6,135 13,23 62,26 84,3 z"
         id="path655" />
      <path
         d="m 3160,1954 c -34,-54 -45,-112 -37,-196 7,-74 50,-151 87,-157 24,-3 24,-2 8,16 -77,85 -77,281 -1,365 15,17 15,18 -6,18 -15,0 -31,-14 -51,-46 z"
         id="path657" />
      <path
         d="m 4673,1938 c 28,-53 32,-71 32,-138 0,-67 -4,-85 -32,-139 -26,-50 -29,-62 -16,-59 29,5 73,79 84,143 15,78 -1,158 -42,214 -47,66 -63,52 -26,-21 z"
         id="path659" />
      <path
         d="m 1730,1973 c -24,-9 -50,-35 -50,-50 0,-19 17,-16 40,7 35,35 110,18 110,-25 0,-23 -30,-45 -61,-45 -19,0 -29,-5 -29,-15 0,-10 10,-15 28,-15 39,0 65,-21 65,-55 0,-32 -25,-55 -61,-55 -31,0 -62,17 -62,35 0,8 -9,15 -20,15 -26,0 -25,-13 3,-45 26,-31 89,-42 127,-23 61,32 65,108 7,133 -18,8 -25,14 -16,15 44,1 64,73 30,104 -20,19 -85,30 -111,19 z"
         id="path661" />
      <path
         d="m 2930,1973 c -26,-10 -50,-36 -50,-55 0,-25 18,-23 46,7 28,31 68,32 88,4 21,-31 4,-70 -53,-115 -50,-40 -91,-91 -91,-112 0,-9 29,-12 100,-12 82,0 100,3 100,15 0,12 -15,15 -75,15 -41,0 -75,3 -75,8 0,4 31,36 70,72 62,58 70,70 70,102 0,59 -66,95 -130,71 z"
         id="path663" />
      <path
         d="m 1150,1908 c -28,-15 -39,-60 -20,-83 6,-8 36,-21 65,-29 55,-16 74,-38 54,-62 -16,-20 -98,-19 -105,1 -8,21 -36,19 -32,-2 2,-10 20,-24 40,-31 50,-19 103,-9 125,25 26,40 2,73 -67,93 -47,14 -55,19 -55,40 0,21 5,26 34,28 19,2 45,-2 58,-9 28,-15 42,-4 21,17 -21,21 -87,28 -118,12 z"
         id="path665" />
      <path
         d="m 1384,1906 c -50,-22 -68,-94 -40,-160 28,-68 138,-70 172,-4 21,41 14,122 -13,149 -25,26 -80,33 -119,15 z m 97,-32 c 16,-20 17,-102 0,-131 -16,-31 -85,-33 -101,-4 -16,31 -12,117 6,135 20,21 78,21 95,0 z"
         id="path667" />
      <path
         d="m 1930,1900 c 0,-13 7,-20 20,-20 13,0 20,7 20,20 0,13 -7,20 -20,20 -13,0 -20,-7 -20,-20 z"
         id="path669" />
      <path
         d="m 2200,1907 c -37,-18 -51,-54 -47,-115 5,-73 30,-97 98,-97 43,0 54,4 75,28 19,22 24,39 24,83 0,48 -4,60 -29,85 -33,32 -77,38 -121,16 z m 94,-33 c 22,-21 21,-111 -1,-136 -20,-22 -61,-23 -85,-1 -24,22 -25,109 -1,135 20,22 66,24 87,2 z"
         id="path671" />
      <path
         d="m 2680,1908 c -37,-20 -51,-56 -47,-115 4,-62 25,-90 73,-99 53,-10 114,15 114,47 0,14 -26,11 -40,-6 -19,-23 -76,-19 -94,7 -9,12 -16,30 -16,40 0,16 10,18 81,18 h 82 l -6,37 c -4,20 -15,45 -25,56 -24,24 -89,32 -122,15 z m 94,-34 c 32,-32 20,-44 -44,-44 -64,0 -73,9 -43,42 20,22 66,24 87,2 z"
         id="path673" />
      <path
         d="m 3304,1906 c -50,-22 -68,-94 -40,-160 24,-57 119,-73 161,-26 22,24 1,38 -24,16 -39,-36 -111,-8 -111,42 0,21 5,22 80,22 87,0 89,1 69,59 -11,32 -53,61 -86,61 -10,-1 -32,-7 -49,-14 z m 94,-28 c 7,-7 12,-20 12,-30 0,-15 -9,-18 -60,-18 -64,0 -76,12 -44,44 18,19 75,21 92,4 z"
         id="path675" />
      <path
         d="m 3524,1897 c -27,-23 -29,-31 -29,-92 0,-61 3,-69 28,-91 34,-29 66,-31 101,-3 l 26,20 v -65 c 0,-52 3,-66 15,-66 13,0 15,24 15,160 0,136 -2,160 -15,160 -9,0 -15,-9 -15,-22 0,-20 -1,-20 -18,-5 -33,30 -75,32 -108,4 z m 104,-19 c 20,-25 24,-83 8,-121 -13,-33 -19,-37 -50,-37 -43,0 -56,20 -56,85 0,64 13,85 54,85 19,0 38,-6 44,-12 z"
         id="path677" />
      <path
         d="m 3960,1912 c 0,-5 18,-53 40,-107 22,-54 40,-106 40,-114 0,-26 -29,-61 -51,-61 -10,0 -19,-7 -19,-15 0,-23 38,-18 64,8 23,23 131,285 122,294 -15,15 -34,-14 -60,-91 -16,-47 -33,-86 -37,-86 -5,0 -9,5 -9,10 0,29 -63,170 -76,170 -8,0 -14,-4 -14,-8 z"
         id="path679" />
      <path
         d="m 4430,1914 c 0,-4 16,-29 35,-56 l 35,-49 -40,-59 c -33,-49 -37,-60 -23,-60 10,0 30,19 46,45 16,25 32,45 35,45 4,0 20,-20 35,-45 17,-27 36,-45 47,-45 16,0 12,10 -22,60 l -42,60 31,42 c 45,65 46,68 26,68 -11,-1 -30,-20 -46,-47 l -28,-47 -31,47 c -17,26 -37,47 -44,47 -8,0 -14,-3 -14,-6 z"
         id="path681" />
      <path
         d="m 3750,1715 c 0,-14 4,-25 10,-25 5,0 7,-14 4,-32 -5,-31 -5,-32 10,-14 9,11 16,37 16,58 0,31 -4,38 -20,38 -15,0 -20,-7 -20,-25 z"
         id="path683" />
      <path
         d="m 4210,1715 c 0,-14 4,-25 10,-25 5,0 7,-14 4,-32 -5,-31 -5,-32 10,-14 9,11 16,37 16,58 0,31 -4,38 -20,38 -15,0 -20,-7 -20,-25 z"
         id="path685" />
      <path
         d="m 1930,1710 c 0,-13 7,-20 20,-20 13,0 20,7 20,20 0,13 -7,20 -20,20 -13,0 -20,-7 -20,-20 z"
         id="path687" />
      <path
         d="m 2630,1158 c 0,-18 -3,-50 -6,-70 -5,-31 -4,-38 10,-38 9,0 25,5 36,12 33,21 74,-1 78,-40 2,-18 -2,-40 -9,-48 -15,-18 -63,-18 -79,1 -16,19 -40,19 -40,1 0,-22 40,-46 77,-46 48,0 85,36 85,84 0,53 -29,81 -82,80 -39,-1 -40,-1 -40,32 v 34 h 55 c 42,0 55,3 55,15 0,12 -14,15 -70,15 h -70 z"
         id="path689" />
      <path
         d="m 2845,1165 c -47,-46 -32,-209 20,-229 79,-30 136,48 119,162 -13,85 -86,121 -139,67 z m 95,-24 c 5,-11 10,-47 10,-81 0,-77 -12,-100 -50,-100 -38,0 -50,23 -50,100 0,77 12,100 50,100 19,0 33,-7 40,-19 z"
         id="path691" />
      <path
         d="m 13620,1165 c 0,-8 7,-15 15,-15 8,0 15,7 15,15 0,8 -7,15 -15,15 -8,0 -15,-7 -15,-15 z"
         id="path693" />
      <path
         d="m 14020,1128 c -26,-46 -30,-63 -30,-128 0,-65 4,-82 30,-127 20,-36 37,-53 50,-53 18,0 18,2 -5,36 -14,20 -29,53 -35,73 -20,74 -8,152 35,215 23,34 23,36 5,36 -13,0 -30,-17 -50,-52 z"
         id="path695" />
      <path
         d="m 15241,1124 c 41,-79 41,-169 0,-248 -22,-41 -26,-56 -16,-56 22,0 63,68 76,127 15,65 1,141 -37,196 -41,61 -58,47 -23,-19 z"
         id="path697" />
      <path
         d="m 16960,1128 c -26,-46 -30,-63 -30,-128 0,-65 4,-82 30,-127 20,-36 37,-53 50,-53 18,0 18,2 -5,36 -14,20 -29,53 -35,73 -20,74 -8,152 35,215 23,34 23,36 5,36 -13,0 -30,-17 -50,-52 z"
         id="path699" />
      <path
         d="m 18181,1124 c 41,-79 41,-169 0,-248 -22,-41 -26,-56 -16,-56 22,0 63,68 76,127 15,65 1,141 -37,196 -41,61 -58,47 -23,-19 z"
         id="path701" />
      <path
         d="m 12673,1149 c -18,-12 -33,-28 -33,-36 0,-13 3,-13 25,1 13,9 27,16 30,16 3,0 5,-45 5,-100 V 930 h -35 c -24,0 -35,-5 -35,-15 0,-12 16,-15 85,-15 69,0 85,3 85,15 0,10 -10,15 -30,15 h -30 v 120 c 0,135 -4,140 -67,99 z"
         id="path703" />
      <path
         d="m 12891,1154 c -48,-34 -65,-130 -37,-199 38,-90 166,-66 166,32 0,71 -52,108 -111,79 -28,-14 -29,-13 -29,8 0,55 59,86 95,50 13,-13 19,-14 28,-5 9,10 7,17 -12,32 -28,23 -69,24 -100,3 z m 89,-136 c 13,-25 13,-31 0,-55 -29,-53 -100,-32 -100,28 0,61 70,79 100,27 z"
         id="path705" />
      <path
         d="m 13088,1140 c -29,-30 -30,-33 -26,-111 3,-74 6,-83 31,-105 58,-50 134,-15 146,67 10,71 -2,129 -33,156 -38,33 -80,30 -118,-7 z m 109,-30 c 7,-14 13,-47 13,-75 0,-68 -17,-99 -56,-103 -46,-5 -59,18 -59,103 0,85 13,108 59,103 21,-2 35,-11 43,-28 z"
         id="path707" />
      <path
         d="m 14223,1149 c -18,-12 -33,-28 -33,-36 0,-13 3,-13 25,1 13,9 27,16 30,16 3,0 5,-45 5,-100 V 930 h -35 c -24,0 -35,-5 -35,-15 0,-12 16,-15 85,-15 69,0 85,3 85,15 0,10 -10,15 -30,15 h -30 v 120 c 0,135 -4,140 -67,99 z"
         id="path709" />
      <path
         d="m 14418,1140 c -29,-30 -30,-33 -26,-111 3,-74 6,-83 31,-105 58,-50 134,-15 146,67 10,71 -2,129 -33,156 -38,33 -80,30 -118,-7 z m 109,-30 c 7,-14 13,-47 13,-75 0,-68 -17,-99 -56,-103 -46,-5 -59,18 -59,103 0,85 13,108 59,103 21,-2 35,-11 43,-28 z"
         id="path711" />
      <path
         d="m 14638,1140 c -29,-30 -30,-33 -26,-111 3,-74 6,-83 31,-105 58,-50 134,-15 146,67 10,71 -2,129 -33,156 -38,33 -80,30 -118,-7 z m 109,-30 c 7,-14 13,-47 13,-75 0,-68 -17,-99 -56,-103 -46,-5 -59,18 -59,103 0,85 13,108 59,103 21,-2 35,-11 43,-28 z"
         id="path713" />
      <path
         d="m 15721,1077 c -33,-51 -61,-98 -61,-105 0,-8 21,-12 65,-12 h 65 v -30 c 0,-20 5,-30 15,-30 10,0 15,10 15,30 0,23 4,30 20,30 11,0 20,7 20,15 0,8 -9,15 -20,15 -19,0 -20,7 -20,90 0,81 -2,90 -19,90 -12,0 -39,-31 -80,-93 z m 69,-22 v -65 h -46 c -25,0 -44,3 -42,8 6,14 81,122 84,122 2,0 4,-29 4,-65 z"
         id="path715" />
      <path
         d="m 15918,1140 c -29,-30 -30,-33 -26,-111 3,-74 6,-83 31,-105 58,-50 134,-15 146,67 10,71 -2,129 -33,156 -38,33 -80,30 -118,-7 z m 109,-30 c 7,-14 13,-47 13,-75 0,-68 -17,-99 -56,-103 -46,-5 -59,18 -59,103 0,85 13,108 59,103 21,-2 35,-11 43,-28 z"
         id="path717" />
      <path
         d="m 17163,1149 c -18,-12 -33,-28 -33,-36 0,-13 3,-13 25,1 13,9 27,16 30,16 3,0 5,-45 5,-100 V 930 h -35 c -24,0 -35,-5 -35,-15 0,-12 16,-15 85,-15 69,0 85,3 85,15 0,10 -10,15 -30,15 h -30 v 120 c 0,135 -4,140 -67,99 z"
         id="path719" />
      <path
         d="m 17358,1140 c -29,-30 -30,-33 -26,-111 3,-74 6,-83 31,-105 58,-50 134,-15 146,67 10,71 -2,129 -33,156 -38,33 -80,30 -118,-7 z m 109,-30 c 7,-14 13,-47 13,-75 0,-68 -17,-99 -56,-103 -46,-5 -59,18 -59,103 0,85 13,108 59,103 21,-2 35,-11 43,-28 z"
         id="path721" />
      <path
         d="m 17578,1140 c -29,-30 -30,-33 -26,-111 3,-74 6,-83 31,-105 58,-50 134,-15 146,67 10,71 -2,129 -33,156 -38,33 -80,30 -118,-7 z m 109,-30 c 7,-14 13,-47 13,-75 0,-68 -17,-99 -56,-103 -46,-5 -59,18 -59,103 0,85 13,108 59,103 21,-2 35,-11 43,-28 z"
         id="path723" />
      <path
         d="m 3150,1125 c 0,-2 10,-24 22,-49 l 21,-44 -41,-49 c -31,-36 -38,-49 -27,-51 14,-3 30,12 72,67 9,13 14,9 28,-27 12,-29 23,-42 36,-42 18,0 18,3 -7,51 l -25,51 41,49 c 31,37 37,49 24,49 -9,0 -32,-17 -50,-37 l -32,-38 -16,38 c -9,20 -23,37 -31,37 -8,0 -15,-2 -15,-5 z"
         id="path725" />
      <path
         d="m 13432,1094 c -47,-33 -18,-85 56,-100 37,-7 57,-27 48,-49 -7,-20 -79,-20 -96,-1 -14,17 -41,10 -34,-8 7,-19 49,-36 87,-36 45,0 77,25 77,59 0,34 -11,44 -65,61 -50,16 -65,28 -58,46 6,17 66,19 93,2 29,-18 39,1 11,23 -28,23 -88,25 -119,3 z"
         id="path727" />
      <path
         d="m 13620,1005 c 0,-87 3,-105 15,-105 12,0 15,18 15,105 0,87 -3,105 -15,105 -12,0 -15,-18 -15,-105 z"
         id="path729" />
      <path
         d="m 13710,1005 c 0,-87 3,-105 15,-105 12,0 15,14 15,68 0,80 17,112 59,112 36,0 41,-13 41,-106 0,-67 2,-74 20,-74 18,0 20,7 20,58 -1,70 -14,132 -32,143 -21,14 -62,10 -86,-7 -20,-14 -22,-14 -22,0 0,9 -7,16 -15,16 -12,0 -15,-18 -15,-105 z"
         id="path731" />
      <path
         d="m 14995,1060 26,-51 -46,-52 c -34,-39 -41,-53 -30,-55 9,-2 33,16 55,40 l 39,43 18,-42 c 11,-27 24,-43 36,-43 22,0 22,1 -8,60 l -26,50 47,50 c 39,42 43,50 26,50 -12,0 -36,-18 -56,-41 l -35,-42 -17,42 c -11,28 -22,41 -35,41 -18,0 -18,-3 6,-50 z"
         id="path733" />
      <path
         d="m 16269,1091 c -21,-17 -24,-28 -24,-86 0,-58 3,-69 24,-86 34,-28 86,-25 118,7 19,19 22,29 14,37 -8,8 -17,5 -35,-12 -47,-44 -102,-4 -92,67 9,60 49,81 87,46 10,-9 26,-14 36,-12 16,3 15,7 -9,31 -33,33 -84,36 -119,8 z"
         id="path735" />
      <path
         d="m 16483,1100 c -31,-12 -43,-41 -43,-98 0,-72 23,-97 90,-97 68,0 90,24 90,102 0,44 -5,58 -25,78 -25,26 -70,32 -112,15 z m 93,-45 c 18,-28 14,-85 -7,-111 -16,-19 -63,-18 -80,3 -8,9 -14,35 -14,58 0,23 6,49 14,58 21,26 68,21 87,-8 z"
         id="path737" />
      <path
         d="m 16682,1094 c -47,-33 -18,-85 56,-100 37,-7 57,-27 48,-49 -7,-20 -79,-20 -96,-1 -14,17 -41,10 -34,-8 7,-19 49,-36 87,-36 45,0 77,25 77,59 0,34 -11,44 -65,61 -50,16 -65,28 -58,46 6,17 66,19 93,2 29,-18 39,1 11,23 -28,23 -88,25 -119,3 z"
         id="path739" />
      <path
         d="m 17935,1060 26,-51 -46,-52 c -34,-39 -41,-53 -30,-55 9,-2 33,16 55,40 l 39,43 18,-42 c 11,-27 24,-43 36,-43 22,0 22,1 -8,60 l -26,50 47,50 c 39,42 43,50 26,50 -12,0 -36,-18 -56,-41 l -35,-42 -17,42 c -11,28 -22,41 -35,41 -18,0 -18,-3 6,-50 z"
         id="path741" />
      <path
         d="m 2353,1048 c 2,-9 29,-13 87,-13 58,0 85,4 88,13 3,9 -19,12 -88,12 -69,0 -91,-3 -87,-12 z"
         id="path743" />
      <path
         d="m 6295,1041 c -3,-6 -15,-105 -27,-220 -12,-116 -25,-211 -29,-211 -7,0 -94,131 -102,153 -4,13 -71,-4 -102,-27 -29,-21 -12,-30 29,-16 20,6 40,9 45,5 5,-3 31,-46 58,-95 38,-72 52,-90 70,-90 12,0 24,4 27,9 4,5 15,99 26,208 11,109 23,213 26,231 l 5,32 h 284 285 v -56 c 0,-40 3,-55 13,-52 7,3 13,29 15,71 l 3,67 h -310 c -183,0 -312,-4 -316,-9 z"
         id="path745" />
      <path
         d="m 10575,1041 c -3,-6 -15,-105 -27,-220 -12,-116 -25,-211 -29,-211 -7,0 -94,131 -102,153 -4,13 -71,-4 -102,-27 -29,-21 -12,-30 29,-16 20,6 40,9 45,5 5,-3 31,-46 58,-95 38,-72 52,-90 70,-90 12,0 24,4 27,9 4,5 15,99 26,208 11,109 23,213 26,231 l 5,32 h 284 285 v -56 c 0,-40 3,-55 13,-52 7,3 13,29 15,71 l 3,67 h -310 c -183,0 -312,-4 -316,-9 z"
         id="path747" />
      <path
         d="m 15390,1035 c 0,-12 17,-15 95,-15 78,0 95,3 95,15 0,12 -17,15 -95,15 -78,0 -95,-3 -95,-15 z"
         id="path749" />
      <path
         d="m 3510,844 c -34,-54 -45,-112 -37,-196 7,-74 50,-151 87,-157 24,-3 24,-2 8,16 -77,85 -77,281 -1,365 15,17 15,18 -6,18 -15,0 -31,-14 -51,-46 z"
         id="path751" />
      <path
         d="m 4085,868 c -10,-44 -55,-271 -55,-279 0,-5 8,-9 19,-9 13,0 20,10 24,36 6,36 22,64 38,64 5,0 20,-22 34,-50 18,-36 31,-50 46,-50 11,0 19,3 17,8 -2,4 -17,33 -33,66 l -30,58 55,49 c 48,42 52,49 31,49 -14,0 -44,-19 -78,-50 -31,-28 -57,-50 -58,-48 -2,2 5,42 14,91 18,84 18,87 0,87 -11,0 -21,-9 -24,-22 z"
         id="path753" />
      <path
         d="m 4870,869 c 0,-14 5,-19 17,-17 26,5 29,38 4,38 -15,0 -21,-6 -21,-21 z"
         id="path755" />
      <path
         d="m 5310,844 c -34,-54 -45,-112 -37,-196 7,-74 50,-151 87,-157 24,-3 24,-2 8,16 -77,85 -77,281 -1,365 15,17 15,18 -6,18 -15,0 -31,-14 -51,-46 z"
         id="path757" />
      <path
         d="m 7363,828 c 28,-53 32,-71 32,-138 0,-67 -4,-85 -32,-139 -26,-50 -29,-62 -16,-59 29,5 73,79 84,143 15,78 -1,158 -42,214 -47,66 -63,52 -26,-21 z"
         id="path759" />
      <path
         d="m 8245,868 c -10,-44 -55,-271 -55,-279 0,-5 8,-9 19,-9 13,0 20,10 24,36 6,36 22,64 38,64 5,0 20,-22 34,-50 18,-36 31,-50 46,-50 11,0 19,3 17,8 -2,4 -17,33 -33,66 l -30,58 55,49 c 48,42 52,49 31,49 -14,0 -44,-19 -78,-50 -31,-28 -57,-50 -58,-48 -2,2 5,42 14,91 18,84 18,87 0,87 -11,0 -21,-9 -24,-22 z"
         id="path761" />
      <path
         d="m 9590,844 c -34,-54 -45,-112 -37,-196 7,-74 50,-151 87,-157 24,-3 24,-2 8,16 -77,85 -77,281 -1,365 15,17 15,18 -6,18 -15,0 -31,-14 -51,-46 z"
         id="path763" />
      <path
         d="m 11643,828 c 28,-53 32,-71 32,-138 0,-67 -4,-85 -32,-139 -26,-50 -29,-62 -16,-59 29,5 73,79 84,143 15,78 -1,158 -42,214 -47,66 -63,52 -26,-21 z"
         id="path765" />
      <path
         d="m 11813,828 c 28,-53 32,-71 32,-138 0,-67 -4,-85 -32,-139 -26,-50 -29,-62 -16,-59 29,5 73,79 84,143 15,78 -1,158 -42,214 -47,66 -63,52 -26,-21 z"
         id="path767" />
      <path
         d="m 1720,850 c -15,-15 -20,-33 -20,-70 0,-57 24,-90 64,-90 51,0 84,87 55,143 -23,43 -66,50 -99,17 z m 74,-31 c 20,-58 -15,-127 -50,-98 -17,14 -19,100 -2,117 19,19 41,10 52,-19 z"
         id="path769" />
      <path
         d="m 1857,725 c -72,-108 -93,-145 -80,-145 12,0 50,48 108,136 102,155 102,154 82,154 -7,0 -57,-65 -110,-145 z"
         id="path771" />
      <path
         d="m 3705,846 c -43,-43 -43,-136 0,-152 46,-18 93,25 102,96 10,73 -51,106 -102,56 z m 64,-5 c 20,-13 8,-88 -18,-114 -17,-18 -22,-18 -36,-7 -21,18 -15,83 11,111 19,21 23,22 43,10 z"
         id="path773" />
      <path
         d="m 3823,728 c -67,-78 -120,-144 -118,-146 11,-11 41,17 154,147 85,98 117,141 104,141 -11,0 -66,-56 -140,-142 z"
         id="path775" />
      <path
         d="m 4348,847 c -20,-12 -39,-30 -42,-39 -5,-22 -4,-22 37,2 l 34,20 -21,-107 -22,-108 -39,-5 c -21,-3 -40,-11 -43,-17 -3,-10 20,-13 92,-13 79,0 96,3 96,15 0,10 -11,15 -35,15 -32,0 -35,2 -30,23 11,45 45,220 45,228 0,16 -34,9 -72,-14 z"
         id="path777" />
      <path
         d="m 5476,854 c -3,-9 -6,-43 -6,-76 v -60 l 28,6 c 71,18 83,18 102,1 28,-25 27,-79 -2,-99 -31,-22 -64,-20 -88,4 -20,20 -50,27 -50,11 0,-5 9,-19 19,-32 16,-20 28,-24 76,-24 50,0 60,3 81,28 25,30 32,83 14,116 -13,26 -65,44 -105,38 l -35,-6 v 40 39 h 70 c 56,0 70,3 70,15 0,23 -165,22 -174,-1 z"
         id="path779" />
      <path
         d="m 5749,855 c -33,-18 -49,-61 -49,-130 0,-70 16,-113 51,-130 55,-29 119,-8 138,46 16,46 14,145 -4,180 -25,47 -85,62 -136,34 z m 85,-28 c 22,-16 34,-84 25,-146 -9,-67 -58,-92 -99,-51 -16,16 -20,33 -20,95 0,62 4,79 20,95 23,23 49,26 74,7 z"
         id="path781" />
      <path
         d="m 6443,844 c -18,-14 -33,-32 -33,-41 0,-12 7,-10 35,7 l 35,22 V 721 610 h -40 c -29,0 -40,-4 -40,-15 0,-12 17,-15 95,-15 78,0 95,3 95,15 0,10 -11,15 -35,15 h -35 v 130 c 0,128 0,130 -22,130 -13,0 -38,-12 -55,-26 z"
         id="path783" />
      <path
         d="m 6659,841 c -78,-78 21,-207 110,-144 l 24,16 -7,-33 c -12,-61 -65,-92 -96,-55 -14,16 -50,21 -50,6 0,-16 30,-41 56,-47 37,-9 84,7 107,37 28,38 35,144 13,191 -31,64 -107,78 -157,29 z m 104,-13 c 28,-22 32,-73 8,-97 -41,-41 -101,-15 -101,42 0,55 52,85 93,55 z"
         id="path785" />
      <path
         d="m 7865,846 c -43,-43 -43,-136 0,-152 46,-18 93,25 102,96 10,73 -51,106 -102,56 z m 64,-5 c 20,-13 8,-88 -18,-114 -17,-18 -22,-18 -36,-7 -21,18 -15,83 11,111 19,21 23,22 43,10 z"
         id="path787" />
      <path
         d="m 7983,728 c -67,-78 -120,-144 -118,-146 11,-11 41,17 154,147 85,98 117,141 104,141 -11,0 -66,-56 -140,-142 z"
         id="path789" />
      <path
         d="m 8489,855 c -31,-17 -44,-44 -30,-58 7,-7 19,-2 35,16 42,45 96,31 96,-23 0,-29 -20,-50 -93,-99 -54,-37 -97,-80 -97,-98 0,-10 26,-13 100,-13 82,0 100,3 100,15 0,12 -15,15 -76,15 -70,0 -75,1 -63,16 8,9 44,37 82,61 37,25 72,53 77,63 12,22 13,70 2,86 -22,34 -89,43 -133,19 z"
         id="path791" />
      <path
         d="m 9756,854 c -3,-9 -6,-43 -6,-76 v -60 l 28,6 c 71,18 83,18 102,1 28,-25 27,-79 -2,-99 -31,-22 -64,-20 -88,4 -20,20 -50,27 -50,11 0,-5 9,-19 19,-32 16,-20 28,-24 76,-24 50,0 60,3 81,28 25,30 32,83 14,116 -13,26 -65,44 -105,38 l -35,-6 v 40 39 h 70 c 56,0 70,3 70,15 0,23 -165,22 -174,-1 z"
         id="path793" />
      <path
         d="m 10029,855 c -33,-18 -49,-61 -49,-130 0,-70 16,-113 51,-130 55,-29 119,-8 138,46 16,46 14,145 -4,180 -25,47 -85,62 -136,34 z m 85,-28 c 22,-16 34,-84 25,-146 -9,-67 -58,-92 -99,-51 -16,16 -20,33 -20,95 0,62 4,79 20,95 23,23 49,26 74,7 z"
         id="path795" />
      <path
         d="m 10723,844 c -18,-14 -33,-32 -33,-41 0,-12 7,-10 35,7 l 35,22 V 721 610 h -40 c -29,0 -40,-4 -40,-15 0,-12 17,-15 95,-15 78,0 95,3 95,15 0,10 -11,15 -35,15 h -35 v 130 c 0,128 0,130 -22,130 -13,0 -38,-12 -55,-26 z"
         id="path797" />
      <path
         d="m 10939,841 c -78,-78 21,-207 110,-144 l 24,16 -7,-33 c -12,-61 -65,-92 -96,-55 -14,16 -50,21 -50,6 0,-16 30,-41 56,-47 37,-9 84,7 107,37 28,38 35,144 13,191 -31,64 -107,78 -157,29 z m 104,-13 c 28,-22 32,-73 8,-97 -41,-41 -101,-15 -101,42 0,55 52,85 93,55 z"
         id="path799" />
      <path
         d="m 7610,785 v -45 h -45 c -33,0 -45,-4 -45,-15 0,-11 12,-15 45,-15 h 45 v -45 c 0,-33 4,-45 15,-45 11,0 15,12 15,45 v 45 h 45 c 33,0 45,4 45,15 0,11 -12,15 -45,15 h -45 v 45 c 0,33 -4,45 -15,45 -11,0 -15,-12 -15,-45 z"
         id="path801" />
      <path
         d="m 1120,797 c 0,-8 9,-60 21,-115 19,-96 19,-102 3,-127 -9,-14 -30,-29 -46,-32 -36,-7 -37,-33 -2,-33 38,0 73,43 159,193 67,115 72,127 52,127 -17,0 -32,-19 -72,-93 l -49,-92 -16,90 c -12,69 -20,91 -33,93 -10,2 -17,-3 -17,-11 z"
         id="path803" />
      <path
         d="m 2130,797 c -37,-18 -51,-54 -47,-115 5,-64 27,-91 84,-99 45,-6 103,18 103,42 0,19 -19,19 -44,0 -44,-33 -106,-5 -106,47 0,16 10,18 80,18 h 80 v 31 c 0,67 -84,110 -150,76 z m 94,-33 c 32,-32 20,-44 -44,-44 -64,0 -73,9 -43,42 20,22 66,24 87,2 z"
         id="path805" />
      <path
         d="m 4675,798 c -64,-36 -42,-86 52,-117 40,-13 48,-20 48,-41 0,-22 -5,-25 -41,-28 -27,-2 -45,2 -54,13 -16,19 -40,20 -40,1 0,-38 94,-61 143,-35 28,15 37,28 37,55 0,29 -28,52 -89,70 -44,13 -52,18 -49,37 2,17 11,23 39,25 23,2 42,-3 52,-12 20,-20 37,-20 37,-2 0,38 -89,60 -135,34 z"
         id="path807" />
      <path
         d="m 4870,695 c 0,-108 1,-115 20,-115 19,0 20,7 20,115 0,108 -1,115 -20,115 -19,0 -20,-7 -20,-115 z"
         id="path809" />
      <path
         d="m 4970,695 c 0,-108 1,-115 20,-115 18,0 20,7 20,83 0,95 15,121 67,115 l 28,-3 3,-97 c 2,-90 4,-98 22,-98 19,0 20,7 20,99 0,92 -2,101 -22,115 -12,9 -34,16 -48,16 -14,0 -36,-7 -48,-16 -20,-14 -22,-14 -22,0 0,9 -9,16 -20,16 -19,0 -20,-7 -20,-115 z"
         id="path811" />
      <path
         d="m 7095,760 c 14,-27 25,-54 25,-61 0,-6 -21,-34 -46,-63 -38,-42 -43,-52 -29,-55 12,-2 32,14 58,44 l 40,47 24,-46 c 16,-31 30,-46 43,-46 19,0 19,4 -10,60 l -30,60 45,49 c 50,53 53,61 28,61 -10,0 -34,-19 -54,-42 l -36,-43 -22,43 c -14,28 -28,42 -41,42 -20,0 -19,-2 5,-50 z"
         id="path813" />
      <path
         d="m 8833,786 c -25,-22 -28,-30 -28,-91 0,-61 3,-69 28,-91 17,-15 41,-24 61,-24 36,0 86,33 86,56 0,20 -24,17 -45,-6 -24,-26 -60,-25 -79,2 -23,32 -21,110 2,131 25,23 59,21 74,-3 15,-23 48,-27 48,-6 0,23 -50,56 -86,56 -20,0 -44,-9 -61,-24 z"
         id="path815" />
      <path
         d="m 9053,786 c -25,-22 -28,-30 -28,-91 0,-61 3,-69 28,-91 41,-35 99,-33 138,5 25,26 29,37 29,86 0,49 -4,60 -29,86 -39,38 -97,40 -138,5 z m 111,-22 c 22,-21 21,-111 -1,-136 -23,-25 -68,-23 -87,4 -9,12 -16,41 -16,63 0,53 23,85 60,85 16,0 36,-7 44,-16 z"
         id="path817" />
      <path
         d="m 9295,798 c -64,-36 -42,-86 52,-117 40,-13 48,-20 48,-41 0,-22 -5,-25 -41,-28 -27,-2 -45,2 -54,13 -16,19 -40,20 -40,1 0,-38 94,-61 143,-35 28,15 37,28 37,55 0,29 -28,52 -89,70 -44,13 -52,18 -49,37 2,17 11,23 39,25 23,2 42,-3 52,-12 20,-20 37,-20 37,-2 0,38 -89,60 -135,34 z"
         id="path819" />
      <path
         d="m 11375,760 c 14,-27 25,-54 25,-61 0,-6 -21,-34 -46,-63 -38,-42 -43,-52 -29,-55 12,-2 32,14 58,44 l 40,47 24,-46 c 16,-31 30,-46 43,-46 19,0 19,4 -10,60 l -30,60 45,49 c 50,53 53,61 28,61 -10,0 -34,-19 -54,-42 l -36,-43 -22,43 c -14,28 -28,42 -41,42 -20,0 -19,-2 5,-50 z"
         id="path821" />
      <path
         d="m 1400,775 c 0,-12 18,-15 105,-15 87,0 105,3 105,15 0,12 -18,15 -105,15 -87,0 -105,-3 -105,-15 z"
         id="path823" />
      <path
         d="m 1940,750 c -15,-15 -20,-33 -20,-75 0,-42 5,-60 20,-75 46,-46 100,-12 107,67 4,39 1,53 -17,76 -26,32 -62,35 -90,7 z m 57,-8 c 30,-19 27,-124 -4,-136 -28,-11 -43,13 -43,68 0,62 17,87 47,68 z"
         id="path825" />
      <path
         d="m 3901,746 c -32,-34 -42,-124 -16,-149 39,-40 99,-3 116,73 13,56 -5,94 -46,98 -22,2 -37,-4 -54,-22 z m 69,-16 c 13,-25 -3,-100 -25,-117 -28,-20 -45,-5 -45,39 0,74 45,124 70,78 z"
         id="path827" />
      <path
         d="m 8061,746 c -32,-34 -42,-124 -16,-149 39,-40 99,-3 116,73 13,56 -5,94 -46,98 -22,2 -37,-4 -54,-22 z m 69,-16 c 13,-25 -3,-100 -25,-117 -28,-20 -45,-5 -45,39 0,74 45,124 70,78 z"
         id="path829" />
      <path
         d="m 12000,725 c 0,-12 18,-15 105,-15 87,0 105,3 105,15 0,12 -18,15 -105,15 -87,0 -105,-3 -105,-15 z"
         id="path831" />
      <path
         d="m 12417,683 c -4,-3 -7,-10 -7,-15 0,-4 1353,-7 3007,-6 2394,2 3007,6 3011,16 3,9 -602,12 -3000,12 -1653,0 -3008,-3 -3011,-7 z"
         id="path833" />
      <path
         d="m 1400,665 c 0,-12 18,-15 105,-15 87,0 105,3 105,15 0,12 -18,15 -105,15 -87,0 -105,-3 -105,-15 z"
         id="path835" />
      <path
         d="m 15273,479 c -18,-12 -33,-28 -33,-36 0,-13 3,-13 25,1 13,9 27,16 30,16 3,0 5,-45 5,-100 V 260 h -35 c -24,0 -35,-5 -35,-15 0,-12 16,-15 85,-15 69,0 85,3 85,15 0,10 -10,15 -30,15 h -30 v 120 c 0,135 -4,140 -67,99 z"
         id="path837" />
      <path
         d="m 15440,485 c 0,-12 14,-15 70,-15 39,0 70,-2 70,-5 0,-3 -11,-23 -24,-44 -33,-52 -52,-99 -61,-150 -6,-37 -5,-41 14,-41 17,0 21,6 21,33 1,37 37,130 68,175 40,56 33,62 -68,62 -73,0 -90,-3 -90,-15 z"
         id="path839" />
    </g>
  </g>
</svg>
