<?xml version="1.0" encoding="UTF-8" standalone="no"?>
<svg
   width="850pt"
   height="294pt"
   viewBox="0 0 850 294"
   version="1.1"
   id="svg8255"
   sodipodi:docname="mofig2w.svg"
   inkscape:version="1.1 (c68e22c387, 2021-05-23)"
   xmlns:inkscape="http://www.inkscape.org/namespaces/inkscape"
   xmlns:sodipodi="http://sodipodi.sourceforge.net/DTD/sodipodi-0.dtd"
   xmlns="http://www.w3.org/2000/svg"
   xmlns:svg="http://www.w3.org/2000/svg"
   xmlns:rdf="http://www.w3.org/1999/02/22-rdf-syntax-ns#"
   xmlns:cc="http://creativecommons.org/ns#"
   xmlns:dc="http://purl.org/dc/elements/1.1/">
  <sodipodi:namedview
     id="namedview8257"
     pagecolor="#ffffff"
     bordercolor="#666666"
     borderopacity="1.0"
     inkscape:pageshadow="2"
     inkscape:pageopacity="0.0"
     inkscape:pagecheckerboard="0"
     inkscape:document-units="pt"
     showgrid="false"
     inkscape:zoom="0.66"
     inkscape:cx="492.42424"
     inkscape:cy="191.66667"
     inkscape:window-width="1763"
     inkscape:window-height="1055"
     inkscape:window-x="150"
     inkscape:window-y="-7"
     inkscape:window-maximized="1"
     inkscape:current-layer="svg8255" />
  <title
     id="title8060">Figure 1</title>
  <desc
     id="desc8062">
Creator: GL2PS 1.4.2, (C) 1999-2020 C. Geuzaine
For: Octave
CreationDate: Fri Feb 03 15:39:55 2023
</desc>
  <defs
     id="defs8064">
    <clipPath
       id="cp00419289">
      <polygon
         points="419,289 419,0 0,0 0,289 "
         id="polygon7601" />
    </clipPath>
  </defs>
  <polygon
     points="434,288 0,288 0,0 434,0 "
     fill="#ffffff"
     id="polygon8066" />
  <metadata
     id="metadata8259">
    <rdf:RDF>
      <cc:Work
         rdf:about="">
        <dc:title>Figure 1</dc:title>
      </cc:Work>
    </rdf:RDF>
  </metadata>
  <g
     id="g8645"
     transform="translate(6)">
    <g
       id="g8253">
      <path
         id="polygon8068"
         style="fill:#ffffff;shape-rendering:crispEdges"
         d="M 434,0 H 0 v 288 h 434 z" />
      <clipPath
         id="cp00434288">
        <polygon
           points="434,0 0,0 0,288 434,288 "
           id="polygon8070" />
      </clipPath>
      <g
         clip-path="url(#cp00434288)"
         id="g8251">
        <path
           id="polygon8073"
           style="fill:#ffffff;shape-rendering:crispEdges"
           d="M 393.014,21.6306 H 56.455 V 256.683 h 336.559 z" />
        <path
           id="polyline8075"
           style="fill:none;stroke:#262626;stroke-width:0.5"
           d="m 56.455,256.683 v -3.366" />
        <path
           id="polyline8077"
           style="fill:none;stroke:#262626;stroke-width:0.5"
           d="m 56.455,21.6306 v 3.3663" />
        <path
           id="polyline8079"
           style="fill:none;stroke:#262626;stroke-width:0.5"
           d="m 123.767,256.683 v -3.366" />
        <path
           id="polyline8081"
           style="fill:none;stroke:#262626;stroke-width:0.5"
           d="m 123.767,21.6306 v 3.3663" />
        <path
           id="polyline8083"
           style="fill:none;stroke:#262626;stroke-width:0.5"
           d="m 191.079,256.683 v -3.366" />
        <path
           id="polyline8085"
           style="fill:none;stroke:#262626;stroke-width:0.5"
           d="m 191.079,21.6306 v 3.3663" />
        <path
           id="polyline8087"
           style="fill:none;stroke:#262626;stroke-width:0.5"
           d="m 258.39,256.683 v -3.366" />
        <path
           id="polyline8089"
           style="fill:none;stroke:#262626;stroke-width:0.5"
           d="m 258.39,21.6306 v 3.3663" />
        <path
           id="polyline8091"
           style="fill:none;stroke:#262626;stroke-width:0.5"
           d="m 325.702,256.683 v -3.366" />
        <path
           id="polyline8093"
           style="fill:none;stroke:#262626;stroke-width:0.5"
           d="m 325.702,21.6306 v 3.3663" />
        <path
           id="polyline8095"
           style="fill:none;stroke:#262626;stroke-width:0.5"
           d="m 393.014,256.683 v -3.366" />
        <path
           id="polyline8097"
           style="fill:none;stroke:#262626;stroke-width:0.5"
           d="m 393.014,21.6306 v 3.3663" />
        <g
           xml:space="preserve"
           font-family="FreeSans"
           font-weight="normal"
           font-style="normal"
           transform="translate(53.455,272.185)"
           font-size="10px"
           id="g8101">
    <g
   aria-label="0"
   id="text8099"
   style="fill:#262626"><path
     d="m 5.6982422,-3.6376953 q 0,1.9580078 -0.6152344,2.87597655 -0.6103516,0.91308594 -1.899414,0.91308594 -1.3085938,0 -1.9140626,-0.92773438 -0.60058589,-0.92773441 -0.60058589,-2.85156251 0,-1.9384765 0.61035159,-2.8613281 0.6103515,-0.9277344 1.9042969,-0.9277344 1.3085937,0 1.9091796,0.9423828 0.6054688,0.9375 0.6054688,2.8369141 z m -1.2841797,2.2167969 q 0.1708984,-0.3955078 0.2294922,-0.9277344 0.063477,-0.5371094 0.063477,-1.2890625 0,-0.7421875 -0.063477,-1.2890625 -0.058594,-0.546875 -0.234375,-0.9277344 -0.1708985,-0.3759765 -0.46875,-0.5664062 -0.2929688,-0.1904297 -0.7568359,-0.1904297 -0.4589844,0 -0.7617188,0.1904297 -0.2978516,0.1904297 -0.4736328,0.5761718 -0.1660156,0.3613282 -0.2294922,0.9423829 -0.058594,0.5810546 -0.058594,1.274414 0,0.7617188 0.053711,1.2744141 0.053711,0.5126953 0.2294922,0.9179687 0.1611328,0.3808594 0.4541015,0.58105471 0.2978516,0.20019532 0.7861329,0.20019532 0.4589843,0 0.7617187,-0.19042969 0.3027344,-0.19042964 0.4687502,-0.57617184 z"
     style="fill:#262626"
     id="path8661" /></g>
   </g>
        <g
           xml:space="preserve"
           font-family="FreeSans"
           font-weight="normal"
           font-style="normal"
           transform="translate(116.267,272.185)"
           font-size="10px"
           id="g8105">
    <g
   aria-label="0.2"
   id="text8103"
   style="fill:#262626"><path
     d="m 5.6982422,-3.6376953 q 0,1.9580078 -0.6152344,2.87597655 -0.6103516,0.91308594 -1.899414,0.91308594 -1.3085938,0 -1.9140626,-0.92773438 -0.60058589,-0.92773441 -0.60058589,-2.85156251 0,-1.9384765 0.61035159,-2.8613281 0.6103515,-0.9277344 1.9042969,-0.9277344 1.3085937,0 1.9091796,0.9423828 0.6054688,0.9375 0.6054688,2.8369141 z m -1.2841797,2.2167969 q 0.1708984,-0.3955078 0.2294922,-0.9277344 0.063477,-0.5371094 0.063477,-1.2890625 0,-0.7421875 -0.063477,-1.2890625 -0.058594,-0.546875 -0.234375,-0.9277344 -0.1708985,-0.3759765 -0.46875,-0.5664062 -0.2929688,-0.1904297 -0.7568359,-0.1904297 -0.4589844,0 -0.7617188,0.1904297 -0.2978516,0.1904297 -0.4736328,0.5761718 -0.1660156,0.3613282 -0.2294922,0.9423829 -0.058594,0.5810546 -0.058594,1.274414 0,0.7617188 0.053711,1.2744141 0.053711,0.5126953 0.2294922,0.9179687 0.1611328,0.3808594 0.4541015,0.58105471 0.2978516,0.20019532 0.7861329,0.20019532 0.4589843,0 0.7617187,-0.19042969 0.3027344,-0.19042964 0.4687502,-0.57617184 z"
     style="fill:#262626"
     id="path8664" /><path
     d="M 8.4023438,0 H 7.2353516 v -1.3916016 h 1.1669922 z"
     style="fill:#262626"
     id="path8666" /><path
     d="M 14.708008,0 H 9.7861328 v -1.0205078 q 0.5126952,-0.4394531 1.0253902,-0.8789063 0.517579,-0.4394531 0.961915,-0.8740234 0.9375,-0.9082031 1.284179,-1.4404297 0.34668,-0.5371094 0.34668,-1.1572265 0,-0.5664063 -0.375977,-0.8837891 -0.371093,-0.3222656 -1.040039,-0.3222656 -0.444336,0 -0.961914,0.15625 -0.517578,0.15625 -1.010742,0.4785156 H 9.966797 v -1.0253906 q 0.34668,-0.1708985 0.922851,-0.3125 0.581055,-0.1416016 1.123047,-0.1416016 1.118164,0 1.75293,0.5419922 0.634766,0.5371094 0.634766,1.4599609 0,0.4150391 -0.107422,0.7763672 -0.102539,0.3564453 -0.307617,0.6787109 -0.19043,0.3027344 -0.449219,0.5957032 -0.253906,0.2929687 -0.620117,0.649414 -0.522461,0.5126953 -1.079102,0.9960938 -0.556641,0.4785156 -1.040039,0.88867186 h 3.911133 z"
     style="fill:#262626"
     id="path8668" /></g>
   </g>
        <g
           xml:space="preserve"
           font-family="FreeSans"
           font-weight="normal"
           font-style="normal"
           transform="translate(183.579,272.185)"
           font-size="10px"
           id="g8109">
    <g
   aria-label="0.4"
   id="text8107"
   style="fill:#262626"><path
     d="m 5.6982422,-3.6376953 q 0,1.9580078 -0.6152344,2.87597655 -0.6103516,0.91308594 -1.899414,0.91308594 -1.3085938,0 -1.9140626,-0.92773438 -0.60058589,-0.92773441 -0.60058589,-2.85156251 0,-1.9384765 0.61035159,-2.8613281 0.6103515,-0.9277344 1.9042969,-0.9277344 1.3085937,0 1.9091796,0.9423828 0.6054688,0.9375 0.6054688,2.8369141 z m -1.2841797,2.2167969 q 0.1708984,-0.3955078 0.2294922,-0.9277344 0.063477,-0.5371094 0.063477,-1.2890625 0,-0.7421875 -0.063477,-1.2890625 -0.058594,-0.546875 -0.234375,-0.9277344 -0.1708985,-0.3759765 -0.46875,-0.5664062 -0.2929688,-0.1904297 -0.7568359,-0.1904297 -0.4589844,0 -0.7617188,0.1904297 -0.2978516,0.1904297 -0.4736328,0.5761718 -0.1660156,0.3613282 -0.2294922,0.9423829 -0.058594,0.5810546 -0.058594,1.274414 0,0.7617188 0.053711,1.2744141 0.053711,0.5126953 0.2294922,0.9179687 0.1611328,0.3808594 0.4541015,0.58105471 0.2978516,0.20019532 0.7861329,0.20019532 0.4589843,0 0.7617187,-0.19042969 0.3027344,-0.19042964 0.4687502,-0.57617184 z"
     style="fill:#262626"
     id="path8671" /><path
     d="M 8.4023438,0 H 7.2353516 v -1.3916016 h 1.1669922 z"
     style="fill:#262626"
     id="path8673" /><path
     d="M 14.874023,-2.0458984 H 13.794922 V 0 h -0.9375 V -2.0458984 H 9.3759766 v -1.1230469 l 3.5205074,-4.1015625 h 0.898438 v 4.4433594 h 1.079101 z m -2.016601,-0.78125 v -3.28125 l -2.817383,3.28125 z"
     style="fill:#262626"
     id="path8675" /></g>
   </g>
        <g
           xml:space="preserve"
           font-family="FreeSans"
           font-weight="normal"
           font-style="normal"
           transform="translate(250.89,272.185)"
           font-size="10px"
           id="g8113">
    <g
   aria-label="0.6"
   id="text8111"
   style="fill:#262626"><path
     d="m 5.6982422,-3.6376953 q 0,1.9580078 -0.6152344,2.87597655 -0.6103516,0.91308594 -1.899414,0.91308594 -1.3085938,0 -1.9140626,-0.92773438 -0.60058589,-0.92773441 -0.60058589,-2.85156251 0,-1.9384765 0.61035159,-2.8613281 0.6103515,-0.9277344 1.9042969,-0.9277344 1.3085937,0 1.9091796,0.9423828 0.6054688,0.9375 0.6054688,2.8369141 z m -1.2841797,2.2167969 q 0.1708984,-0.3955078 0.2294922,-0.9277344 0.063477,-0.5371094 0.063477,-1.2890625 0,-0.7421875 -0.063477,-1.2890625 -0.058594,-0.546875 -0.234375,-0.9277344 -0.1708985,-0.3759765 -0.46875,-0.5664062 -0.2929688,-0.1904297 -0.7568359,-0.1904297 -0.4589844,0 -0.7617188,0.1904297 -0.2978516,0.1904297 -0.4736328,0.5761718 -0.1660156,0.3613282 -0.2294922,0.9423829 -0.058594,0.5810546 -0.058594,1.274414 0,0.7617188 0.053711,1.2744141 0.053711,0.5126953 0.2294922,0.9179687 0.1611328,0.3808594 0.4541015,0.58105471 0.2978516,0.20019532 0.7861329,0.20019532 0.4589843,0 0.7617187,-0.19042969 0.3027344,-0.19042964 0.4687502,-0.57617184 z"
     style="fill:#262626"
     id="path8678" /><path
     d="M 8.4023438,0 H 7.2353516 v -1.3916016 h 1.1669922 z"
     style="fill:#262626"
     id="path8680" /><path
     d="m 14.81543,-2.3583984 q 0,1.1083984 -0.732422,1.8115234 -0.727539,0.69824219 -1.78711,0.69824219 -0.537109,0 -0.976562,-0.16601563 -0.439453,-0.16601562 -0.776367,-0.49316406 -0.419922,-0.40527344 -0.6494143,-1.0742187 -0.2246094,-0.6689454 -0.2246094,-1.6113282 0,-0.9667968 0.2050781,-1.7138672 0.2099606,-0.7470703 0.6640626,-1.328125 0.429687,-0.5517578 1.108398,-0.859375 0.678711,-0.3125 1.582032,-0.3125 0.288086,0 0.483398,0.024414 0.195313,0.024414 0.395508,0.087891 v 0.9326172 h -0.04883 q -0.136719,-0.073242 -0.415039,-0.1367187 -0.273438,-0.068359 -0.561524,-0.068359 -1.049804,0 -1.674804,0.6591797 -0.625,0.6542969 -0.727539,1.7724609 0.410156,-0.2490234 0.805664,-0.3759765 0.40039,-0.131836 0.922851,-0.131836 0.463867,0 0.81543,0.087891 0.356445,0.083008 0.727539,0.3417969 0.429687,0.2978516 0.644531,0.7519531 0.219727,0.4541016 0.219727,1.1035157 z m -0.991211,0.039063 q 0,-0.4541016 -0.136719,-0.7519532 -0.131836,-0.2978515 -0.439453,-0.5175781 -0.224609,-0.15625 -0.498047,-0.2050781 -0.273437,-0.048828 -0.571289,-0.048828 -0.415039,0 -0.771484,0.097656 -0.356446,0.097656 -0.732422,0.3027344 -0.0098,0.1074219 -0.01465,0.2099609 -0.0049,0.097656 -0.0049,0.2490235 0,0.7714843 0.15625,1.2207031 0.161133,0.4443359 0.439454,0.703125 0.224609,0.21484374 0.483398,0.3173828 0.263672,0.0976563 0.571289,0.0976563 0.708008,0 1.113281,-0.4296875 0.405274,-0.4345704 0.405274,-1.2451172 z"
     style="fill:#262626"
     id="path8682" /></g>
   </g>
        <g
           xml:space="preserve"
           font-family="FreeSans"
           font-weight="normal"
           font-style="normal"
           transform="translate(318.202,272.185)"
           font-size="10px"
           id="g8117">
    <g
   aria-label="0.8"
   id="text8115"
   style="fill:#262626"><path
     d="m 5.6982422,-3.6376953 q 0,1.9580078 -0.6152344,2.87597655 -0.6103516,0.91308594 -1.899414,0.91308594 -1.3085938,0 -1.9140626,-0.92773438 -0.60058589,-0.92773441 -0.60058589,-2.85156251 0,-1.9384765 0.61035159,-2.8613281 0.6103515,-0.9277344 1.9042969,-0.9277344 1.3085937,0 1.9091796,0.9423828 0.6054688,0.9375 0.6054688,2.8369141 z m -1.2841797,2.2167969 q 0.1708984,-0.3955078 0.2294922,-0.9277344 0.063477,-0.5371094 0.063477,-1.2890625 0,-0.7421875 -0.063477,-1.2890625 -0.058594,-0.546875 -0.234375,-0.9277344 -0.1708985,-0.3759765 -0.46875,-0.5664062 -0.2929688,-0.1904297 -0.7568359,-0.1904297 -0.4589844,0 -0.7617188,0.1904297 -0.2978516,0.1904297 -0.4736328,0.5761718 -0.1660156,0.3613282 -0.2294922,0.9423829 -0.058594,0.5810546 -0.058594,1.274414 0,0.7617188 0.053711,1.2744141 0.053711,0.5126953 0.2294922,0.9179687 0.1611328,0.3808594 0.4541015,0.58105471 0.2978516,0.20019532 0.7861329,0.20019532 0.4589843,0 0.7617187,-0.19042969 0.3027344,-0.19042964 0.4687502,-0.57617184 z"
     style="fill:#262626"
     id="path8685" /><path
     d="M 8.4023438,0 H 7.2353516 v -1.3916016 h 1.1669922 z"
     style="fill:#262626"
     id="path8687" /><path
     d="m 14.761719,-2.0263672 q 0,0.9423828 -0.737305,1.56738282 -0.732422,0.625 -1.845703,0.625 -1.181641,0 -1.884766,-0.61035156 -0.6982419,-0.61035156 -0.6982419,-1.56249996 0,-0.6054688 0.3515625,-1.09375 0.3515624,-0.4931641 0.9912114,-0.78125 v -0.029297 q -0.585938,-0.3125 -0.869141,-0.6835938 -0.2783204,-0.3710937 -0.2783204,-0.9277343 0,-0.8203125 0.6738284,-1.3671875 0.673828,-0.546875 1.713867,-0.546875 1.088867,0 1.738281,0.5224609 0.649414,0.5224609 0.649414,1.328125 0,0.4931641 -0.307617,0.9716797 -0.307617,0.4736328 -0.90332,0.7421875 v 0.029297 q 0.683594,0.2929687 1.044922,0.7226562 0.361328,0.4296875 0.361328,1.09375 z m -1.157227,-3.5498047 q 0,-0.5224609 -0.405273,-0.8300781 -0.400391,-0.3125 -1.025391,-0.3125 -0.615234,0 -1.010742,0.2929688 -0.390625,0.2929687 -0.390625,0.7910156 0,0.3515625 0.195312,0.6103515 0.200196,0.2539063 0.600586,0.4541016 0.180664,0.087891 0.517579,0.2294922 0.341796,0.1416016 0.664062,0.234375 0.483398,-0.3222656 0.668945,-0.6689453 0.185547,-0.3466797 0.185547,-0.8007813 z m 0.151367,3.6425782 q 0,-0.4492188 -0.200195,-0.7177735 -0.195312,-0.2734375 -0.771484,-0.546875 -0.229492,-0.1074219 -0.50293,-0.2001953 -0.273437,-0.092773 -0.727539,-0.2587891 -0.439453,0.2392578 -0.708008,0.6494141 -0.263672,0.4101562 -0.263672,0.9277344 0,0.6591797 0.454102,1.08886716 0.454101,0.4296875 1.152344,0.4296875 0.71289,0 1.137695,-0.36621094 0.429687,-0.36621092 0.429687,-1.00585932 z"
     style="fill:#262626"
     id="path8689" /></g>
   </g>
        <g
           xml:space="preserve"
           font-family="FreeSans"
           font-weight="normal"
           font-style="normal"
           transform="translate(390.014,272.185)"
           font-size="10px"
           id="g8121">
    <g
   aria-label="1"
   id="text8119"
   style="fill:#262626"><path
     d="M 5.2929687,0 H 1.3574219 V -0.7421875 H 2.8710938 V -5.6152344 H 1.3574219 v -0.6640625 q 0.3076172,0 0.6591797,-0.048828 0.3515625,-0.053711 0.5322265,-0.1513672 0.2246094,-0.1220703 0.3515625,-0.3076172 0.131836,-0.1904297 0.1513672,-0.5078125 h 0.756836 v 6.5527344 h 1.4843749 z"
     style="fill:#262626"
     id="path8692" /></g>
   </g>
        <path
           id="polyline8123"
           style="fill:none;stroke:#262626;stroke-width:0.5"
           d="m 56.455,256.683 h 3.3612" />
        <path
           id="polyline8125"
           style="fill:none;stroke:#262626;stroke-width:0.5"
           d="m 393.014,256.683 h -3.361" />
        <path
           id="polyline8127"
           style="fill:none;stroke:#262626;stroke-width:0.5"
           d="m 56.455,197.92 h 3.3612" />
        <path
           id="polyline8129"
           style="fill:none;stroke:#262626;stroke-width:0.5"
           d="m 393.014,197.92 h -3.361" />
        <path
           id="polyline8131"
           style="fill:none;stroke:#262626;stroke-width:0.5"
           d="m 56.455,139.157 h 3.3612" />
        <path
           id="polyline8133"
           style="fill:none;stroke:#262626;stroke-width:0.5"
           d="m 393.014,139.157 h -3.361" />
        <path
           id="polyline8135"
           style="fill:none;stroke:#262626;stroke-width:0.5"
           d="m 56.455,80.3937 h 3.3612" />
        <path
           id="polyline8137"
           style="fill:none;stroke:#262626;stroke-width:0.5"
           d="m 393.014,80.3937 h -3.361" />
        <path
           id="polyline8139"
           style="fill:none;stroke:#262626;stroke-width:0.5"
           d="m 56.455,21.6306 h 3.3612" />
        <path
           id="polyline8141"
           style="fill:none;stroke:#262626;stroke-width:0.5"
           d="m 393.014,21.6306 h -3.361" />
        <g
           xml:space="preserve"
           font-family="FreeSans"
           font-weight="normal"
           font-style="normal"
           transform="translate(45.4616,260.683)"
           font-size="10px"
           id="g8145">
    <g
   aria-label="0"
   id="text8143"
   style="fill:#262626"><path
     d="m 5.6982422,-3.6376953 q 0,1.9580078 -0.6152344,2.87597655 -0.6103516,0.91308594 -1.899414,0.91308594 -1.3085938,0 -1.9140626,-0.92773438 -0.60058589,-0.92773441 -0.60058589,-2.85156251 0,-1.9384765 0.61035159,-2.8613281 0.6103515,-0.9277344 1.9042969,-0.9277344 1.3085937,0 1.9091796,0.9423828 0.6054688,0.9375 0.6054688,2.8369141 z m -1.2841797,2.2167969 q 0.1708984,-0.3955078 0.2294922,-0.9277344 0.063477,-0.5371094 0.063477,-1.2890625 0,-0.7421875 -0.063477,-1.2890625 -0.058594,-0.546875 -0.234375,-0.9277344 -0.1708985,-0.3759765 -0.46875,-0.5664062 -0.2929688,-0.1904297 -0.7568359,-0.1904297 -0.4589844,0 -0.7617188,0.1904297 -0.2978516,0.1904297 -0.4736328,0.5761718 -0.1660156,0.3613282 -0.2294922,0.9423829 -0.058594,0.5810546 -0.058594,1.274414 0,0.7617188 0.053711,1.2744141 0.053711,0.5126953 0.2294922,0.9179687 0.1611328,0.3808594 0.4541015,0.58105471 0.2978516,0.20019532 0.7861329,0.20019532 0.4589843,0 0.7617187,-0.19042969 0.3027344,-0.19042964 0.4687502,-0.57617184 z"
     style="fill:#262626"
     id="path8705" /></g>
   </g>
        <g
           xml:space="preserve"
           font-family="FreeSans"
           font-weight="normal"
           font-style="normal"
           transform="translate(36.4616,201.92)"
           font-size="10px"
           id="g8149">
    <g
   aria-label="0.1"
   id="text8147"
   style="fill:#262626"><path
     d="m 5.6982422,-3.6376953 q 0,1.9580078 -0.6152344,2.87597655 -0.6103516,0.91308594 -1.899414,0.91308594 -1.3085938,0 -1.9140626,-0.92773438 -0.60058589,-0.92773441 -0.60058589,-2.85156251 0,-1.9384765 0.61035159,-2.8613281 0.6103515,-0.9277344 1.9042969,-0.9277344 1.3085937,0 1.9091796,0.9423828 0.6054688,0.9375 0.6054688,2.8369141 z m -1.2841797,2.2167969 q 0.1708984,-0.3955078 0.2294922,-0.9277344 0.063477,-0.5371094 0.063477,-1.2890625 0,-0.7421875 -0.063477,-1.2890625 -0.058594,-0.546875 -0.234375,-0.9277344 -0.1708985,-0.3759765 -0.46875,-0.5664062 -0.2929688,-0.1904297 -0.7568359,-0.1904297 -0.4589844,0 -0.7617188,0.1904297 -0.2978516,0.1904297 -0.4736328,0.5761718 -0.1660156,0.3613282 -0.2294922,0.9423829 -0.058594,0.5810546 -0.058594,1.274414 0,0.7617188 0.053711,1.2744141 0.053711,0.5126953 0.2294922,0.9179687 0.1611328,0.3808594 0.4541015,0.58105471 0.2978516,0.20019532 0.7861329,0.20019532 0.4589843,0 0.7617187,-0.19042969 0.3027344,-0.19042964 0.4687502,-0.57617184 z"
     style="fill:#262626"
     id="path8708" /><path
     d="M 8.4023438,0 H 7.2353516 v -1.3916016 h 1.1669922 z"
     style="fill:#262626"
     id="path8710" /><path
     d="m 14.292969,0 h -3.935547 v -0.7421875 h 1.513672 v -4.8730469 h -1.513672 v -0.6640625 q 0.307617,0 0.65918,-0.048828 0.351562,-0.053711 0.532226,-0.1513672 0.22461,-0.1220703 0.351563,-0.3076172 0.131836,-0.1904297 0.151367,-0.5078125 h 0.756836 v 6.5527344 h 1.484375 z"
     style="fill:#262626"
     id="path8712" /></g>
   </g>
        <g
           xml:space="preserve"
           font-family="FreeSans"
           font-weight="normal"
           font-style="normal"
           transform="translate(36.4616,143.157)"
           font-size="10px"
           id="g8153">
    <g
   aria-label="0.2"
   id="text8151"
   style="fill:#262626"><path
     d="m 5.6982422,-3.6376953 q 0,1.9580078 -0.6152344,2.87597655 -0.6103516,0.91308594 -1.899414,0.91308594 -1.3085938,0 -1.9140626,-0.92773438 -0.60058589,-0.92773441 -0.60058589,-2.85156251 0,-1.9384765 0.61035159,-2.8613281 0.6103515,-0.9277344 1.9042969,-0.9277344 1.3085937,0 1.9091796,0.9423828 0.6054688,0.9375 0.6054688,2.8369141 z m -1.2841797,2.2167969 q 0.1708984,-0.3955078 0.2294922,-0.9277344 0.063477,-0.5371094 0.063477,-1.2890625 0,-0.7421875 -0.063477,-1.2890625 -0.058594,-0.546875 -0.234375,-0.9277344 -0.1708985,-0.3759765 -0.46875,-0.5664062 -0.2929688,-0.1904297 -0.7568359,-0.1904297 -0.4589844,0 -0.7617188,0.1904297 -0.2978516,0.1904297 -0.4736328,0.5761718 -0.1660156,0.3613282 -0.2294922,0.9423829 -0.058594,0.5810546 -0.058594,1.274414 0,0.7617188 0.053711,1.2744141 0.053711,0.5126953 0.2294922,0.9179687 0.1611328,0.3808594 0.4541015,0.58105471 0.2978516,0.20019532 0.7861329,0.20019532 0.4589843,0 0.7617187,-0.19042969 0.3027344,-0.19042964 0.4687502,-0.57617184 z"
     style="fill:#262626"
     id="path8715" /><path
     d="M 8.4023438,0 H 7.2353516 v -1.3916016 h 1.1669922 z"
     style="fill:#262626"
     id="path8717" /><path
     d="M 14.708008,0 H 9.7861328 v -1.0205078 q 0.5126952,-0.4394531 1.0253902,-0.8789063 0.517579,-0.4394531 0.961915,-0.8740234 0.9375,-0.9082031 1.284179,-1.4404297 0.34668,-0.5371094 0.34668,-1.1572265 0,-0.5664063 -0.375977,-0.8837891 -0.371093,-0.3222656 -1.040039,-0.3222656 -0.444336,0 -0.961914,0.15625 -0.517578,0.15625 -1.010742,0.4785156 H 9.966797 v -1.0253906 q 0.34668,-0.1708985 0.922851,-0.3125 0.581055,-0.1416016 1.123047,-0.1416016 1.118164,0 1.75293,0.5419922 0.634766,0.5371094 0.634766,1.4599609 0,0.4150391 -0.107422,0.7763672 -0.102539,0.3564453 -0.307617,0.6787109 -0.19043,0.3027344 -0.449219,0.5957032 -0.253906,0.2929687 -0.620117,0.649414 -0.522461,0.5126953 -1.079102,0.9960938 -0.556641,0.4785156 -1.040039,0.88867186 h 3.911133 z"
     style="fill:#262626"
     id="path8719" /></g>
   </g>
        <g
           xml:space="preserve"
           font-family="FreeSans"
           font-weight="normal"
           font-style="normal"
           transform="translate(36.4616,84.3937)"
           font-size="10px"
           id="g8157">
    <g
   aria-label="0.3"
   id="text8155"
   style="fill:#262626"><path
     d="m 5.6982422,-3.6376953 q 0,1.9580078 -0.6152344,2.87597655 -0.6103516,0.91308594 -1.899414,0.91308594 -1.3085938,0 -1.9140626,-0.92773438 -0.60058589,-0.92773441 -0.60058589,-2.85156251 0,-1.9384765 0.61035159,-2.8613281 0.6103515,-0.9277344 1.9042969,-0.9277344 1.3085937,0 1.9091796,0.9423828 0.6054688,0.9375 0.6054688,2.8369141 z m -1.2841797,2.2167969 q 0.1708984,-0.3955078 0.2294922,-0.9277344 0.063477,-0.5371094 0.063477,-1.2890625 0,-0.7421875 -0.063477,-1.2890625 -0.058594,-0.546875 -0.234375,-0.9277344 -0.1708985,-0.3759765 -0.46875,-0.5664062 -0.2929688,-0.1904297 -0.7568359,-0.1904297 -0.4589844,0 -0.7617188,0.1904297 -0.2978516,0.1904297 -0.4736328,0.5761718 -0.1660156,0.3613282 -0.2294922,0.9423829 -0.058594,0.5810546 -0.058594,1.274414 0,0.7617188 0.053711,1.2744141 0.053711,0.5126953 0.2294922,0.9179687 0.1611328,0.3808594 0.4541015,0.58105471 0.2978516,0.20019532 0.7861329,0.20019532 0.4589843,0 0.7617187,-0.19042969 0.3027344,-0.19042964 0.4687502,-0.57617184 z"
     style="fill:#262626"
     id="path8722" /><path
     d="M 8.4023438,0 H 7.2353516 v -1.3916016 h 1.1669922 z"
     style="fill:#262626"
     id="path8724" /><path
     d="m 14.068359,-3.5009766 q 0.234375,0.209961 0.385743,0.5273438 0.151367,0.3173828 0.151367,0.8203125 0,0.4980469 -0.180664,0.9130859 -0.180664,0.41503909 -0.507813,0.72265628 -0.366211,0.34179687 -0.864258,0.50781249 -0.493164,0.16113282 -1.083984,0.16113282 -0.605469,0 -1.191406,-0.14648438 -0.585938,-0.14160156 -0.9619143,-0.3125 V -1.328125 h 0.073242 q 0.4150393,0.2734375 0.9765623,0.45410156 0.561524,0.18066407 1.083985,0.18066407 0.307617,0 0.654297,-0.10253907 0.346679,-0.10253906 0.561523,-0.30273436 0.224609,-0.2148438 0.332031,-0.4736328 0.112305,-0.2587891 0.112305,-0.6542969 0,-0.390625 -0.126953,-0.6445313 -0.12207,-0.258789 -0.341797,-0.4052734 -0.219727,-0.1513672 -0.532227,-0.2050781 -0.3125,-0.058594 -0.673828,-0.058594 h -0.439453 v -0.8105468 h 0.341797 q 0.742188,0 1.181641,-0.3076172 0.444336,-0.3125 0.444336,-0.9082031 0,-0.2636719 -0.112305,-0.4589844 -0.112305,-0.2001953 -0.3125,-0.3271485 -0.209961,-0.1269531 -0.449219,-0.1757812 -0.239258,-0.048828 -0.541992,-0.048828 -0.463867,0 -0.986328,0.1660156 -0.522461,0.1660156 -0.986328,0.46875 h -0.04883 v -1.0205078 q 0.346679,-0.1708985 0.922851,-0.3125 0.581055,-0.1464844 1.123047,-0.1464844 0.532227,0 0.9375,0.097656 0.405274,0.097656 0.732422,0.3125 0.351562,0.234375 0.532227,0.5664062 0.180664,0.3320313 0.180664,0.7763672 0,0.6054687 -0.429688,1.0595703 -0.424805,0.4492188 -1.005859,0.5664063 v 0.068359 q 0.234375,0.039063 0.537109,0.1660156 0.302734,0.1220704 0.512695,0.3076172 z"
     style="fill:#262626"
     id="path8726" /></g>
   </g>
        <g
           xml:space="preserve"
           font-family="FreeSans"
           font-weight="normal"
           font-style="normal"
           transform="translate(36.4616,25.6306)"
           font-size="10px"
           id="g8161">
    <g
   aria-label="0.4"
   id="text8159"
   style="fill:#262626"><path
     d="m 5.6982422,-3.6376953 q 0,1.9580078 -0.6152344,2.87597655 -0.6103516,0.91308594 -1.899414,0.91308594 -1.3085938,0 -1.9140626,-0.92773438 -0.60058589,-0.92773441 -0.60058589,-2.85156251 0,-1.9384765 0.61035159,-2.8613281 0.6103515,-0.9277344 1.9042969,-0.9277344 1.3085937,0 1.9091796,0.9423828 0.6054688,0.9375 0.6054688,2.8369141 z m -1.2841797,2.2167969 q 0.1708984,-0.3955078 0.2294922,-0.9277344 0.063477,-0.5371094 0.063477,-1.2890625 0,-0.7421875 -0.063477,-1.2890625 -0.058594,-0.546875 -0.234375,-0.9277344 -0.1708985,-0.3759765 -0.46875,-0.5664062 -0.2929688,-0.1904297 -0.7568359,-0.1904297 -0.4589844,0 -0.7617188,0.1904297 -0.2978516,0.1904297 -0.4736328,0.5761718 -0.1660156,0.3613282 -0.2294922,0.9423829 -0.058594,0.5810546 -0.058594,1.274414 0,0.7617188 0.053711,1.2744141 0.053711,0.5126953 0.2294922,0.9179687 0.1611328,0.3808594 0.4541015,0.58105471 0.2978516,0.20019532 0.7861329,0.20019532 0.4589843,0 0.7617187,-0.19042969 0.3027344,-0.19042964 0.4687502,-0.57617184 z"
     style="fill:#262626"
     id="path8729" /><path
     d="M 8.4023438,0 H 7.2353516 v -1.3916016 h 1.1669922 z"
     style="fill:#262626"
     id="path8731" /><path
     d="M 14.874023,-2.0458984 H 13.794922 V 0 h -0.9375 V -2.0458984 H 9.3759766 v -1.1230469 l 3.5205074,-4.1015625 h 0.898438 v 4.4433594 h 1.079101 z m -2.016601,-0.78125 v -3.28125 l -2.817383,3.28125 z"
     style="fill:#262626"
     id="path8733" /></g>
   </g>
        <path
           id="polyline8163"
           style="fill:none;stroke:#262626;stroke-width:0.5;stroke-linecap:square;stroke-dasharray:16, 0"
           d="M 56.455,256.683 H 393.014" />
        <path
           id="polyline8165"
           style="fill:none;stroke:#262626;stroke-width:0.5;stroke-linecap:square;stroke-dasharray:16, 0"
           d="M 56.455,21.6306 H 393.014" />
        <path
           id="polyline8167"
           style="fill:none;stroke:#262626;stroke-width:0.5;stroke-linecap:square;stroke-dasharray:16, 0"
           d="M 56.455,256.683 V 21.6306" />
        <path
           id="polyline8169"
           style="fill:none;stroke:#262626;stroke-width:0.5;stroke-linecap:square;stroke-dasharray:16, 0"
           d="M 393.014,256.683 V 21.6306" />
        <path
           id="polyline8171"
           style="fill:none;stroke:#0071bc;stroke-width:0.5;stroke-linejoin:round"
           d="m 64.869,239.722 8.414,-16.857 8.4139,-16.648 8.414,-16.336 8.414,-15.925 8.4141,-15.415 8.414,-14.81 8.414,-14.114 8.414,-13.33 8.414,-12.464 8.414,-11.5225 8.414,-10.5086 8.414,-9.4304 8.414,-8.2939 8.414,-7.1064 8.414,-5.8751 8.414,-4.6074 8.413,-3.3115 8.414,-1.9951 8.414,-0.6665 8.414,0.6665 8.414,1.9951 8.414,3.3115 8.414,4.6074 8.414,5.8751 8.414,7.1064 8.414,8.2939 8.414,9.4304 8.414,10.5086 8.414,11.5225 8.414,12.464 8.414,13.33 8.414,14.114 8.414,14.81 8.414,15.415 8.414,15.925 8.414,16.336 8.414,16.648 8.414,16.857" />
        <path
           id="polyline8173"
           style="fill:none;stroke:#d85218;stroke-width:0.5;stroke-linecap:round;stroke-linejoin:round"
           d="m 67.869,239.722 -0.5729,1.764 -1.5,1.089 H 63.942 l -1.5,-1.089 -0.573,-1.764 0.573,-1.763 1.5,-1.09 h 1.8541 l 1.5,1.09 0.5729,1.763" />
        <path
           id="polyline8175"
           style="fill:none;stroke:#d85218;stroke-width:0.5;stroke-linecap:round;stroke-linejoin:round"
           d="m 76.283,222.866 -0.573,1.763 -1.5,1.09 h -1.8541 l -1.5,-1.09 -0.5729,-1.763 0.5729,-1.763 1.5,-1.09 H 74.21 l 1.5,1.09 0.573,1.763" />
        <path
           id="polyline8177"
           style="fill:none;stroke:#d85218;stroke-width:0.5;stroke-linecap:round;stroke-linejoin:round"
           d="m 84.6969,206.218 -0.5729,1.764 -1.5,1.09 h -1.8541 l -1.5,-1.09 -0.573,-1.764 0.573,-1.763 1.5,-1.09 h 1.8541 l 1.5,1.09 0.5729,1.763" />
        <path
           id="polyline8179"
           style="fill:none;stroke:#d85218;stroke-width:0.5;stroke-linecap:round;stroke-linejoin:round"
           d="m 93.1109,189.882 -0.5729,1.763 -1.5,1.09 h -1.8541 l -1.5,-1.09 -0.573,-1.763 0.573,-1.763 1.5,-1.09 h 1.8541 l 1.5,1.09 0.5729,1.763" />
        <path
           id="polyline8181"
           style="fill:none;stroke:#d85218;stroke-width:0.5;stroke-linecap:round;stroke-linejoin:round"
           d="m 101.525,173.957 -0.573,1.763 -1.5001,1.09 h -1.8541 l -1.5,-1.09 -0.5729,-1.763 0.5729,-1.763 1.5,-1.09 h 1.8541 l 1.5001,1.09 0.573,1.763" />
        <path
           id="polyline8183"
           style="fill:none;stroke:#d85218;stroke-width:0.5;stroke-linecap:round;stroke-linejoin:round"
           d="m 109.939,158.542 -0.573,1.764 -1.5,1.09 h -1.854 l -1.5,-1.09 -0.573,-1.764 0.573,-1.763 1.5,-1.09 h 1.854 l 1.5,1.09 0.573,1.763" />
        <path
           id="polyline8185"
           style="fill:none;stroke:#d85218;stroke-width:0.5;stroke-linecap:round;stroke-linejoin:round"
           d="m 118.353,143.733 -0.573,1.763 -1.5,1.09 h -1.854 l -1.5,-1.09 -0.573,-1.763 0.573,-1.764 1.5,-1.089 h 1.854 l 1.5,1.089 0.573,1.764" />
        <path
           id="polyline8187"
           style="fill:none;stroke:#d85218;stroke-width:0.5;stroke-linecap:round;stroke-linejoin:round"
           d="m 126.767,129.62 -0.573,1.763 -1.5,1.09 h -1.854 l -1.5,-1.09 -0.573,-1.763 0.573,-1.764 1.5,-1.09 h 1.854 l 1.5,1.09 0.573,1.764" />
        <path
           id="polyline8189"
           style="fill:none;stroke:#d85218;stroke-width:0.5;stroke-linecap:round;stroke-linejoin:round"
           d="m 135.181,116.29 -0.573,1.763 -1.5,1.09 h -1.854 l -1.5,-1.09 -0.573,-1.763 0.573,-1.764 1.5,-1.089 h 1.854 l 1.5,1.089 0.573,1.764" />
        <path
           id="polyline8191"
           style="fill:none;stroke:#d85218;stroke-width:0.5;stroke-linecap:round;stroke-linejoin:round"
           d="m 143.595,103.825 -0.573,1.764 -1.5,1.09 h -1.854 l -1.5,-1.09 -0.573,-1.764 0.573,-1.763 1.5,-1.09 h 1.854 l 1.5,1.09 0.573,1.763" />
        <path
           id="polyline8193"
           style="fill:none;stroke:#d85218;stroke-width:0.5;stroke-linecap:round;stroke-linejoin:round"
           d="m 152.009,92.3036 -0.573,1.7634 -1.5,1.0898 h -1.854 l -1.5,-1.0898 -0.573,-1.7634 0.573,-1.7634 1.5,-1.0898 h 1.854 l 1.5,1.0898 0.573,1.7634" />
        <path
           id="polyline8195"
           style="fill:none;stroke:#d85218;stroke-width:0.5;stroke-linecap:round;stroke-linejoin:round"
           d="m 160.423,81.7952 -0.573,1.7634 -1.5,1.0898 h -1.854 l -1.5,-1.0898 -0.573,-1.7634 0.573,-1.7634 1.5,-1.0898 h 1.854 l 1.5,1.0898 0.573,1.7634" />
        <path
           id="polyline8197"
           style="fill:none;stroke:#d85218;stroke-width:0.5;stroke-linecap:round;stroke-linejoin:round"
           d="m 168.837,72.365 -0.573,1.7634 -1.5,1.0898 h -1.854 l -1.5,-1.0898 -0.573,-1.7634 0.573,-1.7633 1.5,-1.0898 h 1.854 l 1.5,1.0898 0.573,1.7633" />
        <path
           id="polyline8199"
           style="fill:none;stroke:#d85218;stroke-width:0.5;stroke-linecap:round;stroke-linejoin:round"
           d="m 177.251,64.0713 -0.573,1.7633 -1.5,1.0898 h -1.854 l -1.5,-1.0898 -0.573,-1.7633 0.573,-1.7634 1.5,-1.0898 h 1.854 l 1.5,1.0898 0.573,1.7634" />
        <path
           id="polyline8201"
           style="fill:none;stroke:#d85218;stroke-width:0.5;stroke-linecap:round;stroke-linejoin:round"
           d="m 185.665,56.965 -0.573,1.7633 -1.5,1.0898 h -1.854 l -1.5,-1.0898 -0.573,-1.7633 0.573,-1.7634 1.5,-1.0898 h 1.854 l 1.5,1.0898 0.573,1.7634" />
        <path
           id="polyline8203"
           style="fill:none;stroke:#d85218;stroke-width:0.5;stroke-linecap:round;stroke-linejoin:round"
           d="m 194.079,51.09 -0.573,1.7634 -1.5,1.0898 h -1.854 l -1.5,-1.0898 -0.573,-1.7634 0.573,-1.7633 1.5,-1.0898 h 1.854 l 1.5,1.0898 0.573,1.7633" />
        <path
           id="polyline8205"
           style="fill:none;stroke:#d85218;stroke-width:0.5;stroke-linecap:round;stroke-linejoin:round"
           d="m 202.493,46.4827 -0.573,1.7633 -1.5,1.0898 h -1.855 l -1.5,-1.0898 -0.572,-1.7633 0.572,-1.7634 1.5,-1.0898 h 1.855 l 1.5,1.0898 0.573,1.7634" />
        <path
           id="polyline8207"
           style="fill:none;stroke:#d85218;stroke-width:0.5;stroke-linecap:round;stroke-linejoin:round"
           d="m 210.907,43.1712 -0.573,1.7634 -1.5,1.0898 h -1.855 l -1.5,-1.0898 -0.572,-1.7634 0.572,-1.7633 1.5,-1.0898 h 1.855 l 1.5,1.0898 0.573,1.7633" />
        <path
           id="polyline8209"
           style="fill:none;stroke:#d85218;stroke-width:0.5;stroke-linecap:round;stroke-linejoin:round"
           d="m 219.32,41.1762 -0.572,1.7633 -1.5,1.0898 h -1.855 l -1.5,-1.0898 -0.573,-1.7633 0.573,-1.7634 1.5,-1.0898 h 1.855 l 1.5,1.0898 0.572,1.7634" />
        <path
           id="polyline8211"
           style="fill:none;stroke:#d85218;stroke-width:0.5;stroke-linecap:round;stroke-linejoin:round"
           d="m 227.734,40.5098 -0.573,1.7633 -1.5,1.0898 h -1.854 l -1.5,-1.0898 -0.573,-1.7633 0.573,-1.7634 1.5,-1.0898 h 1.854 l 1.5,1.0898 0.573,1.7634" />
        <path
           id="polyline8213"
           style="fill:none;stroke:#d85218;stroke-width:0.5;stroke-linecap:round;stroke-linejoin:round"
           d="m 236.148,41.1762 -0.573,1.7633 -1.5,1.0898 h -1.854 l -1.5,-1.0898 -0.573,-1.7633 0.573,-1.7634 1.5,-1.0898 h 1.854 l 1.5,1.0898 0.573,1.7634" />
        <path
           id="polyline8215"
           style="fill:none;stroke:#d85218;stroke-width:0.5;stroke-linecap:round;stroke-linejoin:round"
           d="m 244.562,43.1712 -0.573,1.7634 -1.5,1.0898 h -1.854 l -1.5,-1.0898 -0.573,-1.7634 0.573,-1.7633 1.5,-1.0898 h 1.854 l 1.5,1.0898 0.573,1.7633" />
        <path
           id="polyline8217"
           style="fill:none;stroke:#d85218;stroke-width:0.5;stroke-linecap:round;stroke-linejoin:round"
           d="m 252.976,46.4827 -0.573,1.7633 -1.5,1.0898 h -1.854 l -1.5,-1.0898 -0.573,-1.7633 0.573,-1.7634 1.5,-1.0898 h 1.854 l 1.5,1.0898 0.573,1.7634" />
        <path
           id="polyline8219"
           style="fill:none;stroke:#d85218;stroke-width:0.5;stroke-linecap:round;stroke-linejoin:round"
           d="m 261.39,51.09 -0.573,1.7634 -1.5,1.0898 h -1.854 l -1.5,-1.0898 -0.573,-1.7634 0.573,-1.7633 1.5,-1.0898 h 1.854 l 1.5,1.0898 0.573,1.7633" />
        <path
           id="polyline8221"
           style="fill:none;stroke:#d85218;stroke-width:0.5;stroke-linecap:round;stroke-linejoin:round"
           d="m 269.804,56.965 -0.573,1.7633 -1.5,1.0898 h -1.854 l -1.5,-1.0898 -0.573,-1.7633 0.573,-1.7634 1.5,-1.0898 h 1.854 l 1.5,1.0898 0.573,1.7634" />
        <path
           id="polyline8223"
           style="fill:none;stroke:#d85218;stroke-width:0.5;stroke-linecap:round;stroke-linejoin:round"
           d="m 278.218,64.0713 -0.573,1.7633 -1.5,1.0898 h -1.854 l -1.5,-1.0898 -0.573,-1.7633 0.573,-1.7634 1.5,-1.0898 h 1.854 l 1.5,1.0898 0.573,1.7634" />
        <path
           id="polyline8225"
           style="fill:none;stroke:#d85218;stroke-width:0.5;stroke-linecap:round;stroke-linejoin:round"
           d="m 286.632,72.365 -0.573,1.7634 -1.5,1.0898 h -1.854 l -1.5,-1.0898 -0.573,-1.7634 0.573,-1.7633 1.5,-1.0898 h 1.854 l 1.5,1.0898 0.573,1.7633" />
        <path
           id="polyline8227"
           style="fill:none;stroke:#d85218;stroke-width:0.5;stroke-linecap:round;stroke-linejoin:round"
           d="m 295.046,81.7952 -0.573,1.7634 -1.5,1.0898 h -1.854 l -1.5,-1.0898 -0.573,-1.7634 0.573,-1.7634 1.5,-1.0898 h 1.854 l 1.5,1.0898 0.573,1.7634" />
        <path
           id="polyline8229"
           style="fill:none;stroke:#d85218;stroke-width:0.5;stroke-linecap:round;stroke-linejoin:round"
           d="m 303.46,92.3036 -0.573,1.7634 -1.5,1.0898 h -1.854 l -1.5,-1.0898 -0.573,-1.7634 0.573,-1.7634 1.5,-1.0898 h 1.854 l 1.5,1.0898 0.573,1.7634" />
        <path
           id="polyline8231"
           style="fill:none;stroke:#d85218;stroke-width:0.5;stroke-linecap:round;stroke-linejoin:round"
           d="m 311.874,103.825 -0.573,1.764 -1.5,1.09 h -1.854 l -1.5,-1.09 -0.573,-1.764 0.573,-1.763 1.5,-1.09 h 1.854 l 1.5,1.09 0.573,1.763" />
        <path
           id="polyline8233"
           style="fill:none;stroke:#d85218;stroke-width:0.5;stroke-linecap:round;stroke-linejoin:round"
           d="m 320.288,116.29 -0.573,1.763 -1.5,1.09 h -1.854 l -1.5,-1.09 -0.573,-1.763 0.573,-1.764 1.5,-1.089 h 1.854 l 1.5,1.089 0.573,1.764" />
        <path
           id="polyline8235"
           style="fill:none;stroke:#d85218;stroke-width:0.5;stroke-linecap:round;stroke-linejoin:round"
           d="m 328.702,129.62 -0.573,1.763 -1.5,1.09 h -1.854 l -1.5,-1.09 -0.573,-1.763 0.573,-1.764 1.5,-1.09 h 1.854 l 1.5,1.09 0.573,1.764" />
        <path
           id="polyline8237"
           style="fill:none;stroke:#d85218;stroke-width:0.5;stroke-linecap:round;stroke-linejoin:round"
           d="m 337.116,143.733 -0.573,1.763 -1.5,1.09 h -1.854 l -1.5,-1.09 -0.573,-1.763 0.573,-1.764 1.5,-1.089 h 1.854 l 1.5,1.089 0.573,1.764" />
        <path
           id="polyline8239"
           style="fill:none;stroke:#d85218;stroke-width:0.5;stroke-linecap:round;stroke-linejoin:round"
           d="m 345.53,158.542 -0.573,1.764 -1.5,1.09 h -1.854 l -1.5,-1.09 -0.573,-1.764 0.573,-1.763 1.5,-1.09 h 1.854 l 1.5,1.09 0.573,1.763" />
        <path
           id="polyline8241"
           style="fill:none;stroke:#d85218;stroke-width:0.5;stroke-linecap:round;stroke-linejoin:round"
           d="m 353.944,173.957 -0.573,1.763 -1.5,1.09 h -1.854 l -1.5,-1.09 -0.573,-1.763 0.573,-1.763 1.5,-1.09 h 1.854 l 1.5,1.09 0.573,1.763" />
        <path
           id="polyline8243"
           style="fill:none;stroke:#d85218;stroke-width:0.5;stroke-linecap:round;stroke-linejoin:round"
           d="m 362.358,189.882 -0.573,1.763 -1.5,1.09 h -1.854 l -1.5,-1.09 -0.573,-1.763 0.573,-1.763 1.5,-1.09 h 1.854 l 1.5,1.09 0.573,1.763" />
        <path
           id="polyline8245"
           style="fill:none;stroke:#d85218;stroke-width:0.5;stroke-linecap:round;stroke-linejoin:round"
           d="m 370.772,206.218 -0.573,1.764 -1.5,1.09 h -1.854 l -1.5,-1.09 -0.573,-1.764 0.573,-1.763 1.5,-1.09 h 1.854 l 1.5,1.09 0.573,1.763" />
        <path
           id="polyline8247"
           style="fill:none;stroke:#d85218;stroke-width:0.5;stroke-linecap:round;stroke-linejoin:round"
           d="m 379.186,222.866 -0.573,1.763 -1.5,1.09 h -1.854 l -1.5,-1.09 -0.573,-1.763 0.573,-1.763 1.5,-1.09 h 1.854 l 1.5,1.09 0.573,1.763" />
        <path
           id="polyline8249"
           style="fill:none;stroke:#d85218;stroke-width:0.5;stroke-linecap:round;stroke-linejoin:round"
           d="m 387.6,239.722 -0.573,1.764 -1.5,1.089 h -1.854 l -1.5,-1.089 -0.573,-1.764 0.573,-1.763 1.5,-1.09 h 1.854 l 1.5,1.09 0.573,1.763" />
      </g>
    </g>
    <g
       id="g7706"
       transform="translate(420.81818,-0.75)">
      <path
         id="polygon7599"
         style="fill:#ffffff;shape-rendering:crispEdges"
         d="M 0,289 H 419 V 0 H 0 Z" />
      <clipPath
         id="clipPath7807">
        <polygon
           points="0,289 419,289 419,0 0,0 "
           id="polygon7805" />
      </clipPath>
      <g
         clip-path="url(#cp00419289)"
         id="g7704">
        <path
           id="polygon7604"
           style="fill:#ffffff;shape-rendering:crispEdges"
           d="M 54.5323,257.818 H 379.629 V 21.7262 H 54.5323 Z" />
        <path
           id="polyline7606"
           style="fill:none;stroke:#262626;stroke-width:0.5"
           d="m 54.5323,257.818 v -3.252" />
        <path
           id="polyline7608"
           style="fill:none;stroke:#262626;stroke-width:0.5"
           d="m 54.5323,21.7262 v 3.2523" />
        <path
           id="polyline7610"
           style="fill:none;stroke:#262626;stroke-width:0.5"
           d="m 119.552,257.818 v -3.252" />
        <path
           id="polyline7612"
           style="fill:none;stroke:#262626;stroke-width:0.5"
           d="m 119.552,21.7262 v 3.2523" />
        <path
           id="polyline7614"
           style="fill:none;stroke:#262626;stroke-width:0.5"
           d="m 184.571,257.818 v -3.252" />
        <path
           id="polyline7616"
           style="fill:none;stroke:#262626;stroke-width:0.5"
           d="m 184.571,21.7262 v 3.2523" />
        <path
           id="polyline7618"
           style="fill:none;stroke:#262626;stroke-width:0.5"
           d="m 249.59,257.818 v -3.252" />
        <path
           id="polyline7620"
           style="fill:none;stroke:#262626;stroke-width:0.5"
           d="m 249.59,21.7262 v 3.2523" />
        <path
           id="polyline7622"
           style="fill:none;stroke:#262626;stroke-width:0.5"
           d="m 314.61,257.818 v -3.252" />
        <path
           id="polyline7624"
           style="fill:none;stroke:#262626;stroke-width:0.5"
           d="m 314.61,21.7262 v 3.2523" />
        <path
           id="polyline7626"
           style="fill:none;stroke:#262626;stroke-width:0.5"
           d="m 379.629,257.818 v -3.252" />
        <path
           id="polyline7628"
           style="fill:none;stroke:#262626;stroke-width:0.5"
           d="m 379.629,21.7262 v 3.2523" />
        <g
           transform="translate(51.5323,273.321)"
           font-size="10px"
           xml:space="preserve"
           font-weight="normal"
           font-family="FreeSans"
           font-style="normal"
           id="g7632">
    <g
   aria-label="0"
   id="text7630"
   style="fill:#262626"><path
     d="m 5.6982422,-3.6376953 q 0,1.9580078 -0.6152344,2.87597655 -0.6103516,0.91308594 -1.899414,0.91308594 -1.3085938,0 -1.9140626,-0.92773438 -0.60058589,-0.92773441 -0.60058589,-2.85156251 0,-1.9384765 0.61035159,-2.8613281 0.6103515,-0.9277344 1.9042969,-0.9277344 1.3085937,0 1.9091796,0.9423828 0.6054688,0.9375 0.6054688,2.8369141 z m -1.2841797,2.2167969 q 0.1708984,-0.3955078 0.2294922,-0.9277344 0.063477,-0.5371094 0.063477,-1.2890625 0,-0.7421875 -0.063477,-1.2890625 -0.058594,-0.546875 -0.234375,-0.9277344 -0.1708985,-0.3759765 -0.46875,-0.5664062 -0.2929688,-0.1904297 -0.7568359,-0.1904297 -0.4589844,0 -0.7617188,0.1904297 -0.2978516,0.1904297 -0.4736328,0.5761718 -0.1660156,0.3613282 -0.2294922,0.9423829 -0.058594,0.5810546 -0.058594,1.274414 0,0.7617188 0.053711,1.2744141 0.053711,0.5126953 0.2294922,0.9179687 0.1611328,0.3808594 0.4541015,0.58105471 0.2978516,0.20019532 0.7861329,0.20019532 0.4589843,0 0.7617187,-0.19042969 0.3027344,-0.19042964 0.4687502,-0.57617184 z"
     style="fill:#262626"
     id="path8794" /></g>
   </g>
        <g
           transform="translate(112.052,273.321)"
           font-size="10px"
           xml:space="preserve"
           font-weight="normal"
           font-family="FreeSans"
           font-style="normal"
           id="g7636">
    <g
   aria-label="0.2"
   id="text7634"
   style="fill:#262626"><path
     d="m 5.6982422,-3.6376953 q 0,1.9580078 -0.6152344,2.87597655 -0.6103516,0.91308594 -1.899414,0.91308594 -1.3085938,0 -1.9140626,-0.92773438 -0.60058589,-0.92773441 -0.60058589,-2.85156251 0,-1.9384765 0.61035159,-2.8613281 0.6103515,-0.9277344 1.9042969,-0.9277344 1.3085937,0 1.9091796,0.9423828 0.6054688,0.9375 0.6054688,2.8369141 z m -1.2841797,2.2167969 q 0.1708984,-0.3955078 0.2294922,-0.9277344 0.063477,-0.5371094 0.063477,-1.2890625 0,-0.7421875 -0.063477,-1.2890625 -0.058594,-0.546875 -0.234375,-0.9277344 -0.1708985,-0.3759765 -0.46875,-0.5664062 -0.2929688,-0.1904297 -0.7568359,-0.1904297 -0.4589844,0 -0.7617188,0.1904297 -0.2978516,0.1904297 -0.4736328,0.5761718 -0.1660156,0.3613282 -0.2294922,0.9423829 -0.058594,0.5810546 -0.058594,1.274414 0,0.7617188 0.053711,1.2744141 0.053711,0.5126953 0.2294922,0.9179687 0.1611328,0.3808594 0.4541015,0.58105471 0.2978516,0.20019532 0.7861329,0.20019532 0.4589843,0 0.7617187,-0.19042969 0.3027344,-0.19042964 0.4687502,-0.57617184 z"
     style="fill:#262626"
     id="path8797" /><path
     d="M 8.4023438,0 H 7.2353516 v -1.3916016 h 1.1669922 z"
     style="fill:#262626"
     id="path8799" /><path
     d="M 14.708008,0 H 9.7861328 v -1.0205078 q 0.5126952,-0.4394531 1.0253902,-0.8789063 0.517579,-0.4394531 0.961915,-0.8740234 0.9375,-0.9082031 1.284179,-1.4404297 0.34668,-0.5371094 0.34668,-1.1572265 0,-0.5664063 -0.375977,-0.8837891 -0.371093,-0.3222656 -1.040039,-0.3222656 -0.444336,0 -0.961914,0.15625 -0.517578,0.15625 -1.010742,0.4785156 H 9.966797 v -1.0253906 q 0.34668,-0.1708985 0.922851,-0.3125 0.581055,-0.1416016 1.123047,-0.1416016 1.118164,0 1.75293,0.5419922 0.634766,0.5371094 0.634766,1.4599609 0,0.4150391 -0.107422,0.7763672 -0.102539,0.3564453 -0.307617,0.6787109 -0.19043,0.3027344 -0.449219,0.5957032 -0.253906,0.2929687 -0.620117,0.649414 -0.522461,0.5126953 -1.079102,0.9960938 -0.556641,0.4785156 -1.040039,0.88867186 h 3.911133 z"
     style="fill:#262626"
     id="path8801" /></g>
   </g>
        <g
           transform="translate(177.071,273.321)"
           font-size="10px"
           xml:space="preserve"
           font-weight="normal"
           font-family="FreeSans"
           font-style="normal"
           id="g7640">
    <g
   aria-label="0.4"
   id="text7638"
   style="fill:#262626"><path
     d="m 5.6982422,-3.6376953 q 0,1.9580078 -0.6152344,2.87597655 -0.6103516,0.91308594 -1.899414,0.91308594 -1.3085938,0 -1.9140626,-0.92773438 -0.60058589,-0.92773441 -0.60058589,-2.85156251 0,-1.9384765 0.61035159,-2.8613281 0.6103515,-0.9277344 1.9042969,-0.9277344 1.3085937,0 1.9091796,0.9423828 0.6054688,0.9375 0.6054688,2.8369141 z m -1.2841797,2.2167969 q 0.1708984,-0.3955078 0.2294922,-0.9277344 0.063477,-0.5371094 0.063477,-1.2890625 0,-0.7421875 -0.063477,-1.2890625 -0.058594,-0.546875 -0.234375,-0.9277344 -0.1708985,-0.3759765 -0.46875,-0.5664062 -0.2929688,-0.1904297 -0.7568359,-0.1904297 -0.4589844,0 -0.7617188,0.1904297 -0.2978516,0.1904297 -0.4736328,0.5761718 -0.1660156,0.3613282 -0.2294922,0.9423829 -0.058594,0.5810546 -0.058594,1.274414 0,0.7617188 0.053711,1.2744141 0.053711,0.5126953 0.2294922,0.9179687 0.1611328,0.3808594 0.4541015,0.58105471 0.2978516,0.20019532 0.7861329,0.20019532 0.4589843,0 0.7617187,-0.19042969 0.3027344,-0.19042964 0.4687502,-0.57617184 z"
     style="fill:#262626"
     id="path8804" /><path
     d="M 8.4023438,0 H 7.2353516 v -1.3916016 h 1.1669922 z"
     style="fill:#262626"
     id="path8806" /><path
     d="M 14.874023,-2.0458984 H 13.794922 V 0 h -0.9375 V -2.0458984 H 9.3759766 v -1.1230469 l 3.5205074,-4.1015625 h 0.898438 v 4.4433594 h 1.079101 z m -2.016601,-0.78125 v -3.28125 l -2.817383,3.28125 z"
     style="fill:#262626"
     id="path8808" /></g>
   </g>
        <g
           transform="translate(242.09,273.321)"
           font-size="10px"
           xml:space="preserve"
           font-weight="normal"
           font-family="FreeSans"
           font-style="normal"
           id="g7644">
    <g
   aria-label="0.6"
   id="text7642"
   style="fill:#262626"><path
     d="m 5.6982422,-3.6376953 q 0,1.9580078 -0.6152344,2.87597655 -0.6103516,0.91308594 -1.899414,0.91308594 -1.3085938,0 -1.9140626,-0.92773438 -0.60058589,-0.92773441 -0.60058589,-2.85156251 0,-1.9384765 0.61035159,-2.8613281 0.6103515,-0.9277344 1.9042969,-0.9277344 1.3085937,0 1.9091796,0.9423828 0.6054688,0.9375 0.6054688,2.8369141 z m -1.2841797,2.2167969 q 0.1708984,-0.3955078 0.2294922,-0.9277344 0.063477,-0.5371094 0.063477,-1.2890625 0,-0.7421875 -0.063477,-1.2890625 -0.058594,-0.546875 -0.234375,-0.9277344 -0.1708985,-0.3759765 -0.46875,-0.5664062 -0.2929688,-0.1904297 -0.7568359,-0.1904297 -0.4589844,0 -0.7617188,0.1904297 -0.2978516,0.1904297 -0.4736328,0.5761718 -0.1660156,0.3613282 -0.2294922,0.9423829 -0.058594,0.5810546 -0.058594,1.274414 0,0.7617188 0.053711,1.2744141 0.053711,0.5126953 0.2294922,0.9179687 0.1611328,0.3808594 0.4541015,0.58105471 0.2978516,0.20019532 0.7861329,0.20019532 0.4589843,0 0.7617187,-0.19042969 0.3027344,-0.19042964 0.4687502,-0.57617184 z"
     style="fill:#262626"
     id="path8811" /><path
     d="M 8.4023438,0 H 7.2353516 v -1.3916016 h 1.1669922 z"
     style="fill:#262626"
     id="path8813" /><path
     d="m 14.81543,-2.3583984 q 0,1.1083984 -0.732422,1.8115234 -0.727539,0.69824219 -1.78711,0.69824219 -0.537109,0 -0.976562,-0.16601563 -0.439453,-0.16601562 -0.776367,-0.49316406 -0.419922,-0.40527344 -0.6494143,-1.0742187 -0.2246094,-0.6689454 -0.2246094,-1.6113282 0,-0.9667968 0.2050781,-1.7138672 0.2099606,-0.7470703 0.6640626,-1.328125 0.429687,-0.5517578 1.108398,-0.859375 0.678711,-0.3125 1.582032,-0.3125 0.288086,0 0.483398,0.024414 0.195313,0.024414 0.395508,0.087891 v 0.9326172 h -0.04883 q -0.136719,-0.073242 -0.415039,-0.1367187 -0.273438,-0.068359 -0.561524,-0.068359 -1.049804,0 -1.674804,0.6591797 -0.625,0.6542969 -0.727539,1.7724609 0.410156,-0.2490234 0.805664,-0.3759765 0.40039,-0.131836 0.922851,-0.131836 0.463867,0 0.81543,0.087891 0.356445,0.083008 0.727539,0.3417969 0.429687,0.2978516 0.644531,0.7519531 0.219727,0.4541016 0.219727,1.1035157 z m -0.991211,0.039063 q 0,-0.4541016 -0.136719,-0.7519532 -0.131836,-0.2978515 -0.439453,-0.5175781 -0.224609,-0.15625 -0.498047,-0.2050781 -0.273437,-0.048828 -0.571289,-0.048828 -0.415039,0 -0.771484,0.097656 -0.356446,0.097656 -0.732422,0.3027344 -0.0098,0.1074219 -0.01465,0.2099609 -0.0049,0.097656 -0.0049,0.2490235 0,0.7714843 0.15625,1.2207031 0.161133,0.4443359 0.439454,0.703125 0.224609,0.21484374 0.483398,0.3173828 0.263672,0.0976563 0.571289,0.0976563 0.708008,0 1.113281,-0.4296875 0.405274,-0.4345704 0.405274,-1.2451172 z"
     style="fill:#262626"
     id="path8815" /></g>
   </g>
        <g
           transform="translate(307.109,273.321)"
           font-size="10px"
           xml:space="preserve"
           font-weight="normal"
           font-family="FreeSans"
           font-style="normal"
           id="g7648">
    <g
   aria-label="0.8"
   id="text7646"
   style="fill:#262626"><path
     d="m 5.6982422,-3.6376953 q 0,1.9580078 -0.6152344,2.87597655 -0.6103516,0.91308594 -1.899414,0.91308594 -1.3085938,0 -1.9140626,-0.92773438 -0.60058589,-0.92773441 -0.60058589,-2.85156251 0,-1.9384765 0.61035159,-2.8613281 0.6103515,-0.9277344 1.9042969,-0.9277344 1.3085937,0 1.9091796,0.9423828 0.6054688,0.9375 0.6054688,2.8369141 z m -1.2841797,2.2167969 q 0.1708984,-0.3955078 0.2294922,-0.9277344 0.063477,-0.5371094 0.063477,-1.2890625 0,-0.7421875 -0.063477,-1.2890625 -0.058594,-0.546875 -0.234375,-0.9277344 -0.1708985,-0.3759765 -0.46875,-0.5664062 -0.2929688,-0.1904297 -0.7568359,-0.1904297 -0.4589844,0 -0.7617188,0.1904297 -0.2978516,0.1904297 -0.4736328,0.5761718 -0.1660156,0.3613282 -0.2294922,0.9423829 -0.058594,0.5810546 -0.058594,1.274414 0,0.7617188 0.053711,1.2744141 0.053711,0.5126953 0.2294922,0.9179687 0.1611328,0.3808594 0.4541015,0.58105471 0.2978516,0.20019532 0.7861329,0.20019532 0.4589843,0 0.7617187,-0.19042969 0.3027344,-0.19042964 0.4687502,-0.57617184 z"
     style="fill:#262626"
     id="path8818" /><path
     d="M 8.4023438,0 H 7.2353516 v -1.3916016 h 1.1669922 z"
     style="fill:#262626"
     id="path8820" /><path
     d="m 14.761719,-2.0263672 q 0,0.9423828 -0.737305,1.56738282 -0.732422,0.625 -1.845703,0.625 -1.181641,0 -1.884766,-0.61035156 -0.6982419,-0.61035156 -0.6982419,-1.56249996 0,-0.6054688 0.3515625,-1.09375 0.3515624,-0.4931641 0.9912114,-0.78125 v -0.029297 q -0.585938,-0.3125 -0.869141,-0.6835938 -0.2783204,-0.3710937 -0.2783204,-0.9277343 0,-0.8203125 0.6738284,-1.3671875 0.673828,-0.546875 1.713867,-0.546875 1.088867,0 1.738281,0.5224609 0.649414,0.5224609 0.649414,1.328125 0,0.4931641 -0.307617,0.9716797 -0.307617,0.4736328 -0.90332,0.7421875 v 0.029297 q 0.683594,0.2929687 1.044922,0.7226562 0.361328,0.4296875 0.361328,1.09375 z m -1.157227,-3.5498047 q 0,-0.5224609 -0.405273,-0.8300781 -0.400391,-0.3125 -1.025391,-0.3125 -0.615234,0 -1.010742,0.2929688 -0.390625,0.2929687 -0.390625,0.7910156 0,0.3515625 0.195312,0.6103515 0.200196,0.2539063 0.600586,0.4541016 0.180664,0.087891 0.517579,0.2294922 0.341796,0.1416016 0.664062,0.234375 0.483398,-0.3222656 0.668945,-0.6689453 0.185547,-0.3466797 0.185547,-0.8007813 z m 0.151367,3.6425782 q 0,-0.4492188 -0.200195,-0.7177735 -0.195312,-0.2734375 -0.771484,-0.546875 -0.229492,-0.1074219 -0.50293,-0.2001953 -0.273437,-0.092773 -0.727539,-0.2587891 -0.439453,0.2392578 -0.708008,0.6494141 -0.263672,0.4101562 -0.263672,0.9277344 0,0.6591797 0.454102,1.08886716 0.454101,0.4296875 1.152344,0.4296875 0.71289,0 1.137695,-0.36621094 0.429687,-0.36621092 0.429687,-1.00585932 z"
     style="fill:#262626"
     id="path8822" /></g>
   </g>
        <g
           transform="translate(376.629,273.321)"
           font-size="10px"
           xml:space="preserve"
           font-weight="normal"
           font-family="FreeSans"
           font-style="normal"
           id="g7652">
    <g
   aria-label="1"
   id="text7650"
   style="fill:#262626"><path
     d="M 5.2929687,0 H 1.3574219 V -0.7421875 H 2.8710938 V -5.6152344 H 1.3574219 v -0.6640625 q 0.3076172,0 0.6591797,-0.048828 0.3515625,-0.053711 0.5322265,-0.1513672 0.2246094,-0.1220703 0.3515625,-0.3076172 0.131836,-0.1904297 0.1513672,-0.5078125 h 0.756836 v 6.5527344 h 1.4843749 z"
     style="fill:#262626"
     id="path8825" /></g>
   </g>
        <path
           id="polyline7654"
           style="fill:none;stroke:#262626;stroke-width:0.5"
           d="m 54.5323,257.818 h 3.252" />
        <path
           id="polyline7656"
           style="fill:none;stroke:#262626;stroke-width:0.5"
           d="m 379.629,257.818 h -3.252" />
        <path
           id="polyline7658"
           style="fill:none;stroke:#262626;stroke-width:0.5"
           d="m 54.5323,198.795 h 3.252" />
        <path
           id="polyline7660"
           style="fill:none;stroke:#262626;stroke-width:0.5"
           d="m 379.629,198.795 h -3.252" />
        <path
           id="polyline7662"
           style="fill:none;stroke:#262626;stroke-width:0.5"
           d="m 54.5323,139.772 h 3.252" />
        <path
           id="polyline7664"
           style="fill:none;stroke:#262626;stroke-width:0.5"
           d="m 379.629,139.772 h -3.252" />
        <path
           id="polyline7666"
           style="fill:none;stroke:#262626;stroke-width:0.5"
           d="m 54.5323,80.7491 h 3.252" />
        <path
           id="polyline7668"
           style="fill:none;stroke:#262626;stroke-width:0.5"
           d="m 379.629,80.7491 h -3.252" />
        <path
           id="polyline7670"
           style="fill:none;stroke:#262626;stroke-width:0.5"
           d="m 54.5323,21.7262 h 3.252" />
        <path
           id="polyline7672"
           style="fill:none;stroke:#262626;stroke-width:0.5"
           d="m 379.629,21.7262 h -3.252" />
        <g
           transform="translate(20.5308,261.818)"
           font-size="10px"
           xml:space="preserve"
           font-weight="normal"
           font-family="FreeSans"
           font-style="normal"
           id="g7676">
    <g
   aria-label="-8e-06"
   id="text7674"
   style="fill:#262626"><path
     d="M 3.7939453,-2.7392578 H 0.74707031 V -3.6230469 H 3.7939453 Z"
     style="fill:#262626"
     id="path8838" /><path
     d="m 8.7617188,-2.0263672 q 0,0.9423828 -0.7373047,1.56738282 -0.7324219,0.625 -1.8457032,0.625 -1.1816406,0 -1.8847656,-0.61035156 -0.6982422,-0.61035156 -0.6982422,-1.56249996 0,-0.6054688 0.3515625,-1.09375 0.3515625,-0.4931641 0.991211,-0.78125 v -0.029297 q -0.5859375,-0.3125 -0.8691407,-0.6835938 -0.2783203,-0.3710937 -0.2783203,-0.9277343 0,-0.8203125 0.6738281,-1.3671875 0.6738282,-0.546875 1.7138672,-0.546875 1.0888672,0 1.7382813,0.5224609 0.6494141,0.5224609 0.6494141,1.328125 0,0.4931641 -0.3076172,0.9716797 -0.3076172,0.4736328 -0.9033204,0.7421875 v 0.029297 q 0.6835938,0.2929687 1.0449219,0.7226562 0.3613282,0.4296875 0.3613282,1.09375 z M 7.6044922,-5.5761719 q 0,-0.5224609 -0.4052735,-0.8300781 -0.4003906,-0.3125 -1.0253906,-0.3125 -0.6152344,0 -1.0107422,0.2929688 -0.390625,0.2929687 -0.390625,0.7910156 0,0.3515625 0.1953125,0.6103515 0.2001953,0.2539063 0.600586,0.4541016 0.180664,0.087891 0.5175781,0.2294922 0.3417969,0.1416016 0.6640625,0.234375 0.4833984,-0.3222656 0.6689453,-0.6689453 0.1855469,-0.3466797 0.1855469,-0.8007813 z m 0.1513672,3.6425782 q 0,-0.4492188 -0.2001953,-0.7177735 Q 7.3603516,-2.9248047 6.7841797,-3.1982422 6.5546875,-3.3056641 6.28125,-3.3984375 6.0078125,-3.4912109 5.5537109,-3.6572266 q -0.4394531,0.2392578 -0.7080078,0.6494141 -0.2636719,0.4101562 -0.2636719,0.9277344 0,0.6591797 0.4541016,1.08886716 0.4541016,0.4296875 1.1523438,0.4296875 0.7128906,0 1.1376953,-0.36621094 0.4296875,-0.36621092 0.4296875,-1.00585932 z"
     style="fill:#262626"
     id="path8840" /><path
     d="m 14.46875,-2.6318359 h -4.018555 q 0,0.5029296 0.151368,0.8789062 0.151367,0.3710938 0.415039,0.6103516 0.253906,0.23437497 0.600586,0.35156248 0.351562,0.1171875 0.771484,0.1171875 0.556641,0 1.118164,-0.21972657 0.566406,-0.22460941 0.805664,-0.43945311 h 0.04883 v 1.00097655 q -0.463867,0.1953125 -0.947265,0.32714844 -0.483399,0.13183593 -1.015625,0.13183593 -1.357422,0 -2.119141,-0.73242187 -0.7617189,-0.73730465 -0.7617189,-2.08984375 0,-1.3378906 0.7275389,-2.1240234 0.732422,-0.7861328 1.923828,-0.7861328 1.103516,0 1.699219,0.6445312 0.600586,0.6445313 0.600586,1.8310547 z m -0.893555,-0.703125 q -0.0049,-0.7226563 -0.366211,-1.1181641 -0.356445,-0.3955078 -1.088867,-0.3955078 -0.737304,0 -1.176758,0.4345703 -0.43457,0.4345703 -0.493164,1.0791016 z"
     style="fill:#262626"
     id="path8842" /><path
     d="M 17.793945,-2.7392578 H 14.74707 v -0.8837891 h 3.046875 z"
     style="fill:#262626"
     id="path8844" /><path
     d="m 22.698242,-3.6376953 q 0,1.9580078 -0.615234,2.87597655 -0.610352,0.91308594 -1.899414,0.91308594 -1.308594,0 -1.914063,-0.92773438 -0.600586,-0.92773441 -0.600586,-2.85156251 0,-1.9384765 0.610352,-2.8613281 0.610351,-0.9277344 1.904297,-0.9277344 1.308593,0 1.909179,0.9423828 0.605469,0.9375 0.605469,2.8369141 z m -1.28418,2.2167969 q 0.170899,-0.3955078 0.229493,-0.9277344 0.06348,-0.5371094 0.06348,-1.2890625 0,-0.7421875 -0.06348,-1.2890625 -0.05859,-0.546875 -0.234375,-0.9277344 -0.170899,-0.3759765 -0.46875,-0.5664062 -0.292969,-0.1904297 -0.756836,-0.1904297 -0.458985,0 -0.761719,0.1904297 -0.297852,0.1904297 -0.473633,0.5761718 -0.166015,0.3613282 -0.229492,0.9423829 -0.05859,0.5810546 -0.05859,1.274414 0,0.7617188 0.05371,1.2744141 0.05371,0.5126953 0.229492,0.9179687 0.161133,0.3808594 0.454102,0.58105471 0.297851,0.20019532 0.786133,0.20019532 0.458984,0 0.761718,-0.19042969 0.302735,-0.19042964 0.46875,-0.57617184 z"
     style="fill:#262626"
     id="path8846" /><path
     d="m 28.81543,-2.3583984 q 0,1.1083984 -0.732422,1.8115234 -0.727539,0.69824219 -1.78711,0.69824219 -0.537109,0 -0.976562,-0.16601563 -0.439453,-0.16601562 -0.776367,-0.49316406 -0.419922,-0.40527344 -0.649414,-1.0742187 -0.22461,-0.6689454 -0.22461,-1.6113282 0,-0.9667968 0.205078,-1.7138672 0.209961,-0.7470703 0.664063,-1.328125 0.429687,-0.5517578 1.108398,-0.859375 0.678711,-0.3125 1.582032,-0.3125 0.288086,0 0.483398,0.024414 0.195313,0.024414 0.395508,0.087891 v 0.9326172 h -0.04883 q -0.136719,-0.073242 -0.415039,-0.1367187 -0.273438,-0.068359 -0.561524,-0.068359 -1.049804,0 -1.674804,0.6591797 -0.625,0.6542969 -0.72754,1.7724609 0.410157,-0.2490234 0.805665,-0.3759765 0.40039,-0.131836 0.922851,-0.131836 0.463867,0 0.81543,0.087891 0.356445,0.083008 0.727539,0.3417969 0.429687,0.2978516 0.644531,0.7519531 0.219727,0.4541016 0.219727,1.1035157 z m -0.991211,0.039063 q 0,-0.4541016 -0.136719,-0.7519532 -0.131836,-0.2978515 -0.439453,-0.5175781 -0.22461,-0.15625 -0.498047,-0.2050781 -0.273438,-0.048828 -0.571289,-0.048828 -0.415039,0 -0.771484,0.097656 -0.356446,0.097656 -0.732422,0.3027344 -0.0098,0.1074219 -0.01465,0.2099609 -0.0049,0.097656 -0.0049,0.2490235 0,0.7714843 0.15625,1.2207031 0.161133,0.4443359 0.439454,0.703125 0.224609,0.21484374 0.483398,0.3173828 0.263672,0.0976563 0.571289,0.0976563 0.708008,0 1.113281,-0.4296875 0.405274,-0.4345704 0.405274,-1.2451172 z"
     style="fill:#262626"
     id="path8848" /></g>
   </g>
        <g
           transform="translate(20.5308,202.795)"
           font-size="10px"
           xml:space="preserve"
           font-weight="normal"
           font-family="FreeSans"
           font-style="normal"
           id="g7680">
    <g
   aria-label="-6e-06"
   id="text7678"
   style="fill:#262626"><path
     d="M 3.7939453,-2.7392578 H 0.74707031 V -3.6230469 H 3.7939453 Z"
     style="fill:#262626"
     id="path8851" /><path
     d="m 8.8154297,-2.3583984 q 0,1.1083984 -0.7324219,1.8115234 -0.7275391,0.69824219 -1.7871094,0.69824219 -0.5371093,0 -0.9765625,-0.16601563 Q 4.8798828,-0.18066406 4.5429687,-0.5078125 4.1230469,-0.91308594 3.8935547,-1.5820312 3.6689453,-2.2509766 3.6689453,-3.1933594 q 0,-0.9667968 0.2050781,-1.7138672 0.209961,-0.7470703 0.6640625,-1.328125 0.4296875,-0.5517578 1.1083985,-0.859375 0.6787109,-0.3125 1.5820312,-0.3125 0.288086,0 0.4833985,0.024414 0.1953125,0.024414 0.3955078,0.087891 v 0.9326172 h -0.048828 q -0.1367188,-0.073242 -0.4150391,-0.1367187 -0.2734375,-0.068359 -0.5615235,-0.068359 -1.0498046,0 -1.6748046,0.6591797 -0.625,0.6542969 -0.7275391,1.7724609 0.4101562,-0.2490234 0.8056641,-0.3759765 0.4003906,-0.131836 0.9228515,-0.131836 0.4638672,0 0.8154297,0.087891 0.3564453,0.083008 0.7275391,0.3417969 0.4296875,0.2978516 0.6445312,0.7519531 0.2197266,0.4541016 0.2197266,1.1035157 z m -0.991211,0.039063 q 0,-0.4541016 -0.1367187,-0.7519532 Q 7.5556641,-3.3691406 7.2480469,-3.5888672 7.0234375,-3.7451172 6.75,-3.7939453 q -0.2734375,-0.048828 -0.5712891,-0.048828 -0.415039,0 -0.7714843,0.097656 -0.3564454,0.097656 -0.7324219,0.3027344 -0.00977,0.1074219 -0.014648,0.2099609 -0.00488,0.097656 -0.00488,0.2490235 0,0.7714843 0.15625,1.2207031 0.1611328,0.4443359 0.4394532,0.703125 0.2246093,0.21484374 0.4833984,0.3173828 0.2636719,0.0976563 0.5712891,0.0976563 0.7080078,0 1.1132812,-0.4296874 0.4052734,-0.4345704 0.4052734,-1.2451172 z"
     style="fill:#262626"
     id="path8853" /><path
     d="m 14.46875,-2.6318359 h -4.018555 q 0,0.5029296 0.151368,0.8789062 0.151367,0.3710938 0.415039,0.6103516 0.253906,0.23437497 0.600586,0.35156248 0.351562,0.1171875 0.771484,0.1171875 0.556641,0 1.118164,-0.21972657 0.566406,-0.22460941 0.805664,-0.43945311 h 0.04883 v 1.00097655 q -0.463867,0.1953125 -0.947265,0.32714844 -0.483399,0.13183593 -1.015625,0.13183593 -1.357422,0 -2.119141,-0.73242187 -0.7617189,-0.73730465 -0.7617189,-2.08984375 0,-1.3378906 0.7275389,-2.1240234 0.732422,-0.7861328 1.923828,-0.7861328 1.103516,0 1.699219,0.6445312 0.600586,0.6445313 0.600586,1.8310547 z m -0.893555,-0.703125 q -0.0049,-0.7226563 -0.366211,-1.1181641 -0.356445,-0.3955078 -1.088867,-0.3955078 -0.737304,0 -1.176758,0.4345703 -0.43457,0.4345703 -0.493164,1.0791016 z"
     style="fill:#262626"
     id="path8855" /><path
     d="M 17.793945,-2.7392578 H 14.74707 v -0.8837891 h 3.046875 z"
     style="fill:#262626"
     id="path8857" /><path
     d="m 22.698242,-3.6376953 q 0,1.9580078 -0.615234,2.87597655 -0.610352,0.91308594 -1.899414,0.91308594 -1.308594,0 -1.914063,-0.92773438 -0.600586,-0.92773441 -0.600586,-2.85156251 0,-1.9384765 0.610352,-2.8613281 0.610351,-0.9277344 1.904297,-0.9277344 1.308593,0 1.909179,0.9423828 0.605469,0.9375 0.605469,2.8369141 z m -1.28418,2.2167969 q 0.170899,-0.3955078 0.229493,-0.9277344 0.06348,-0.5371094 0.06348,-1.2890625 0,-0.7421875 -0.06348,-1.2890625 -0.05859,-0.546875 -0.234375,-0.9277344 -0.170899,-0.3759765 -0.46875,-0.5664062 -0.292969,-0.1904297 -0.756836,-0.1904297 -0.458985,0 -0.761719,0.1904297 -0.297852,0.1904297 -0.473633,0.5761718 -0.166015,0.3613282 -0.229492,0.9423829 -0.05859,0.5810546 -0.05859,1.274414 0,0.7617188 0.05371,1.2744141 0.05371,0.5126953 0.229492,0.9179687 0.161133,0.3808594 0.454102,0.58105471 0.297851,0.20019532 0.786133,0.20019532 0.458984,0 0.761718,-0.19042969 0.302735,-0.19042964 0.46875,-0.57617184 z"
     style="fill:#262626"
     id="path8859" /><path
     d="m 28.81543,-2.3583984 q 0,1.1083984 -0.732422,1.8115234 -0.727539,0.69824219 -1.78711,0.69824219 -0.537109,0 -0.976562,-0.16601563 -0.439453,-0.16601562 -0.776367,-0.49316406 -0.419922,-0.40527344 -0.649414,-1.0742187 -0.22461,-0.6689454 -0.22461,-1.6113282 0,-0.9667968 0.205078,-1.7138672 0.209961,-0.7470703 0.664063,-1.328125 0.429687,-0.5517578 1.108398,-0.859375 0.678711,-0.3125 1.582032,-0.3125 0.288086,0 0.483398,0.024414 0.195313,0.024414 0.395508,0.087891 v 0.9326172 h -0.04883 q -0.136719,-0.073242 -0.415039,-0.1367187 -0.273438,-0.068359 -0.561524,-0.068359 -1.049804,0 -1.674804,0.6591797 -0.625,0.6542969 -0.72754,1.7724609 0.410157,-0.2490234 0.805665,-0.3759765 0.40039,-0.131836 0.922851,-0.131836 0.463867,0 0.81543,0.087891 0.356445,0.083008 0.727539,0.3417969 0.429687,0.2978516 0.644531,0.7519531 0.219727,0.4541016 0.219727,1.1035157 z m -0.991211,0.039063 q 0,-0.4541016 -0.136719,-0.7519532 -0.131836,-0.2978515 -0.439453,-0.5175781 -0.22461,-0.15625 -0.498047,-0.2050781 -0.273438,-0.048828 -0.571289,-0.048828 -0.415039,0 -0.771484,0.097656 -0.356446,0.097656 -0.732422,0.3027344 -0.0098,0.1074219 -0.01465,0.2099609 -0.0049,0.097656 -0.0049,0.2490235 0,0.7714843 0.15625,1.2207031 0.161133,0.4443359 0.439454,0.703125 0.224609,0.21484374 0.483398,0.3173828 0.263672,0.0976563 0.571289,0.0976563 0.708008,0 1.113281,-0.4296875 0.405274,-0.4345704 0.405274,-1.2451172 z"
     style="fill:#262626"
     id="path8861" /></g>
   </g>
        <g
           transform="translate(20.5308,143.772)"
           font-size="10px"
           xml:space="preserve"
           font-weight="normal"
           font-family="FreeSans"
           font-style="normal"
           id="g7684">
    <g
   aria-label="-4e-06"
   id="text7682"
   style="fill:#262626"><path
     d="M 3.7939453,-2.7392578 H 0.74707031 V -3.6230469 H 3.7939453 Z"
     style="fill:#262626"
     id="path8864" /><path
     d="M 8.8740234,-2.0458984 H 7.7949219 V 0 h -0.9375 V -2.0458984 H 3.3759766 v -1.1230469 l 3.5205078,-4.1015625 h 0.8984375 v 4.4433594 h 1.0791015 z m -2.0166015,-0.78125 v -3.28125 l -2.8173828,3.28125 z"
     style="fill:#262626"
     id="path8866" /><path
     d="m 14.46875,-2.6318359 h -4.018555 q 0,0.5029296 0.151368,0.8789062 0.151367,0.3710938 0.415039,0.6103516 0.253906,0.23437497 0.600586,0.35156248 0.351562,0.1171875 0.771484,0.1171875 0.556641,0 1.118164,-0.21972657 0.566406,-0.22460941 0.805664,-0.43945311 h 0.04883 v 1.00097655 q -0.463867,0.1953125 -0.947265,0.32714844 -0.483399,0.13183593 -1.015625,0.13183593 -1.357422,0 -2.119141,-0.73242187 -0.7617189,-0.73730465 -0.7617189,-2.08984375 0,-1.3378906 0.7275389,-2.1240234 0.732422,-0.7861328 1.923828,-0.7861328 1.103516,0 1.699219,0.6445312 0.600586,0.6445313 0.600586,1.8310547 z m -0.893555,-0.703125 q -0.0049,-0.7226563 -0.366211,-1.1181641 -0.356445,-0.3955078 -1.088867,-0.3955078 -0.737304,0 -1.176758,0.4345703 -0.43457,0.4345703 -0.493164,1.0791016 z"
     style="fill:#262626"
     id="path8868" /><path
     d="M 17.793945,-2.7392578 H 14.74707 v -0.8837891 h 3.046875 z"
     style="fill:#262626"
     id="path8870" /><path
     d="m 22.698242,-3.6376953 q 0,1.9580078 -0.615234,2.87597655 -0.610352,0.91308594 -1.899414,0.91308594 -1.308594,0 -1.914063,-0.92773438 -0.600586,-0.92773441 -0.600586,-2.85156251 0,-1.9384765 0.610352,-2.8613281 0.610351,-0.9277344 1.904297,-0.9277344 1.308593,0 1.909179,0.9423828 0.605469,0.9375 0.605469,2.8369141 z m -1.28418,2.2167969 q 0.170899,-0.3955078 0.229493,-0.9277344 0.06348,-0.5371094 0.06348,-1.2890625 0,-0.7421875 -0.06348,-1.2890625 -0.05859,-0.546875 -0.234375,-0.9277344 -0.170899,-0.3759765 -0.46875,-0.5664062 -0.292969,-0.1904297 -0.756836,-0.1904297 -0.458985,0 -0.761719,0.1904297 -0.297852,0.1904297 -0.473633,0.5761718 -0.166015,0.3613282 -0.229492,0.9423829 -0.05859,0.5810546 -0.05859,1.274414 0,0.7617188 0.05371,1.2744141 0.05371,0.5126953 0.229492,0.9179687 0.161133,0.3808594 0.454102,0.58105471 0.297851,0.20019532 0.786133,0.20019532 0.458984,0 0.761718,-0.19042969 0.302735,-0.19042964 0.46875,-0.57617184 z"
     style="fill:#262626"
     id="path8872" /><path
     d="m 28.81543,-2.3583984 q 0,1.1083984 -0.732422,1.8115234 -0.727539,0.69824219 -1.78711,0.69824219 -0.537109,0 -0.976562,-0.16601563 -0.439453,-0.16601562 -0.776367,-0.49316406 -0.419922,-0.40527344 -0.649414,-1.0742187 -0.22461,-0.6689454 -0.22461,-1.6113282 0,-0.9667968 0.205078,-1.7138672 0.209961,-0.7470703 0.664063,-1.328125 0.429687,-0.5517578 1.108398,-0.859375 0.678711,-0.3125 1.582032,-0.3125 0.288086,0 0.483398,0.024414 0.195313,0.024414 0.395508,0.087891 v 0.9326172 h -0.04883 q -0.136719,-0.073242 -0.415039,-0.1367187 -0.273438,-0.068359 -0.561524,-0.068359 -1.049804,0 -1.674804,0.6591797 -0.625,0.6542969 -0.72754,1.7724609 0.410157,-0.2490234 0.805665,-0.3759765 0.40039,-0.131836 0.922851,-0.131836 0.463867,0 0.81543,0.087891 0.356445,0.083008 0.727539,0.3417969 0.429687,0.2978516 0.644531,0.7519531 0.219727,0.4541016 0.219727,1.1035157 z m -0.991211,0.039063 q 0,-0.4541016 -0.136719,-0.7519532 -0.131836,-0.2978515 -0.439453,-0.5175781 -0.22461,-0.15625 -0.498047,-0.2050781 -0.273438,-0.048828 -0.571289,-0.048828 -0.415039,0 -0.771484,0.097656 -0.356446,0.097656 -0.732422,0.3027344 -0.0098,0.1074219 -0.01465,0.2099609 -0.0049,0.097656 -0.0049,0.2490235 0,0.7714843 0.15625,1.2207031 0.161133,0.4443359 0.439454,0.703125 0.224609,0.21484374 0.483398,0.3173828 0.263672,0.0976563 0.571289,0.0976563 0.708008,0 1.113281,-0.4296875 0.405274,-0.4345704 0.405274,-1.2451172 z"
     style="fill:#262626"
     id="path8874" /></g>
   </g>
        <g
           transform="translate(20.5308,84.7491)"
           font-size="10px"
           xml:space="preserve"
           font-weight="normal"
           font-family="FreeSans"
           font-style="normal"
           id="g7688">
    <g
   aria-label="-2e-06"
   id="text7686"
   style="fill:#262626"><path
     d="M 3.7939453,-2.7392578 H 0.74707031 V -3.6230469 H 3.7939453 Z"
     style="fill:#262626"
     id="path8877" /><path
     d="m 8.7080078,0 h -4.921875 v -1.0205078 q 0.5126953,-0.4394531 1.0253906,-0.8789063 0.5175782,-0.4394531 0.9619141,-0.8740234 0.9375,-0.9082031 1.2841797,-1.4404297 0.3466797,-0.5371094 0.3466797,-1.1572265 0,-0.5664063 -0.3759766,-0.8837891 -0.3710937,-0.3222656 -1.0400391,-0.3222656 -0.4443359,0 -0.961914,0.15625 -0.5175781,0.15625 -1.0107422,0.4785156 H 3.966797 v -1.0253906 q 0.3466797,-0.1708985 0.9228515,-0.3125 0.5810547,-0.1416016 1.1230469,-0.1416016 1.1181641,0 1.7529297,0.5419922 0.6347656,0.5371094 0.6347656,1.4599609 0,0.4150391 -0.1074218,0.7763672 -0.1025391,0.3564453 -0.3076172,0.6787109 -0.1904297,0.3027344 -0.4492188,0.5957032 -0.2539062,0.2929687 -0.6201172,0.649414 -0.5224609,0.5126953 -1.0791015,0.9960938 -0.5566407,0.4785156 -1.0400391,0.88867186 h 3.9111328 z"
     style="fill:#262626"
     id="path8879" /><path
     d="m 14.46875,-2.6318359 h -4.018555 q 0,0.5029296 0.151368,0.8789062 0.151367,0.3710938 0.415039,0.6103516 0.253906,0.23437497 0.600586,0.35156248 0.351562,0.1171875 0.771484,0.1171875 0.556641,0 1.118164,-0.21972657 0.566406,-0.22460941 0.805664,-0.43945311 h 0.04883 v 1.00097655 q -0.463867,0.1953125 -0.947265,0.32714844 -0.483399,0.13183593 -1.015625,0.13183593 -1.357422,0 -2.119141,-0.73242187 -0.7617189,-0.73730465 -0.7617189,-2.08984375 0,-1.3378906 0.7275389,-2.1240234 0.732422,-0.7861328 1.923828,-0.7861328 1.103516,0 1.699219,0.6445312 0.600586,0.6445313 0.600586,1.8310547 z m -0.893555,-0.703125 q -0.0049,-0.7226563 -0.366211,-1.1181641 -0.356445,-0.3955078 -1.088867,-0.3955078 -0.737304,0 -1.176758,0.4345703 -0.43457,0.4345703 -0.493164,1.0791016 z"
     style="fill:#262626"
     id="path8881" /><path
     d="M 17.793945,-2.7392578 H 14.74707 v -0.8837891 h 3.046875 z"
     style="fill:#262626"
     id="path8883" /><path
     d="m 22.698242,-3.6376953 q 0,1.9580078 -0.615234,2.87597655 -0.610352,0.91308594 -1.899414,0.91308594 -1.308594,0 -1.914063,-0.92773438 -0.600586,-0.92773441 -0.600586,-2.85156251 0,-1.9384765 0.610352,-2.8613281 0.610351,-0.9277344 1.904297,-0.9277344 1.308593,0 1.909179,0.9423828 0.605469,0.9375 0.605469,2.8369141 z m -1.28418,2.2167969 q 0.170899,-0.3955078 0.229493,-0.9277344 0.06348,-0.5371094 0.06348,-1.2890625 0,-0.7421875 -0.06348,-1.2890625 -0.05859,-0.546875 -0.234375,-0.9277344 -0.170899,-0.3759765 -0.46875,-0.5664062 -0.292969,-0.1904297 -0.756836,-0.1904297 -0.458985,0 -0.761719,0.1904297 -0.297852,0.1904297 -0.473633,0.5761718 -0.166015,0.3613282 -0.229492,0.9423829 -0.05859,0.5810546 -0.05859,1.274414 0,0.7617188 0.05371,1.2744141 0.05371,0.5126953 0.229492,0.9179687 0.161133,0.3808594 0.454102,0.58105471 0.297851,0.20019532 0.786133,0.20019532 0.458984,0 0.761718,-0.19042969 0.302735,-0.19042964 0.46875,-0.57617184 z"
     style="fill:#262626"
     id="path8885" /><path
     d="m 28.81543,-2.3583984 q 0,1.1083984 -0.732422,1.8115234 -0.727539,0.69824219 -1.78711,0.69824219 -0.537109,0 -0.976562,-0.16601563 -0.439453,-0.16601562 -0.776367,-0.49316406 -0.419922,-0.40527344 -0.649414,-1.0742187 -0.22461,-0.6689454 -0.22461,-1.6113282 0,-0.9667968 0.205078,-1.7138672 0.209961,-0.7470703 0.664063,-1.328125 0.429687,-0.5517578 1.108398,-0.859375 0.678711,-0.3125 1.582032,-0.3125 0.288086,0 0.483398,0.024414 0.195313,0.024414 0.395508,0.087891 v 0.9326172 h -0.04883 q -0.136719,-0.073242 -0.415039,-0.1367187 -0.273438,-0.068359 -0.561524,-0.068359 -1.049804,0 -1.674804,0.6591797 -0.625,0.6542969 -0.72754,1.7724609 0.410157,-0.2490234 0.805665,-0.3759765 0.40039,-0.131836 0.922851,-0.131836 0.463867,0 0.81543,0.087891 0.356445,0.083008 0.727539,0.3417969 0.429687,0.2978516 0.644531,0.7519531 0.219727,0.4541016 0.219727,1.1035157 z m -0.991211,0.039063 q 0,-0.4541016 -0.136719,-0.7519532 -0.131836,-0.2978515 -0.439453,-0.5175781 -0.22461,-0.15625 -0.498047,-0.2050781 -0.273438,-0.048828 -0.571289,-0.048828 -0.415039,0 -0.771484,0.097656 -0.356446,0.097656 -0.732422,0.3027344 -0.0098,0.1074219 -0.01465,0.2099609 -0.0049,0.097656 -0.0049,0.2490235 0,0.7714843 0.15625,1.2207031 0.161133,0.4443359 0.439454,0.703125 0.224609,0.21484374 0.483398,0.3173828 0.263672,0.0976563 0.571289,0.0976563 0.708008,0 1.113281,-0.4296875 0.405274,-0.4345704 0.405274,-1.2451172 z"
     style="fill:#262626"
     id="path8887" /></g>
   </g>
        <g
           transform="translate(43.5308,25.7262)"
           font-size="10px"
           xml:space="preserve"
           font-weight="normal"
           font-family="FreeSans"
           font-style="normal"
           id="g7692">
    <g
   aria-label="0"
   id="text7690"
   style="fill:#262626"><path
     d="m 5.6982422,-3.6376953 q 0,1.9580078 -0.6152344,2.87597655 -0.6103516,0.91308594 -1.899414,0.91308594 -1.3085938,0 -1.9140626,-0.92773438 -0.60058589,-0.92773441 -0.60058589,-2.85156251 0,-1.9384765 0.61035159,-2.8613281 0.6103515,-0.9277344 1.9042969,-0.9277344 1.3085937,0 1.9091796,0.9423828 0.6054688,0.9375 0.6054688,2.8369141 z m -1.2841797,2.2167969 q 0.1708984,-0.3955078 0.2294922,-0.9277344 0.063477,-0.5371094 0.063477,-1.2890625 0,-0.7421875 -0.063477,-1.2890625 -0.058594,-0.546875 -0.234375,-0.9277344 -0.1708985,-0.3759765 -0.46875,-0.5664062 -0.2929688,-0.1904297 -0.7568359,-0.1904297 -0.4589844,0 -0.7617188,0.1904297 -0.2978516,0.1904297 -0.4736328,0.5761718 -0.1660156,0.3613282 -0.2294922,0.9423829 -0.058594,0.5810546 -0.058594,1.274414 0,0.7617188 0.053711,1.2744141 0.053711,0.5126953 0.2294922,0.9179687 0.1611328,0.3808594 0.4541015,0.58105471 0.2978516,0.20019532 0.7861329,0.20019532 0.4589843,0 0.7617187,-0.19042969 0.3027344,-0.19042964 0.4687502,-0.57617184 z"
     style="fill:#262626"
     id="path8890" /></g>
   </g>
        <path
           id="polyline7694"
           style="fill:none;stroke:#262626;stroke-width:0.5;stroke-linecap:square;stroke-dasharray:16, 0"
           d="M 54.5323,257.818 H 379.629" />
        <path
           id="polyline7696"
           style="fill:none;stroke:#262626;stroke-width:0.5;stroke-linecap:square;stroke-dasharray:16, 0"
           d="M 54.5323,21.7262 H 379.629" />
        <path
           id="polyline7698"
           style="fill:none;stroke:#262626;stroke-width:0.5;stroke-linecap:square;stroke-dasharray:16, 0"
           d="M 54.5323,257.818 V 21.7262" />
        <path
           id="polyline7700"
           style="fill:none;stroke:#262626;stroke-width:0.5;stroke-linecap:square;stroke-dasharray:16, 0"
           d="M 379.629,257.818 V 21.7262" />
        <path
           id="polyline7702"
           style="fill:none;stroke:#0071bc;stroke-width:0.5;stroke-linejoin:round"
           d="m 62.6597,37.9981 8.1274,16.1715 8.1275,15.9716 8.1274,15.673 8.1274,15.2778 8.1276,14.789 8.127,14.208 8.128,13.54 8.127,12.788 8.127,11.958 8.128,11.054 8.127,10.082 8.128,9.047 8.127,7.957 8.128,6.817 8.127,5.637 8.127,4.42 8.128,3.177 8.127,1.914 8.128,0.639 8.127,-0.639 8.127,-1.914 8.128,-3.177 8.127,-4.42 8.128,-5.637 8.127,-6.817 8.127,-7.957 8.128,-9.047 8.127,-10.082 8.128,-11.054 8.127,-11.958 8.128,-12.788 8.127,-13.54 8.127,-14.208 8.128,-14.789 8.127,-15.2778 8.128,-15.673 8.127,-15.9716 8.127,-16.1715" />
      </g>
    </g>
  </g>
</svg>
