<?xml version="1.0" encoding="UTF-8" standalone="no"?>
<svg
   height="300pt"
   viewBox="0 0 769.49997 285"
   width="810pt"
   version="1.1"
   id="svg674"
   sodipodi:docname="fem1dfig1w.svg"
   inkscape:version="1.1 (c68e22c387, 2021-05-23)"
   xmlns:inkscape="http://www.inkscape.org/namespaces/inkscape"
   xmlns:sodipodi="http://sodipodi.sourceforge.net/DTD/sodipodi-0.dtd"
   xmlns="http://www.w3.org/2000/svg"
   xmlns:svg="http://www.w3.org/2000/svg"
   xmlns:rdf="http://www.w3.org/1999/02/22-rdf-syntax-ns#"
   xmlns:cc="http://creativecommons.org/ns#"
   xmlns:dc="http://purl.org/dc/elements/1.1/">
  <sodipodi:namedview
     id="namedview676"
     pagecolor="#ffffff"
     bordercolor="#666666"
     borderopacity="1.0"
     inkscape:pageshadow="2"
     inkscape:pageopacity="0.0"
     inkscape:pagecheckerboard="0"
     inkscape:document-units="pt"
     showgrid="false"
     inkscape:zoom="0.7"
     inkscape:cx="382.85714"
     inkscape:cy="183.57143"
     inkscape:window-width="1763"
     inkscape:window-height="1055"
     inkscape:window-x="150"
     inkscape:window-y="-7"
     inkscape:window-maximized="1"
     inkscape:current-layer="svg674" />
  <title
     id="title549">Figure 1</title>
  <desc
     id="desc551">
Creator: GL2PS 1.4.2, (C) 1999-2020 C. Geuzaine
For: Octave
CreationDate: Sat Feb 04 10:35:44 2023
</desc>
  <defs
     id="defs553">
    <clipPath
       id="cp00383276">
      <polygon
         points="0,276 383,276 383,0 0,0 "
         id="polygon148" />
    </clipPath>
  </defs>
  <polygon
     fill="#ffffff"
     points="0,0 376,0 376,276 0,276 "
     id="polygon555" />
  <metadata
     id="metadata678">
    <rdf:RDF>
      <cc:Work
         rdf:about="">
        <dc:title>Figure 1</dc:title>
      </cc:Work>
    </rdf:RDF>
  </metadata>
  <g
     id="g1049"
     transform="translate(6.225,4.8)">
    <g
       id="g672">
      <path
         id="polygon557"
         style="fill:#ffffff;shape-rendering:crispEdges"
         d="M 376,276 V 0 H 0 v 276 z" />
      <clipPath
         id="cp00376276">
        <polygon
           points="376,276 376,0 0,0 0,276 "
           id="polygon559" />
      </clipPath>
      <g
         clip-path="url(#cp00376276)"
         id="g670">
        <path
           id="polygon562"
           style="fill:#ffffff;shape-rendering:crispEdges"
           d="M 340.858,246.016 V 20.7317 H 48.9631 V 246.016 Z" />
        <path
           id="polyline564"
           style="fill:none;stroke:#262626;stroke-width:0.5"
           d="m 48.9631,246.016 v -2.922" />
        <path
           id="polyline566"
           style="fill:none;stroke:#262626;stroke-width:0.5"
           d="m 48.9631,20.7317 v 2.9227" />
        <path
           id="polyline568"
           style="fill:none;stroke:#262626;stroke-width:0.5"
           d="m 97.6122,246.016 v -2.922" />
        <path
           id="polyline570"
           style="fill:none;stroke:#262626;stroke-width:0.5"
           d="m 97.6122,20.7317 v 2.9227" />
        <path
           id="polyline572"
           style="fill:none;stroke:#262626;stroke-width:0.5"
           d="m 146.261,246.016 v -2.922" />
        <path
           id="polyline574"
           style="fill:none;stroke:#262626;stroke-width:0.5"
           d="m 146.261,20.7317 v 2.9227" />
        <path
           id="polyline576"
           style="fill:none;stroke:#262626;stroke-width:0.5"
           d="m 194.911,246.016 v -2.922" />
        <path
           id="polyline578"
           style="fill:none;stroke:#262626;stroke-width:0.5"
           d="m 194.911,20.7317 v 2.9227" />
        <path
           id="polyline580"
           style="fill:none;stroke:#262626;stroke-width:0.5"
           d="m 243.56,246.016 v -2.922" />
        <path
           id="polyline582"
           style="fill:none;stroke:#262626;stroke-width:0.5"
           d="m 243.56,20.7317 v 2.9227" />
        <path
           id="polyline584"
           style="fill:none;stroke:#262626;stroke-width:0.5"
           d="m 292.209,246.016 v -2.922" />
        <path
           id="polyline586"
           style="fill:none;stroke:#262626;stroke-width:0.5"
           d="m 292.209,20.7317 v 2.9227" />
        <path
           id="polyline588"
           style="fill:none;stroke:#262626;stroke-width:0.5"
           d="m 340.858,246.016 v -2.922" />
        <path
           id="polyline590"
           style="fill:none;stroke:#262626;stroke-width:0.5"
           d="m 340.858,20.7317 v 2.9227" />
        <g
           font-weight="normal"
           transform="translate(45.9631,261.526)"
           font-style="normal"
           xml:space="preserve"
           font-family="FreeSans"
           font-size="10px"
           id="g594">
    <g
   aria-label="1"
   id="text592"
   style="fill:#262626"><path
     d="M 5.2929687,0 H 1.3574219 V -0.7421875 H 2.8710938 V -5.6152344 H 1.3574219 v -0.6640625 q 0.3076172,0 0.6591797,-0.048828 0.3515625,-0.053711 0.5322265,-0.1513672 0.2246094,-0.1220703 0.3515625,-0.3076172 0.131836,-0.1904297 0.1513672,-0.5078125 h 0.756836 v 6.5527344 h 1.4843749 z"
     style="fill:#262626"
     id="path1067" /></g>
   </g>
        <g
           font-weight="normal"
           transform="translate(90.1122,261.526)"
           font-style="normal"
           xml:space="preserve"
           font-family="FreeSans"
           font-size="10px"
           id="g598">
    <g
   aria-label="1.5"
   id="text596"
   style="fill:#262626"><path
     d="M 5.2929687,0 H 1.3574219 V -0.7421875 H 2.8710938 V -5.6152344 H 1.3574219 v -0.6640625 q 0.3076172,0 0.6591797,-0.048828 0.3515625,-0.053711 0.5322265,-0.1513672 0.2246094,-0.1220703 0.3515625,-0.3076172 0.131836,-0.1904297 0.1513672,-0.5078125 h 0.756836 v 6.5527344 h 1.4843749 z"
     style="fill:#262626"
     id="path1070" /><path
     d="M 8.4023438,0 H 7.2353516 v -1.3916016 h 1.1669922 z"
     style="fill:#262626"
     id="path1072" /><path
     d="m 14.649414,-2.3095703 q 0,0.5078125 -0.185547,0.9716797 -0.185547,0.46386716 -0.507812,0.78124998 -0.351563,0.34179687 -0.839844,0.52734374 -0.483398,0.18066407 -1.123047,0.18066407 -0.595703,0 -1.147461,-0.12695313 -0.551758,-0.12207031 -0.9326171,-0.29785156 v -1.0302734 h 0.068359 q 0.4003911,0.2539062 0.9375001,0.43457027 0.53711,0.17578126 1.054688,0.17578126 0.34668,0 0.668945,-0.0976563 0.327149,-0.0976563 0.581055,-0.34179683 0.214844,-0.2099609 0.322265,-0.5029297 0.112305,-0.2929687 0.112305,-0.6787109 0,-0.3759766 -0.131836,-0.6347657 -0.126953,-0.2587891 -0.356445,-0.4150391 -0.253906,-0.1855468 -0.620117,-0.2587891 -0.361328,-0.078125 -0.810547,-0.078125 -0.429688,0 -0.830078,0.058594 -0.395508,0.058594 -0.683594,0.1171875 v -3.7451172 h 4.375 v 0.8544922 h -3.432617 v 1.9335937 q 0.209961,-0.019531 0.429687,-0.029297 0.219727,-0.00977 0.38086,-0.00977 0.59082,0 1.035156,0.1025391 0.444336,0.097656 0.81543,0.3515625 0.390625,0.2685546 0.605468,0.6933593 0.214844,0.4248046 0.214844,1.0644531 z"
     style="fill:#262626"
     id="path1074" /></g>
   </g>
        <g
           font-weight="normal"
           transform="translate(143.261,261.526)"
           font-style="normal"
           xml:space="preserve"
           font-family="FreeSans"
           font-size="10px"
           id="g602">
    <g
   aria-label="2"
   id="text600"
   style="fill:#262626"><path
     d="M 5.7080078,0 H 0.78613281 v -1.0205078 q 0.51269529,-0.4394531 1.02539059,-0.8789063 0.5175782,-0.4394531 0.9619141,-0.8740234 0.9375,-0.9082031 1.2841797,-1.4404297 0.3466797,-0.5371094 0.3466797,-1.1572265 0,-0.5664063 -0.3759766,-0.8837891 -0.3710937,-0.3222656 -1.040039,-0.3222656 -0.444336,0 -0.9619141,0.15625 -0.5175781,0.15625 -1.0107422,0.4785156 H 0.9667969 v -1.0253906 q 0.3466797,-0.1708985 0.9228515,-0.3125 0.5810547,-0.1416016 1.1230469,-0.1416016 1.1181641,0 1.7529297,0.5419922 0.6347656,0.5371094 0.6347656,1.4599609 0,0.4150391 -0.1074219,0.7763672 -0.102539,0.3564453 -0.3076171,0.6787109 -0.1904297,0.3027344 -0.4492188,0.5957032 -0.2539062,0.2929687 -0.6201172,0.649414 -0.5224609,0.5126953 -1.0791015,0.9960938 -0.5566407,0.4785156 -1.0400391,0.88867186 h 3.9111328 z"
     style="fill:#262626"
     id="path1077" /></g>
   </g>
        <g
           font-weight="normal"
           transform="translate(187.411,261.526)"
           font-style="normal"
           xml:space="preserve"
           font-family="FreeSans"
           font-size="10px"
           id="g606">
    <g
   aria-label="2.5"
   id="text604"
   style="fill:#262626"><path
     d="M 5.7080078,0 H 0.78613281 v -1.0205078 q 0.51269529,-0.4394531 1.02539059,-0.8789063 0.5175782,-0.4394531 0.9619141,-0.8740234 0.9375,-0.9082031 1.2841797,-1.4404297 0.3466797,-0.5371094 0.3466797,-1.1572265 0,-0.5664063 -0.3759766,-0.8837891 -0.3710937,-0.3222656 -1.040039,-0.3222656 -0.444336,0 -0.9619141,0.15625 -0.5175781,0.15625 -1.0107422,0.4785156 H 0.9667969 v -1.0253906 q 0.3466797,-0.1708985 0.9228515,-0.3125 0.5810547,-0.1416016 1.1230469,-0.1416016 1.1181641,0 1.7529297,0.5419922 0.6347656,0.5371094 0.6347656,1.4599609 0,0.4150391 -0.1074219,0.7763672 -0.102539,0.3564453 -0.3076171,0.6787109 -0.1904297,0.3027344 -0.4492188,0.5957032 -0.2539062,0.2929687 -0.6201172,0.649414 -0.5224609,0.5126953 -1.0791015,0.9960938 -0.5566407,0.4785156 -1.0400391,0.88867186 h 3.9111328 z"
     style="fill:#262626"
     id="path1080" /><path
     d="M 8.4023438,0 H 7.2353516 v -1.3916016 h 1.1669922 z"
     style="fill:#262626"
     id="path1082" /><path
     d="m 14.649414,-2.3095703 q 0,0.5078125 -0.185547,0.9716797 -0.185547,0.46386716 -0.507812,0.78124998 -0.351563,0.34179687 -0.839844,0.52734374 -0.483398,0.18066407 -1.123047,0.18066407 -0.595703,0 -1.147461,-0.12695313 -0.551758,-0.12207031 -0.9326171,-0.29785156 v -1.0302734 h 0.068359 q 0.4003911,0.2539062 0.9375001,0.43457027 0.53711,0.17578126 1.054688,0.17578126 0.34668,0 0.668945,-0.0976563 0.327149,-0.0976563 0.581055,-0.34179683 0.214844,-0.2099609 0.322265,-0.5029297 0.112305,-0.2929687 0.112305,-0.6787109 0,-0.3759766 -0.131836,-0.6347657 -0.126953,-0.2587891 -0.356445,-0.4150391 -0.253906,-0.1855468 -0.620117,-0.2587891 -0.361328,-0.078125 -0.810547,-0.078125 -0.429688,0 -0.830078,0.058594 -0.395508,0.058594 -0.683594,0.1171875 v -3.7451172 h 4.375 v 0.8544922 h -3.432617 v 1.9335937 q 0.209961,-0.019531 0.429687,-0.029297 0.219727,-0.00977 0.38086,-0.00977 0.59082,0 1.035156,0.1025391 0.444336,0.097656 0.81543,0.3515625 0.390625,0.2685546 0.605468,0.6933593 0.214844,0.4248046 0.214844,1.0644531 z"
     style="fill:#262626"
     id="path1084" /></g>
   </g>
        <g
           font-weight="normal"
           transform="translate(240.56,261.526)"
           font-style="normal"
           xml:space="preserve"
           font-family="FreeSans"
           font-size="10px"
           id="g610">
    <g
   aria-label="3"
   id="text608"
   style="fill:#262626"><path
     d="m 5.0683594,-3.5009766 q 0.234375,0.209961 0.3857422,0.5273438 0.1513671,0.3173828 0.1513671,0.8203125 0,0.4980469 -0.180664,0.9130859 -0.1806641,0.41503909 -0.5078125,0.72265628 -0.366211,0.34179687 -0.8642578,0.50781249 -0.4931641,0.16113282 -1.0839844,0.16113282 -0.6054687,0 -1.1914063,-0.14648438 -0.5859375,-0.14160156 -0.96191401,-0.3125 V -1.328125 h 0.0732422 q 0.41503901,0.2734375 0.97656251,0.45410156 0.5615234,0.18066407 1.0839844,0.18066407 0.3076171,0 0.6542968,-0.10253907 0.3466797,-0.10253906 0.5615235,-0.30273436 0.2246093,-0.2148438 0.3320312,-0.4736328 0.1123047,-0.2587891 0.1123047,-0.6542969 0,-0.390625 -0.1269531,-0.6445313 -0.1220703,-0.258789 -0.3417969,-0.4052734 -0.2197266,-0.1513672 -0.5322266,-0.2050781 -0.3125,-0.058594 -0.6738281,-0.058594 H 2.4951172 v -0.8105468 h 0.3417969 q 0.7421875,0 1.1816406,-0.3076172 0.4443359,-0.3125 0.4443359,-0.9082031 0,-0.2636719 -0.1123047,-0.4589844 -0.1123047,-0.2001953 -0.3125,-0.3271485 -0.2099609,-0.1269531 -0.4492187,-0.1757812 -0.2392578,-0.048828 -0.5419922,-0.048828 -0.4638672,0 -0.9863281,0.1660156 -0.522461,0.1660156 -0.9863282,0.46875 h -0.048828 v -1.0205078 q 0.3466797,-0.1708985 0.9228516,-0.3125 0.5810547,-0.1464844 1.1230469,-0.1464844 0.5322265,0 0.9375,0.097656 0.4052734,0.097656 0.7324218,0.3125 0.3515625,0.234375 0.5322266,0.5664062 0.1806641,0.3320313 0.1806641,0.7763672 0,0.6054687 -0.4296875,1.0595703 -0.4248047,0.4492188 -1.0058594,0.5664063 v 0.068359 q 0.234375,0.039063 0.5371094,0.1660156 0.3027343,0.1220704 0.5126952,0.3076179 z"
     style="fill:#262626"
     id="path1087" /></g>
   </g>
        <g
           font-weight="normal"
           transform="translate(284.709,261.526)"
           font-style="normal"
           xml:space="preserve"
           font-family="FreeSans"
           font-size="10px"
           id="g614">
    <g
   aria-label="3.5"
   id="text612"
   style="fill:#262626"><path
     d="m 5.0683594,-3.5009766 q 0.234375,0.209961 0.3857422,0.5273438 0.1513671,0.3173828 0.1513671,0.8203125 0,0.4980469 -0.180664,0.9130859 -0.1806641,0.41503909 -0.5078125,0.72265628 -0.366211,0.34179687 -0.8642578,0.50781249 -0.4931641,0.16113282 -1.0839844,0.16113282 -0.6054687,0 -1.1914063,-0.14648438 -0.5859375,-0.14160156 -0.96191401,-0.3125 V -1.328125 h 0.0732422 q 0.41503901,0.2734375 0.97656251,0.45410156 0.5615234,0.18066407 1.0839844,0.18066407 0.3076171,0 0.6542968,-0.10253907 0.3466797,-0.10253906 0.5615235,-0.30273436 0.2246093,-0.2148438 0.3320312,-0.4736328 0.1123047,-0.2587891 0.1123047,-0.6542969 0,-0.390625 -0.1269531,-0.6445313 -0.1220703,-0.258789 -0.3417969,-0.4052734 -0.2197266,-0.1513672 -0.5322266,-0.2050781 -0.3125,-0.058594 -0.6738281,-0.058594 H 2.4951172 v -0.8105468 h 0.3417969 q 0.7421875,0 1.1816406,-0.3076172 0.4443359,-0.3125 0.4443359,-0.9082031 0,-0.2636719 -0.1123047,-0.4589844 -0.1123047,-0.2001953 -0.3125,-0.3271485 -0.2099609,-0.1269531 -0.4492187,-0.1757812 -0.2392578,-0.048828 -0.5419922,-0.048828 -0.4638672,0 -0.9863281,0.1660156 -0.522461,0.1660156 -0.9863282,0.46875 h -0.048828 v -1.0205078 q 0.3466797,-0.1708985 0.9228516,-0.3125 0.5810547,-0.1464844 1.1230469,-0.1464844 0.5322265,0 0.9375,0.097656 0.4052734,0.097656 0.7324218,0.3125 0.3515625,0.234375 0.5322266,0.5664062 0.1806641,0.3320313 0.1806641,0.7763672 0,0.6054687 -0.4296875,1.0595703 -0.4248047,0.4492188 -1.0058594,0.5664063 v 0.068359 q 0.234375,0.039063 0.5371094,0.1660156 0.3027343,0.1220704 0.5126952,0.3076179 z"
     style="fill:#262626"
     id="path1090" /><path
     d="M 8.4023438,0 H 7.2353516 v -1.3916016 h 1.1669922 z"
     style="fill:#262626"
     id="path1092" /><path
     d="m 14.649414,-2.3095703 q 0,0.5078125 -0.185547,0.9716797 -0.185547,0.46386716 -0.507812,0.78124998 -0.351563,0.34179687 -0.839844,0.52734374 -0.483398,0.18066407 -1.123047,0.18066407 -0.595703,0 -1.147461,-0.12695313 -0.551758,-0.12207031 -0.9326171,-0.29785156 v -1.0302734 h 0.068359 q 0.4003911,0.2539062 0.9375001,0.43457027 0.53711,0.17578126 1.054688,0.17578126 0.34668,0 0.668945,-0.0976563 0.327149,-0.0976563 0.581055,-0.34179683 0.214844,-0.2099609 0.322265,-0.5029297 0.112305,-0.2929687 0.112305,-0.6787109 0,-0.3759766 -0.131836,-0.6347657 -0.126953,-0.2587891 -0.356445,-0.4150391 -0.253906,-0.1855468 -0.620117,-0.2587891 -0.361328,-0.078125 -0.810547,-0.078125 -0.429688,0 -0.830078,0.058594 -0.395508,0.058594 -0.683594,0.1171875 v -3.7451172 h 4.375 v 0.8544922 h -3.432617 v 1.9335937 q 0.209961,-0.019531 0.429687,-0.029297 0.219727,-0.00977 0.38086,-0.00977 0.59082,0 1.035156,0.1025391 0.444336,0.097656 0.81543,0.3515625 0.390625,0.2685546 0.605468,0.6933593 0.214844,0.4248046 0.214844,1.0644531 z"
     style="fill:#262626"
     id="path1094" /></g>
   </g>
        <g
           font-weight="normal"
           transform="translate(337.858,261.526)"
           font-style="normal"
           xml:space="preserve"
           font-family="FreeSans"
           font-size="10px"
           id="g618">
    <g
   aria-label="4"
   id="text616"
   style="fill:#262626"><path
     d="M 5.8740234,-2.0458984 H 4.7949219 V 0 h -0.9375 V -2.0458984 H 0.37597656 V -3.1689453 L 3.8964844,-7.2705078 h 0.8984375 v 4.4433594 h 1.0791015 z m -2.0166015,-0.78125 v -3.28125 l -2.8173828,3.28125 z"
     style="fill:#262626"
     id="path1097" /></g>
   </g>
        <path
           id="polyline620"
           style="fill:none;stroke:#262626;stroke-width:0.5"
           d="M 48.9631,246.016 H 51.881" />
        <path
           id="polyline622"
           style="fill:none;stroke:#262626;stroke-width:0.5"
           d="M 340.858,246.016 H 337.94" />
        <path
           id="polyline624"
           style="fill:none;stroke:#262626;stroke-width:0.5"
           d="M 48.9631,189.695 H 51.881" />
        <path
           id="polyline626"
           style="fill:none;stroke:#262626;stroke-width:0.5"
           d="M 340.858,189.695 H 337.94" />
        <path
           id="polyline628"
           style="fill:none;stroke:#262626;stroke-width:0.5"
           d="M 48.9631,133.374 H 51.881" />
        <path
           id="polyline630"
           style="fill:none;stroke:#262626;stroke-width:0.5"
           d="M 340.858,133.374 H 337.94" />
        <path
           id="polyline632"
           style="fill:none;stroke:#262626;stroke-width:0.5"
           d="M 48.9631,77.0529 H 51.881" />
        <path
           id="polyline634"
           style="fill:none;stroke:#262626;stroke-width:0.5"
           d="M 340.858,77.0529 H 337.94" />
        <path
           id="polyline636"
           style="fill:none;stroke:#262626;stroke-width:0.5"
           d="M 48.9631,20.7317 H 51.881" />
        <path
           id="polyline638"
           style="fill:none;stroke:#262626;stroke-width:0.5"
           d="M 340.858,20.7317 H 337.94" />
        <g
           font-weight="normal"
           transform="translate(14.9648,250.016)"
           font-style="normal"
           xml:space="preserve"
           font-family="FreeSans"
           font-size="10px"
           id="g642">
    <g
   aria-label="-1e-06"
   id="text640"
   style="fill:#262626"><path
     d="M 3.7939453,-2.7392578 H 0.74707031 V -3.6230469 H 3.7939453 Z"
     style="fill:#262626"
     id="path1110" /><path
     d="M 8.2929688,0 H 4.3574219 V -0.7421875 H 5.8710937 V -5.6152344 H 4.3574219 v -0.6640625 q 0.3076172,0 0.6591797,-0.048828 0.3515625,-0.053711 0.5322265,-0.1513672 0.2246094,-0.1220703 0.3515625,-0.3076172 0.131836,-0.1904297 0.1513672,-0.5078125 h 0.7568359 v 6.5527344 h 1.4843751 z"
     style="fill:#262626"
     id="path1112" /><path
     d="m 14.46875,-2.6318359 h -4.018555 q 0,0.5029296 0.151368,0.8789062 0.151367,0.3710938 0.415039,0.6103516 0.253906,0.23437497 0.600586,0.35156248 0.351562,0.1171875 0.771484,0.1171875 0.556641,0 1.118164,-0.21972657 0.566406,-0.22460941 0.805664,-0.43945311 h 0.04883 v 1.00097655 q -0.463867,0.1953125 -0.947265,0.32714844 -0.483399,0.13183593 -1.015625,0.13183593 -1.357422,0 -2.119141,-0.73242187 -0.7617189,-0.73730465 -0.7617189,-2.08984375 0,-1.3378906 0.7275389,-2.1240234 0.732422,-0.7861328 1.923828,-0.7861328 1.103516,0 1.699219,0.6445312 0.600586,0.6445313 0.600586,1.8310547 z m -0.893555,-0.703125 q -0.0049,-0.7226563 -0.366211,-1.1181641 -0.356445,-0.3955078 -1.088867,-0.3955078 -0.737304,0 -1.176758,0.4345703 -0.43457,0.4345703 -0.493164,1.0791016 z"
     style="fill:#262626"
     id="path1114" /><path
     d="M 17.793945,-2.7392578 H 14.74707 v -0.8837891 h 3.046875 z"
     style="fill:#262626"
     id="path1116" /><path
     d="m 22.698242,-3.6376953 q 0,1.9580078 -0.615234,2.87597655 -0.610352,0.91308594 -1.899414,0.91308594 -1.308594,0 -1.914063,-0.92773438 -0.600586,-0.92773441 -0.600586,-2.85156251 0,-1.9384765 0.610352,-2.8613281 0.610351,-0.9277344 1.904297,-0.9277344 1.308593,0 1.909179,0.9423828 0.605469,0.9375 0.605469,2.8369141 z m -1.28418,2.2167969 q 0.170899,-0.3955078 0.229493,-0.9277344 0.06348,-0.5371094 0.06348,-1.2890625 0,-0.7421875 -0.06348,-1.2890625 -0.05859,-0.546875 -0.234375,-0.9277344 -0.170899,-0.3759765 -0.46875,-0.5664062 -0.292969,-0.1904297 -0.756836,-0.1904297 -0.458985,0 -0.761719,0.1904297 -0.297852,0.1904297 -0.473633,0.5761718 -0.166015,0.3613282 -0.229492,0.9423829 -0.05859,0.5810546 -0.05859,1.274414 0,0.7617188 0.05371,1.2744141 0.05371,0.5126953 0.229492,0.9179687 0.161133,0.3808594 0.454102,0.58105471 0.297851,0.20019532 0.786133,0.20019532 0.458984,0 0.761718,-0.19042969 0.302735,-0.19042964 0.46875,-0.57617184 z"
     style="fill:#262626"
     id="path1118" /><path
     d="m 28.81543,-2.3583984 q 0,1.1083984 -0.732422,1.8115234 -0.727539,0.69824219 -1.78711,0.69824219 -0.537109,0 -0.976562,-0.16601563 -0.439453,-0.16601562 -0.776367,-0.49316406 -0.419922,-0.40527344 -0.649414,-1.0742187 -0.22461,-0.6689454 -0.22461,-1.6113282 0,-0.9667968 0.205078,-1.7138672 0.209961,-0.7470703 0.664063,-1.328125 0.429687,-0.5517578 1.108398,-0.859375 0.678711,-0.3125 1.582032,-0.3125 0.288086,0 0.483398,0.024414 0.195313,0.024414 0.395508,0.087891 v 0.9326172 h -0.04883 q -0.136719,-0.073242 -0.415039,-0.1367187 -0.273438,-0.068359 -0.561524,-0.068359 -1.049804,0 -1.674804,0.6591797 -0.625,0.6542969 -0.72754,1.7724609 0.410157,-0.2490234 0.805665,-0.3759765 0.40039,-0.131836 0.922851,-0.131836 0.463867,0 0.81543,0.087891 0.356445,0.083008 0.727539,0.3417969 0.429687,0.2978516 0.644531,0.7519531 0.219727,0.4541016 0.219727,1.1035157 z m -0.991211,0.039063 q 0,-0.4541016 -0.136719,-0.7519532 -0.131836,-0.2978515 -0.439453,-0.5175781 -0.22461,-0.15625 -0.498047,-0.2050781 -0.273438,-0.048828 -0.571289,-0.048828 -0.415039,0 -0.771484,0.097656 -0.356446,0.097656 -0.732422,0.3027344 -0.0098,0.1074219 -0.01465,0.2099609 -0.0049,0.097656 -0.0049,0.2490235 0,0.7714843 0.15625,1.2207031 0.161133,0.4443359 0.439454,0.703125 0.224609,0.21484374 0.483398,0.3173828 0.263672,0.0976563 0.571289,0.0976563 0.708008,0 1.113281,-0.4296875 0.405274,-0.4345704 0.405274,-1.2451172 z"
     style="fill:#262626"
     id="path1120" /></g>
   </g>
        <g
           font-weight="normal"
           transform="translate(14.9648,193.695)"
           font-style="normal"
           xml:space="preserve"
           font-family="FreeSans"
           font-size="10px"
           id="g646">
    <g
   aria-label="-5e-07"
   id="text644"
   style="fill:#262626"><path
     d="M 3.7939453,-2.7392578 H 0.74707031 V -3.6230469 H 3.7939453 Z"
     style="fill:#262626"
     id="path1123" /><path
     d="m 8.6494141,-2.3095703 q 0,0.5078125 -0.1855469,0.9716797 -0.1855469,0.46386716 -0.5078125,0.78124998 -0.3515625,0.34179687 -0.8398438,0.52734374 -0.4833984,0.18066407 -1.1230468,0.18066407 -0.5957032,0 -1.147461,-0.12695313 Q 4.2939453,-0.09765625 3.9130859,-0.2734375 v -1.0302734 h 0.068359 q 0.4003906,0.2539062 0.9375,0.43457027 0.5371094,0.17578126 1.0546875,0.17578126 0.3466797,0 0.6689453,-0.0976563 0.3271485,-0.0976563 0.5810547,-0.34179693 0.2148438,-0.2099609 0.3222656,-0.5029297 0.1123047,-0.2929687 0.1123047,-0.6787109 0,-0.3759766 -0.1318359,-0.6347657 Q 7.3994137,-3.2080079 7.1699215,-3.3642579 6.9160152,-3.5498048 6.5498043,-3.623047 6.1884762,-3.701172 5.7392574,-3.701172 q -0.4296875,0 -0.8300781,0.058594 -0.3955078,0.058594 -0.6835938,0.1171875 v -3.7451172 h 4.375 v 0.8544922 H 5.1679687 v 1.9335937 q 0.209961,-0.019531 0.4296875,-0.029297 0.2197266,-0.00977 0.3808594,-0.00977 0.5908203,0 1.0351563,0.1025391 0.4443359,0.097656 0.8154297,0.3515625 0.390625,0.2685546 0.6054687,0.6933593 0.2148438,0.4248046 0.2148438,1.0644531 z"
     style="fill:#262626"
     id="path1125" /><path
     d="m 14.46875,-2.6318359 h -4.018555 q 0,0.5029296 0.151368,0.8789062 0.151367,0.3710938 0.415039,0.6103516 0.253906,0.23437497 0.600586,0.35156248 0.351562,0.1171875 0.771484,0.1171875 0.556641,0 1.118164,-0.21972657 0.566406,-0.22460941 0.805664,-0.43945311 h 0.04883 v 1.00097655 q -0.463867,0.1953125 -0.947265,0.32714844 -0.483399,0.13183593 -1.015625,0.13183593 -1.357422,0 -2.119141,-0.73242187 -0.7617189,-0.73730465 -0.7617189,-2.08984375 0,-1.3378906 0.7275389,-2.1240234 0.732422,-0.7861328 1.923828,-0.7861328 1.103516,0 1.699219,0.6445312 0.600586,0.6445313 0.600586,1.8310547 z m -0.893555,-0.703125 q -0.0049,-0.7226563 -0.366211,-1.1181641 -0.356445,-0.3955078 -1.088867,-0.3955078 -0.737304,0 -1.176758,0.4345703 -0.43457,0.4345703 -0.493164,1.0791016 z"
     style="fill:#262626"
     id="path1127" /><path
     d="M 17.793945,-2.7392578 H 14.74707 v -0.8837891 h 3.046875 z"
     style="fill:#262626"
     id="path1129" /><path
     d="m 22.698242,-3.6376953 q 0,1.9580078 -0.615234,2.87597655 -0.610352,0.91308594 -1.899414,0.91308594 -1.308594,0 -1.914063,-0.92773438 -0.600586,-0.92773441 -0.600586,-2.85156251 0,-1.9384765 0.610352,-2.8613281 0.610351,-0.9277344 1.904297,-0.9277344 1.308593,0 1.909179,0.9423828 0.605469,0.9375 0.605469,2.8369141 z m -1.28418,2.2167969 q 0.170899,-0.3955078 0.229493,-0.9277344 0.06348,-0.5371094 0.06348,-1.2890625 0,-0.7421875 -0.06348,-1.2890625 -0.05859,-0.546875 -0.234375,-0.9277344 -0.170899,-0.3759765 -0.46875,-0.5664062 -0.292969,-0.1904297 -0.756836,-0.1904297 -0.458985,0 -0.761719,0.1904297 -0.297852,0.1904297 -0.473633,0.5761718 -0.166015,0.3613282 -0.229492,0.9423829 -0.05859,0.5810546 -0.05859,1.274414 0,0.7617188 0.05371,1.2744141 0.05371,0.5126953 0.229492,0.9179687 0.161133,0.3808594 0.454102,0.58105471 0.297851,0.20019532 0.786133,0.20019532 0.458984,0 0.761718,-0.19042969 0.302735,-0.19042964 0.46875,-0.57617184 z"
     style="fill:#262626"
     id="path1131" /><path
     d="M 28.727539,-6.1816406 25.436523,0 h -1.044921 l 3.500976,-6.4160156 h -4.140625 v -0.8544922 h 4.975586 z"
     style="fill:#262626"
     id="path1133" /></g>
   </g>
        <g
           font-weight="normal"
           transform="translate(37.9648,137.374)"
           font-style="normal"
           xml:space="preserve"
           font-family="FreeSans"
           font-size="10px"
           id="g650">
    <g
   aria-label="0"
   id="text648"
   style="fill:#262626"><path
     d="m 5.6982422,-3.6376953 q 0,1.9580078 -0.6152344,2.87597655 -0.6103516,0.91308594 -1.899414,0.91308594 -1.3085938,0 -1.9140626,-0.92773438 -0.60058589,-0.92773441 -0.60058589,-2.85156251 0,-1.9384765 0.61035159,-2.8613281 0.6103515,-0.9277344 1.9042969,-0.9277344 1.3085937,0 1.9091796,0.9423828 0.6054688,0.9375 0.6054688,2.8369141 z m -1.2841797,2.2167969 q 0.1708984,-0.3955078 0.2294922,-0.9277344 0.063477,-0.5371094 0.063477,-1.2890625 0,-0.7421875 -0.063477,-1.2890625 -0.058594,-0.546875 -0.234375,-0.9277344 -0.1708985,-0.3759765 -0.46875,-0.5664062 -0.2929688,-0.1904297 -0.7568359,-0.1904297 -0.4589844,0 -0.7617188,0.1904297 -0.2978516,0.1904297 -0.4736328,0.5761718 -0.1660156,0.3613282 -0.2294922,0.9423829 -0.058594,0.5810546 -0.058594,1.274414 0,0.7617188 0.053711,1.2744141 0.053711,0.5126953 0.2294922,0.9179687 0.1611328,0.3808594 0.4541015,0.58105471 0.2978516,0.20019532 0.7861329,0.20019532 0.4589843,0 0.7617187,-0.19042969 0.3027344,-0.19042964 0.4687502,-0.57617184 z"
     style="fill:#262626"
     id="path1136" /></g>
   </g>
        <g
           font-weight="normal"
           transform="translate(17.9648,81.0529)"
           font-style="normal"
           xml:space="preserve"
           font-family="FreeSans"
           font-size="10px"
           id="g654">
    <g
   aria-label="5e-07"
   id="text652"
   style="fill:#262626"><path
     d="m 5.6494141,-2.3095703 q 0,0.5078125 -0.1855469,0.9716797 -0.1855469,0.46386716 -0.5078125,0.78124998 -0.3515625,0.34179687 -0.8398438,0.52734374 -0.4833984,0.18066407 -1.1230468,0.18066407 -0.5957032,0 -1.147461,-0.12695313 Q 1.2939453,-0.09765625 0.91308594,-0.2734375 v -1.0302734 h 0.0683594 q 0.40039056,0.2539062 0.93749996,0.43457027 0.5371094,0.17578126 1.0546875,0.17578126 0.3466797,0 0.6689453,-0.0976563 0.3271485,-0.0976563 0.5810547,-0.34179693 0.2148438,-0.2099609 0.3222656,-0.5029297 0.1123047,-0.2929687 0.1123047,-0.6787109 0,-0.3759766 -0.1318359,-0.6347657 Q 4.3994141,-3.2080079 4.1699219,-3.3642579 3.9160156,-3.5498048 3.5498047,-3.623047 3.1884766,-3.701172 2.7392578,-3.701172 q -0.4296875,0 -0.8300781,0.058594 -0.3955078,0.058594 -0.6835938,0.1171875 v -3.7451172 h 4.375 v 0.8544922 H 2.1679688 v 1.9335937 q 0.2099609,-0.019531 0.4296875,-0.029297 0.2197265,-0.00977 0.3808593,-0.00977 0.5908203,0 1.0351563,0.1025391 0.4443359,0.097656 0.8154297,0.3515625 0.390625,0.2685546 0.6054687,0.6933593 0.2148438,0.4248046 0.2148438,1.0644531 z"
     style="fill:#262626"
     id="path1139" /><path
     d="M 11.46875,-2.6318359 H 7.4501953 q 0,0.5029296 0.1513672,0.8789062 0.1513672,0.3710938 0.4150391,0.6103516 0.2539062,0.23437497 0.6005859,0.35156248 0.3515625,0.1171875 0.7714844,0.1171875 0.5566406,0 1.1181641,-0.21972657 0.566406,-0.22460941 0.805664,-0.43945311 h 0.04883 v 1.00097655 q -0.463867,0.1953125 -0.947265,0.32714844 -0.4833989,0.13183593 -1.0156255,0.13183593 -1.3574219,0 -2.1191406,-0.73242187 -0.7617188,-0.73730465 -0.7617188,-2.08984375 0,-1.3378906 0.7275391,-2.1240234 0.7324219,-0.7861328 1.9238281,-0.7861328 1.1035157,0 1.6992187,0.6445312 0.600586,0.6445313 0.600586,1.8310547 z m -0.893555,-0.703125 q -0.0049,-0.7226563 -0.366211,-1.1181641 -0.3564449,-0.3955078 -1.0888668,-0.3955078 -0.7373047,0 -1.1767578,0.4345703 -0.4345703,0.4345703 -0.4931641,1.0791016 z"
     style="fill:#262626"
     id="path1141" /><path
     d="M 14.793945,-2.7392578 H 11.74707 v -0.8837891 h 3.046875 z"
     style="fill:#262626"
     id="path1143" /><path
     d="m 19.698242,-3.6376953 q 0,1.9580078 -0.615234,2.87597655 -0.610352,0.91308594 -1.899414,0.91308594 -1.308594,0 -1.914063,-0.92773438 -0.600586,-0.92773441 -0.600586,-2.85156251 0,-1.9384765 0.610352,-2.8613281 0.610351,-0.9277344 1.904297,-0.9277344 1.308593,0 1.909179,0.9423828 0.605469,0.9375 0.605469,2.8369141 z m -1.28418,2.2167969 q 0.170899,-0.3955078 0.229493,-0.9277344 0.06348,-0.5371094 0.06348,-1.2890625 0,-0.7421875 -0.06348,-1.2890625 -0.05859,-0.546875 -0.234375,-0.9277344 -0.170899,-0.3759765 -0.46875,-0.5664062 -0.292969,-0.1904297 -0.756836,-0.1904297 -0.458985,0 -0.761719,0.1904297 -0.297852,0.1904297 -0.473633,0.5761718 -0.166015,0.3613282 -0.229492,0.9423829 -0.05859,0.5810546 -0.05859,1.274414 0,0.7617188 0.05371,1.2744141 0.05371,0.5126953 0.229492,0.9179687 0.161133,0.3808594 0.454102,0.58105471 0.297851,0.20019532 0.786133,0.20019532 0.458984,0 0.761718,-0.19042969 0.302735,-0.19042964 0.46875,-0.57617184 z"
     style="fill:#262626"
     id="path1145" /><path
     d="M 25.727539,-6.1816406 22.436523,0 h -1.044921 l 3.500976,-6.4160156 h -4.140625 v -0.8544922 h 4.975586 z"
     style="fill:#262626"
     id="path1147" /></g>
   </g>
        <g
           font-weight="normal"
           transform="translate(17.9648,24.7317)"
           font-style="normal"
           xml:space="preserve"
           font-family="FreeSans"
           font-size="10px"
           id="g658">
    <g
   aria-label="1e-06"
   id="text656"
   style="fill:#262626"><path
     d="M 5.2929687,0 H 1.3574219 V -0.7421875 H 2.8710938 V -5.6152344 H 1.3574219 v -0.6640625 q 0.3076172,0 0.6591797,-0.048828 0.3515625,-0.053711 0.5322265,-0.1513672 0.2246094,-0.1220703 0.3515625,-0.3076172 0.131836,-0.1904297 0.1513672,-0.5078125 h 0.756836 v 6.5527344 h 1.4843749 z"
     style="fill:#262626"
     id="path1150" /><path
     d="M 11.46875,-2.6318359 H 7.4501953 q 0,0.5029296 0.1513672,0.8789062 0.1513672,0.3710938 0.4150391,0.6103516 0.2539062,0.23437497 0.6005859,0.35156248 0.3515625,0.1171875 0.7714844,0.1171875 0.5566406,0 1.1181641,-0.21972657 0.566406,-0.22460941 0.805664,-0.43945311 h 0.04883 v 1.00097655 q -0.463867,0.1953125 -0.947265,0.32714844 -0.4833989,0.13183593 -1.0156255,0.13183593 -1.3574219,0 -2.1191406,-0.73242187 -0.7617188,-0.73730465 -0.7617188,-2.08984375 0,-1.3378906 0.7275391,-2.1240234 0.7324219,-0.7861328 1.9238281,-0.7861328 1.1035157,0 1.6992187,0.6445312 0.600586,0.6445313 0.600586,1.8310547 z m -0.893555,-0.703125 q -0.0049,-0.7226563 -0.366211,-1.1181641 -0.3564449,-0.3955078 -1.0888668,-0.3955078 -0.7373047,0 -1.1767578,0.4345703 -0.4345703,0.4345703 -0.4931641,1.0791016 z"
     style="fill:#262626"
     id="path1152" /><path
     d="M 14.793945,-2.7392578 H 11.74707 v -0.8837891 h 3.046875 z"
     style="fill:#262626"
     id="path1154" /><path
     d="m 19.698242,-3.6376953 q 0,1.9580078 -0.615234,2.87597655 -0.610352,0.91308594 -1.899414,0.91308594 -1.308594,0 -1.914063,-0.92773438 -0.600586,-0.92773441 -0.600586,-2.85156251 0,-1.9384765 0.610352,-2.8613281 0.610351,-0.9277344 1.904297,-0.9277344 1.308593,0 1.909179,0.9423828 0.605469,0.9375 0.605469,2.8369141 z m -1.28418,2.2167969 q 0.170899,-0.3955078 0.229493,-0.9277344 0.06348,-0.5371094 0.06348,-1.2890625 0,-0.7421875 -0.06348,-1.2890625 -0.05859,-0.546875 -0.234375,-0.9277344 -0.170899,-0.3759765 -0.46875,-0.5664062 -0.292969,-0.1904297 -0.756836,-0.1904297 -0.458985,0 -0.761719,0.1904297 -0.297852,0.1904297 -0.473633,0.5761718 -0.166015,0.3613282 -0.229492,0.9423829 -0.05859,0.5810546 -0.05859,1.274414 0,0.7617188 0.05371,1.2744141 0.05371,0.5126953 0.229492,0.9179687 0.161133,0.3808594 0.454102,0.58105471 0.297851,0.20019532 0.786133,0.20019532 0.458984,0 0.761718,-0.19042969 0.302735,-0.19042964 0.46875,-0.57617184 z"
     style="fill:#262626"
     id="path1156" /><path
     d="m 25.81543,-2.3583984 q 0,1.1083984 -0.732422,1.8115234 -0.727539,0.69824219 -1.78711,0.69824219 -0.537109,0 -0.976562,-0.16601563 -0.439453,-0.16601562 -0.776367,-0.49316406 -0.419922,-0.40527344 -0.649414,-1.0742187 -0.22461,-0.6689454 -0.22461,-1.6113282 0,-0.9667968 0.205078,-1.7138672 0.209961,-0.7470703 0.664063,-1.328125 0.429687,-0.5517578 1.108398,-0.859375 0.678711,-0.3125 1.582032,-0.3125 0.288086,0 0.483398,0.024414 0.195313,0.024414 0.395508,0.087891 v 0.9326172 h -0.04883 q -0.136719,-0.073242 -0.415039,-0.1367187 -0.273438,-0.068359 -0.561524,-0.068359 -1.049804,0 -1.674804,0.6591797 -0.625,0.6542969 -0.72754,1.7724609 0.410157,-0.2490234 0.805665,-0.3759765 0.40039,-0.131836 0.922851,-0.131836 0.463867,0 0.81543,0.087891 0.356445,0.083008 0.727539,0.3417969 0.429687,0.2978516 0.644531,0.7519531 0.219727,0.4541016 0.219727,1.1035157 z m -0.991211,0.039063 q 0,-0.4541016 -0.136719,-0.7519532 -0.131836,-0.2978515 -0.439453,-0.5175781 -0.22461,-0.15625 -0.498047,-0.2050781 -0.273438,-0.048828 -0.571289,-0.048828 -0.415039,0 -0.771484,0.097656 -0.356446,0.097656 -0.732422,0.3027344 -0.0098,0.1074219 -0.01465,0.2099609 -0.0049,0.097656 -0.0049,0.2490235 0,0.7714843 0.15625,1.2207031 0.161133,0.4443359 0.439454,0.703125 0.224609,0.21484374 0.483398,0.3173828 0.263672,0.0976563 0.571289,0.0976563 0.708008,0 1.113281,-0.4296875 0.405274,-0.4345704 0.405274,-1.2451172 z"
     style="fill:#262626"
     id="path1158" /></g>
   </g>
        <path
           id="polyline660"
           style="fill:none;stroke:#262626;stroke-width:0.5;stroke-linecap:square;stroke-dasharray:16, 0"
           d="M 48.9631,246.016 H 340.858" />
        <path
           id="polyline662"
           style="fill:none;stroke:#262626;stroke-width:0.5;stroke-linecap:square;stroke-dasharray:16, 0"
           d="M 48.9631,20.7317 H 340.858" />
        <path
           id="polyline664"
           style="fill:none;stroke:#262626;stroke-width:0.5;stroke-linecap:square;stroke-dasharray:16, 0"
           d="M 48.9631,246.016 V 20.7317" />
        <path
           id="polyline666"
           style="fill:none;stroke:#262626;stroke-width:0.5;stroke-linecap:square;stroke-dasharray:16, 0"
           d="M 340.858,246.016 V 20.7317" />
        <path
           id="polyline668"
           style="fill:none;stroke:#0071bc;stroke-width:0.5;stroke-linejoin:round"
           d="m 48.9631,135.712 8.1082,71.977 8.1081,16.273 8.1082,-88.788 8.1083,80.48 8.1081,13.7 8.1082,-94.612 8.1078,83.831 8.109,10.466 8.108,-94.631 8.108,81.706 8.108,6.997 8.108,-88.958 8.109,74.179 8.108,3.634 8.108,-78.011 8.108,61.712 8.108,0.621 8.109,-62.492 8.108,45.11 8.108,-1.902 8.108,-43.344 8.108,25.47 8.109,-3.883 8.108,-21.71 8.108,4.092 8.108,-5.333 8.108,1.126 8.109,-17.611 8.108,-6.302 8.108,23.809 8.108,-38.2195 8.108,-6.8465 8.109,44.98 8.108,-56.3978 8.108,-7.0126 8.108,63.3594" />
      </g>
    </g>
    <g
       id="g261"
       transform="translate(376)">
      <path
         id="polygon146"
         style="fill:#ffffff;shape-rendering:crispEdges"
         d="M 0,0 V 276 H 383 V 0 Z" />
      <clipPath
         id="clipPath362">
        <polygon
           points="0,0 0,276 383,276 383,0 "
           id="polygon360" />
      </clipPath>
      <g
         clip-path="url(#cp00383276)"
         id="g259">
        <path
           id="polygon151"
           style="fill:#ffffff;shape-rendering:crispEdges"
           d="m 49.8581,20.77 v 225.7 H 347.089 V 20.77 Z" />
        <path
           id="polyline153"
           style="fill:none;stroke:#262626;stroke-width:0.5"
           d="m 49.8581,246.47 v -2.968" />
        <path
           id="polyline155"
           style="fill:none;stroke:#262626;stroke-width:0.5"
           d="m 49.8581,20.77 v 2.9683" />
        <path
           id="polyline157"
           style="fill:none;stroke:#262626;stroke-width:0.5"
           d="m 99.3966,246.47 v -2.968" />
        <path
           id="polyline159"
           style="fill:none;stroke:#262626;stroke-width:0.5"
           d="m 99.3966,20.77 v 2.9683" />
        <path
           id="polyline161"
           style="fill:none;stroke:#262626;stroke-width:0.5"
           d="m 148.935,246.47 v -2.968" />
        <path
           id="polyline163"
           style="fill:none;stroke:#262626;stroke-width:0.5"
           d="m 148.935,20.77 v 2.9683" />
        <path
           id="polyline165"
           style="fill:none;stroke:#262626;stroke-width:0.5"
           d="m 198.474,246.47 v -2.968" />
        <path
           id="polyline167"
           style="fill:none;stroke:#262626;stroke-width:0.5"
           d="m 198.474,20.77 v 2.9683" />
        <path
           id="polyline169"
           style="fill:none;stroke:#262626;stroke-width:0.5"
           d="m 248.012,246.47 v -2.968" />
        <path
           id="polyline171"
           style="fill:none;stroke:#262626;stroke-width:0.5"
           d="m 248.012,20.77 v 2.9683" />
        <path
           id="polyline173"
           style="fill:none;stroke:#262626;stroke-width:0.5"
           d="m 297.551,246.47 v -2.968" />
        <path
           id="polyline175"
           style="fill:none;stroke:#262626;stroke-width:0.5"
           d="m 297.551,20.77 v 2.9683" />
        <path
           id="polyline177"
           style="fill:none;stroke:#262626;stroke-width:0.5"
           d="m 347.089,246.47 v -2.968" />
        <path
           id="polyline179"
           style="fill:none;stroke:#262626;stroke-width:0.5"
           d="m 347.089,20.77 v 2.9683" />
        <g
           xml:space="preserve"
           font-weight="normal"
           font-family="FreeSans"
           transform="translate(46.8581,261.96)"
           font-style="normal"
           font-size="10px"
           id="g183">
    <g
   aria-label="1"
   id="text181"
   style="fill:#262626"><path
     d="M 5.2929687,0 H 1.3574219 V -0.7421875 H 2.8710938 V -5.6152344 H 1.3574219 v -0.6640625 q 0.3076172,0 0.6591797,-0.048828 0.3515625,-0.053711 0.5322265,-0.1513672 0.2246094,-0.1220703 0.3515625,-0.3076172 0.131836,-0.1904297 0.1513672,-0.5078125 h 0.756836 v 6.5527344 h 1.4843749 z"
     style="fill:#262626"
     id="path1182" /></g>
   </g>
        <g
           xml:space="preserve"
           font-weight="normal"
           font-family="FreeSans"
           transform="translate(91.8966,261.96)"
           font-style="normal"
           font-size="10px"
           id="g187">
    <g
   aria-label="1.5"
   id="text185"
   style="fill:#262626"><path
     d="M 5.2929687,0 H 1.3574219 V -0.7421875 H 2.8710938 V -5.6152344 H 1.3574219 v -0.6640625 q 0.3076172,0 0.6591797,-0.048828 0.3515625,-0.053711 0.5322265,-0.1513672 0.2246094,-0.1220703 0.3515625,-0.3076172 0.131836,-0.1904297 0.1513672,-0.5078125 h 0.756836 v 6.5527344 h 1.4843749 z"
     style="fill:#262626"
     id="path1185" /><path
     d="M 8.4023438,0 H 7.2353516 v -1.3916016 h 1.1669922 z"
     style="fill:#262626"
     id="path1187" /><path
     d="m 14.649414,-2.3095703 q 0,0.5078125 -0.185547,0.9716797 -0.185547,0.46386716 -0.507812,0.78124998 -0.351563,0.34179687 -0.839844,0.52734374 -0.483398,0.18066407 -1.123047,0.18066407 -0.595703,0 -1.147461,-0.12695313 -0.551758,-0.12207031 -0.9326171,-0.29785156 v -1.0302734 h 0.068359 q 0.4003911,0.2539062 0.9375001,0.43457027 0.53711,0.17578126 1.054688,0.17578126 0.34668,0 0.668945,-0.0976563 0.327149,-0.0976563 0.581055,-0.34179683 0.214844,-0.2099609 0.322265,-0.5029297 0.112305,-0.2929687 0.112305,-0.6787109 0,-0.3759766 -0.131836,-0.6347657 -0.126953,-0.2587891 -0.356445,-0.4150391 -0.253906,-0.1855468 -0.620117,-0.2587891 -0.361328,-0.078125 -0.810547,-0.078125 -0.429688,0 -0.830078,0.058594 -0.395508,0.058594 -0.683594,0.1171875 v -3.7451172 h 4.375 v 0.8544922 h -3.432617 v 1.9335937 q 0.209961,-0.019531 0.429687,-0.029297 0.219727,-0.00977 0.38086,-0.00977 0.59082,0 1.035156,0.1025391 0.444336,0.097656 0.81543,0.3515625 0.390625,0.2685546 0.605468,0.6933593 0.214844,0.4248046 0.214844,1.0644531 z"
     style="fill:#262626"
     id="path1189" /></g>
   </g>
        <g
           xml:space="preserve"
           font-weight="normal"
           font-family="FreeSans"
           transform="translate(145.935,261.96)"
           font-style="normal"
           font-size="10px"
           id="g191">
    <g
   aria-label="2"
   id="text189"
   style="fill:#262626"><path
     d="M 5.7080078,0 H 0.78613281 v -1.0205078 q 0.51269529,-0.4394531 1.02539059,-0.8789063 0.5175782,-0.4394531 0.9619141,-0.8740234 0.9375,-0.9082031 1.2841797,-1.4404297 0.3466797,-0.5371094 0.3466797,-1.1572265 0,-0.5664063 -0.3759766,-0.8837891 -0.3710937,-0.3222656 -1.040039,-0.3222656 -0.444336,0 -0.9619141,0.15625 -0.5175781,0.15625 -1.0107422,0.4785156 H 0.9667969 v -1.0253906 q 0.3466797,-0.1708985 0.9228515,-0.3125 0.5810547,-0.1416016 1.1230469,-0.1416016 1.1181641,0 1.7529297,0.5419922 0.6347656,0.5371094 0.6347656,1.4599609 0,0.4150391 -0.1074219,0.7763672 -0.102539,0.3564453 -0.3076171,0.6787109 -0.1904297,0.3027344 -0.4492188,0.5957032 -0.2539062,0.2929687 -0.6201172,0.649414 -0.5224609,0.5126953 -1.0791015,0.9960938 -0.5566407,0.4785156 -1.0400391,0.88867186 h 3.9111328 z"
     style="fill:#262626"
     id="path1192" /></g>
   </g>
        <g
           xml:space="preserve"
           font-weight="normal"
           font-family="FreeSans"
           transform="translate(190.974,261.96)"
           font-style="normal"
           font-size="10px"
           id="g195">
    <g
   aria-label="2.5"
   id="text193"
   style="fill:#262626"><path
     d="M 5.7080078,0 H 0.78613281 v -1.0205078 q 0.51269529,-0.4394531 1.02539059,-0.8789063 0.5175782,-0.4394531 0.9619141,-0.8740234 0.9375,-0.9082031 1.2841797,-1.4404297 0.3466797,-0.5371094 0.3466797,-1.1572265 0,-0.5664063 -0.3759766,-0.8837891 -0.3710937,-0.3222656 -1.040039,-0.3222656 -0.444336,0 -0.9619141,0.15625 -0.5175781,0.15625 -1.0107422,0.4785156 H 0.9667969 v -1.0253906 q 0.3466797,-0.1708985 0.9228515,-0.3125 0.5810547,-0.1416016 1.1230469,-0.1416016 1.1181641,0 1.7529297,0.5419922 0.6347656,0.5371094 0.6347656,1.4599609 0,0.4150391 -0.1074219,0.7763672 -0.102539,0.3564453 -0.3076171,0.6787109 -0.1904297,0.3027344 -0.4492188,0.5957032 -0.2539062,0.2929687 -0.6201172,0.649414 -0.5224609,0.5126953 -1.0791015,0.9960938 -0.5566407,0.4785156 -1.0400391,0.88867186 h 3.9111328 z"
     style="fill:#262626"
     id="path1195" /><path
     d="M 8.4023438,0 H 7.2353516 v -1.3916016 h 1.1669922 z"
     style="fill:#262626"
     id="path1197" /><path
     d="m 14.649414,-2.3095703 q 0,0.5078125 -0.185547,0.9716797 -0.185547,0.46386716 -0.507812,0.78124998 -0.351563,0.34179687 -0.839844,0.52734374 -0.483398,0.18066407 -1.123047,0.18066407 -0.595703,0 -1.147461,-0.12695313 -0.551758,-0.12207031 -0.9326171,-0.29785156 v -1.0302734 h 0.068359 q 0.4003911,0.2539062 0.9375001,0.43457027 0.53711,0.17578126 1.054688,0.17578126 0.34668,0 0.668945,-0.0976563 0.327149,-0.0976563 0.581055,-0.34179683 0.214844,-0.2099609 0.322265,-0.5029297 0.112305,-0.2929687 0.112305,-0.6787109 0,-0.3759766 -0.131836,-0.6347657 -0.126953,-0.2587891 -0.356445,-0.4150391 -0.253906,-0.1855468 -0.620117,-0.2587891 -0.361328,-0.078125 -0.810547,-0.078125 -0.429688,0 -0.830078,0.058594 -0.395508,0.058594 -0.683594,0.1171875 v -3.7451172 h 4.375 v 0.8544922 h -3.432617 v 1.9335937 q 0.209961,-0.019531 0.429687,-0.029297 0.219727,-0.00977 0.38086,-0.00977 0.59082,0 1.035156,0.1025391 0.444336,0.097656 0.81543,0.3515625 0.390625,0.2685546 0.605468,0.6933593 0.214844,0.4248046 0.214844,1.0644531 z"
     style="fill:#262626"
     id="path1199" /></g>
   </g>
        <g
           xml:space="preserve"
           font-weight="normal"
           font-family="FreeSans"
           transform="translate(245.012,261.96)"
           font-style="normal"
           font-size="10px"
           id="g199">
    <g
   aria-label="3"
   id="text197"
   style="fill:#262626"><path
     d="m 5.0683594,-3.5009766 q 0.234375,0.209961 0.3857422,0.5273438 0.1513671,0.3173828 0.1513671,0.8203125 0,0.4980469 -0.180664,0.9130859 -0.1806641,0.41503909 -0.5078125,0.72265628 -0.366211,0.34179687 -0.8642578,0.50781249 -0.4931641,0.16113282 -1.0839844,0.16113282 -0.6054687,0 -1.1914063,-0.14648438 -0.5859375,-0.14160156 -0.96191401,-0.3125 V -1.328125 h 0.0732422 q 0.41503901,0.2734375 0.97656251,0.45410156 0.5615234,0.18066407 1.0839844,0.18066407 0.3076171,0 0.6542968,-0.10253907 0.3466797,-0.10253906 0.5615235,-0.30273436 0.2246093,-0.2148438 0.3320312,-0.4736328 0.1123047,-0.2587891 0.1123047,-0.6542969 0,-0.390625 -0.1269531,-0.6445313 -0.1220703,-0.258789 -0.3417969,-0.4052734 -0.2197266,-0.1513672 -0.5322266,-0.2050781 -0.3125,-0.058594 -0.6738281,-0.058594 H 2.4951172 v -0.8105468 h 0.3417969 q 0.7421875,0 1.1816406,-0.3076172 0.4443359,-0.3125 0.4443359,-0.9082031 0,-0.2636719 -0.1123047,-0.4589844 -0.1123047,-0.2001953 -0.3125,-0.3271485 -0.2099609,-0.1269531 -0.4492187,-0.1757812 -0.2392578,-0.048828 -0.5419922,-0.048828 -0.4638672,0 -0.9863281,0.1660156 -0.522461,0.1660156 -0.9863282,0.46875 h -0.048828 v -1.0205078 q 0.3466797,-0.1708985 0.9228516,-0.3125 0.5810547,-0.1464844 1.1230469,-0.1464844 0.5322265,0 0.9375,0.097656 0.4052734,0.097656 0.7324218,0.3125 0.3515625,0.234375 0.5322266,0.5664062 0.1806641,0.3320313 0.1806641,0.7763672 0,0.6054687 -0.4296875,1.0595703 -0.4248047,0.4492188 -1.0058594,0.5664063 v 0.068359 q 0.234375,0.039063 0.5371094,0.1660156 0.3027343,0.1220704 0.5126952,0.3076179 z"
     style="fill:#262626"
     id="path1202" /></g>
   </g>
        <g
           xml:space="preserve"
           font-weight="normal"
           font-family="FreeSans"
           transform="translate(290.051,261.96)"
           font-style="normal"
           font-size="10px"
           id="g203">
    <g
   aria-label="3.5"
   id="text201"
   style="fill:#262626"><path
     d="m 5.0683594,-3.5009766 q 0.234375,0.209961 0.3857422,0.5273438 0.1513671,0.3173828 0.1513671,0.8203125 0,0.4980469 -0.180664,0.9130859 -0.1806641,0.41503909 -0.5078125,0.72265628 -0.366211,0.34179687 -0.8642578,0.50781249 -0.4931641,0.16113282 -1.0839844,0.16113282 -0.6054687,0 -1.1914063,-0.14648438 -0.5859375,-0.14160156 -0.96191401,-0.3125 V -1.328125 h 0.0732422 q 0.41503901,0.2734375 0.97656251,0.45410156 0.5615234,0.18066407 1.0839844,0.18066407 0.3076171,0 0.6542968,-0.10253907 0.3466797,-0.10253906 0.5615235,-0.30273436 0.2246093,-0.2148438 0.3320312,-0.4736328 0.1123047,-0.2587891 0.1123047,-0.6542969 0,-0.390625 -0.1269531,-0.6445313 -0.1220703,-0.258789 -0.3417969,-0.4052734 -0.2197266,-0.1513672 -0.5322266,-0.2050781 -0.3125,-0.058594 -0.6738281,-0.058594 H 2.4951172 v -0.8105468 h 0.3417969 q 0.7421875,0 1.1816406,-0.3076172 0.4443359,-0.3125 0.4443359,-0.9082031 0,-0.2636719 -0.1123047,-0.4589844 -0.1123047,-0.2001953 -0.3125,-0.3271485 -0.2099609,-0.1269531 -0.4492187,-0.1757812 -0.2392578,-0.048828 -0.5419922,-0.048828 -0.4638672,0 -0.9863281,0.1660156 -0.522461,0.1660156 -0.9863282,0.46875 h -0.048828 v -1.0205078 q 0.3466797,-0.1708985 0.9228516,-0.3125 0.5810547,-0.1464844 1.1230469,-0.1464844 0.5322265,0 0.9375,0.097656 0.4052734,0.097656 0.7324218,0.3125 0.3515625,0.234375 0.5322266,0.5664062 0.1806641,0.3320313 0.1806641,0.7763672 0,0.6054687 -0.4296875,1.0595703 -0.4248047,0.4492188 -1.0058594,0.5664063 v 0.068359 q 0.234375,0.039063 0.5371094,0.1660156 0.3027343,0.1220704 0.5126952,0.3076179 z"
     style="fill:#262626"
     id="path1205" /><path
     d="M 8.4023438,0 H 7.2353516 v -1.3916016 h 1.1669922 z"
     style="fill:#262626"
     id="path1207" /><path
     d="m 14.649414,-2.3095703 q 0,0.5078125 -0.185547,0.9716797 -0.185547,0.46386716 -0.507812,0.78124998 -0.351563,0.34179687 -0.839844,0.52734374 -0.483398,0.18066407 -1.123047,0.18066407 -0.595703,0 -1.147461,-0.12695313 -0.551758,-0.12207031 -0.9326171,-0.29785156 v -1.0302734 h 0.068359 q 0.4003911,0.2539062 0.9375001,0.43457027 0.53711,0.17578126 1.054688,0.17578126 0.34668,0 0.668945,-0.0976563 0.327149,-0.0976563 0.581055,-0.34179683 0.214844,-0.2099609 0.322265,-0.5029297 0.112305,-0.2929687 0.112305,-0.6787109 0,-0.3759766 -0.131836,-0.6347657 -0.126953,-0.2587891 -0.356445,-0.4150391 -0.253906,-0.1855468 -0.620117,-0.2587891 -0.361328,-0.078125 -0.810547,-0.078125 -0.429688,0 -0.830078,0.058594 -0.395508,0.058594 -0.683594,0.1171875 v -3.7451172 h 4.375 v 0.8544922 h -3.432617 v 1.9335937 q 0.209961,-0.019531 0.429687,-0.029297 0.219727,-0.00977 0.38086,-0.00977 0.59082,0 1.035156,0.1025391 0.444336,0.097656 0.81543,0.3515625 0.390625,0.2685546 0.605468,0.6933593 0.214844,0.4248046 0.214844,1.0644531 z"
     style="fill:#262626"
     id="path1209" /></g>
   </g>
        <g
           xml:space="preserve"
           font-weight="normal"
           font-family="FreeSans"
           transform="translate(344.089,261.96)"
           font-style="normal"
           font-size="10px"
           id="g207">
    <g
   aria-label="4"
   id="text205"
   style="fill:#262626"><path
     d="M 5.8740234,-2.0458984 H 4.7949219 V 0 h -0.9375 V -2.0458984 H 0.37597656 V -3.1689453 L 3.8964844,-7.2705078 h 0.8984375 v 4.4433594 h 1.0791015 z m -2.0166015,-0.78125 v -3.28125 l -2.8173828,3.28125 z"
     style="fill:#262626"
     id="path1212" /></g>
   </g>
        <path
           id="polyline209"
           style="fill:none;stroke:#262626;stroke-width:0.5"
           d="m 49.8581,246.47 h 2.9746" />
        <path
           id="polyline211"
           style="fill:none;stroke:#262626;stroke-width:0.5"
           d="m 347.089,246.47 h -2.974" />
        <path
           id="polyline213"
           style="fill:none;stroke:#262626;stroke-width:0.5"
           d="m 49.8581,190.045 h 2.9746" />
        <path
           id="polyline215"
           style="fill:none;stroke:#262626;stroke-width:0.5"
           d="m 347.089,190.045 h -2.974" />
        <path
           id="polyline217"
           style="fill:none;stroke:#262626;stroke-width:0.5"
           d="m 49.8581,133.62 h 2.9746" />
        <path
           id="polyline219"
           style="fill:none;stroke:#262626;stroke-width:0.5"
           d="m 347.089,133.62 h -2.974" />
        <path
           id="polyline221"
           style="fill:none;stroke:#262626;stroke-width:0.5"
           d="m 49.8581,77.195 h 2.9746" />
        <path
           id="polyline223"
           style="fill:none;stroke:#262626;stroke-width:0.5"
           d="m 347.089,77.195 h -2.974" />
        <path
           id="polyline225"
           style="fill:none;stroke:#262626;stroke-width:0.5"
           d="m 49.8581,20.77 h 2.9746" />
        <path
           id="polyline227"
           style="fill:none;stroke:#262626;stroke-width:0.5"
           d="m 347.089,20.77 h -2.974" />
        <g
           xml:space="preserve"
           font-weight="normal"
           font-family="FreeSans"
           transform="translate(35.8542,250.47)"
           font-style="normal"
           font-size="10px"
           id="g231">
    <g
   aria-label="-1"
   id="text229"
   style="fill:#262626"><path
     d="M 3.7939453,-2.7392578 H 0.74707031 V -3.6230469 H 3.7939453 Z"
     style="fill:#262626"
     id="path1225" /><path
     d="M 8.2929688,0 H 4.3574219 V -0.7421875 H 5.8710937 V -5.6152344 H 4.3574219 v -0.6640625 q 0.3076172,0 0.6591797,-0.048828 0.3515625,-0.053711 0.5322265,-0.1513672 0.2246094,-0.1220703 0.3515625,-0.3076172 0.131836,-0.1904297 0.1513672,-0.5078125 h 0.7568359 v 6.5527344 h 1.4843751 z"
     style="fill:#262626"
     id="path1227" /></g>
   </g>
        <g
           xml:space="preserve"
           font-weight="normal"
           font-family="FreeSans"
           transform="translate(26.8542,194.045)"
           font-style="normal"
           font-size="10px"
           id="g235">
    <g
   aria-label="-0.5"
   id="text233"
   style="fill:#262626"><path
     d="M 3.7939453,-2.7392578 H 0.74707031 V -3.6230469 H 3.7939453 Z"
     style="fill:#262626"
     id="path1230" /><path
     d="m 8.6982422,-3.6376953 q 0,1.9580078 -0.6152344,2.87597655 -0.6103516,0.91308594 -1.8994141,0.91308594 -1.3085937,0 -1.9140625,-0.92773438 -0.6005859,-0.92773441 -0.6005859,-2.85156251 0,-1.9384765 0.6103516,-2.8613281 0.6103515,-0.9277344 1.9042968,-0.9277344 1.3085938,0 1.9091797,0.9423828 0.6054688,0.9375 0.6054688,2.8369141 z m -1.2841797,2.2167969 q 0.1708984,-0.3955078 0.2294922,-0.9277344 0.063477,-0.5371094 0.063477,-1.2890625 0,-0.7421875 -0.063477,-1.2890625 -0.058594,-0.546875 -0.234375,-0.9277344 -0.1708985,-0.3759765 -0.46875,-0.5664062 -0.2929688,-0.1904297 -0.756836,-0.1904297 -0.4589843,0 -0.7617187,0.1904297 -0.2978516,0.1904297 -0.4736328,0.5761718 -0.1660156,0.3613282 -0.2294922,0.9423829 -0.058594,0.5810546 -0.058594,1.274414 0,0.7617188 0.053711,1.2744141 0.053711,0.5126953 0.2294922,0.9179687 0.1611328,0.3808594 0.4541015,0.58105471 0.2978516,0.20019532 0.7861328,0.20019532 0.4589844,0 0.7617188,-0.19042969 0.3027344,-0.19042964 0.4687502,-0.57617184 z"
     style="fill:#262626"
     id="path1232" /><path
     d="m 11.402344,0 h -1.166992 v -1.3916016 h 1.166992 z"
     style="fill:#262626"
     id="path1234" /><path
     d="m 17.649414,-2.3095703 q 0,0.5078125 -0.185547,0.9716797 -0.185547,0.46386716 -0.507812,0.78124998 -0.351563,0.34179687 -0.839844,0.52734374 -0.483398,0.18066407 -1.123047,0.18066407 -0.595703,0 -1.147461,-0.12695313 -0.551758,-0.12207031 -0.932617,-0.29785156 v -1.0302734 h 0.06836 q 0.400391,0.2539062 0.9375,0.43457027 0.53711,0.17578126 1.054688,0.17578126 0.34668,0 0.668945,-0.0976563 0.327149,-0.0976563 0.581055,-0.34179683 0.214844,-0.2099609 0.322265,-0.5029297 0.112305,-0.2929687 0.112305,-0.6787109 0,-0.3759766 -0.131836,-0.6347657 -0.126953,-0.2587891 -0.356445,-0.4150391 -0.253906,-0.1855468 -0.620117,-0.2587891 -0.361328,-0.078125 -0.810547,-0.078125 -0.429688,0 -0.830078,0.058594 -0.395508,0.058594 -0.683594,0.1171875 v -3.7451172 h 4.375 v 0.8544922 H 14.16797 v 1.9335937 q 0.209961,-0.019531 0.429687,-0.029297 0.219727,-0.00977 0.38086,-0.00977 0.59082,0 1.035156,0.1025391 0.444336,0.097656 0.81543,0.3515625 0.390625,0.2685546 0.605468,0.6933593 0.214844,0.4248046 0.214844,1.0644531 z"
     style="fill:#262626"
     id="path1236" /></g>
   </g>
        <g
           xml:space="preserve"
           font-weight="normal"
           font-family="FreeSans"
           transform="translate(38.8542,137.62)"
           font-style="normal"
           font-size="10px"
           id="g239">
    <g
   aria-label="0"
   id="text237"
   style="fill:#262626"><path
     d="m 5.6982422,-3.6376953 q 0,1.9580078 -0.6152344,2.87597655 -0.6103516,0.91308594 -1.899414,0.91308594 -1.3085938,0 -1.9140626,-0.92773438 -0.60058589,-0.92773441 -0.60058589,-2.85156251 0,-1.9384765 0.61035159,-2.8613281 0.6103515,-0.9277344 1.9042969,-0.9277344 1.3085937,0 1.9091796,0.9423828 0.6054688,0.9375 0.6054688,2.8369141 z m -1.2841797,2.2167969 q 0.1708984,-0.3955078 0.2294922,-0.9277344 0.063477,-0.5371094 0.063477,-1.2890625 0,-0.7421875 -0.063477,-1.2890625 -0.058594,-0.546875 -0.234375,-0.9277344 -0.1708985,-0.3759765 -0.46875,-0.5664062 -0.2929688,-0.1904297 -0.7568359,-0.1904297 -0.4589844,0 -0.7617188,0.1904297 -0.2978516,0.1904297 -0.4736328,0.5761718 -0.1660156,0.3613282 -0.2294922,0.9423829 -0.058594,0.5810546 -0.058594,1.274414 0,0.7617188 0.053711,1.2744141 0.053711,0.5126953 0.2294922,0.9179687 0.1611328,0.3808594 0.4541015,0.58105471 0.2978516,0.20019532 0.7861329,0.20019532 0.4589843,0 0.7617187,-0.19042969 0.3027344,-0.19042964 0.4687502,-0.57617184 z"
     style="fill:#262626"
     id="path1239" /></g>
   </g>
        <g
           xml:space="preserve"
           font-weight="normal"
           font-family="FreeSans"
           transform="translate(29.8542,81.195)"
           font-style="normal"
           font-size="10px"
           id="g243">
    <g
   aria-label="0.5"
   id="text241"
   style="fill:#262626"><path
     d="m 5.6982422,-3.6376953 q 0,1.9580078 -0.6152344,2.87597655 -0.6103516,0.91308594 -1.899414,0.91308594 -1.3085938,0 -1.9140626,-0.92773438 -0.60058589,-0.92773441 -0.60058589,-2.85156251 0,-1.9384765 0.61035159,-2.8613281 0.6103515,-0.9277344 1.9042969,-0.9277344 1.3085937,0 1.9091796,0.9423828 0.6054688,0.9375 0.6054688,2.8369141 z m -1.2841797,2.2167969 q 0.1708984,-0.3955078 0.2294922,-0.9277344 0.063477,-0.5371094 0.063477,-1.2890625 0,-0.7421875 -0.063477,-1.2890625 -0.058594,-0.546875 -0.234375,-0.9277344 -0.1708985,-0.3759765 -0.46875,-0.5664062 -0.2929688,-0.1904297 -0.7568359,-0.1904297 -0.4589844,0 -0.7617188,0.1904297 -0.2978516,0.1904297 -0.4736328,0.5761718 -0.1660156,0.3613282 -0.2294922,0.9423829 -0.058594,0.5810546 -0.058594,1.274414 0,0.7617188 0.053711,1.2744141 0.053711,0.5126953 0.2294922,0.9179687 0.1611328,0.3808594 0.4541015,0.58105471 0.2978516,0.20019532 0.7861329,0.20019532 0.4589843,0 0.7617187,-0.19042969 0.3027344,-0.19042964 0.4687502,-0.57617184 z"
     style="fill:#262626"
     id="path1242" /><path
     d="M 8.4023438,0 H 7.2353516 v -1.3916016 h 1.1669922 z"
     style="fill:#262626"
     id="path1244" /><path
     d="m 14.649414,-2.3095703 q 0,0.5078125 -0.185547,0.9716797 -0.185547,0.46386716 -0.507812,0.78124998 -0.351563,0.34179687 -0.839844,0.52734374 -0.483398,0.18066407 -1.123047,0.18066407 -0.595703,0 -1.147461,-0.12695313 -0.551758,-0.12207031 -0.9326171,-0.29785156 v -1.0302734 h 0.068359 q 0.4003911,0.2539062 0.9375001,0.43457027 0.53711,0.17578126 1.054688,0.17578126 0.34668,0 0.668945,-0.0976563 0.327149,-0.0976563 0.581055,-0.34179683 0.214844,-0.2099609 0.322265,-0.5029297 0.112305,-0.2929687 0.112305,-0.6787109 0,-0.3759766 -0.131836,-0.6347657 -0.126953,-0.2587891 -0.356445,-0.4150391 -0.253906,-0.1855468 -0.620117,-0.2587891 -0.361328,-0.078125 -0.810547,-0.078125 -0.429688,0 -0.830078,0.058594 -0.395508,0.058594 -0.683594,0.1171875 v -3.7451172 h 4.375 v 0.8544922 h -3.432617 v 1.9335937 q 0.209961,-0.019531 0.429687,-0.029297 0.219727,-0.00977 0.38086,-0.00977 0.59082,0 1.035156,0.1025391 0.444336,0.097656 0.81543,0.3515625 0.390625,0.2685546 0.605468,0.6933593 0.214844,0.4248046 0.214844,1.0644531 z"
     style="fill:#262626"
     id="path1246" /></g>
   </g>
        <g
           xml:space="preserve"
           font-weight="normal"
           font-family="FreeSans"
           transform="translate(38.8542,24.77)"
           font-style="normal"
           font-size="10px"
           id="g247">
    <g
   aria-label="1"
   id="text245"
   style="fill:#262626"><path
     d="M 5.2929687,0 H 1.3574219 V -0.7421875 H 2.8710938 V -5.6152344 H 1.3574219 v -0.6640625 q 0.3076172,0 0.6591797,-0.048828 0.3515625,-0.053711 0.5322265,-0.1513672 0.2246094,-0.1220703 0.3515625,-0.3076172 0.131836,-0.1904297 0.1513672,-0.5078125 h 0.756836 v 6.5527344 h 1.4843749 z"
     style="fill:#262626"
     id="path1249" /></g>
   </g>
        <path
           id="polyline249"
           style="fill:none;stroke:#262626;stroke-width:0.5;stroke-linecap:square;stroke-dasharray:16, 0"
           d="M 49.8581,246.47 H 347.089" />
        <path
           id="polyline251"
           style="fill:none;stroke:#262626;stroke-width:0.5;stroke-linecap:square;stroke-dasharray:16, 0"
           d="M 49.8581,20.77 H 347.089" />
        <path
           id="polyline253"
           style="fill:none;stroke:#262626;stroke-width:0.5;stroke-linecap:square;stroke-dasharray:16, 0"
           d="M 49.8581,246.47 V 20.77" />
        <path
           id="polyline255"
           style="fill:none;stroke:#262626;stroke-width:0.5;stroke-linecap:square;stroke-dasharray:16, 0"
           d="M 347.089,246.47 V 20.77" />
        <path
           id="polyline257"
           style="fill:none;stroke:#0071bc;stroke-width:0.5;stroke-linejoin:round"
           d="m 49.8581,38.66 8.2564,-4.7456 8.2565,-4.0537 8.2564,-3.3336 8.2564,-2.5902 8.2564,-1.8291 8.2564,-1.0551 8.2564,-0.2738 8.256,0.5094 8.257,1.2888 8.256,2.0598 8.257,2.8161 8.256,3.5528 8.257,4.2651 8.256,4.9477 8.256,5.5958 8.257,6.2054 8.256,6.7717 8.257,7.2909 8.256,7.7598 8.256,8.1747 8.257,8.5327 8.256,8.8317 8.257,9.0697 8.256,9.244 8.257,9.354 8.256,9.4 8.256,9.381 8.257,9.296 8.256,9.146 8.257,8.934 8.256,8.659 8.256,8.324 8.257,7.932 8.256,7.484 8.257,6.984 8.256,6.436" />
      </g>
    </g>
  </g>
</svg>
