<?xml version="1.0" encoding="UTF-8" standalone="no"?>
<svg
   height="286pt"
   width="683pt"
   viewBox="0 0 683 286"
   version="1.1"
   id="svg1000"
   sodipodi:docname="tom_fig2+1.svg"
   inkscape:version="1.2.2 (732a01da63, 2022-12-09)"
   xmlns:inkscape="http://www.inkscape.org/namespaces/inkscape"
   xmlns:sodipodi="http://sodipodi.sourceforge.net/DTD/sodipodi-0.dtd"
   xmlns="http://www.w3.org/2000/svg"
   xmlns:svg="http://www.w3.org/2000/svg"
   xmlns:rdf="http://www.w3.org/1999/02/22-rdf-syntax-ns#"
   xmlns:cc="http://creativecommons.org/ns#"
   xmlns:dc="http://purl.org/dc/elements/1.1/">
  <sodipodi:namedview
     id="namedview1002"
     pagecolor="#ffffff"
     bordercolor="#000000"
     borderopacity="0.25"
     inkscape:showpageshadow="2"
     inkscape:pageopacity="0.0"
     inkscape:pagecheckerboard="0"
     inkscape:deskcolor="#d1d1d1"
     inkscape:document-units="pt"
     showgrid="false"
     inkscape:zoom="0.93303299"
     inkscape:cx="862.77764"
     inkscape:cy="192.38334"
     inkscape:window-width="1786"
     inkscape:window-height="1052"
     inkscape:window-x="126"
     inkscape:window-y="-8"
     inkscape:window-maximized="1"
     inkscape:current-layer="svg1000" />
  <title
     id="title841">Figure 2</title>
  <desc
     id="desc843">
Creator: GL2PS 1.4.2, (C) 1999-2020 C. Geuzaine
For: Octave
CreationDate: Sat Mar 18 11:33:14 2023
</desc>
  <defs
     id="defs845">
    <clipPath
       id="cp00345281">
      <polygon
         points="0,0 0,281 345,281 345,0 "
         id="polygon218" />
    </clipPath>
  </defs>
  <polygon
     fill="#ffffff"
     points="0,275 0,0 345,0 345,275 "
     id="polygon847" />
  <g
     id="g1567">
    <g
       id="g998"
       transform="translate(337.60864,2.4114903)">
      <path
         id="polygon849"
         style="fill:#ffffff;shape-rendering:crispEdges"
         d="M 0,0 V 275 H 345 V 0 Z" />
      <clipPath
         id="cp00345275">
        <polygon
           points="345,0 0,0 0,275 345,275 "
           id="polygon851" />
      </clipPath>
      <g
         clip-path="url(#cp00345275)"
         id="g996">
        <path
           id="polygon854"
           style="fill:#ffffff;shape-rendering:crispEdges"
           d="M 44.8857,20.6553 V 245.108 H 312.473 V 20.6553 Z" />
        <path
           id="polyline856"
           style="fill:none;stroke:#262626;stroke-width:0.5"
           d="m 44.8857,245.108 v -2.681" />
        <path
           id="polyline858"
           style="fill:none;stroke:#262626;stroke-width:0.5"
           d="m 44.8857,20.6553 v 2.6811" />
        <path
           id="polyline860"
           style="fill:none;stroke:#262626;stroke-width:0.5"
           d="m 98.4028,245.108 v -2.681" />
        <path
           id="polyline862"
           style="fill:none;stroke:#262626;stroke-width:0.5"
           d="m 98.4028,20.6553 v 2.6811" />
        <path
           id="polyline864"
           style="fill:none;stroke:#262626;stroke-width:0.5"
           d="m 151.92,245.108 v -2.681" />
        <path
           id="polyline866"
           style="fill:none;stroke:#262626;stroke-width:0.5"
           d="m 151.92,20.6553 v 2.6811" />
        <path
           id="polyline868"
           style="fill:none;stroke:#262626;stroke-width:0.5"
           d="m 205.438,245.108 v -2.681" />
        <path
           id="polyline870"
           style="fill:none;stroke:#262626;stroke-width:0.5"
           d="m 205.438,20.6553 v 2.6811" />
        <path
           id="polyline872"
           style="fill:none;stroke:#262626;stroke-width:0.5"
           d="m 258.955,245.108 v -2.681" />
        <path
           id="polyline874"
           style="fill:none;stroke:#262626;stroke-width:0.5"
           d="m 258.955,20.6553 v 2.6811" />
        <path
           id="polyline876"
           style="fill:none;stroke:#262626;stroke-width:0.5"
           d="m 312.473,245.108 v -2.681" />
        <path
           id="polyline878"
           style="fill:none;stroke:#262626;stroke-width:0.5"
           d="m 312.473,20.6553 v 2.6811" />
        <g
           font-style="normal"
           xml:space="preserve"
           font-size="10px"
           font-family="FreeSans"
           font-weight="normal"
           transform="translate(41.8856,260.624)"
           id="g882">
    <g
   aria-label="0"
   id="text880"
   style="fill:#262626"><path
     d="m 5.6982422,-3.6376953 q 0,1.9580078 -0.6152344,2.87597655 -0.6103516,0.91308594 -1.899414,0.91308594 -1.3085938,0 -1.9140626,-0.92773438 -0.60058589,-0.92773441 -0.60058589,-2.85156251 0,-1.9384765 0.61035159,-2.8613281 0.6103515,-0.9277344 1.9042969,-0.9277344 1.3085937,0 1.9091796,0.9423828 0.6054688,0.9375 0.6054688,2.8369141 z m -1.2841797,2.2167969 q 0.1708984,-0.3955078 0.2294922,-0.9277344 0.063477,-0.5371094 0.063477,-1.2890625 0,-0.7421875 -0.063477,-1.2890625 -0.058594,-0.546875 -0.234375,-0.9277344 -0.1708985,-0.3759765 -0.46875,-0.5664062 -0.2929688,-0.1904297 -0.7568359,-0.1904297 -0.4589844,0 -0.7617188,0.1904297 -0.2978516,0.1904297 -0.4736328,0.5761718 -0.1660156,0.3613282 -0.2294922,0.9423829 -0.058594,0.5810546 -0.058594,1.274414 0,0.7617188 0.053711,1.2744141 0.053711,0.5126953 0.2294922,0.9179687 0.1611328,0.3808594 0.4541015,0.58105471 0.2978516,0.20019532 0.7861329,0.20019532 0.4589843,0 0.7617187,-0.19042969 0.3027344,-0.19042964 0.4687502,-0.57617184 z"
     id="path1583" /></g>
   </g>
        <g
           font-style="normal"
           xml:space="preserve"
           font-size="10px"
           font-family="FreeSans"
           font-weight="normal"
           transform="translate(90.903,260.624)"
           id="g886">
    <g
   aria-label="0.2"
   id="text884"
   style="fill:#262626"><path
     d="m 5.6982422,-3.6376953 q 0,1.9580078 -0.6152344,2.87597655 -0.6103516,0.91308594 -1.899414,0.91308594 -1.3085938,0 -1.9140626,-0.92773438 -0.60058589,-0.92773441 -0.60058589,-2.85156251 0,-1.9384765 0.61035159,-2.8613281 0.6103515,-0.9277344 1.9042969,-0.9277344 1.3085937,0 1.9091796,0.9423828 0.6054688,0.9375 0.6054688,2.8369141 z m -1.2841797,2.2167969 q 0.1708984,-0.3955078 0.2294922,-0.9277344 0.063477,-0.5371094 0.063477,-1.2890625 0,-0.7421875 -0.063477,-1.2890625 -0.058594,-0.546875 -0.234375,-0.9277344 -0.1708985,-0.3759765 -0.46875,-0.5664062 -0.2929688,-0.1904297 -0.7568359,-0.1904297 -0.4589844,0 -0.7617188,0.1904297 -0.2978516,0.1904297 -0.4736328,0.5761718 -0.1660156,0.3613282 -0.2294922,0.9423829 -0.058594,0.5810546 -0.058594,1.274414 0,0.7617188 0.053711,1.2744141 0.053711,0.5126953 0.2294922,0.9179687 0.1611328,0.3808594 0.4541015,0.58105471 0.2978516,0.20019532 0.7861329,0.20019532 0.4589843,0 0.7617187,-0.19042969 0.3027344,-0.19042964 0.4687502,-0.57617184 z"
     id="path1586" /><path
     d="M 8.4023438,0 H 7.2353516 v -1.3916016 h 1.1669922 z"
     id="path1588" /><path
     d="M 14.708008,0 H 9.7861328 v -1.0205078 q 0.5126952,-0.4394531 1.0253902,-0.8789063 0.517579,-0.4394531 0.961915,-0.8740234 0.9375,-0.9082031 1.284179,-1.4404297 0.34668,-0.5371094 0.34668,-1.1572265 0,-0.5664063 -0.375977,-0.8837891 -0.371093,-0.3222656 -1.040039,-0.3222656 -0.444336,0 -0.961914,0.15625 -0.517578,0.15625 -1.010742,0.4785156 H 9.966797 v -1.0253906 q 0.34668,-0.1708985 0.922851,-0.3125 0.581055,-0.1416016 1.123047,-0.1416016 1.118164,0 1.75293,0.5419922 0.634766,0.5371094 0.634766,1.4599609 0,0.4150391 -0.107422,0.7763672 -0.102539,0.3564453 -0.307617,0.6787109 -0.19043,0.3027344 -0.449219,0.5957032 -0.253906,0.2929687 -0.620117,0.649414 -0.522461,0.5126953 -1.079102,0.9960938 -0.556641,0.4785156 -1.040039,0.88867186 h 3.911133 z"
     id="path1590" /></g>
   </g>
        <g
           font-style="normal"
           xml:space="preserve"
           font-size="10px"
           font-family="FreeSans"
           font-weight="normal"
           transform="translate(144.42,260.624)"
           id="g890">
    <g
   aria-label="0.4"
   id="text888"
   style="fill:#262626"><path
     d="m 5.6982422,-3.6376953 q 0,1.9580078 -0.6152344,2.87597655 -0.6103516,0.91308594 -1.899414,0.91308594 -1.3085938,0 -1.9140626,-0.92773438 -0.60058589,-0.92773441 -0.60058589,-2.85156251 0,-1.9384765 0.61035159,-2.8613281 0.6103515,-0.9277344 1.9042969,-0.9277344 1.3085937,0 1.9091796,0.9423828 0.6054688,0.9375 0.6054688,2.8369141 z m -1.2841797,2.2167969 q 0.1708984,-0.3955078 0.2294922,-0.9277344 0.063477,-0.5371094 0.063477,-1.2890625 0,-0.7421875 -0.063477,-1.2890625 -0.058594,-0.546875 -0.234375,-0.9277344 -0.1708985,-0.3759765 -0.46875,-0.5664062 -0.2929688,-0.1904297 -0.7568359,-0.1904297 -0.4589844,0 -0.7617188,0.1904297 -0.2978516,0.1904297 -0.4736328,0.5761718 -0.1660156,0.3613282 -0.2294922,0.9423829 -0.058594,0.5810546 -0.058594,1.274414 0,0.7617188 0.053711,1.2744141 0.053711,0.5126953 0.2294922,0.9179687 0.1611328,0.3808594 0.4541015,0.58105471 0.2978516,0.20019532 0.7861329,0.20019532 0.4589843,0 0.7617187,-0.19042969 0.3027344,-0.19042964 0.4687502,-0.57617184 z"
     id="path1593" /><path
     d="M 8.4023438,0 H 7.2353516 v -1.3916016 h 1.1669922 z"
     id="path1595" /><path
     d="M 14.874023,-2.0458984 H 13.794922 V 0 h -0.9375 V -2.0458984 H 9.3759766 v -1.1230469 l 3.5205074,-4.1015625 h 0.898438 v 4.4433594 h 1.079101 z m -2.016601,-0.78125 v -3.28125 l -2.817383,3.28125 z"
     id="path1597" /></g>
   </g>
        <g
           font-style="normal"
           xml:space="preserve"
           font-size="10px"
           font-family="FreeSans"
           font-weight="normal"
           transform="translate(197.938,260.624)"
           id="g894">
    <g
   aria-label="0.6"
   id="text892"
   style="fill:#262626"><path
     d="m 5.6982422,-3.6376953 q 0,1.9580078 -0.6152344,2.87597655 -0.6103516,0.91308594 -1.899414,0.91308594 -1.3085938,0 -1.9140626,-0.92773438 -0.60058589,-0.92773441 -0.60058589,-2.85156251 0,-1.9384765 0.61035159,-2.8613281 0.6103515,-0.9277344 1.9042969,-0.9277344 1.3085937,0 1.9091796,0.9423828 0.6054688,0.9375 0.6054688,2.8369141 z m -1.2841797,2.2167969 q 0.1708984,-0.3955078 0.2294922,-0.9277344 0.063477,-0.5371094 0.063477,-1.2890625 0,-0.7421875 -0.063477,-1.2890625 -0.058594,-0.546875 -0.234375,-0.9277344 -0.1708985,-0.3759765 -0.46875,-0.5664062 -0.2929688,-0.1904297 -0.7568359,-0.1904297 -0.4589844,0 -0.7617188,0.1904297 -0.2978516,0.1904297 -0.4736328,0.5761718 -0.1660156,0.3613282 -0.2294922,0.9423829 -0.058594,0.5810546 -0.058594,1.274414 0,0.7617188 0.053711,1.2744141 0.053711,0.5126953 0.2294922,0.9179687 0.1611328,0.3808594 0.4541015,0.58105471 0.2978516,0.20019532 0.7861329,0.20019532 0.4589843,0 0.7617187,-0.19042969 0.3027344,-0.19042964 0.4687502,-0.57617184 z"
     id="path1600" /><path
     d="M 8.4023438,0 H 7.2353516 v -1.3916016 h 1.1669922 z"
     id="path1602" /><path
     d="m 14.81543,-2.3583984 q 0,1.1083984 -0.732422,1.8115234 -0.727539,0.69824219 -1.78711,0.69824219 -0.537109,0 -0.976562,-0.16601563 -0.439453,-0.16601562 -0.776367,-0.49316406 -0.419922,-0.40527344 -0.6494143,-1.0742187 -0.2246094,-0.6689454 -0.2246094,-1.6113282 0,-0.9667968 0.2050781,-1.7138672 0.2099606,-0.7470703 0.6640626,-1.328125 0.429687,-0.5517578 1.108398,-0.859375 0.678711,-0.3125 1.582032,-0.3125 0.288086,0 0.483398,0.024414 0.195313,0.024414 0.395508,0.087891 v 0.9326172 h -0.04883 q -0.136719,-0.073242 -0.415039,-0.1367187 -0.273438,-0.068359 -0.561524,-0.068359 -1.049804,0 -1.674804,0.6591797 -0.625,0.6542969 -0.727539,1.7724609 0.410156,-0.2490234 0.805664,-0.3759765 0.40039,-0.131836 0.922851,-0.131836 0.463867,0 0.81543,0.087891 0.356445,0.083008 0.727539,0.3417969 0.429687,0.2978516 0.644531,0.7519531 0.219727,0.4541016 0.219727,1.1035157 z m -0.991211,0.039063 q 0,-0.4541016 -0.136719,-0.7519532 -0.131836,-0.2978515 -0.439453,-0.5175781 -0.224609,-0.15625 -0.498047,-0.2050781 -0.273437,-0.048828 -0.571289,-0.048828 -0.415039,0 -0.771484,0.097656 -0.356446,0.097656 -0.732422,0.3027344 -0.0098,0.1074219 -0.01465,0.2099609 -0.0049,0.097656 -0.0049,0.2490235 0,0.7714843 0.15625,1.2207031 0.161133,0.4443359 0.439454,0.703125 0.224609,0.21484374 0.483398,0.3173828 0.263672,0.0976563 0.571289,0.0976563 0.708008,0 1.113281,-0.4296875 0.405274,-0.4345704 0.405274,-1.2451172 z"
     id="path1604" /></g>
   </g>
        <g
           font-style="normal"
           xml:space="preserve"
           font-size="10px"
           font-family="FreeSans"
           font-weight="normal"
           transform="translate(251.455,260.624)"
           id="g898">
    <g
   aria-label="0.8"
   id="text896"
   style="fill:#262626"><path
     d="m 5.6982422,-3.6376953 q 0,1.9580078 -0.6152344,2.87597655 -0.6103516,0.91308594 -1.899414,0.91308594 -1.3085938,0 -1.9140626,-0.92773438 -0.60058589,-0.92773441 -0.60058589,-2.85156251 0,-1.9384765 0.61035159,-2.8613281 0.6103515,-0.9277344 1.9042969,-0.9277344 1.3085937,0 1.9091796,0.9423828 0.6054688,0.9375 0.6054688,2.8369141 z m -1.2841797,2.2167969 q 0.1708984,-0.3955078 0.2294922,-0.9277344 0.063477,-0.5371094 0.063477,-1.2890625 0,-0.7421875 -0.063477,-1.2890625 -0.058594,-0.546875 -0.234375,-0.9277344 -0.1708985,-0.3759765 -0.46875,-0.5664062 -0.2929688,-0.1904297 -0.7568359,-0.1904297 -0.4589844,0 -0.7617188,0.1904297 -0.2978516,0.1904297 -0.4736328,0.5761718 -0.1660156,0.3613282 -0.2294922,0.9423829 -0.058594,0.5810546 -0.058594,1.274414 0,0.7617188 0.053711,1.2744141 0.053711,0.5126953 0.2294922,0.9179687 0.1611328,0.3808594 0.4541015,0.58105471 0.2978516,0.20019532 0.7861329,0.20019532 0.4589843,0 0.7617187,-0.19042969 0.3027344,-0.19042964 0.4687502,-0.57617184 z"
     id="path1607" /><path
     d="M 8.4023438,0 H 7.2353516 v -1.3916016 h 1.1669922 z"
     id="path1609" /><path
     d="m 14.761719,-2.0263672 q 0,0.9423828 -0.737305,1.56738282 -0.732422,0.625 -1.845703,0.625 -1.181641,0 -1.884766,-0.61035156 -0.6982419,-0.61035156 -0.6982419,-1.56249996 0,-0.6054688 0.3515625,-1.09375 0.3515624,-0.4931641 0.9912114,-0.78125 v -0.029297 q -0.585938,-0.3125 -0.869141,-0.6835938 -0.2783204,-0.3710937 -0.2783204,-0.9277343 0,-0.8203125 0.6738284,-1.3671875 0.673828,-0.546875 1.713867,-0.546875 1.088867,0 1.738281,0.5224609 0.649414,0.5224609 0.649414,1.328125 0,0.4931641 -0.307617,0.9716797 -0.307617,0.4736328 -0.90332,0.7421875 v 0.029297 q 0.683594,0.2929687 1.044922,0.7226562 0.361328,0.4296875 0.361328,1.09375 z m -1.157227,-3.5498047 q 0,-0.5224609 -0.405273,-0.8300781 -0.400391,-0.3125 -1.025391,-0.3125 -0.615234,0 -1.010742,0.2929688 -0.390625,0.2929687 -0.390625,0.7910156 0,0.3515625 0.195312,0.6103515 0.200196,0.2539063 0.600586,0.4541016 0.180664,0.087891 0.517579,0.2294922 0.341796,0.1416016 0.664062,0.234375 0.483398,-0.3222656 0.668945,-0.6689453 0.185547,-0.3466797 0.185547,-0.8007813 z m 0.151367,3.6425782 q 0,-0.4492188 -0.200195,-0.7177735 -0.195312,-0.2734375 -0.771484,-0.546875 -0.229492,-0.1074219 -0.50293,-0.2001953 -0.273437,-0.092773 -0.727539,-0.2587891 -0.439453,0.2392578 -0.708008,0.6494141 -0.263672,0.4101562 -0.263672,0.9277344 0,0.6591797 0.454102,1.08886716 0.454101,0.4296875 1.152344,0.4296875 0.71289,0 1.137695,-0.36621094 0.429687,-0.36621092 0.429687,-1.00585932 z"
     id="path1611" /></g>
   </g>
        <g
           font-style="normal"
           xml:space="preserve"
           font-size="10px"
           font-family="FreeSans"
           font-weight="normal"
           transform="translate(309.473,260.624)"
           id="g902">
    <g
   aria-label="1"
   id="text900"
   style="fill:#262626"><path
     d="M 5.2929687,0 H 1.3574219 V -0.7421875 H 2.8710938 V -5.6152344 H 1.3574219 v -0.6640625 q 0.3076172,0 0.6591797,-0.048828 0.3515625,-0.053711 0.5322265,-0.1513672 0.2246094,-0.1220703 0.3515625,-0.3076172 0.131836,-0.1904297 0.1513672,-0.5078125 h 0.756836 v 6.5527344 h 1.4843749 z"
     id="path1614" /></g>
   </g>
        <path
           id="polyline904"
           style="fill:none;stroke:#262626;stroke-width:0.5"
           d="m 44.8857,245.108 h 2.6714" />
        <path
           id="polyline906"
           style="fill:none;stroke:#262626;stroke-width:0.5"
           d="m 312.473,245.108 h -2.672" />
        <path
           id="polyline908"
           style="fill:none;stroke:#262626;stroke-width:0.5"
           d="m 44.8857,188.995 h 2.6714" />
        <path
           id="polyline910"
           style="fill:none;stroke:#262626;stroke-width:0.5"
           d="m 312.473,188.995 h -2.672" />
        <path
           id="polyline912"
           style="fill:none;stroke:#262626;stroke-width:0.5"
           d="m 44.8857,132.882 h 2.6714" />
        <path
           id="polyline914"
           style="fill:none;stroke:#262626;stroke-width:0.5"
           d="m 312.473,132.882 h -2.672" />
        <path
           id="polyline916"
           style="fill:none;stroke:#262626;stroke-width:0.5"
           d="m 44.8857,76.7686 h 2.6714" />
        <path
           id="polyline918"
           style="fill:none;stroke:#262626;stroke-width:0.5"
           d="m 312.473,76.7686 h -2.672" />
        <path
           id="polyline920"
           style="fill:none;stroke:#262626;stroke-width:0.5"
           d="m 44.8857,20.6553 h 2.6714" />
        <path
           id="polyline922"
           style="fill:none;stroke:#262626;stroke-width:0.5"
           d="m 312.473,20.6553 h -2.672" />
        <g
           font-style="normal"
           xml:space="preserve"
           font-size="10px"
           font-family="FreeSans"
           font-weight="normal"
           transform="translate(24.8933,249.109)"
           id="g926">
    <g
   aria-label="-10"
   id="text924"
   style="fill:#262626"><path
     d="M 3.7939453,-2.7392578 H 0.74707031 V -3.6230469 H 3.7939453 Z"
     id="path1627" /><path
     d="M 8.2929688,0 H 4.3574219 V -0.7421875 H 5.8710937 V -5.6152344 H 4.3574219 v -0.6640625 q 0.3076172,0 0.6591797,-0.048828 0.3515625,-0.053711 0.5322265,-0.1513672 0.2246094,-0.1220703 0.3515625,-0.3076172 0.131836,-0.1904297 0.1513672,-0.5078125 h 0.7568359 v 6.5527344 h 1.4843751 z"
     id="path1629" /><path
     d="m 14.698242,-3.6376953 q 0,1.9580078 -0.615234,2.87597655 -0.610352,0.91308594 -1.899414,0.91308594 -1.308594,0 -1.914063,-0.92773438 -0.6005857,-0.92773441 -0.6005857,-2.85156251 0,-1.9384765 0.6103517,-2.8613281 0.610351,-0.9277344 1.904297,-0.9277344 1.308594,0 1.909179,0.9423828 0.605469,0.9375 0.605469,2.8369141 z m -1.284179,2.2167969 q 0.170898,-0.3955078 0.229492,-0.9277344 0.06348,-0.5371094 0.06348,-1.2890625 0,-0.7421875 -0.06348,-1.2890625 -0.05859,-0.546875 -0.234375,-0.9277344 -0.170899,-0.3759765 -0.46875,-0.5664062 -0.292969,-0.1904297 -0.756836,-0.1904297 -0.458985,0 -0.761719,0.1904297 -0.297852,0.1904297 -0.473633,0.5761718 -0.166015,0.3613282 -0.229492,0.9423829 -0.05859,0.5810546 -0.05859,1.274414 0,0.7617188 0.05371,1.2744141 0.05371,0.5126953 0.229492,0.9179687 0.161133,0.3808594 0.454102,0.58105471 0.297852,0.20019532 0.786133,0.20019532 0.458984,0 0.761719,-0.19042969 0.302734,-0.19042964 0.46875,-0.57617184 z"
     id="path1631" /></g>
   </g>
        <g
           font-style="normal"
           xml:space="preserve"
           font-size="10px"
           font-family="FreeSans"
           font-weight="normal"
           transform="translate(30.8933,192.995)"
           id="g930">
    <g
   aria-label="-5"
   id="text928"
   style="fill:#262626"><path
     d="M 3.7939453,-2.7392578 H 0.74707031 V -3.6230469 H 3.7939453 Z"
     id="path1634" /><path
     d="m 8.6494141,-2.3095703 q 0,0.5078125 -0.1855469,0.9716797 -0.1855469,0.46386716 -0.5078125,0.78124998 -0.3515625,0.34179687 -0.8398438,0.52734374 -0.4833984,0.18066407 -1.1230468,0.18066407 -0.5957032,0 -1.147461,-0.12695313 Q 4.2939453,-0.09765625 3.9130859,-0.2734375 v -1.0302734 h 0.068359 q 0.4003906,0.2539062 0.9375,0.43457027 0.5371094,0.17578126 1.0546875,0.17578126 0.3466797,0 0.6689453,-0.0976563 0.3271485,-0.0976563 0.5810547,-0.34179693 0.2148438,-0.2099609 0.3222656,-0.5029297 0.1123047,-0.2929687 0.1123047,-0.6787109 0,-0.3759766 -0.1318359,-0.6347657 Q 7.3994137,-3.2080079 7.1699215,-3.3642579 6.9160152,-3.5498048 6.5498043,-3.623047 6.1884762,-3.701172 5.7392574,-3.701172 q -0.4296875,0 -0.8300781,0.058594 -0.3955078,0.058594 -0.6835938,0.1171875 v -3.7451172 h 4.375 v 0.8544922 H 5.1679687 v 1.9335937 q 0.209961,-0.019531 0.4296875,-0.029297 0.2197266,-0.00977 0.3808594,-0.00977 0.5908203,0 1.0351563,0.1025391 0.4443359,0.097656 0.8154297,0.3515625 0.390625,0.2685546 0.6054687,0.6933593 0.2148438,0.4248046 0.2148438,1.0644531 z"
     id="path1636" /></g>
   </g>
        <g
           font-style="normal"
           xml:space="preserve"
           font-size="10px"
           font-family="FreeSans"
           font-weight="normal"
           transform="translate(33.8933,136.882)"
           id="g934">
    <g
   aria-label="0"
   id="text932"
   style="fill:#262626"><path
     d="m 5.6982422,-3.6376953 q 0,1.9580078 -0.6152344,2.87597655 -0.6103516,0.91308594 -1.899414,0.91308594 -1.3085938,0 -1.9140626,-0.92773438 -0.60058589,-0.92773441 -0.60058589,-2.85156251 0,-1.9384765 0.61035159,-2.8613281 0.6103515,-0.9277344 1.9042969,-0.9277344 1.3085937,0 1.9091796,0.9423828 0.6054688,0.9375 0.6054688,2.8369141 z m -1.2841797,2.2167969 q 0.1708984,-0.3955078 0.2294922,-0.9277344 0.063477,-0.5371094 0.063477,-1.2890625 0,-0.7421875 -0.063477,-1.2890625 -0.058594,-0.546875 -0.234375,-0.9277344 -0.1708985,-0.3759765 -0.46875,-0.5664062 -0.2929688,-0.1904297 -0.7568359,-0.1904297 -0.4589844,0 -0.7617188,0.1904297 -0.2978516,0.1904297 -0.4736328,0.5761718 -0.1660156,0.3613282 -0.2294922,0.9423829 -0.058594,0.5810546 -0.058594,1.274414 0,0.7617188 0.053711,1.2744141 0.053711,0.5126953 0.2294922,0.9179687 0.1611328,0.3808594 0.4541015,0.58105471 0.2978516,0.20019532 0.7861329,0.20019532 0.4589843,0 0.7617187,-0.19042969 0.3027344,-0.19042964 0.4687502,-0.57617184 z"
     id="path1639" /></g>
   </g>
        <g
           font-style="normal"
           xml:space="preserve"
           font-size="10px"
           font-family="FreeSans"
           font-weight="normal"
           transform="translate(33.8933,80.7685)"
           id="g938">
    <g
   aria-label="5"
   id="text936"
   style="fill:#262626"><path
     d="m 5.6494141,-2.3095703 q 0,0.5078125 -0.1855469,0.9716797 -0.1855469,0.46386716 -0.5078125,0.78124998 -0.3515625,0.34179687 -0.8398438,0.52734374 -0.4833984,0.18066407 -1.1230468,0.18066407 -0.5957032,0 -1.147461,-0.12695313 Q 1.2939453,-0.09765625 0.91308594,-0.2734375 v -1.0302734 h 0.0683594 q 0.40039056,0.2539062 0.93749996,0.43457027 0.5371094,0.17578126 1.0546875,0.17578126 0.3466797,0 0.6689453,-0.0976563 0.3271485,-0.0976563 0.5810547,-0.34179693 0.2148438,-0.2099609 0.3222656,-0.5029297 0.1123047,-0.2929687 0.1123047,-0.6787109 0,-0.3759766 -0.1318359,-0.6347657 Q 4.3994141,-3.2080079 4.1699219,-3.3642579 3.9160156,-3.5498048 3.5498047,-3.623047 3.1884766,-3.701172 2.7392578,-3.701172 q -0.4296875,0 -0.8300781,0.058594 -0.3955078,0.058594 -0.6835938,0.1171875 v -3.7451172 h 4.375 v 0.8544922 H 2.1679688 v 1.9335937 q 0.2099609,-0.019531 0.4296875,-0.029297 0.2197265,-0.00977 0.3808593,-0.00977 0.5908203,0 1.0351563,0.1025391 0.4443359,0.097656 0.8154297,0.3515625 0.390625,0.2685546 0.6054687,0.6933593 0.2148438,0.4248046 0.2148438,1.0644531 z"
     id="path1642" /></g>
   </g>
        <g
           font-style="normal"
           xml:space="preserve"
           font-size="10px"
           font-family="FreeSans"
           font-weight="normal"
           transform="translate(27.8933,24.6552)"
           id="g942">
    <g
   aria-label="10"
   id="text940"
   style="fill:#262626"><path
     d="M 5.2929687,0 H 1.3574219 V -0.7421875 H 2.8710938 V -5.6152344 H 1.3574219 v -0.6640625 q 0.3076172,0 0.6591797,-0.048828 0.3515625,-0.053711 0.5322265,-0.1513672 0.2246094,-0.1220703 0.3515625,-0.3076172 0.131836,-0.1904297 0.1513672,-0.5078125 h 0.756836 v 6.5527344 h 1.4843749 z"
     id="path1645" /><path
     d="m 11.698242,-3.6376953 q 0,1.9580078 -0.615234,2.87597655 -0.610352,0.91308594 -1.8994142,0.91308594 -1.3085938,0 -1.9140626,-0.92773438 -0.6005859,-0.92773441 -0.6005859,-2.85156251 0,-1.9384765 0.6103516,-2.8613281 0.6103515,-0.9277344 1.9042969,-0.9277344 1.3085942,0 1.9091792,0.9423828 0.605469,0.9375 0.605469,2.8369141 z m -1.284179,2.2167969 q 0.170898,-0.3955078 0.229492,-0.9277344 0.06348,-0.5371094 0.06348,-1.2890625 0,-0.7421875 -0.06348,-1.2890625 -0.05859,-0.546875 -0.234375,-0.9277344 -0.170899,-0.3759765 -0.4687503,-0.5664062 -0.2929688,-0.1904297 -0.7568359,-0.1904297 -0.4589844,0 -0.7617188,0.1904297 -0.2978516,0.1904297 -0.4736328,0.5761718 -0.1660156,0.3613282 -0.2294922,0.9423829 -0.058594,0.5810546 -0.058594,1.274414 0,0.7617188 0.053711,1.2744141 0.053711,0.5126953 0.2294922,0.9179687 0.1611328,0.3808594 0.4541015,0.58105471 0.2978516,0.20019532 0.7861329,0.20019532 0.4589843,0 0.7617187,-0.19042969 0.3027347,-0.19042964 0.4687507,-0.57617184 z"
     id="path1647" /></g>
   </g>
        <path
           id="polyline944"
           style="fill:none;stroke:#262626;stroke-width:0.5;stroke-linecap:square;stroke-dasharray:16, 0"
           d="M 44.8857,245.108 H 312.473" />
        <path
           id="polyline946"
           style="fill:none;stroke:#262626;stroke-width:0.5;stroke-linecap:square;stroke-dasharray:16, 0"
           d="M 44.8857,20.6553 H 312.473" />
        <path
           id="polyline948"
           style="fill:none;stroke:#262626;stroke-width:0.5;stroke-linecap:square;stroke-dasharray:16, 0"
           d="M 44.8857,245.108 V 20.6553" />
        <path
           id="polyline950"
           style="fill:none;stroke:#262626;stroke-width:0.5;stroke-linecap:square;stroke-dasharray:16, 0"
           d="M 312.473,245.108 V 20.6553" />
        <path
           id="polyline952"
           style="fill:none;stroke:#ff0000;stroke-width:0.5;stroke-linejoin:round"
           d="m 44.8857,132.882 h 10.2915 10.292 10.2915 10.292 10.292 10.2913 10.292 10.292 10.292 10.292 10.292 10.291 10.292 10.292 10.292 10.292 10.291 10.292 10.292 10.292 10.292 10.291 10.292 10.292 10.292 10.292" />
        <path
           id="polyline954"
           style="fill:none;stroke:#000000;stroke-width:0.5;stroke-linejoin:round"
           d="m 44.8857,132.882 h 10.2915 10.292 10.2915 10.292 10.292 10.2913 10.292 l 10.292,-0.002 10.292,0.032 10.292,0.173 10.292,-2.063 10.291,-8.699 10.292,40.862 10.292,57.816 10.292,-91.485 9.273,115.817" />
        <path
           id="polyline956"
           style="fill:none;stroke:#000000;stroke-width:0.5;stroke-linejoin:round"
           d="m 236.034,245.333 4.396,-134.5 10.292,106.388 3.072,28.112" />
        <path
           id="polyline958"
           style="fill:none;stroke:#000000;stroke-width:0.5;stroke-linejoin:round"
           d="M 273.102,245.333 275.863,20.4307" />
        <path
           id="polyline960"
           style="fill:none;stroke:#000000;stroke-width:0.5;stroke-linecap:square"
           d="m 44.8857,129.882 3,3 -3,3 -3,-3 3,-3" />
        <path
           id="polyline962"
           style="fill:none;stroke:#000000;stroke-width:0.5;stroke-linecap:square"
           d="m 55.1772,129.882 3,3 -3,3 -3,-3 3,-3" />
        <path
           id="polyline964"
           style="fill:none;stroke:#000000;stroke-width:0.5;stroke-linecap:square"
           d="m 65.4692,129.882 3,3 -3,3 -3,-3 3,-3" />
        <path
           id="polyline966"
           style="fill:none;stroke:#000000;stroke-width:0.5;stroke-linecap:square"
           d="m 75.7607,129.882 3.0005,3 -3.0005,3 -3,-3 3,-3" />
        <path
           id="polyline968"
           style="fill:none;stroke:#000000;stroke-width:0.5;stroke-linecap:square"
           d="m 86.0527,129.882 3,3 -3,3 -3,-3 3,-3" />
        <path
           id="polyline970"
           style="fill:none;stroke:#000000;stroke-width:0.5;stroke-linecap:square"
           d="m 96.3447,129.882 3,3 -3,3 -3,-3 3,-3" />
        <path
           id="polyline972"
           style="fill:none;stroke:#000000;stroke-width:0.5;stroke-linecap:square"
           d="m 106.636,129.882 3,3 -3,3 -3,-3 3,-3" />
        <path
           id="polyline974"
           style="fill:none;stroke:#000000;stroke-width:0.5;stroke-linecap:square"
           d="m 116.928,129.882 3,3 -3,3 -3,-3 3,-3" />
        <path
           id="polyline976"
           style="fill:none;stroke:#000000;stroke-width:0.5;stroke-linecap:square"
           d="m 127.22,129.88 3,3 -3,3 -3,-3 3,-3" />
        <path
           id="polyline978"
           style="fill:none;stroke:#000000;stroke-width:0.5;stroke-linecap:square"
           d="m 137.512,129.912 3,3 -3,3 -3,-3 3,-3" />
        <path
           id="polyline980"
           style="fill:none;stroke:#000000;stroke-width:0.5;stroke-linecap:square"
           d="m 147.804,130.085 3,3 -3,3 -3,-3 3,-3" />
        <path
           id="polyline982"
           style="fill:none;stroke:#000000;stroke-width:0.5;stroke-linecap:square"
           d="m 158.095,128.022 3,3 -3,3 -3,-3 3,-3" />
        <path
           id="polyline984"
           style="fill:none;stroke:#000000;stroke-width:0.5;stroke-linecap:square"
           d="m 168.387,119.323 3,3 -3,3 -3,-3 3,-3" />
        <path
           id="polyline986"
           style="fill:none;stroke:#000000;stroke-width:0.5;stroke-linecap:square"
           d="m 178.679,160.185 3,3 -3,3 -3,-3 3,-3" />
        <path
           id="polyline988"
           style="fill:none;stroke:#000000;stroke-width:0.5;stroke-linecap:square"
           d="m 188.971,218.001 3,3 -3,3 -3,-3 3,-3" />
        <path
           id="polyline990"
           style="fill:none;stroke:#000000;stroke-width:0.5;stroke-linecap:square"
           d="m 199.263,126.516 3,3 -3,3 -3,-3 3,-3" />
        <path
           id="polyline992"
           style="fill:none;stroke:#000000;stroke-width:0.5;stroke-linecap:square"
           d="m 240.43,107.833 3,3 -3,3 -3,-3 3,-3" />
        <path
           id="polyline994"
           style="fill:none;stroke:#000000;stroke-width:0.5;stroke-linecap:square"
           d="m 250.722,214.221 3,3 -3,3 -3,-3 3,-3" />
      </g>
    </g>
    <g
       id="g401"
       transform="translate(6.7541133,1.7779253)">
      <path
         id="polygon216"
         style="fill:#ffffff;shape-rendering:crispEdges"
         d="M 0,281 H 345 V 0 H 0 Z" />
      <clipPath
         id="clipPath578">
        <polygon
           points="0,0 0,281 345,281 345,0 "
           id="polygon576" />
      </clipPath>
      <g
         clip-path="url(#cp00345281)"
         id="g399">
        <path
           id="polygon221"
           style="fill:#ffffff;shape-rendering:crispEdges"
           d="M 45.9922,250.555 H 312.473 V 21.1143 H 45.9922 Z" />
        <path
           id="polyline223"
           style="fill:none;stroke:#262626;stroke-width:0.5"
           d="m 45.9922,250.555 v -2.67" />
        <path
           id="polyline225"
           style="fill:none;stroke:#262626;stroke-width:0.5"
           d="m 45.9922,21.1143 v 2.6699" />
        <path
           id="polyline227"
           style="fill:none;stroke:#262626;stroke-width:0.5"
           d="m 112.612,250.555 v -2.67" />
        <path
           id="polyline229"
           style="fill:none;stroke:#262626;stroke-width:0.5"
           d="m 112.612,21.1143 v 2.6699" />
        <path
           id="polyline231"
           style="fill:none;stroke:#262626;stroke-width:0.5"
           d="m 179.232,250.555 v -2.67" />
        <path
           id="polyline233"
           style="fill:none;stroke:#262626;stroke-width:0.5"
           d="m 179.232,21.1143 v 2.6699" />
        <path
           id="polyline235"
           style="fill:none;stroke:#262626;stroke-width:0.5"
           d="m 245.853,250.555 v -2.67" />
        <path
           id="polyline237"
           style="fill:none;stroke:#262626;stroke-width:0.5"
           d="m 245.853,21.1143 v 2.6699" />
        <path
           id="polyline239"
           style="fill:none;stroke:#262626;stroke-width:0.5"
           d="m 312.473,250.555 v -2.67" />
        <path
           id="polyline241"
           style="fill:none;stroke:#262626;stroke-width:0.5"
           d="m 312.473,21.1143 v 2.6699" />
        <g
           transform="translate(42.9923,266.07)"
           xml:space="preserve"
           font-size="10px"
           font-weight="normal"
           font-family="FreeSans"
           font-style="normal"
           id="g245">
    <g
   aria-label="0"
   id="text243"
   style="fill:#262626"><path
     d="m 5.6982422,-3.6376953 q 0,1.9580078 -0.6152344,2.87597655 -0.6103516,0.91308594 -1.899414,0.91308594 -1.3085938,0 -1.9140626,-0.92773438 -0.60058589,-0.92773441 -0.60058589,-2.85156251 0,-1.9384765 0.61035159,-2.8613281 0.6103515,-0.9277344 1.9042969,-0.9277344 1.3085937,0 1.9091796,0.9423828 0.6054688,0.9375 0.6054688,2.8369141 z m -1.2841797,2.2167969 q 0.1708984,-0.3955078 0.2294922,-0.9277344 0.063477,-0.5371094 0.063477,-1.2890625 0,-0.7421875 -0.063477,-1.2890625 -0.058594,-0.546875 -0.234375,-0.9277344 -0.1708985,-0.3759765 -0.46875,-0.5664062 -0.2929688,-0.1904297 -0.7568359,-0.1904297 -0.4589844,0 -0.7617188,0.1904297 -0.2978516,0.1904297 -0.4736328,0.5761718 -0.1660156,0.3613282 -0.2294922,0.9423829 -0.058594,0.5810546 -0.058594,1.274414 0,0.7617188 0.053711,1.2744141 0.053711,0.5126953 0.2294922,0.9179687 0.1611328,0.3808594 0.4541015,0.58105471 0.2978516,0.20019532 0.7861329,0.20019532 0.4589843,0 0.7617187,-0.19042969 0.3027344,-0.19042964 0.4687502,-0.57617184 z"
     id="path1688" /></g>
   </g>
        <g
           transform="translate(105.112,266.07)"
           xml:space="preserve"
           font-size="10px"
           font-weight="normal"
           font-family="FreeSans"
           font-style="normal"
           id="g249">
    <g
   aria-label="0.5"
   id="text247"
   style="fill:#262626"><path
     d="m 5.6982422,-3.6376953 q 0,1.9580078 -0.6152344,2.87597655 -0.6103516,0.91308594 -1.899414,0.91308594 -1.3085938,0 -1.9140626,-0.92773438 -0.60058589,-0.92773441 -0.60058589,-2.85156251 0,-1.9384765 0.61035159,-2.8613281 0.6103515,-0.9277344 1.9042969,-0.9277344 1.3085937,0 1.9091796,0.9423828 0.6054688,0.9375 0.6054688,2.8369141 z m -1.2841797,2.2167969 q 0.1708984,-0.3955078 0.2294922,-0.9277344 0.063477,-0.5371094 0.063477,-1.2890625 0,-0.7421875 -0.063477,-1.2890625 -0.058594,-0.546875 -0.234375,-0.9277344 -0.1708985,-0.3759765 -0.46875,-0.5664062 -0.2929688,-0.1904297 -0.7568359,-0.1904297 -0.4589844,0 -0.7617188,0.1904297 -0.2978516,0.1904297 -0.4736328,0.5761718 -0.1660156,0.3613282 -0.2294922,0.9423829 -0.058594,0.5810546 -0.058594,1.274414 0,0.7617188 0.053711,1.2744141 0.053711,0.5126953 0.2294922,0.9179687 0.1611328,0.3808594 0.4541015,0.58105471 0.2978516,0.20019532 0.7861329,0.20019532 0.4589843,0 0.7617187,-0.19042969 0.3027344,-0.19042964 0.4687502,-0.57617184 z"
     id="path1691" /><path
     d="M 8.4023438,0 H 7.2353516 v -1.3916016 h 1.1669922 z"
     id="path1693" /><path
     d="m 14.649414,-2.3095703 q 0,0.5078125 -0.185547,0.9716797 -0.185547,0.46386716 -0.507812,0.78124998 -0.351563,0.34179687 -0.839844,0.52734374 -0.483398,0.18066407 -1.123047,0.18066407 -0.595703,0 -1.147461,-0.12695313 -0.551758,-0.12207031 -0.9326171,-0.29785156 v -1.0302734 h 0.068359 q 0.4003911,0.2539062 0.9375001,0.43457027 0.53711,0.17578126 1.054688,0.17578126 0.34668,0 0.668945,-0.0976563 0.327149,-0.0976563 0.581055,-0.34179683 0.214844,-0.2099609 0.322265,-0.5029297 0.112305,-0.2929687 0.112305,-0.6787109 0,-0.3759766 -0.131836,-0.6347657 -0.126953,-0.2587891 -0.356445,-0.4150391 -0.253906,-0.1855468 -0.620117,-0.2587891 -0.361328,-0.078125 -0.810547,-0.078125 -0.429688,0 -0.830078,0.058594 -0.395508,0.058594 -0.683594,0.1171875 v -3.7451172 h 4.375 v 0.8544922 h -3.432617 v 1.9335937 q 0.209961,-0.019531 0.429687,-0.029297 0.219727,-0.00977 0.38086,-0.00977 0.59082,0 1.035156,0.1025391 0.444336,0.097656 0.81543,0.3515625 0.390625,0.2685546 0.605468,0.6933593 0.214844,0.4248046 0.214844,1.0644531 z"
     id="path1695" /></g>
   </g>
        <g
           transform="translate(176.232,266.07)"
           xml:space="preserve"
           font-size="10px"
           font-weight="normal"
           font-family="FreeSans"
           font-style="normal"
           id="g253">
    <g
   aria-label="1"
   id="text251"
   style="fill:#262626"><path
     d="M 5.2929687,0 H 1.3574219 V -0.7421875 H 2.8710938 V -5.6152344 H 1.3574219 v -0.6640625 q 0.3076172,0 0.6591797,-0.048828 0.3515625,-0.053711 0.5322265,-0.1513672 0.2246094,-0.1220703 0.3515625,-0.3076172 0.131836,-0.1904297 0.1513672,-0.5078125 h 0.756836 v 6.5527344 h 1.4843749 z"
     id="path1698" /></g>
   </g>
        <g
           transform="translate(238.352,266.07)"
           xml:space="preserve"
           font-size="10px"
           font-weight="normal"
           font-family="FreeSans"
           font-style="normal"
           id="g257">
    <g
   aria-label="1.5"
   id="text255"
   style="fill:#262626"><path
     d="M 5.2929687,0 H 1.3574219 V -0.7421875 H 2.8710938 V -5.6152344 H 1.3574219 v -0.6640625 q 0.3076172,0 0.6591797,-0.048828 0.3515625,-0.053711 0.5322265,-0.1513672 0.2246094,-0.1220703 0.3515625,-0.3076172 0.131836,-0.1904297 0.1513672,-0.5078125 h 0.756836 v 6.5527344 h 1.4843749 z"
     id="path1701" /><path
     d="M 8.4023438,0 H 7.2353516 v -1.3916016 h 1.1669922 z"
     id="path1703" /><path
     d="m 14.649414,-2.3095703 q 0,0.5078125 -0.185547,0.9716797 -0.185547,0.46386716 -0.507812,0.78124998 -0.351563,0.34179687 -0.839844,0.52734374 -0.483398,0.18066407 -1.123047,0.18066407 -0.595703,0 -1.147461,-0.12695313 -0.551758,-0.12207031 -0.9326171,-0.29785156 v -1.0302734 h 0.068359 q 0.4003911,0.2539062 0.9375001,0.43457027 0.53711,0.17578126 1.054688,0.17578126 0.34668,0 0.668945,-0.0976563 0.327149,-0.0976563 0.581055,-0.34179683 0.214844,-0.2099609 0.322265,-0.5029297 0.112305,-0.2929687 0.112305,-0.6787109 0,-0.3759766 -0.131836,-0.6347657 -0.126953,-0.2587891 -0.356445,-0.4150391 -0.253906,-0.1855468 -0.620117,-0.2587891 -0.361328,-0.078125 -0.810547,-0.078125 -0.429688,0 -0.830078,0.058594 -0.395508,0.058594 -0.683594,0.1171875 v -3.7451172 h 4.375 v 0.8544922 h -3.432617 v 1.9335937 q 0.209961,-0.019531 0.429687,-0.029297 0.219727,-0.00977 0.38086,-0.00977 0.59082,0 1.035156,0.1025391 0.444336,0.097656 0.81543,0.3515625 0.390625,0.2685546 0.605468,0.6933593 0.214844,0.4248046 0.214844,1.0644531 z"
     id="path1705" /></g>
   </g>
        <g
           transform="translate(309.473,266.07)"
           xml:space="preserve"
           font-size="10px"
           font-weight="normal"
           font-family="FreeSans"
           font-style="normal"
           id="g261">
    <g
   aria-label="2"
   id="text259"
   style="fill:#262626"><path
     d="M 5.7080078,0 H 0.78613281 v -1.0205078 q 0.51269529,-0.4394531 1.02539059,-0.8789063 0.5175782,-0.4394531 0.9619141,-0.8740234 0.9375,-0.9082031 1.2841797,-1.4404297 0.3466797,-0.5371094 0.3466797,-1.1572265 0,-0.5664063 -0.3759766,-0.8837891 -0.3710937,-0.3222656 -1.040039,-0.3222656 -0.444336,0 -0.9619141,0.15625 -0.5175781,0.15625 -1.0107422,0.4785156 H 0.9667969 v -1.0253906 q 0.3466797,-0.1708985 0.9228515,-0.3125 0.5810547,-0.1416016 1.1230469,-0.1416016 1.1181641,0 1.7529297,0.5419922 0.6347656,0.5371094 0.6347656,1.4599609 0,0.4150391 -0.1074219,0.7763672 -0.102539,0.3564453 -0.3076171,0.6787109 -0.1904297,0.3027344 -0.4492188,0.5957032 -0.2539062,0.2929687 -0.6201172,0.649414 -0.5224609,0.5126953 -1.0791015,0.9960938 -0.5566407,0.4785156 -1.0400391,0.88867186 h 3.9111328 z"
     id="path1708" /></g>
   </g>
        <path
           id="polyline263"
           style="fill:none;stroke:#262626;stroke-width:0.5"
           d="m 45.9922,21.1143 h 2.6699" />
        <path
           id="polyline265"
           style="fill:none;stroke:#262626;stroke-width:0.5"
           d="m 312.473,21.1143 h -2.67" />
        <path
           id="polyline267"
           style="fill:none;stroke:#262626;stroke-width:0.5"
           d="m 45.9922,53.8916 h 2.6699" />
        <path
           id="polyline269"
           style="fill:none;stroke:#262626;stroke-width:0.5"
           d="m 312.473,53.8916 h -2.67" />
        <path
           id="polyline271"
           style="fill:none;stroke:#262626;stroke-width:0.5"
           d="m 45.9922,86.6689 h 2.6699" />
        <path
           id="polyline273"
           style="fill:none;stroke:#262626;stroke-width:0.5"
           d="m 312.473,86.6689 h -2.67" />
        <path
           id="polyline275"
           style="fill:none;stroke:#262626;stroke-width:0.5"
           d="m 45.9922,119.446 h 2.6699" />
        <path
           id="polyline277"
           style="fill:none;stroke:#262626;stroke-width:0.5"
           d="m 312.473,119.446 h -2.67" />
        <path
           id="polyline279"
           style="fill:none;stroke:#262626;stroke-width:0.5"
           d="m 45.9922,152.224 h 2.6699" />
        <path
           id="polyline281"
           style="fill:none;stroke:#262626;stroke-width:0.5"
           d="m 312.473,152.224 h -2.67" />
        <path
           id="polyline283"
           style="fill:none;stroke:#262626;stroke-width:0.5"
           d="m 45.9922,185.001 h 2.6699" />
        <path
           id="polyline285"
           style="fill:none;stroke:#262626;stroke-width:0.5"
           d="m 312.473,185.001 h -2.67" />
        <path
           id="polyline287"
           style="fill:none;stroke:#262626;stroke-width:0.5"
           d="m 45.9922,217.778 h 2.6699" />
        <path
           id="polyline289"
           style="fill:none;stroke:#262626;stroke-width:0.5"
           d="m 312.473,217.778 h -2.67" />
        <path
           id="polyline291"
           style="fill:none;stroke:#262626;stroke-width:0.5"
           d="m 45.9922,250.555 h 2.6699" />
        <path
           id="polyline293"
           style="fill:none;stroke:#262626;stroke-width:0.5"
           d="m 312.473,250.555 h -2.67" />
        <g
           transform="translate(4.98327,25.1142)"
           xml:space="preserve"
           font-size="10px"
           font-weight="normal"
           font-family="FreeSans"
           font-style="normal"
           id="g297">
    <g
   aria-label="-0.0002"
   id="text295"
   style="fill:#262626"><path
     d="M 3.7939453,-2.7392578 H 0.74707031 V -3.6230469 H 3.7939453 Z"
     id="path1727" /><path
     d="m 8.6982422,-3.6376953 q 0,1.9580078 -0.6152344,2.87597655 -0.6103516,0.91308594 -1.8994141,0.91308594 -1.3085937,0 -1.9140625,-0.92773438 -0.6005859,-0.92773441 -0.6005859,-2.85156251 0,-1.9384765 0.6103516,-2.8613281 0.6103515,-0.9277344 1.9042968,-0.9277344 1.3085938,0 1.9091797,0.9423828 0.6054688,0.9375 0.6054688,2.8369141 z m -1.2841797,2.2167969 q 0.1708984,-0.3955078 0.2294922,-0.9277344 0.063477,-0.5371094 0.063477,-1.2890625 0,-0.7421875 -0.063477,-1.2890625 -0.058594,-0.546875 -0.234375,-0.9277344 -0.1708985,-0.3759765 -0.46875,-0.5664062 -0.2929688,-0.1904297 -0.756836,-0.1904297 -0.4589843,0 -0.7617187,0.1904297 -0.2978516,0.1904297 -0.4736328,0.5761718 -0.1660156,0.3613282 -0.2294922,0.9423829 -0.058594,0.5810546 -0.058594,1.274414 0,0.7617188 0.053711,1.2744141 0.053711,0.5126953 0.2294922,0.9179687 0.1611328,0.3808594 0.4541015,0.58105471 0.2978516,0.20019532 0.7861328,0.20019532 0.4589844,0 0.7617188,-0.19042969 0.3027344,-0.19042964 0.4687502,-0.57617184 z"
     id="path1729" /><path
     d="m 11.402344,0 h -1.166992 v -1.3916016 h 1.166992 z"
     id="path1731" /><path
     d="m 17.698242,-3.6376953 q 0,1.9580078 -0.615234,2.87597655 -0.610352,0.91308594 -1.899414,0.91308594 -1.308594,0 -1.914063,-0.92773438 -0.600586,-0.92773441 -0.600586,-2.85156251 0,-1.9384765 0.610352,-2.8613281 0.610351,-0.9277344 1.904297,-0.9277344 1.308593,0 1.909179,0.9423828 0.605469,0.9375 0.605469,2.8369141 z m -1.28418,2.2167969 q 0.170899,-0.3955078 0.229493,-0.9277344 0.06348,-0.5371094 0.06348,-1.2890625 0,-0.7421875 -0.06348,-1.2890625 -0.05859,-0.546875 -0.234375,-0.9277344 -0.170899,-0.3759765 -0.46875,-0.5664062 -0.292969,-0.1904297 -0.756836,-0.1904297 -0.458985,0 -0.761719,0.1904297 -0.297852,0.1904297 -0.473633,0.5761718 -0.166015,0.3613282 -0.229492,0.9423829 -0.05859,0.5810546 -0.05859,1.274414 0,0.7617188 0.05371,1.2744141 0.05371,0.5126953 0.229492,0.9179687 0.161133,0.3808594 0.454102,0.58105471 0.297852,0.20019532 0.786133,0.20019532 0.458984,0 0.761719,-0.19042969 0.302734,-0.19042964 0.468749,-0.57617184 z"
     id="path1733" /><path
     d="m 23.698242,-3.6376953 q 0,1.9580078 -0.615234,2.87597655 -0.610352,0.91308594 -1.899414,0.91308594 -1.308594,0 -1.914063,-0.92773438 -0.600586,-0.92773441 -0.600586,-2.85156251 0,-1.9384765 0.610352,-2.8613281 0.610351,-0.9277344 1.904297,-0.9277344 1.308593,0 1.909179,0.9423828 0.605469,0.9375 0.605469,2.8369141 z m -1.28418,2.2167969 q 0.170899,-0.3955078 0.229493,-0.9277344 0.06348,-0.5371094 0.06348,-1.2890625 0,-0.7421875 -0.06348,-1.2890625 -0.05859,-0.546875 -0.234375,-0.9277344 -0.170899,-0.3759765 -0.46875,-0.5664062 -0.292969,-0.1904297 -0.756836,-0.1904297 -0.458985,0 -0.761719,0.1904297 -0.297852,0.1904297 -0.473633,0.5761718 -0.166015,0.3613282 -0.229492,0.9423829 -0.05859,0.5810546 -0.05859,1.274414 0,0.7617188 0.05371,1.2744141 0.05371,0.5126953 0.229492,0.9179687 0.161133,0.3808594 0.454102,0.58105471 0.297851,0.20019532 0.786133,0.20019532 0.458984,0 0.761718,-0.19042969 0.302735,-0.19042964 0.46875,-0.57617184 z"
     id="path1735" /><path
     d="m 29.698242,-3.6376953 q 0,1.9580078 -0.615234,2.87597655 -0.610352,0.91308594 -1.899414,0.91308594 -1.308594,0 -1.914063,-0.92773438 -0.600586,-0.92773441 -0.600586,-2.85156251 0,-1.9384765 0.610352,-2.8613281 0.610351,-0.9277344 1.904297,-0.9277344 1.308593,0 1.909179,0.9423828 0.605469,0.9375 0.605469,2.8369141 z m -1.28418,2.2167969 q 0.170899,-0.3955078 0.229493,-0.9277344 0.06348,-0.5371094 0.06348,-1.2890625 0,-0.7421875 -0.06348,-1.2890625 -0.05859,-0.546875 -0.234375,-0.9277344 -0.170899,-0.3759765 -0.46875,-0.5664062 -0.292969,-0.1904297 -0.756836,-0.1904297 -0.458985,0 -0.761719,0.1904297 -0.297852,0.1904297 -0.473633,0.5761718 -0.166015,0.3613282 -0.229492,0.9423829 -0.05859,0.5810546 -0.05859,1.274414 0,0.7617188 0.05371,1.2744141 0.05371,0.5126953 0.229492,0.9179687 0.161133,0.3808594 0.454102,0.58105471 0.297851,0.20019532 0.786133,0.20019532 0.458984,0 0.761718,-0.19042969 0.302735,-0.19042964 0.46875,-0.57617184 z"
     id="path1737" /><path
     d="m 35.708008,0 h -4.921875 v -1.0205078 q 0.512695,-0.4394531 1.02539,-0.8789063 0.517579,-0.4394531 0.961914,-0.8740234 0.9375,-0.9082031 1.28418,-1.4404297 0.34668,-0.5371094 0.34668,-1.1572265 0,-0.5664063 -0.375977,-0.8837891 -0.371093,-0.3222656 -1.040039,-0.3222656 -0.444336,0 -0.961914,0.15625 -0.517578,0.15625 -1.010742,0.4785156 h -0.04883 v -1.0253906 q 0.34668,-0.1708985 0.922851,-0.3125 0.581055,-0.1416016 1.123047,-0.1416016 1.118164,0 1.75293,0.5419922 0.634766,0.5371094 0.634766,1.4599609 0,0.4150391 -0.107422,0.7763672 -0.102539,0.3564453 -0.307617,0.6787109 -0.19043,0.3027344 -0.449219,0.5957032 -0.253906,0.2929687 -0.620117,0.649414 -0.522461,0.5126953 -1.079102,0.9960938 -0.556641,0.4785156 -1.040039,0.88867186 h 3.911133 z"
     id="path1739" /></g>
   </g>
        <g
           transform="translate(34.9833,57.8915)"
           xml:space="preserve"
           font-size="10px"
           font-weight="normal"
           font-family="FreeSans"
           font-style="normal"
           id="g301">
    <g
   aria-label="0"
   id="text299"
   style="fill:#262626"><path
     d="m 5.6982422,-3.6376953 q 0,1.9580078 -0.6152344,2.87597655 -0.6103516,0.91308594 -1.899414,0.91308594 -1.3085938,0 -1.9140626,-0.92773438 -0.60058589,-0.92773441 -0.60058589,-2.85156251 0,-1.9384765 0.61035159,-2.8613281 0.6103515,-0.9277344 1.9042969,-0.9277344 1.3085937,0 1.9091796,0.9423828 0.6054688,0.9375 0.6054688,2.8369141 z m -1.2841797,2.2167969 q 0.1708984,-0.3955078 0.2294922,-0.9277344 0.063477,-0.5371094 0.063477,-1.2890625 0,-0.7421875 -0.063477,-1.2890625 -0.058594,-0.546875 -0.234375,-0.9277344 -0.1708985,-0.3759765 -0.46875,-0.5664062 -0.2929688,-0.1904297 -0.7568359,-0.1904297 -0.4589844,0 -0.7617188,0.1904297 -0.2978516,0.1904297 -0.4736328,0.5761718 -0.1660156,0.3613282 -0.2294922,0.9423829 -0.058594,0.5810546 -0.058594,1.274414 0,0.7617188 0.053711,1.2744141 0.053711,0.5126953 0.2294922,0.9179687 0.1611328,0.3808594 0.4541015,0.58105471 0.2978516,0.20019532 0.7861329,0.20019532 0.4589843,0 0.7617187,-0.19042969 0.3027344,-0.19042964 0.4687502,-0.57617184 z"
     id="path1742" /></g>
   </g>
        <g
           transform="translate(7.98327,90.6688)"
           xml:space="preserve"
           font-size="10px"
           font-weight="normal"
           font-family="FreeSans"
           font-style="normal"
           id="g305">
    <g
   aria-label="0.0002"
   id="text303"
   style="fill:#262626"><path
     d="m 5.6982422,-3.6376953 q 0,1.9580078 -0.6152344,2.87597655 -0.6103516,0.91308594 -1.899414,0.91308594 -1.3085938,0 -1.9140626,-0.92773438 -0.60058589,-0.92773441 -0.60058589,-2.85156251 0,-1.9384765 0.61035159,-2.8613281 0.6103515,-0.9277344 1.9042969,-0.9277344 1.3085937,0 1.9091796,0.9423828 0.6054688,0.9375 0.6054688,2.8369141 z m -1.2841797,2.2167969 q 0.1708984,-0.3955078 0.2294922,-0.9277344 0.063477,-0.5371094 0.063477,-1.2890625 0,-0.7421875 -0.063477,-1.2890625 -0.058594,-0.546875 -0.234375,-0.9277344 -0.1708985,-0.3759765 -0.46875,-0.5664062 -0.2929688,-0.1904297 -0.7568359,-0.1904297 -0.4589844,0 -0.7617188,0.1904297 -0.2978516,0.1904297 -0.4736328,0.5761718 -0.1660156,0.3613282 -0.2294922,0.9423829 -0.058594,0.5810546 -0.058594,1.274414 0,0.7617188 0.053711,1.2744141 0.053711,0.5126953 0.2294922,0.9179687 0.1611328,0.3808594 0.4541015,0.58105471 0.2978516,0.20019532 0.7861329,0.20019532 0.4589843,0 0.7617187,-0.19042969 0.3027344,-0.19042964 0.4687502,-0.57617184 z"
     id="path1745" /><path
     d="M 8.4023438,0 H 7.2353516 v -1.3916016 h 1.1669922 z"
     id="path1747" /><path
     d="m 14.698242,-3.6376953 q 0,1.9580078 -0.615234,2.87597655 -0.610352,0.91308594 -1.899414,0.91308594 -1.308594,0 -1.914063,-0.92773438 -0.6005857,-0.92773441 -0.6005857,-2.85156251 0,-1.9384765 0.6103517,-2.8613281 0.610351,-0.9277344 1.904297,-0.9277344 1.308594,0 1.909179,0.9423828 0.605469,0.9375 0.605469,2.8369141 z m -1.284179,2.2167969 q 0.170898,-0.3955078 0.229492,-0.9277344 0.06348,-0.5371094 0.06348,-1.2890625 0,-0.7421875 -0.06348,-1.2890625 -0.05859,-0.546875 -0.234375,-0.9277344 -0.170899,-0.3759765 -0.46875,-0.5664062 -0.292969,-0.1904297 -0.756836,-0.1904297 -0.458985,0 -0.761719,0.1904297 -0.297852,0.1904297 -0.473633,0.5761718 -0.166015,0.3613282 -0.229492,0.9423829 -0.05859,0.5810546 -0.05859,1.274414 0,0.7617188 0.05371,1.2744141 0.05371,0.5126953 0.229492,0.9179687 0.161133,0.3808594 0.454102,0.58105471 0.297852,0.20019532 0.786133,0.20019532 0.458984,0 0.761719,-0.19042969 0.302734,-0.19042964 0.46875,-0.57617184 z"
     id="path1749" /><path
     d="m 20.698242,-3.6376953 q 0,1.9580078 -0.615234,2.87597655 -0.610352,0.91308594 -1.899414,0.91308594 -1.308594,0 -1.914063,-0.92773438 -0.600586,-0.92773441 -0.600586,-2.85156251 0,-1.9384765 0.610352,-2.8613281 0.610351,-0.9277344 1.904297,-0.9277344 1.308593,0 1.909179,0.9423828 0.605469,0.9375 0.605469,2.8369141 z m -1.28418,2.2167969 q 0.170899,-0.3955078 0.229493,-0.9277344 0.06348,-0.5371094 0.06348,-1.2890625 0,-0.7421875 -0.06348,-1.2890625 -0.05859,-0.546875 -0.234375,-0.9277344 -0.170899,-0.3759765 -0.46875,-0.5664062 -0.292969,-0.1904297 -0.756836,-0.1904297 -0.458985,0 -0.761719,0.1904297 -0.297852,0.1904297 -0.473633,0.5761718 -0.166015,0.3613282 -0.229492,0.9423829 -0.05859,0.5810546 -0.05859,1.274414 0,0.7617188 0.05371,1.2744141 0.05371,0.5126953 0.229492,0.9179687 0.161133,0.3808594 0.454102,0.58105471 0.297851,0.20019532 0.786133,0.20019532 0.458984,0 0.761718,-0.19042969 0.302735,-0.19042964 0.46875,-0.57617184 z"
     id="path1751" /><path
     d="m 26.698242,-3.6376953 q 0,1.9580078 -0.615234,2.87597655 -0.610352,0.91308594 -1.899414,0.91308594 -1.308594,0 -1.914063,-0.92773438 -0.600586,-0.92773441 -0.600586,-2.85156251 0,-1.9384765 0.610352,-2.8613281 0.610351,-0.9277344 1.904297,-0.9277344 1.308593,0 1.909179,0.9423828 0.605469,0.9375 0.605469,2.8369141 z m -1.28418,2.2167969 q 0.170899,-0.3955078 0.229493,-0.9277344 0.06348,-0.5371094 0.06348,-1.2890625 0,-0.7421875 -0.06348,-1.2890625 -0.05859,-0.546875 -0.234375,-0.9277344 -0.170899,-0.3759765 -0.46875,-0.5664062 -0.292969,-0.1904297 -0.756836,-0.1904297 -0.458985,0 -0.761719,0.1904297 -0.297852,0.1904297 -0.473633,0.5761718 -0.166015,0.3613282 -0.229492,0.9423829 -0.05859,0.5810546 -0.05859,1.274414 0,0.7617188 0.05371,1.2744141 0.05371,0.5126953 0.229492,0.9179687 0.161133,0.3808594 0.454102,0.58105471 0.297851,0.20019532 0.786133,0.20019532 0.458984,0 0.761718,-0.19042969 0.302735,-0.19042964 0.46875,-0.57617184 z"
     id="path1753" /><path
     d="m 32.708008,0 h -4.921875 v -1.0205078 q 0.512695,-0.4394531 1.02539,-0.8789063 0.517579,-0.4394531 0.961914,-0.8740234 0.9375,-0.9082031 1.28418,-1.4404297 0.34668,-0.5371094 0.34668,-1.1572265 0,-0.5664063 -0.375977,-0.8837891 -0.371093,-0.3222656 -1.040039,-0.3222656 -0.444336,0 -0.961914,0.15625 -0.517578,0.15625 -1.010742,0.4785156 h -0.04883 v -1.0253906 q 0.34668,-0.1708985 0.922851,-0.3125 0.581055,-0.1416016 1.123047,-0.1416016 1.118164,0 1.75293,0.5419922 0.634766,0.5371094 0.634766,1.4599609 0,0.4150391 -0.107422,0.7763672 -0.102539,0.3564453 -0.307617,0.6787109 -0.19043,0.3027344 -0.449219,0.5957032 -0.253906,0.2929687 -0.620117,0.649414 -0.522461,0.5126953 -1.079102,0.9960938 -0.556641,0.4785156 -1.040039,0.88867186 h 3.911133 z"
     id="path1755" /></g>
   </g>
        <g
           transform="translate(7.98327,123.446)"
           xml:space="preserve"
           font-size="10px"
           font-weight="normal"
           font-family="FreeSans"
           font-style="normal"
           id="g309">
    <g
   aria-label="0.0004"
   id="text307"
   style="fill:#262626"><path
     d="m 5.6982422,-3.6376953 q 0,1.9580078 -0.6152344,2.87597655 -0.6103516,0.91308594 -1.899414,0.91308594 -1.3085938,0 -1.9140626,-0.92773438 -0.60058589,-0.92773441 -0.60058589,-2.85156251 0,-1.9384765 0.61035159,-2.8613281 0.6103515,-0.9277344 1.9042969,-0.9277344 1.3085937,0 1.9091796,0.9423828 0.6054688,0.9375 0.6054688,2.8369141 z m -1.2841797,2.2167969 q 0.1708984,-0.3955078 0.2294922,-0.9277344 0.063477,-0.5371094 0.063477,-1.2890625 0,-0.7421875 -0.063477,-1.2890625 -0.058594,-0.546875 -0.234375,-0.9277344 -0.1708985,-0.3759765 -0.46875,-0.5664062 -0.2929688,-0.1904297 -0.7568359,-0.1904297 -0.4589844,0 -0.7617188,0.1904297 -0.2978516,0.1904297 -0.4736328,0.5761718 -0.1660156,0.3613282 -0.2294922,0.9423829 -0.058594,0.5810546 -0.058594,1.274414 0,0.7617188 0.053711,1.2744141 0.053711,0.5126953 0.2294922,0.9179687 0.1611328,0.3808594 0.4541015,0.58105471 0.2978516,0.20019532 0.7861329,0.20019532 0.4589843,0 0.7617187,-0.19042969 0.3027344,-0.19042964 0.4687502,-0.57617184 z"
     id="path1758" /><path
     d="M 8.4023438,0 H 7.2353516 v -1.3916016 h 1.1669922 z"
     id="path1760" /><path
     d="m 14.698242,-3.6376953 q 0,1.9580078 -0.615234,2.87597655 -0.610352,0.91308594 -1.899414,0.91308594 -1.308594,0 -1.914063,-0.92773438 -0.6005857,-0.92773441 -0.6005857,-2.85156251 0,-1.9384765 0.6103517,-2.8613281 0.610351,-0.9277344 1.904297,-0.9277344 1.308594,0 1.909179,0.9423828 0.605469,0.9375 0.605469,2.8369141 z m -1.284179,2.2167969 q 0.170898,-0.3955078 0.229492,-0.9277344 0.06348,-0.5371094 0.06348,-1.2890625 0,-0.7421875 -0.06348,-1.2890625 -0.05859,-0.546875 -0.234375,-0.9277344 -0.170899,-0.3759765 -0.46875,-0.5664062 -0.292969,-0.1904297 -0.756836,-0.1904297 -0.458985,0 -0.761719,0.1904297 -0.297852,0.1904297 -0.473633,0.5761718 -0.166015,0.3613282 -0.229492,0.9423829 -0.05859,0.5810546 -0.05859,1.274414 0,0.7617188 0.05371,1.2744141 0.05371,0.5126953 0.229492,0.9179687 0.161133,0.3808594 0.454102,0.58105471 0.297852,0.20019532 0.786133,0.20019532 0.458984,0 0.761719,-0.19042969 0.302734,-0.19042964 0.46875,-0.57617184 z"
     id="path1762" /><path
     d="m 20.698242,-3.6376953 q 0,1.9580078 -0.615234,2.87597655 -0.610352,0.91308594 -1.899414,0.91308594 -1.308594,0 -1.914063,-0.92773438 -0.600586,-0.92773441 -0.600586,-2.85156251 0,-1.9384765 0.610352,-2.8613281 0.610351,-0.9277344 1.904297,-0.9277344 1.308593,0 1.909179,0.9423828 0.605469,0.9375 0.605469,2.8369141 z m -1.28418,2.2167969 q 0.170899,-0.3955078 0.229493,-0.9277344 0.06348,-0.5371094 0.06348,-1.2890625 0,-0.7421875 -0.06348,-1.2890625 -0.05859,-0.546875 -0.234375,-0.9277344 -0.170899,-0.3759765 -0.46875,-0.5664062 -0.292969,-0.1904297 -0.756836,-0.1904297 -0.458985,0 -0.761719,0.1904297 -0.297852,0.1904297 -0.473633,0.5761718 -0.166015,0.3613282 -0.229492,0.9423829 -0.05859,0.5810546 -0.05859,1.274414 0,0.7617188 0.05371,1.2744141 0.05371,0.5126953 0.229492,0.9179687 0.161133,0.3808594 0.454102,0.58105471 0.297851,0.20019532 0.786133,0.20019532 0.458984,0 0.761718,-0.19042969 0.302735,-0.19042964 0.46875,-0.57617184 z"
     id="path1764" /><path
     d="m 26.698242,-3.6376953 q 0,1.9580078 -0.615234,2.87597655 -0.610352,0.91308594 -1.899414,0.91308594 -1.308594,0 -1.914063,-0.92773438 -0.600586,-0.92773441 -0.600586,-2.85156251 0,-1.9384765 0.610352,-2.8613281 0.610351,-0.9277344 1.904297,-0.9277344 1.308593,0 1.909179,0.9423828 0.605469,0.9375 0.605469,2.8369141 z m -1.28418,2.2167969 q 0.170899,-0.3955078 0.229493,-0.9277344 0.06348,-0.5371094 0.06348,-1.2890625 0,-0.7421875 -0.06348,-1.2890625 -0.05859,-0.546875 -0.234375,-0.9277344 -0.170899,-0.3759765 -0.46875,-0.5664062 -0.292969,-0.1904297 -0.756836,-0.1904297 -0.458985,0 -0.761719,0.1904297 -0.297852,0.1904297 -0.473633,0.5761718 -0.166015,0.3613282 -0.229492,0.9423829 -0.05859,0.5810546 -0.05859,1.274414 0,0.7617188 0.05371,1.2744141 0.05371,0.5126953 0.229492,0.9179687 0.161133,0.3808594 0.454102,0.58105471 0.297851,0.20019532 0.786133,0.20019532 0.458984,0 0.761718,-0.19042969 0.302735,-0.19042964 0.46875,-0.57617184 z"
     id="path1766" /><path
     d="M 32.874023,-2.0458984 H 31.794922 V 0 h -0.9375 v -2.0458984 h -3.481445 v -1.1230469 l 3.520507,-4.1015625 h 0.898438 v 4.4433594 h 1.079101 z m -2.016601,-0.78125 v -3.28125 l -2.817383,3.28125 z"
     id="path1768" /></g>
   </g>
        <g
           transform="translate(7.98327,156.223)"
           xml:space="preserve"
           font-size="10px"
           font-weight="normal"
           font-family="FreeSans"
           font-style="normal"
           id="g313">
    <g
   aria-label="0.0006"
   id="text311"
   style="fill:#262626"><path
     d="m 5.6982422,-3.6376953 q 0,1.9580078 -0.6152344,2.87597655 -0.6103516,0.91308594 -1.899414,0.91308594 -1.3085938,0 -1.9140626,-0.92773438 -0.60058589,-0.92773441 -0.60058589,-2.85156251 0,-1.9384765 0.61035159,-2.8613281 0.6103515,-0.9277344 1.9042969,-0.9277344 1.3085937,0 1.9091796,0.9423828 0.6054688,0.9375 0.6054688,2.8369141 z m -1.2841797,2.2167969 q 0.1708984,-0.3955078 0.2294922,-0.9277344 0.063477,-0.5371094 0.063477,-1.2890625 0,-0.7421875 -0.063477,-1.2890625 -0.058594,-0.546875 -0.234375,-0.9277344 -0.1708985,-0.3759765 -0.46875,-0.5664062 -0.2929688,-0.1904297 -0.7568359,-0.1904297 -0.4589844,0 -0.7617188,0.1904297 -0.2978516,0.1904297 -0.4736328,0.5761718 -0.1660156,0.3613282 -0.2294922,0.9423829 -0.058594,0.5810546 -0.058594,1.274414 0,0.7617188 0.053711,1.2744141 0.053711,0.5126953 0.2294922,0.9179687 0.1611328,0.3808594 0.4541015,0.58105471 0.2978516,0.20019532 0.7861329,0.20019532 0.4589843,0 0.7617187,-0.19042969 0.3027344,-0.19042964 0.4687502,-0.57617184 z"
     id="path1771" /><path
     d="M 8.4023438,0 H 7.2353516 v -1.3916016 h 1.1669922 z"
     id="path1773" /><path
     d="m 14.698242,-3.6376953 q 0,1.9580078 -0.615234,2.87597655 -0.610352,0.91308594 -1.899414,0.91308594 -1.308594,0 -1.914063,-0.92773438 -0.6005857,-0.92773441 -0.6005857,-2.85156251 0,-1.9384765 0.6103517,-2.8613281 0.610351,-0.9277344 1.904297,-0.9277344 1.308594,0 1.909179,0.9423828 0.605469,0.9375 0.605469,2.8369141 z m -1.284179,2.2167969 q 0.170898,-0.3955078 0.229492,-0.9277344 0.06348,-0.5371094 0.06348,-1.2890625 0,-0.7421875 -0.06348,-1.2890625 -0.05859,-0.546875 -0.234375,-0.9277344 -0.170899,-0.3759765 -0.46875,-0.5664062 -0.292969,-0.1904297 -0.756836,-0.1904297 -0.458985,0 -0.761719,0.1904297 -0.297852,0.1904297 -0.473633,0.5761718 -0.166015,0.3613282 -0.229492,0.9423829 -0.05859,0.5810546 -0.05859,1.274414 0,0.7617188 0.05371,1.2744141 0.05371,0.5126953 0.229492,0.9179687 0.161133,0.3808594 0.454102,0.58105471 0.297852,0.20019532 0.786133,0.20019532 0.458984,0 0.761719,-0.19042969 0.302734,-0.19042964 0.46875,-0.57617184 z"
     id="path1775" /><path
     d="m 20.698242,-3.6376953 q 0,1.9580078 -0.615234,2.87597655 -0.610352,0.91308594 -1.899414,0.91308594 -1.308594,0 -1.914063,-0.92773438 -0.600586,-0.92773441 -0.600586,-2.85156251 0,-1.9384765 0.610352,-2.8613281 0.610351,-0.9277344 1.904297,-0.9277344 1.308593,0 1.909179,0.9423828 0.605469,0.9375 0.605469,2.8369141 z m -1.28418,2.2167969 q 0.170899,-0.3955078 0.229493,-0.9277344 0.06348,-0.5371094 0.06348,-1.2890625 0,-0.7421875 -0.06348,-1.2890625 -0.05859,-0.546875 -0.234375,-0.9277344 -0.170899,-0.3759765 -0.46875,-0.5664062 -0.292969,-0.1904297 -0.756836,-0.1904297 -0.458985,0 -0.761719,0.1904297 -0.297852,0.1904297 -0.473633,0.5761718 -0.166015,0.3613282 -0.229492,0.9423829 -0.05859,0.5810546 -0.05859,1.274414 0,0.7617188 0.05371,1.2744141 0.05371,0.5126953 0.229492,0.9179687 0.161133,0.3808594 0.454102,0.58105471 0.297851,0.20019532 0.786133,0.20019532 0.458984,0 0.761718,-0.19042969 0.302735,-0.19042964 0.46875,-0.57617184 z"
     id="path1777" /><path
     d="m 26.698242,-3.6376953 q 0,1.9580078 -0.615234,2.87597655 -0.610352,0.91308594 -1.899414,0.91308594 -1.308594,0 -1.914063,-0.92773438 -0.600586,-0.92773441 -0.600586,-2.85156251 0,-1.9384765 0.610352,-2.8613281 0.610351,-0.9277344 1.904297,-0.9277344 1.308593,0 1.909179,0.9423828 0.605469,0.9375 0.605469,2.8369141 z m -1.28418,2.2167969 q 0.170899,-0.3955078 0.229493,-0.9277344 0.06348,-0.5371094 0.06348,-1.2890625 0,-0.7421875 -0.06348,-1.2890625 -0.05859,-0.546875 -0.234375,-0.9277344 -0.170899,-0.3759765 -0.46875,-0.5664062 -0.292969,-0.1904297 -0.756836,-0.1904297 -0.458985,0 -0.761719,0.1904297 -0.297852,0.1904297 -0.473633,0.5761718 -0.166015,0.3613282 -0.229492,0.9423829 -0.05859,0.5810546 -0.05859,1.274414 0,0.7617188 0.05371,1.2744141 0.05371,0.5126953 0.229492,0.9179687 0.161133,0.3808594 0.454102,0.58105471 0.297851,0.20019532 0.786133,0.20019532 0.458984,0 0.761718,-0.19042969 0.302735,-0.19042964 0.46875,-0.57617184 z"
     id="path1779" /><path
     d="m 32.81543,-2.3583984 q 0,1.1083984 -0.732422,1.8115234 -0.727539,0.69824219 -1.78711,0.69824219 -0.537109,0 -0.976562,-0.16601563 -0.439453,-0.16601562 -0.776367,-0.49316406 -0.419922,-0.40527344 -0.649414,-1.0742187 -0.22461,-0.6689454 -0.22461,-1.6113282 0,-0.9667968 0.205078,-1.7138672 0.209961,-0.7470703 0.664063,-1.328125 0.429687,-0.5517578 1.108398,-0.859375 0.678711,-0.3125 1.582032,-0.3125 0.288086,0 0.483398,0.024414 0.195313,0.024414 0.395508,0.087891 v 0.9326172 h -0.04883 q -0.136719,-0.073242 -0.415039,-0.1367187 -0.273438,-0.068359 -0.561524,-0.068359 -1.049804,0 -1.674804,0.6591797 -0.625,0.6542969 -0.72754,1.7724609 0.410157,-0.2490234 0.805665,-0.3759765 0.40039,-0.131836 0.922851,-0.131836 0.463867,0 0.81543,0.087891 0.356445,0.083008 0.727539,0.3417969 0.429687,0.2978516 0.644531,0.7519531 0.219727,0.4541016 0.219727,1.1035157 z m -0.991211,0.039063 q 0,-0.4541016 -0.136719,-0.7519532 -0.131836,-0.2978515 -0.439453,-0.5175781 -0.22461,-0.15625 -0.498047,-0.2050781 -0.273438,-0.048828 -0.571289,-0.048828 -0.415039,0 -0.771484,0.097656 -0.356446,0.097656 -0.732422,0.3027344 -0.0098,0.1074219 -0.01465,0.2099609 -0.0049,0.097656 -0.0049,0.2490235 0,0.7714843 0.15625,1.2207031 0.161133,0.4443359 0.439454,0.703125 0.224609,0.21484374 0.483398,0.3173828 0.263672,0.0976563 0.571289,0.0976563 0.708008,0 1.113281,-0.4296875 0.405274,-0.4345704 0.405274,-1.2451172 z"
     id="path1781" /></g>
   </g>
        <g
           transform="translate(7.98327,189.001)"
           xml:space="preserve"
           font-size="10px"
           font-weight="normal"
           font-family="FreeSans"
           font-style="normal"
           id="g317">
    <g
   aria-label="0.0008"
   id="text315"
   style="fill:#262626"><path
     d="m 5.6982422,-3.6376953 q 0,1.9580078 -0.6152344,2.87597655 -0.6103516,0.91308594 -1.899414,0.91308594 -1.3085938,0 -1.9140626,-0.92773438 -0.60058589,-0.92773441 -0.60058589,-2.85156251 0,-1.9384765 0.61035159,-2.8613281 0.6103515,-0.9277344 1.9042969,-0.9277344 1.3085937,0 1.9091796,0.9423828 0.6054688,0.9375 0.6054688,2.8369141 z m -1.2841797,2.2167969 q 0.1708984,-0.3955078 0.2294922,-0.9277344 0.063477,-0.5371094 0.063477,-1.2890625 0,-0.7421875 -0.063477,-1.2890625 -0.058594,-0.546875 -0.234375,-0.9277344 -0.1708985,-0.3759765 -0.46875,-0.5664062 -0.2929688,-0.1904297 -0.7568359,-0.1904297 -0.4589844,0 -0.7617188,0.1904297 -0.2978516,0.1904297 -0.4736328,0.5761718 -0.1660156,0.3613282 -0.2294922,0.9423829 -0.058594,0.5810546 -0.058594,1.274414 0,0.7617188 0.053711,1.2744141 0.053711,0.5126953 0.2294922,0.9179687 0.1611328,0.3808594 0.4541015,0.58105471 0.2978516,0.20019532 0.7861329,0.20019532 0.4589843,0 0.7617187,-0.19042969 0.3027344,-0.19042964 0.4687502,-0.57617184 z"
     id="path1784" /><path
     d="M 8.4023438,0 H 7.2353516 v -1.3916016 h 1.1669922 z"
     id="path1786" /><path
     d="m 14.698242,-3.6376953 q 0,1.9580078 -0.615234,2.87597655 -0.610352,0.91308594 -1.899414,0.91308594 -1.308594,0 -1.914063,-0.92773438 -0.6005857,-0.92773441 -0.6005857,-2.85156251 0,-1.9384765 0.6103517,-2.8613281 0.610351,-0.9277344 1.904297,-0.9277344 1.308594,0 1.909179,0.9423828 0.605469,0.9375 0.605469,2.8369141 z m -1.284179,2.2167969 q 0.170898,-0.3955078 0.229492,-0.9277344 0.06348,-0.5371094 0.06348,-1.2890625 0,-0.7421875 -0.06348,-1.2890625 -0.05859,-0.546875 -0.234375,-0.9277344 -0.170899,-0.3759765 -0.46875,-0.5664062 -0.292969,-0.1904297 -0.756836,-0.1904297 -0.458985,0 -0.761719,0.1904297 -0.297852,0.1904297 -0.473633,0.5761718 -0.166015,0.3613282 -0.229492,0.9423829 -0.05859,0.5810546 -0.05859,1.274414 0,0.7617188 0.05371,1.2744141 0.05371,0.5126953 0.229492,0.9179687 0.161133,0.3808594 0.454102,0.58105471 0.297852,0.20019532 0.786133,0.20019532 0.458984,0 0.761719,-0.19042969 0.302734,-0.19042964 0.46875,-0.57617184 z"
     id="path1788" /><path
     d="m 20.698242,-3.6376953 q 0,1.9580078 -0.615234,2.87597655 -0.610352,0.91308594 -1.899414,0.91308594 -1.308594,0 -1.914063,-0.92773438 -0.600586,-0.92773441 -0.600586,-2.85156251 0,-1.9384765 0.610352,-2.8613281 0.610351,-0.9277344 1.904297,-0.9277344 1.308593,0 1.909179,0.9423828 0.605469,0.9375 0.605469,2.8369141 z m -1.28418,2.2167969 q 0.170899,-0.3955078 0.229493,-0.9277344 0.06348,-0.5371094 0.06348,-1.2890625 0,-0.7421875 -0.06348,-1.2890625 -0.05859,-0.546875 -0.234375,-0.9277344 -0.170899,-0.3759765 -0.46875,-0.5664062 -0.292969,-0.1904297 -0.756836,-0.1904297 -0.458985,0 -0.761719,0.1904297 -0.297852,0.1904297 -0.473633,0.5761718 -0.166015,0.3613282 -0.229492,0.9423829 -0.05859,0.5810546 -0.05859,1.274414 0,0.7617188 0.05371,1.2744141 0.05371,0.5126953 0.229492,0.9179687 0.161133,0.3808594 0.454102,0.58105471 0.297851,0.20019532 0.786133,0.20019532 0.458984,0 0.761718,-0.19042969 0.302735,-0.19042964 0.46875,-0.57617184 z"
     id="path1790" /><path
     d="m 26.698242,-3.6376953 q 0,1.9580078 -0.615234,2.87597655 -0.610352,0.91308594 -1.899414,0.91308594 -1.308594,0 -1.914063,-0.92773438 -0.600586,-0.92773441 -0.600586,-2.85156251 0,-1.9384765 0.610352,-2.8613281 0.610351,-0.9277344 1.904297,-0.9277344 1.308593,0 1.909179,0.9423828 0.605469,0.9375 0.605469,2.8369141 z m -1.28418,2.2167969 q 0.170899,-0.3955078 0.229493,-0.9277344 0.06348,-0.5371094 0.06348,-1.2890625 0,-0.7421875 -0.06348,-1.2890625 -0.05859,-0.546875 -0.234375,-0.9277344 -0.170899,-0.3759765 -0.46875,-0.5664062 -0.292969,-0.1904297 -0.756836,-0.1904297 -0.458985,0 -0.761719,0.1904297 -0.297852,0.1904297 -0.473633,0.5761718 -0.166015,0.3613282 -0.229492,0.9423829 -0.05859,0.5810546 -0.05859,1.274414 0,0.7617188 0.05371,1.2744141 0.05371,0.5126953 0.229492,0.9179687 0.161133,0.3808594 0.454102,0.58105471 0.297851,0.20019532 0.786133,0.20019532 0.458984,0 0.761718,-0.19042969 0.302735,-0.19042964 0.46875,-0.57617184 z"
     id="path1792" /><path
     d="m 32.761719,-2.0263672 q 0,0.9423828 -0.737305,1.56738282 -0.732422,0.625 -1.845703,0.625 -1.181641,0 -1.884766,-0.61035156 -0.698242,-0.61035156 -0.698242,-1.56249996 0,-0.6054688 0.351563,-1.09375 0.351562,-0.4931641 0.991211,-0.78125 v -0.029297 q -0.585938,-0.3125 -0.869141,-0.6835938 -0.27832,-0.3710937 -0.27832,-0.9277343 0,-0.8203125 0.673828,-1.3671875 0.673828,-0.546875 1.713867,-0.546875 1.088867,0 1.738281,0.5224609 0.649414,0.5224609 0.649414,1.328125 0,0.4931641 -0.307617,0.9716797 -0.307617,0.4736328 -0.90332,0.7421875 v 0.029297 q 0.683593,0.2929687 1.044922,0.7226562 0.361328,0.4296875 0.361328,1.09375 z m -1.157227,-3.5498047 q 0,-0.5224609 -0.405273,-0.8300781 -0.400391,-0.3125 -1.025391,-0.3125 -0.615234,0 -1.010742,0.2929688 -0.390625,0.2929687 -0.390625,0.7910156 0,0.3515625 0.195312,0.6103515 0.200196,0.2539063 0.600586,0.4541016 0.180664,0.087891 0.517578,0.2294922 0.341797,0.1416016 0.664063,0.234375 0.483398,-0.3222656 0.668945,-0.6689453 0.185547,-0.3466797 0.185547,-0.8007813 z m 0.151367,3.6425782 q 0,-0.4492188 -0.200195,-0.7177735 -0.195312,-0.2734375 -0.771484,-0.546875 -0.229493,-0.1074219 -0.50293,-0.2001953 -0.273438,-0.092773 -0.727539,-0.2587891 -0.439453,0.2392578 -0.708008,0.6494141 -0.263672,0.4101562 -0.263672,0.9277344 0,0.6591797 0.454102,1.08886716 0.454101,0.4296875 1.152344,0.4296875 0.71289,0 1.137695,-0.36621094 0.429687,-0.36621092 0.429687,-1.00585932 z"
     id="path1794" /></g>
   </g>
        <g
           transform="translate(13.9833,221.778)"
           xml:space="preserve"
           font-size="10px"
           font-weight="normal"
           font-family="FreeSans"
           font-style="normal"
           id="g321">
    <g
   aria-label="0.001"
   id="text319"
   style="fill:#262626"><path
     d="m 5.6982422,-3.6376953 q 0,1.9580078 -0.6152344,2.87597655 -0.6103516,0.91308594 -1.899414,0.91308594 -1.3085938,0 -1.9140626,-0.92773438 -0.60058589,-0.92773441 -0.60058589,-2.85156251 0,-1.9384765 0.61035159,-2.8613281 0.6103515,-0.9277344 1.9042969,-0.9277344 1.3085937,0 1.9091796,0.9423828 0.6054688,0.9375 0.6054688,2.8369141 z m -1.2841797,2.2167969 q 0.1708984,-0.3955078 0.2294922,-0.9277344 0.063477,-0.5371094 0.063477,-1.2890625 0,-0.7421875 -0.063477,-1.2890625 -0.058594,-0.546875 -0.234375,-0.9277344 -0.1708985,-0.3759765 -0.46875,-0.5664062 -0.2929688,-0.1904297 -0.7568359,-0.1904297 -0.4589844,0 -0.7617188,0.1904297 -0.2978516,0.1904297 -0.4736328,0.5761718 -0.1660156,0.3613282 -0.2294922,0.9423829 -0.058594,0.5810546 -0.058594,1.274414 0,0.7617188 0.053711,1.2744141 0.053711,0.5126953 0.2294922,0.9179687 0.1611328,0.3808594 0.4541015,0.58105471 0.2978516,0.20019532 0.7861329,0.20019532 0.4589843,0 0.7617187,-0.19042969 0.3027344,-0.19042964 0.4687502,-0.57617184 z"
     id="path1797" /><path
     d="M 8.4023438,0 H 7.2353516 v -1.3916016 h 1.1669922 z"
     id="path1799" /><path
     d="m 14.698242,-3.6376953 q 0,1.9580078 -0.615234,2.87597655 -0.610352,0.91308594 -1.899414,0.91308594 -1.308594,0 -1.914063,-0.92773438 -0.6005857,-0.92773441 -0.6005857,-2.85156251 0,-1.9384765 0.6103517,-2.8613281 0.610351,-0.9277344 1.904297,-0.9277344 1.308594,0 1.909179,0.9423828 0.605469,0.9375 0.605469,2.8369141 z m -1.284179,2.2167969 q 0.170898,-0.3955078 0.229492,-0.9277344 0.06348,-0.5371094 0.06348,-1.2890625 0,-0.7421875 -0.06348,-1.2890625 -0.05859,-0.546875 -0.234375,-0.9277344 -0.170899,-0.3759765 -0.46875,-0.5664062 -0.292969,-0.1904297 -0.756836,-0.1904297 -0.458985,0 -0.761719,0.1904297 -0.297852,0.1904297 -0.473633,0.5761718 -0.166015,0.3613282 -0.229492,0.9423829 -0.05859,0.5810546 -0.05859,1.274414 0,0.7617188 0.05371,1.2744141 0.05371,0.5126953 0.229492,0.9179687 0.161133,0.3808594 0.454102,0.58105471 0.297852,0.20019532 0.786133,0.20019532 0.458984,0 0.761719,-0.19042969 0.302734,-0.19042964 0.46875,-0.57617184 z"
     id="path1801" /><path
     d="m 20.698242,-3.6376953 q 0,1.9580078 -0.615234,2.87597655 -0.610352,0.91308594 -1.899414,0.91308594 -1.308594,0 -1.914063,-0.92773438 -0.600586,-0.92773441 -0.600586,-2.85156251 0,-1.9384765 0.610352,-2.8613281 0.610351,-0.9277344 1.904297,-0.9277344 1.308593,0 1.909179,0.9423828 0.605469,0.9375 0.605469,2.8369141 z m -1.28418,2.2167969 q 0.170899,-0.3955078 0.229493,-0.9277344 0.06348,-0.5371094 0.06348,-1.2890625 0,-0.7421875 -0.06348,-1.2890625 -0.05859,-0.546875 -0.234375,-0.9277344 -0.170899,-0.3759765 -0.46875,-0.5664062 -0.292969,-0.1904297 -0.756836,-0.1904297 -0.458985,0 -0.761719,0.1904297 -0.297852,0.1904297 -0.473633,0.5761718 -0.166015,0.3613282 -0.229492,0.9423829 -0.05859,0.5810546 -0.05859,1.274414 0,0.7617188 0.05371,1.2744141 0.05371,0.5126953 0.229492,0.9179687 0.161133,0.3808594 0.454102,0.58105471 0.297851,0.20019532 0.786133,0.20019532 0.458984,0 0.761718,-0.19042969 0.302735,-0.19042964 0.46875,-0.57617184 z"
     id="path1803" /><path
     d="m 26.292969,0 h -3.935547 v -0.7421875 h 1.513672 v -4.8730469 h -1.513672 v -0.6640625 q 0.307617,0 0.65918,-0.048828 0.351562,-0.053711 0.532226,-0.1513672 0.224609,-0.1220703 0.351563,-0.3076172 0.131836,-0.1904297 0.151367,-0.5078125 h 0.756836 v 6.5527344 h 1.484375 z"
     id="path1805" /></g>
   </g>
        <g
           transform="translate(7.98327,254.555)"
           xml:space="preserve"
           font-size="10px"
           font-weight="normal"
           font-family="FreeSans"
           font-style="normal"
           id="g325">
    <g
   aria-label="0.0012"
   id="text323"
   style="fill:#262626"><path
     d="m 5.6982422,-3.6376953 q 0,1.9580078 -0.6152344,2.87597655 -0.6103516,0.91308594 -1.899414,0.91308594 -1.3085938,0 -1.9140626,-0.92773438 -0.60058589,-0.92773441 -0.60058589,-2.85156251 0,-1.9384765 0.61035159,-2.8613281 0.6103515,-0.9277344 1.9042969,-0.9277344 1.3085937,0 1.9091796,0.9423828 0.6054688,0.9375 0.6054688,2.8369141 z m -1.2841797,2.2167969 q 0.1708984,-0.3955078 0.2294922,-0.9277344 0.063477,-0.5371094 0.063477,-1.2890625 0,-0.7421875 -0.063477,-1.2890625 -0.058594,-0.546875 -0.234375,-0.9277344 -0.1708985,-0.3759765 -0.46875,-0.5664062 -0.2929688,-0.1904297 -0.7568359,-0.1904297 -0.4589844,0 -0.7617188,0.1904297 -0.2978516,0.1904297 -0.4736328,0.5761718 -0.1660156,0.3613282 -0.2294922,0.9423829 -0.058594,0.5810546 -0.058594,1.274414 0,0.7617188 0.053711,1.2744141 0.053711,0.5126953 0.2294922,0.9179687 0.1611328,0.3808594 0.4541015,0.58105471 0.2978516,0.20019532 0.7861329,0.20019532 0.4589843,0 0.7617187,-0.19042969 0.3027344,-0.19042964 0.4687502,-0.57617184 z"
     id="path1808" /><path
     d="M 8.4023438,0 H 7.2353516 v -1.3916016 h 1.1669922 z"
     id="path1810" /><path
     d="m 14.698242,-3.6376953 q 0,1.9580078 -0.615234,2.87597655 -0.610352,0.91308594 -1.899414,0.91308594 -1.308594,0 -1.914063,-0.92773438 -0.6005857,-0.92773441 -0.6005857,-2.85156251 0,-1.9384765 0.6103517,-2.8613281 0.610351,-0.9277344 1.904297,-0.9277344 1.308594,0 1.909179,0.9423828 0.605469,0.9375 0.605469,2.8369141 z m -1.284179,2.2167969 q 0.170898,-0.3955078 0.229492,-0.9277344 0.06348,-0.5371094 0.06348,-1.2890625 0,-0.7421875 -0.06348,-1.2890625 -0.05859,-0.546875 -0.234375,-0.9277344 -0.170899,-0.3759765 -0.46875,-0.5664062 -0.292969,-0.1904297 -0.756836,-0.1904297 -0.458985,0 -0.761719,0.1904297 -0.297852,0.1904297 -0.473633,0.5761718 -0.166015,0.3613282 -0.229492,0.9423829 -0.05859,0.5810546 -0.05859,1.274414 0,0.7617188 0.05371,1.2744141 0.05371,0.5126953 0.229492,0.9179687 0.161133,0.3808594 0.454102,0.58105471 0.297852,0.20019532 0.786133,0.20019532 0.458984,0 0.761719,-0.19042969 0.302734,-0.19042964 0.46875,-0.57617184 z"
     id="path1812" /><path
     d="m 20.698242,-3.6376953 q 0,1.9580078 -0.615234,2.87597655 -0.610352,0.91308594 -1.899414,0.91308594 -1.308594,0 -1.914063,-0.92773438 -0.600586,-0.92773441 -0.600586,-2.85156251 0,-1.9384765 0.610352,-2.8613281 0.610351,-0.9277344 1.904297,-0.9277344 1.308593,0 1.909179,0.9423828 0.605469,0.9375 0.605469,2.8369141 z m -1.28418,2.2167969 q 0.170899,-0.3955078 0.229493,-0.9277344 0.06348,-0.5371094 0.06348,-1.2890625 0,-0.7421875 -0.06348,-1.2890625 -0.05859,-0.546875 -0.234375,-0.9277344 -0.170899,-0.3759765 -0.46875,-0.5664062 -0.292969,-0.1904297 -0.756836,-0.1904297 -0.458985,0 -0.761719,0.1904297 -0.297852,0.1904297 -0.473633,0.5761718 -0.166015,0.3613282 -0.229492,0.9423829 -0.05859,0.5810546 -0.05859,1.274414 0,0.7617188 0.05371,1.2744141 0.05371,0.5126953 0.229492,0.9179687 0.161133,0.3808594 0.454102,0.58105471 0.297851,0.20019532 0.786133,0.20019532 0.458984,0 0.761718,-0.19042969 0.302735,-0.19042964 0.46875,-0.57617184 z"
     id="path1814" /><path
     d="m 26.292969,0 h -3.935547 v -0.7421875 h 1.513672 v -4.8730469 h -1.513672 v -0.6640625 q 0.307617,0 0.65918,-0.048828 0.351562,-0.053711 0.532226,-0.1513672 0.224609,-0.1220703 0.351563,-0.3076172 0.131836,-0.1904297 0.151367,-0.5078125 h 0.756836 v 6.5527344 h 1.484375 z"
     id="path1816" /><path
     d="m 32.708008,0 h -4.921875 v -1.0205078 q 0.512695,-0.4394531 1.02539,-0.8789063 0.517579,-0.4394531 0.961914,-0.8740234 0.9375,-0.9082031 1.28418,-1.4404297 0.34668,-0.5371094 0.34668,-1.1572265 0,-0.5664063 -0.375977,-0.8837891 -0.371093,-0.3222656 -1.040039,-0.3222656 -0.444336,0 -0.961914,0.15625 -0.517578,0.15625 -1.010742,0.4785156 h -0.04883 v -1.0253906 q 0.34668,-0.1708985 0.922851,-0.3125 0.581055,-0.1416016 1.123047,-0.1416016 1.118164,0 1.75293,0.5419922 0.634766,0.5371094 0.634766,1.4599609 0,0.4150391 -0.107422,0.7763672 -0.102539,0.3564453 -0.307617,0.6787109 -0.19043,0.3027344 -0.449219,0.5957032 -0.253906,0.2929687 -0.620117,0.649414 -0.522461,0.5126953 -1.079102,0.9960938 -0.556641,0.4785156 -1.040039,0.88867186 h 3.911133 z"
     id="path1818" /></g>
   </g>
        <path
           id="polyline327"
           style="fill:none;stroke:#262626;stroke-width:0.5;stroke-linecap:square;stroke-dasharray:16, 0"
           d="M 45.9922,250.555 H 312.473" />
        <path
           id="polyline329"
           style="fill:none;stroke:#262626;stroke-width:0.5;stroke-linecap:square;stroke-dasharray:16, 0"
           d="M 45.9922,21.1143 H 312.473" />
        <path
           id="polyline331"
           style="fill:none;stroke:#262626;stroke-width:0.5;stroke-linecap:square;stroke-dasharray:16, 0"
           d="M 45.9922,250.555 V 21.1143" />
        <path
           id="polyline333"
           style="fill:none;stroke:#262626;stroke-width:0.5;stroke-linecap:square;stroke-dasharray:16, 0"
           d="M 312.473,250.555 V 21.1143" />
        <path
           id="polyline335"
           style="fill:none;stroke:#ff0000;stroke-width:0.5;stroke-linejoin:round"
           d="m 45.9922,53.8916 1.3672,3.2031 2.7207,6.3692 4.0454,9.4482 5.3296,12.3643 6.5586,15.0136 7.7202,17.261 8.8027,18.96 9.7954,19.953 10.687,20.106 11.469,19.318 12.133,17.551 12.673,14.835 13.083,11.273 13.358,7.049 13.497,2.399 13.497,-2.399 13.359,-7.049 13.083,-11.273 12.673,-14.835 12.133,-17.551 11.469,-19.318 10.687,-20.106 9.795,-19.953 8.803,-18.96 7.72,-17.261 6.559,-15.0136 5.329,-12.3643 4.046,-9.4482 2.72,-6.3692 1.368,-3.2031" />
        <path
           id="polyline337"
           style="fill:none;stroke:#000000;stroke-width:0.5;stroke-linecap:square"
           d="m 45.9922,50.8916 3,3 -3,3 -3,-3 3,-3" />
        <path
           id="polyline339"
           style="fill:none;stroke:#000000;stroke-width:0.5;stroke-linecap:square"
           d="m 47.3594,54.0947 3,3 -3,3 -3,-3 3,-3" />
        <path
           id="polyline341"
           style="fill:none;stroke:#000000;stroke-width:0.5;stroke-linecap:square"
           d="m 50.0801,60.4639 3,3 -3,3 -3,-3 3,-3" />
        <path
           id="polyline343"
           style="fill:none;stroke:#000000;stroke-width:0.5;stroke-linecap:square"
           d="m 54.1255,69.9121 3,3 -3,3 -3,-3 3,-3" />
        <path
           id="polyline345"
           style="fill:none;stroke:#000000;stroke-width:0.5;stroke-linecap:square"
           d="m 59.4551,82.2764 3,3 -3,3 -3,-3 3,-3" />
        <path
           id="polyline347"
           style="fill:none;stroke:#000000;stroke-width:0.5;stroke-linecap:square"
           d="m 66.0137,97.2896 3,3.0004 -3,3 -3,-3 3,-3.0004" />
        <path
           id="polyline349"
           style="fill:none;stroke:#000000;stroke-width:0.5;stroke-linecap:square"
           d="m 73.7339,114.551 3,3 -3,3 -3,-3 3,-3" />
        <path
           id="polyline351"
           style="fill:none;stroke:#000000;stroke-width:0.5;stroke-linecap:square"
           d="m 82.5366,133.511 3,3 -3,3 -3,-3 3,-3" />
        <path
           id="polyline353"
           style="fill:none;stroke:#000000;stroke-width:0.5;stroke-linecap:square"
           d="m 92.332,153.464 3,3 -3,3 -3,-3 3,-3" />
        <path
           id="polyline355"
           style="fill:none;stroke:#000000;stroke-width:0.5;stroke-linecap:square"
           d="m 103.019,173.57 3,3 -3,3 -3,-3 3,-3" />
        <path
           id="polyline357"
           style="fill:none;stroke:#000000;stroke-width:0.5;stroke-linecap:square"
           d="m 114.488,192.888 3,3 -3,3 -3,-3 3,-3" />
        <path
           id="polyline359"
           style="fill:none;stroke:#000000;stroke-width:0.5;stroke-linecap:square"
           d="m 126.621,210.439 3,3 -3,3 -3,-3 3,-3" />
        <path
           id="polyline361"
           style="fill:none;stroke:#000000;stroke-width:0.5;stroke-linecap:square"
           d="m 139.294,225.274 3,3 -3,3 -3,-3 3,-3" />
        <path
           id="polyline363"
           style="fill:none;stroke:#000000;stroke-width:0.5;stroke-linecap:square"
           d="m 152.377,236.547 3,3 -3,3 -3,-3 3,-3" />
        <path
           id="polyline365"
           style="fill:none;stroke:#000000;stroke-width:0.5;stroke-linecap:square"
           d="m 165.735,243.596 3,3 -3,3 -3,-3 3,-3" />
        <path
           id="polyline367"
           style="fill:none;stroke:#000000;stroke-width:0.5;stroke-linecap:square"
           d="m 179.232,245.995 3,3 -3,3 -3,-3 3,-3" />
        <path
           id="polyline369"
           style="fill:none;stroke:#000000;stroke-width:0.5;stroke-linecap:square"
           d="m 192.729,243.596 3,3 -3,3 -3,-3 3,-3" />
        <path
           id="polyline371"
           style="fill:none;stroke:#000000;stroke-width:0.5;stroke-linecap:square"
           d="m 206.088,236.547 3,3 -3,3 -3,-3 3,-3" />
        <path
           id="polyline373"
           style="fill:none;stroke:#000000;stroke-width:0.5;stroke-linecap:square"
           d="m 219.171,225.274 3,3 -3,3 -3,-3 3,-3" />
        <path
           id="polyline375"
           style="fill:none;stroke:#000000;stroke-width:0.5;stroke-linecap:square"
           d="m 231.844,210.439 3,3 -3,3 -3,-3 3,-3" />
        <path
           id="polyline377"
           style="fill:none;stroke:#000000;stroke-width:0.5;stroke-linecap:square"
           d="m 243.977,192.888 3,3 -3,3 -3,-3 3,-3" />
        <path
           id="polyline379"
           style="fill:none;stroke:#000000;stroke-width:0.5;stroke-linecap:square"
           d="m 255.446,173.57 3,3 -3,3 -3,-3 3,-3" />
        <path
           id="polyline381"
           style="fill:none;stroke:#000000;stroke-width:0.5;stroke-linecap:square"
           d="m 266.133,153.464 3,3 -3,3 -3,-3 3,-3" />
        <path
           id="polyline383"
           style="fill:none;stroke:#000000;stroke-width:0.5;stroke-linecap:square"
           d="m 275.928,133.511 3,3 -3,3 -3,-3 3,-3" />
        <path
           id="polyline385"
           style="fill:none;stroke:#000000;stroke-width:0.5;stroke-linecap:square"
           d="m 284.731,114.551 3,3 -3,3 -3,-3 3,-3" />
        <path
           id="polyline387"
           style="fill:none;stroke:#000000;stroke-width:0.5;stroke-linecap:square"
           d="m 292.451,97.2896 3,3.0004 -3,3 -3,-3 3,-3.0004" />
        <path
           id="polyline389"
           style="fill:none;stroke:#000000;stroke-width:0.5;stroke-linecap:square"
           d="m 299.01,82.2764 3,3 -3,3 -3,-3 3,-3" />
        <path
           id="polyline391"
           style="fill:none;stroke:#000000;stroke-width:0.5;stroke-linecap:square"
           d="m 304.339,69.9121 3,3 -3,3 -3,-3 3,-3" />
        <path
           id="polyline393"
           style="fill:none;stroke:#000000;stroke-width:0.5;stroke-linecap:square"
           d="m 308.385,60.4639 3,3 -3,3 -3,-3 3,-3" />
        <path
           id="polyline395"
           style="fill:none;stroke:#000000;stroke-width:0.5;stroke-linecap:square"
           d="m 311.105,54.0947 3,3 -3,3 -3,-3 3,-3" />
        <path
           id="polyline397"
           style="fill:none;stroke:#000000;stroke-width:0.5;stroke-linecap:square"
           d="m 312.473,50.8916 3,3 -3,3 -3,-3 3,-3" />
      </g>
    </g>
  </g>
  <metadata
     id="metadata1004">
    <rdf:RDF>
      <cc:Work
         rdf:about="">
        <dc:title>Figure 2</dc:title>
      </cc:Work>
    </rdf:RDF>
  </metadata>
</svg>
