<?xml version="1.0" encoding="UTF-8" standalone="no"?>
<!-- Created with Inkscape (http://www.inkscape.org/) -->

<svg
   width="1000mm"
   height="356mm"
   viewBox="0 0 1000 356"
   version="1.1"
   id="svg5"
   inkscape:version="1.1.1 (3bf5ae0d25, 2021-09-20)"
   sodipodi:docname="267laphic2.svg"
   xmlns:inkscape="http://www.inkscape.org/namespaces/inkscape"
   xmlns:sodipodi="http://sodipodi.sourceforge.net/DTD/sodipodi-0.dtd"
   xmlns="http://www.w3.org/2000/svg"
   xmlns:svg="http://www.w3.org/2000/svg">
  <sodipodi:namedview
     id="namedview7"
     pagecolor="#ffffff"
     bordercolor="#666666"
     borderopacity="1.0"
     inkscape:pageshadow="2"
     inkscape:pageopacity="0.0"
     inkscape:pagecheckerboard="0"
     inkscape:document-units="mm"
     showgrid="false"
     inkscape:zoom="0.9"
     inkscape:cx="1143.3333"
     inkscape:cy="645"
     inkscape:current-layer="layer1" />
  <defs
     id="defs2" />
  <g
     inkscape:label="Layer 1"
     inkscape:groupmode="layer"
     id="layer1">
    <g
       transform="matrix(0.04718694,0,0,-0.04718694,-11.047084,365.34364)"
       fill="#000000"
       stroke="none"
       id="g7028">
      <path
         d="m 2150,7629 c 0,-44 -2,-50 -14,-40 -8,7 -31,11 -52,9 -53,-4 -77,-40 -77,-113 0,-73 24,-109 77,-113 21,-2 45,3 53,10 13,10 17,10 20,1 3,-7 13,-13 24,-13 18,0 19,9 19,155 v 155 h -25 c -23,0 -25,-3 -25,-51 z m -16,-75 c 22,-21 21,-111 -1,-136 -37,-41 -83,-4 -83,67 0,70 46,108 84,69 z"
         id="path6392" />
      <path
         d="m 3160,7628 c 0,-40 -3,-49 -12,-40 -21,21 -82,15 -105,-10 -39,-44 -37,-165 3,-195 22,-16 86,-17 102,-1 9,9 12,9 12,0 0,-7 11,-12 25,-12 h 25 v 155 155 h -25 c -23,0 -25,-3 -25,-52 z m -16,-77 c 13,-14 16,-33 14,-72 -3,-47 -7,-55 -31,-69 -27,-14 -29,-14 -48,9 -37,45 -16,151 30,151 10,0 26,-9 35,-19 z"
         id="path6394" />
      <path
         d="m 3250,7660 c 0,-15 7,-20 25,-20 18,0 25,5 25,20 0,15 -7,20 -25,20 -18,0 -25,-5 -25,-20 z"
         id="path6396" />
      <path
         d="m 3360,7661 c -5,-11 -10,-29 -10,-40 0,-12 -7,-21 -15,-21 -8,0 -15,-7 -15,-15 0,-8 7,-15 15,-15 12,0 15,-18 15,-100 v -100 h 25 25 v 100 100 h 30 30 v -100 -100 h 25 25 v 100 c 0,93 1,100 20,100 11,0 20,7 20,15 0,8 -9,15 -20,15 -14,0 -20,7 -20,21 0,12 8,23 20,26 34,9 24,33 -15,33 -36,0 -55,-20 -55,-59 0,-17 -6,-21 -30,-21 -24,0 -30,4 -30,21 0,12 8,23 20,26 34,9 24,33 -15,33 -24,0 -37,-6 -45,-19 z"
         id="path6398" />
      <path
         d="m 3615,7636 c -57,-97 -57,-215 0,-312 19,-33 32,-44 50,-44 h 24 l -32,52 c -30,48 -32,56 -32,148 0,92 2,100 32,148 l 32,52 h -24 c -18,0 -31,-11 -50,-44 z"
         id="path6400" />
      <path
         d="m 3965,7636 c -57,-97 -57,-215 0,-312 19,-33 32,-44 50,-44 h 24 l -32,52 c -30,48 -32,56 -32,148 0,92 2,100 32,148 l 32,52 h -24 c -18,0 -31,-11 -50,-44 z"
         id="path6402" />
      <path
         d="m 4179,7651 c 68,-95 68,-247 0,-342 l -21,-31 28,4 c 23,2 34,13 59,62 25,51 30,70 30,136 0,66 -5,85 -30,136 -25,49 -36,60 -59,62 l -28,4 z"
         id="path6404" />
      <path
         d="m 4679,7651 c 68,-95 68,-247 0,-342 l -21,-31 28,4 c 23,2 34,13 59,62 25,51 30,70 30,136 0,66 -5,85 -30,136 -25,49 -36,60 -59,62 l -28,4 z"
         id="path6406" />
      <path
         d="m 5520,7628 c 0,-40 -3,-49 -12,-40 -21,21 -82,15 -105,-10 -39,-44 -37,-165 3,-195 22,-16 86,-17 102,-1 9,9 12,9 12,0 0,-7 11,-12 25,-12 h 25 v 155 155 h -25 c -23,0 -25,-3 -25,-52 z m -16,-77 c 13,-14 16,-33 14,-72 -3,-47 -7,-55 -31,-69 -27,-14 -29,-14 -48,9 -37,45 -16,151 30,151 10,0 26,-9 35,-19 z"
         id="path6408" />
      <path
         d="m 5610,7660 c 0,-15 7,-20 25,-20 18,0 25,5 25,20 0,15 -7,20 -25,20 -18,0 -25,-5 -25,-20 z"
         id="path6410" />
      <path
         d="m 5720,7661 c -5,-11 -10,-29 -10,-40 0,-12 -7,-21 -15,-21 -8,0 -15,-7 -15,-15 0,-8 7,-15 15,-15 12,0 15,-18 15,-100 v -100 h 25 25 v 100 100 h 30 30 v -100 -100 h 25 25 v 100 c 0,93 1,100 20,100 11,0 20,7 20,15 0,8 -9,15 -20,15 -14,0 -20,7 -20,21 0,12 8,23 20,26 34,9 24,33 -15,33 -36,0 -55,-20 -55,-59 0,-17 -6,-21 -30,-21 -24,0 -30,4 -30,21 0,12 8,23 20,26 34,9 24,33 -15,33 -24,0 -37,-6 -45,-19 z"
         id="path6412" />
      <path
         d="m 5975,7636 c -38,-65 -52,-143 -37,-212 16,-78 56,-144 87,-144 h 24 l -32,52 c -30,48 -32,56 -32,148 0,92 2,100 32,148 l 32,52 h -24 c -18,0 -31,-11 -50,-44 z"
         id="path6414" />
      <path
         d="m 6325,7636 c -38,-65 -52,-143 -37,-212 16,-78 56,-144 87,-144 h 24 l -32,52 c -30,48 -32,56 -32,148 0,92 2,100 32,148 l 32,52 h -24 c -18,0 -31,-11 -50,-44 z"
         id="path6416" />
      <path
         d="m 6539,7651 c 33,-45 51,-107 51,-171 0,-64 -18,-126 -51,-171 l -21,-31 28,4 c 23,2 34,13 59,62 25,51 30,70 30,136 0,66 -5,85 -30,136 -25,49 -36,60 -59,62 l -28,4 z"
         id="path6418" />
      <path
         d="m 7039,7651 c 33,-45 51,-107 51,-171 0,-64 -18,-126 -51,-171 l -21,-31 28,4 c 23,2 34,13 59,62 25,51 30,70 30,136 0,66 -5,85 -30,136 -25,49 -36,60 -59,62 l -28,4 z"
         id="path6420" />
      <path
         d="m 8285,7636 c -38,-65 -52,-143 -37,-212 16,-78 56,-144 87,-144 h 24 l -32,52 c -30,48 -32,56 -32,148 0,92 2,100 32,148 l 32,52 h -24 c -18,0 -31,-11 -50,-44 z"
         id="path6422" />
      <path
         d="m 8499,7651 c 33,-45 51,-107 51,-171 0,-64 -18,-126 -51,-171 l -21,-31 28,4 c 23,2 34,13 59,62 25,51 30,70 30,136 0,66 -5,85 -30,136 -25,49 -36,60 -59,62 l -28,4 z"
         id="path6424" />
      <path
         d="m 2495,7635 c -14,-13 -25,-31 -25,-40 0,-22 46,-20 53,3 5,23 35,32 65,21 16,-6 22,-17 22,-39 0,-24 -14,-43 -70,-98 -45,-44 -70,-76 -70,-90 0,-21 4,-22 101,-22 90,0 100,2 97,18 -3,14 -16,18 -78,20 l -74,3 72,67 c 61,57 72,72 72,100 0,50 -37,82 -95,82 -35,0 -52,-6 -70,-25 z"
         id="path6426" />
      <path
         d="m 2940,7610 c 0,-43 3,-50 20,-50 17,0 20,7 20,50 0,43 -3,50 -20,50 -17,0 -20,-7 -20,-50 z"
         id="path6428" />
      <path
         d="m 5300,7610 c 0,-43 3,-50 20,-50 17,0 20,7 20,50 0,43 -3,50 -20,50 -17,0 -20,-7 -20,-50 z"
         id="path6430" />
      <path
         d="m 7685,7635 c -14,-13 -25,-31 -25,-40 0,-21 37,-19 49,4 13,23 40,31 69,20 16,-6 22,-17 22,-39 0,-24 -14,-43 -70,-98 -45,-44 -70,-76 -70,-90 0,-21 4,-22 95,-22 88,0 95,1 95,20 0,18 -7,20 -72,20 l -73,1 62,57 c 90,83 104,122 58,167 -18,19 -35,25 -70,25 -35,0 -52,-6 -70,-25 z"
         id="path6432" />
      <path
         d="m 4076,7625 c -4,-14 -13,-25 -21,-25 -8,0 -15,-7 -15,-15 0,-8 7,-15 15,-15 12,0 15,-16 15,-88 0,-98 7,-112 57,-112 38,0 47,27 11,32 -21,3 -23,9 -26,86 -3,77 -2,82 18,82 11,0 20,7 20,15 0,8 -9,15 -20,15 -15,0 -20,7 -20,25 0,15 -6,25 -14,25 -8,0 -17,-11 -20,-25 z"
         id="path6434" />
      <path
         d="m 4576,7625 c -4,-14 -13,-25 -21,-25 -8,0 -15,-7 -15,-15 0,-8 7,-15 15,-15 12,0 15,-16 15,-88 0,-98 7,-112 57,-112 38,0 47,27 11,32 -21,3 -23,9 -26,86 -3,77 -2,82 18,82 11,0 20,7 20,15 0,8 -9,15 -20,15 -15,0 -20,7 -20,25 0,15 -6,25 -14,25 -8,0 -17,-11 -20,-25 z"
         id="path6436" />
      <path
         d="m 6436,7625 c -4,-14 -13,-25 -21,-25 -8,0 -15,-7 -15,-15 0,-8 7,-15 15,-15 12,0 15,-16 15,-88 0,-98 7,-112 57,-112 38,0 47,27 11,32 -21,3 -23,9 -26,86 -3,77 -2,82 18,82 11,0 20,7 20,15 0,8 -9,15 -20,15 -15,0 -20,7 -20,25 0,15 -6,25 -14,25 -8,0 -17,-11 -20,-25 z"
         id="path6438" />
      <path
         d="m 6936,7625 c -4,-14 -13,-25 -21,-25 -8,0 -15,-7 -15,-15 0,-8 7,-15 15,-15 12,0 15,-16 15,-88 0,-98 7,-112 57,-112 38,0 47,27 11,32 -21,3 -23,9 -26,86 -3,77 -2,82 18,82 11,0 20,7 20,15 0,8 -9,15 -20,15 -15,0 -20,7 -20,25 0,15 -6,25 -14,25 -8,0 -17,-11 -20,-25 z"
         id="path6440" />
      <path
         d="m 8396,7625 c -4,-14 -13,-25 -21,-25 -8,0 -15,-7 -15,-15 0,-8 7,-15 15,-15 12,0 15,-16 15,-88 0,-98 7,-112 57,-112 38,0 47,27 11,32 -21,3 -23,9 -26,86 -3,77 -2,82 18,82 11,0 20,7 20,15 0,8 -9,15 -20,15 -15,0 -20,7 -20,25 0,15 -6,25 -14,25 -8,0 -17,-11 -20,-25 z"
         id="path6442" />
      <path
         d="m 341,7585 c -25,-37 -51,-121 -51,-165 0,-77 57,-200 93,-200 22,0 21,6 -1,38 -30,43 -42,90 -42,162 0,72 12,119 42,162 22,32 23,38 1,38 -10,0 -29,-16 -42,-35 z"
         id="path6444" />
      <path
         d="m 802,7603 c 2,-10 13,-19 26,-21 17,-3 22,2 22,17 0,16 -6,21 -26,21 -19,0 -25,-5 -22,-17 z"
         id="path6446" />
      <path
         d="m 1325,7584 c 32,-47 45,-95 45,-164 0,-69 -13,-117 -45,-164 -23,-34 -23,-36 -5,-36 23,0 63,52 80,103 27,85 11,201 -37,265 -13,17 -33,32 -43,32 -18,0 -18,-2 5,-36 z"
         id="path6448" />
      <path
         d="m 7380,7575 v -45 h -40 c -29,0 -40,-4 -40,-15 0,-11 11,-15 40,-15 h 40 v -45 c 0,-38 3,-45 20,-45 17,0 20,7 20,45 v 45 h 45 c 33,0 45,4 45,15 0,11 -12,15 -45,15 h -45 v 45 c 0,38 -3,45 -20,45 -17,0 -20,-7 -20,-45 z"
         id="path6450" />
      <path
         d="m 447,7585 c -32,-32 -32,-118 0,-150 21,-21 67,-19 88,5 26,28 26,112 0,140 -21,24 -67,26 -88,5 z m 71,-54 c 6,-55 -5,-83 -31,-79 -18,2 -23,10 -25,47 -4,57 3,73 30,69 18,-2 24,-11 26,-37 z"
         id="path6452" />
      <path
         d="m 652,7573 c -61,-88 -163,-255 -158,-260 14,-14 37,14 119,140 48,75 87,138 87,142 0,16 -31,1 -48,-22 z"
         id="path6454" />
      <path
         d="m 943,7579 c -20,-12 -33,-29 -33,-41 0,-19 1,-19 25,-4 13,9 27,16 30,16 3,0 5,-47 5,-105 v -105 h -35 c -24,0 -35,-5 -35,-15 0,-12 17,-15 90,-15 72,0 90,3 90,14 0,9 -12,16 -32,18 l -33,3 -3,128 c -3,142 -6,147 -69,106 z"
         id="path6456" />
      <path
         d="m 1143,7579 c -20,-12 -33,-29 -33,-41 0,-19 1,-19 25,-4 13,9 27,16 30,16 3,0 5,-47 5,-105 v -105 h -35 c -24,0 -35,-5 -35,-15 0,-12 17,-15 90,-15 72,0 90,3 90,14 0,9 -12,16 -32,18 l -33,3 -3,128 c -3,142 -6,147 -69,106 z"
         id="path6458" />
      <path
         d="m 1811,7583 c -46,-37 -46,-159 0,-195 26,-22 97,-24 126,-3 51,36 55,156 6,195 -33,26 -102,27 -132,3 z m 101,-30 c 24,-22 25,-109 1,-135 -40,-45 -93,-6 -93,69 0,69 50,105 92,66 z"
         id="path6460" />
      <path
         d="m 2265,7574 c -32,-34 -37,-97 -13,-157 14,-36 36,-47 91,-47 33,0 49,6 65,23 12,13 22,26 22,29 0,15 -36,12 -52,-4 -10,-10 -27,-18 -38,-18 -26,0 -60,34 -60,60 0,18 7,20 80,20 89,0 92,3 66,65 -17,41 -42,55 -96,55 -31,0 -47,-6 -65,-26 z m 107,-21 c 33,-30 23,-43 -37,-43 -59,0 -63,4 -39,38 18,26 50,28 76,5 z"
         id="path6462" />
      <path
         d="m 2712,7578 c 2,-15 11,-24 26,-26 18,-3 22,1 22,22 0,21 -5,26 -26,26 -21,0 -25,-4 -22,-22 z"
         id="path6464" />
      <path
         d="m 3250,7485 v -115 h 25 25 v 115 115 h -25 -25 z"
         id="path6466" />
      <path
         d="m 3690,7596 c 0,-2 18,-52 41,-111 45,-122 45,-151 -1,-168 -39,-15 -39,-37 -1,-37 29,0 53,16 70,48 8,16 101,262 101,269 0,2 -10,3 -23,3 -20,0 -27,-11 -51,-87 l -29,-88 -30,88 c -27,76 -33,87 -54,87 -13,0 -23,-2 -23,-4 z"
         id="path6468" />
      <path
         d="m 5610,7485 v -115 h 25 25 v 115 115 h -25 -25 z"
         id="path6470" />
      <path
         d="m 6060,7595 c 0,-3 15,-29 34,-57 l 35,-51 -40,-58 c -39,-58 -39,-59 -16,-59 17,0 32,12 52,42 l 27,41 19,-24 c 10,-13 21,-32 25,-41 3,-12 16,-18 35,-18 h 30 l -41,60 -41,60 29,43 c 46,67 46,67 19,67 -19,0 -31,-11 -49,-42 l -25,-41 -23,41 c -17,31 -30,42 -47,42 -13,0 -23,-2 -23,-5 z"
         id="path6472" />
      <path
         d="m 8010,7596 c 0,-2 18,-52 41,-111 45,-122 45,-151 -1,-168 -39,-15 -39,-37 -1,-37 29,0 53,16 70,48 8,16 101,262 101,269 0,2 -10,3 -23,3 -20,0 -27,-11 -51,-87 l -29,-88 -30,88 c -27,76 -33,87 -54,87 -13,0 -23,-2 -23,-4 z"
         id="path6474" />
      <path
         d="m 8660,7575 c 0,-18 5,-25 20,-25 15,0 20,7 20,25 0,18 -5,25 -20,25 -15,0 -20,-7 -20,-25 z"
         id="path6476" />
      <path
         d="m 4940,7565 c 0,-12 18,-15 105,-15 87,0 105,3 105,15 0,12 -18,15 -105,15 -87,0 -105,-3 -105,-15 z"
         id="path6478" />
      <path
         d="m 800,7425 v -115 h 25 25 v 115 115 h -25 -25 z"
         id="path6480" />
      <path
         d="m 7920,7485 c 0,-18 5,-25 20,-25 15,0 20,7 20,25 0,18 -5,25 -20,25 -15,0 -20,-7 -20,-25 z"
         id="path6482" />
      <path
         d="m 654,7479 c -26,-28 -26,-120 0,-148 24,-27 68,-27 92,0 14,15 19,36 19,74 0,38 -5,59 -19,74 -24,27 -68,27 -92,0 z m 71,-74 c 0,-57 -1,-60 -25,-60 -23,0 -25,4 -28,49 -4,62 2,78 30,74 21,-3 23,-8 23,-63 z"
         id="path6484" />
      <path
         d="m 4940,7455 c 0,-12 18,-15 105,-15 87,0 105,3 105,15 0,12 -18,15 -105,15 -87,0 -105,-3 -105,-15 z"
         id="path6486" />
      <path
         d="m 2717,7413 c -4,-3 -7,-15 -7,-25 0,-13 7,-18 25,-18 20,0 25,5 25,25 0,18 -5,25 -18,25 -10,0 -22,-3 -25,-7 z"
         id="path6488" />
      <path
         d="m 4337,7413 c -11,-10 -8,-43 4,-43 7,0 8,-11 4,-30 -5,-23 -3,-30 8,-30 19,0 27,21 27,71 0,31 -4,39 -18,39 -10,0 -22,-3 -25,-7 z"
         id="path6490" />
      <path
         d="m 6697,7413 c -11,-10 -8,-43 4,-43 7,0 8,-11 4,-30 -5,-23 -3,-30 8,-30 19,0 27,21 27,71 0,31 -4,39 -18,39 -10,0 -22,-3 -25,-7 z"
         id="path6492" />
      <path
         d="m 8663,7365 c 3,-85 37,-70 37,16 0,32 -3,39 -19,39 -18,0 -20,-7 -18,-55 z"
         id="path6494" />
      <path
         d="m 2190,6893 c 0,-37 -3,-44 -12,-35 -7,7 -29,12 -50,12 -51,0 -73,-33 -73,-111 1,-72 21,-99 75,-99 20,0 41,5 48,12 9,9 12,9 12,0 0,-7 9,-12 20,-12 19,0 20,7 20,140 0,133 -1,140 -20,140 -17,0 -20,-7 -20,-47 z m -22,-62 c 8,-4 16,-27 19,-49 9,-67 -38,-117 -75,-80 -16,16 -16,110 0,126 14,14 37,15 56,3 z"
         id="path6496" />
      <path
         d="m 4210,6893 c 0,-37 -3,-44 -12,-35 -7,7 -29,12 -50,12 -51,0 -73,-33 -73,-111 1,-72 21,-99 75,-99 20,0 41,5 48,12 9,9 12,9 12,0 0,-7 9,-12 20,-12 19,0 20,7 20,140 0,133 -1,140 -20,140 -17,0 -20,-7 -20,-47 z m -22,-62 c 8,-4 16,-27 19,-49 9,-67 -38,-117 -75,-80 -16,16 -16,110 0,126 14,14 37,15 56,3 z"
         id="path6498" />
      <path
         d="m 2995,6656 c -57,-97 -57,-215 0,-312 19,-33 32,-44 50,-44 h 24 l -32,52 c -30,48 -32,56 -32,148 0,92 2,100 32,148 l 32,52 h -24 c -18,0 -31,-11 -50,-44 z"
         id="path6500" />
      <path
         d="m 3329,6671 c 68,-95 68,-247 0,-342 l -21,-31 28,4 c 23,2 34,13 59,62 25,51 30,70 30,136 0,66 -5,85 -30,136 -25,49 -36,60 -59,62 l -28,4 z"
         id="path6502" />
      <path
         d="m 5015,6656 c -57,-97 -57,-215 0,-312 19,-33 32,-44 50,-44 h 24 l -32,52 c -30,48 -32,56 -32,148 0,92 2,100 32,148 l 32,52 h -24 c -18,0 -31,-11 -50,-44 z"
         id="path6504" />
      <path
         d="m 5349,6671 c 33,-45 51,-107 51,-171 0,-64 -18,-126 -51,-171 l -21,-31 28,4 c 23,2 34,13 59,62 25,51 30,70 30,136 0,66 -5,85 -30,136 -25,49 -36,60 -59,62 l -28,4 z"
         id="path6506" />
      <path
         d="m 6495,6656 c -38,-65 -52,-143 -37,-212 16,-78 56,-144 87,-144 h 24 l -32,52 c -30,48 -32,56 -32,148 0,92 2,100 32,148 l 32,52 h -24 c -18,0 -31,-11 -50,-44 z"
         id="path6508" />
      <path
         d="m 6829,6671 c 33,-45 51,-107 51,-171 0,-64 -18,-126 -51,-171 l -21,-31 28,4 c 23,2 34,13 59,62 25,51 30,70 30,136 0,66 -5,85 -30,136 -25,49 -36,60 -59,62 l -28,4 z"
         id="path6510" />
      <path
         d="m 5845,6655 c -32,-31 -32,-55 -1,-55 16,0 26,7 29,21 5,17 12,20 44,17 34,-3 38,-6 41,-34 3,-27 -6,-40 -67,-101 -45,-44 -71,-77 -71,-91 0,-21 4,-22 101,-22 90,0 100,2 97,18 -3,14 -16,18 -78,20 l -74,3 72,67 c 63,59 72,72 72,103 0,51 -33,79 -94,79 -36,0 -52,-5 -71,-25 z"
         id="path6512" />
      <path
         d="m 336,6627 c -37,-62 -50,-135 -36,-199 14,-69 55,-138 81,-138 18,0 18,2 -6,38 -56,85 -56,219 0,304 24,36 24,38 6,38 -13,0 -29,-15 -45,-43 z"
         id="path6514" />
      <path
         d="m 1430,6665 c 0,-4 8,-19 18,-33 57,-82 57,-223 -1,-305 -10,-16 -17,-31 -14,-34 13,-12 37,8 64,54 25,43 28,58 28,134 0,78 -3,90 -30,135 -17,27 -38,50 -48,52 -9,2 -17,0 -17,-3 z"
         id="path6516" />
      <path
         d="m 3190,6645 c -5,-14 -16,-25 -25,-25 -17,0 -21,-26 -5,-32 7,-2 6,-31 -2,-84 -14,-99 -10,-114 37,-114 28,0 35,4 35,20 0,12 -5,17 -14,14 -23,-9 -28,13 -16,74 17,86 20,92 41,92 10,0 19,7 19,15 0,8 -7,15 -15,15 -9,0 -15,9 -15,25 0,16 -6,25 -15,25 -9,0 -20,-11 -25,-25 z"
         id="path6518" />
      <path
         d="m 5210,6645 c -5,-14 -16,-25 -25,-25 -17,0 -21,-26 -5,-32 7,-2 6,-31 -2,-84 -14,-99 -10,-114 37,-114 28,0 35,4 35,20 0,12 -5,17 -14,14 -23,-9 -28,13 -16,74 17,86 20,92 41,92 10,0 19,7 19,15 0,8 -7,15 -15,15 -9,0 -15,9 -15,25 0,16 -6,25 -15,25 -9,0 -20,-11 -25,-25 z"
         id="path6520" />
      <path
         d="m 6690,6645 c -5,-14 -16,-25 -25,-25 -17,0 -21,-26 -5,-32 7,-2 6,-31 -2,-84 -14,-99 -10,-114 37,-114 28,0 35,4 35,20 0,12 -5,17 -14,14 -23,-9 -28,13 -16,74 17,86 20,92 41,92 10,0 19,7 19,15 0,8 -7,15 -15,15 -9,0 -15,9 -15,25 0,16 -6,25 -15,25 -9,0 -20,-11 -25,-25 z"
         id="path6522" />
      <path
         d="m 436,6635 c -24,-24 -30,-77 -12,-118 13,-33 19,-37 50,-37 44,0 66,29 66,87 0,69 -62,109 -104,68 z m 62,-17 c 16,-16 15,-80 -2,-103 -31,-43 -69,28 -47,88 11,29 29,35 49,15 z"
         id="path6524" />
      <path
         d="m 568,6516 c -49,-73 -88,-136 -88,-140 0,-3 6,-6 13,-6 10,0 187,258 187,274 0,3 -6,6 -12,6 -7,0 -52,-60 -100,-134 z"
         id="path6526" />
      <path
         d="m 1063,6629 c -20,-13 -33,-29 -33,-42 0,-18 2,-19 18,-5 41,36 42,34 42,-76 v -106 h -35 c -24,0 -35,-5 -35,-15 0,-12 17,-15 90,-15 73,0 90,3 90,15 0,10 -11,15 -35,15 h -35 v 125 c 0,140 -3,145 -67,104 z"
         id="path6528" />
      <path
         d="m 1263,6629 c -20,-13 -33,-29 -33,-42 0,-18 2,-19 18,-5 41,36 42,34 42,-76 v -106 h -35 c -24,0 -35,-5 -35,-15 0,-12 17,-15 90,-15 73,0 90,3 90,15 0,10 -11,15 -35,15 h -35 v 125 c 0,140 -3,145 -67,104 z"
         id="path6530" />
      <path
         d="m 5610,6595 v -45 h -45 c -33,0 -45,-4 -45,-15 0,-11 12,-15 45,-15 h 45 v -45 c 0,-38 3,-45 20,-45 17,0 20,7 20,45 v 45 h 40 c 29,0 40,4 40,15 0,11 -11,15 -40,15 h -40 v 45 c 0,38 -3,45 -20,45 -17,0 -20,-7 -20,-45 z"
         id="path6532" />
      <path
         d="m 2660,6616 c 0,-2 18,-52 41,-111 45,-122 45,-151 -1,-168 -39,-15 -39,-37 -1,-37 30,0 53,16 71,50 9,17 100,259 100,267 0,2 -10,3 -23,3 -20,0 -27,-11 -51,-87 l -29,-88 -30,88 c -27,76 -33,87 -54,87 -13,0 -23,-2 -23,-4 z"
         id="path6534" />
      <path
         d="m 4690,6615 c 0,-3 15,-29 34,-57 l 35,-51 -40,-58 -40,-59 h 26 c 18,0 32,11 51,42 l 26,41 19,-24 c 10,-13 21,-32 25,-41 3,-12 16,-18 35,-18 h 30 l -41,60 -41,60 29,43 c 46,67 46,67 19,67 -19,0 -31,-11 -49,-42 l -25,-41 -23,41 c -17,31 -30,42 -47,42 -13,0 -23,-2 -23,-5 z"
         id="path6536" />
      <path
         d="m 6160,6616 c 0,-2 18,-52 41,-111 45,-122 45,-151 -1,-168 -39,-15 -39,-37 -1,-37 30,0 53,16 71,50 9,17 100,259 100,267 0,2 -10,3 -23,3 -20,0 -27,-11 -51,-87 l -29,-88 -30,88 c -27,76 -33,87 -54,87 -13,0 -23,-2 -23,-4 z"
         id="path6538" />
      <path
         d="m 3500,6585 c 0,-12 18,-15 105,-15 87,0 105,3 105,15 0,12 -18,15 -105,15 -87,0 -105,-3 -105,-15 z"
         id="path6540" />
      <path
         d="m 805,6565 c -21,-20 -25,-34 -25,-83 0,-49 4,-64 25,-86 33,-35 92,-36 132,-2 25,22 28,31 28,86 0,55 -3,64 -28,86 -39,33 -99,33 -132,-1 z m 104,-14 c 7,-5 16,-29 18,-55 7,-59 -15,-96 -56,-96 -39,0 -53,21 -53,80 0,28 5,57 12,65 14,16 57,20 79,6 z"
         id="path6542" />
      <path
         d="m 640,6530 c -15,-15 -20,-33 -20,-70 0,-57 24,-90 63,-90 38,0 61,34 61,90 0,80 -56,118 -104,70 z m 58,-9 c 21,-13 19,-98 -2,-119 -16,-16 -18,-16 -32,2 -16,23 -19,79 -4,107 12,21 18,23 38,10 z"
         id="path6544" />
      <path
         d="m 1730,6485 c 0,-13 53,-15 415,-15 362,0 415,2 415,15 0,13 -53,15 -415,15 -362,0 -415,-2 -415,-15 z"
         id="path6546" />
      <path
         d="m 3750,6485 c 0,-13 53,-15 415,-15 362,0 415,2 415,15 0,13 -53,15 -415,15 -362,0 -415,-2 -415,-15 z"
         id="path6548" />
      <path
         d="m 3500,6475 c 0,-12 18,-15 105,-15 87,0 105,3 105,15 0,12 -18,15 -105,15 -87,0 -105,-3 -105,-15 z"
         id="path6550" />
      <path
         d="m 2070,6293 c 0,-37 -3,-44 -12,-35 -7,7 -29,12 -50,12 -51,0 -73,-33 -73,-111 1,-72 21,-99 75,-99 20,0 41,5 48,12 9,9 12,9 12,0 0,-7 9,-12 20,-12 19,0 20,7 20,140 0,133 -1,140 -20,140 -17,0 -20,-7 -20,-47 z m -22,-62 c 8,-4 16,-27 19,-49 9,-67 -38,-117 -75,-80 -16,16 -16,110 0,126 14,14 37,15 56,3 z"
         id="path6552" />
      <path
         d="m 4090,6293 c 0,-37 -3,-44 -12,-35 -7,7 -29,12 -50,12 -51,0 -73,-33 -73,-111 1,-72 21,-99 75,-99 20,0 41,5 48,12 9,9 12,9 12,0 0,-7 9,-12 20,-12 19,0 20,7 20,140 0,133 -1,140 -20,140 -17,0 -20,-7 -20,-47 z m -22,-62 c 8,-4 16,-27 19,-49 9,-67 -38,-117 -75,-80 -16,16 -16,110 0,126 14,14 37,15 56,3 z"
         id="path6554" />
      <path
         d="m 2316,6295 c -4,-14 -13,-25 -21,-25 -16,0 -21,-26 -6,-32 5,-2 3,-35 -5,-77 -16,-84 -10,-101 37,-101 19,0 29,5 29,15 0,8 -7,15 -15,15 -18,0 -19,29 -4,100 8,39 15,50 30,50 10,0 19,7 19,15 0,8 -7,15 -15,15 -9,0 -15,9 -15,25 0,15 -6,25 -14,25 -8,0 -17,-11 -20,-25 z"
         id="path6556" />
      <path
         d="m 4336,6295 c -4,-14 -13,-25 -21,-25 -16,0 -21,-26 -6,-32 5,-2 3,-35 -5,-77 -16,-84 -10,-101 37,-101 19,0 29,5 29,15 0,8 -7,15 -15,15 -18,0 -19,29 -4,100 8,39 15,50 30,50 10,0 19,7 19,15 0,8 -7,15 -15,15 -9,0 -15,9 -15,25 0,15 -6,25 -14,25 -8,0 -17,-11 -20,-25 z"
         id="path6558" />
      <path
         d="m 2570,5475 v -155 h 25 25 v 155 155 h -25 -25 z"
         id="path6560" />
      <path
         d="m 3165,5586 c -57,-97 -57,-215 0,-312 19,-33 32,-44 50,-44 h 24 l -32,52 c -30,48 -32,56 -32,148 0,92 2,100 32,148 l 32,52 h -24 c -18,0 -31,-11 -50,-44 z"
         id="path6562" />
      <path
         d="m 3515,5586 c -57,-97 -57,-215 0,-312 19,-33 32,-44 50,-44 h 24 l -32,52 c -30,48 -32,56 -32,148 0,92 2,100 32,148 l 32,52 h -24 c -18,0 -31,-11 -50,-44 z"
         id="path6564" />
      <path
         d="m 3729,5601 c 68,-95 68,-247 0,-342 l -21,-31 28,4 c 23,2 34,13 59,62 25,51 30,70 30,136 0,66 -5,85 -30,136 -25,49 -36,60 -59,62 l -28,4 z"
         id="path6566" />
      <path
         d="m 5169,5601 c 33,-45 51,-107 51,-171 0,-64 -18,-126 -51,-171 l -21,-31 28,4 c 23,2 34,13 59,62 25,51 30,70 30,136 0,66 -5,85 -30,136 -25,49 -36,60 -59,62 l -28,4 z"
         id="path6568" />
      <path
         d="m 4497,5580 c -47,-55 -47,-175 0,-231 33,-38 98,-41 131,-6 43,46 54,136 26,207 -19,48 -38,60 -92,60 -32,0 -45,-6 -65,-30 z m 111,-28 c 7,-9 12,-45 12,-87 0,-72 -11,-102 -40,-105 -34,-5 -47,1 -58,25 -14,31 -16,124 -3,159 15,37 61,41 89,8 z"
         id="path6570" />
      <path
         d="m 4967,5580 c -47,-55 -47,-175 0,-231 33,-38 98,-41 131,-6 43,46 54,136 26,207 -19,48 -38,60 -92,60 -32,0 -45,-6 -65,-30 z m 111,-28 c 7,-9 12,-45 12,-87 0,-72 -11,-102 -40,-105 -34,-5 -47,1 -58,25 -14,31 -16,124 -3,159 15,37 61,41 89,8 z"
         id="path6572" />
      <path
         d="m 2024,5575 c -3,-14 -12,-25 -20,-25 -8,0 -14,-7 -14,-15 0,-8 7,-15 15,-15 12,0 15,-16 15,-88 0,-99 7,-112 58,-112 26,0 33,4 30,17 -2,10 -12,18 -23,18 -18,0 -20,8 -23,83 -3,77 -2,82 18,82 11,0 20,7 20,15 0,8 -9,15 -20,15 -15,0 -20,7 -20,25 0,15 -6,25 -15,25 -8,0 -17,-11 -21,-25 z"
         id="path6574" />
      <path
         d="m 3626,5575 c -4,-14 -13,-25 -21,-25 -8,0 -15,-7 -15,-15 0,-8 7,-15 15,-15 12,0 15,-16 15,-88 0,-98 7,-112 57,-112 38,0 47,27 11,32 -21,3 -23,9 -26,86 -3,77 -2,82 18,82 11,0 20,7 20,15 0,8 -9,15 -20,15 -15,0 -20,7 -20,25 0,15 -6,25 -14,25 -8,0 -17,-11 -20,-25 z"
         id="path6576" />
      <path
         d="m 4126,5575 c -4,-14 -13,-25 -21,-25 -8,0 -15,-7 -15,-15 0,-8 7,-15 15,-15 12,0 15,-16 15,-88 0,-98 7,-112 57,-112 38,0 47,27 11,32 -21,3 -23,9 -26,86 -3,77 -2,82 18,82 11,0 20,7 20,15 0,8 -9,15 -20,15 -15,0 -20,7 -20,25 0,15 -6,25 -14,25 -8,0 -17,-11 -20,-25 z"
         id="path6578" />
      <path
         d="m 341,5535 c -25,-37 -51,-121 -51,-165 0,-77 57,-200 93,-200 22,0 21,6 -1,38 -30,43 -42,90 -42,162 0,72 12,119 42,162 22,32 23,38 1,38 -10,0 -29,-16 -42,-35 z"
         id="path6580" />
      <path
         d="m 802,5553 c 2,-10 13,-19 26,-21 17,-3 22,2 22,17 0,16 -6,21 -26,21 -19,0 -25,-5 -22,-17 z"
         id="path6582" />
      <path
         d="m 1355,5534 c 32,-47 45,-95 45,-164 0,-69 -13,-117 -45,-164 -23,-34 -23,-36 -5,-36 23,0 63,52 80,103 27,85 11,201 -37,265 -13,17 -33,32 -43,32 -18,0 -18,-2 5,-36 z"
         id="path6584" />
      <path
         d="m 447,5535 c -32,-32 -32,-118 0,-150 21,-21 67,-19 88,5 26,28 26,112 0,140 -21,24 -67,26 -88,5 z m 71,-54 c 6,-55 -5,-83 -31,-79 -18,2 -23,10 -25,47 -4,57 3,73 30,69 18,-2 24,-11 26,-37 z"
         id="path6586" />
      <path
         d="m 652,5523 c -61,-88 -163,-255 -158,-260 14,-14 37,14 119,140 48,75 87,138 87,142 0,16 -31,1 -48,-22 z"
         id="path6588" />
      <path
         d="m 943,5529 c -20,-12 -33,-29 -33,-41 0,-19 1,-19 25,-4 13,9 27,16 30,16 3,0 5,-47 5,-105 v -105 h -35 c -24,0 -35,-5 -35,-15 0,-12 17,-15 90,-15 72,0 90,3 90,14 0,9 -12,16 -32,18 l -33,3 -3,128 c -3,142 -6,147 -69,106 z"
         id="path6590" />
      <path
         d="m 1146,5524 c -14,-15 -26,-33 -26,-40 0,-22 31,-16 56,11 28,30 47,32 74,5 28,-28 13,-61 -65,-134 -43,-40 -65,-69 -65,-84 0,-21 3,-22 95,-22 78,0 95,3 95,15 0,12 -14,15 -70,15 -38,0 -70,4 -70,9 0,6 25,31 56,58 87,75 104,124 59,168 -35,36 -102,35 -139,-1 z"
         id="path6592" />
      <path
         d="m 1800,5523 -21,-27 22,-8 c 17,-6 25,-4 36,12 17,24 46,26 67,4 30,-30 20,-44 -33,-44 -65,0 -95,-24 -95,-75 0,-25 6,-42 19,-51 26,-19 89,-18 106,2 12,14 14,14 25,-1 8,-10 23,-15 40,-13 33,4 43,23 14,31 -18,5 -20,13 -20,81 0,96 -15,116 -89,116 -42,0 -53,-4 -71,-27 z m 120,-108 c 0,-19 -44,-65 -63,-65 -18,0 -37,20 -37,40 0,26 22,40 62,40 28,0 38,-4 38,-15 z"
         id="path6594" />
      <path
         d="m 2111,5543 c 0,-5 17,-55 37,-113 33,-95 40,-105 63,-108 24,-3 29,2 43,40 8,24 27,74 41,112 14,37 25,70 25,72 0,2 -10,4 -23,4 -20,0 -27,-12 -53,-92 l -30,-93 -29,93 c -25,82 -31,92 -52,92 -12,0 -23,-3 -22,-7 z"
         id="path6596" />
      <path
         d="m 2360,5523 -21,-27 22,-8 c 17,-6 25,-4 36,12 17,24 46,26 67,4 30,-30 20,-44 -33,-44 -65,0 -95,-24 -95,-75 0,-25 6,-42 19,-51 26,-19 89,-18 106,2 12,14 14,14 25,-1 8,-10 23,-15 40,-13 33,4 43,23 14,31 -18,5 -20,13 -20,81 0,96 -15,116 -89,116 -42,0 -53,-4 -71,-27 z m 120,-108 c 0,-19 -44,-65 -63,-65 -18,0 -37,20 -37,40 0,26 22,40 62,40 28,0 38,-4 38,-15 z"
         id="path6598" />
      <path
         d="m 2662,5449 c 2,-86 6,-103 22,-115 24,-17 88,-18 104,-2 9,9 12,9 12,0 0,-7 11,-12 25,-12 h 25 v 115 115 h -25 c -25,0 -25,-1 -25,-85 0,-80 -1,-85 -26,-102 -46,-30 -59,-10 -62,96 -3,90 -3,91 -28,91 h -26 z"
         id="path6600" />
      <path
         d="m 2916,5527 c -45,-45 -41,-158 7,-192 34,-24 109,-20 135,8 12,13 22,26 22,29 0,15 -36,12 -52,-4 -10,-10 -27,-18 -38,-18 -26,0 -60,34 -60,60 0,18 7,20 80,20 89,0 92,3 66,65 -17,41 -42,55 -96,55 -29,0 -47,-6 -64,-23 z m 106,-24 c 33,-30 23,-43 -37,-43 -59,0 -67,8 -35,40 24,24 47,25 72,3 z"
         id="path6602" />
      <path
         d="m 3250,5545 c 0,-3 15,-29 34,-57 l 35,-51 -40,-58 c -39,-58 -39,-59 -16,-59 17,0 32,12 52,42 l 27,41 19,-24 c 10,-13 21,-32 25,-41 3,-12 16,-18 35,-18 h 30 l -41,60 -41,60 29,43 c 46,67 46,67 19,67 -19,0 -31,-11 -49,-42 l -25,-41 -23,41 c -17,31 -30,42 -47,42 -13,0 -23,-2 -23,-5 z"
         id="path6604" />
      <path
         d="m 5330,5525 c 0,-18 5,-25 20,-25 15,0 20,7 20,25 0,18 -5,25 -20,25 -15,0 -20,-7 -20,-25 z"
         id="path6606" />
      <path
         d="m 4230,5515 c 0,-12 18,-15 105,-15 87,0 105,3 105,15 0,12 -18,15 -105,15 -87,0 -105,-3 -105,-15 z"
         id="path6608" />
      <path
         d="m 800,5375 v -115 h 25 25 v 115 115 h -25 -25 z"
         id="path6610" />
      <path
         d="m 654,5429 c -26,-28 -26,-120 0,-148 24,-27 68,-27 92,0 14,15 19,36 19,74 0,38 -5,59 -19,74 -24,27 -68,27 -92,0 z m 71,-74 c 0,-57 -1,-60 -25,-60 -23,0 -25,4 -28,49 -4,62 2,78 30,74 21,-3 23,-8 23,-63 z"
         id="path6612" />
      <path
         d="m 4230,5405 c 0,-12 18,-15 105,-15 87,0 105,3 105,15 0,12 -18,15 -105,15 -87,0 -105,-3 -105,-15 z"
         id="path6614" />
      <path
         d="m 3887,5363 c -11,-10 -8,-43 4,-43 7,0 8,-11 4,-30 -5,-23 -3,-30 8,-30 19,0 27,21 27,71 0,31 -4,39 -18,39 -10,0 -22,-3 -25,-7 z"
         id="path6616" />
      <path
         d="m 4717,5363 c -11,-10 -8,-43 4,-43 7,0 8,-11 4,-30 -5,-23 -3,-30 8,-30 19,0 27,21 27,71 0,31 -4,39 -18,39 -10,0 -22,-3 -25,-7 z"
         id="path6618" />
      <path
         d="m 5333,5315 c 3,-85 37,-70 37,16 0,32 -3,39 -19,39 -18,0 -20,-7 -18,-55 z"
         id="path6620" />
      <path
         d="m 1812,4930 c -54,-51 -55,-189 0,-247 25,-26 91,-32 120,-9 60,45 63,220 5,261 -31,22 -99,19 -125,-5 z m 106,-38 c 15,-19 16,-145 2,-173 -15,-27 -64,-25 -84,3 -19,27 -21,125 -5,162 17,37 60,41 87,8 z"
         id="path6622" />
      <path
         d="m 336,4893 c -36,-55 -50,-130 -36,-195 14,-66 53,-128 81,-128 19,0 19,1 -4,33 -64,85 -64,209 0,295 23,31 23,32 4,32 -13,0 -30,-15 -45,-37 z"
         id="path6624" />
      <path
         d="m 1420,4924 c 0,-3 8,-18 18,-32 28,-39 42,-89 42,-142 0,-53 -14,-103 -42,-142 -22,-32 -22,-38 -3,-38 22,0 63,68 76,127 15,65 1,141 -37,196 -21,32 -54,50 -54,31 z"
         id="path6626" />
      <path
         d="m 437,4905 c -37,-36 -27,-137 14,-150 37,-12 67,3 79,40 21,63 -7,125 -55,125 -13,0 -30,-7 -38,-15 z m 64,-32 c 16,-40 0,-98 -26,-98 -15,0 -22,10 -29,37 -17,69 31,122 55,61 z"
         id="path6628" />
      <path
         d="m 560,4785 c -68,-101 -86,-135 -73,-135 12,1 48,47 105,135 54,83 82,135 73,135 -8,0 -55,-61 -105,-135 z"
         id="path6630" />
      <path
         d="m 1038,4899 c -16,-11 -28,-28 -28,-36 0,-14 3,-13 25,1 13,9 27,16 30,16 3,0 5,-45 5,-100 v -100 h -35 c -24,0 -35,-5 -35,-15 0,-12 16,-15 85,-15 69,0 85,3 85,15 0,10 -11,15 -35,15 h -35 v 120 c 0,108 -2,120 -17,120 -10,0 -30,-10 -45,-21 z"
         id="path6632" />
      <path
         d="m 1235,4895 c -14,-13 -25,-29 -25,-35 0,-18 35,-11 48,10 14,22 61,27 80,8 24,-24 11,-52 -58,-119 -41,-40 -70,-77 -70,-89 0,-19 7,-20 90,-20 73,0 90,3 90,15 0,12 -15,15 -72,15 h -73 l 63,61 c 70,67 86,97 72,133 -19,51 -103,64 -145,21 z"
         id="path6634" />
      <path
         d="m 795,4835 c -21,-20 -25,-34 -25,-80 0,-72 28,-105 90,-105 62,0 90,33 90,105 0,46 -4,60 -25,80 -34,35 -96,35 -130,0 z m 105,-20 c 15,-18 15,-102 0,-120 -17,-20 -64,-19 -81,2 -8,9 -14,35 -14,58 0,23 6,49 14,58 17,21 64,22 81,2 z"
         id="path6636" />
      <path
         d="m 637,4805 c -23,-22 -30,-70 -17,-109 12,-38 37,-51 75,-42 42,11 58,111 24,153 -15,18 -64,17 -82,-2 z m 63,-24 c 24,-45 1,-121 -33,-108 -35,13 -28,127 7,127 9,0 20,-9 26,-19 z"
         id="path6638" />
      <path
         d="m 2570,4065 v -155 h 25 25 v 155 155 h -25 -25 z"
         id="path6640" />
      <path
         d="m 3165,4176 c -57,-97 -57,-215 0,-312 19,-33 32,-44 50,-44 h 24 l -32,52 c -30,48 -32,56 -32,148 0,92 2,100 32,148 l 32,52 h -24 c -18,0 -31,-11 -50,-44 z"
         id="path6642" />
      <path
         d="m 3480,4168 c 0,-40 -3,-49 -12,-40 -21,21 -82,15 -105,-10 -39,-44 -37,-165 3,-195 22,-16 86,-17 102,-1 9,9 12,9 12,0 0,-7 11,-12 25,-12 h 25 v 155 155 h -25 c -23,0 -25,-3 -25,-52 z m -16,-77 c 13,-14 16,-33 14,-72 -3,-47 -7,-55 -31,-69 -27,-14 -29,-14 -48,9 -37,45 -16,151 30,151 10,0 26,-9 35,-19 z"
         id="path6644" />
      <path
         d="m 3570,4200 c 0,-15 7,-20 25,-20 18,0 25,5 25,20 0,15 -7,20 -25,20 -18,0 -25,-5 -25,-20 z"
         id="path6646" />
      <path
         d="m 3680,4201 c -5,-11 -10,-29 -10,-40 0,-12 -7,-21 -15,-21 -8,0 -15,-7 -15,-15 0,-8 7,-15 15,-15 12,0 15,-18 15,-100 v -100 h 25 25 v 100 100 h 30 30 v -100 -100 h 25 25 v 100 c 0,93 1,100 20,100 11,0 20,7 20,15 0,8 -9,15 -20,15 -14,0 -20,7 -20,21 0,12 8,23 20,26 34,9 24,33 -15,33 -36,0 -55,-20 -55,-59 0,-17 -6,-21 -30,-21 -24,0 -30,4 -30,21 0,12 8,23 20,26 34,9 24,33 -15,33 -24,0 -37,-6 -45,-19 z"
         id="path6648" />
      <path
         d="m 3935,4176 c -57,-97 -57,-215 0,-312 19,-33 32,-44 50,-44 h 24 l -32,52 c -30,48 -32,56 -32,148 0,92 2,100 32,148 l 32,52 h -24 c -18,0 -31,-11 -50,-44 z"
         id="path6650" />
      <path
         d="m 4285,4176 c -57,-97 -57,-215 0,-312 19,-33 32,-44 50,-44 h 24 l -32,52 c -30,48 -32,56 -32,148 0,92 2,100 32,148 l 32,52 h -24 c -18,0 -31,-11 -50,-44 z"
         id="path6652" />
      <path
         d="m 4499,4191 c 33,-45 51,-107 51,-171 0,-64 -18,-126 -51,-171 l -21,-31 28,4 c 23,2 34,13 59,62 25,51 30,70 30,136 0,66 -5,85 -30,136 -25,49 -36,60 -59,62 l -28,4 z"
         id="path6654" />
      <path
         d="m 4999,4191 c 33,-45 51,-107 51,-171 0,-64 -18,-126 -51,-171 l -21,-31 28,4 c 23,2 34,13 59,62 25,51 30,70 30,136 0,66 -5,85 -30,136 -25,49 -36,60 -59,62 l -28,4 z"
         id="path6656" />
      <path
         d="m 6559,4191 c 33,-45 51,-107 51,-171 0,-64 -18,-126 -51,-171 l -21,-31 28,4 c 23,2 34,13 59,62 25,51 30,70 30,136 0,66 -5,85 -30,136 -25,49 -36,60 -59,62 l -28,4 z"
         id="path6658" />
      <path
         d="m 3260,4150 c 0,-43 3,-50 20,-50 17,0 20,7 20,50 0,43 -3,50 -20,50 -17,0 -20,-7 -20,-50 z"
         id="path6660" />
      <path
         d="m 5887,4170 c -47,-55 -47,-175 0,-231 33,-38 98,-41 131,-6 43,46 54,136 26,207 -19,48 -38,60 -92,60 -32,0 -45,-6 -65,-30 z m 111,-28 c 7,-9 12,-45 12,-87 0,-72 -11,-102 -40,-105 -34,-5 -47,1 -58,25 -14,31 -16,124 -3,159 15,37 61,41 89,8 z"
         id="path6662" />
      <path
         d="m 6357,4170 c -47,-55 -47,-175 0,-231 33,-38 98,-41 131,-6 43,46 54,136 26,207 -19,48 -38,60 -92,60 -32,0 -45,-6 -65,-30 z m 111,-28 c 7,-9 12,-45 12,-87 0,-72 -11,-102 -40,-105 -34,-5 -47,1 -58,25 -14,31 -16,124 -3,159 15,37 61,41 89,8 z"
         id="path6664" />
      <path
         d="m 2024,4165 c -3,-14 -12,-25 -20,-25 -8,0 -14,-7 -14,-15 0,-8 7,-15 15,-15 12,0 15,-16 15,-88 0,-99 7,-112 58,-112 26,0 33,4 30,17 -2,10 -12,18 -23,18 -18,0 -20,8 -23,83 -3,77 -2,82 18,82 11,0 20,7 20,15 0,8 -9,15 -20,15 -15,0 -20,7 -20,25 0,15 -6,25 -15,25 -8,0 -17,-11 -21,-25 z"
         id="path6666" />
      <path
         d="m 4396,4165 c -4,-14 -13,-25 -21,-25 -8,0 -15,-7 -15,-15 0,-8 7,-15 15,-15 12,0 15,-16 15,-88 0,-98 7,-112 57,-112 38,0 47,27 11,32 -21,3 -23,9 -26,86 -3,77 -2,82 18,82 11,0 20,7 20,15 0,8 -9,15 -20,15 -15,0 -20,7 -20,25 0,15 -6,25 -14,25 -8,0 -17,-11 -20,-25 z"
         id="path6668" />
      <path
         d="m 4896,4165 c -4,-14 -13,-25 -21,-25 -8,0 -15,-7 -15,-15 0,-8 7,-15 15,-15 12,0 15,-16 15,-88 0,-98 7,-112 57,-112 38,0 47,27 11,32 -21,3 -23,9 -26,86 -3,77 -2,82 18,82 11,0 20,7 20,15 0,8 -9,15 -20,15 -15,0 -20,7 -20,25 0,15 -6,25 -14,25 -8,0 -17,-11 -20,-25 z"
         id="path6670" />
      <path
         d="m 5516,4165 c -4,-14 -13,-25 -21,-25 -8,0 -15,-7 -15,-15 0,-8 7,-15 15,-15 12,0 15,-16 15,-88 0,-98 7,-112 57,-112 38,0 47,27 11,32 -21,3 -23,9 -26,86 -3,77 -2,82 18,82 11,0 20,7 20,15 0,8 -9,15 -20,15 -15,0 -20,7 -20,25 0,15 -6,25 -14,25 -8,0 -17,-11 -20,-25 z"
         id="path6672" />
      <path
         d="m 341,4125 c -25,-37 -51,-121 -51,-165 0,-77 57,-200 93,-200 22,0 21,6 -1,38 -30,43 -42,90 -42,162 0,72 12,119 42,162 22,32 23,38 1,38 -10,0 -29,-16 -42,-35 z"
         id="path6674" />
      <path
         d="m 802,4143 c 2,-10 13,-19 26,-21 17,-3 22,2 22,17 0,16 -6,21 -26,21 -19,0 -25,-5 -22,-17 z"
         id="path6676" />
      <path
         d="m 1355,4124 c 32,-47 45,-95 45,-164 0,-69 -13,-117 -45,-164 -23,-34 -23,-36 -5,-36 23,0 63,52 80,103 27,85 11,201 -37,265 -13,17 -33,32 -43,32 -18,0 -18,-2 5,-36 z"
         id="path6678" />
      <path
         d="m 447,4125 c -32,-32 -32,-118 0,-150 21,-21 67,-19 88,5 26,28 26,112 0,140 -21,24 -67,26 -88,5 z m 71,-54 c 6,-55 -5,-83 -31,-79 -18,2 -23,10 -25,47 -4,57 3,73 30,69 18,-2 24,-11 26,-37 z"
         id="path6680" />
      <path
         d="m 652,4113 c -61,-88 -163,-255 -158,-260 14,-14 37,14 119,140 48,75 87,138 87,142 0,16 -31,1 -48,-22 z"
         id="path6682" />
      <path
         d="m 943,4119 c -20,-12 -33,-29 -33,-41 0,-19 1,-19 25,-4 13,9 27,16 30,16 3,0 5,-47 5,-105 v -105 h -35 c -24,0 -35,-5 -35,-15 0,-12 17,-15 90,-15 72,0 90,3 90,14 0,9 -12,16 -32,18 l -33,3 -3,128 c -3,142 -6,147 -69,106 z"
         id="path6684" />
      <path
         d="m 1145,4115 c -29,-28 -31,-40 -10,-49 8,-3 25,5 39,19 28,28 38,30 67,15 42,-23 13,-80 -41,-80 -35,0 -21,-34 15,-38 17,-2 36,-8 43,-14 20,-17 14,-56 -13,-74 -29,-19 -60,-11 -81,21 -18,28 -54,24 -47,-6 15,-57 118,-80 168,-36 36,30 37,82 4,111 l -24,21 23,22 c 29,29 28,58 -3,88 -34,35 -106,35 -140,0 z"
         id="path6686" />
      <path
         d="m 1800,4113 -21,-27 22,-8 c 17,-6 25,-4 36,12 17,24 46,26 67,4 30,-30 20,-44 -33,-44 -65,0 -95,-24 -95,-75 0,-25 6,-42 19,-51 26,-19 89,-18 106,2 12,14 14,14 25,-1 8,-10 23,-15 40,-13 33,4 43,23 14,31 -18,5 -20,13 -20,81 0,96 -15,116 -89,116 -42,0 -53,-4 -71,-27 z m 120,-108 c 0,-19 -44,-65 -63,-65 -18,0 -37,20 -37,40 0,26 22,40 62,40 28,0 38,-4 38,-15 z"
         id="path6688" />
      <path
         d="m 2111,4133 c 0,-5 17,-55 37,-113 33,-95 40,-105 63,-108 24,-3 29,2 43,40 8,24 27,74 41,112 14,37 25,70 25,72 0,2 -10,4 -23,4 -20,0 -27,-12 -53,-92 l -30,-93 -29,93 c -25,82 -31,92 -52,92 -12,0 -23,-3 -22,-7 z"
         id="path6690" />
      <path
         d="m 2360,4113 -21,-27 22,-8 c 17,-6 25,-4 36,12 17,24 46,26 67,4 30,-30 20,-44 -33,-44 -65,0 -95,-24 -95,-75 0,-25 6,-42 19,-51 26,-19 89,-18 106,2 12,14 14,14 25,-1 8,-10 23,-15 40,-13 33,4 43,23 14,31 -18,5 -20,13 -20,81 0,96 -15,116 -89,116 -42,0 -53,-4 -71,-27 z m 120,-108 c 0,-19 -44,-65 -63,-65 -18,0 -37,20 -37,40 0,26 22,40 62,40 28,0 38,-4 38,-15 z"
         id="path6692" />
      <path
         d="m 2662,4039 c 2,-86 6,-103 22,-115 24,-17 88,-18 104,-2 9,9 12,9 12,0 0,-7 11,-12 25,-12 h 25 v 115 115 h -25 c -25,0 -25,-1 -25,-85 0,-80 -1,-85 -26,-102 -46,-30 -59,-10 -62,96 -3,90 -3,91 -28,91 h -26 z"
         id="path6694" />
      <path
         d="m 2916,4117 c -45,-45 -41,-158 7,-192 34,-24 109,-20 135,8 12,13 22,26 22,29 0,15 -36,12 -52,-4 -24,-24 -53,-23 -78,2 -11,11 -20,29 -20,40 0,18 7,20 80,20 89,0 92,3 66,65 -17,41 -42,55 -96,55 -29,0 -47,-6 -64,-23 z m 106,-24 c 33,-30 23,-43 -37,-43 -59,0 -67,8 -35,40 24,24 47,25 72,3 z"
         id="path6696" />
      <path
         d="m 3570,4025 v -115 h 25 25 v 115 115 h -25 -25 z"
         id="path6698" />
      <path
         d="m 4020,4135 c 0,-3 15,-29 34,-57 l 35,-51 -40,-58 c -39,-58 -39,-59 -16,-59 17,0 32,12 52,42 l 27,41 19,-24 c 10,-13 21,-32 25,-41 3,-12 16,-18 35,-18 h 30 l -41,60 -41,60 29,43 c 46,67 46,67 19,67 -19,0 -31,-11 -49,-42 l -25,-41 -23,41 c -17,31 -30,42 -47,42 -13,0 -23,-2 -23,-5 z"
         id="path6700" />
      <path
         d="m 6720,4115 c 0,-18 5,-25 20,-25 15,0 20,7 20,25 0,18 -5,25 -20,25 -15,0 -20,-7 -20,-25 z"
         id="path6702" />
      <path
         d="m 5620,4105 c 0,-12 18,-15 105,-15 87,0 105,3 105,15 0,12 -18,15 -105,15 -87,0 -105,-3 -105,-15 z"
         id="path6704" />
      <path
         d="m 800,3965 v -115 h 25 25 v 115 115 h -25 -25 z"
         id="path6706" />
      <path
         d="m 654,4019 c -26,-28 -26,-120 0,-148 24,-27 68,-27 92,0 14,15 19,36 19,74 0,38 -5,59 -19,74 -24,27 -68,27 -92,0 z m 71,-74 c 0,-57 -1,-60 -25,-60 -23,0 -25,4 -28,49 -4,62 2,78 30,74 21,-3 23,-8 23,-63 z"
         id="path6708" />
      <path
         d="m 5620,3995 c 0,-12 18,-15 105,-15 87,0 105,3 105,15 0,12 -18,15 -105,15 -87,0 -105,-3 -105,-15 z"
         id="path6710" />
      <path
         d="m 4657,3953 c -11,-10 -8,-43 4,-43 7,0 8,-11 4,-30 -5,-23 -3,-30 8,-30 19,0 27,21 27,71 0,31 -4,39 -18,39 -10,0 -22,-3 -25,-7 z"
         id="path6712" />
      <path
         d="m 5277,3953 c -11,-10 -8,-43 4,-43 7,0 8,-11 4,-30 -5,-23 -3,-30 8,-30 19,0 27,21 27,71 0,31 -4,39 -18,39 -10,0 -22,-3 -25,-7 z"
         id="path6714" />
      <path
         d="m 6107,3953 c -11,-10 -8,-43 4,-43 7,0 8,-11 4,-30 -5,-23 -3,-30 8,-30 19,0 27,21 27,71 0,31 -4,39 -18,39 -10,0 -22,-3 -25,-7 z"
         id="path6716" />
      <path
         d="m 6723,3905 c 3,-85 37,-70 37,16 0,32 -3,39 -19,39 -18,0 -20,-7 -18,-55 z"
         id="path6718" />
      <path
         d="m 1812,3520 c -54,-51 -55,-189 0,-247 25,-26 91,-32 120,-9 60,45 63,220 5,261 -31,22 -99,19 -125,-5 z m 106,-38 c 15,-19 16,-145 2,-173 -15,-27 -64,-25 -84,3 -19,27 -21,125 -5,162 17,37 60,41 87,8 z"
         id="path6720" />
      <path
         d="m 336,3483 c -36,-55 -50,-130 -36,-195 14,-66 53,-128 81,-128 19,0 19,1 -4,33 -64,85 -64,209 0,295 23,31 23,32 4,32 -13,0 -30,-15 -45,-37 z"
         id="path6722" />
      <path
         d="m 1420,3514 c 0,-3 8,-18 18,-32 28,-39 42,-89 42,-142 0,-53 -14,-103 -42,-142 -22,-32 -22,-38 -3,-38 22,0 63,68 76,127 15,65 1,141 -37,196 -21,32 -54,50 -54,31 z"
         id="path6724" />
      <path
         d="m 437,3495 c -37,-36 -27,-137 14,-150 37,-12 67,3 79,40 21,63 -7,125 -55,125 -13,0 -30,-7 -38,-15 z m 64,-32 c 16,-40 0,-98 -26,-98 -15,0 -22,10 -29,37 -17,69 31,122 55,61 z"
         id="path6726" />
      <path
         d="m 560,3375 c -68,-101 -86,-135 -73,-135 12,1 48,47 105,135 54,83 82,135 73,135 -8,0 -55,-61 -105,-135 z"
         id="path6728" />
      <path
         d="m 1038,3489 c -16,-11 -28,-28 -28,-36 0,-14 3,-13 25,1 13,9 27,16 30,16 3,0 5,-45 5,-100 v -100 h -35 c -24,0 -35,-5 -35,-15 0,-12 16,-15 85,-15 69,0 85,3 85,15 0,10 -11,15 -35,15 h -35 v 120 c 0,108 -2,120 -17,120 -10,0 -30,-10 -45,-21 z"
         id="path6730" />
      <path
         d="m 1236,3489 c -27,-22 -35,-49 -13,-49 7,0 20,9 30,20 28,33 97,22 97,-16 0,-21 -30,-44 -56,-44 -15,0 -24,-6 -24,-15 0,-8 9,-15 21,-15 36,0 59,-19 59,-48 0,-16 -5,-33 -12,-40 -21,-21 -65,-14 -86,13 -24,30 -42,32 -42,6 0,-29 47,-61 90,-61 52,0 90,32 90,75 0,24 -7,39 -23,52 -24,17 -24,18 -4,33 27,22 25,69 -3,92 -30,25 -91,23 -124,-3 z"
         id="path6732" />
      <path
         d="m 795,3425 c -21,-20 -25,-34 -25,-80 0,-72 28,-105 90,-105 62,0 90,33 90,105 0,46 -4,60 -25,80 -34,35 -96,35 -130,0 z m 105,-20 c 15,-18 15,-102 0,-120 -17,-20 -64,-19 -81,2 -8,9 -14,35 -14,58 0,23 6,49 14,58 17,21 64,22 81,2 z"
         id="path6734" />
      <path
         d="m 637,3395 c -23,-22 -30,-70 -17,-109 12,-38 37,-51 75,-42 42,11 58,111 24,153 -15,18 -64,17 -82,-2 z m 63,-24 c 24,-45 1,-121 -33,-108 -35,13 -28,127 7,127 9,0 20,-9 26,-19 z"
         id="path6736" />
      <path
         d="m 2570,2655 v -155 h 25 25 v 155 155 h -25 -25 z"
         id="path6738" />
      <path
         d="m 3165,2766 c -57,-97 -57,-215 0,-312 19,-33 32,-44 50,-44 h 24 l -32,52 c -30,48 -32,56 -32,148 0,92 2,100 32,148 l 32,52 h -24 c -18,0 -31,-11 -50,-44 z"
         id="path6740" />
      <path
         d="m 3515,2766 c -57,-97 -57,-215 0,-312 19,-33 32,-44 50,-44 h 24 l -32,52 c -30,48 -32,56 -32,148 0,92 2,100 32,148 l 32,52 h -24 c -18,0 -31,-11 -50,-44 z"
         id="path6742" />
      <path
         d="m 3729,2781 c 33,-45 51,-107 51,-171 0,-64 -18,-126 -51,-171 l -21,-31 28,4 c 23,2 34,13 59,62 25,51 30,70 30,136 0,66 -5,85 -30,136 -25,49 -36,60 -59,62 l -28,4 z"
         id="path6744" />
      <path
         d="m 5169,2781 c 33,-45 51,-107 51,-171 0,-64 -18,-126 -51,-171 l -21,-31 28,4 c 23,2 34,13 59,62 25,51 30,70 30,136 0,66 -5,85 -30,136 -25,49 -36,60 -59,62 l -28,4 z"
         id="path6746" />
      <path
         d="m 4497,2760 c -47,-55 -47,-175 0,-231 33,-38 98,-41 131,-6 43,46 54,136 26,207 -19,48 -38,60 -92,60 -32,0 -45,-6 -65,-30 z m 111,-28 c 7,-9 12,-45 12,-87 0,-72 -11,-102 -40,-105 -34,-5 -47,1 -58,25 -14,31 -16,124 -3,159 15,37 61,41 89,8 z"
         id="path6748" />
      <path
         d="m 4988,2767 c -16,-13 -28,-30 -28,-40 0,-21 13,-22 30,-2 24,29 30,14 30,-85 v -100 h -35 c -28,0 -35,-4 -35,-20 0,-19 7,-20 96,-20 86,0 95,2 92,18 -2,11 -14,18 -36,20 l -32,3 v 125 124 h -27 c -16,-1 -40,-11 -55,-23 z"
         id="path6750" />
      <path
         d="m 2024,2755 c -3,-14 -12,-25 -20,-25 -8,0 -14,-7 -14,-15 0,-8 7,-15 15,-15 12,0 15,-16 15,-88 0,-99 7,-112 58,-112 26,0 33,4 30,17 -2,10 -12,18 -23,18 -18,0 -20,8 -23,83 -3,77 -2,82 18,82 11,0 20,7 20,15 0,8 -9,15 -20,15 -15,0 -20,7 -20,25 0,15 -6,25 -15,25 -8,0 -17,-11 -21,-25 z"
         id="path6752" />
      <path
         d="m 3626,2755 c -4,-14 -13,-25 -21,-25 -8,0 -15,-7 -15,-15 0,-8 7,-15 15,-15 12,0 15,-16 15,-88 0,-98 7,-112 57,-112 38,0 47,27 11,32 -21,3 -23,9 -26,86 -3,77 -2,82 18,82 11,0 20,7 20,15 0,8 -9,15 -20,15 -15,0 -20,7 -20,25 0,15 -6,25 -14,25 -8,0 -17,-11 -20,-25 z"
         id="path6754" />
      <path
         d="m 4126,2755 c -4,-14 -13,-25 -21,-25 -8,0 -15,-7 -15,-15 0,-8 7,-15 15,-15 12,0 15,-16 15,-88 0,-98 7,-112 57,-112 38,0 47,27 11,32 -21,3 -23,9 -26,86 -3,77 -2,82 18,82 11,0 20,7 20,15 0,8 -9,15 -20,15 -15,0 -20,7 -20,25 0,15 -6,25 -14,25 -8,0 -17,-11 -20,-25 z"
         id="path6756" />
      <path
         d="m 341,2715 c -25,-37 -51,-121 -51,-165 0,-77 57,-200 93,-200 22,0 21,6 -1,38 -30,43 -42,90 -42,162 0,72 12,119 42,162 22,32 23,38 1,38 -10,0 -29,-16 -42,-35 z"
         id="path6758" />
      <path
         d="m 802,2733 c 2,-10 13,-19 26,-21 17,-3 22,2 22,17 0,16 -6,21 -26,21 -19,0 -25,-5 -22,-17 z"
         id="path6760" />
      <path
         d="m 1355,2714 c 32,-47 45,-95 45,-164 0,-69 -13,-117 -45,-164 -23,-34 -23,-36 -5,-36 23,0 63,52 80,103 27,85 11,201 -37,265 -13,17 -33,32 -43,32 -18,0 -18,-2 5,-36 z"
         id="path6762" />
      <path
         d="m 447,2715 c -32,-32 -32,-118 0,-150 21,-21 67,-19 88,5 26,28 26,112 0,140 -21,24 -67,26 -88,5 z m 71,-54 c 6,-55 -5,-83 -31,-79 -18,2 -23,10 -25,47 -4,57 3,73 30,69 18,-2 24,-11 26,-37 z"
         id="path6764" />
      <path
         d="m 652,2703 c -61,-88 -163,-255 -158,-260 14,-14 37,14 119,140 48,75 87,138 87,142 0,16 -31,1 -48,-22 z"
         id="path6766" />
      <path
         d="m 943,2709 c -20,-12 -33,-29 -33,-41 0,-19 1,-19 25,-4 13,9 27,16 30,16 3,0 5,-47 5,-105 v -105 h -35 c -24,0 -35,-5 -35,-15 0,-12 17,-15 90,-15 72,0 90,3 90,14 0,9 -12,16 -32,18 l -33,3 -3,128 c -3,142 -6,147 -69,106 z"
         id="path6768" />
      <path
         d="m 1173,2637 c -35,-51 -63,-100 -63,-110 0,-14 10,-17 65,-17 h 65 v -35 c 0,-28 4,-35 20,-35 16,0 20,7 20,35 0,28 4,35 20,35 11,0 20,7 20,15 0,8 -9,15 -20,15 -19,0 -20,7 -20,95 0,92 -1,95 -22,95 -18,-1 -38,-23 -85,-93 z m 64,-94 c -3,-2 -23,-3 -46,-1 l -40,3 42,61 42,61 3,-60 c 2,-32 1,-61 -1,-64 z"
         id="path6770" />
      <path
         d="m 1800,2703 -21,-27 22,-8 c 17,-6 25,-4 36,12 17,24 46,26 67,4 30,-30 20,-44 -33,-44 -65,0 -95,-24 -95,-75 0,-25 6,-42 19,-51 26,-19 89,-18 106,2 12,14 14,14 25,-1 8,-10 23,-15 40,-13 33,4 43,23 14,31 -18,5 -20,13 -20,81 0,96 -15,116 -89,116 -42,0 -53,-4 -71,-27 z m 120,-108 c 0,-19 -44,-65 -63,-65 -18,0 -37,20 -37,40 0,26 22,40 62,40 28,0 38,-4 38,-15 z"
         id="path6772" />
      <path
         d="m 2111,2723 c 0,-5 17,-55 37,-113 33,-95 40,-105 63,-108 24,-3 29,2 43,40 8,24 27,74 41,112 14,37 25,70 25,72 0,2 -10,4 -23,4 -20,0 -27,-12 -53,-92 l -30,-93 -29,93 c -25,82 -31,92 -52,92 -12,0 -23,-3 -22,-7 z"
         id="path6774" />
      <path
         d="m 2360,2703 -21,-27 22,-8 c 17,-6 25,-4 36,12 17,24 46,26 67,4 30,-30 20,-44 -33,-44 -65,0 -95,-24 -95,-75 0,-25 6,-42 19,-51 26,-19 89,-18 106,2 12,14 14,14 25,-1 8,-10 23,-15 40,-13 33,4 43,23 14,31 -18,5 -20,13 -20,81 0,96 -15,116 -89,116 -42,0 -53,-4 -71,-27 z m 120,-108 c 0,-19 -44,-65 -63,-65 -18,0 -37,20 -37,40 0,26 22,40 62,40 28,0 38,-4 38,-15 z"
         id="path6776" />
      <path
         d="m 2662,2629 c 2,-86 6,-103 22,-115 24,-17 88,-18 104,-2 9,9 12,9 12,0 0,-7 11,-12 25,-12 h 25 v 115 115 h -25 c -25,0 -25,-1 -25,-85 0,-80 -1,-85 -26,-102 -46,-30 -59,-10 -62,96 -3,90 -3,91 -28,91 h -26 z"
         id="path6778" />
      <path
         d="m 2916,2707 c -45,-45 -41,-158 7,-192 34,-24 109,-20 135,8 12,13 22,26 22,29 0,15 -36,12 -52,-4 -24,-24 -53,-23 -78,2 -11,11 -20,29 -20,40 0,18 7,20 80,20 89,0 92,3 66,65 -17,41 -42,55 -96,55 -29,0 -47,-6 -64,-23 z m 106,-24 c 33,-30 23,-43 -37,-43 -59,0 -67,8 -35,40 24,24 47,25 72,3 z"
         id="path6780" />
      <path
         d="m 3240,2726 c 0,-2 18,-52 41,-111 45,-122 45,-151 -1,-168 -39,-15 -39,-37 -1,-37 29,0 53,16 70,48 8,16 101,262 101,269 0,2 -10,3 -23,3 -20,0 -27,-11 -51,-87 l -29,-88 -30,88 c -27,76 -33,87 -54,87 -13,0 -23,-2 -23,-4 z"
         id="path6782" />
      <path
         d="m 5330,2705 c 0,-18 5,-25 20,-25 15,0 20,7 20,25 0,18 -5,25 -20,25 -15,0 -20,-7 -20,-25 z"
         id="path6784" />
      <path
         d="m 4230,2695 c 0,-12 18,-15 105,-15 87,0 105,3 105,15 0,12 -18,15 -105,15 -87,0 -105,-3 -105,-15 z"
         id="path6786" />
      <path
         d="m 800,2555 v -115 h 25 25 v 115 115 h -25 -25 z"
         id="path6788" />
      <path
         d="m 654,2609 c -13,-14 -18,-36 -18,-74 0,-62 22,-95 64,-95 42,0 65,33 65,95 0,38 -5,59 -19,74 -24,27 -68,27 -92,0 z m 71,-74 c 0,-57 -1,-60 -25,-60 -23,0 -25,4 -28,49 -4,62 2,78 30,74 21,-3 23,-8 23,-63 z"
         id="path6790" />
      <path
         d="m 4230,2585 c 0,-12 18,-15 105,-15 87,0 105,3 105,15 0,12 -18,15 -105,15 -87,0 -105,-3 -105,-15 z"
         id="path6792" />
      <path
         d="m 3887,2543 c -11,-10 -8,-43 4,-43 7,0 8,-11 4,-30 -5,-23 -3,-30 8,-30 19,0 27,21 27,71 0,31 -4,39 -18,39 -10,0 -22,-3 -25,-7 z"
         id="path6794" />
      <path
         d="m 4717,2543 c -11,-10 -8,-43 4,-43 7,0 8,-11 4,-30 -5,-23 -3,-30 8,-30 19,0 27,21 27,71 0,31 -4,39 -18,39 -10,0 -22,-3 -25,-7 z"
         id="path6796" />
      <path
         d="m 5333,2495 c 3,-85 37,-70 37,16 0,32 -3,39 -19,39 -18,0 -20,-7 -18,-55 z"
         id="path6798" />
      <path
         d="m 1828,2109 c -16,-11 -28,-29 -28,-40 0,-23 4,-23 35,-3 l 25,16 v -101 -101 h -35 c -28,0 -35,-4 -35,-20 0,-19 7,-20 96,-20 86,0 95,2 92,18 -2,11 -14,18 -36,20 l -32,3 v 125 124 h -27 c -16,0 -40,-10 -55,-21 z"
         id="path6800" />
      <path
         d="m 336,2073 c -36,-55 -50,-130 -36,-195 14,-66 53,-128 81,-128 19,0 19,1 -4,33 -64,85 -64,209 0,295 23,31 23,32 4,32 -13,0 -30,-15 -45,-37 z"
         id="path6802" />
      <path
         d="m 1420,2104 c 0,-3 8,-18 18,-32 28,-39 42,-89 42,-142 0,-53 -14,-103 -42,-142 -22,-32 -22,-38 -3,-38 22,0 63,68 76,127 15,65 1,141 -37,196 -21,32 -54,50 -54,31 z"
         id="path6804" />
      <path
         d="m 437,2085 c -37,-36 -27,-137 14,-150 37,-12 67,3 79,40 21,63 -7,125 -55,125 -13,0 -30,-7 -38,-15 z m 64,-32 c 16,-40 0,-98 -26,-98 -15,0 -22,10 -29,37 -17,69 31,122 55,61 z"
         id="path6806" />
      <path
         d="m 560,1965 c -68,-101 -86,-135 -73,-135 12,1 48,47 105,135 54,83 82,135 73,135 -8,0 -55,-61 -105,-135 z"
         id="path6808" />
      <path
         d="m 1038,2079 c -16,-11 -28,-28 -28,-36 0,-14 3,-13 25,1 13,9 27,16 30,16 3,0 5,-45 5,-100 v -100 h -35 c -24,0 -35,-5 -35,-15 0,-12 16,-15 85,-15 69,0 85,3 85,15 0,10 -11,15 -35,15 h -35 v 120 c 0,108 -2,120 -17,120 -10,0 -30,-10 -45,-21 z"
         id="path6810" />
      <path
         d="m 1261,2011 c -34,-49 -61,-97 -61,-105 0,-13 12,-16 65,-16 h 65 v -30 c 0,-20 5,-30 15,-30 10,0 15,10 15,30 0,23 4,30 20,30 11,0 20,7 20,15 0,8 -9,15 -20,15 -19,0 -20,7 -20,90 0,82 -2,90 -19,90 -12,0 -39,-30 -80,-89 z m 69,-26 v -65 h -46 c -25,0 -44,3 -42,8 6,14 81,122 84,122 2,0 4,-29 4,-65 z"
         id="path6812" />
      <path
         d="m 795,2015 c -21,-20 -25,-34 -25,-80 0,-72 28,-105 90,-105 62,0 90,33 90,105 0,72 -28,105 -90,105 -30,0 -47,-6 -65,-25 z m 105,-20 c 15,-18 15,-102 0,-120 -17,-20 -64,-19 -81,2 -8,9 -14,35 -14,58 0,23 6,49 14,58 17,21 64,22 81,2 z"
         id="path6814" />
      <path
         d="m 637,1985 c -23,-22 -30,-70 -17,-109 12,-38 37,-51 75,-42 42,11 58,111 24,153 -15,18 -64,17 -82,-2 z m 63,-24 c 24,-45 1,-121 -33,-108 -35,13 -28,127 7,127 9,0 20,-9 26,-19 z"
         id="path6816" />
      <path
         d="m 1780,1245 v -155 h 25 25 v 155 155 h -25 -25 z"
         id="path6818" />
      <path
         d="m 2930,1349 c 0,-44 -2,-50 -14,-40 -8,7 -31,11 -52,9 -53,-4 -77,-40 -77,-113 0,-73 24,-109 77,-113 21,-2 45,3 53,10 13,10 17,10 20,1 3,-7 13,-13 24,-13 18,0 19,9 19,155 v 155 h -25 c -23,0 -25,-3 -25,-51 z m -16,-75 c 22,-21 21,-111 -1,-136 -37,-41 -83,-4 -83,67 0,70 46,108 84,69 z"
         id="path6820" />
      <path
         d="m 3720,1245 v -155 h 25 25 v 155 155 h -25 -25 z"
         id="path6822" />
      <path
         d="m 4270,1245 v -155 h 25 25 v 155 155 h -25 -25 z"
         id="path6824" />
      <path
         d="m 5075,1356 c -57,-97 -57,-215 0,-312 19,-33 32,-44 50,-44 h 24 l -32,52 c -30,48 -32,56 -32,148 0,92 2,100 32,148 l 32,52 h -24 c -18,0 -31,-11 -50,-44 z"
         id="path6826" />
      <path
         d="m 5540,1349 c 0,-44 -2,-50 -14,-40 -25,21 -87,9 -109,-21 -28,-37 -28,-129 0,-166 23,-31 84,-42 110,-20 13,10 17,10 20,1 3,-7 13,-13 24,-13 18,0 19,9 19,155 v 155 h -25 c -23,0 -25,-3 -25,-51 z m -16,-75 c 22,-21 21,-111 -1,-136 -37,-41 -83,-4 -83,67 0,70 46,108 84,69 z"
         id="path6828" />
      <path
         d="m 6899,1371 c 33,-45 51,-107 51,-171 0,-64 -18,-126 -51,-171 l -21,-31 28,4 c 23,2 34,13 59,62 25,51 30,70 30,136 0,66 -5,85 -30,136 -25,49 -36,60 -59,62 l -28,4 z"
         id="path6830" />
      <path
         d="m 3275,1355 c -14,-13 -25,-31 -25,-40 0,-22 46,-20 53,3 5,23 35,32 65,21 16,-6 22,-17 22,-39 0,-24 -14,-43 -70,-98 -45,-44 -70,-76 -70,-90 0,-21 4,-22 101,-22 90,0 100,2 97,18 -3,14 -16,18 -78,20 l -74,3 72,67 c 61,57 72,72 72,100 0,50 -37,82 -95,82 -35,0 -52,-6 -70,-25 z"
         id="path6832" />
      <path
         d="m 5885,1355 c -14,-13 -25,-31 -25,-40 0,-22 46,-20 53,3 5,23 35,32 65,21 16,-6 22,-17 22,-39 0,-24 -14,-43 -70,-98 -45,-44 -70,-76 -70,-90 0,-21 4,-22 101,-22 90,0 100,2 97,18 -3,14 -16,18 -78,20 l -74,3 72,67 c 61,57 72,72 72,100 0,50 -37,82 -95,82 -35,0 -52,-6 -70,-25 z"
         id="path6834" />
      <path
         d="m 6346,1345 c -4,-14 -13,-25 -21,-25 -8,0 -15,-7 -15,-15 0,-8 7,-15 15,-15 12,0 15,-16 15,-88 0,-98 7,-112 57,-112 38,0 47,27 11,32 -21,3 -23,9 -26,86 -3,77 -2,82 18,82 11,0 20,7 20,15 0,8 -9,15 -20,15 -15,0 -20,7 -20,25 0,15 -6,25 -14,25 -8,0 -17,-11 -20,-25 z"
         id="path6836" />
      <path
         d="m 341,1305 c -25,-37 -51,-121 -51,-165 0,-77 57,-200 93,-200 22,0 21,6 -1,38 -30,43 -42,90 -42,162 0,72 12,119 42,162 22,32 23,38 1,38 -10,0 -29,-16 -42,-35 z"
         id="path6838" />
      <path
         d="m 802,1323 c 2,-10 13,-19 26,-21 17,-3 22,2 22,17 0,16 -6,21 -26,21 -19,0 -25,-5 -22,-17 z"
         id="path6840" />
      <path
         d="m 1355,1304 c 32,-47 45,-95 45,-164 0,-69 -13,-117 -45,-164 -23,-34 -23,-36 -5,-36 23,0 63,52 80,103 27,85 11,201 -37,265 -13,17 -33,32 -43,32 -18,0 -18,-2 5,-36 z"
         id="path6842" />
      <path
         d="m 447,1305 c -32,-32 -32,-118 0,-150 21,-21 67,-19 88,5 26,28 26,112 0,140 -21,24 -67,26 -88,5 z m 71,-54 c 6,-55 -5,-83 -31,-79 -18,2 -23,10 -25,47 -4,57 3,73 30,69 18,-2 24,-11 26,-37 z"
         id="path6844" />
      <path
         d="m 652,1293 c -61,-88 -163,-255 -158,-260 14,-14 37,14 119,140 48,75 87,138 87,142 0,16 -31,1 -48,-22 z"
         id="path6846" />
      <path
         d="m 943,1299 c -20,-12 -33,-29 -33,-41 0,-19 1,-19 25,-4 13,9 27,16 30,16 3,0 5,-47 5,-105 v -105 h -35 c -24,0 -35,-5 -35,-15 0,-12 17,-15 90,-15 72,0 90,3 90,14 0,9 -12,16 -32,18 l -33,3 -3,128 c -3,142 -6,147 -69,106 z"
         id="path6848" />
      <path
         d="m 1127,1248 c -3,-40 -4,-74 -1,-77 2,-3 25,1 51,7 39,11 49,10 69,-3 34,-22 33,-78 0,-100 -29,-19 -72,-11 -86,16 -6,10 -17,16 -25,13 -44,-17 16,-74 79,-74 53,0 82,21 96,68 22,72 -24,127 -100,120 l -40,-4 v 38 38 h 65 c 51,0 65,3 65,15 0,12 -16,15 -84,15 h -83 z"
         id="path6850" />
      <path
         d="m 1902,1304 c -26,-18 -29,-39 -6,-48 11,-4 22,1 31,14 25,36 83,20 83,-22 0,-15 -8,-18 -49,-18 -70,0 -97,-26 -92,-92 0,-9 8,-24 17,-32 20,-21 88,-21 104,-1 12,14 15,14 31,-1 19,-18 60,-16 67,4 2,6 -3,12 -11,12 -21,0 -27,22 -27,96 0,51 -4,68 -20,84 -25,25 -95,27 -128,4 z m 108,-118 c 0,-21 -40,-66 -59,-66 -21,0 -41,19 -41,40 0,26 22,40 62,40 25,0 38,-5 38,-14 z"
         id="path6852" />
      <path
         d="m 2100,1160 v -160 h 25 c 24,0 25,3 25,57 0,44 3,54 12,45 19,-19 85,-15 107,7 42,42 36,177 -9,201 -26,14 -83,13 -98,-2 -9,-9 -12,-9 -12,0 0,7 -11,12 -25,12 h -25 z m 134,114 c 11,-10 16,-34 16,-69 0,-57 -16,-85 -50,-85 -47,0 -69,111 -30,150 24,24 43,25 64,4 z"
         id="path6854" />
      <path
         d="m 2591,1303 c -46,-37 -46,-159 0,-195 26,-22 97,-24 126,-3 51,36 55,156 6,195 -33,26 -102,27 -132,3 z m 101,-30 c 24,-22 25,-109 1,-135 -40,-45 -93,-6 -93,69 0,69 50,105 92,66 z"
         id="path6856" />
      <path
         d="m 3045,1294 c -32,-34 -37,-97 -13,-157 14,-36 36,-47 91,-47 33,0 49,6 65,23 12,13 22,26 22,29 0,15 -36,12 -52,-4 -24,-24 -53,-23 -78,2 -11,11 -20,29 -20,40 0,18 7,20 80,20 89,0 92,3 66,65 -17,41 -42,55 -96,55 -31,0 -47,-6 -65,-26 z m 107,-21 c 33,-30 23,-43 -37,-43 -59,0 -63,4 -39,38 18,26 50,28 76,5 z"
         id="path6858" />
      <path
         d="m 3492,1298 c 2,-15 11,-24 26,-26 18,-3 22,1 22,22 0,21 -5,26 -26,26 -21,0 -25,-4 -22,-22 z"
         id="path6860" />
      <path
         d="m 3830,1293 -21,-27 22,-8 c 17,-6 25,-4 36,12 17,24 46,26 67,4 30,-30 20,-44 -33,-44 -65,0 -95,-24 -95,-75 0,-25 6,-42 19,-51 26,-19 89,-18 106,2 12,14 14,14 25,-1 8,-10 23,-15 40,-13 33,4 43,23 14,31 -18,5 -20,13 -20,81 0,96 -15,116 -89,116 -42,0 -53,-4 -71,-27 z m 120,-108 c 0,-19 -44,-65 -63,-65 -18,0 -37,20 -37,40 0,26 22,40 62,40 28,0 38,-4 38,-15 z"
         id="path6862" />
      <path
         d="m 4040,1160 v -160 h 25 c 24,0 25,3 25,57 0,44 3,54 12,45 19,-19 85,-15 107,7 42,42 36,177 -9,201 -26,14 -83,13 -98,-2 -9,-9 -12,-9 -12,0 0,7 -11,12 -25,12 h -25 z m 132,113 c 13,-12 18,-30 18,-69 0,-56 -17,-84 -50,-84 -47,0 -69,111 -30,150 24,24 38,25 62,3 z"
         id="path6864" />
      <path
         d="m 4380,1293 -21,-27 22,-8 c 17,-6 25,-4 36,12 17,24 46,26 67,4 30,-30 20,-44 -33,-44 -65,0 -95,-24 -95,-75 0,-25 6,-42 19,-51 26,-19 89,-18 106,2 12,14 14,14 25,-1 8,-10 23,-15 40,-13 33,4 43,23 14,31 -18,5 -20,13 -20,81 0,96 -15,116 -89,116 -42,0 -53,-4 -71,-27 z m 120,-108 c 0,-19 -44,-65 -63,-65 -18,0 -37,20 -37,40 0,26 22,40 62,40 28,0 38,-4 38,-15 z"
         id="path6866" />
      <path
         d="m 4616,1297 c -45,-45 -41,-158 7,-192 34,-24 94,-19 122,10 14,13 25,31 25,40 0,23 -30,18 -56,-10 -28,-30 -38,-31 -64,-5 -14,14 -20,33 -20,65 0,44 24,85 50,85 6,0 19,-9 30,-20 21,-21 60,-27 60,-10 0,6 -11,22 -25,35 -33,34 -96,35 -129,2 z"
         id="path6868" />
      <path
         d="m 4826,1297 c -45,-45 -41,-158 7,-192 34,-24 109,-20 135,8 12,13 22,26 22,29 0,15 -36,12 -52,-4 -24,-24 -53,-23 -78,2 -11,11 -20,29 -20,40 0,18 7,20 80,20 89,0 92,3 66,65 -17,41 -42,55 -96,55 -29,0 -47,-6 -64,-23 z m 106,-24 c 33,-30 23,-43 -37,-43 -59,0 -67,8 -35,40 24,24 47,25 72,3 z"
         id="path6870" />
      <path
         d="m 5201,1303 c -46,-37 -46,-159 0,-195 26,-22 97,-24 126,-3 51,36 55,156 6,195 -33,26 -102,27 -132,3 z m 101,-30 c 24,-22 25,-109 1,-135 -40,-45 -93,-6 -93,69 0,69 50,105 92,66 z"
         id="path6872" />
      <path
         d="m 5655,1294 c -32,-34 -37,-97 -13,-157 14,-36 36,-47 91,-47 33,0 49,6 65,23 12,13 22,26 22,29 0,15 -36,12 -52,-4 -10,-10 -27,-18 -38,-18 -26,0 -60,34 -60,60 0,18 7,20 80,20 89,0 92,3 66,65 -17,41 -42,55 -96,55 -31,0 -47,-6 -65,-26 z m 107,-21 c 33,-30 23,-43 -37,-43 -59,0 -63,4 -39,38 18,26 50,28 76,5 z"
         id="path6874" />
      <path
         d="m 6712,1304 c -26,-18 -30,-65 -6,-85 9,-8 37,-21 63,-29 34,-11 47,-21 49,-37 5,-31 -41,-42 -81,-20 -53,31 -76,16 -37,-23 31,-31 113,-28 145,5 14,13 25,30 25,37 0,28 -32,57 -81,73 -28,10 -53,24 -56,32 -12,31 53,45 81,18 19,-19 46,-19 46,-1 0,24 -41,46 -85,46 -22,0 -51,-7 -63,-16 z"
         id="path6876" />
      <path
         d="m 7060,1295 c 0,-18 5,-25 20,-25 15,0 20,7 20,25 0,18 -5,25 -20,25 -15,0 -20,-7 -20,-25 z"
         id="path6878" />
      <path
         d="m 800,1145 v -115 h 25 25 v 115 115 h -25 -25 z"
         id="path6880" />
      <path
         d="m 654,1199 c -13,-14 -18,-36 -18,-74 0,-62 22,-95 64,-95 42,0 65,33 65,95 0,38 -5,59 -19,74 -24,27 -68,27 -92,0 z m 71,-74 c 0,-57 -1,-60 -25,-60 -23,0 -25,4 -28,49 -4,62 2,78 30,74 21,-3 23,-8 23,-63 z"
         id="path6882" />
      <path
         d="m 3497,1133 c -4,-3 -7,-15 -7,-25 0,-13 7,-18 25,-18 20,0 25,5 25,25 0,18 -5,25 -18,25 -10,0 -22,-3 -25,-7 z"
         id="path6884" />
      <path
         d="m 6107,1133 c -11,-10 -8,-43 4,-43 7,0 8,-11 4,-30 -5,-23 -3,-30 8,-30 19,0 27,21 27,71 0,31 -4,39 -18,39 -10,0 -22,-3 -25,-7 z"
         id="path6886" />
      <path
         d="m 6467,1133 c -11,-10 -8,-43 4,-43 7,0 8,-11 4,-30 -5,-23 -3,-30 8,-30 19,0 27,21 27,71 0,31 -4,39 -18,39 -10,0 -22,-3 -25,-7 z"
         id="path6888" />
      <path
         d="m 7063,1085 c 3,-85 37,-70 37,16 0,32 -3,39 -19,39 -18,0 -20,-7 -18,-55 z"
         id="path6890" />
      <path
         d="m 2300,1025 c 0,-13 21,-15 125,-15 104,0 125,2 125,15 0,13 -21,15 -125,15 -104,0 -125,-2 -125,-15 z"
         id="path6892" />
      <path
         d="M 2120,485 V 330 h 25 25 v 155 155 h -25 -25 z"
         id="path6894" />
      <path
         d="M 2670,485 V 330 h 25 25 v 155 155 h -25 -25 z"
         id="path6896" />
      <path
         d="m 3535,596 c -57,-97 -57,-215 0,-312 19,-33 32,-44 50,-44 h 24 l -32,52 c -30,48 -32,56 -32,148 0,92 2,100 32,148 l 32,52 h -24 c -18,0 -31,-11 -50,-44 z"
         id="path6898" />
      <path
         d="m 4005,596 c -57,-97 -57,-215 0,-312 19,-33 32,-44 50,-44 h 24 l -32,52 c -30,48 -32,56 -32,148 0,92 2,100 32,148 l 32,52 h -24 c -18,0 -31,-11 -50,-44 z"
         id="path6900" />
      <path
         d="m 4339,611 c 33,-45 51,-107 51,-171 0,-64 -18,-126 -51,-171 l -21,-31 28,4 c 23,2 34,13 59,62 25,51 30,70 30,136 0,66 -5,85 -30,136 -25,49 -36,60 -59,62 l -28,4 z"
         id="path6902" />
      <path
         d="m 5319,611 c 33,-45 51,-107 51,-171 0,-64 -18,-126 -51,-171 l -21,-31 28,4 c 23,2 34,13 59,62 25,51 30,70 30,136 0,66 -5,85 -30,136 -25,49 -36,60 -59,62 l -28,4 z"
         id="path6904" />
      <path
         d="M 6740,485 V 330 h 25 25 v 155 155 h -25 -25 z"
         id="path6906" />
      <path
         d="M 7290,485 V 330 h 25 25 v 155 155 h -25 -25 z"
         id="path6908" />
      <path
         d="m 8155,596 c -38,-65 -52,-143 -37,-212 16,-78 56,-144 87,-144 h 24 l -32,52 c -30,48 -32,56 -32,148 0,92 2,100 32,148 l 32,52 h -24 c -18,0 -31,-11 -50,-44 z"
         id="path6910" />
      <path
         d="m 8625,596 c -38,-65 -52,-143 -37,-212 16,-78 56,-144 87,-144 h 24 l -32,52 c -30,48 -32,56 -32,148 0,92 2,100 32,148 l 32,52 h -24 c -18,0 -31,-11 -50,-44 z"
         id="path6912" />
      <path
         d="m 8959,611 c 33,-45 51,-107 51,-171 0,-64 -18,-126 -51,-171 l -21,-31 28,4 c 23,2 34,13 59,62 25,51 30,70 30,136 0,66 -5,85 -30,136 -25,49 -36,60 -59,62 l -28,4 z"
         id="path6914" />
      <path
         d="m 9939,611 c 33,-45 51,-107 51,-171 0,-64 -18,-126 -51,-171 l -21,-31 28,4 c 23,2 34,13 59,62 25,51 30,70 30,136 0,66 -5,85 -30,136 -25,49 -36,60 -59,62 l -28,4 z"
         id="path6916" />
      <path
         d="M 10750,485 V 330 h 25 25 v 155 155 h -25 -25 z"
         id="path6918" />
      <path
         d="M 11300,485 V 330 h 25 25 v 155 155 h -25 -25 z"
         id="path6920" />
      <path
         d="m 12165,596 c -38,-65 -52,-143 -37,-212 16,-78 56,-144 87,-144 h 24 l -32,52 c -30,48 -32,56 -32,148 0,92 2,100 32,148 l 32,52 h -24 c -18,0 -31,-11 -50,-44 z"
         id="path6922" />
      <path
         d="m 12635,596 c -38,-65 -52,-143 -37,-212 16,-78 56,-144 87,-144 h 24 l -32,52 c -30,48 -32,56 -32,148 0,92 2,100 32,148 l 32,52 h -24 c -18,0 -31,-11 -50,-44 z"
         id="path6924" />
      <path
         d="m 12969,611 c 33,-45 51,-107 51,-171 0,-64 -18,-126 -51,-171 l -21,-31 28,4 c 23,2 34,13 59,62 25,51 30,70 30,136 0,66 -5,85 -30,136 -25,49 -36,60 -59,62 l -28,4 z"
         id="path6926" />
      <path
         d="m 13949,611 c 33,-45 51,-107 51,-171 0,-64 -18,-126 -51,-171 l -21,-31 28,4 c 23,2 34,13 59,62 25,51 30,70 30,136 0,66 -5,85 -30,136 -25,49 -36,60 -59,62 l -28,4 z"
         id="path6928" />
      <path
         d="m 5838,599 c -16,-11 -28,-29 -28,-40 0,-23 4,-23 35,-3 l 25,16 V 471 370 h -35 c -28,0 -35,-4 -35,-20 0,-19 7,-20 96,-20 86,0 95,2 92,18 -2,11 -14,18 -36,20 l -32,3 v 125 124 h -27 c -16,0 -40,-10 -55,-21 z"
         id="path6930" />
      <path
         d="m 6405,595 c -32,-31 -32,-55 -1,-55 16,0 26,7 29,21 5,17 12,20 44,17 34,-3 38,-6 41,-34 3,-27 -6,-40 -67,-101 -45,-44 -71,-77 -71,-91 0,-21 4,-22 101,-22 90,0 100,2 97,18 -3,14 -16,18 -78,20 l -74,3 72,67 c 63,59 72,72 72,103 0,51 -33,79 -94,79 -36,0 -52,-5 -71,-25 z"
         id="path6932" />
      <path
         d="m 4200,585 c -5,-14 -16,-25 -25,-25 -17,0 -21,-26 -5,-32 7,-2 6,-31 -2,-84 -14,-99 -10,-114 37,-114 28,0 35,4 35,20 0,12 -5,17 -14,14 -23,-9 -28,13 -16,74 17,86 20,92 41,92 10,0 19,7 19,15 0,8 -7,15 -15,15 -9,0 -15,9 -15,25 0,16 -6,25 -15,25 -9,0 -20,-11 -25,-25 z"
         id="path6934" />
      <path
         d="m 4730,585 c -5,-14 -16,-25 -25,-25 -17,0 -21,-26 -5,-32 7,-2 6,-31 -2,-84 -14,-99 -10,-114 37,-114 28,0 35,4 35,20 0,12 -5,17 -14,14 -23,-9 -28,13 -16,74 17,86 20,92 41,92 10,0 19,7 19,15 0,8 -7,15 -15,15 -9,0 -15,9 -15,25 0,16 -6,25 -15,25 -9,0 -20,-11 -25,-25 z"
         id="path6936" />
      <path
         d="m 8820,585 c -5,-14 -16,-25 -25,-25 -17,0 -21,-26 -5,-32 7,-2 6,-31 -2,-84 -14,-99 -10,-114 37,-114 28,0 35,4 35,20 0,12 -5,17 -14,14 -23,-9 -28,13 -16,74 17,86 20,92 41,92 10,0 19,7 19,15 0,8 -7,15 -15,15 -9,0 -15,9 -15,25 0,16 -6,25 -15,25 -9,0 -20,-11 -25,-25 z"
         id="path6938" />
      <path
         d="m 9350,585 c -5,-14 -16,-25 -25,-25 -17,0 -21,-26 -5,-32 7,-2 6,-31 -2,-84 -14,-99 -10,-114 37,-114 28,0 35,4 35,20 0,12 -5,17 -14,14 -23,-9 -28,13 -16,74 17,86 20,92 41,92 10,0 19,7 19,15 0,8 -7,15 -15,15 -9,0 -15,9 -15,25 0,16 -6,25 -15,25 -9,0 -20,-11 -25,-25 z"
         id="path6940" />
      <path
         d="m 12830,585 c -5,-14 -16,-25 -25,-25 -17,0 -21,-26 -5,-32 7,-2 6,-31 -2,-84 -14,-99 -10,-114 37,-114 28,0 35,4 35,20 0,12 -5,17 -14,14 -23,-9 -28,13 -16,74 17,86 20,92 41,92 10,0 19,7 19,15 0,8 -7,15 -15,15 -9,0 -15,9 -15,25 0,16 -6,25 -15,25 -9,0 -20,-11 -25,-25 z"
         id="path6942" />
      <path
         d="m 13360,585 c -5,-14 -16,-25 -25,-25 -17,0 -21,-26 -5,-32 7,-2 6,-31 -2,-84 -14,-99 -10,-114 37,-114 28,0 35,4 35,20 0,12 -5,17 -14,14 -23,-9 -28,13 -16,74 17,86 20,92 41,92 10,0 19,7 19,15 0,8 -7,15 -15,15 -9,0 -15,9 -15,25 0,16 -6,25 -15,25 -9,0 -20,-11 -25,-25 z"
         id="path6944" />
      <path
         d="m 336,563 c -36,-55 -50,-130 -36,-195 14,-66 53,-128 81,-128 19,0 19,1 -4,33 -64,85 -64,209 0,295 23,31 23,32 4,32 -13,0 -30,-15 -45,-37 z"
         id="path6946" />
      <path
         d="m 1420,594 c 0,-3 8,-18 18,-32 28,-39 42,-89 42,-142 0,-53 -14,-103 -42,-142 -22,-32 -22,-38 -3,-38 22,0 63,68 76,127 15,65 1,141 -37,196 -21,32 -54,50 -54,31 z"
         id="path6948" />
      <path
         d="m 437,575 c -37,-36 -27,-137 14,-150 37,-12 67,3 79,40 21,63 -7,125 -55,125 -13,0 -30,-7 -38,-15 z m 64,-32 c 16,-40 0,-98 -26,-98 -15,0 -22,10 -29,37 -17,69 31,122 55,61 z"
         id="path6950" />
      <path
         d="M 560,455 C 492,354 474,320 487,320 c 12,1 48,47 105,135 54,83 82,135 73,135 -8,0 -55,-61 -105,-135 z"
         id="path6952" />
      <path
         d="m 1038,569 c -16,-11 -28,-28 -28,-36 0,-14 3,-13 25,1 13,9 27,16 30,16 3,0 5,-45 5,-100 V 350 h -35 c -24,0 -35,-5 -35,-15 0,-12 16,-15 85,-15 69,0 85,3 85,15 0,10 -11,15 -35,15 h -35 v 120 c 0,108 -2,120 -17,120 -10,0 -30,-10 -45,-21 z"
         id="path6954" />
      <path
         d="m 1217,523 c -3,-38 -3,-70 -1,-72 2,-2 21,2 43,9 47,15 79,6 92,-27 23,-61 -56,-113 -98,-64 -20,24 -43,28 -43,7 0,-57 128,-75 165,-23 21,30 19,90 -4,118 -16,20 -28,24 -70,23 h -51 v 33 33 h 65 c 51,0 65,3 65,15 0,12 -15,15 -79,15 h -78 z"
         id="path6956" />
      <path
         d="m 10200,535 v -45 h -45 c -33,0 -45,-4 -45,-15 0,-11 12,-15 45,-15 h 45 v -45 c 0,-38 3,-45 20,-45 17,0 20,7 20,45 v 45 h 40 c 29,0 40,4 40,15 0,11 -11,15 -40,15 h -40 v 45 c 0,38 -3,45 -20,45 -17,0 -20,-7 -20,-45 z"
         id="path6958" />
      <path
         d="m 1813,545 c -11,-8 -23,-23 -26,-35 -7,-26 25,-66 60,-75 37,-9 53,-23 53,-46 0,-27 -47,-36 -83,-16 -35,21 -57,22 -57,3 0,-25 42,-46 93,-46 38,0 53,5 72,25 44,43 31,78 -41,110 -58,26 -70,51 -30,61 28,7 66,-3 66,-17 0,-5 9,-9 20,-9 25,0 26,22 2,43 -23,21 -100,22 -129,2 z"
         id="path6960" />
      <path
         d="m 2230,533 -21,-27 22,-8 c 17,-6 25,-4 36,12 17,24 46,26 67,4 30,-30 20,-44 -33,-44 -65,0 -95,-24 -95,-75 0,-25 6,-42 19,-51 26,-19 84,-18 107,2 16,16 18,16 24,0 8,-21 74,-23 74,-1 0,8 -6,15 -14,15 -20,0 -26,23 -26,100 0,60 -3,71 -22,84 -13,9 -43,16 -69,16 -40,0 -51,-4 -69,-27 z m 120,-108 c 0,-19 -44,-65 -63,-65 -18,0 -37,20 -37,40 0,26 22,40 62,40 28,0 38,-4 38,-15 z"
         id="path6962" />
      <path
         d="M 2440,400 V 240 h 25 c 24,0 25,3 25,57 0,44 3,54 12,45 14,-14 72,-16 98,-2 21,11 40,60 40,105 0,45 -19,94 -40,105 -26,14 -84,12 -98,-2 -9,-9 -12,-9 -12,0 0,7 -11,12 -25,12 h -25 z m 132,113 c 13,-12 18,-30 18,-69 0,-56 -17,-84 -50,-84 -47,0 -69,111 -30,150 24,24 38,25 62,3 z"
         id="path6964" />
      <path
         d="m 2780,533 -21,-27 22,-8 c 17,-6 25,-4 36,12 17,24 46,26 67,4 30,-30 20,-44 -33,-44 -65,0 -95,-24 -95,-75 0,-25 6,-42 19,-51 26,-19 84,-18 107,2 16,16 18,16 24,0 8,-21 74,-23 74,-1 0,8 -6,15 -14,15 -20,0 -26,23 -26,100 0,60 -3,71 -22,84 -13,9 -43,16 -69,16 -40,0 -51,-4 -69,-27 z m 120,-108 c 0,-19 -44,-65 -63,-65 -18,0 -37,20 -37,40 0,26 22,40 62,40 28,0 38,-4 38,-15 z"
         id="path6966" />
      <path
         d="m 3016,537 c -29,-29 -40,-85 -26,-136 13,-50 42,-71 96,-71 34,0 47,5 63,26 41,52 10,77 -35,29 -26,-29 -33,-30 -58,-12 -12,9 -20,31 -23,64 -5,42 -2,54 16,72 26,26 36,26 61,1 20,-20 60,-28 60,-11 0,4 -9,20 -21,35 -28,36 -99,37 -133,3 z"
         id="path6968" />
      <path
         d="m 3226,537 c -45,-45 -41,-158 7,-192 32,-22 108,-20 135,5 12,12 22,25 22,30 0,17 -35,15 -52,-2 -34,-34 -81,-16 -94,35 l -6,27 h 81 c 90,0 93,3 67,65 -17,41 -42,55 -96,55 -29,0 -47,-6 -64,-23 z m 106,-24 c 33,-30 23,-43 -37,-43 -59,0 -67,8 -35,40 24,24 47,25 72,3 z"
         id="path6970" />
      <path
         d="m 3670,556 c 0,-2 18,-52 41,-111 45,-122 45,-151 -1,-168 -39,-15 -39,-37 -1,-37 30,0 53,16 71,50 9,17 100,259 100,267 0,2 -10,3 -23,3 -20,0 -27,-11 -51,-87 l -29,-88 -30,88 c -27,76 -33,87 -54,87 -13,0 -23,-2 -23,-4 z"
         id="path6972" />
      <path
         d="m 5083,545 c -11,-8 -23,-23 -26,-35 -7,-26 25,-66 60,-75 37,-9 53,-23 53,-46 0,-27 -47,-36 -83,-16 -35,21 -57,22 -57,3 0,-25 42,-46 93,-46 38,0 53,5 72,25 44,43 31,78 -41,110 -58,26 -70,51 -30,61 28,7 66,-3 66,-17 0,-5 9,-9 20,-9 25,0 26,22 2,43 -23,21 -100,22 -129,2 z"
         id="path6974" />
      <path
         d="m 6850,533 -21,-27 22,-8 c 17,-6 25,-4 36,12 17,24 46,26 67,4 30,-30 20,-44 -33,-44 -65,0 -95,-24 -95,-75 0,-25 6,-42 19,-51 26,-19 84,-18 107,2 16,16 18,16 24,0 8,-21 74,-23 74,-1 0,8 -6,15 -14,15 -20,0 -26,23 -26,100 0,60 -3,71 -22,84 -13,9 -43,16 -69,16 -40,0 -51,-4 -69,-27 z m 120,-108 c 0,-19 -44,-65 -63,-65 -18,0 -37,20 -37,40 0,26 22,40 62,40 28,0 38,-4 38,-15 z"
         id="path6976" />
      <path
         d="M 7060,400 V 240 h 25 c 24,0 25,3 25,57 0,44 3,54 12,45 14,-14 72,-16 98,-2 21,11 40,60 40,105 0,45 -19,94 -40,105 -26,14 -84,12 -98,-2 -9,-9 -12,-9 -12,0 0,7 -11,12 -25,12 h -25 z m 132,113 c 13,-12 18,-30 18,-69 0,-56 -17,-84 -50,-84 -47,0 -69,111 -30,150 24,24 38,25 62,3 z"
         id="path6978" />
      <path
         d="m 7400,533 -21,-27 22,-8 c 17,-6 25,-4 36,12 17,24 46,26 67,4 30,-30 20,-44 -33,-44 -65,0 -95,-24 -95,-75 0,-25 6,-42 19,-51 26,-19 84,-18 107,2 16,16 18,16 24,0 8,-21 74,-23 74,-1 0,8 -6,15 -14,15 -20,0 -26,23 -26,100 0,60 -3,71 -22,84 -13,9 -43,16 -69,16 -40,0 -51,-4 -69,-27 z m 120,-108 c 0,-19 -44,-65 -63,-65 -18,0 -37,20 -37,40 0,26 22,40 62,40 28,0 38,-4 38,-15 z"
         id="path6980" />
      <path
         d="m 7636,537 c -29,-29 -40,-85 -26,-136 13,-50 42,-71 96,-71 34,0 47,5 63,26 41,52 10,77 -35,29 -26,-29 -33,-30 -58,-12 -12,9 -20,31 -23,64 -5,42 -2,54 16,72 26,26 36,26 61,1 20,-20 60,-28 60,-11 0,4 -9,20 -21,35 -28,36 -99,37 -133,3 z"
         id="path6982" />
      <path
         d="m 7846,537 c -45,-45 -41,-158 7,-192 32,-22 108,-20 135,5 12,12 22,25 22,30 0,17 -35,15 -52,-2 -34,-34 -81,-16 -94,35 l -6,27 h 81 c 90,0 93,3 67,65 -17,41 -42,55 -96,55 -29,0 -47,-6 -64,-23 z m 106,-24 c 33,-30 23,-43 -37,-43 -59,0 -67,8 -35,40 24,24 47,25 72,3 z"
         id="path6984" />
      <path
         d="m 8290,556 c 0,-2 18,-52 41,-111 45,-122 45,-151 -1,-168 -39,-15 -39,-37 -1,-37 30,0 53,16 71,50 9,17 100,259 100,267 0,2 -10,3 -23,3 -20,0 -27,-11 -51,-87 l -29,-88 -30,88 c -27,76 -33,87 -54,87 -13,0 -23,-2 -23,-4 z"
         id="path6986" />
      <path
         d="m 9703,545 c -11,-8 -23,-23 -26,-35 -7,-26 25,-66 60,-75 37,-9 53,-23 53,-46 0,-27 -47,-36 -83,-16 -35,21 -57,22 -57,3 0,-25 42,-46 93,-46 38,0 53,5 72,25 44,43 31,78 -41,110 -58,26 -70,51 -30,61 28,7 66,-3 66,-17 0,-5 9,-9 20,-9 25,0 26,22 2,43 -23,21 -100,22 -129,2 z"
         id="path6988" />
      <path
         d="m 10443,545 c -11,-8 -23,-23 -26,-35 -7,-26 25,-66 60,-75 37,-9 53,-23 53,-46 0,-27 -47,-36 -83,-16 -35,21 -57,22 -57,3 0,-25 42,-46 93,-46 38,0 53,5 72,25 44,43 31,78 -41,110 -58,26 -70,51 -30,61 28,7 66,-3 66,-17 0,-5 9,-9 20,-9 25,0 26,22 2,43 -23,21 -100,22 -129,2 z"
         id="path6990" />
      <path
         d="m 10860,533 -21,-27 22,-8 c 17,-6 25,-4 36,12 17,24 46,26 67,4 30,-30 20,-44 -33,-44 -65,0 -95,-24 -95,-75 0,-25 6,-42 19,-51 26,-19 84,-18 107,2 16,16 18,16 24,0 8,-21 74,-23 74,-1 0,8 -6,15 -14,15 -20,0 -26,23 -26,100 0,60 -3,71 -22,84 -13,9 -43,16 -69,16 -40,0 -51,-4 -69,-27 z m 120,-108 c 0,-19 -44,-65 -63,-65 -18,0 -37,20 -37,40 0,26 22,40 62,40 28,0 38,-4 38,-15 z"
         id="path6992" />
      <path
         d="M 11070,400 V 240 h 25 c 24,0 25,3 25,57 0,44 3,54 12,45 14,-14 72,-16 98,-2 21,11 40,60 40,105 0,45 -19,94 -40,105 -26,14 -84,12 -98,-2 -9,-9 -12,-9 -12,0 0,7 -11,12 -25,12 h -25 z m 132,113 c 13,-12 18,-30 18,-69 0,-56 -17,-84 -50,-84 -47,0 -69,111 -30,150 24,24 38,25 62,3 z"
         id="path6994" />
      <path
         d="m 11410,533 -21,-27 22,-8 c 17,-6 25,-4 36,12 17,24 46,26 67,4 30,-30 20,-44 -33,-44 -65,0 -95,-24 -95,-75 0,-25 6,-42 19,-51 26,-19 84,-18 107,2 16,16 18,16 24,0 8,-21 74,-23 74,-1 0,8 -6,15 -14,15 -20,0 -26,23 -26,100 0,60 -3,71 -22,84 -13,9 -43,16 -69,16 -40,0 -51,-4 -69,-27 z m 120,-108 c 0,-19 -44,-65 -63,-65 -18,0 -37,20 -37,40 0,26 22,40 62,40 28,0 38,-4 38,-15 z"
         id="path6996" />
      <path
         d="m 11646,537 c -29,-29 -40,-85 -26,-136 13,-50 42,-71 96,-71 34,0 47,5 63,26 41,52 10,77 -35,29 -26,-29 -33,-30 -58,-12 -12,9 -20,31 -23,64 -5,42 -2,54 16,72 26,26 36,26 61,1 20,-20 60,-28 60,-11 0,4 -9,20 -21,35 -28,36 -99,37 -133,3 z"
         id="path6998" />
      <path
         d="m 11856,537 c -45,-45 -41,-158 7,-192 32,-22 108,-20 135,5 12,12 22,25 22,30 0,17 -35,15 -52,-2 -34,-34 -81,-16 -94,35 l -6,27 h 81 c 90,0 93,3 67,65 -17,41 -42,55 -96,55 -29,0 -47,-6 -64,-23 z m 106,-24 c 33,-30 23,-43 -37,-43 -59,0 -67,8 -35,40 24,24 47,25 72,3 z"
         id="path7000" />
      <path
         d="m 12310,555 c 0,-3 15,-29 34,-57 l 35,-51 -40,-58 -40,-59 h 26 c 18,0 32,11 51,42 l 26,41 19,-24 c 10,-13 21,-32 25,-41 3,-12 16,-18 35,-18 h 30 l -41,60 -41,60 29,43 c 46,67 46,67 19,67 -19,0 -31,-11 -49,-42 l -25,-41 -23,41 c -17,31 -30,42 -47,42 -13,0 -23,-2 -23,-5 z"
         id="path7002" />
      <path
         d="m 13713,545 c -11,-8 -23,-23 -26,-35 -7,-26 25,-66 60,-75 37,-9 53,-23 53,-46 0,-27 -47,-36 -83,-16 -35,21 -57,22 -57,3 0,-25 42,-46 93,-46 38,0 53,5 72,25 44,43 31,78 -41,110 -58,26 -70,51 -30,61 28,7 66,-3 66,-17 0,-5 9,-9 20,-9 25,0 26,22 2,43 -23,21 -100,22 -129,2 z"
         id="path7004" />
      <path
         d="m 6080,525 c 0,-12 18,-15 105,-15 87,0 105,3 105,15 0,12 -18,15 -105,15 -87,0 -105,-3 -105,-15 z"
         id="path7006" />
      <path
         d="m 795,505 c -21,-20 -25,-34 -25,-80 0,-72 28,-105 90,-105 62,0 90,33 90,105 0,72 -28,105 -90,105 -30,0 -47,-6 -65,-25 z m 105,-20 c 15,-18 15,-102 0,-120 -17,-20 -64,-19 -81,2 -8,9 -14,35 -14,58 0,23 6,49 14,58 17,21 64,22 81,2 z"
         id="path7008" />
      <path
         d="m 637,475 c -23,-22 -30,-70 -17,-109 12,-38 37,-51 75,-42 42,11 58,111 24,153 -15,18 -64,17 -82,-2 z m 63,-24 c 24,-45 1,-121 -33,-108 -35,13 -28,127 7,127 9,0 20,-9 26,-19 z"
         id="path7010" />
      <path
         d="m 5497,483 c -4,-3 -7,-12 -7,-20 0,-10 24,-13 105,-13 98,0 105,1 105,20 0,19 -7,20 -98,20 -54,0 -102,-3 -105,-7 z"
         id="path7012" />
      <path
         d="m 6080,415 c 0,-12 18,-15 105,-15 87,0 105,3 105,15 0,12 -18,15 -105,15 -87,0 -105,-3 -105,-15 z"
         id="path7014" />
      <path
         d="m 4527,373 c -11,-10 -8,-43 4,-43 7,0 8,-11 4,-30 -5,-23 -3,-30 8,-30 19,0 27,21 27,71 0,31 -4,39 -18,39 -10,0 -22,-3 -25,-7 z"
         id="path7016" />
      <path
         d="m 4887,373 c -11,-10 -8,-43 4,-43 7,0 8,-11 4,-30 -5,-23 -3,-30 8,-30 19,0 27,21 27,71 0,31 -4,39 -18,39 -10,0 -22,-3 -25,-7 z"
         id="path7018" />
      <path
         d="m 9147,373 c -11,-10 -8,-43 4,-43 7,0 8,-11 4,-30 -5,-23 -3,-30 8,-30 19,0 27,21 27,71 0,31 -4,39 -18,39 -10,0 -22,-3 -25,-7 z"
         id="path7020" />
      <path
         d="m 9507,373 c -11,-10 -8,-43 4,-43 7,0 8,-11 4,-30 -5,-23 -3,-30 8,-30 19,0 27,21 27,71 0,31 -4,39 -18,39 -10,0 -22,-3 -25,-7 z"
         id="path7022" />
      <path
         d="m 13157,373 c -11,-10 -8,-43 4,-43 7,0 8,-11 4,-30 -5,-23 -3,-30 8,-30 19,0 27,21 27,71 0,31 -4,39 -18,39 -10,0 -22,-3 -25,-7 z"
         id="path7024" />
      <path
         d="m 13517,373 c -11,-10 -8,-43 4,-43 7,0 8,-11 4,-30 -5,-23 -3,-30 8,-30 19,0 27,21 27,71 0,31 -4,39 -18,39 -10,0 -22,-3 -25,-7 z"
         id="path7026" />
    </g>
  </g>
</svg>
