<?xml version="1.0" encoding="UTF-8" standalone="no"?>
<svg
   version="1.0"
   width="1525pt"
   height="550pt"
   viewBox="0 0 1525 550"
   preserveAspectRatio="xMidYMid meet"
   id="svg624"
   sodipodi:docname="254lap2.svg"
   inkscape:version="1.1.1 (3bf5ae0d25, 2021-09-20)"
   xmlns:inkscape="http://www.inkscape.org/namespaces/inkscape"
   xmlns:sodipodi="http://sodipodi.sourceforge.net/DTD/sodipodi-0.dtd"
   xmlns="http://www.w3.org/2000/svg"
   xmlns:svg="http://www.w3.org/2000/svg">
  <defs
     id="defs628" />
  <sodipodi:namedview
     id="namedview626"
     pagecolor="#ffffff"
     bordercolor="#666666"
     borderopacity="1.0"
     inkscape:pageshadow="2"
     inkscape:pageopacity="0.0"
     inkscape:pagecheckerboard="0"
     inkscape:document-units="pt"
     showgrid="false"
     inkscape:zoom="1.1581967"
     inkscape:cx="1009.3277"
     inkscape:cy="564.23921"
     inkscape:window-width="3739"
     inkscape:window-height="2123"
     inkscape:window-x="101"
     inkscape:window-y="0"
     inkscape:window-maximized="1"
     inkscape:current-layer="svg624" />
  <g
     transform="matrix(0.07093017,0,0,-0.07093017,-19.482089,545.49449)"
     fill="#000000"
     stroke="none"
     id="g11230">
    <path
       d="m 2240,7528 c 0,-40 -3,-49 -12,-40 -19,19 -82,15 -102,-7 -40,-44 -43,-149 -5,-190 22,-23 92,-30 105,-10 4,8 9,8 17,0 6,-6 19,-11 29,-11 17,0 18,12 18,155 v 155 h -25 c -23,0 -25,-3 -25,-52 z m -15,-74 c 12,-12 15,-31 13,-72 -3,-50 -6,-58 -31,-72 -27,-14 -29,-14 -48,9 -37,46 -16,151 31,151 10,0 26,-7 35,-16 z"
       id="path10652" />
    <path
       d="m 3020,7528 c 0,-40 -3,-49 -12,-40 -20,20 -85,15 -107,-9 -40,-43 -34,-176 9,-199 26,-14 83,-13 98,2 9,9 12,9 12,0 0,-7 11,-12 25,-12 h 25 v 155 155 h -25 c -23,0 -25,-3 -25,-52 z m -18,-75 c 26,-23 25,-106 -2,-133 -26,-26 -45,-25 -64,2 -33,46 -11,148 31,148 9,0 25,-7 35,-17 z"
       id="path10654" />
    <path
       d="m 3110,7560 c 0,-15 7,-20 25,-20 18,0 25,5 25,20 0,15 -7,20 -25,20 -18,0 -25,-5 -25,-20 z"
       id="path10656" />
    <path
       d="m 3220,7561 c -5,-11 -10,-29 -10,-40 0,-12 -7,-21 -15,-21 -8,0 -15,-7 -15,-15 0,-8 7,-15 15,-15 12,0 15,-18 15,-100 v -100 h 25 25 v 100 100 h 30 30 v -100 -100 h 25 25 v 100 c 0,93 1,100 20,100 11,0 20,7 20,15 0,8 -9,15 -20,15 -14,0 -20,7 -20,21 0,12 8,23 20,26 34,9 24,33 -15,33 -36,0 -55,-20 -55,-59 0,-17 -6,-21 -30,-21 -24,0 -30,4 -30,21 0,12 8,23 20,26 34,9 24,33 -15,33 -24,0 -37,-6 -45,-19 z"
       id="path10658" />
    <path
       d="m 3475,7536 c -57,-97 -57,-215 0,-312 19,-33 32,-44 50,-44 h 24 l -31,50 c -25,41 -32,64 -36,124 -5,81 6,130 44,189 l 24,37 h -24 c -19,0 -31,-11 -51,-44 z"
       id="path10660" />
    <path
       d="m 3825,7536 c -57,-97 -57,-215 0,-312 19,-33 32,-44 50,-44 h 24 l -31,50 c -25,41 -32,64 -36,124 -5,81 6,130 44,189 l 24,37 h -24 c -19,0 -31,-11 -51,-44 z"
       id="path10662" />
    <path
       d="m 4039,7551 c 68,-95 68,-247 0,-342 l -21,-31 28,4 c 23,2 34,13 59,62 25,51 30,70 30,136 0,66 -5,85 -30,136 -25,49 -36,60 -59,62 l -28,4 z"
       id="path10664" />
    <path
       d="m 4539,7551 c 68,-95 68,-247 0,-342 l -21,-31 28,4 c 23,2 34,13 59,62 25,51 30,70 30,136 0,66 -5,85 -30,136 -25,49 -36,60 -59,62 l -28,4 z"
       id="path10666" />
    <path
       d="m 5380,7528 c 0,-40 -3,-49 -12,-40 -20,20 -85,15 -107,-9 -40,-43 -34,-176 9,-199 26,-14 83,-13 98,2 9,9 12,9 12,0 0,-7 11,-12 25,-12 h 25 v 155 155 h -25 c -23,0 -25,-3 -25,-52 z m -18,-75 c 26,-23 25,-106 -2,-133 -26,-26 -45,-25 -64,2 -33,46 -11,148 31,148 9,0 25,-7 35,-17 z"
       id="path10668" />
    <path
       d="m 5470,7560 c 0,-15 7,-20 25,-20 18,0 25,5 25,20 0,15 -7,20 -25,20 -18,0 -25,-5 -25,-20 z"
       id="path10670" />
    <path
       d="m 5580,7561 c -5,-11 -10,-29 -10,-40 0,-12 -7,-21 -15,-21 -8,0 -15,-7 -15,-15 0,-8 7,-15 15,-15 12,0 15,-18 15,-100 v -100 h 25 25 v 100 100 h 30 30 v -100 -100 h 25 25 v 100 c 0,93 1,100 20,100 11,0 20,7 20,15 0,8 -9,15 -20,15 -14,0 -20,7 -20,21 0,12 8,23 20,26 34,9 24,33 -15,33 -36,0 -55,-20 -55,-59 0,-17 -6,-21 -30,-21 -24,0 -30,4 -30,21 0,12 8,23 20,26 34,9 24,33 -15,33 -24,0 -37,-6 -45,-19 z"
       id="path10672" />
    <path
       d="m 5835,7536 c -38,-65 -52,-143 -37,-212 16,-78 56,-144 87,-144 h 24 l -31,50 c -25,41 -32,64 -36,124 -5,81 6,130 44,189 l 24,37 h -24 c -19,0 -31,-11 -51,-44 z"
       id="path10674" />
    <path
       d="m 6185,7536 c -38,-65 -52,-143 -37,-212 16,-78 56,-144 87,-144 h 24 l -31,50 c -25,41 -32,64 -36,124 -5,81 6,130 44,189 l 24,37 h -24 c -19,0 -31,-11 -51,-44 z"
       id="path10676" />
    <path
       d="m 6399,7551 c 33,-45 51,-107 51,-171 0,-64 -18,-126 -51,-171 l -21,-31 28,4 c 23,2 34,13 59,62 25,51 30,70 30,136 0,66 -5,85 -30,136 -25,49 -36,60 -59,62 l -28,4 z"
       id="path10678" />
    <path
       d="m 6899,7551 c 33,-45 51,-107 51,-171 0,-64 -18,-126 -51,-171 l -21,-31 28,4 c 23,2 34,13 59,62 25,51 30,70 30,136 0,66 -5,85 -30,136 -25,49 -36,60 -59,62 l -28,4 z"
       id="path10680" />
    <path
       d="m 2800,7510 c 0,-43 3,-50 20,-50 17,0 20,7 20,50 0,43 -3,50 -20,50 -17,0 -20,-7 -20,-50 z"
       id="path10682" />
    <path
       d="m 5160,7510 c 0,-43 3,-50 20,-50 17,0 20,7 20,50 0,43 -3,50 -20,50 -17,0 -20,-7 -20,-50 z"
       id="path10684" />
    <path
       d="m 7552,7540 c -54,-51 -55,-189 0,-247 30,-32 96,-32 126,0 54,58 58,186 6,242 -30,32 -99,35 -132,5 z m 106,-38 c 15,-19 16,-145 2,-173 -17,-30 -74,-26 -88,6 -14,31 -16,124 -3,159 15,37 61,41 89,8 z"
       id="path10686" />
    <path
       d="m 3934,7525 c -3,-14 -12,-25 -20,-25 -8,0 -14,-7 -14,-15 0,-8 7,-15 15,-15 12,0 15,-16 15,-88 0,-99 7,-112 58,-112 27,0 33,4 30,18 -2,9 -10,16 -18,14 -22,-5 -30,19 -30,96 0,65 2,72 20,72 11,0 20,7 20,15 0,8 -9,15 -20,15 -15,0 -20,7 -20,25 0,15 -6,25 -15,25 -8,0 -17,-11 -21,-25 z"
       id="path10688" />
    <path
       d="m 4434,7525 c -3,-14 -12,-25 -20,-25 -8,0 -14,-7 -14,-15 0,-8 7,-15 15,-15 12,0 15,-16 15,-88 0,-99 7,-112 58,-112 27,0 33,4 30,18 -2,9 -10,16 -18,14 -22,-5 -30,19 -30,96 0,65 2,72 20,72 11,0 20,7 20,15 0,8 -9,15 -20,15 -15,0 -20,7 -20,25 0,15 -6,25 -15,25 -8,0 -17,-11 -21,-25 z"
       id="path10690" />
    <path
       d="m 6294,7525 c -3,-14 -12,-25 -20,-25 -8,0 -14,-7 -14,-15 0,-8 7,-15 15,-15 12,0 15,-16 15,-88 0,-99 7,-112 58,-112 27,0 33,4 30,18 -2,9 -10,16 -18,14 -22,-5 -30,19 -30,96 0,65 2,72 20,72 11,0 20,7 20,15 0,8 -9,15 -20,15 -15,0 -20,7 -20,25 0,15 -6,25 -15,25 -8,0 -17,-11 -21,-25 z"
       id="path10692" />
    <path
       d="m 6794,7525 c -3,-14 -12,-25 -20,-25 -8,0 -14,-7 -14,-15 0,-8 7,-15 15,-15 12,0 15,-16 15,-88 0,-99 7,-112 58,-112 27,0 33,4 30,18 -2,9 -10,16 -18,14 -22,-5 -30,19 -30,96 0,65 2,72 20,72 11,0 20,7 20,15 0,8 -9,15 -20,15 -15,0 -20,7 -20,25 0,15 -6,25 -15,25 -8,0 -17,-11 -21,-25 z"
       id="path10694" />
    <path
       d="m 425,7477 c -55,-95 -55,-219 0,-314 20,-33 32,-43 52,-43 24,0 25,1 10,18 -76,84 -76,280 0,364 15,17 14,18 -10,18 -20,0 -32,-10 -52,-43 z"
       id="path10696" />
    <path
       d="m 892,7503 c 2,-10 13,-19 26,-21 17,-3 22,2 22,17 0,16 -6,21 -26,21 -19,0 -25,-5 -22,-17 z"
       id="path10698" />
    <path
       d="m 1445,7484 c 32,-47 45,-95 45,-164 0,-69 -13,-117 -45,-164 l -24,-36 h 22 c 43,0 89,102 89,200 0,98 -46,200 -89,200 h -22 z"
       id="path10700" />
    <path
       d="m 4880,7475 v -45 h -40 c -29,0 -40,-4 -40,-15 0,-11 11,-15 40,-15 h 40 v -45 c 0,-38 3,-45 20,-45 17,0 20,7 20,45 v 45 h 45 c 33,0 45,4 45,15 0,11 -12,15 -45,15 h -45 v 45 c 0,38 -3,45 -20,45 -17,0 -20,-7 -20,-45 z"
       id="path10702" />
    <path
       d="m 536,7484 c -33,-32 -32,-116 0,-149 22,-21 68,-19 89,5 26,28 26,112 0,140 -22,24 -67,26 -89,4 z m 68,-30 c 9,-23 7,-77 -3,-92 -5,-8 -17,-12 -27,-10 -15,2 -20,13 -22,47 -2,24 -1,50 2,57 7,19 42,18 50,-2 z"
       id="path10704" />
    <path
       d="m 674,7368 c -99,-152 -102,-158 -80,-158 9,0 51,53 102,132 99,152 102,158 80,158 -9,0 -51,-53 -102,-132 z"
       id="path10706" />
    <path
       d="m 1033,7479 c -20,-12 -33,-29 -33,-41 0,-19 1,-19 25,-4 13,9 27,16 30,16 3,0 5,-47 5,-105 v -105 h -35 c -24,0 -35,-5 -35,-15 0,-12 17,-15 90,-15 72,0 90,3 90,14 0,9 -12,16 -32,18 l -33,3 -3,128 c -3,142 -6,147 -69,106 z"
       id="path10708" />
    <path
       d="m 1235,7475 c -14,-13 -25,-29 -25,-35 0,-22 29,-20 53,4 29,29 39,31 68,16 42,-23 13,-80 -41,-80 -35,0 -21,-34 15,-38 17,-2 36,-8 43,-14 20,-17 14,-56 -13,-74 -29,-19 -60,-11 -81,21 -18,28 -54,24 -47,-6 15,-55 115,-79 165,-39 43,34 41,111 -3,125 -16,5 -15,8 7,30 50,50 10,115 -71,115 -35,0 -52,-6 -70,-25 z"
       id="path10710" />
    <path
       d="m 1901,7483 c -46,-37 -46,-159 0,-195 26,-22 97,-24 126,-3 51,36 55,156 6,195 -33,26 -102,27 -132,3 z m 101,-30 c 24,-22 25,-109 1,-135 -39,-43 -93,-4 -93,67 0,71 49,107 92,68 z"
       id="path10712" />
    <path
       d="m 2356,7475 c -42,-45 -42,-135 0,-180 31,-33 109,-36 142,-5 12,12 22,25 22,30 0,17 -35,15 -52,-2 -34,-34 -81,-16 -94,35 l -6,27 h 81 c 90,0 93,3 67,65 -17,41 -42,55 -96,55 -31,0 -47,-6 -64,-25 z m 106,-22 c 33,-30 23,-43 -37,-43 -59,0 -67,8 -35,40 24,24 47,25 72,3 z"
       id="path10714" />
    <path
       d="m 2572,7478 c 2,-15 11,-24 26,-26 18,-3 22,1 22,22 0,21 -5,26 -26,26 -21,0 -25,-4 -22,-22 z"
       id="path10716" />
    <path
       d="m 3110,7385 v -115 h 25 25 v 115 115 h -25 -25 z"
       id="path10718" />
    <path
       d="m 3570,7485 c 0,-10 15,-15 55,-17 l 55,-3 -60,-84 c -33,-46 -60,-90 -60,-98 0,-10 22,-13 90,-13 72,0 90,3 90,15 0,10 -16,15 -60,17 l -60,3 60,84 c 33,46 60,90 60,98 0,10 -21,13 -85,13 -68,0 -85,-3 -85,-15 z"
       id="path10720" />
    <path
       d="m 5470,7385 v -115 h 25 25 v 115 115 h -25 -25 z"
       id="path10722" />
    <path
       d="m 5910,7496 c 0,-2 18,-52 41,-111 45,-122 45,-151 -1,-168 -39,-15 -39,-37 -1,-37 29,0 53,16 70,48 8,16 101,262 101,269 0,2 -10,3 -23,3 -20,0 -27,-11 -51,-87 l -29,-88 -30,88 c -27,76 -33,87 -54,87 -13,0 -23,-2 -23,-4 z"
       id="path10724" />
    <path
       d="m 7770,7475 c 0,-18 5,-25 20,-25 15,0 20,7 20,25 0,18 -5,25 -20,25 -15,0 -20,-7 -20,-25 z"
       id="path10726" />
    <path
       d="m 7162,7463 c 3,-16 16,-18 103,-18 87,0 100,2 103,18 3,15 -7,17 -103,17 -96,0 -106,-2 -103,-17 z"
       id="path10728" />
    <path
       d="m 890,7325 v -115 h 25 25 v 115 115 h -25 -25 z"
       id="path10730" />
    <path
       d="m 744,7379 c -14,-15 -19,-36 -19,-74 0,-62 23,-95 65,-95 48,0 78,57 66,125 -4,19 -14,41 -22,50 -22,22 -68,19 -90,-6 z m 74,-53 c 5,-56 -5,-86 -27,-86 -22,0 -31,19 -31,65 0,49 9,66 34,63 17,-2 22,-11 24,-42 z"
       id="path10732" />
    <path
       d="m 7167,7374 c -4,-4 -7,-13 -7,-21 0,-10 24,-13 106,-13 95,0 105,2 102,18 -3,14 -17,17 -99,20 -52,1 -98,0 -102,-4 z"
       id="path10734" />
    <path
       d="m 2577,7313 c -4,-3 -7,-15 -7,-25 0,-13 7,-18 25,-18 20,0 25,5 25,25 0,18 -5,25 -18,25 -10,0 -22,-3 -25,-7 z"
       id="path10736" />
    <path
       d="m 4197,7313 c -11,-10 -8,-43 4,-43 7,0 8,-11 4,-30 -5,-23 -3,-30 8,-30 19,0 27,21 27,71 0,31 -4,39 -18,39 -10,0 -22,-3 -25,-7 z"
       id="path10738" />
    <path
       d="m 6557,7313 c -11,-10 -8,-43 4,-43 7,0 8,-11 4,-30 -5,-23 -3,-30 8,-30 19,0 27,21 27,71 0,31 -4,39 -18,39 -10,0 -22,-3 -25,-7 z"
       id="path10740" />
    <path
       d="m 7773,7265 c 1,-35 5,-55 13,-55 16,0 24,24 24,71 0,32 -4,39 -19,39 -17,0 -19,-7 -18,-55 z"
       id="path10742" />
    <path
       d="m 2280,6793 c 0,-37 -3,-44 -12,-35 -7,7 -29,12 -50,12 -51,0 -73,-33 -73,-111 1,-72 21,-99 75,-99 20,0 41,5 48,12 9,9 12,9 12,0 0,-7 9,-12 20,-12 19,0 20,7 20,140 0,133 -1,140 -20,140 -17,0 -20,-7 -20,-47 z m -22,-62 c 8,-4 16,-27 19,-49 9,-67 -38,-117 -75,-80 -16,16 -16,110 0,126 14,14 37,15 56,3 z"
       id="path10744" />
    <path
       d="m 4300,6793 c 0,-37 -3,-44 -12,-35 -7,7 -29,12 -50,12 -51,0 -73,-33 -73,-111 1,-72 21,-99 75,-99 20,0 41,5 48,12 9,9 12,9 12,0 0,-7 9,-12 20,-12 19,0 20,7 20,140 0,133 -1,140 -20,140 -17,0 -20,-7 -20,-47 z m -22,-62 c 8,-4 16,-27 19,-49 9,-67 -38,-117 -75,-80 -16,16 -16,110 0,126 14,14 37,15 56,3 z"
       id="path10746" />
    <path
       d="m 3085,6556 c -57,-97 -57,-215 0,-312 19,-33 32,-44 50,-44 h 24 l -31,50 c -25,41 -32,64 -36,124 -5,81 6,130 44,189 l 24,37 h -24 c -19,0 -31,-11 -51,-44 z"
       id="path10748" />
    <path
       d="m 3419,6571 c 68,-95 68,-247 0,-342 l -21,-31 28,4 c 23,2 34,13 59,62 25,51 30,70 30,136 0,66 -5,85 -30,136 -25,49 -36,60 -59,62 l -28,4 z"
       id="path10750" />
    <path
       d="m 5105,6556 c -57,-97 -57,-215 0,-312 19,-33 32,-44 50,-44 h 24 l -31,50 c -25,41 -32,64 -36,124 -5,81 6,130 44,189 l 24,37 h -24 c -19,0 -31,-11 -51,-44 z"
       id="path10752" />
    <path
       d="m 5439,6571 c 33,-45 51,-107 51,-171 0,-64 -18,-126 -51,-171 l -21,-31 28,4 c 23,2 34,13 59,62 25,51 30,70 30,136 0,66 -5,85 -30,136 -25,49 -36,60 -59,62 l -28,4 z"
       id="path10754" />
    <path
       d="m 5941,6561 c -53,-53 -53,-191 1,-248 23,-25 83,-32 117,-13 61,32 67,224 8,265 -31,22 -102,20 -126,-4 z m 109,-40 c 13,-25 13,-131 0,-165 -7,-20 -17,-26 -39,-26 -43,0 -61,31 -61,105 0,73 18,105 60,105 19,0 33,-7 40,-19 z"
       id="path10756" />
    <path
       d="m 3280,6545 c -5,-14 -16,-25 -25,-25 -17,0 -21,-26 -4,-32 8,-3 8,-20 -1,-63 -6,-33 -10,-76 -8,-95 3,-33 6,-35 41,-38 32,-3 37,0 37,18 0,15 -5,20 -15,17 -22,-9 -26,6 -14,69 15,86 18,94 40,94 10,0 19,7 19,15 0,8 -7,15 -15,15 -9,0 -15,9 -15,25 0,16 -6,25 -15,25 -9,0 -20,-11 -25,-25 z"
       id="path10758" />
    <path
       d="m 5300,6545 c -5,-14 -16,-25 -25,-25 -17,0 -21,-26 -4,-32 8,-3 8,-20 -1,-63 -6,-33 -10,-76 -8,-95 3,-33 6,-35 41,-38 32,-3 37,0 37,18 0,15 -5,20 -15,17 -22,-9 -26,6 -14,69 15,86 18,94 40,94 10,0 19,7 19,15 0,8 -7,15 -15,15 -9,0 -15,9 -15,25 0,16 -6,25 -15,25 -9,0 -20,-11 -25,-25 z"
       id="path10760" />
    <path
       d="m 426,6523 c -38,-55 -52,-131 -37,-196 14,-64 54,-127 81,-127 18,0 18,2 -5,36 -59,87 -59,201 0,288 23,34 23,36 5,36 -11,0 -30,-16 -44,-37 z"
       id="path10762" />
    <path
       d="m 1523,6528 c 32,-43 47,-91 47,-148 0,-57 -15,-105 -47,-147 -22,-31 -23,-33 -5,-33 46,0 86,83 86,180 0,97 -40,180 -86,180 -18,0 -17,-2 5,-32 z"
       id="path10764" />
    <path
       d="m 526,6534 c -24,-23 -30,-61 -17,-104 12,-42 36,-56 76,-46 45,11 57,113 18,151 -19,20 -57,19 -77,-1 z m 65,-31 c 19,-51 -9,-118 -42,-98 -29,18 -15,125 16,125 9,0 20,-12 26,-27 z"
       id="path10766" />
    <path
       d="m 648,6414 c -66,-101 -83,-134 -70,-134 9,0 22,8 28,18 6,9 46,70 88,135 57,87 71,117 58,116 -11,0 -49,-50 -104,-135 z"
       id="path10768" />
    <path
       d="m 1128,6529 c -16,-11 -28,-27 -28,-35 0,-18 14,-18 30,1 24,29 30,14 30,-85 v -100 h -35 c -24,0 -35,-5 -35,-15 0,-12 16,-15 85,-15 69,0 85,3 85,15 0,10 -10,15 -30,15 h -30 v 120 c 0,118 0,120 -22,120 -13,0 -35,-10 -50,-21 z"
       id="path10770" />
    <path
       d="m 1326,6529 c -14,-11 -26,-27 -26,-35 0,-21 33,-17 48,6 16,27 68,27 82,1 13,-25 13,-27 -6,-45 -8,-9 -26,-16 -40,-16 -15,0 -24,-6 -24,-15 0,-8 9,-15 21,-15 36,0 59,-19 59,-48 0,-16 -5,-33 -12,-40 -21,-21 -65,-14 -86,13 -24,30 -42,32 -42,6 0,-29 47,-61 90,-61 52,0 90,32 90,75 0,32 -21,65 -40,65 -5,0 2,11 16,25 66,66 -54,144 -130,84 z"
       id="path10772" />
    <path
       d="m 3680,6495 v -45 h -45 c -33,0 -45,-4 -45,-15 0,-11 12,-15 45,-15 h 45 v -45 c 0,-38 3,-45 20,-45 17,0 20,7 20,45 v 45 h 40 c 29,0 40,4 40,15 0,11 -11,15 -40,15 h -40 v 45 c 0,38 -3,45 -20,45 -17,0 -20,-7 -20,-45 z"
       id="path10774" />
    <path
       d="m 2770,6505 c 0,-10 15,-15 55,-17 l 55,-3 -60,-84 c -33,-46 -60,-90 -60,-98 0,-10 22,-13 90,-13 72,0 90,3 90,15 0,10 -16,15 -60,17 l -60,3 60,84 c 33,46 60,90 60,98 0,10 -21,13 -85,13 -68,0 -85,-3 -85,-15 z"
       id="path10776" />
    <path
       d="m 4770,6516 c 0,-2 18,-52 41,-111 45,-122 45,-151 -1,-168 -36,-14 -39,-37 -6,-37 38,0 56,10 71,41 14,26 105,265 105,274 0,3 -10,5 -23,5 -20,0 -27,-10 -47,-76 -13,-41 -27,-77 -30,-79 -4,-2 -19,32 -35,76 -25,67 -32,79 -52,79 -13,0 -23,-2 -23,-4 z"
       id="path10778" />
    <path
       d="m 5612,6483 c 3,-16 16,-18 103,-18 87,0 100,2 103,18 3,15 -7,17 -103,17 -96,0 -106,-2 -103,-17 z"
       id="path10780" />
    <path
       d="m 890,6472 c -43,-35 -43,-139 1,-174 32,-27 94,-23 124,7 21,20 25,34 25,80 0,46 -4,60 -25,80 -30,31 -92,34 -125,7 z m 98,-24 c 16,-16 16,-110 0,-126 -17,-17 -63,-15 -78,4 -8,8 -13,35 -13,59 0,24 5,51 13,59 15,19 61,21 78,4 z"
       id="path10782" />
    <path
       d="m 714,6413 c -27,-64 0,-133 51,-133 45,0 73,52 61,112 -9,44 -24,58 -63,58 -30,0 -36,-5 -49,-37 z m 77,-7 c 23,-50 -12,-129 -43,-98 -13,13 -15,92 -4,110 12,20 36,14 47,-12 z"
       id="path10784" />
    <path
       d="m 1820,6385 c 0,-13 53,-15 415,-15 362,0 415,2 415,15 0,13 -53,15 -415,15 -362,0 -415,-2 -415,-15 z"
       id="path10786" />
    <path
       d="m 3840,6385 c 0,-13 53,-15 415,-15 362,0 415,2 415,15 0,13 -53,15 -415,15 -362,0 -415,-2 -415,-15 z"
       id="path10788" />
    <path
       d="m 5617,6394 c -4,-4 -7,-13 -7,-21 0,-10 24,-13 106,-13 95,0 105,2 102,18 -3,14 -17,17 -99,20 -52,1 -98,0 -102,-4 z"
       id="path10790" />
    <path
       d="m 2160,6193 c 0,-37 -3,-44 -12,-35 -7,7 -29,12 -50,12 -51,0 -73,-33 -73,-111 1,-72 21,-99 75,-99 20,0 41,5 48,12 9,9 12,9 12,0 0,-7 9,-12 20,-12 19,0 20,7 20,140 0,133 -1,140 -20,140 -17,0 -20,-7 -20,-47 z m -22,-62 c 8,-4 16,-27 19,-49 9,-67 -38,-117 -75,-80 -16,16 -16,110 0,126 14,14 37,15 56,3 z"
       id="path10792" />
    <path
       d="m 4180,6193 c 0,-37 -3,-44 -12,-35 -7,7 -29,12 -50,12 -51,0 -73,-33 -73,-111 1,-72 21,-99 75,-99 20,0 41,5 48,12 9,9 12,9 12,0 0,-7 9,-12 20,-12 19,0 20,7 20,140 0,133 -1,140 -20,140 -17,0 -20,-7 -20,-47 z m -22,-62 c 8,-4 16,-27 19,-49 9,-67 -38,-117 -75,-80 -16,16 -16,110 0,126 14,14 37,15 56,3 z"
       id="path10794" />
    <path
       d="m 2406,6195 c -4,-14 -13,-25 -21,-25 -16,0 -21,-26 -6,-32 5,-2 3,-35 -5,-77 -16,-84 -10,-101 37,-101 19,0 29,5 29,15 0,8 -7,15 -16,15 -14,0 -16,8 -10,53 11,83 17,97 37,97 10,0 19,7 19,15 0,8 -7,15 -15,15 -9,0 -15,9 -15,25 0,15 -6,25 -14,25 -8,0 -17,-11 -20,-25 z"
       id="path10796" />
    <path
       d="m 4426,6195 c -4,-14 -13,-25 -21,-25 -16,0 -21,-26 -6,-32 5,-2 3,-35 -5,-77 -16,-84 -10,-101 37,-101 19,0 29,5 29,15 0,8 -7,15 -16,15 -14,0 -16,8 -10,53 11,83 17,97 37,97 10,0 19,7 19,15 0,8 -7,15 -15,15 -9,0 -15,9 -15,25 0,15 -6,25 -14,25 -8,0 -17,-11 -20,-25 z"
       id="path10798" />
    <path
       d="m 2660,5375 v -155 h 25 25 v 155 155 h -25 -25 z"
       id="path10800" />
    <path
       d="m 3255,5486 c -57,-97 -57,-215 0,-312 19,-33 32,-44 50,-44 h 24 l -31,50 c -25,41 -32,64 -36,124 -5,81 6,130 44,189 l 24,37 h -24 c -19,0 -31,-11 -51,-44 z"
       id="path10802" />
    <path
       d="m 3605,5486 c -57,-97 -57,-215 0,-312 19,-33 32,-44 50,-44 h 24 l -31,50 c -25,41 -32,64 -36,124 -5,81 6,130 44,189 l 24,37 h -24 c -19,0 -31,-11 -51,-44 z"
       id="path10804" />
    <path
       d="m 3819,5501 c 68,-95 68,-247 0,-342 l -21,-31 28,4 c 23,2 34,13 59,62 25,51 30,70 30,136 0,66 -5,85 -30,136 -25,49 -36,60 -59,62 l -28,4 z"
       id="path10806" />
    <path
       d="m 5259,5501 c 33,-45 51,-107 51,-171 0,-64 -18,-126 -51,-171 l -21,-31 28,4 c 23,2 34,13 59,62 25,51 30,70 30,136 0,66 -5,85 -30,136 -25,49 -36,60 -59,62 l -28,4 z"
       id="path10808" />
    <path
       d="m 4592,5490 c -54,-51 -55,-189 0,-247 30,-32 96,-32 126,0 54,58 58,186 6,242 -30,32 -99,35 -132,5 z m 106,-38 c 15,-19 16,-145 2,-173 -17,-30 -74,-26 -88,6 -14,31 -16,124 -3,159 15,37 61,41 89,8 z"
       id="path10810" />
    <path
       d="m 5062,5490 c -54,-51 -55,-189 0,-247 30,-32 96,-32 126,0 54,58 58,186 6,242 -30,32 -99,35 -132,5 z m 106,-38 c 15,-19 16,-145 2,-173 -17,-30 -74,-26 -88,6 -14,31 -16,124 -3,159 15,37 61,41 89,8 z"
       id="path10812" />
    <path
       d="m 2114,5475 c -3,-14 -12,-25 -20,-25 -8,0 -14,-7 -14,-15 0,-8 7,-15 15,-15 12,0 15,-16 15,-88 0,-99 7,-112 58,-112 26,0 33,4 30,18 -2,9 -9,18 -16,18 -6,1 -16,2 -22,3 -6,0 -10,35 -10,81 0,73 2,80 20,80 11,0 20,7 20,15 0,8 -9,15 -20,15 -15,0 -20,7 -20,25 0,15 -6,25 -15,25 -8,0 -17,-11 -21,-25 z"
       id="path10814" />
    <path
       d="m 3714,5475 c -3,-14 -12,-25 -20,-25 -8,0 -14,-7 -14,-15 0,-8 7,-15 15,-15 12,0 15,-16 15,-88 0,-99 7,-112 58,-112 27,0 33,4 30,18 -2,9 -10,16 -18,14 -22,-5 -30,19 -30,96 0,65 2,72 20,72 11,0 20,7 20,15 0,8 -9,15 -20,15 -15,0 -20,7 -20,25 0,15 -6,25 -15,25 -8,0 -17,-11 -21,-25 z"
       id="path10816" />
    <path
       d="m 4214,5475 c -3,-14 -12,-25 -20,-25 -8,0 -14,-7 -14,-15 0,-8 7,-15 15,-15 12,0 15,-16 15,-88 0,-99 7,-112 58,-112 27,0 33,4 30,18 -2,9 -10,16 -18,14 -22,-5 -30,19 -30,96 0,65 2,72 20,72 11,0 20,7 20,15 0,8 -9,15 -20,15 -15,0 -20,7 -20,25 0,15 -6,25 -15,25 -8,0 -17,-11 -21,-25 z"
       id="path10818" />
    <path
       d="m 425,5427 c -55,-95 -55,-219 0,-314 20,-33 32,-43 52,-43 24,0 25,1 10,18 -76,84 -76,280 0,364 15,17 14,18 -10,18 -20,0 -32,-10 -52,-43 z"
       id="path10820" />
    <path
       d="m 892,5453 c 2,-10 13,-19 26,-21 17,-3 22,2 22,17 0,16 -6,21 -26,21 -19,0 -25,-5 -22,-17 z"
       id="path10822" />
    <path
       d="m 1445,5434 c 32,-47 45,-95 45,-164 0,-69 -13,-117 -45,-164 l -24,-36 h 22 c 43,0 89,102 89,200 0,98 -46,200 -89,200 h -22 z"
       id="path10824" />
    <path
       d="m 536,5434 c -33,-32 -32,-116 0,-149 22,-21 68,-19 89,5 26,28 26,112 0,140 -22,24 -67,26 -89,4 z m 68,-30 c 9,-23 7,-77 -3,-92 -5,-8 -17,-12 -27,-10 -15,2 -20,13 -22,47 -2,24 -1,50 2,57 7,19 42,18 50,-2 z"
       id="path10826" />
    <path
       d="m 674,5318 c -99,-152 -102,-158 -80,-158 9,0 51,53 102,132 99,152 102,158 80,158 -9,0 -51,-53 -102,-132 z"
       id="path10828" />
    <path
       d="m 1033,5429 c -20,-12 -33,-29 -33,-41 0,-19 1,-19 25,-4 13,9 27,16 30,16 3,0 5,-47 5,-105 v -105 h -35 c -24,0 -35,-5 -35,-15 0,-12 17,-15 90,-15 72,0 90,3 90,14 0,9 -12,16 -32,18 l -33,3 -3,128 c -3,142 -6,147 -69,106 z"
       id="path10830" />
    <path
       d="m 1262,5357 c -81,-120 -81,-127 3,-127 h 65 v -35 c 0,-28 4,-35 20,-35 16,0 20,7 20,35 0,28 4,35 20,35 11,0 20,7 20,15 0,8 -9,15 -20,15 -19,0 -20,7 -20,95 0,92 -1,95 -22,95 -18,-1 -38,-23 -86,-93 z m 65,-94 c -3,-2 -23,-3 -46,-1 l -40,3 42,61 42,61 3,-60 c 2,-32 1,-61 -1,-64 z"
       id="path10832" />
    <path
       d="m 1890,5423 -21,-27 22,-8 c 17,-6 25,-4 36,12 17,24 46,26 67,4 30,-30 20,-44 -33,-44 -64,0 -95,-24 -95,-73 0,-19 6,-42 13,-51 18,-21 94,-21 112,0 12,14 14,14 25,-1 8,-10 23,-15 40,-13 28,3 47,28 21,28 -21,0 -27,22 -27,100 0,60 -3,71 -22,84 -13,9 -43,16 -69,16 -40,0 -51,-4 -69,-27 z m 120,-108 c 0,-19 -44,-65 -63,-65 -18,0 -37,20 -37,40 0,26 22,40 62,40 28,0 38,-4 38,-15 z"
       id="path10834" />
    <path
       d="m 2201,5443 c 0,-5 17,-55 37,-113 33,-95 40,-105 63,-108 24,-3 29,2 43,40 8,24 27,74 41,112 14,37 25,70 25,72 0,2 -10,4 -23,4 -20,0 -27,-11 -52,-91 l -30,-91 -29,91 c -26,79 -33,91 -53,91 -13,0 -23,-3 -22,-7 z"
       id="path10836" />
    <path
       d="m 2450,5423 -21,-27 22,-8 c 17,-6 25,-4 36,12 17,24 46,26 67,4 30,-30 20,-44 -33,-44 -64,0 -95,-24 -95,-73 0,-19 6,-42 13,-51 18,-21 94,-21 112,0 12,14 14,14 25,-1 8,-10 23,-15 40,-13 28,3 47,28 21,28 -21,0 -27,22 -27,100 0,60 -3,71 -22,84 -13,9 -43,16 -69,16 -40,0 -51,-4 -69,-27 z m 120,-108 c 0,-19 -44,-65 -63,-65 -18,0 -37,20 -37,40 0,26 22,40 62,40 28,0 38,-4 38,-15 z"
       id="path10838" />
    <path
       d="m 2752,5349 c 2,-86 6,-103 22,-115 24,-17 88,-18 104,-2 9,9 12,9 12,0 0,-7 11,-12 25,-12 h 25 v 115 115 h -25 c -25,0 -25,-1 -25,-85 0,-80 -1,-85 -26,-102 -46,-30 -59,-10 -62,96 -3,90 -3,91 -28,91 h -26 z"
       id="path10840" />
    <path
       d="m 3006,5427 c -45,-45 -41,-158 7,-192 32,-22 108,-20 135,5 12,12 22,25 22,30 0,17 -35,15 -52,-2 -10,-10 -27,-18 -38,-18 -26,0 -60,34 -60,60 0,18 7,20 80,20 89,0 92,3 66,65 -17,41 -42,55 -96,55 -29,0 -47,-6 -64,-23 z m 106,-24 c 33,-30 23,-43 -37,-43 -59,0 -67,8 -35,40 24,24 47,25 72,3 z"
       id="path10842" />
    <path
       d="m 3330,5446 c 0,-2 18,-52 41,-111 45,-122 45,-151 -1,-168 -39,-15 -39,-37 -1,-37 29,0 53,16 70,48 8,16 101,262 101,269 0,2 -10,3 -23,3 -20,0 -27,-11 -51,-87 l -29,-88 -30,88 c -27,76 -33,87 -54,87 -13,0 -23,-2 -23,-4 z"
       id="path10844" />
    <path
       d="m 5420,5425 c 0,-18 5,-25 20,-25 15,0 20,7 20,25 0,18 -5,25 -20,25 -15,0 -20,-7 -20,-25 z"
       id="path10846" />
    <path
       d="m 4322,5413 c 3,-16 16,-18 103,-18 87,0 100,2 103,18 3,15 -7,17 -103,17 -96,0 -106,-2 -103,-17 z"
       id="path10848" />
    <path
       d="m 890,5275 v -115 h 25 25 v 115 115 h -25 -25 z"
       id="path10850" />
    <path
       d="m 744,5329 c -14,-15 -19,-36 -19,-74 0,-62 23,-95 65,-95 48,0 78,57 66,125 -4,19 -14,41 -22,50 -22,22 -68,19 -90,-6 z m 74,-53 c 5,-56 -5,-86 -27,-86 -22,0 -31,19 -31,65 0,49 9,66 34,63 17,-2 22,-11 24,-42 z"
       id="path10852" />
    <path
       d="m 4327,5324 c -4,-4 -7,-13 -7,-21 0,-10 24,-13 106,-13 95,0 105,2 102,18 -3,14 -17,17 -99,20 -52,1 -98,0 -102,-4 z"
       id="path10854" />
    <path
       d="m 3977,5263 c -11,-10 -8,-43 4,-43 7,0 8,-11 4,-30 -5,-23 -3,-30 8,-30 19,0 27,21 27,71 0,31 -4,39 -18,39 -10,0 -22,-3 -25,-7 z"
       id="path10856" />
    <path
       d="m 4807,5263 c -11,-10 -8,-43 4,-43 7,0 8,-11 4,-30 -5,-23 -3,-30 8,-30 19,0 27,21 27,71 0,31 -4,39 -18,39 -10,0 -22,-3 -25,-7 z"
       id="path10858" />
    <path
       d="m 5423,5215 c 1,-35 5,-55 13,-55 16,0 24,24 24,71 0,32 -4,39 -19,39 -17,0 -19,-7 -18,-55 z"
       id="path10860" />
    <path
       d="m 1901,4831 c -53,-53 -53,-191 1,-248 23,-25 83,-32 117,-13 61,32 67,224 8,265 -31,22 -102,20 -126,-4 z m 109,-40 c 13,-25 13,-131 0,-165 -7,-20 -17,-26 -39,-26 -43,0 -61,31 -61,105 0,73 18,105 60,105 19,0 33,-7 40,-19 z"
       id="path10862" />
    <path
       d="m 426,4793 c -38,-55 -52,-131 -37,-196 14,-64 54,-127 81,-127 18,0 18,2 -5,36 -59,87 -59,201 0,288 23,34 23,36 5,36 -11,0 -30,-16 -44,-37 z"
       id="path10864" />
    <path
       d="m 1523,4798 c 32,-43 47,-91 47,-148 0,-57 -15,-105 -47,-147 -22,-31 -23,-33 -5,-33 46,0 86,83 86,180 0,97 -40,180 -86,180 -18,0 -17,-2 5,-32 z"
       id="path10866" />
    <path
       d="m 526,4804 c -24,-23 -30,-61 -17,-104 12,-42 36,-56 76,-46 45,11 57,113 18,151 -19,20 -57,19 -77,-1 z m 65,-31 c 19,-51 -9,-118 -42,-98 -29,18 -15,125 16,125 9,0 20,-12 26,-27 z"
       id="path10868" />
    <path
       d="m 648,4684 c -66,-101 -83,-134 -70,-134 9,0 22,8 28,18 6,9 46,70 88,135 57,87 71,117 58,116 -11,0 -49,-50 -104,-135 z"
       id="path10870" />
    <path
       d="m 1128,4799 c -16,-11 -28,-27 -28,-35 0,-18 14,-18 30,1 24,29 30,14 30,-85 v -100 h -35 c -24,0 -35,-5 -35,-15 0,-12 16,-15 85,-15 69,0 85,3 85,15 0,10 -10,15 -30,15 h -30 v 120 c 0,118 0,120 -22,120 -13,0 -35,-10 -50,-21 z"
       id="path10872" />
    <path
       d="m 1350,4730 c -33,-49 -60,-96 -60,-105 0,-12 13,-15 65,-15 h 65 v -30 c 0,-20 5,-30 15,-30 10,0 15,10 15,30 0,23 4,30 20,30 11,0 20,7 20,15 0,8 -9,15 -20,15 -19,0 -20,7 -20,90 0,83 -2,90 -20,90 -13,0 -38,-27 -80,-90 z m 67,-87 c -3,-2 -23,-3 -46,-1 l -41,3 43,64 42,65 3,-63 c 2,-35 1,-65 -1,-68 z"
       id="path10874" />
    <path
       d="m 890,4742 c -43,-35 -43,-139 1,-174 32,-27 94,-23 124,7 21,20 25,34 25,80 0,46 -4,60 -25,80 -30,31 -92,34 -125,7 z m 98,-24 c 16,-16 16,-110 0,-126 -17,-17 -63,-15 -78,4 -8,8 -13,35 -13,59 0,24 5,51 13,59 15,19 61,21 78,4 z"
       id="path10876" />
    <path
       d="m 714,4683 c -27,-64 0,-133 51,-133 45,0 73,52 61,112 -9,44 -24,58 -63,58 -30,0 -36,-5 -49,-37 z m 77,-7 c 23,-50 -12,-129 -43,-98 -13,13 -15,92 -4,110 12,20 36,14 47,-12 z"
       id="path10878" />
    <path
       d="m 2660,3965 v -155 h 25 25 v 155 155 h -25 -25 z"
       id="path10880" />
    <path
       d="m 3255,4076 c -57,-97 -57,-215 0,-312 19,-33 32,-44 50,-44 h 24 l -31,50 c -25,41 -32,64 -36,124 -5,81 6,130 44,189 l 24,37 h -24 c -19,0 -31,-11 -51,-44 z"
       id="path10882" />
    <path
       d="m 3570,4068 c 0,-40 -3,-49 -12,-40 -20,20 -85,15 -107,-9 -40,-43 -34,-176 9,-199 26,-14 83,-13 98,2 9,9 12,9 12,0 0,-7 11,-12 25,-12 h 25 v 155 155 h -25 c -23,0 -25,-3 -25,-52 z m -18,-75 c 26,-23 25,-106 -2,-133 -26,-26 -45,-25 -64,2 -33,46 -11,148 31,148 9,0 25,-7 35,-17 z"
       id="path10884" />
    <path
       d="m 3660,4100 c 0,-15 7,-20 25,-20 18,0 25,5 25,20 0,15 -7,20 -25,20 -18,0 -25,-5 -25,-20 z"
       id="path10886" />
    <path
       d="m 3770,4101 c -5,-11 -10,-29 -10,-40 0,-12 -7,-21 -15,-21 -8,0 -15,-7 -15,-15 0,-8 7,-15 15,-15 12,0 15,-18 15,-100 v -100 h 25 25 v 100 100 h 30 30 v -100 -100 h 25 25 v 100 c 0,93 1,100 20,100 11,0 20,7 20,15 0,8 -9,15 -20,15 -14,0 -20,7 -20,21 0,12 8,23 20,26 34,9 24,33 -15,33 -36,0 -55,-20 -55,-59 0,-17 -6,-21 -30,-21 -24,0 -30,4 -30,21 0,12 8,23 20,26 34,9 24,33 -15,33 -24,0 -37,-6 -45,-19 z"
       id="path10888" />
    <path
       d="m 4025,4076 c -57,-97 -57,-215 0,-312 19,-33 32,-44 50,-44 h 24 l -31,50 c -25,41 -32,64 -36,124 -5,81 6,130 44,189 l 24,37 h -24 c -19,0 -31,-11 -51,-44 z"
       id="path10890" />
    <path
       d="m 4375,4076 c -57,-97 -57,-215 0,-312 19,-33 32,-44 50,-44 h 24 l -31,50 c -25,41 -32,64 -36,124 -5,81 6,130 44,189 l 24,37 h -24 c -19,0 -31,-11 -51,-44 z"
       id="path10892" />
    <path
       d="m 4589,4091 c 33,-45 51,-107 51,-171 0,-64 -18,-126 -51,-171 l -21,-31 28,4 c 23,2 34,13 59,62 25,51 30,70 30,136 0,66 -5,85 -30,136 -25,49 -36,60 -59,62 l -28,4 z"
       id="path10894" />
    <path
       d="m 5089,4091 c 33,-45 51,-107 51,-171 0,-64 -18,-126 -51,-171 l -21,-31 28,4 c 23,2 34,13 59,62 25,51 30,70 30,136 0,66 -5,85 -30,136 -25,49 -36,60 -59,62 l -28,4 z"
       id="path10896" />
    <path
       d="m 6529,4091 c 33,-45 51,-107 51,-171 0,-64 -18,-126 -51,-171 l -21,-31 28,4 c 23,2 34,13 59,62 25,51 30,70 30,136 0,66 -5,85 -30,136 -25,49 -36,60 -59,62 l -28,4 z"
       id="path10898" />
    <path
       d="m 3350,4050 c 0,-43 3,-50 20,-50 17,0 20,7 20,50 0,43 -3,50 -20,50 -17,0 -20,-7 -20,-50 z"
       id="path10900" />
    <path
       d="m 5862,4080 c -54,-51 -55,-189 0,-247 30,-32 96,-32 126,0 54,58 58,186 6,242 -30,32 -99,35 -132,5 z m 106,-38 c 15,-19 16,-145 2,-173 -17,-30 -74,-26 -88,6 -14,31 -16,124 -3,159 15,37 61,41 89,8 z"
       id="path10902" />
    <path
       d="m 6332,4080 c -54,-51 -55,-189 0,-247 30,-32 96,-32 126,0 54,58 58,186 6,242 -30,32 -99,35 -132,5 z m 106,-38 c 15,-19 16,-145 2,-173 -17,-30 -74,-26 -88,6 -14,31 -16,124 -3,159 15,37 61,41 89,8 z"
       id="path10904" />
    <path
       d="m 2114,4065 c -3,-14 -12,-25 -20,-25 -8,0 -14,-7 -14,-15 0,-8 7,-15 15,-15 12,0 15,-16 15,-88 0,-99 7,-112 58,-112 26,0 33,4 30,18 -2,9 -9,18 -16,18 -6,1 -16,2 -22,3 -6,0 -10,35 -10,81 0,73 2,80 20,80 11,0 20,7 20,15 0,8 -9,15 -20,15 -15,0 -20,7 -20,25 0,15 -6,25 -15,25 -8,0 -17,-11 -21,-25 z"
       id="path10906" />
    <path
       d="m 4484,4065 c -3,-14 -12,-25 -20,-25 -8,0 -14,-7 -14,-15 0,-8 7,-15 15,-15 12,0 15,-16 15,-88 0,-99 7,-112 58,-112 27,0 33,4 30,18 -2,9 -10,16 -18,14 -22,-5 -30,19 -30,96 0,65 2,72 20,72 11,0 20,7 20,15 0,8 -9,15 -20,15 -15,0 -20,7 -20,25 0,15 -6,25 -15,25 -8,0 -17,-11 -21,-25 z"
       id="path10908" />
    <path
       d="m 4984,4065 c -3,-14 -12,-25 -20,-25 -8,0 -14,-7 -14,-15 0,-8 7,-15 15,-15 12,0 15,-16 15,-88 0,-99 7,-112 58,-112 27,0 33,4 30,18 -2,9 -10,16 -18,14 -22,-5 -30,19 -30,96 0,65 2,72 20,72 11,0 20,7 20,15 0,8 -9,15 -20,15 -15,0 -20,7 -20,25 0,15 -6,25 -15,25 -8,0 -17,-11 -21,-25 z"
       id="path10910" />
    <path
       d="m 5484,4065 c -3,-14 -12,-25 -20,-25 -8,0 -14,-7 -14,-15 0,-8 7,-15 15,-15 12,0 15,-16 15,-88 0,-99 7,-112 58,-112 27,0 33,4 30,18 -2,9 -10,16 -18,14 -22,-5 -30,19 -30,96 0,65 2,72 20,72 11,0 20,7 20,15 0,8 -9,15 -20,15 -15,0 -20,7 -20,25 0,15 -6,25 -15,25 -8,0 -17,-11 -21,-25 z"
       id="path10912" />
    <path
       d="m 425,4017 c -55,-95 -55,-219 0,-314 20,-33 32,-43 52,-43 24,0 25,1 10,18 -76,84 -76,280 0,364 15,17 14,18 -10,18 -20,0 -32,-10 -52,-43 z"
       id="path10914" />
    <path
       d="m 892,4043 c 2,-10 13,-19 26,-21 17,-3 22,2 22,17 0,16 -6,21 -26,21 -19,0 -25,-5 -22,-17 z"
       id="path10916" />
    <path
       d="m 1445,4024 c 32,-47 45,-95 45,-164 0,-69 -13,-117 -45,-164 l -24,-36 h 22 c 43,0 89,102 89,200 0,98 -46,200 -89,200 h -22 z"
       id="path10918" />
    <path
       d="m 536,4024 c -33,-32 -32,-116 0,-149 22,-21 68,-19 89,5 26,28 26,112 0,140 -22,24 -67,26 -89,4 z m 68,-30 c 9,-23 7,-77 -3,-92 -5,-8 -17,-12 -27,-10 -15,2 -20,13 -22,47 -2,24 -1,50 2,57 7,19 42,18 50,-2 z"
       id="path10920" />
    <path
       d="m 674,3908 c -99,-152 -102,-158 -80,-158 9,0 51,53 102,132 99,152 102,158 80,158 -9,0 -51,-53 -102,-132 z"
       id="path10922" />
    <path
       d="m 1033,4019 c -20,-12 -33,-29 -33,-41 0,-19 1,-19 25,-4 13,9 27,16 30,16 3,0 5,-47 5,-105 v -105 h -35 c -24,0 -35,-5 -35,-15 0,-12 17,-15 90,-15 72,0 90,3 90,14 0,9 -12,16 -32,18 l -33,3 -3,128 c -3,142 -6,147 -69,106 z"
       id="path10924" />
    <path
       d="m 1217,3968 c -3,-40 -4,-74 -1,-77 2,-3 25,1 51,7 61,17 93,-2 93,-53 0,-62 -67,-83 -109,-35 -11,13 -22,16 -36,11 -18,-7 -18,-10 12,-39 26,-26 39,-32 75,-32 55,0 84,20 98,68 22,72 -24,127 -100,120 -39,-3 -40,-3 -40,29 v 32 l 62,3 c 50,2 63,6 66,21 3,15 -6,17 -81,17 h -84 z"
       id="path10926" />
    <path
       d="m 1890,4013 -21,-27 22,-8 c 17,-6 25,-4 36,12 17,24 46,26 67,4 30,-30 20,-44 -33,-44 -64,0 -95,-24 -95,-73 0,-19 6,-42 13,-51 18,-21 94,-21 112,0 12,14 14,14 25,-1 8,-10 23,-15 40,-13 28,3 47,28 21,28 -21,0 -27,22 -27,100 0,60 -3,71 -22,84 -13,9 -43,16 -69,16 -40,0 -51,-4 -69,-27 z m 120,-108 c 0,-19 -44,-65 -63,-65 -18,0 -37,20 -37,40 0,26 22,40 62,40 28,0 38,-4 38,-15 z"
       id="path10928" />
    <path
       d="m 2201,4033 c 0,-5 17,-55 37,-113 33,-95 40,-105 63,-108 24,-3 29,2 43,40 8,24 27,74 41,112 14,37 25,70 25,72 0,2 -10,4 -23,4 -20,0 -27,-11 -52,-91 l -30,-91 -29,91 c -26,79 -33,91 -53,91 -13,0 -23,-3 -22,-7 z"
       id="path10930" />
    <path
       d="m 2450,4013 -21,-27 22,-8 c 17,-6 25,-4 36,12 17,24 46,26 67,4 30,-30 20,-44 -33,-44 -64,0 -95,-24 -95,-73 0,-19 6,-42 13,-51 18,-21 94,-21 112,0 12,14 14,14 25,-1 8,-10 23,-15 40,-13 28,3 47,28 21,28 -21,0 -27,22 -27,100 0,60 -3,71 -22,84 -13,9 -43,16 -69,16 -40,0 -51,-4 -69,-27 z m 120,-108 c 0,-19 -44,-65 -63,-65 -18,0 -37,20 -37,40 0,26 22,40 62,40 28,0 38,-4 38,-15 z"
       id="path10932" />
    <path
       d="m 2752,3939 c 2,-86 6,-103 22,-115 24,-17 88,-18 104,-2 9,9 12,9 12,0 0,-7 11,-12 25,-12 h 25 v 115 115 h -25 c -25,0 -25,-1 -25,-85 0,-80 -1,-85 -26,-102 -46,-30 -59,-10 -62,96 -3,90 -3,91 -28,91 h -26 z"
       id="path10934" />
    <path
       d="m 3006,4017 c -45,-45 -41,-158 7,-192 32,-22 108,-20 135,5 12,12 22,25 22,30 0,17 -35,15 -52,-2 -24,-24 -53,-23 -78,2 -11,11 -20,29 -20,40 0,18 7,20 80,20 89,0 92,3 66,65 -17,41 -42,55 -96,55 -29,0 -47,-6 -64,-23 z m 106,-24 c 33,-30 23,-43 -37,-43 -59,0 -67,8 -35,40 24,24 47,25 72,3 z"
       id="path10936" />
    <path
       d="m 3660,3925 v -115 h 25 25 v 115 115 h -25 -25 z"
       id="path10938" />
    <path
       d="m 4100,4036 c 0,-2 18,-52 41,-111 45,-122 45,-151 -1,-168 -39,-15 -39,-37 -1,-37 29,0 53,16 70,48 8,16 101,262 101,269 0,2 -10,3 -23,3 -20,0 -27,-11 -51,-87 l -29,-88 -30,88 c -27,76 -33,87 -54,87 -13,0 -23,-2 -23,-4 z"
       id="path10940" />
    <path
       d="m 6690,4015 c 0,-18 5,-25 20,-25 15,0 20,7 20,25 0,18 -5,25 -20,25 -15,0 -20,-7 -20,-25 z"
       id="path10942" />
    <path
       d="m 5592,4003 c 3,-16 16,-18 103,-18 87,0 100,2 103,18 3,15 -7,17 -103,17 -96,0 -106,-2 -103,-17 z"
       id="path10944" />
    <path
       d="m 890,3865 v -115 h 25 25 v 115 115 h -25 -25 z"
       id="path10946" />
    <path
       d="m 744,3919 c -14,-15 -19,-36 -19,-74 0,-62 23,-95 65,-95 48,0 78,57 66,125 -4,19 -14,41 -22,50 -22,22 -68,19 -90,-6 z m 74,-53 c 5,-56 -5,-86 -27,-86 -22,0 -31,19 -31,65 0,49 9,66 34,63 17,-2 22,-11 24,-42 z"
       id="path10948" />
    <path
       d="m 5597,3914 c -4,-4 -7,-13 -7,-21 0,-10 24,-13 106,-13 95,0 105,2 102,18 -3,14 -17,17 -99,20 -52,1 -98,0 -102,-4 z"
       id="path10950" />
    <path
       d="m 4747,3853 c -11,-10 -8,-43 4,-43 7,0 8,-11 4,-30 -5,-23 -3,-30 8,-30 19,0 27,21 27,71 0,31 -4,39 -18,39 -10,0 -22,-3 -25,-7 z"
       id="path10952" />
    <path
       d="m 5247,3853 c -11,-10 -8,-43 4,-43 7,0 8,-11 4,-30 -5,-23 -3,-30 8,-30 19,0 27,21 27,71 0,31 -4,39 -18,39 -10,0 -22,-3 -25,-7 z"
       id="path10954" />
    <path
       d="m 6077,3853 c -11,-10 -8,-43 4,-43 7,0 8,-11 4,-30 -5,-23 -3,-30 8,-30 19,0 27,21 27,71 0,31 -4,39 -18,39 -10,0 -22,-3 -25,-7 z"
       id="path10956" />
    <path
       d="m 6693,3805 c 1,-35 5,-55 13,-55 16,0 24,24 24,71 0,32 -4,39 -19,39 -17,0 -19,-7 -18,-55 z"
       id="path10958" />
    <path
       d="m 1901,3421 c -53,-53 -53,-191 1,-248 23,-25 83,-32 117,-13 61,32 67,224 8,265 -31,22 -102,20 -126,-4 z m 109,-40 c 13,-25 13,-131 0,-165 -7,-20 -17,-26 -39,-26 -43,0 -61,31 -61,105 0,73 18,105 60,105 19,0 33,-7 40,-19 z"
       id="path10960" />
    <path
       d="m 426,3383 c -38,-55 -52,-131 -37,-196 14,-64 54,-127 81,-127 18,0 18,2 -5,36 -59,87 -59,201 0,288 23,34 23,36 5,36 -11,0 -30,-16 -44,-37 z"
       id="path10962" />
    <path
       d="m 1523,3388 c 32,-43 47,-91 47,-148 0,-57 -15,-105 -47,-147 -22,-31 -23,-33 -5,-33 46,0 86,83 86,180 0,97 -40,180 -86,180 -18,0 -17,-2 5,-32 z"
       id="path10964" />
    <path
       d="m 526,3394 c -24,-23 -30,-61 -17,-104 12,-42 36,-56 76,-46 45,11 57,113 18,151 -19,20 -57,19 -77,-1 z m 65,-31 c 19,-51 -9,-118 -42,-98 -29,18 -15,125 16,125 9,0 20,-12 26,-27 z"
       id="path10966" />
    <path
       d="m 648,3274 c -66,-101 -83,-134 -70,-134 9,0 22,8 28,18 6,9 46,70 88,135 57,87 71,117 58,116 -11,0 -49,-50 -104,-135 z"
       id="path10968" />
    <path
       d="m 1128,3389 c -16,-11 -28,-27 -28,-35 0,-18 14,-18 30,1 24,29 30,14 30,-85 v -100 h -35 c -24,0 -35,-5 -35,-15 0,-12 16,-15 85,-15 69,0 85,3 85,15 0,10 -10,15 -30,15 h -30 v 120 c 0,118 0,120 -22,120 -13,0 -35,-10 -50,-21 z"
       id="path10970" />
    <path
       d="m 1310,3378 c 0,-18 -3,-50 -7,-72 -7,-43 -8,-42 77,-21 37,9 63,-15 62,-56 -1,-56 -64,-80 -99,-39 -20,22 -43,27 -43,8 1,-56 110,-79 155,-33 35,34 35,96 -1,132 -22,22 -32,25 -70,20 l -45,-5 3,32 c 3,31 4,31 66,34 46,2 62,7 62,17 0,12 -17,15 -80,15 h -80 z"
       id="path10972" />
    <path
       d="m 890,3332 c -43,-35 -43,-139 1,-174 32,-27 94,-23 124,7 21,20 25,34 25,80 0,46 -4,60 -25,80 -30,31 -92,34 -125,7 z m 98,-24 c 16,-16 16,-110 0,-126 -17,-17 -63,-15 -78,4 -8,8 -13,35 -13,59 0,24 5,51 13,59 15,19 61,21 78,4 z"
       id="path10974" />
    <path
       d="m 714,3273 c -27,-64 0,-133 51,-133 45,0 73,52 61,112 -9,44 -24,58 -63,58 -30,0 -36,-5 -49,-37 z m 77,-7 c 23,-50 -12,-129 -43,-98 -13,13 -15,92 -4,110 12,20 36,14 47,-12 z"
       id="path10976" />
    <path
       d="m 2660,2555 v -155 h 25 25 v 155 155 h -25 -25 z"
       id="path10978" />
    <path
       d="m 3255,2666 c -57,-97 -57,-215 0,-312 19,-33 32,-44 50,-44 h 24 l -31,50 c -25,41 -32,64 -36,124 -5,81 6,130 44,189 l 24,37 h -24 c -19,0 -31,-11 -51,-44 z"
       id="path10980" />
    <path
       d="m 3605,2666 c -57,-97 -57,-215 0,-312 19,-33 32,-44 50,-44 h 24 l -31,50 c -25,41 -32,64 -36,124 -5,81 6,130 44,189 l 24,37 h -24 c -19,0 -31,-11 -51,-44 z"
       id="path10982" />
    <path
       d="m 3819,2681 c 33,-45 51,-107 51,-171 0,-64 -18,-126 -51,-171 l -21,-31 28,4 c 23,2 34,13 59,62 25,51 30,70 30,136 0,66 -5,85 -30,136 -25,49 -36,60 -59,62 l -28,4 z"
       id="path10984" />
    <path
       d="m 5259,2681 c 33,-45 51,-107 51,-171 0,-64 -18,-126 -51,-171 l -21,-31 28,4 c 23,2 34,13 59,62 25,51 30,70 30,136 0,66 -5,85 -30,136 -25,49 -36,60 -59,62 l -28,4 z"
       id="path10986" />
    <path
       d="m 4592,2670 c -54,-51 -55,-189 0,-247 30,-32 96,-32 126,0 54,58 58,186 6,242 -30,32 -99,35 -132,5 z m 106,-38 c 15,-19 16,-145 2,-173 -17,-30 -74,-26 -88,6 -14,31 -16,124 -3,159 15,37 61,41 89,8 z"
       id="path10988" />
    <path
       d="m 5078,2667 c -16,-13 -28,-30 -28,-40 0,-21 13,-22 30,-2 24,29 30,14 30,-85 v -100 h -35 c -28,0 -35,-4 -35,-20 0,-19 7,-20 96,-20 86,0 95,2 92,18 -2,11 -14,18 -36,20 l -32,3 v 125 124 h -27 c -16,-1 -40,-11 -55,-23 z"
       id="path10990" />
    <path
       d="m 2114,2655 c -3,-14 -12,-25 -20,-25 -8,0 -14,-7 -14,-15 0,-8 7,-15 15,-15 12,0 15,-16 15,-88 0,-99 7,-112 58,-112 26,0 33,4 30,18 -2,9 -9,18 -16,18 -6,1 -16,2 -22,3 -6,0 -10,35 -10,81 0,73 2,80 20,80 11,0 20,7 20,15 0,8 -9,15 -20,15 -15,0 -20,7 -20,25 0,15 -6,25 -15,25 -8,0 -17,-11 -21,-25 z"
       id="path10992" />
    <path
       d="m 3714,2655 c -3,-14 -12,-25 -20,-25 -8,0 -14,-7 -14,-15 0,-8 7,-15 15,-15 12,0 15,-16 15,-88 0,-99 7,-112 58,-112 27,0 33,4 30,18 -2,9 -10,16 -18,14 -22,-5 -30,19 -30,96 0,65 2,72 20,72 11,0 20,7 20,15 0,8 -9,15 -20,15 -15,0 -20,7 -20,25 0,15 -6,25 -15,25 -8,0 -17,-11 -21,-25 z"
       id="path10994" />
    <path
       d="m 4214,2655 c -3,-14 -12,-25 -20,-25 -8,0 -14,-7 -14,-15 0,-8 7,-15 15,-15 12,0 15,-16 15,-88 0,-99 7,-112 58,-112 27,0 33,4 30,18 -2,9 -10,16 -18,14 -22,-5 -30,19 -30,96 0,65 2,72 20,72 11,0 20,7 20,15 0,8 -9,15 -20,15 -15,0 -20,7 -20,25 0,15 -6,25 -15,25 -8,0 -17,-11 -21,-25 z"
       id="path10996" />
    <path
       d="m 425,2607 c -55,-95 -55,-219 0,-314 20,-33 32,-43 52,-43 24,0 25,1 10,18 -76,84 -76,280 0,364 15,17 14,18 -10,18 -20,0 -32,-10 -52,-43 z"
       id="path10998" />
    <path
       d="m 892,2633 c 2,-10 13,-19 26,-21 17,-3 22,2 22,17 0,16 -6,21 -26,21 -19,0 -25,-5 -22,-17 z"
       id="path11000" />
    <path
       d="m 1445,2614 c 32,-47 45,-95 45,-164 0,-69 -13,-117 -45,-164 l -24,-36 h 22 c 43,0 89,102 89,200 0,98 -46,200 -89,200 h -22 z"
       id="path11002" />
    <path
       d="m 536,2614 c -33,-32 -32,-116 0,-149 22,-21 68,-19 89,5 26,28 26,112 0,140 -22,24 -67,26 -89,4 z m 68,-30 c 9,-23 7,-77 -3,-92 -5,-8 -17,-12 -27,-10 -15,2 -20,13 -22,47 -2,24 -1,50 2,57 7,19 42,18 50,-2 z"
       id="path11004" />
    <path
       d="m 674,2498 c -99,-152 -102,-158 -80,-158 9,0 51,53 102,132 99,152 102,158 80,158 -9,0 -51,-53 -102,-132 z"
       id="path11006" />
    <path
       d="m 1033,2609 c -20,-12 -33,-29 -33,-41 0,-19 1,-19 25,-4 13,9 27,16 30,16 3,0 5,-47 5,-105 v -105 h -35 c -24,0 -35,-5 -35,-15 0,-12 17,-15 90,-15 72,0 90,3 90,14 0,9 -12,16 -32,18 l -33,3 -3,128 c -3,142 -6,147 -69,106 z"
       id="path11008" />
    <path
       d="m 1252,2608 c -29,-32 -42,-71 -42,-129 0,-59 21,-113 48,-128 30,-16 84,-13 109,4 25,18 44,74 36,107 -14,58 -80,86 -135,57 -19,-10 -20,-9 -14,17 13,53 73,79 97,42 4,-5 17,-8 30,-6 l 24,3 -27,28 c -35,35 -94,38 -126,5 z m 92,-124 c 9,-8 16,-31 16,-49 0,-68 -76,-82 -100,-19 -14,35 -13,41 10,64 24,24 53,26 74,4 z"
       id="path11010" />
    <path
       d="m 1890,2603 -21,-27 22,-8 c 17,-6 25,-4 36,12 17,24 46,26 67,4 30,-30 20,-44 -33,-44 -64,0 -95,-24 -95,-73 0,-19 6,-42 13,-51 18,-21 94,-21 112,0 12,14 14,14 25,-1 8,-10 23,-15 40,-13 28,3 47,28 21,28 -21,0 -27,22 -27,100 0,60 -3,71 -22,84 -13,9 -43,16 -69,16 -40,0 -51,-4 -69,-27 z m 120,-108 c 0,-19 -44,-65 -63,-65 -18,0 -37,20 -37,40 0,26 22,40 62,40 28,0 38,-4 38,-15 z"
       id="path11012" />
    <path
       d="m 2201,2623 c 0,-5 17,-55 37,-113 33,-95 40,-105 63,-108 24,-3 29,2 43,40 8,24 27,74 41,112 14,37 25,70 25,72 0,2 -10,4 -23,4 -20,0 -27,-11 -52,-91 l -30,-91 -29,91 c -26,79 -33,91 -53,91 -13,0 -23,-3 -22,-7 z"
       id="path11014" />
    <path
       d="m 2450,2603 -21,-27 22,-8 c 17,-6 25,-4 36,12 17,24 46,26 67,4 30,-30 20,-44 -33,-44 -64,0 -95,-24 -95,-73 0,-19 6,-42 13,-51 18,-21 94,-21 112,0 12,14 14,14 25,-1 8,-10 23,-15 40,-13 28,3 47,28 21,28 -21,0 -27,22 -27,100 0,60 -3,71 -22,84 -13,9 -43,16 -69,16 -40,0 -51,-4 -69,-27 z m 120,-108 c 0,-19 -44,-65 -63,-65 -18,0 -37,20 -37,40 0,26 22,40 62,40 28,0 38,-4 38,-15 z"
       id="path11016" />
    <path
       d="m 2752,2529 c 2,-86 6,-103 22,-115 24,-17 88,-18 104,-2 9,9 12,9 12,0 0,-7 11,-12 25,-12 h 25 v 115 115 h -25 c -25,0 -25,-1 -25,-85 0,-80 -1,-85 -26,-102 -46,-30 -59,-10 -62,96 -3,90 -3,91 -28,91 h -26 z"
       id="path11018" />
    <path
       d="m 3006,2607 c -45,-45 -41,-158 7,-192 32,-22 108,-20 135,5 12,12 22,25 22,30 0,17 -35,15 -52,-2 -24,-24 -53,-23 -78,2 -11,11 -20,29 -20,40 0,18 7,20 80,20 89,0 92,3 66,65 -17,41 -42,55 -96,55 -29,0 -47,-6 -64,-23 z m 106,-24 c 33,-30 23,-43 -37,-43 -59,0 -67,8 -35,40 24,24 47,25 72,3 z"
       id="path11020" />
    <path
       d="m 3350,2615 c 0,-10 15,-15 55,-17 l 55,-3 -60,-84 c -33,-46 -60,-90 -60,-98 0,-10 22,-13 90,-13 72,0 90,3 90,15 0,10 -16,15 -60,17 l -60,3 60,84 c 33,46 60,90 60,98 0,10 -21,13 -85,13 -68,0 -85,-3 -85,-15 z"
       id="path11022" />
    <path
       d="m 5420,2605 c 0,-18 5,-25 20,-25 15,0 20,7 20,25 0,18 -5,25 -20,25 -15,0 -20,-7 -20,-25 z"
       id="path11024" />
    <path
       d="m 4322,2593 c 3,-16 16,-18 103,-18 87,0 100,2 103,18 3,15 -7,17 -103,17 -96,0 -106,-2 -103,-17 z"
       id="path11026" />
    <path
       d="m 890,2455 v -115 h 25 25 v 115 115 h -25 -25 z"
       id="path11028" />
    <path
       d="m 744,2509 c -14,-15 -19,-36 -19,-74 0,-62 23,-95 65,-95 48,0 78,57 66,125 -4,19 -14,41 -22,50 -22,22 -68,19 -90,-6 z m 74,-53 c 5,-56 -5,-86 -27,-86 -22,0 -31,19 -31,65 0,49 9,66 34,63 17,-2 22,-11 24,-42 z"
       id="path11030" />
    <path
       d="m 4327,2504 c -4,-4 -7,-13 -7,-21 0,-10 24,-13 106,-13 95,0 105,2 102,18 -3,14 -17,17 -99,20 -52,1 -98,0 -102,-4 z"
       id="path11032" />
    <path
       d="m 3977,2443 c -11,-10 -8,-43 4,-43 7,0 8,-11 4,-30 -5,-23 -3,-30 8,-30 19,0 27,21 27,71 0,31 -4,39 -18,39 -10,0 -22,-3 -25,-7 z"
       id="path11034" />
    <path
       d="m 4807,2443 c -11,-10 -8,-43 4,-43 7,0 8,-11 4,-30 -5,-23 -3,-30 8,-30 19,0 27,21 27,71 0,31 -4,39 -18,39 -10,0 -22,-3 -25,-7 z"
       id="path11036" />
    <path
       d="m 5423,2395 c 1,-35 5,-55 13,-55 16,0 24,24 24,71 0,32 -4,39 -19,39 -17,0 -19,-7 -18,-55 z"
       id="path11038" />
    <path
       d="m 1918,2009 c -16,-11 -28,-29 -28,-40 0,-23 4,-23 35,-3 l 25,16 v -101 -101 h -35 c -28,0 -35,-4 -35,-20 0,-19 7,-20 96,-20 86,0 95,2 92,18 -2,11 -14,18 -36,20 l -32,3 v 125 124 h -27 c -16,0 -40,-10 -55,-21 z"
       id="path11040" />
    <path
       d="m 426,1973 c -38,-55 -52,-131 -37,-196 14,-64 54,-127 81,-127 18,0 18,2 -5,36 -59,87 -59,201 0,288 23,34 23,36 5,36 -11,0 -30,-16 -44,-37 z"
       id="path11042" />
    <path
       d="m 1523,1978 c 32,-43 47,-91 47,-148 0,-57 -15,-105 -47,-147 -22,-31 -23,-33 -5,-33 46,0 86,83 86,180 0,97 -40,180 -86,180 -18,0 -17,-2 5,-32 z"
       id="path11044" />
    <path
       d="m 526,1984 c -24,-23 -30,-61 -17,-104 12,-42 36,-56 76,-46 45,11 57,113 18,151 -19,20 -57,19 -77,-1 z m 65,-31 c 19,-51 -9,-118 -42,-98 -29,18 -15,125 16,125 9,0 20,-12 26,-27 z"
       id="path11046" />
    <path
       d="m 648,1864 c -66,-101 -83,-134 -70,-134 9,0 22,8 28,18 6,9 46,70 88,135 57,87 71,117 58,116 -11,0 -49,-50 -104,-135 z"
       id="path11048" />
    <path
       d="m 1128,1979 c -16,-11 -28,-27 -28,-35 0,-18 14,-18 30,1 24,29 30,14 30,-85 v -100 h -35 c -24,0 -35,-5 -35,-15 0,-12 16,-15 85,-15 69,0 85,3 85,15 0,10 -10,15 -30,15 h -30 v 120 c 0,118 0,120 -22,120 -13,0 -35,-10 -50,-21 z"
       id="path11050" />
    <path
       d="m 1340,1980 c -29,-29 -40,-63 -40,-121 0,-84 35,-129 100,-129 68,0 107,95 62,151 -20,23 -70,31 -104,15 -14,-6 -18,-4 -18,11 0,50 61,83 90,48 16,-19 40,-19 40,-1 0,43 -95,61 -130,26 z m 85,-114 c 21,-15 25,-67 5,-90 -29,-36 -90,-5 -90,45 0,50 45,74 85,45 z"
       id="path11052" />
    <path
       d="m 890,1922 c -43,-35 -43,-139 1,-174 32,-27 94,-23 124,7 21,20 25,34 25,80 0,46 -4,60 -25,80 -30,31 -92,34 -125,7 z m 98,-24 c 16,-16 16,-110 0,-126 -17,-17 -63,-15 -78,4 -8,8 -13,35 -13,59 0,24 5,51 13,59 15,19 61,21 78,4 z"
       id="path11054" />
    <path
       d="m 714,1863 c -27,-64 0,-133 51,-133 45,0 73,52 61,112 -9,44 -24,58 -63,58 -30,0 -36,-5 -49,-37 z m 77,-7 c 23,-50 -12,-129 -43,-98 -13,13 -15,92 -4,110 12,20 36,14 47,-12 z"
       id="path11056" />
    <path
       d="M 1870,1145 V 990 h 25 25 v 155 155 h -25 -25 z"
       id="path11058" />
    <path
       d="m 3020,1248 c 0,-40 -3,-49 -12,-40 -19,19 -82,15 -102,-7 -40,-44 -43,-149 -5,-190 22,-23 92,-30 105,-10 4,8 9,8 17,0 6,-6 19,-11 29,-11 17,0 18,12 18,155 v 155 h -25 c -23,0 -25,-3 -25,-52 z m -15,-74 c 12,-12 15,-31 13,-72 -3,-50 -6,-58 -31,-72 -27,-14 -29,-14 -48,9 -37,46 -16,151 31,151 10,0 26,-7 35,-16 z"
       id="path11060" />
    <path
       d="M 3580,1145 V 990 h 25 25 v 155 155 h -25 -25 z"
       id="path11062" />
    <path
       d="M 4130,1145 V 990 h 25 25 v 155 155 h -25 -25 z"
       id="path11064" />
    <path
       d="m 4935,1256 c -57,-97 -57,-215 0,-312 19,-33 32,-44 50,-44 h 24 l -31,50 c -25,41 -32,64 -36,124 -5,81 6,130 44,189 l 24,37 h -24 c -19,0 -31,-11 -51,-44 z"
       id="path11066" />
    <path
       d="m 5400,1248 c 0,-40 -3,-49 -12,-40 -19,19 -82,15 -102,-7 -40,-44 -43,-149 -5,-190 22,-23 92,-30 105,-10 4,8 9,8 17,0 6,-6 19,-11 29,-11 17,0 18,12 18,155 v 155 h -25 c -23,0 -25,-3 -25,-52 z m -15,-74 c 12,-12 15,-31 13,-72 -3,-50 -6,-58 -31,-72 -27,-14 -29,-14 -48,9 -37,46 -16,151 31,151 10,0 26,-7 35,-16 z"
       id="path11068" />
    <path
       d="m 6529,1271 c 33,-45 51,-107 51,-171 0,-64 -18,-126 -51,-171 l -21,-31 28,4 c 23,2 34,13 59,62 25,51 30,70 30,136 0,66 -5,85 -30,136 -25,49 -36,60 -59,62 l -28,4 z"
       id="path11070" />
    <path
       d="m 5974,1245 c -3,-14 -12,-25 -20,-25 -8,0 -14,-7 -14,-15 0,-8 7,-15 15,-15 12,0 15,-16 15,-88 0,-99 7,-112 58,-112 27,0 33,4 30,18 -2,9 -10,16 -18,14 -22,-5 -30,19 -30,96 0,65 2,72 20,72 11,0 20,7 20,15 0,8 -9,15 -20,15 -15,0 -20,7 -20,25 0,15 -6,25 -15,25 -8,0 -17,-11 -21,-25 z"
       id="path11072" />
    <path
       d="m 425,1197 c -37,-64 -50,-144 -36,-214 16,-80 55,-143 88,-143 24,0 25,1 10,18 -76,84 -76,280 0,364 15,17 14,18 -10,18 -20,0 -32,-10 -52,-43 z"
       id="path11074" />
    <path
       d="m 892,1223 c 2,-10 13,-19 26,-21 17,-3 22,2 22,17 0,16 -6,21 -26,21 -19,0 -25,-5 -22,-17 z"
       id="path11076" />
    <path
       d="m 1445,1204 c 32,-47 45,-95 45,-164 0,-69 -13,-117 -45,-164 l -24,-36 h 22 c 43,0 89,102 89,200 0,98 -46,200 -89,200 h -22 z"
       id="path11078" />
    <path
       d="m 536,1204 c -33,-32 -32,-116 0,-149 22,-21 68,-19 89,5 26,28 26,112 0,140 -22,24 -67,26 -89,4 z m 68,-30 c 9,-23 7,-77 -3,-92 -5,-8 -17,-12 -27,-10 -15,2 -20,13 -22,47 -2,24 -1,50 2,57 7,19 42,18 50,-2 z"
       id="path11080" />
    <path
       d="M 674,1088 C 575,936 572,930 594,930 c 9,0 51,53 102,132 99,152 102,158 80,158 -9,0 -51,-53 -102,-132 z"
       id="path11082" />
    <path
       d="m 1033,1199 c -20,-12 -33,-29 -33,-41 0,-19 1,-19 25,-4 13,9 27,16 30,16 3,0 5,-47 5,-105 V 960 h -35 c -24,0 -35,-5 -35,-15 0,-12 17,-15 90,-15 72,0 90,3 90,14 0,9 -12,16 -32,18 l -33,3 -3,128 c -3,142 -6,147 -69,106 z"
       id="path11084" />
    <path
       d="m 1212,1203 c 3,-15 16,-19 71,-21 38,-2 67,-6 65,-10 -50,-97 -79,-165 -84,-199 -6,-41 -5,-43 18,-43 23,0 26,5 30,51 4,34 20,79 47,131 22,44 41,86 41,94 0,11 -20,14 -96,14 -86,0 -95,-2 -92,-17 z"
       id="path11086" />
    <path
       d="m 1992,1204 c -26,-18 -29,-39 -6,-48 10,-4 23,3 34,16 15,19 22,21 46,13 18,-7 30,-19 32,-33 3,-20 -1,-22 -43,-22 -56,0 -83,-13 -95,-46 -10,-26 2,-73 23,-86 21,-13 84,-9 97,7 12,14 15,14 31,-1 19,-18 60,-16 67,4 2,6 -3,12 -11,12 -21,0 -27,22 -27,100 0,60 -3,71 -22,84 -12,9 -41,16 -63,16 -22,0 -51,-7 -63,-16 z m 108,-118 c 0,-21 -40,-66 -59,-66 -21,0 -41,19 -41,40 0,26 22,40 62,40 25,0 38,-5 38,-14 z"
       id="path11088" />
    <path
       d="M 2190,1060 V 900 h 25 c 24,0 25,3 25,57 0,44 3,54 12,45 14,-14 72,-16 98,-2 21,11 40,60 40,105 0,45 -19,94 -40,105 -26,14 -84,12 -98,-2 -9,-9 -12,-9 -12,0 0,7 -11,12 -25,12 h -25 z m 134,114 c 11,-10 16,-34 16,-69 0,-57 -16,-85 -50,-85 -47,0 -69,111 -30,150 24,24 43,25 64,4 z"
       id="path11090" />
    <path
       d="m 2681,1203 c -46,-37 -46,-159 0,-195 26,-22 97,-24 126,-3 51,36 55,156 6,195 -33,26 -102,27 -132,3 z m 101,-30 c 24,-22 25,-109 1,-135 -39,-43 -93,-4 -93,67 0,71 49,107 92,68 z"
       id="path11092" />
    <path
       d="m 3136,1195 c -42,-45 -42,-135 0,-180 31,-33 109,-36 142,-5 12,12 22,25 22,30 0,17 -35,15 -52,-2 -34,-34 -81,-16 -94,35 l -6,27 h 81 c 90,0 93,3 67,65 -17,41 -42,55 -96,55 -31,0 -47,-6 -64,-25 z m 106,-22 c 33,-30 23,-43 -37,-43 -59,0 -67,8 -35,40 24,24 47,25 72,3 z"
       id="path11094" />
    <path
       d="m 3352,1198 c 2,-15 11,-24 26,-26 18,-3 22,1 22,22 0,21 -5,26 -26,26 -21,0 -25,-4 -22,-22 z"
       id="path11096" />
    <path
       d="m 3690,1193 -21,-27 22,-8 c 17,-6 25,-4 36,12 17,24 46,26 67,4 30,-30 20,-44 -33,-44 -64,0 -95,-24 -95,-73 0,-19 6,-42 13,-51 18,-21 94,-21 112,0 12,14 14,14 25,-1 8,-10 23,-15 40,-13 28,3 47,28 21,28 -21,0 -27,22 -27,100 0,60 -3,71 -22,84 -13,9 -43,16 -69,16 -40,0 -51,-4 -69,-27 z m 120,-108 c 0,-19 -44,-65 -63,-65 -18,0 -37,20 -37,40 0,26 22,40 62,40 28,0 38,-4 38,-15 z"
       id="path11098" />
    <path
       d="M 3900,1060 V 900 h 25 c 24,0 25,3 25,57 0,44 3,54 12,45 19,-19 85,-15 107,7 42,42 36,177 -9,201 -26,14 -83,13 -98,-2 -9,-9 -12,-9 -12,0 0,7 -11,12 -25,12 h -25 z m 132,113 c 13,-12 18,-30 18,-69 0,-56 -17,-84 -50,-84 -47,0 -69,111 -30,150 24,24 38,25 62,3 z"
       id="path11100" />
    <path
       d="m 4240,1193 -21,-27 22,-8 c 17,-6 25,-4 36,12 17,24 46,26 67,4 30,-30 20,-44 -33,-44 -64,0 -95,-24 -95,-73 0,-19 6,-42 13,-51 18,-21 94,-21 112,0 12,14 14,14 25,-1 8,-10 23,-15 40,-13 28,3 47,28 21,28 -21,0 -27,22 -27,100 0,60 -3,71 -22,84 -13,9 -43,16 -69,16 -40,0 -51,-4 -69,-27 z m 120,-108 c 0,-19 -44,-65 -63,-65 -18,0 -37,20 -37,40 0,26 22,40 62,40 28,0 38,-4 38,-15 z"
       id="path11102" />
    <path
       d="m 4476,1197 c -45,-45 -41,-158 7,-192 34,-24 94,-19 122,10 14,13 25,31 25,40 0,23 -30,18 -56,-10 -28,-30 -38,-31 -64,-5 -14,14 -20,33 -20,65 0,44 24,85 50,85 6,0 19,-9 30,-20 20,-20 60,-28 60,-11 0,4 -9,20 -21,35 -28,36 -99,37 -133,3 z"
       id="path11104" />
    <path
       d="m 4686,1197 c -45,-45 -41,-158 7,-192 32,-22 108,-20 135,5 12,12 22,25 22,30 0,17 -35,15 -52,-2 -24,-24 -53,-23 -78,2 -11,11 -20,29 -20,40 0,18 7,20 80,20 89,0 92,3 66,65 -17,41 -42,55 -96,55 -29,0 -47,-6 -64,-23 z m 106,-24 c 33,-30 23,-43 -37,-43 -59,0 -67,8 -35,40 24,24 47,25 72,3 z"
       id="path11106" />
    <path
       d="m 5061,1203 c -46,-37 -46,-159 0,-195 26,-22 97,-24 126,-3 51,36 55,156 6,195 -33,26 -102,27 -132,3 z m 101,-30 c 24,-22 25,-109 1,-135 -39,-43 -93,-4 -93,67 0,71 49,107 92,68 z"
       id="path11108" />
    <path
       d="m 5516,1195 c -42,-45 -42,-135 0,-180 31,-33 109,-36 142,-5 12,12 22,25 22,30 0,17 -35,15 -52,-2 -34,-34 -81,-16 -94,35 l -6,27 h 81 c 90,0 93,3 67,65 -17,41 -42,55 -96,55 -31,0 -47,-6 -64,-25 z m 106,-22 c 33,-30 23,-43 -37,-43 -59,0 -67,8 -35,40 24,24 47,25 72,3 z"
       id="path11110" />
    <path
       d="m 6337,1202 c -22,-24 -22,-66 -1,-83 9,-8 37,-21 63,-29 30,-10 47,-22 49,-34 7,-36 -54,-50 -86,-18 -17,17 -52,18 -52,1 0,-5 9,-18 20,-29 17,-17 31,-20 77,-18 48,3 59,7 77,31 19,26 19,30 6,55 -10,17 -34,33 -69,47 -30,11 -56,26 -59,34 -10,29 55,42 82,16 19,-19 46,-19 46,-1 0,43 -120,64 -153,28 z"
       id="path11112" />
    <path
       d="m 6690,1195 c 0,-18 5,-25 20,-25 15,0 20,7 20,25 0,18 -5,25 -20,25 -15,0 -20,-7 -20,-25 z"
       id="path11114" />
    <path
       d="M 890,1045 V 930 h 25 25 v 115 115 h -25 -25 z"
       id="path11116" />
    <path
       d="m 744,1099 c -14,-15 -19,-36 -19,-74 0,-62 23,-95 65,-95 48,0 78,57 66,125 -4,19 -14,41 -22,50 -22,22 -68,19 -90,-6 z m 74,-53 c 5,-56 -5,-86 -27,-86 -22,0 -31,19 -31,65 0,49 9,66 34,63 17,-2 22,-11 24,-42 z"
       id="path11118" />
    <path
       d="m 3357,1033 c -4,-3 -7,-15 -7,-25 0,-13 7,-18 25,-18 20,0 25,5 25,25 0,18 -5,25 -18,25 -10,0 -22,-3 -25,-7 z"
       id="path11120" />
    <path
       d="m 5737,1033 c -11,-10 -8,-43 4,-43 7,0 8,-11 4,-30 -5,-23 -3,-30 8,-30 19,0 27,21 27,71 0,31 -4,39 -18,39 -10,0 -22,-3 -25,-7 z"
       id="path11122" />
    <path
       d="m 6097,1033 c -11,-10 -8,-43 4,-43 7,0 8,-11 4,-30 -5,-23 -3,-30 8,-30 19,0 27,21 27,71 0,31 -4,39 -18,39 -10,0 -22,-3 -25,-7 z"
       id="path11124" />
    <path
       d="m 6693,985 c 1,-35 5,-55 13,-55 16,0 24,24 24,71 0,32 -4,39 -19,39 -17,0 -19,-7 -18,-55 z"
       id="path11126" />
    <path
       d="m 2390,925 c 0,-13 21,-15 125,-15 104,0 125,2 125,15 0,13 -21,15 -125,15 -104,0 -125,-2 -125,-15 z"
       id="path11128" />
    <path
       d="M 2210,385 V 230 h 25 25 v 155 155 h -25 -25 z"
       id="path11130" />
    <path
       d="M 2760,385 V 230 h 25 25 v 155 155 h -25 -25 z"
       id="path11132" />
    <path
       d="m 3625,496 c -57,-97 -57,-215 0,-312 19,-33 32,-44 50,-44 h 24 l -31,50 c -25,41 -32,64 -36,124 -5,81 6,130 44,189 l 24,37 h -24 c -19,0 -31,-11 -51,-44 z"
       id="path11134" />
    <path
       d="m 4095,496 c -57,-97 -57,-215 0,-312 19,-33 32,-44 50,-44 h 24 l -31,50 c -25,41 -32,64 -36,124 -5,81 6,130 44,189 l 24,37 h -24 c -19,0 -31,-11 -51,-44 z"
       id="path11136" />
    <path
       d="m 4429,511 c 33,-45 51,-107 51,-171 0,-64 -18,-126 -51,-171 l -21,-31 28,4 c 23,2 34,13 59,62 25,51 30,70 30,136 0,66 -5,85 -30,136 -25,49 -36,60 -59,62 l -28,4 z"
       id="path11138" />
    <path
       d="m 5409,511 c 33,-45 51,-107 51,-171 0,-64 -18,-126 -51,-171 l -21,-31 28,4 c 23,2 34,13 59,62 25,51 30,70 30,136 0,66 -5,85 -30,136 -25,49 -36,60 -59,62 l -28,4 z"
       id="path11140" />
    <path
       d="M 6220,385 V 230 h 25 25 v 155 155 h -25 -25 z"
       id="path11142" />
    <path
       d="M 6770,385 V 230 h 25 25 v 155 155 h -25 -25 z"
       id="path11144" />
    <path
       d="m 7635,496 c -38,-65 -52,-143 -37,-212 16,-78 56,-144 87,-144 h 24 l -31,50 c -25,41 -32,64 -36,124 -5,81 6,130 44,189 l 24,37 h -24 c -19,0 -31,-11 -51,-44 z"
       id="path11146" />
    <path
       d="m 8105,496 c -38,-65 -52,-143 -37,-212 16,-78 56,-144 87,-144 h 24 l -31,50 c -25,41 -32,64 -36,124 -5,81 6,130 44,189 l 24,37 h -24 c -19,0 -31,-11 -51,-44 z"
       id="path11148" />
    <path
       d="m 8439,511 c 33,-45 51,-107 51,-171 0,-64 -18,-126 -51,-171 l -21,-31 28,4 c 23,2 34,13 59,62 25,51 30,70 30,136 0,66 -5,85 -30,136 -25,49 -36,60 -59,62 l -28,4 z"
       id="path11150" />
    <path
       d="m 9419,511 c 33,-45 51,-107 51,-171 0,-64 -18,-126 -51,-171 l -21,-31 28,4 c 23,2 34,13 59,62 25,51 30,70 30,136 0,66 -5,85 -30,136 -25,49 -36,60 -59,62 l -28,4 z"
       id="path11152" />
    <path
       d="m 9938,499 c -16,-11 -28,-29 -28,-40 0,-23 4,-23 35,-3 l 25,16 V 371 270 h -35 c -28,0 -35,-4 -35,-20 0,-19 7,-20 96,-20 86,0 95,2 92,18 -2,11 -14,18 -36,20 l -32,3 v 125 124 h -27 c -16,0 -40,-10 -55,-21 z"
       id="path11154" />
    <path
       d="m 10511,501 c -53,-53 -53,-191 1,-248 23,-25 83,-32 117,-13 61,32 67,224 8,265 -31,22 -102,20 -126,-4 z m 109,-40 c 13,-25 13,-131 0,-165 -7,-20 -17,-26 -39,-26 -43,0 -61,31 -61,105 0,73 18,105 60,105 19,0 33,-7 40,-19 z"
       id="path11156" />
    <path
       d="m 4290,485 c -5,-14 -16,-25 -25,-25 -17,0 -21,-26 -4,-32 8,-3 8,-20 -1,-63 -6,-33 -10,-76 -8,-95 3,-33 6,-35 41,-38 32,-3 37,0 37,18 0,15 -5,20 -15,17 -22,-9 -26,6 -14,69 15,86 18,94 40,94 10,0 19,7 19,15 0,8 -7,15 -15,15 -9,0 -15,9 -15,25 0,16 -6,25 -15,25 -9,0 -20,-11 -25,-25 z"
       id="path11158" />
    <path
       d="m 4820,485 c -5,-14 -16,-25 -25,-25 -17,0 -21,-26 -4,-32 8,-3 8,-20 -1,-63 -6,-33 -10,-76 -8,-95 3,-33 6,-35 41,-38 32,-3 37,0 37,18 0,15 -5,20 -15,17 -22,-9 -26,6 -14,69 15,86 18,94 40,94 10,0 19,7 19,15 0,8 -7,15 -15,15 -9,0 -15,9 -15,25 0,16 -6,25 -15,25 -9,0 -20,-11 -25,-25 z"
       id="path11160" />
    <path
       d="m 8300,485 c -5,-14 -16,-25 -25,-25 -17,0 -21,-26 -4,-32 8,-3 8,-20 -1,-63 -6,-33 -10,-76 -8,-95 3,-33 6,-35 41,-38 32,-3 37,0 37,18 0,15 -5,20 -15,17 -22,-9 -26,6 -14,69 15,86 18,94 40,94 10,0 19,7 19,15 0,8 -7,15 -15,15 -9,0 -15,9 -15,25 0,16 -6,25 -15,25 -9,0 -20,-11 -25,-25 z"
       id="path11162" />
    <path
       d="m 8830,485 c -5,-14 -16,-25 -25,-25 -17,0 -21,-26 -4,-32 8,-3 8,-20 -1,-63 -6,-33 -10,-76 -8,-95 3,-33 6,-35 41,-38 32,-3 37,0 37,18 0,15 -5,20 -15,17 -22,-9 -26,6 -14,69 15,86 18,94 40,94 10,0 19,7 19,15 0,8 -7,15 -15,15 -9,0 -15,9 -15,25 0,16 -6,25 -15,25 -9,0 -20,-11 -25,-25 z"
       id="path11164" />
    <path
       d="m 426,463 c -38,-55 -52,-131 -37,-196 14,-64 54,-127 81,-127 18,0 18,2 -5,36 -59,87 -59,201 0,288 23,34 23,36 5,36 -11,0 -30,-16 -44,-37 z"
       id="path11166" />
    <path
       d="m 1523,468 c 32,-43 47,-91 47,-148 0,-57 -15,-105 -47,-148 -22,-30 -23,-32 -5,-32 46,0 86,83 86,180 0,97 -40,180 -86,180 -18,0 -17,-2 5,-32 z"
       id="path11168" />
    <path
       d="m 526,474 c -24,-23 -30,-61 -17,-104 12,-42 36,-56 76,-46 45,11 57,113 18,151 -19,20 -57,19 -77,-1 z m 65,-31 c 19,-51 -9,-118 -42,-98 -14,10 -21,69 -10,98 13,35 39,35 52,0 z"
       id="path11170" />
    <path
       d="M 648,354 C 582,253 565,220 578,220 c 9,0 22,8 28,18 6,9 46,70 88,135 57,87 71,117 58,116 -11,0 -49,-50 -104,-135 z"
       id="path11172" />
    <path
       d="m 1128,469 c -16,-11 -28,-27 -28,-35 0,-18 14,-18 30,1 24,29 30,14 30,-85 V 250 h -35 c -24,0 -35,-5 -35,-15 0,-12 16,-15 85,-15 69,0 85,3 85,15 0,10 -10,15 -30,15 h -30 v 120 c 0,118 0,120 -22,120 -13,0 -35,-10 -50,-21 z"
       id="path11174" />
    <path
       d="m 1300,475 c 0,-12 14,-15 69,-15 h 69 l -40,-77 c -21,-43 -42,-97 -45,-120 -5,-39 -4,-43 16,-43 17,0 21,6 21,33 1,37 37,130 68,175 40,56 33,62 -68,62 -73,0 -90,-3 -90,-15 z"
       id="path11176" />
    <path
       d="m 5670,435 v -45 h -45 c -33,0 -45,-4 -45,-15 0,-11 12,-15 45,-15 h 45 v -45 c 0,-38 3,-45 20,-45 17,0 20,7 20,45 v 45 h 40 c 29,0 40,4 40,15 0,11 -11,15 -40,15 h -40 v 45 c 0,38 -3,45 -20,45 -17,0 -20,-7 -20,-45 z"
       id="path11178" />
    <path
       d="m 1898,443 c -39,-46 -24,-81 47,-112 32,-14 45,-26 45,-40 0,-29 -46,-39 -83,-18 -35,21 -57,22 -57,3 0,-45 116,-63 164,-25 48,38 33,82 -40,114 -54,24 -69,47 -38,59 26,10 51,7 64,-9 15,-19 50,-20 50,-2 0,44 -119,67 -152,30 z"
       id="path11180" />
    <path
       d="m 2320,433 -21,-28 21,-9 c 16,-7 24,-5 36,12 18,26 46,28 68,6 30,-30 20,-44 -33,-44 -64,0 -95,-24 -95,-73 0,-19 6,-42 13,-51 18,-21 89,-21 113,0 16,16 18,16 24,0 8,-21 74,-23 74,-1 0,8 -6,15 -14,15 -20,0 -26,23 -26,100 0,60 -3,71 -22,84 -13,9 -43,16 -69,16 -40,0 -51,-4 -69,-27 z m 120,-108 c 0,-19 -44,-65 -63,-65 -35,0 -50,52 -19,69 28,17 82,14 82,-4 z"
       id="path11182" />
    <path
       d="M 2530,300 V 140 h 25 c 24,0 25,3 25,57 0,44 3,54 12,45 14,-14 72,-16 98,-2 21,11 40,60 40,105 0,45 -19,94 -40,105 -26,14 -84,12 -98,-2 -9,-9 -12,-9 -12,0 0,7 -11,12 -25,12 h -25 z m 132,113 c 13,-12 18,-30 18,-69 0,-56 -17,-84 -50,-84 -47,0 -69,111 -30,150 24,24 38,25 62,3 z"
       id="path11184" />
    <path
       d="m 2870,433 -21,-28 21,-9 c 16,-7 24,-5 36,12 18,26 46,28 68,6 30,-30 20,-44 -33,-44 -64,0 -95,-24 -95,-73 0,-19 6,-42 13,-51 18,-21 89,-21 113,0 16,16 18,16 24,0 8,-21 74,-23 74,-1 0,8 -6,15 -14,15 -20,0 -26,23 -26,100 0,60 -3,71 -22,84 -13,9 -43,16 -69,16 -40,0 -51,-4 -69,-27 z m 120,-108 c 0,-19 -44,-65 -63,-65 -35,0 -50,52 -19,69 28,17 82,14 82,-4 z"
       id="path11186" />
    <path
       d="m 3106,437 c -29,-29 -40,-85 -26,-136 13,-50 42,-71 96,-71 34,0 47,5 63,26 41,52 10,77 -35,29 -26,-29 -33,-30 -58,-12 -12,9 -20,31 -23,64 -5,42 -2,54 16,72 26,26 36,26 61,1 20,-20 60,-28 60,-11 0,4 -9,20 -21,35 -28,36 -99,37 -133,3 z"
       id="path11188" />
    <path
       d="m 3316,437 c -45,-45 -41,-158 7,-192 32,-22 112,-20 137,5 11,11 20,24 20,29 0,17 -35,16 -52,-1 -34,-34 -81,-16 -94,35 l -6,27 h 81 c 90,0 93,3 67,65 -17,41 -42,55 -96,55 -29,0 -47,-6 -64,-23 z m 106,-24 c 33,-30 23,-43 -37,-43 -59,0 -67,8 -35,40 24,24 47,25 72,3 z"
       id="path11190" />
    <path
       d="m 3780,445 c 0,-10 15,-15 55,-17 l 55,-3 -60,-84 c -33,-46 -60,-90 -60,-98 0,-10 22,-13 90,-13 72,0 90,3 90,15 0,10 -16,15 -60,17 l -60,3 60,84 c 33,46 60,90 60,98 0,10 -21,13 -85,13 -68,0 -85,-3 -85,-15 z"
       id="path11192" />
    <path
       d="m 5168,443 c -39,-46 -24,-81 47,-112 32,-14 45,-26 45,-40 0,-29 -46,-39 -83,-18 -35,21 -57,22 -57,3 0,-45 116,-63 164,-25 48,38 33,82 -40,114 -54,24 -69,47 -38,59 26,10 51,7 64,-9 15,-19 50,-20 50,-2 0,44 -119,67 -152,30 z"
       id="path11194" />
    <path
       d="m 5908,443 c -39,-46 -24,-81 47,-112 32,-14 45,-26 45,-40 0,-29 -46,-39 -83,-18 -35,21 -57,22 -57,3 0,-45 116,-63 164,-25 48,38 33,82 -40,114 -54,24 -69,47 -38,59 26,10 51,7 64,-9 15,-19 50,-20 50,-2 0,44 -119,67 -152,30 z"
       id="path11196" />
    <path
       d="m 6330,433 -21,-28 21,-9 c 16,-7 24,-5 36,12 18,26 46,28 68,6 30,-30 20,-44 -33,-44 -64,0 -95,-24 -95,-73 0,-19 6,-42 13,-51 18,-21 89,-21 113,0 16,16 18,16 24,0 8,-21 74,-23 74,-1 0,8 -6,15 -14,15 -20,0 -26,23 -26,100 0,60 -3,71 -22,84 -13,9 -43,16 -69,16 -40,0 -51,-4 -69,-27 z m 120,-108 c 0,-19 -44,-65 -63,-65 -35,0 -50,52 -19,69 28,17 82,14 82,-4 z"
       id="path11198" />
    <path
       d="M 6540,300 V 140 h 25 c 24,0 25,3 25,57 0,44 3,54 12,45 14,-14 72,-16 98,-2 21,11 40,60 40,105 0,45 -19,94 -40,105 -26,14 -84,12 -98,-2 -9,-9 -12,-9 -12,0 0,7 -11,12 -25,12 h -25 z m 132,113 c 13,-12 18,-30 18,-69 0,-56 -17,-84 -50,-84 -47,0 -69,111 -30,150 24,24 38,25 62,3 z"
       id="path11200" />
    <path
       d="m 6880,433 -21,-28 21,-9 c 16,-7 24,-5 36,12 18,26 46,28 68,6 30,-30 20,-44 -33,-44 -64,0 -95,-24 -95,-73 0,-19 6,-42 13,-51 18,-21 89,-21 113,0 16,16 18,16 24,0 8,-21 74,-23 74,-1 0,8 -6,15 -14,15 -20,0 -26,23 -26,100 0,60 -3,71 -22,84 -13,9 -43,16 -69,16 -40,0 -51,-4 -69,-27 z m 120,-108 c 0,-19 -44,-65 -63,-65 -35,0 -50,52 -19,69 28,17 82,14 82,-4 z"
       id="path11202" />
    <path
       d="m 7116,437 c -29,-29 -40,-85 -26,-136 13,-50 42,-71 96,-71 34,0 47,5 63,26 41,52 10,77 -35,29 -26,-29 -33,-30 -58,-12 -12,9 -20,31 -23,64 -5,42 -2,54 16,72 26,26 36,26 61,1 20,-20 60,-28 60,-11 0,4 -9,20 -21,35 -28,36 -99,37 -133,3 z"
       id="path11204" />
    <path
       d="m 7326,437 c -45,-45 -41,-158 7,-192 32,-22 112,-20 137,5 11,11 20,24 20,29 0,17 -35,16 -52,-1 -34,-34 -81,-16 -94,35 l -6,27 h 81 c 90,0 93,3 67,65 -17,41 -42,55 -96,55 -29,0 -47,-6 -64,-23 z m 106,-24 c 33,-30 23,-43 -37,-43 -59,0 -67,8 -35,40 24,24 47,25 72,3 z"
       id="path11206" />
    <path
       d="m 7770,456 c 0,-2 18,-52 41,-111 45,-122 45,-151 -1,-168 -36,-14 -39,-37 -6,-37 38,0 56,10 71,41 14,26 105,265 105,274 0,3 -10,5 -23,5 -20,0 -27,-10 -47,-76 -13,-41 -27,-77 -30,-79 -4,-2 -19,32 -35,76 -25,67 -32,79 -52,79 -13,0 -23,-2 -23,-4 z"
       id="path11208" />
    <path
       d="m 9178,443 c -39,-46 -24,-81 47,-112 32,-14 45,-26 45,-40 0,-29 -46,-39 -83,-18 -35,21 -57,22 -57,3 0,-45 116,-63 164,-25 48,38 33,82 -40,114 -54,24 -69,47 -38,59 26,10 51,7 64,-9 15,-19 50,-20 50,-2 0,44 -119,67 -152,30 z"
       id="path11210" />
    <path
       d="m 10182,423 c 3,-16 16,-18 103,-18 87,0 100,2 103,18 3,15 -7,17 -103,17 -96,0 -106,-2 -103,-17 z"
       id="path11212" />
    <path
       d="m 890,412 c -43,-35 -43,-139 1,-174 32,-27 94,-23 124,7 21,20 25,34 25,80 0,46 -4,60 -25,80 -30,31 -92,34 -125,7 z m 98,-24 c 16,-16 16,-110 0,-126 -17,-17 -63,-15 -78,4 -8,8 -13,35 -13,59 0,24 5,51 13,59 15,19 61,21 78,4 z"
       id="path11214" />
    <path
       d="m 714,353 c -27,-64 0,-133 51,-133 45,0 73,52 61,112 -9,44 -24,58 -63,58 -30,0 -36,-5 -49,-37 z m 77,-7 c 23,-50 -12,-129 -43,-98 -13,13 -15,92 -4,110 12,20 36,14 47,-12 z"
       id="path11216" />
    <path
       d="m 9597,383 c -4,-3 -7,-12 -7,-20 0,-10 24,-13 105,-13 98,0 105,1 105,20 0,19 -7,20 -98,20 -54,0 -102,-3 -105,-7 z"
       id="path11218" />
    <path
       d="m 10187,334 c -4,-4 -7,-13 -7,-21 0,-10 24,-13 106,-13 95,0 105,2 102,18 -3,14 -17,17 -99,20 -52,1 -98,0 -102,-4 z"
       id="path11220" />
    <path
       d="m 4617,273 c -11,-10 -8,-43 4,-43 7,0 8,-11 4,-30 -5,-23 -3,-30 8,-30 19,0 27,21 27,71 0,31 -4,39 -18,39 -10,0 -22,-3 -25,-7 z"
       id="path11222" />
    <path
       d="m 4977,273 c -11,-10 -8,-43 4,-43 7,0 8,-11 4,-30 -5,-23 -3,-30 8,-30 19,0 27,21 27,71 0,31 -4,39 -18,39 -10,0 -22,-3 -25,-7 z"
       id="path11224" />
    <path
       d="m 8627,273 c -11,-10 -8,-43 4,-43 7,0 8,-11 4,-30 -5,-23 -3,-30 8,-30 19,0 27,21 27,71 0,31 -4,39 -18,39 -10,0 -22,-3 -25,-7 z"
       id="path11226" />
    <path
       d="m 8987,273 c -11,-10 -8,-43 4,-43 7,0 8,-11 4,-30 -5,-23 -3,-30 8,-30 19,0 27,21 27,71 0,31 -4,39 -18,39 -10,0 -22,-3 -25,-7 z"
       id="path11228" />
  </g>
</svg>
