<?xml version="1.0" encoding="UTF-8" standalone="no"?>
<!-- Created with Inkscape (http://www.inkscape.org/) -->

<svg
   width="1000mm"
   height="400mm"
   viewBox="0 0 1000 400"
   version="1.1"
   id="svg5"
   inkscape:version="1.1.1 (3bf5ae0d25, 2021-09-20)"
   sodipodi:docname="267laphic.svg"
   xmlns:inkscape="http://www.inkscape.org/namespaces/inkscape"
   xmlns:sodipodi="http://sodipodi.sourceforge.net/DTD/sodipodi-0.dtd"
   xmlns="http://www.w3.org/2000/svg"
   xmlns:svg="http://www.w3.org/2000/svg">
  <sodipodi:namedview
     id="namedview7"
     pagecolor="#ffffff"
     bordercolor="#666666"
     borderopacity="1.0"
     inkscape:pageshadow="2"
     inkscape:pageopacity="0.0"
     inkscape:pagecheckerboard="0"
     inkscape:document-units="mm"
     showgrid="false"
     inkscape:zoom="0.9"
     inkscape:cx="1750"
     inkscape:cy="561.66667"
     inkscape:current-layer="layer1" />
  <defs
     id="defs2" />
  <g
     inkscape:label="Layer 1"
     inkscape:groupmode="layer"
     id="layer1">
    <g
       transform="matrix(0.0467832,0,0,-0.0467832,-10.922365,406.29282)"
       fill="#000000"
       stroke="none"
       id="g2333">
      <path
         d="m 2180,8569 c 0,-44 -2,-50 -14,-40 -25,21 -87,9 -109,-21 -28,-38 -29,-128 -1,-165 23,-31 84,-44 109,-23 9,8 15,8 20,0 3,-5 15,-10 26,-10 18,0 19,8 19,155 v 155 h -25 c -23,0 -25,-3 -25,-51 z m -16,-75 c 22,-21 21,-111 -1,-136 -37,-41 -83,-4 -83,67 0,70 46,108 84,69 z"
         id="path1689" />
      <path
         d="m 2960,8568 c 0,-40 -3,-49 -12,-40 -20,20 -85,15 -107,-9 -40,-43 -34,-176 9,-199 26,-14 83,-13 98,2 9,9 12,9 12,0 0,-7 11,-12 25,-12 h 25 v 155 155 h -25 c -23,0 -25,-3 -25,-52 z m -16,-77 c 13,-14 16,-33 14,-72 -3,-47 -7,-55 -31,-69 -27,-14 -29,-14 -48,9 -37,45 -16,151 30,151 10,0 26,-9 35,-19 z"
         id="path1691" />
      <path
         d="m 3050,8600 c 0,-15 7,-20 25,-20 18,0 25,5 25,20 0,15 -7,20 -25,20 -18,0 -25,-5 -25,-20 z"
         id="path1693" />
      <path
         d="m 3160,8601 c -5,-11 -10,-29 -10,-40 0,-12 -7,-21 -15,-21 -8,0 -15,-7 -15,-15 0,-8 7,-15 15,-15 12,0 15,-18 15,-100 v -100 h 25 25 v 100 100 h 30 30 v -100 -100 h 25 25 v 100 c 0,93 1,100 20,100 11,0 20,7 20,15 0,8 -9,15 -20,15 -14,0 -20,7 -20,21 0,12 8,23 20,26 34,9 24,33 -15,33 -36,0 -55,-20 -55,-59 0,-17 -6,-21 -30,-21 -24,0 -30,4 -30,21 0,12 8,23 20,26 34,9 24,33 -15,33 -24,0 -37,-6 -45,-19 z"
         id="path1695" />
      <path
         d="m 3415,8576 c -57,-97 -57,-215 0,-312 19,-33 32,-44 50,-44 h 24 l -32,52 c -30,48 -32,56 -32,148 0,92 2,100 32,148 l 32,52 h -24 c -18,0 -31,-11 -50,-44 z"
         id="path1697" />
      <path
         d="m 3765,8576 c -57,-97 -57,-215 0,-312 19,-33 32,-44 50,-44 h 24 l -32,52 c -30,48 -32,56 -32,148 0,92 2,100 32,148 l 32,52 h -24 c -18,0 -31,-11 -50,-44 z"
         id="path1699" />
      <path
         d="m 3979,8591 c 68,-95 68,-247 0,-342 l -21,-31 28,4 c 23,2 34,13 59,62 25,51 30,70 30,136 0,66 -5,85 -30,136 -25,49 -36,60 -59,62 l -28,4 z"
         id="path1701" />
      <path
         d="m 4949,8591 c 68,-95 68,-247 0,-342 l -21,-31 28,4 c 23,2 34,13 59,62 25,51 30,70 30,136 0,66 -5,85 -30,136 -25,49 -36,60 -59,62 l -28,4 z"
         id="path1703" />
      <path
         d="m 6160,8568 c 0,-40 -3,-49 -12,-40 -20,20 -85,15 -107,-9 -40,-43 -34,-176 9,-199 26,-14 83,-13 98,2 9,9 12,9 12,0 0,-7 11,-12 25,-12 h 25 v 155 155 h -25 c -23,0 -25,-3 -25,-52 z m -16,-77 c 13,-14 16,-33 14,-72 -3,-47 -7,-55 -31,-69 -27,-14 -29,-14 -48,9 -37,45 -16,151 30,151 10,0 26,-9 35,-19 z"
         id="path1705" />
      <path
         d="m 6250,8600 c 0,-15 7,-20 25,-20 18,0 25,5 25,20 0,15 -7,20 -25,20 -18,0 -25,-5 -25,-20 z"
         id="path1707" />
      <path
         d="m 6360,8601 c -5,-11 -10,-29 -10,-40 0,-12 -7,-21 -15,-21 -8,0 -15,-7 -15,-15 0,-8 7,-15 15,-15 12,0 15,-18 15,-100 v -100 h 25 25 v 100 100 h 30 30 v -100 -100 h 25 25 v 100 c 0,93 1,100 20,100 11,0 20,7 20,15 0,8 -9,15 -20,15 -14,0 -20,7 -20,21 0,12 8,23 20,26 34,9 24,33 -15,33 -36,0 -55,-20 -55,-59 0,-17 -6,-21 -30,-21 -24,0 -30,4 -30,21 0,12 8,23 20,26 34,9 24,33 -15,33 -24,0 -37,-6 -45,-19 z"
         id="path1709" />
      <path
         d="m 6615,8576 c -38,-65 -52,-143 -37,-212 16,-78 56,-144 87,-144 h 24 l -32,52 c -30,48 -32,56 -32,148 0,92 2,100 32,148 l 32,52 h -24 c -18,0 -31,-11 -50,-44 z"
         id="path1711" />
      <path
         d="m 6965,8576 c -38,-65 -52,-143 -37,-212 16,-78 56,-144 87,-144 h 24 l -32,52 c -30,48 -32,56 -32,148 0,92 2,100 32,148 l 32,52 h -24 c -18,0 -31,-11 -50,-44 z"
         id="path1713" />
      <path
         d="m 7179,8591 c 33,-45 51,-107 51,-171 0,-64 -18,-126 -51,-171 l -21,-31 28,4 c 23,2 34,13 59,62 25,51 30,70 30,136 0,66 -5,85 -30,136 -25,49 -36,60 -59,62 l -28,4 z"
         id="path1715" />
      <path
         d="m 7679,8591 c 33,-45 51,-107 51,-171 0,-64 -18,-126 -51,-171 l -21,-31 28,4 c 23,2 34,13 59,62 25,51 30,70 30,136 0,66 -5,85 -30,136 -25,49 -36,60 -59,62 l -28,4 z"
         id="path1717" />
      <path
         d="m 8925,8576 c -38,-65 -52,-143 -37,-212 16,-78 56,-144 87,-144 h 24 l -32,52 c -30,48 -32,56 -32,148 0,92 2,100 32,148 l 32,52 h -24 c -18,0 -31,-11 -50,-44 z"
         id="path1719" />
      <path
         d="m 9139,8591 c 33,-45 51,-107 51,-171 0,-64 -18,-126 -51,-171 l -21,-31 28,4 c 23,2 34,13 59,62 25,51 30,70 30,136 0,66 -5,85 -30,136 -25,49 -36,60 -59,62 l -28,4 z"
         id="path1721" />
      <path
         d="m 2740,8550 c 0,-43 3,-50 20,-50 17,0 20,7 20,50 0,43 -3,50 -20,50 -17,0 -20,-7 -20,-50 z"
         id="path1723" />
      <path
         d="m 4745,8575 c -14,-13 -25,-31 -25,-40 0,-22 37,-18 50,6 9,16 19,19 48,17 33,-3 37,-6 40,-35 3,-28 -5,-40 -67,-100 -46,-44 -71,-77 -71,-91 0,-21 4,-22 95,-22 88,0 95,1 95,20 0,18 -7,20 -72,20 l -73,1 68,62 c 54,49 69,70 74,99 4,30 1,41 -20,62 -36,36 -107,37 -142,1 z"
         id="path1725" />
      <path
         d="m 5595,8575 c -14,-13 -25,-31 -25,-40 0,-22 37,-18 50,6 9,16 19,19 48,17 33,-3 37,-6 40,-35 3,-28 -5,-40 -67,-100 -46,-44 -71,-77 -71,-91 0,-21 4,-22 95,-22 88,0 95,1 95,20 0,18 -7,20 -72,20 l -73,1 68,62 c 54,49 69,70 74,99 4,30 1,41 -20,62 -36,36 -107,37 -142,1 z"
         id="path1727" />
      <path
         d="m 5940,8550 c 0,-43 3,-50 20,-50 17,0 20,7 20,50 0,43 -3,50 -20,50 -17,0 -20,-7 -20,-50 z"
         id="path1729" />
      <path
         d="m 8310,8571 c 0,-15 -3,-49 -6,-75 -7,-44 -6,-46 19,-46 14,0 37,5 51,11 38,18 76,-10 76,-55 0,-18 -7,-39 -15,-46 -24,-20 -67,-15 -87,10 -12,15 -24,20 -38,15 -17,-5 -18,-9 -8,-28 18,-35 40,-46 90,-47 67,0 103,32 103,93 0,35 -6,52 -25,72 -21,23 -32,26 -72,23 l -48,-3 v 33 32 h 65 c 58,0 65,2 65,20 0,18 -7,20 -85,20 h -85 z"
         id="path1731" />
      <path
         d="m 9786,8579 c -29,-23 -34,-47 -10,-56 9,-3 21,2 29,14 18,25 44,33 74,22 17,-7 22,-15 19,-36 -2,-23 -10,-30 -40,-37 -27,-7 -38,-15 -38,-28 0,-14 8,-18 33,-18 38,0 57,-15 57,-46 0,-30 -23,-46 -62,-42 -23,2 -36,10 -43,26 -10,23 -22,27 -44,13 -16,-11 -1,-43 31,-65 27,-19 106,-21 129,-3 45,35 47,109 4,129 l -24,11 24,19 c 32,25 32,62 0,93 -32,33 -100,35 -139,4 z"
         id="path1733" />
      <path
         d="m 3876,8565 c -4,-14 -13,-25 -21,-25 -8,0 -15,-7 -15,-15 0,-8 7,-15 15,-15 12,0 15,-16 15,-88 0,-98 7,-112 57,-112 38,0 47,27 11,32 -21,3 -23,9 -26,86 -3,77 -2,82 18,82 11,0 20,7 20,15 0,8 -9,15 -20,15 -15,0 -20,7 -20,25 0,15 -6,25 -14,25 -8,0 -17,-11 -20,-25 z"
         id="path1735" />
      <path
         d="m 4376,8565 c -4,-14 -13,-25 -21,-25 -8,0 -15,-7 -15,-15 0,-8 7,-15 15,-15 12,0 15,-16 15,-88 0,-98 7,-112 57,-112 38,0 47,27 11,32 -21,3 -23,9 -26,86 -3,77 -2,82 18,82 11,0 20,7 20,15 0,8 -9,15 -20,15 -15,0 -20,7 -20,25 0,15 -6,25 -14,25 -8,0 -17,-11 -20,-25 z"
         id="path1737" />
      <path
         d="m 7076,8565 c -4,-14 -13,-25 -21,-25 -8,0 -15,-7 -15,-15 0,-8 7,-15 15,-15 12,0 15,-16 15,-88 0,-98 7,-112 57,-112 38,0 47,27 11,32 -21,3 -23,9 -26,86 -3,77 -2,82 18,82 11,0 20,7 20,15 0,8 -9,15 -20,15 -15,0 -20,7 -20,25 0,15 -6,25 -14,25 -8,0 -17,-11 -20,-25 z"
         id="path1739" />
      <path
         d="m 7576,8565 c -4,-14 -13,-25 -21,-25 -8,0 -15,-7 -15,-15 0,-8 7,-15 15,-15 12,0 15,-16 15,-88 0,-98 7,-112 57,-112 38,0 47,27 11,32 -21,3 -23,9 -26,86 -3,77 -2,82 18,82 11,0 20,7 20,15 0,8 -9,15 -20,15 -15,0 -20,7 -20,25 0,15 -6,25 -14,25 -8,0 -17,-11 -20,-25 z"
         id="path1741" />
      <path
         d="m 9036,8565 c -4,-14 -13,-25 -21,-25 -8,0 -15,-7 -15,-15 0,-8 7,-15 15,-15 12,0 15,-16 15,-88 0,-98 7,-112 57,-112 38,0 47,27 11,32 -21,3 -23,9 -26,86 -3,77 -2,82 18,82 11,0 20,7 20,15 0,8 -9,15 -20,15 -15,0 -20,7 -20,25 0,15 -6,25 -14,25 -8,0 -17,-11 -20,-25 z"
         id="path1743" />
      <path
         d="m 365,8517 c -55,-95 -55,-219 0,-314 20,-33 32,-43 51,-43 h 25 l -24,33 c -35,47 -47,91 -47,171 0,72 22,139 57,178 15,17 14,18 -10,18 -20,0 -32,-10 -52,-43 z"
         id="path1745" />
      <path
         d="m 832,8543 c 2,-10 13,-19 26,-21 17,-3 22,2 22,17 0,16 -6,21 -26,21 -19,0 -25,-5 -22,-17 z"
         id="path1747" />
      <path
         d="m 1155,8524 c 32,-47 45,-95 45,-164 0,-69 -13,-117 -45,-164 -23,-34 -23,-36 -5,-36 10,0 30,15 43,33 66,88 66,246 0,335 -13,17 -33,32 -43,32 -18,0 -18,-2 5,-36 z"
         id="path1749" />
      <path
         d="m 5290,8515 v -45 h -40 c -29,0 -40,-4 -40,-15 0,-11 11,-15 40,-15 h 40 v -45 c 0,-38 3,-45 20,-45 17,0 20,7 20,45 v 45 h 45 c 33,0 45,4 45,15 0,11 -12,15 -45,15 h -45 v 45 c 0,38 -3,45 -20,45 -17,0 -20,-7 -20,-45 z"
         id="path1751" />
      <path
         d="m 8020,8515 v -45 h -40 c -29,0 -40,-4 -40,-15 0,-11 11,-15 40,-15 h 40 v -45 c 0,-38 3,-45 20,-45 17,0 20,7 20,45 v 45 h 45 c 33,0 45,4 45,15 0,11 -12,15 -45,15 h -45 v 45 c 0,38 -3,45 -20,45 -17,0 -20,-7 -20,-45 z"
         id="path1753" />
      <path
         d="m 476,8524 c -33,-32 -32,-116 0,-149 22,-21 68,-19 89,5 26,28 26,112 0,140 -22,24 -67,26 -89,4 z m 72,-53 c 6,-55 -5,-83 -31,-79 -18,2 -23,10 -25,47 -4,57 3,73 30,69 18,-2 24,-11 26,-37 z"
         id="path1755" />
      <path
         d="m 614,8408 c -100,-153 -104,-161 -79,-157 16,4 193,260 195,282 0,4 -7,7 -15,7 -8,0 -54,-60 -101,-132 z"
         id="path1757" />
      <path
         d="m 973,8519 c -20,-12 -33,-29 -33,-41 0,-19 1,-19 25,-4 13,9 27,16 30,16 3,0 5,-47 5,-105 v -105 h -35 c -24,0 -35,-5 -35,-15 0,-12 17,-15 90,-15 72,0 90,3 90,14 0,9 -12,16 -32,18 l -33,3 -3,128 c -3,142 -6,147 -69,106 z"
         id="path1759" />
      <path
         d="m 1841,8523 c -46,-37 -46,-159 0,-195 26,-22 97,-24 126,-3 51,36 55,156 6,195 -33,26 -102,27 -132,3 z m 101,-30 c 24,-22 25,-109 1,-135 -40,-45 -93,-6 -93,69 0,69 50,105 92,66 z"
         id="path1761" />
      <path
         d="m 2296,8515 c -42,-45 -42,-135 0,-180 32,-35 110,-36 142,-2 12,13 22,26 22,29 0,15 -36,12 -52,-4 -34,-34 -81,-16 -94,35 l -6,27 h 81 c 90,0 93,3 67,65 -17,41 -42,55 -96,55 -31,0 -47,-6 -64,-25 z m 106,-22 c 33,-30 23,-43 -37,-43 -59,0 -63,4 -39,38 18,26 50,28 76,5 z"
         id="path1763" />
      <path
         d="m 2512,8518 c 2,-15 11,-24 26,-26 18,-3 22,1 22,22 0,21 -5,26 -26,26 -21,0 -25,-4 -22,-22 z"
         id="path1765" />
      <path
         d="m 3050,8425 v -115 h 25 25 v 115 115 h -25 -25 z"
         id="path1767" />
      <path
         d="m 3500,8535 c 0,-3 15,-29 34,-57 l 35,-51 -40,-58 -40,-59 h 26 c 18,0 32,11 51,42 l 26,41 19,-24 c 10,-13 21,-32 25,-41 3,-12 16,-18 35,-18 h 30 l -41,60 -41,60 29,43 c 46,67 46,67 19,67 -19,0 -31,-11 -49,-42 l -25,-41 -23,41 c -17,31 -30,42 -47,42 -13,0 -23,-2 -23,-5 z"
         id="path1769" />
      <path
         d="m 6250,8425 v -115 h 25 25 v 115 115 h -25 -25 z"
         id="path1771" />
      <path
         d="m 6700,8535 c 0,-3 15,-29 34,-57 l 35,-51 -40,-58 -40,-59 h 26 c 18,0 32,11 51,42 l 26,41 19,-24 c 10,-13 21,-32 25,-41 3,-12 16,-18 35,-18 h 30 l -41,60 -41,60 29,43 c 46,67 46,67 19,67 -19,0 -31,-11 -49,-42 l -25,-41 -23,41 c -17,31 -30,42 -47,42 -13,0 -23,-2 -23,-5 z"
         id="path1773" />
      <path
         d="m 8650,8536 c 0,-2 18,-52 41,-111 45,-122 45,-151 -1,-168 -39,-15 -39,-37 -1,-37 29,0 53,16 70,48 8,16 101,262 101,269 0,2 -10,3 -23,3 -20,0 -27,-11 -51,-87 l -29,-88 -30,88 c -27,76 -33,87 -54,87 -13,0 -23,-2 -23,-4 z"
         id="path1775" />
      <path
         d="m 10010,8515 c 0,-18 5,-25 20,-25 15,0 20,7 20,25 0,18 -5,25 -20,25 -15,0 -20,-7 -20,-25 z"
         id="path1777" />
      <path
         d="m 9400,8505 c 0,-12 18,-15 105,-15 87,0 105,3 105,15 0,12 -18,15 -105,15 -87,0 -105,-3 -105,-15 z"
         id="path1779" />
      <path
         d="m 830,8365 v -115 h 25 25 v 115 115 h -25 -25 z"
         id="path1781" />
      <path
         d="m 5830,8425 c 0,-18 5,-25 20,-25 15,0 20,7 20,25 0,18 -5,25 -20,25 -15,0 -20,-7 -20,-25 z"
         id="path1783" />
      <path
         d="m 8560,8425 c 0,-18 5,-25 20,-25 15,0 20,7 20,25 0,18 -5,25 -20,25 -15,0 -20,-7 -20,-25 z"
         id="path1785" />
      <path
         d="m 684,8419 c -13,-14 -18,-36 -18,-74 0,-62 22,-95 64,-95 42,0 65,33 65,95 0,38 -5,59 -19,74 -24,27 -68,27 -92,0 z m 71,-74 c 0,-57 -1,-60 -25,-60 -23,0 -25,4 -28,49 -4,62 2,78 30,74 21,-3 23,-8 23,-63 z"
         id="path1787" />
      <path
         d="m 9400,8395 c 0,-12 18,-15 105,-15 87,0 105,3 105,15 0,12 -18,15 -105,15 -87,0 -105,-3 -105,-15 z"
         id="path1789" />
      <path
         d="m 2517,8353 c -4,-3 -7,-15 -7,-25 0,-13 7,-18 25,-18 20,0 25,5 25,25 0,18 -5,25 -18,25 -10,0 -22,-3 -25,-7 z"
         id="path1791" />
      <path
         d="m 4137,8353 c -11,-10 -8,-43 4,-43 7,0 8,-11 4,-30 -5,-23 -3,-30 8,-30 19,0 27,21 27,71 0,31 -4,39 -18,39 -10,0 -22,-3 -25,-7 z"
         id="path1793" />
      <path
         d="m 4497,8353 c -11,-10 -8,-43 4,-43 7,0 8,-11 4,-30 -5,-23 -3,-30 8,-30 19,0 27,21 27,71 0,31 -4,39 -18,39 -10,0 -22,-3 -25,-7 z"
         id="path1795" />
      <path
         d="m 7337,8353 c -11,-10 -8,-43 4,-43 7,0 8,-11 4,-30 -5,-23 -3,-30 8,-30 19,0 27,21 27,71 0,31 -4,39 -18,39 -10,0 -22,-3 -25,-7 z"
         id="path1797" />
      <path
         d="m 10013,8305 c 3,-85 37,-70 37,16 0,32 -3,39 -19,39 -18,0 -20,-7 -18,-55 z"
         id="path1799" />
      <path
         d="m 2348,7868 c -8,-7 -18,-21 -21,-30 -8,-23 28,-25 37,-2 4,10 15,14 33,12 49,-5 41,-39 -21,-102 -77,-76 -75,-86 19,-86 60,0 75,3 75,15 0,11 -12,15 -51,15 h -52 l 52,54 c 55,59 64,91 33,119 -22,20 -82,22 -104,5 z"
         id="path1801" />
      <path
         d="m 4371,7791 c -21,-49 -21,-62 -21,-580 0,-391 3,-531 11,-531 7,0 18,-8 25,-17 21,-29 25,-9 7,33 -15,35 -16,93 -16,544 0,448 1,510 16,549 20,51 20,51 8,51 -5,0 -18,-22 -30,-49 z"
         id="path1803" />
      <path
         d="m 6158,7834 c -4,-3 1,-22 10,-42 15,-33 17,-93 17,-547 0,-466 -2,-513 -18,-549 -18,-42 -14,-63 7,-33 7,9 18,17 25,17 8,0 11,140 11,530 0,468 -2,535 -17,572 -18,49 -27,61 -35,52 z"
         id="path1805" />
      <path
         d="m 2220,7583 c 0,-37 -3,-44 -12,-35 -7,7 -29,12 -50,12 -51,0 -73,-33 -73,-111 1,-72 21,-99 75,-99 20,0 41,5 48,12 9,9 12,9 12,0 0,-7 9,-12 20,-12 19,0 20,7 20,140 0,133 -1,140 -20,140 -17,0 -20,-7 -20,-47 z m -22,-62 c 8,-4 16,-27 19,-49 9,-67 -38,-117 -75,-80 -16,16 -16,110 0,126 14,14 37,15 56,3 z"
         id="path1807" />
      <path
         d="m 4880,7583 c 0,-37 -3,-44 -12,-35 -7,7 -29,12 -50,12 -51,0 -73,-33 -73,-111 1,-72 21,-99 75,-99 20,0 41,5 48,12 9,9 12,9 12,0 0,-7 9,-12 20,-12 19,0 20,7 20,140 0,133 -1,140 -20,140 -17,0 -20,-7 -20,-47 z m -22,-62 c 8,-4 16,-27 19,-49 9,-67 -38,-117 -75,-80 -16,16 -16,110 0,126 14,14 37,15 56,3 z"
         id="path1809" />
      <path
         d="m 3225,7346 c -57,-97 -57,-215 0,-312 19,-33 32,-44 50,-44 h 24 l -32,52 c -30,48 -32,56 -32,148 0,92 2,100 32,148 l 32,52 h -24 c -18,0 -31,-11 -50,-44 z"
         id="path1811" />
      <path
         d="m 3559,7361 c 68,-95 68,-247 0,-342 l -21,-31 28,4 c 23,2 34,13 59,62 25,51 30,70 30,136 0,66 -5,85 -30,136 -25,49 -36,60 -59,62 l -28,4 z"
         id="path1813" />
      <path
         d="m 5685,7346 c -38,-65 -52,-143 -37,-212 16,-78 56,-144 87,-144 h 24 l -32,52 c -30,48 -32,56 -32,148 0,92 2,100 32,148 l 32,52 h -24 c -18,0 -31,-11 -50,-44 z"
         id="path1815" />
      <path
         d="m 6019,7361 c 33,-45 51,-107 51,-171 0,-64 -18,-126 -51,-171 l -21,-31 28,4 c 23,2 34,13 59,62 25,51 30,70 30,136 0,66 -5,85 -30,136 -25,49 -36,60 -59,62 l -28,4 z"
         id="path1817" />
      <path
         d="m 7245,7346 c -38,-65 -52,-143 -37,-212 16,-78 56,-144 87,-144 h 24 l -32,52 c -30,48 -32,56 -32,148 0,92 2,100 32,148 l 32,52 h -24 c -18,0 -31,-11 -50,-44 z"
         id="path1819" />
      <path
         d="m 7579,7361 c 33,-45 51,-107 51,-171 0,-64 -18,-126 -51,-171 l -21,-31 28,4 c 23,2 34,13 59,62 25,51 30,70 30,136 0,66 -5,85 -30,136 -25,49 -36,60 -59,62 l -28,4 z"
         id="path1821" />
      <path
         d="m 4055,7345 c -32,-31 -32,-55 -1,-55 16,0 26,7 29,21 5,17 12,20 44,17 34,-3 38,-6 41,-34 3,-27 -6,-40 -67,-101 -45,-44 -71,-77 -71,-91 0,-21 4,-22 101,-22 90,0 100,2 97,18 -3,14 -16,18 -78,20 l -74,3 72,67 c 63,59 72,72 72,103 0,51 -33,79 -94,79 -36,0 -52,-5 -71,-25 z"
         id="path1823" />
      <path
         d="m 6576,7299 c -9,-87 -2,-98 52,-76 31,12 43,13 63,4 27,-14 36,-55 19,-87 -15,-28 -73,-28 -94,1 -10,15 -20,19 -35,14 -19,-6 -20,-8 -6,-34 17,-34 33,-41 89,-41 55,0 93,28 102,76 13,72 -31,119 -105,112 -40,-3 -41,-3 -41,29 v 33 h 65 c 58,0 65,2 65,20 0,18 -7,20 -84,20 h -83 z"
         id="path1825" />
      <path
         d="m 8076,7349 c -30,-24 -35,-59 -8,-59 9,0 23,9 30,21 10,15 21,19 50,17 34,-3 37,-6 37,-33 0,-26 -5,-31 -37,-39 -27,-7 -38,-15 -38,-28 0,-14 8,-18 33,-18 38,0 57,-15 57,-46 0,-30 -23,-46 -62,-42 -23,2 -36,10 -43,26 -10,23 -22,27 -44,13 -16,-11 -1,-43 31,-65 33,-23 113,-21 138,4 40,40 34,116 -10,127 -19,5 -18,6 5,25 32,25 33,67 2,96 -31,30 -104,30 -141,1 z"
         id="path1827" />
      <path
         d="m 377,7328 c -36,-50 -49,-92 -50,-161 -1,-72 16,-129 50,-174 43,-58 55,-40 20,28 -28,54 -32,72 -32,139 0,67 4,85 32,139 35,68 22,86 -20,29 z"
         id="path1829" />
      <path
         d="m 1282,7343 c 37,-41 58,-106 58,-184 0,-65 -4,-85 -30,-135 -30,-61 -31,-76 -2,-58 35,22 65,94 70,168 7,113 -34,217 -88,225 -24,3 -24,2 -8,-16 z"
         id="path1831" />
      <path
         d="m 3420,7335 c -5,-14 -16,-25 -25,-25 -17,0 -21,-26 -5,-32 7,-2 6,-31 -2,-84 -14,-99 -10,-114 37,-114 28,0 35,4 35,20 0,12 -5,17 -14,14 -23,-9 -28,13 -16,74 17,86 20,92 41,92 10,0 19,7 19,15 0,8 -7,15 -15,15 -9,0 -15,9 -15,25 0,16 -6,25 -15,25 -9,0 -20,-11 -25,-25 z"
         id="path1833" />
      <path
         d="m 5880,7335 c -5,-14 -16,-25 -25,-25 -17,0 -21,-26 -5,-32 7,-2 6,-31 -2,-84 -14,-99 -10,-114 37,-114 28,0 35,4 35,20 0,12 -5,17 -14,14 -23,-9 -28,13 -16,74 17,86 20,92 41,92 10,0 19,7 19,15 0,8 -7,15 -15,15 -9,0 -15,9 -15,25 0,16 -6,25 -15,25 -9,0 -20,-11 -25,-25 z"
         id="path1835" />
      <path
         d="m 7440,7335 c -5,-14 -16,-25 -25,-25 -17,0 -21,-26 -5,-32 7,-2 6,-31 -2,-84 -14,-99 -10,-114 37,-114 28,0 35,4 35,20 0,12 -5,17 -14,14 -23,-9 -28,13 -16,74 17,86 20,92 41,92 10,0 19,7 19,15 0,8 -7,15 -15,15 -9,0 -15,9 -15,25 0,16 -6,25 -15,25 -9,0 -20,-11 -25,-25 z"
         id="path1837" />
      <path
         d="m 474,7319 c -25,-28 -25,-110 1,-139 24,-27 70,-26 89,2 23,32 21,120 -2,141 -25,23 -65,21 -88,-4 z m 65,-13 c 7,-8 11,-36 9,-63 -3,-44 -5,-48 -28,-48 -23,0 -25,4 -28,48 -3,45 9,77 28,77 4,0 13,-6 19,-14 z"
         id="path1839" />
      <path
         d="m 611,7200 c -50,-77 -91,-142 -91,-145 0,-3 6,-5 14,-5 11,0 196,269 196,285 0,3 -6,5 -14,5 -8,0 -55,-63 -105,-140 z"
         id="path1841" />
      <path
         d="m 1113,7318 c -18,-13 -33,-31 -33,-41 0,-17 2,-17 30,3 l 30,21 v -110 -111 h -35 c -24,0 -35,-5 -35,-15 0,-12 17,-15 90,-15 73,0 90,3 90,15 0,10 -11,15 -35,15 h -35 v 130 c 0,146 -4,152 -67,108 z"
         id="path1843" />
      <path
         d="m 3820,7285 v -45 h -45 c -33,0 -45,-4 -45,-15 0,-11 12,-15 45,-15 h 45 v -45 c 0,-38 3,-45 20,-45 17,0 20,7 20,45 v 45 h 40 c 29,0 40,4 40,15 0,11 -11,15 -40,15 h -40 v 45 c 0,38 -3,45 -20,45 -17,0 -20,-7 -20,-45 z"
         id="path1845" />
      <path
         d="m 6360,7285 v -45 h -45 c -33,0 -45,-4 -45,-15 0,-11 12,-15 45,-15 h 45 v -45 c 0,-38 3,-45 20,-45 17,0 20,7 20,45 v 45 h 40 c 29,0 40,4 40,15 0,11 -11,15 -40,15 h -40 v 45 c 0,38 -3,45 -20,45 -17,0 -20,-7 -20,-45 z"
         id="path1847" />
      <path
         d="m 2900,7305 c 0,-3 15,-29 34,-57 l 35,-51 -40,-58 -40,-59 h 26 c 18,0 32,11 51,42 l 26,41 19,-24 c 10,-13 21,-32 25,-41 3,-12 16,-18 35,-18 h 30 l -41,60 -41,60 29,43 c 46,67 46,67 19,67 -19,0 -31,-11 -49,-42 l -25,-41 -23,41 c -17,31 -30,42 -47,42 -13,0 -23,-2 -23,-5 z"
         id="path1849" />
      <path
         d="m 5360,7305 c 0,-3 15,-29 34,-57 l 35,-51 -40,-58 -40,-59 h 26 c 18,0 32,11 51,42 l 26,41 19,-24 c 10,-13 21,-32 25,-41 3,-12 16,-18 35,-18 h 30 l -41,60 -41,60 29,43 c 46,67 46,67 19,67 -19,0 -31,-11 -49,-42 l -25,-41 -23,41 c -17,31 -30,42 -47,42 -13,0 -23,-2 -23,-5 z"
         id="path1851" />
      <path
         d="m 6910,7306 c 0,-2 18,-52 41,-111 45,-122 45,-151 -1,-168 -39,-15 -39,-37 -1,-37 30,0 53,16 71,50 9,17 100,259 100,267 0,2 -10,3 -23,3 -20,0 -27,-10 -47,-76 -13,-41 -27,-77 -30,-79 -4,-2 -19,32 -35,76 -25,67 -32,79 -52,79 -13,0 -23,-2 -23,-4 z"
         id="path1853" />
      <path
         d="m 7750,7275 c 0,-12 18,-15 105,-15 87,0 105,3 105,15 0,12 -18,15 -105,15 -87,0 -105,-3 -105,-15 z"
         id="path1855" />
      <path
         d="m 874,7268 c -30,-14 -44,-50 -44,-109 0,-42 5,-55 29,-80 32,-31 71,-38 114,-18 33,15 47,49 47,115 0,45 -4,59 -25,79 -26,27 -81,33 -121,13 z m 90,-34 c 11,-10 16,-34 16,-69 0,-60 -16,-85 -55,-85 -39,0 -55,25 -55,85 0,60 16,85 55,85 13,0 31,-7 39,-16 z"
         id="path1857" />
      <path
         d="m 686,7221 c -12,-13 -17,-36 -17,-76 0,-66 19,-95 62,-95 40,0 63,39 62,102 -1,57 -23,88 -63,88 -15,0 -35,-9 -44,-19 z m 62,-13 c 18,-18 15,-113 -3,-128 -12,-10 -18,-10 -30,0 -28,24 -16,140 15,140 3,0 11,-5 18,-12 z"
         id="path1859" />
      <path
         d="m 1760,7175 c 0,-13 64,-15 515,-15 451,0 515,2 515,15 0,13 -64,15 -515,15 -451,0 -515,-2 -515,-15 z"
         id="path1861" />
      <path
         d="m 4420,7175 c 0,-13 53,-15 415,-15 362,0 415,2 415,15 0,13 -53,15 -415,15 -362,0 -415,-2 -415,-15 z"
         id="path1863" />
      <path
         d="m 7750,7165 c 0,-12 18,-15 105,-15 87,0 105,3 105,15 0,12 -18,15 -105,15 -87,0 -105,-3 -105,-15 z"
         id="path1865" />
      <path
         d="m 2468,7018 c -8,-7 -18,-21 -21,-30 -8,-23 28,-25 37,-2 4,10 15,14 33,12 49,-5 41,-39 -21,-102 -77,-76 -75,-86 19,-86 60,0 75,3 75,15 0,11 -12,15 -51,15 h -52 l 52,54 c 55,59 64,91 33,119 -22,20 -82,22 -104,5 z"
         id="path1867" />
      <path
         d="m 4760,6983 c 0,-37 -3,-44 -12,-35 -7,7 -29,12 -50,12 -51,0 -73,-33 -73,-111 1,-72 21,-99 75,-99 20,0 41,5 48,12 9,9 12,9 12,0 0,-7 9,-12 20,-12 19,0 20,7 20,140 0,133 -1,140 -20,140 -17,0 -20,-7 -20,-47 z m -22,-62 c 8,-4 16,-27 19,-49 9,-67 -38,-117 -75,-80 -16,16 -16,110 0,126 14,14 37,15 56,3 z"
         id="path1869" />
      <path
         d="m 5006,6985 c -4,-14 -13,-25 -21,-25 -16,0 -21,-26 -6,-32 5,-2 3,-35 -5,-77 -16,-84 -10,-101 37,-101 19,0 29,5 29,15 0,8 -7,15 -15,15 -18,0 -19,29 -4,100 8,39 15,50 30,50 10,0 19,7 19,15 0,8 -7,15 -15,15 -9,0 -15,9 -15,25 0,15 -6,25 -14,25 -8,0 -17,-11 -20,-25 z"
         id="path1871" />
      <path
         d="m 2100,6733 c 0,-37 -3,-44 -12,-35 -7,7 -29,12 -50,12 -51,0 -73,-33 -73,-111 1,-72 21,-99 75,-99 20,0 41,5 48,12 9,9 12,9 12,0 0,-7 9,-12 20,-12 19,0 20,7 20,140 0,133 -1,140 -20,140 -17,0 -20,-7 -20,-47 z m -22,-62 c 8,-4 16,-27 19,-49 9,-67 -38,-117 -75,-80 -16,16 -16,110 0,126 14,14 37,15 56,3 z"
         id="path1873" />
      <path
         d="m 2346,6735 c -4,-14 -13,-25 -21,-25 -16,0 -21,-26 -6,-32 5,-2 3,-35 -5,-77 -16,-84 -10,-101 37,-101 19,0 29,5 29,15 0,8 -7,15 -15,15 -18,0 -19,29 -4,100 8,39 15,50 30,50 10,0 19,7 19,15 0,8 -7,15 -15,15 -9,0 -15,9 -15,25 0,15 -6,25 -14,25 -8,0 -17,-11 -20,-25 z"
         id="path1875" />
      <path
         d="m 2600,5915 v -155 h 25 25 v 155 155 h -25 -25 z"
         id="path1877" />
      <path
         d="m 3195,6026 c -57,-97 -57,-215 0,-312 19,-33 32,-44 50,-44 h 24 l -32,52 c -30,48 -32,56 -32,148 0,92 2,100 32,148 l 32,52 h -24 c -18,0 -31,-11 -50,-44 z"
         id="path1879" />
      <path
         d="m 3545,6026 c -57,-97 -57,-215 0,-312 19,-33 32,-44 50,-44 h 24 l -32,52 c -30,48 -32,56 -32,148 0,92 2,100 32,148 l 32,52 h -24 c -18,0 -31,-11 -50,-44 z"
         id="path1881" />
      <path
         d="m 3759,6041 c 68,-95 68,-247 0,-342 l -21,-31 28,4 c 23,2 34,13 59,62 25,51 30,70 30,136 0,66 -5,85 -30,136 -25,49 -36,60 -59,62 l -28,4 z"
         id="path1883" />
      <path
         d="m 5199,6041 c 33,-45 51,-107 51,-171 0,-64 -18,-126 -51,-171 l -21,-31 28,4 c 23,2 34,13 59,62 25,51 30,70 30,136 0,66 -5,85 -30,136 -25,49 -36,60 -59,62 l -28,4 z"
         id="path1885" />
      <path
         d="m 4526,6020 c -46,-56 -46,-174 1,-230 33,-39 98,-43 131,-7 43,46 54,136 26,207 -19,48 -38,60 -92,60 -32,0 -45,-6 -66,-30 z m 112,-28 c 7,-9 12,-45 12,-87 0,-72 -11,-102 -40,-105 -34,-5 -47,1 -58,25 -14,31 -16,124 -3,159 15,37 61,41 89,8 z"
         id="path1887" />
      <path
         d="m 4996,6020 c -46,-56 -46,-174 1,-230 33,-39 98,-43 131,-7 43,46 54,136 26,207 -19,48 -38,60 -92,60 -32,0 -45,-6 -66,-30 z m 112,-28 c 7,-9 12,-45 12,-87 0,-72 -11,-102 -40,-105 -34,-5 -47,1 -58,25 -14,31 -16,124 -3,159 15,37 61,41 89,8 z"
         id="path1889" />
      <path
         d="m 2054,6015 c -3,-14 -12,-25 -20,-25 -8,0 -14,-7 -14,-15 0,-8 7,-15 15,-15 12,0 15,-16 15,-88 0,-99 7,-112 58,-112 26,0 33,4 30,17 -2,10 -12,18 -23,18 -18,0 -20,8 -23,83 -3,77 -2,82 18,82 11,0 20,7 20,15 0,8 -9,15 -20,15 -15,0 -20,7 -20,25 0,15 -6,25 -15,25 -8,0 -17,-11 -21,-25 z"
         id="path1891" />
      <path
         d="m 3656,6015 c -4,-14 -13,-25 -21,-25 -8,0 -15,-7 -15,-15 0,-8 7,-15 15,-15 12,0 15,-16 15,-88 0,-98 7,-112 57,-112 38,0 47,27 11,32 -21,3 -23,9 -26,86 -3,77 -2,82 18,82 11,0 20,7 20,15 0,8 -9,15 -20,15 -15,0 -20,7 -20,25 0,15 -6,25 -14,25 -8,0 -17,-11 -20,-25 z"
         id="path1893" />
      <path
         d="m 4156,6015 c -4,-14 -13,-25 -21,-25 -8,0 -15,-7 -15,-15 0,-8 7,-15 15,-15 12,0 15,-16 15,-88 0,-98 7,-112 57,-112 38,0 47,27 11,32 -21,3 -23,9 -26,86 -3,77 -2,82 18,82 11,0 20,7 20,15 0,8 -9,15 -20,15 -15,0 -20,7 -20,25 0,15 -6,25 -14,25 -8,0 -17,-11 -20,-25 z"
         id="path1895" />
      <path
         d="m 365,5967 c -55,-95 -55,-219 0,-314 20,-33 32,-43 51,-43 h 25 l -24,33 c -35,47 -47,91 -47,171 0,72 22,139 57,178 15,17 14,18 -10,18 -20,0 -32,-10 -52,-43 z"
         id="path1897" />
      <path
         d="m 832,5993 c 2,-10 13,-19 26,-21 17,-3 22,2 22,17 0,16 -6,21 -26,21 -19,0 -25,-5 -22,-17 z"
         id="path1899" />
      <path
         d="m 1155,5974 c 32,-47 45,-95 45,-164 0,-69 -13,-117 -45,-164 -23,-34 -23,-36 -5,-36 10,0 30,15 43,33 66,88 66,246 0,335 -13,17 -33,32 -43,32 -18,0 -18,-2 5,-36 z"
         id="path1901" />
      <path
         d="m 476,5974 c -33,-32 -32,-116 0,-149 22,-21 68,-19 89,5 26,28 26,112 0,140 -22,24 -67,26 -89,4 z m 72,-53 c 6,-55 -5,-83 -31,-79 -18,2 -23,10 -25,47 -4,57 3,73 30,69 18,-2 24,-11 26,-37 z"
         id="path1903" />
      <path
         d="m 614,5858 c -100,-153 -104,-161 -79,-157 16,4 193,260 195,282 0,4 -7,7 -15,7 -8,0 -54,-60 -101,-132 z"
         id="path1905" />
      <path
         d="m 946,5965 c -14,-13 -26,-31 -26,-40 0,-22 37,-19 50,4 24,46 90,32 90,-19 0,-24 -14,-44 -70,-98 -45,-44 -70,-76 -70,-90 0,-21 4,-22 95,-22 78,0 95,3 95,15 0,12 -14,15 -70,15 -38,0 -70,4 -70,9 0,6 25,31 56,58 87,75 104,124 59,168 -34,35 -101,35 -139,0 z"
         id="path1907" />
      <path
         d="m 1830,5963 -21,-27 22,-8 c 17,-6 25,-4 36,12 17,24 46,26 67,4 30,-30 20,-44 -33,-44 -64,0 -95,-24 -95,-73 0,-19 6,-42 13,-51 18,-21 94,-21 112,0 12,14 14,14 25,-1 8,-10 23,-15 40,-13 33,4 43,23 14,31 -18,5 -20,13 -20,81 0,96 -15,116 -89,116 -42,0 -53,-4 -71,-27 z m 120,-108 c 0,-19 -44,-65 -63,-65 -18,0 -37,20 -37,40 0,26 22,40 62,40 28,0 38,-4 38,-15 z"
         id="path1909" />
      <path
         d="m 2141,5983 c 0,-5 17,-55 37,-113 33,-95 40,-105 63,-108 24,-3 29,2 43,40 8,24 27,74 41,112 14,37 25,70 25,72 0,2 -10,4 -23,4 -20,0 -27,-12 -53,-92 l -30,-93 -29,93 c -25,82 -31,92 -52,92 -12,0 -23,-3 -22,-7 z"
         id="path1911" />
      <path
         d="m 2390,5963 -21,-27 22,-8 c 17,-6 25,-4 36,12 17,24 46,26 67,4 30,-30 20,-44 -33,-44 -64,0 -95,-24 -95,-73 0,-19 6,-42 13,-51 18,-21 94,-21 112,0 12,14 14,14 25,-1 8,-10 23,-15 40,-13 33,4 43,23 14,31 -18,5 -20,13 -20,81 0,96 -15,116 -89,116 -42,0 -53,-4 -71,-27 z m 120,-108 c 0,-19 -44,-65 -63,-65 -18,0 -37,20 -37,40 0,26 22,40 62,40 28,0 38,-4 38,-15 z"
         id="path1913" />
      <path
         d="m 2692,5889 c 2,-86 6,-103 22,-115 24,-17 88,-18 104,-2 9,9 12,9 12,0 0,-7 11,-12 25,-12 h 25 v 115 115 h -25 c -25,0 -25,-1 -25,-85 0,-80 -1,-85 -26,-102 -46,-30 -59,-10 -62,96 -3,90 -3,91 -28,91 h -26 z"
         id="path1915" />
      <path
         d="m 2946,5967 c -45,-45 -41,-158 7,-192 34,-24 109,-20 135,8 12,13 22,26 22,29 0,15 -36,12 -52,-4 -10,-10 -27,-18 -38,-18 -26,0 -60,34 -60,60 0,18 7,20 80,20 89,0 92,3 66,65 -17,41 -42,55 -96,55 -29,0 -47,-6 -64,-23 z m 106,-24 c 33,-30 23,-43 -37,-43 -59,0 -67,8 -35,40 24,24 47,25 72,3 z"
         id="path1917" />
      <path
         d="m 3280,5985 c 0,-3 15,-29 34,-57 l 35,-51 -40,-58 -40,-59 h 26 c 18,0 32,11 51,42 l 26,41 19,-24 c 10,-13 21,-32 25,-41 3,-12 16,-18 35,-18 h 30 l -41,60 -41,60 29,43 c 46,67 46,67 19,67 -19,0 -31,-11 -49,-42 l -25,-41 -23,41 c -17,31 -30,42 -47,42 -13,0 -23,-2 -23,-5 z"
         id="path1919" />
      <path
         d="m 5360,5965 c 0,-18 5,-25 20,-25 15,0 20,7 20,25 0,18 -5,25 -20,25 -15,0 -20,-7 -20,-25 z"
         id="path1921" />
      <path
         d="m 4260,5955 c 0,-12 18,-15 105,-15 87,0 105,3 105,15 0,12 -18,15 -105,15 -87,0 -105,-3 -105,-15 z"
         id="path1923" />
      <path
         d="m 830,5815 v -115 h 25 25 v 115 115 h -25 -25 z"
         id="path1925" />
      <path
         d="m 684,5869 c -13,-14 -18,-36 -18,-74 0,-62 22,-95 64,-95 42,0 65,33 65,95 0,38 -5,59 -19,74 -24,27 -68,27 -92,0 z m 71,-74 c 0,-57 -1,-60 -25,-60 -23,0 -25,4 -28,49 -4,62 2,78 30,74 21,-3 23,-8 23,-63 z"
         id="path1927" />
      <path
         d="m 4260,5845 c 0,-12 18,-15 105,-15 87,0 105,3 105,15 0,12 -18,15 -105,15 -87,0 -105,-3 -105,-15 z"
         id="path1929" />
      <path
         d="m 3917,5803 c -11,-10 -8,-43 4,-43 7,0 8,-11 4,-30 -5,-23 -3,-30 8,-30 19,0 27,21 27,71 0,31 -4,39 -18,39 -10,0 -22,-3 -25,-7 z"
         id="path1931" />
      <path
         d="m 4747,5803 c -11,-10 -8,-43 4,-43 7,0 8,-11 4,-30 -5,-23 -3,-30 8,-30 19,0 27,21 27,71 0,31 -4,39 -18,39 -10,0 -22,-3 -25,-7 z"
         id="path1933" />
      <path
         d="m 5363,5755 c 3,-85 37,-70 37,16 0,32 -3,39 -19,39 -18,0 -20,-7 -18,-55 z"
         id="path1935" />
      <path
         d="m 1842,5370 c -54,-51 -55,-189 0,-247 23,-25 83,-32 117,-13 61,32 67,224 8,265 -31,22 -99,19 -125,-5 z m 106,-38 c 15,-19 16,-145 2,-173 -15,-27 -64,-25 -84,3 -19,27 -21,125 -5,162 17,37 60,41 87,8 z"
         id="path1937" />
      <path
         d="m 377,5348 c -36,-50 -49,-92 -50,-161 -1,-72 16,-129 50,-174 43,-58 55,-40 20,28 -28,54 -32,72 -32,139 0,67 4,85 32,139 35,68 22,86 -20,29 z"
         id="path1939" />
      <path
         d="m 1282,5363 c 37,-41 58,-106 58,-184 0,-65 -4,-85 -30,-135 -30,-61 -31,-76 -2,-58 35,22 65,94 70,168 7,113 -34,217 -88,225 -24,3 -24,2 -8,-16 z"
         id="path1941" />
      <path
         d="m 474,5339 c -25,-28 -25,-110 1,-139 24,-27 70,-26 89,2 23,32 21,120 -2,141 -25,23 -65,21 -88,-4 z m 65,-13 c 7,-8 11,-36 9,-63 -3,-44 -5,-48 -28,-48 -23,0 -25,4 -28,48 -3,45 9,77 28,77 4,0 13,-6 19,-14 z"
         id="path1943" />
      <path
         d="m 611,5220 c -50,-77 -91,-142 -91,-145 0,-3 6,-5 14,-5 11,0 196,269 196,285 0,3 -6,5 -14,5 -8,0 -55,-63 -105,-140 z"
         id="path1945" />
      <path
         d="m 1089,5331 c -16,-16 -29,-34 -29,-40 0,-19 28,-12 54,14 31,31 61,32 81,1 22,-33 12,-51 -67,-127 -42,-41 -68,-75 -68,-88 0,-20 5,-21 95,-21 78,0 95,3 95,15 0,12 -14,15 -70,15 -38,0 -70,3 -70,7 0,4 30,38 67,75 58,59 67,72 67,104 0,75 -97,103 -155,45 z"
         id="path1947" />
      <path
         d="m 874,5288 c -30,-14 -44,-50 -44,-109 0,-42 5,-55 29,-80 32,-31 71,-38 114,-18 33,15 47,49 47,115 0,45 -4,59 -25,79 -26,27 -81,33 -121,13 z m 90,-34 c 11,-10 16,-34 16,-69 0,-60 -16,-85 -55,-85 -39,0 -55,25 -55,85 0,60 16,85 55,85 13,0 31,-7 39,-16 z"
         id="path1949" />
      <path
         d="m 686,5241 c -12,-13 -17,-36 -17,-76 0,-66 19,-95 62,-95 40,0 63,39 62,102 -1,57 -23,88 -63,88 -15,0 -35,-9 -44,-19 z m 62,-13 c 18,-18 15,-113 -3,-128 -12,-10 -18,-10 -30,0 -28,24 -16,140 15,140 3,0 11,-5 18,-12 z"
         id="path1951" />
      <path
         d="m 2600,4505 v -155 h 25 25 v 155 155 h -25 -25 z"
         id="path1953" />
      <path
         d="m 3195,4616 c -57,-97 -57,-215 0,-312 19,-33 32,-44 50,-44 h 24 l -32,52 c -30,48 -32,56 -32,148 0,92 2,100 32,148 l 32,52 h -24 c -18,0 -31,-11 -50,-44 z"
         id="path1955" />
      <path
         d="m 3510,4608 c 0,-40 -3,-49 -12,-40 -20,20 -85,15 -107,-9 -40,-43 -34,-176 9,-199 26,-14 83,-13 98,2 9,9 12,9 12,0 0,-7 11,-12 25,-12 h 25 v 155 155 h -25 c -23,0 -25,-3 -25,-52 z m -16,-77 c 13,-14 16,-33 14,-72 -3,-47 -7,-55 -31,-69 -27,-14 -29,-14 -48,9 -37,45 -16,151 30,151 10,0 26,-9 35,-19 z"
         id="path1957" />
      <path
         d="m 3600,4640 c 0,-15 7,-20 25,-20 18,0 25,5 25,20 0,15 -7,20 -25,20 -18,0 -25,-5 -25,-20 z"
         id="path1959" />
      <path
         d="m 3710,4641 c -5,-11 -10,-29 -10,-40 0,-12 -7,-21 -15,-21 -8,0 -15,-7 -15,-15 0,-8 7,-15 15,-15 12,0 15,-18 15,-100 v -100 h 25 25 v 100 100 h 30 30 v -100 -100 h 25 25 v 100 c 0,93 1,100 20,100 11,0 20,7 20,15 0,8 -9,15 -20,15 -14,0 -20,7 -20,21 0,12 8,23 20,26 34,9 24,33 -15,33 -36,0 -55,-20 -55,-59 0,-17 -6,-21 -30,-21 -24,0 -30,4 -30,21 0,12 8,23 20,26 34,9 24,33 -15,33 -24,0 -37,-6 -45,-19 z"
         id="path1961" />
      <path
         d="m 3965,4616 c -57,-97 -57,-215 0,-312 19,-33 32,-44 50,-44 h 24 l -32,52 c -30,48 -32,56 -32,148 0,92 2,100 32,148 l 32,52 h -24 c -18,0 -31,-11 -50,-44 z"
         id="path1963" />
      <path
         d="m 4315,4616 c -57,-97 -57,-215 0,-312 19,-33 32,-44 50,-44 h 24 l -32,52 c -30,48 -32,56 -32,148 0,92 2,100 32,148 l 32,52 h -24 c -18,0 -31,-11 -50,-44 z"
         id="path1965" />
      <path
         d="m 4529,4631 c 33,-45 51,-107 51,-171 0,-64 -18,-126 -51,-171 l -21,-31 28,4 c 23,2 34,13 59,62 25,51 30,70 30,136 0,66 -5,85 -30,136 -25,49 -36,60 -59,62 l -28,4 z"
         id="path1967" />
      <path
         d="m 5029,4631 c 33,-45 51,-107 51,-171 0,-64 -18,-126 -51,-171 l -21,-31 28,4 c 23,2 34,13 59,62 25,51 30,70 30,136 0,66 -5,85 -30,136 -25,49 -36,60 -59,62 l -28,4 z"
         id="path1969" />
      <path
         d="m 6589,4631 c 33,-45 51,-107 51,-171 0,-64 -18,-126 -51,-171 l -21,-31 28,4 c 23,2 34,13 59,62 25,51 30,70 30,136 0,66 -5,85 -30,136 -25,49 -36,60 -59,62 l -28,4 z"
         id="path1971" />
      <path
         d="m 3290,4590 c 0,-43 3,-50 20,-50 17,0 20,7 20,50 0,43 -3,50 -20,50 -17,0 -20,-7 -20,-50 z"
         id="path1973" />
      <path
         d="m 5916,4610 c -46,-56 -46,-174 1,-230 33,-39 98,-43 131,-7 43,46 54,136 26,207 -19,48 -38,60 -92,60 -32,0 -45,-6 -66,-30 z m 112,-28 c 7,-9 12,-45 12,-87 0,-72 -11,-102 -40,-105 -34,-5 -47,1 -58,25 -14,31 -16,124 -3,159 15,37 61,41 89,8 z"
         id="path1975" />
      <path
         d="m 6386,4610 c -46,-56 -46,-174 1,-230 33,-39 98,-43 131,-7 43,46 54,136 26,207 -19,48 -38,60 -92,60 -32,0 -45,-6 -66,-30 z m 112,-28 c 7,-9 12,-45 12,-87 0,-72 -11,-102 -40,-105 -34,-5 -47,1 -58,25 -14,31 -16,124 -3,159 15,37 61,41 89,8 z"
         id="path1977" />
      <path
         d="m 2054,4605 c -3,-14 -12,-25 -20,-25 -8,0 -14,-7 -14,-15 0,-8 7,-15 15,-15 12,0 15,-16 15,-88 0,-99 7,-112 58,-112 26,0 33,4 30,17 -2,10 -12,18 -23,18 -18,0 -20,8 -23,83 -3,77 -2,82 18,82 11,0 20,7 20,15 0,8 -9,15 -20,15 -15,0 -20,7 -20,25 0,15 -6,25 -15,25 -8,0 -17,-11 -21,-25 z"
         id="path1979" />
      <path
         d="m 4426,4605 c -4,-14 -13,-25 -21,-25 -8,0 -15,-7 -15,-15 0,-8 7,-15 15,-15 12,0 15,-16 15,-88 0,-98 7,-112 57,-112 38,0 47,27 11,32 -21,3 -23,9 -26,86 -3,77 -2,82 18,82 11,0 20,7 20,15 0,8 -9,15 -20,15 -15,0 -20,7 -20,25 0,15 -6,25 -14,25 -8,0 -17,-11 -20,-25 z"
         id="path1981" />
      <path
         d="m 4926,4605 c -4,-14 -13,-25 -21,-25 -8,0 -15,-7 -15,-15 0,-8 7,-15 15,-15 12,0 15,-16 15,-88 0,-98 7,-112 57,-112 38,0 47,27 11,32 -21,3 -23,9 -26,86 -3,77 -2,82 18,82 11,0 20,7 20,15 0,8 -9,15 -20,15 -15,0 -20,7 -20,25 0,15 -6,25 -14,25 -8,0 -17,-11 -20,-25 z"
         id="path1983" />
      <path
         d="m 5546,4605 c -4,-14 -13,-25 -21,-25 -8,0 -15,-7 -15,-15 0,-8 7,-15 15,-15 12,0 15,-16 15,-88 0,-98 7,-112 57,-112 38,0 47,27 11,32 -21,3 -23,9 -26,86 -3,77 -2,82 18,82 11,0 20,7 20,15 0,8 -9,15 -20,15 -15,0 -20,7 -20,25 0,15 -6,25 -14,25 -8,0 -17,-11 -20,-25 z"
         id="path1985" />
      <path
         d="m 365,4557 c -55,-95 -55,-219 0,-314 20,-33 32,-43 51,-43 h 25 l -24,33 c -35,47 -47,91 -47,171 0,72 22,139 57,178 15,17 14,18 -10,18 -20,0 -32,-10 -52,-43 z"
         id="path1987" />
      <path
         d="m 832,4583 c 2,-10 13,-19 26,-21 17,-3 22,2 22,17 0,16 -6,21 -26,21 -19,0 -25,-5 -22,-17 z"
         id="path1989" />
      <path
         d="m 1155,4564 c 32,-47 45,-95 45,-164 0,-69 -13,-117 -45,-164 -23,-34 -23,-36 -5,-36 10,0 30,15 43,33 66,88 66,246 0,335 -13,17 -33,32 -43,32 -18,0 -18,-2 5,-36 z"
         id="path1991" />
      <path
         d="m 476,4564 c -33,-32 -32,-116 0,-149 22,-21 68,-19 89,5 26,28 26,112 0,140 -22,24 -67,26 -89,4 z m 72,-53 c 6,-55 -5,-83 -31,-79 -18,2 -23,10 -25,47 -4,57 3,73 30,69 18,-2 24,-11 26,-37 z"
         id="path1993" />
      <path
         d="m 614,4448 c -100,-153 -104,-161 -79,-157 16,4 193,260 195,282 0,4 -7,7 -15,7 -8,0 -54,-60 -101,-132 z"
         id="path1995" />
      <path
         d="m 945,4555 c -29,-28 -31,-40 -10,-49 8,-3 25,5 39,19 28,28 38,30 67,15 42,-23 13,-80 -41,-80 -35,0 -21,-34 15,-38 17,-2 36,-8 43,-14 20,-17 14,-56 -13,-74 -29,-19 -60,-11 -81,21 -18,28 -54,24 -47,-6 21,-80 184,-75 194,6 5,34 -10,73 -30,80 -18,5 -18,7 5,30 31,31 30,59 -1,90 -34,35 -106,35 -140,0 z"
         id="path1997" />
      <path
         d="m 1830,4553 -21,-27 22,-8 c 17,-6 25,-4 36,12 17,24 46,26 67,4 30,-30 20,-44 -33,-44 -64,0 -95,-24 -95,-73 0,-19 6,-42 13,-51 18,-21 94,-21 112,0 12,14 14,14 25,-1 8,-10 23,-15 40,-13 33,4 43,23 14,31 -18,5 -20,13 -20,81 0,96 -15,116 -89,116 -42,0 -53,-4 -71,-27 z m 120,-108 c 0,-19 -44,-65 -63,-65 -18,0 -37,20 -37,40 0,26 22,40 62,40 28,0 38,-4 38,-15 z"
         id="path1999" />
      <path
         d="m 2141,4573 c 0,-5 17,-55 37,-113 33,-95 40,-105 63,-108 24,-3 29,2 43,40 8,24 27,74 41,112 14,37 25,70 25,72 0,2 -10,4 -23,4 -20,0 -27,-12 -53,-92 l -30,-93 -29,93 c -25,82 -31,92 -52,92 -12,0 -23,-3 -22,-7 z"
         id="path2001" />
      <path
         d="m 2390,4553 -21,-27 22,-8 c 17,-6 25,-4 36,12 17,24 46,26 67,4 30,-30 20,-44 -33,-44 -64,0 -95,-24 -95,-73 0,-19 6,-42 13,-51 18,-21 94,-21 112,0 12,14 14,14 25,-1 8,-10 23,-15 40,-13 33,4 43,23 14,31 -18,5 -20,13 -20,81 0,96 -15,116 -89,116 -42,0 -53,-4 -71,-27 z m 120,-108 c 0,-19 -44,-65 -63,-65 -18,0 -37,20 -37,40 0,26 22,40 62,40 28,0 38,-4 38,-15 z"
         id="path2003" />
      <path
         d="m 2692,4479 c 2,-86 6,-103 22,-115 24,-17 88,-18 104,-2 9,9 12,9 12,0 0,-7 11,-12 25,-12 h 25 v 115 115 h -25 c -25,0 -25,-1 -25,-85 0,-80 -1,-85 -26,-102 -46,-30 -59,-10 -62,96 -3,90 -3,91 -28,91 h -26 z"
         id="path2005" />
      <path
         d="m 2946,4557 c -45,-45 -41,-158 7,-192 34,-24 109,-20 135,8 12,13 22,26 22,29 0,15 -36,12 -52,-4 -24,-24 -53,-23 -78,2 -11,11 -20,29 -20,40 0,18 7,20 80,20 89,0 92,3 66,65 -17,41 -42,55 -96,55 -29,0 -47,-6 -64,-23 z m 106,-24 c 33,-30 23,-43 -37,-43 -59,0 -67,8 -35,40 24,24 47,25 72,3 z"
         id="path2007" />
      <path
         d="m 3600,4465 v -115 h 25 25 v 115 115 h -25 -25 z"
         id="path2009" />
      <path
         d="m 4050,4575 c 0,-3 15,-29 34,-57 l 35,-51 -40,-58 -40,-59 h 26 c 18,0 32,11 51,42 l 26,41 19,-24 c 10,-13 21,-32 25,-41 3,-12 16,-18 35,-18 h 30 l -41,60 -41,60 29,43 c 46,67 46,67 19,67 -19,0 -31,-11 -49,-42 l -25,-41 -23,41 c -17,31 -30,42 -47,42 -13,0 -23,-2 -23,-5 z"
         id="path2011" />
      <path
         d="m 6750,4555 c 0,-18 5,-25 20,-25 15,0 20,7 20,25 0,18 -5,25 -20,25 -15,0 -20,-7 -20,-25 z"
         id="path2013" />
      <path
         d="m 5650,4545 c 0,-12 18,-15 105,-15 87,0 105,3 105,15 0,12 -18,15 -105,15 -87,0 -105,-3 -105,-15 z"
         id="path2015" />
      <path
         d="m 830,4405 v -115 h 25 25 v 115 115 h -25 -25 z"
         id="path2017" />
      <path
         d="m 684,4459 c -13,-14 -18,-36 -18,-74 0,-62 22,-95 64,-95 42,0 65,33 65,95 0,38 -5,59 -19,74 -24,27 -68,27 -92,0 z m 71,-74 c 0,-57 -1,-60 -25,-60 -23,0 -25,4 -28,49 -4,62 2,78 30,74 21,-3 23,-8 23,-63 z"
         id="path2019" />
      <path
         d="m 5650,4435 c 0,-12 18,-15 105,-15 87,0 105,3 105,15 0,12 -18,15 -105,15 -87,0 -105,-3 -105,-15 z"
         id="path2021" />
      <path
         d="m 4687,4393 c -11,-10 -8,-43 4,-43 7,0 8,-11 4,-30 -5,-23 -3,-30 8,-30 19,0 27,21 27,71 0,31 -4,39 -18,39 -10,0 -22,-3 -25,-7 z"
         id="path2023" />
      <path
         d="m 5307,4393 c -11,-10 -8,-43 4,-43 7,0 8,-11 4,-30 -5,-23 -3,-30 8,-30 19,0 27,21 27,71 0,31 -4,39 -18,39 -10,0 -22,-3 -25,-7 z"
         id="path2025" />
      <path
         d="m 6137,4393 c -11,-10 -8,-43 4,-43 7,0 8,-11 4,-30 -5,-23 -3,-30 8,-30 19,0 27,21 27,71 0,31 -4,39 -18,39 -10,0 -22,-3 -25,-7 z"
         id="path2027" />
      <path
         d="m 6753,4345 c 3,-85 37,-70 37,16 0,32 -3,39 -19,39 -18,0 -20,-7 -18,-55 z"
         id="path2029" />
      <path
         d="m 1842,3960 c -54,-51 -55,-189 0,-247 23,-25 83,-32 117,-13 61,32 67,224 8,265 -31,22 -99,19 -125,-5 z m 106,-38 c 15,-19 16,-145 2,-173 -15,-27 -64,-25 -84,3 -19,27 -21,125 -5,162 17,37 60,41 87,8 z"
         id="path2031" />
      <path
         d="m 377,3938 c -36,-50 -49,-92 -50,-161 -1,-72 16,-129 50,-174 43,-58 55,-40 20,28 -28,54 -32,72 -32,139 0,67 4,85 32,139 35,68 22,86 -20,29 z"
         id="path2033" />
      <path
         d="m 1282,3953 c 37,-41 58,-106 58,-184 0,-65 -4,-85 -30,-135 -30,-61 -31,-76 -2,-58 35,22 65,94 70,168 7,113 -34,217 -88,225 -24,3 -24,2 -8,-16 z"
         id="path2035" />
      <path
         d="m 474,3929 c -25,-28 -25,-110 1,-139 24,-27 70,-26 89,2 23,32 21,120 -2,141 -25,23 -65,21 -88,-4 z m 65,-13 c 7,-8 11,-36 9,-63 -3,-44 -5,-48 -28,-48 -23,0 -25,4 -28,48 -3,45 9,77 28,77 4,0 13,-6 19,-14 z"
         id="path2037" />
      <path
         d="m 611,3810 c -50,-77 -91,-142 -91,-145 0,-3 6,-5 14,-5 11,0 196,269 196,285 0,3 -6,5 -14,5 -8,0 -55,-63 -105,-140 z"
         id="path2039" />
      <path
         d="m 1085,3925 c -14,-13 -25,-29 -25,-35 0,-17 29,-11 51,11 25,25 67,22 86,-8 13,-19 12,-24 -6,-42 -12,-12 -32,-21 -46,-21 -36,0 -31,-26 7,-34 43,-8 58,-23 58,-57 0,-21 -7,-32 -24,-40 -32,-15 -77,-3 -83,21 -7,26 -43,27 -43,1 0,-57 119,-83 165,-36 34,33 34,87 2,112 -24,17 -24,17 -4,34 29,23 27,77 -2,101 -35,28 -105,24 -136,-7 z"
         id="path2041" />
      <path
         d="m 874,3878 c -30,-14 -44,-50 -44,-109 0,-42 5,-55 29,-80 32,-31 71,-38 114,-18 33,15 47,49 47,115 0,45 -4,59 -25,79 -26,27 -81,33 -121,13 z m 90,-34 c 11,-10 16,-34 16,-69 0,-60 -16,-85 -55,-85 -39,0 -55,25 -55,85 0,60 16,85 55,85 13,0 31,-7 39,-16 z"
         id="path2043" />
      <path
         d="m 686,3831 c -12,-13 -17,-36 -17,-76 0,-66 19,-95 62,-95 40,0 63,39 62,102 -1,57 -23,88 -63,88 -15,0 -35,-9 -44,-19 z m 62,-13 c 18,-18 15,-113 -3,-128 -12,-10 -18,-10 -30,0 -28,24 -16,140 15,140 3,0 11,-5 18,-12 z"
         id="path2045" />
      <path
         d="m 2600,3095 v -155 h 25 25 v 155 155 h -25 -25 z"
         id="path2047" />
      <path
         d="m 3195,3206 c -57,-97 -57,-215 0,-312 19,-33 32,-44 50,-44 h 24 l -32,52 c -30,48 -32,56 -32,148 0,92 2,100 32,148 l 32,52 h -24 c -18,0 -31,-11 -50,-44 z"
         id="path2049" />
      <path
         d="m 3545,3206 c -57,-97 -57,-215 0,-312 19,-33 32,-44 50,-44 h 24 l -32,52 c -30,48 -32,56 -32,148 0,92 2,100 32,148 l 32,52 h -24 c -18,0 -31,-11 -50,-44 z"
         id="path2051" />
      <path
         d="m 3759,3221 c 33,-45 51,-107 51,-171 0,-64 -18,-126 -51,-171 l -21,-31 28,4 c 23,2 34,13 59,62 25,51 30,70 30,136 0,66 -5,85 -30,136 -25,49 -36,60 -59,62 l -28,4 z"
         id="path2053" />
      <path
         d="m 5199,3221 c 33,-45 51,-107 51,-171 0,-64 -18,-126 -51,-171 l -21,-31 28,4 c 23,2 34,13 59,62 25,51 30,70 30,136 0,66 -5,85 -30,136 -25,49 -36,60 -59,62 l -28,4 z"
         id="path2055" />
      <path
         d="m 4526,3200 c -46,-56 -46,-174 1,-230 33,-39 98,-43 131,-7 43,46 54,136 26,207 -19,48 -38,60 -92,60 -32,0 -45,-6 -66,-30 z m 112,-28 c 7,-9 12,-45 12,-87 0,-72 -11,-102 -40,-105 -34,-5 -47,1 -58,25 -14,31 -16,124 -3,159 15,37 61,41 89,8 z"
         id="path2057" />
      <path
         d="m 5018,3207 c -16,-13 -28,-30 -28,-40 0,-21 13,-22 30,-2 24,29 30,14 30,-85 v -100 h -35 c -28,0 -35,-4 -35,-20 0,-19 7,-20 96,-20 86,0 95,2 92,18 -2,11 -14,18 -36,20 l -32,3 v 125 124 h -27 c -16,-1 -40,-11 -55,-23 z"
         id="path2059" />
      <path
         d="m 2054,3195 c -3,-14 -12,-25 -20,-25 -8,0 -14,-7 -14,-15 0,-8 7,-15 15,-15 12,0 15,-16 15,-88 0,-99 7,-112 58,-112 26,0 33,4 30,17 -2,10 -12,18 -23,18 -18,0 -20,8 -23,83 -3,77 -2,82 18,82 11,0 20,7 20,15 0,8 -9,15 -20,15 -15,0 -20,7 -20,25 0,15 -6,25 -15,25 -8,0 -17,-11 -21,-25 z"
         id="path2061" />
      <path
         d="m 3656,3195 c -4,-14 -13,-25 -21,-25 -8,0 -15,-7 -15,-15 0,-8 7,-15 15,-15 12,0 15,-16 15,-88 0,-98 7,-112 57,-112 38,0 47,27 11,32 -21,3 -23,9 -26,86 -3,77 -2,82 18,82 11,0 20,7 20,15 0,8 -9,15 -20,15 -15,0 -20,7 -20,25 0,15 -6,25 -14,25 -8,0 -17,-11 -20,-25 z"
         id="path2063" />
      <path
         d="m 4156,3195 c -4,-14 -13,-25 -21,-25 -8,0 -15,-7 -15,-15 0,-8 7,-15 15,-15 12,0 15,-16 15,-88 0,-98 7,-112 57,-112 38,0 47,27 11,32 -21,3 -23,9 -26,86 -3,77 -2,82 18,82 11,0 20,7 20,15 0,8 -9,15 -20,15 -15,0 -20,7 -20,25 0,15 -6,25 -14,25 -8,0 -17,-11 -20,-25 z"
         id="path2065" />
      <path
         d="m 365,3147 c -55,-95 -55,-219 0,-314 20,-33 32,-43 51,-43 h 25 l -24,33 c -35,47 -47,91 -47,171 0,72 22,139 57,178 15,17 14,18 -10,18 -20,0 -32,-10 -52,-43 z"
         id="path2067" />
      <path
         d="m 832,3173 c 2,-10 13,-19 26,-21 17,-3 22,2 22,17 0,16 -6,21 -26,21 -19,0 -25,-5 -22,-17 z"
         id="path2069" />
      <path
         d="m 1155,3154 c 32,-47 45,-95 45,-164 0,-69 -13,-117 -45,-164 -23,-34 -23,-36 -5,-36 10,0 30,15 43,33 66,88 66,246 0,335 -13,17 -33,32 -43,32 -18,0 -18,-2 5,-36 z"
         id="path2071" />
      <path
         d="m 476,3154 c -33,-32 -32,-116 0,-149 22,-21 68,-19 89,5 26,28 26,112 0,140 -22,24 -67,26 -89,4 z m 72,-53 c 6,-55 -5,-83 -31,-79 -18,2 -23,10 -25,47 -4,57 3,73 30,69 18,-2 24,-11 26,-37 z"
         id="path2073" />
      <path
         d="m 614,3038 c -100,-153 -104,-161 -79,-157 16,4 193,260 195,282 0,4 -7,7 -15,7 -8,0 -54,-60 -101,-132 z"
         id="path2075" />
      <path
         d="m 927,3098 c -3,-40 -4,-74 -1,-77 2,-3 25,1 51,7 61,17 93,-2 93,-53 0,-61 -69,-84 -110,-35 -10,12 -21,16 -35,10 -18,-6 -18,-9 12,-38 26,-26 39,-32 75,-32 55,0 84,20 98,68 22,72 -24,127 -100,120 l -40,-4 v 38 38 h 65 c 51,0 65,3 65,15 0,12 -16,15 -84,15 h -83 z"
         id="path2077" />
      <path
         d="m 1830,3143 -21,-27 22,-8 c 17,-6 25,-4 36,12 17,24 46,26 67,4 30,-30 20,-44 -33,-44 -64,0 -95,-24 -95,-73 0,-19 6,-42 13,-51 18,-21 94,-21 112,0 12,14 14,14 25,-1 8,-10 23,-15 40,-13 33,4 43,23 14,31 -18,5 -20,13 -20,81 0,96 -15,116 -89,116 -42,0 -53,-4 -71,-27 z m 120,-108 c 0,-19 -44,-65 -63,-65 -18,0 -37,20 -37,40 0,26 22,40 62,40 28,0 38,-4 38,-15 z"
         id="path2079" />
      <path
         d="m 2141,3163 c 0,-5 17,-55 37,-113 33,-95 40,-105 63,-108 24,-3 29,2 43,40 8,24 27,74 41,112 14,37 25,70 25,72 0,2 -10,4 -23,4 -20,0 -27,-12 -53,-92 l -30,-93 -29,93 c -25,82 -31,92 -52,92 -12,0 -23,-3 -22,-7 z"
         id="path2081" />
      <path
         d="m 2390,3143 -21,-27 22,-8 c 17,-6 25,-4 36,12 17,24 46,26 67,4 30,-30 20,-44 -33,-44 -64,0 -95,-24 -95,-73 0,-19 6,-42 13,-51 18,-21 94,-21 112,0 12,14 14,14 25,-1 8,-10 23,-15 40,-13 33,4 43,23 14,31 -18,5 -20,13 -20,81 0,96 -15,116 -89,116 -42,0 -53,-4 -71,-27 z m 120,-108 c 0,-19 -44,-65 -63,-65 -18,0 -37,20 -37,40 0,26 22,40 62,40 28,0 38,-4 38,-15 z"
         id="path2083" />
      <path
         d="m 2692,3069 c 2,-86 6,-103 22,-115 24,-17 88,-18 104,-2 9,9 12,9 12,0 0,-7 11,-12 25,-12 h 25 v 115 115 h -25 c -25,0 -25,-1 -25,-85 0,-80 -1,-85 -26,-102 -46,-30 -59,-10 -62,96 -3,90 -3,91 -28,91 h -26 z"
         id="path2085" />
      <path
         d="m 2946,3147 c -45,-45 -41,-158 7,-192 34,-24 109,-20 135,8 12,13 22,26 22,29 0,15 -36,12 -52,-4 -24,-24 -53,-23 -78,2 -11,11 -20,29 -20,40 0,18 7,20 80,20 89,0 92,3 66,65 -17,41 -42,55 -96,55 -29,0 -47,-6 -64,-23 z m 106,-24 c 33,-30 23,-43 -37,-43 -59,0 -67,8 -35,40 24,24 47,25 72,3 z"
         id="path2087" />
      <path
         d="m 3270,3166 c 0,-2 18,-52 41,-111 45,-122 45,-151 -1,-168 -39,-15 -39,-37 -1,-37 29,0 53,16 70,48 8,16 101,262 101,269 0,2 -10,3 -23,3 -20,0 -27,-11 -51,-87 l -29,-88 -30,88 c -27,76 -33,87 -54,87 -13,0 -23,-2 -23,-4 z"
         id="path2089" />
      <path
         d="m 5360,3145 c 0,-18 5,-25 20,-25 15,0 20,7 20,25 0,18 -5,25 -20,25 -15,0 -20,-7 -20,-25 z"
         id="path2091" />
      <path
         d="m 4260,3135 c 0,-12 18,-15 105,-15 87,0 105,3 105,15 0,12 -18,15 -105,15 -87,0 -105,-3 -105,-15 z"
         id="path2093" />
      <path
         d="m 830,2995 v -115 h 25 25 v 115 115 h -25 -25 z"
         id="path2095" />
      <path
         d="m 684,3049 c -13,-14 -18,-36 -18,-74 0,-62 22,-95 64,-95 42,0 65,33 65,95 0,38 -5,59 -19,74 -24,27 -68,27 -92,0 z m 71,-74 c 0,-57 -1,-60 -25,-60 -23,0 -25,4 -28,49 -4,62 2,78 30,74 21,-3 23,-8 23,-63 z"
         id="path2097" />
      <path
         d="m 4260,3025 c 0,-12 18,-15 105,-15 87,0 105,3 105,15 0,12 -18,15 -105,15 -87,0 -105,-3 -105,-15 z"
         id="path2099" />
      <path
         d="m 3917,2983 c -11,-10 -8,-43 4,-43 7,0 8,-11 4,-30 -5,-23 -3,-30 8,-30 19,0 27,21 27,71 0,31 -4,39 -18,39 -10,0 -22,-3 -25,-7 z"
         id="path2101" />
      <path
         d="m 4747,2983 c -11,-10 -8,-43 4,-43 7,0 8,-11 4,-30 -5,-23 -3,-30 8,-30 19,0 27,21 27,71 0,31 -4,39 -18,39 -10,0 -22,-3 -25,-7 z"
         id="path2103" />
      <path
         d="m 5363,2935 c 3,-85 37,-70 37,16 0,32 -3,39 -19,39 -18,0 -20,-7 -18,-55 z"
         id="path2105" />
      <path
         d="m 1858,2549 c -16,-11 -28,-29 -28,-40 0,-23 4,-23 35,-3 l 25,16 v -101 -101 h -35 c -28,0 -35,-4 -35,-20 0,-19 7,-20 96,-20 86,0 95,2 92,18 -2,11 -14,18 -36,20 l -32,3 v 125 124 h -27 c -16,0 -40,-10 -55,-21 z"
         id="path2107" />
      <path
         d="m 377,2528 c -36,-50 -49,-92 -50,-161 -1,-72 16,-129 50,-174 43,-58 55,-40 20,28 -28,54 -32,72 -32,139 0,67 4,85 32,139 35,68 22,86 -20,29 z"
         id="path2109" />
      <path
         d="m 1282,2543 c 37,-41 58,-106 58,-184 0,-65 -4,-85 -30,-135 -30,-61 -31,-76 -2,-58 35,22 65,94 70,168 7,113 -34,217 -88,225 -24,3 -24,2 -8,-16 z"
         id="path2111" />
      <path
         d="m 474,2519 c -25,-28 -25,-110 1,-139 24,-27 70,-26 89,2 23,32 21,120 -2,141 -25,23 -65,21 -88,-4 z m 65,-13 c 7,-8 11,-36 9,-63 -3,-44 -5,-48 -28,-48 -23,0 -25,4 -28,48 -3,45 9,77 28,77 4,0 13,-6 19,-14 z"
         id="path2113" />
      <path
         d="m 611,2400 c -50,-77 -91,-142 -91,-145 0,-3 6,-5 14,-5 11,0 196,269 196,285 0,3 -6,5 -14,5 -8,0 -55,-63 -105,-140 z"
         id="path2115" />
      <path
         d="m 1070,2481 c 0,-33 -3,-67 -7,-77 -6,-18 2,-17 80,2 38,9 67,-18 67,-62 0,-56 -61,-83 -100,-44 -23,23 -50,26 -50,6 0,-24 50,-56 87,-56 67,0 102,33 103,98 0,33 -6,49 -26,69 -22,22 -32,25 -75,21 -41,-4 -49,-2 -45,9 4,8 6,26 6,39 0,23 3,24 65,24 51,0 65,3 65,15 0,12 -16,15 -85,15 h -85 z"
         id="path2117" />
      <path
         d="m 874,2468 c -30,-14 -44,-50 -44,-109 0,-42 5,-55 29,-80 32,-31 71,-38 114,-18 33,15 47,49 47,115 0,45 -4,59 -25,79 -26,27 -81,33 -121,13 z m 90,-34 c 11,-10 16,-34 16,-69 0,-60 -16,-85 -55,-85 -39,0 -55,25 -55,85 0,60 16,85 55,85 13,0 31,-7 39,-16 z"
         id="path2119" />
      <path
         d="m 686,2421 c -12,-13 -17,-36 -17,-76 0,-66 19,-95 62,-95 40,0 63,39 62,102 -1,57 -23,88 -63,88 -15,0 -35,-9 -44,-19 z m 62,-13 c 18,-18 15,-113 -3,-128 -12,-10 -18,-10 -30,0 -28,24 -16,140 15,140 3,0 11,-5 18,-12 z"
         id="path2121" />
      <path
         d="m 1810,1685 v -155 h 25 25 v 155 155 h -25 -25 z"
         id="path2123" />
      <path
         d="m 2960,1789 c 0,-44 -2,-50 -14,-40 -25,21 -87,9 -109,-21 -28,-38 -29,-128 -1,-165 23,-31 84,-44 109,-23 9,8 15,8 20,0 3,-5 15,-10 26,-10 18,0 19,8 19,155 v 155 h -25 c -23,0 -25,-3 -25,-51 z m -16,-75 c 22,-21 21,-111 -1,-136 -37,-41 -83,-4 -83,67 0,70 46,108 84,69 z"
         id="path2125" />
      <path
         d="m 3520,1685 v -155 h 25 25 v 155 155 h -25 -25 z"
         id="path2127" />
      <path
         d="m 4070,1685 v -155 h 25 25 v 155 155 h -25 -25 z"
         id="path2129" />
      <path
         d="m 4875,1796 c -57,-97 -57,-215 0,-312 19,-33 32,-44 50,-44 h 24 l -32,52 c -30,48 -32,56 -32,148 0,92 2,100 32,148 l 32,52 h -24 c -18,0 -31,-11 -50,-44 z"
         id="path2131" />
      <path
         d="m 5340,1789 c 0,-44 -2,-50 -14,-40 -25,21 -87,9 -109,-21 -28,-38 -29,-128 -1,-165 23,-31 84,-44 109,-23 9,8 15,8 20,0 3,-5 15,-10 26,-10 18,0 19,8 19,155 v 155 h -25 c -23,0 -25,-3 -25,-51 z m -16,-75 c 22,-21 21,-111 -1,-136 -37,-41 -83,-4 -83,67 0,70 46,108 84,69 z"
         id="path2133" />
      <path
         d="m 6469,1811 c 33,-45 51,-107 51,-171 0,-64 -18,-126 -51,-171 l -21,-31 28,4 c 23,2 34,13 59,62 25,51 30,70 30,136 0,66 -5,85 -30,136 -25,49 -36,60 -59,62 l -28,4 z"
         id="path2135" />
      <path
         d="m 5916,1785 c -4,-14 -13,-25 -21,-25 -8,0 -15,-7 -15,-15 0,-8 7,-15 15,-15 12,0 15,-16 15,-88 0,-98 7,-112 57,-112 38,0 47,27 11,32 -21,3 -23,9 -26,86 -3,77 -2,82 18,82 11,0 20,7 20,15 0,8 -9,15 -20,15 -15,0 -20,7 -20,25 0,15 -6,25 -14,25 -8,0 -17,-11 -20,-25 z"
         id="path2137" />
      <path
         d="m 365,1737 c -55,-95 -55,-219 0,-314 20,-33 32,-43 51,-43 h 25 l -24,33 c -35,47 -47,91 -47,171 0,72 22,139 57,178 15,17 14,18 -10,18 -20,0 -32,-10 -52,-43 z"
         id="path2139" />
      <path
         d="m 832,1763 c 2,-10 13,-19 26,-21 17,-3 22,2 22,17 0,16 -6,21 -26,21 -19,0 -25,-5 -22,-17 z"
         id="path2141" />
      <path
         d="m 1155,1744 c 32,-47 45,-95 45,-164 0,-69 -13,-117 -45,-164 -23,-34 -23,-36 -5,-36 10,0 30,15 43,33 66,88 66,246 0,335 -13,17 -33,32 -43,32 -18,0 -18,-2 5,-36 z"
         id="path2143" />
      <path
         d="m 476,1744 c -33,-32 -32,-116 0,-149 22,-21 68,-19 89,5 26,28 26,112 0,140 -22,24 -67,26 -89,4 z m 72,-53 c 6,-55 -5,-83 -31,-79 -18,2 -23,10 -25,47 -4,57 3,73 30,69 18,-2 24,-11 26,-37 z"
         id="path2145" />
      <path
         d="m 614,1628 c -100,-153 -104,-161 -79,-157 16,4 193,260 195,282 0,4 -7,7 -15,7 -8,0 -54,-60 -101,-132 z"
         id="path2147" />
      <path
         d="m 971,1744 c -66,-47 -68,-228 -3,-263 30,-16 84,-13 109,4 25,18 44,74 36,107 -14,58 -80,86 -135,57 -19,-10 -20,-9 -14,17 7,31 39,64 61,64 8,0 21,-7 29,-16 9,-8 26,-14 38,-12 l 23,3 -27,28 c -32,32 -80,36 -117,11 z m 83,-130 c 9,-8 16,-31 16,-49 0,-68 -76,-82 -100,-19 -14,35 -13,41 10,64 24,24 53,26 74,4 z"
         id="path2149" />
      <path
         d="m 1932,1744 c -26,-18 -29,-39 -6,-48 10,-4 23,3 34,16 15,19 22,21 46,13 18,-7 30,-19 32,-33 3,-20 -1,-22 -43,-22 -56,0 -83,-13 -95,-46 -10,-26 2,-73 23,-86 21,-13 84,-9 97,7 12,14 15,14 31,-1 19,-18 60,-16 67,4 2,6 -3,12 -11,12 -21,0 -27,22 -27,96 0,51 -4,68 -20,84 -25,25 -95,27 -128,4 z m 108,-118 c 0,-21 -40,-66 -59,-66 -21,0 -41,19 -41,40 0,26 22,40 62,40 25,0 38,-5 38,-14 z"
         id="path2151" />
      <path
         d="m 2130,1600 v -160 h 25 c 24,0 25,3 25,57 0,44 3,54 12,45 14,-14 72,-16 98,-2 21,11 40,60 40,105 0,45 -19,94 -40,105 -26,14 -84,12 -98,-2 -9,-9 -12,-9 -12,0 0,7 -11,12 -25,12 h -25 z m 134,114 c 11,-10 16,-34 16,-69 0,-57 -16,-85 -50,-85 -47,0 -69,111 -30,150 24,24 43,25 64,4 z"
         id="path2153" />
      <path
         d="m 2621,1743 c -46,-37 -46,-159 0,-195 26,-22 97,-24 126,-3 51,36 55,156 6,195 -33,26 -102,27 -132,3 z m 101,-30 c 24,-22 25,-109 1,-135 -40,-45 -93,-6 -93,69 0,69 50,105 92,66 z"
         id="path2155" />
      <path
         d="m 3076,1735 c -42,-45 -42,-135 0,-180 32,-35 110,-36 142,-2 12,13 22,26 22,29 0,15 -36,12 -52,-4 -34,-34 -81,-16 -94,35 l -6,27 h 81 c 90,0 93,3 67,65 -17,41 -42,55 -96,55 -31,0 -47,-6 -64,-25 z m 106,-22 c 33,-30 23,-43 -37,-43 -59,0 -63,4 -39,38 18,26 50,28 76,5 z"
         id="path2157" />
      <path
         d="m 3292,1738 c 2,-15 11,-24 26,-26 18,-3 22,1 22,22 0,21 -5,26 -26,26 -21,0 -25,-4 -22,-22 z"
         id="path2159" />
      <path
         d="m 3630,1733 -21,-27 22,-8 c 17,-6 25,-4 36,12 17,24 46,26 67,4 30,-30 20,-44 -33,-44 -64,0 -95,-24 -95,-73 0,-19 6,-42 13,-51 18,-21 94,-21 112,0 12,14 14,14 25,-1 8,-10 23,-15 40,-13 33,4 43,23 14,31 -18,5 -20,13 -20,81 0,96 -15,116 -89,116 -42,0 -53,-4 -71,-27 z m 120,-108 c 0,-19 -44,-65 -63,-65 -18,0 -37,20 -37,40 0,26 22,40 62,40 28,0 38,-4 38,-15 z"
         id="path2161" />
      <path
         d="m 3840,1600 v -160 h 25 c 24,0 25,3 25,57 0,44 3,54 12,45 19,-19 85,-15 107,7 42,42 36,177 -9,201 -26,14 -83,13 -98,-2 -9,-9 -12,-9 -12,0 0,7 -11,12 -25,12 h -25 z m 132,113 c 13,-12 18,-30 18,-69 0,-56 -17,-84 -50,-84 -47,0 -69,111 -30,150 24,24 38,25 62,3 z"
         id="path2163" />
      <path
         d="m 4180,1733 -21,-27 22,-8 c 17,-6 25,-4 36,12 17,24 46,26 67,4 30,-30 20,-44 -33,-44 -64,0 -95,-24 -95,-73 0,-19 6,-42 13,-51 18,-21 94,-21 112,0 12,14 14,14 25,-1 8,-10 23,-15 40,-13 33,4 43,23 14,31 -18,5 -20,13 -20,81 0,96 -15,116 -89,116 -42,0 -53,-4 -71,-27 z m 120,-108 c 0,-19 -44,-65 -63,-65 -18,0 -37,20 -37,40 0,26 22,40 62,40 28,0 38,-4 38,-15 z"
         id="path2165" />
      <path
         d="m 4416,1737 c -45,-45 -41,-158 7,-192 34,-24 94,-19 122,10 14,13 25,31 25,40 0,23 -30,18 -56,-10 -28,-30 -38,-31 -64,-5 -14,14 -20,33 -20,65 0,44 24,85 50,85 6,0 19,-9 30,-20 21,-21 60,-27 60,-10 0,6 -11,22 -25,35 -33,34 -96,35 -129,2 z"
         id="path2167" />
      <path
         d="m 4626,1737 c -45,-45 -41,-158 7,-192 34,-24 109,-20 135,8 12,13 22,26 22,29 0,15 -36,12 -52,-4 -24,-24 -53,-23 -78,2 -11,11 -20,29 -20,40 0,18 7,20 80,20 89,0 92,3 66,65 -17,41 -42,55 -96,55 -29,0 -47,-6 -64,-23 z m 106,-24 c 33,-30 23,-43 -37,-43 -59,0 -67,8 -35,40 24,24 47,25 72,3 z"
         id="path2169" />
      <path
         d="m 5001,1743 c -46,-37 -46,-159 0,-195 26,-22 97,-24 126,-3 51,36 55,156 6,195 -33,26 -102,27 -132,3 z m 101,-30 c 24,-22 25,-109 1,-135 -40,-45 -93,-6 -93,69 0,69 50,105 92,66 z"
         id="path2171" />
      <path
         d="m 5456,1735 c -42,-45 -42,-135 0,-180 32,-35 110,-36 142,-2 12,13 22,26 22,29 0,15 -36,12 -52,-4 -34,-34 -81,-16 -94,35 l -6,27 h 81 c 90,0 93,3 67,65 -17,41 -42,55 -96,55 -31,0 -47,-6 -64,-25 z m 106,-22 c 33,-30 23,-43 -37,-43 -59,0 -63,4 -39,38 18,26 50,28 76,5 z"
         id="path2173" />
      <path
         d="m 6282,1744 c -26,-18 -30,-65 -6,-85 9,-8 37,-21 63,-29 30,-10 47,-22 49,-34 7,-36 -54,-50 -86,-18 -17,17 -52,18 -52,1 0,-5 9,-18 20,-29 17,-17 31,-20 77,-18 48,3 59,7 77,31 19,26 19,30 6,55 -10,17 -34,33 -69,47 -30,11 -56,26 -59,34 -10,29 55,42 82,16 19,-19 46,-19 46,-1 0,24 -41,46 -85,46 -22,0 -51,-7 -63,-16 z"
         id="path2175" />
      <path
         d="m 6630,1735 c 0,-18 5,-25 20,-25 15,0 20,7 20,25 0,18 -5,25 -20,25 -15,0 -20,-7 -20,-25 z"
         id="path2177" />
      <path
         d="m 830,1585 v -115 h 25 25 v 115 115 h -25 -25 z"
         id="path2179" />
      <path
         d="m 684,1639 c -13,-14 -18,-36 -18,-74 0,-62 22,-95 64,-95 42,0 65,33 65,95 0,38 -5,59 -19,74 -24,27 -68,27 -92,0 z m 71,-74 c 0,-57 -1,-60 -25,-60 -23,0 -25,4 -28,49 -4,62 2,78 30,74 21,-3 23,-8 23,-63 z"
         id="path2181" />
      <path
         d="m 3297,1573 c -4,-3 -7,-15 -7,-25 0,-13 7,-18 25,-18 20,0 25,5 25,25 0,18 -5,25 -18,25 -10,0 -22,-3 -25,-7 z"
         id="path2183" />
      <path
         d="m 5677,1573 c -11,-10 -8,-43 4,-43 7,0 8,-11 4,-30 -5,-23 -3,-30 8,-30 19,0 27,21 27,71 0,31 -4,39 -18,39 -10,0 -22,-3 -25,-7 z"
         id="path2185" />
      <path
         d="m 6037,1573 c -11,-10 -8,-43 4,-43 7,0 8,-11 4,-30 -5,-23 -3,-30 8,-30 19,0 27,21 27,71 0,31 -4,39 -18,39 -10,0 -22,-3 -25,-7 z"
         id="path2187" />
      <path
         d="m 6633,1525 c 3,-85 37,-70 37,16 0,32 -3,39 -19,39 -18,0 -20,-7 -18,-55 z"
         id="path2189" />
      <path
         d="m 2330,1465 c 0,-13 21,-15 125,-15 104,0 125,2 125,15 0,13 -21,15 -125,15 -104,0 -125,-2 -125,-15 z"
         id="path2191" />
      <path
         d="m 6102,1124 c -25,-17 -30,-54 -7,-54 8,0 19,9 25,20 19,36 80,17 80,-25 0,-3 -29,-34 -65,-70 -88,-87 -87,-95 20,-95 69,0 85,3 85,15 0,12 -14,15 -62,15 l -63,1 51,47 c 29,26 57,57 63,69 14,28 4,70 -19,83 -28,15 -83,12 -108,-6 z"
         id="path2193" />
      <path
         d="m 14622,1074 c -28,-19 -30,-54 -2,-54 11,0 20,4 20,10 0,20 41,33 67,21 38,-18 28,-54 -19,-65 -48,-12 -49,-32 -3,-40 46,-9 62,-38 40,-72 -20,-31 -50,-31 -79,1 -26,28 -56,33 -56,10 0,-9 11,-27 25,-40 34,-35 106,-35 140,0 33,32 33,77 1,102 -23,19 -23,20 -5,31 13,8 19,24 19,47 0,43 -29,65 -85,65 -22,0 -51,-7 -63,-16 z"
         id="path2195" />
      <path
         d="M 2170,705 V 550 h 25 25 v 155 155 h -25 -25 z"
         id="path2197" />
      <path
         d="M 2720,705 V 550 h 25 25 v 155 155 h -25 -25 z"
         id="path2199" />
      <path
         d="m 3585,816 c -57,-97 -57,-215 0,-312 19,-33 32,-44 50,-44 h 24 l -32,52 c -30,48 -32,56 -32,148 0,92 2,100 32,148 l 32,52 h -24 c -18,0 -31,-11 -50,-44 z"
         id="path2201" />
      <path
         d="m 4055,816 c -57,-97 -57,-215 0,-312 19,-33 32,-44 50,-44 h 24 l -32,52 c -30,48 -32,56 -32,148 0,92 2,100 32,148 l 32,52 h -24 c -18,0 -31,-11 -50,-44 z"
         id="path2203" />
      <path
         d="m 4389,831 c 33,-45 51,-107 51,-171 0,-64 -18,-126 -51,-171 l -21,-31 28,4 c 23,2 34,13 59,62 25,51 30,70 30,136 0,66 -5,85 -30,136 -25,49 -36,60 -59,62 l -28,4 z"
         id="path2205" />
      <path
         d="m 5369,831 c 33,-45 51,-107 51,-171 0,-64 -18,-126 -51,-171 l -21,-31 28,4 c 23,2 34,13 59,62 25,51 30,70 30,136 0,66 -5,85 -30,136 -25,49 -36,60 -59,62 l -28,4 z"
         id="path2207" />
      <path
         d="M 6400,705 V 550 h 25 25 v 155 155 h -25 -25 z"
         id="path2209" />
      <path
         d="M 6950,705 V 550 h 25 25 v 155 155 h -25 -25 z"
         id="path2211" />
      <path
         d="m 7815,816 c -38,-65 -52,-143 -37,-212 16,-78 56,-144 87,-144 h 24 l -32,52 c -30,48 -32,56 -32,148 0,92 2,100 32,148 l 32,52 h -24 c -18,0 -31,-11 -50,-44 z"
         id="path2213" />
      <path
         d="m 8285,816 c -38,-65 -52,-143 -37,-212 16,-78 56,-144 87,-144 h 24 l -32,52 c -30,48 -32,56 -32,148 0,92 2,100 32,148 l 32,52 h -24 c -18,0 -31,-11 -50,-44 z"
         id="path2215" />
      <path
         d="m 8619,831 c 33,-45 51,-107 51,-171 0,-64 -18,-126 -51,-171 l -21,-31 28,4 c 23,2 34,13 59,62 25,51 30,70 30,136 0,66 -5,85 -30,136 -25,49 -36,60 -59,62 l -28,4 z"
         id="path2217" />
      <path
         d="m 9599,831 c 33,-45 51,-107 51,-171 0,-64 -18,-126 -51,-171 l -21,-31 28,4 c 23,2 34,13 59,62 25,51 30,70 30,136 0,66 -5,85 -30,136 -25,49 -36,60 -59,62 l -28,4 z"
         id="path2219" />
      <path
         d="M 10770,705 V 550 h 25 25 v 155 155 h -25 -25 z"
         id="path2221" />
      <path
         d="M 11320,705 V 550 h 25 25 v 155 155 h -25 -25 z"
         id="path2223" />
      <path
         d="m 12185,816 c -38,-65 -52,-143 -37,-212 16,-78 56,-144 87,-144 h 24 l -32,52 c -30,48 -32,56 -32,148 0,92 2,100 32,148 l 32,52 h -24 c -18,0 -31,-11 -50,-44 z"
         id="path2225" />
      <path
         d="m 12655,816 c -38,-65 -52,-143 -37,-212 16,-78 56,-144 87,-144 h 24 l -32,52 c -30,48 -32,56 -32,148 0,92 2,100 32,148 l 32,52 h -24 c -18,0 -31,-11 -50,-44 z"
         id="path2227" />
      <path
         d="m 12989,831 c 33,-45 51,-107 51,-171 0,-64 -18,-126 -51,-171 l -21,-31 28,4 c 23,2 34,13 59,62 25,51 30,70 30,136 0,66 -5,85 -30,136 -25,49 -36,60 -59,62 l -28,4 z"
         id="path2229" />
      <path
         d="m 13969,831 c 33,-45 51,-107 51,-171 0,-64 -18,-126 -51,-171 l -21,-31 28,4 c 23,2 34,13 59,62 25,51 30,70 30,136 0,66 -5,85 -30,136 -25,49 -36,60 -59,62 l -28,4 z"
         id="path2231" />
      <path
         d="m 1816,769 c -9,-87 -2,-98 52,-76 31,12 43,13 63,4 27,-14 36,-55 19,-87 -15,-28 -73,-28 -94,1 -10,15 -20,19 -35,14 -19,-6 -20,-8 -6,-34 17,-34 33,-41 89,-41 55,0 93,28 102,76 13,72 -31,119 -105,112 -40,-3 -41,-3 -41,29 v 33 h 65 c 58,0 65,2 65,20 0,18 -7,20 -84,20 h -83 z"
         id="path2233" />
      <path
         d="m 10095,815 c -32,-31 -32,-55 -1,-55 16,0 26,7 29,21 5,17 12,20 44,17 34,-3 38,-6 41,-34 3,-27 -6,-40 -67,-101 -45,-44 -71,-77 -71,-91 0,-21 4,-22 101,-22 90,0 100,2 97,18 -3,14 -16,18 -78,20 l -74,3 72,67 c 63,59 72,72 72,103 0,51 -33,79 -94,79 -36,0 -52,-5 -71,-25 z"
         id="path2235" />
      <path
         d="m 377,798 c -36,-50 -49,-92 -50,-161 -1,-72 16,-129 50,-174 43,-58 55,-40 20,28 -28,54 -32,72 -32,139 0,67 4,85 32,139 35,68 22,86 -20,29 z"
         id="path2237" />
      <path
         d="m 1282,813 c 37,-41 58,-106 58,-184 0,-65 -4,-85 -30,-135 -30,-61 -31,-76 -2,-58 35,22 65,94 70,168 7,113 -34,217 -88,225 -24,3 -24,2 -8,-16 z"
         id="path2239" />
      <path
         d="m 4250,805 c -5,-14 -16,-25 -25,-25 -17,0 -21,-26 -5,-32 7,-2 6,-31 -2,-84 -14,-99 -10,-114 37,-114 28,0 35,4 35,20 0,12 -5,17 -14,14 -23,-9 -28,13 -16,74 17,86 20,92 41,92 10,0 19,7 19,15 0,8 -7,15 -15,15 -9,0 -15,9 -15,25 0,16 -6,25 -15,25 -9,0 -20,-11 -25,-25 z"
         id="path2241" />
      <path
         d="m 4780,805 c -5,-14 -16,-25 -25,-25 -17,0 -21,-26 -5,-32 7,-2 6,-31 -2,-84 -14,-99 -10,-114 37,-114 28,0 35,4 35,20 0,12 -5,17 -14,14 -23,-9 -28,13 -16,74 17,86 20,92 41,92 10,0 19,7 19,15 0,8 -7,15 -15,15 -9,0 -15,9 -15,25 0,16 -6,25 -15,25 -9,0 -20,-11 -25,-25 z"
         id="path2243" />
      <path
         d="m 8480,805 c -5,-14 -16,-25 -25,-25 -17,0 -21,-26 -5,-32 7,-2 6,-31 -2,-84 -14,-99 -10,-114 37,-114 28,0 35,4 35,20 0,12 -5,17 -14,14 -23,-9 -28,13 -16,74 17,86 20,92 41,92 10,0 19,7 19,15 0,8 -7,15 -15,15 -9,0 -15,9 -15,25 0,16 -6,25 -15,25 -9,0 -20,-11 -25,-25 z"
         id="path2245" />
      <path
         d="m 9010,805 c -5,-14 -16,-25 -25,-25 -17,0 -21,-26 -5,-32 7,-2 6,-31 -2,-84 -14,-99 -10,-114 37,-114 28,0 35,4 35,20 0,12 -5,17 -14,14 -23,-9 -28,13 -16,74 17,86 20,92 41,92 10,0 19,7 19,15 0,8 -7,15 -15,15 -9,0 -15,9 -15,25 0,16 -6,25 -15,25 -9,0 -20,-11 -25,-25 z"
         id="path2247" />
      <path
         d="m 12850,805 c -5,-14 -16,-25 -25,-25 -17,0 -21,-26 -5,-32 7,-2 6,-31 -2,-84 -14,-99 -10,-114 37,-114 28,0 35,4 35,20 0,12 -5,17 -14,14 -23,-9 -28,13 -16,74 17,86 20,92 41,92 10,0 19,7 19,15 0,8 -7,15 -15,15 -9,0 -15,9 -15,25 0,16 -6,25 -15,25 -9,0 -20,-11 -25,-25 z"
         id="path2249" />
      <path
         d="m 13380,805 c -5,-14 -16,-25 -25,-25 -17,0 -21,-26 -5,-32 7,-2 6,-31 -2,-84 -14,-99 -10,-114 37,-114 28,0 35,4 35,20 0,12 -5,17 -14,14 -23,-9 -28,13 -16,74 17,86 20,92 41,92 10,0 19,7 19,15 0,8 -7,15 -15,15 -9,0 -15,9 -15,25 0,16 -6,25 -15,25 -9,0 -20,-11 -25,-25 z"
         id="path2251" />
      <path
         d="m 474,789 c -25,-28 -25,-110 1,-139 24,-27 70,-26 89,2 23,32 21,120 -2,141 -25,23 -65,21 -88,-4 z m 65,-13 c 7,-8 11,-36 9,-63 -3,-44 -5,-48 -28,-48 -23,0 -25,4 -28,48 -3,45 9,77 28,77 4,0 13,-6 19,-14 z"
         id="path2253" />
      <path
         d="m 611,670 c -50,-77 -91,-142 -91,-145 0,-3 6,-5 14,-5 11,0 196,269 196,285 0,3 -6,5 -14,5 -8,0 -55,-63 -105,-140 z"
         id="path2255" />
      <path
         d="m 1111,794 c -71,-50 -67,-230 5,-263 72,-33 134,6 134,84 0,78 -68,121 -128,79 -21,-14 -22,-14 -22,9 0,31 36,77 60,77 10,0 25,-7 34,-15 19,-19 46,-19 46,-1 0,40 -86,60 -129,30 z m 80,-124 c 14,-8 19,-21 19,-50 0,-75 -65,-97 -99,-33 -32,61 20,115 80,83 z"
         id="path2257" />
      <path
         d="m 5630,755 v -45 h -45 c -33,0 -45,-4 -45,-15 0,-11 12,-15 45,-15 h 45 v -45 c 0,-38 3,-45 20,-45 17,0 20,7 20,45 v 45 h 40 c 29,0 40,4 40,15 0,11 -11,15 -40,15 h -40 v 45 c 0,38 -3,45 -20,45 -17,0 -20,-7 -20,-45 z"
         id="path2259" />
      <path
         d="m 9860,755 v -45 h -45 c -33,0 -45,-4 -45,-15 0,-11 12,-15 45,-15 h 45 v -45 c 0,-38 3,-45 20,-45 17,0 20,7 20,45 v 45 h 40 c 29,0 40,4 40,15 0,11 -11,15 -40,15 h -40 v 45 c 0,38 -3,45 -20,45 -17,0 -20,-7 -20,-45 z"
         id="path2261" />
      <path
         d="m 2280,753 -21,-27 22,-8 c 17,-6 25,-4 36,12 17,24 46,26 67,4 30,-30 20,-44 -33,-44 -64,0 -95,-24 -95,-73 0,-19 6,-42 13,-51 18,-21 89,-21 113,0 16,16 18,16 24,0 8,-21 74,-23 74,-1 0,8 -6,15 -14,15 -20,0 -26,23 -26,100 0,60 -3,71 -22,84 -13,9 -43,16 -69,16 -40,0 -51,-4 -69,-27 z m 120,-108 c 0,-19 -44,-65 -63,-65 -35,0 -50,52 -19,69 28,17 82,14 82,-4 z"
         id="path2263" />
      <path
         d="M 2490,620 V 460 h 25 c 24,0 25,3 25,57 0,44 3,54 12,45 14,-14 72,-16 98,-2 21,11 40,60 40,105 0,45 -19,94 -40,105 -26,14 -84,12 -98,-2 -9,-9 -12,-9 -12,0 0,7 -11,12 -25,12 h -25 z m 132,113 c 13,-12 18,-30 18,-69 0,-56 -17,-84 -50,-84 -47,0 -69,111 -30,150 24,24 38,25 62,3 z"
         id="path2265" />
      <path
         d="m 2830,753 -21,-27 22,-8 c 17,-6 25,-4 36,12 17,24 46,26 67,4 30,-30 20,-44 -33,-44 -64,0 -95,-24 -95,-73 0,-19 6,-42 13,-51 18,-21 89,-21 113,0 16,16 18,16 24,0 8,-21 74,-23 74,-1 0,8 -6,15 -14,15 -20,0 -26,23 -26,100 0,60 -3,71 -22,84 -13,9 -43,16 -69,16 -40,0 -51,-4 -69,-27 z m 120,-108 c 0,-19 -44,-65 -63,-65 -35,0 -50,52 -19,69 28,17 82,14 82,-4 z"
         id="path2267" />
      <path
         d="m 3066,757 c -29,-29 -40,-85 -26,-136 13,-50 42,-71 96,-71 34,0 47,5 63,26 41,52 10,77 -35,29 -26,-29 -33,-30 -58,-12 -12,9 -20,31 -23,64 -5,42 -2,54 16,72 26,26 36,26 61,1 20,-20 60,-28 60,-11 0,4 -9,20 -21,35 -28,36 -99,37 -133,3 z"
         id="path2269" />
      <path
         d="m 3276,757 c -45,-45 -41,-158 7,-192 32,-22 108,-20 135,5 12,12 22,25 22,30 0,17 -35,15 -52,-2 -34,-34 -81,-16 -94,35 l -6,27 h 81 c 90,0 93,3 67,65 -17,41 -42,55 -96,55 -29,0 -47,-6 -64,-23 z m 106,-24 c 33,-30 23,-43 -37,-43 -59,0 -67,8 -35,40 24,24 47,25 72,3 z"
         id="path2271" />
      <path
         d="m 3720,776 c 0,-2 18,-52 41,-111 45,-122 45,-151 -1,-168 -39,-15 -39,-37 -1,-37 30,0 53,16 71,50 9,17 100,259 100,267 0,2 -10,3 -23,3 -20,0 -27,-10 -47,-76 -13,-41 -27,-77 -30,-79 -4,-2 -19,32 -35,76 -25,67 -32,79 -52,79 -13,0 -23,-2 -23,-4 z"
         id="path2273" />
      <path
         d="m 5133,765 c -11,-8 -23,-23 -26,-35 -7,-26 25,-66 60,-75 37,-9 53,-23 53,-46 0,-27 -47,-36 -83,-16 -35,21 -57,22 -57,3 0,-25 42,-46 93,-46 38,0 53,5 72,25 44,43 31,78 -41,110 -58,26 -70,51 -30,61 28,7 66,-3 66,-17 0,-5 9,-9 20,-9 25,0 26,22 2,43 -23,21 -100,22 -129,2 z"
         id="path2275" />
      <path
         d="m 5873,765 c -11,-8 -23,-23 -26,-35 -7,-26 25,-66 60,-75 37,-9 53,-23 53,-46 0,-27 -47,-36 -83,-16 -35,21 -57,22 -57,3 0,-25 42,-46 93,-46 38,0 53,5 72,25 44,43 31,78 -41,110 -58,26 -70,51 -30,61 28,7 66,-3 66,-17 0,-5 9,-9 20,-9 25,0 26,22 2,43 -23,21 -100,22 -129,2 z"
         id="path2277" />
      <path
         d="m 6510,753 -21,-27 22,-8 c 17,-6 25,-4 36,12 17,24 46,26 67,4 30,-30 20,-44 -33,-44 -64,0 -95,-24 -95,-73 0,-19 6,-42 13,-51 18,-21 89,-21 113,0 16,16 18,16 24,0 8,-21 74,-23 74,-1 0,8 -6,15 -14,15 -20,0 -26,23 -26,100 0,60 -3,71 -22,84 -13,9 -43,16 -69,16 -40,0 -51,-4 -69,-27 z m 120,-108 c 0,-19 -44,-65 -63,-65 -35,0 -50,52 -19,69 28,17 82,14 82,-4 z"
         id="path2279" />
      <path
         d="M 6720,620 V 460 h 25 c 24,0 25,3 25,57 0,44 3,54 12,45 14,-14 72,-16 98,-2 21,11 40,60 40,105 0,45 -19,94 -40,105 -26,14 -84,12 -98,-2 -9,-9 -12,-9 -12,0 0,7 -11,12 -25,12 h -25 z m 132,113 c 13,-12 18,-30 18,-69 0,-56 -17,-84 -50,-84 -47,0 -69,111 -30,150 24,24 38,25 62,3 z"
         id="path2281" />
      <path
         d="m 7060,753 -21,-27 22,-8 c 17,-6 25,-4 36,12 17,24 46,26 67,4 30,-30 20,-44 -33,-44 -64,0 -95,-24 -95,-73 0,-19 6,-42 13,-51 18,-21 89,-21 113,0 16,16 18,16 24,0 8,-21 74,-23 74,-1 0,8 -6,15 -14,15 -20,0 -26,23 -26,100 0,60 -3,71 -22,84 -13,9 -43,16 -69,16 -40,0 -51,-4 -69,-27 z m 120,-108 c 0,-19 -44,-65 -63,-65 -35,0 -50,52 -19,69 28,17 82,14 82,-4 z"
         id="path2283" />
      <path
         d="m 7296,757 c -29,-29 -40,-85 -26,-136 13,-50 42,-71 96,-71 34,0 47,5 63,26 41,52 10,77 -35,29 -26,-29 -33,-30 -58,-12 -12,9 -20,31 -23,64 -5,42 -2,54 16,72 26,26 36,26 61,1 20,-20 60,-28 60,-11 0,4 -9,20 -21,35 -28,36 -99,37 -133,3 z"
         id="path2285" />
      <path
         d="m 7506,757 c -45,-45 -41,-158 7,-192 32,-22 108,-20 135,5 12,12 22,25 22,30 0,17 -35,15 -52,-2 -34,-34 -81,-16 -94,35 l -6,27 h 81 c 90,0 93,3 67,65 -17,41 -42,55 -96,55 -29,0 -47,-6 -64,-23 z m 106,-24 c 33,-30 23,-43 -37,-43 -59,0 -67,8 -35,40 24,24 47,25 72,3 z"
         id="path2287" />
      <path
         d="m 7960,775 c 0,-3 15,-29 34,-57 l 35,-51 -40,-58 -40,-59 h 26 c 18,0 32,11 51,42 l 26,41 19,-24 c 10,-13 21,-32 25,-41 3,-12 16,-18 35,-18 h 30 l -41,60 -41,60 29,43 c 46,67 46,67 19,67 -19,0 -31,-11 -49,-42 l -25,-41 -23,41 c -17,31 -30,42 -47,42 -13,0 -23,-2 -23,-5 z"
         id="path2289" />
      <path
         d="m 9363,765 c -11,-8 -23,-23 -26,-35 -7,-26 25,-66 60,-75 37,-9 53,-23 53,-46 0,-27 -47,-36 -83,-16 -35,21 -57,22 -57,3 0,-25 42,-46 93,-46 38,0 53,5 72,25 44,43 31,78 -41,110 -58,26 -70,51 -30,61 28,7 66,-3 66,-17 0,-5 9,-9 20,-9 25,0 26,22 2,43 -23,21 -100,22 -129,2 z"
         id="path2291" />
      <path
         d="m 10463,765 c -11,-8 -23,-23 -26,-35 -7,-26 25,-66 60,-75 37,-9 53,-23 53,-46 0,-27 -47,-36 -83,-16 -35,21 -57,22 -57,3 0,-25 42,-46 93,-46 38,0 53,5 72,25 44,43 31,78 -41,110 -58,26 -70,51 -30,61 28,7 66,-3 66,-17 0,-5 9,-9 20,-9 25,0 26,22 2,43 -23,21 -100,22 -129,2 z"
         id="path2293" />
      <path
         d="m 10880,753 -21,-27 22,-8 c 17,-6 25,-4 36,12 17,24 46,26 67,4 30,-30 20,-44 -33,-44 -64,0 -95,-24 -95,-73 0,-19 6,-42 13,-51 18,-21 89,-21 113,0 16,16 18,16 24,0 8,-21 74,-23 74,-1 0,8 -6,15 -14,15 -20,0 -26,23 -26,100 0,60 -3,71 -22,84 -13,9 -43,16 -69,16 -40,0 -51,-4 -69,-27 z m 120,-108 c 0,-19 -44,-65 -63,-65 -35,0 -50,52 -19,69 28,17 82,14 82,-4 z"
         id="path2295" />
      <path
         d="M 11090,620 V 460 h 25 c 24,0 25,3 25,57 0,44 3,54 12,45 14,-14 72,-16 98,-2 21,11 40,60 40,105 0,45 -19,94 -40,105 -26,14 -84,12 -98,-2 -9,-9 -12,-9 -12,0 0,7 -11,12 -25,12 h -25 z m 132,113 c 13,-12 18,-30 18,-69 0,-56 -17,-84 -50,-84 -47,0 -69,111 -30,150 24,24 38,25 62,3 z"
         id="path2297" />
      <path
         d="m 11430,753 -21,-27 22,-8 c 17,-6 25,-4 36,12 17,24 46,26 67,4 30,-30 20,-44 -33,-44 -64,0 -95,-24 -95,-73 0,-19 6,-42 13,-51 18,-21 89,-21 113,0 16,16 18,16 24,0 8,-21 74,-23 74,-1 0,8 -6,15 -14,15 -20,0 -26,23 -26,100 0,60 -3,71 -22,84 -13,9 -43,16 -69,16 -40,0 -51,-4 -69,-27 z m 120,-108 c 0,-19 -44,-65 -63,-65 -35,0 -50,52 -19,69 28,17 82,14 82,-4 z"
         id="path2299" />
      <path
         d="m 11666,757 c -29,-29 -40,-85 -26,-136 13,-50 42,-71 96,-71 34,0 47,5 63,26 41,52 10,77 -35,29 -26,-29 -33,-30 -58,-12 -12,9 -20,31 -23,64 -5,42 -2,54 16,72 26,26 36,26 61,1 20,-20 60,-28 60,-11 0,4 -9,20 -21,35 -28,36 -99,37 -133,3 z"
         id="path2301" />
      <path
         d="m 11876,757 c -45,-45 -41,-158 7,-192 32,-22 108,-20 135,5 12,12 22,25 22,30 0,17 -35,15 -52,-2 -34,-34 -81,-16 -94,35 l -6,27 h 81 c 90,0 93,3 67,65 -17,41 -42,55 -96,55 -29,0 -47,-6 -64,-23 z m 106,-24 c 33,-30 23,-43 -37,-43 -59,0 -67,8 -35,40 24,24 47,25 72,3 z"
         id="path2303" />
      <path
         d="m 12330,775 c 0,-3 15,-29 34,-57 l 35,-51 -40,-58 -40,-59 h 26 c 18,0 32,11 51,42 l 26,41 19,-24 c 10,-13 21,-32 25,-41 3,-12 16,-18 35,-18 h 30 l -41,60 -41,60 29,43 c 46,67 46,67 19,67 -19,0 -31,-11 -49,-42 l -25,-41 -23,41 c -17,31 -30,42 -47,42 -13,0 -23,-2 -23,-5 z"
         id="path2305" />
      <path
         d="m 13733,765 c -11,-8 -23,-23 -26,-35 -7,-26 25,-66 60,-75 37,-9 53,-23 53,-46 0,-27 -47,-36 -83,-16 -35,21 -57,22 -57,3 0,-25 42,-46 93,-46 38,0 53,5 72,25 44,43 31,78 -41,110 -58,26 -70,51 -30,61 28,7 66,-3 66,-17 0,-5 9,-9 20,-9 25,0 26,22 2,43 -23,21 -100,22 -129,2 z"
         id="path2307" />
      <path
         d="m 14140,745 c 0,-12 18,-15 105,-15 87,0 105,3 105,15 0,12 -18,15 -105,15 -87,0 -105,-3 -105,-15 z"
         id="path2309" />
      <path
         d="m 874,738 c -30,-14 -44,-50 -44,-109 0,-42 5,-55 29,-80 32,-31 71,-38 114,-18 33,15 47,49 47,115 0,45 -4,59 -25,79 -26,27 -81,33 -121,13 z m 90,-34 c 11,-10 16,-34 16,-69 0,-60 -16,-85 -55,-85 -39,0 -55,25 -55,85 0,60 16,85 55,85 13,0 31,-7 39,-16 z"
         id="path2311" />
      <path
         d="m 686,691 c -12,-13 -17,-36 -17,-76 0,-66 19,-95 62,-95 40,0 63,39 62,102 -1,57 -23,88 -63,88 -15,0 -35,-9 -44,-19 z m 62,-13 c 18,-18 15,-113 -3,-128 -12,-10 -18,-10 -30,0 -28,24 -16,140 15,140 3,0 11,-5 18,-12 z"
         id="path2313" />
      <path
         d="m 14390,645 c 0,-13 39,-15 295,-15 256,0 295,2 295,15 0,13 -39,15 -295,15 -256,0 -295,-2 -295,-15 z"
         id="path2315" />
      <path
         d="m 14140,635 c 0,-12 18,-15 105,-15 87,0 105,3 105,15 0,12 -18,15 -105,15 -87,0 -105,-3 -105,-15 z"
         id="path2317" />
      <path
         d="m 4577,593 c -11,-10 -8,-43 4,-43 7,0 8,-11 4,-30 -5,-23 -3,-30 8,-30 19,0 27,21 27,71 0,31 -4,39 -18,39 -10,0 -22,-3 -25,-7 z"
         id="path2319" />
      <path
         d="m 4937,593 c -11,-10 -8,-43 4,-43 7,0 8,-11 4,-30 -5,-23 -3,-30 8,-30 19,0 27,21 27,71 0,31 -4,39 -18,39 -10,0 -22,-3 -25,-7 z"
         id="path2321" />
      <path
         d="m 8807,593 c -11,-10 -8,-43 4,-43 7,0 8,-11 4,-30 -5,-23 -3,-30 8,-30 19,0 27,21 27,71 0,31 -4,39 -18,39 -10,0 -22,-3 -25,-7 z"
         id="path2323" />
      <path
         d="m 9167,593 c -11,-10 -8,-43 4,-43 7,0 8,-11 4,-30 -5,-23 -3,-30 8,-30 19,0 27,21 27,71 0,31 -4,39 -18,39 -10,0 -22,-3 -25,-7 z"
         id="path2325" />
      <path
         d="m 13177,593 c -11,-10 -8,-43 4,-43 7,0 8,-11 4,-30 -5,-23 -3,-30 8,-30 19,0 27,21 27,71 0,31 -4,39 -18,39 -10,0 -22,-3 -25,-7 z"
         id="path2327" />
      <path
         d="m 13537,593 c -11,-10 -8,-43 4,-43 7,0 8,-11 4,-30 -5,-23 -3,-30 8,-30 19,0 27,21 27,71 0,31 -4,39 -18,39 -10,0 -22,-3 -25,-7 z"
         id="path2329" />
      <path
         d="m 14630,410 c -36,-36 -19,-71 45,-96 37,-14 45,-21 43,-38 -4,-28 -62,-35 -89,-10 -15,13 -22,15 -31,6 -9,-9 -7,-16 7,-32 23,-25 100,-28 133,-4 43,30 22,91 -38,109 -39,12 -52,25 -39,41 15,19 48,18 70,-2 12,-10 23,-13 33,-7 14,8 14,11 0,31 -21,30 -104,32 -134,2 z"
         id="path2331" />
    </g>
  </g>
</svg>
