<?xml version="1.0" encoding="UTF-8" standalone="no"?>
<!-- Created with Inkscape (http://www.inkscape.org/) -->

<svg
   width="860mm"
   height="160mm"
   viewBox="0 0 1290 240"
   version="1.1"
   id="svg1430"
   inkscape:version="1.1.1 (3bf5ae0d25, 2021-09-20)"
   sodipodi:docname="derv_860.svg"
   xmlns:inkscape="http://www.inkscape.org/namespaces/inkscape"
   xmlns:sodipodi="http://sodipodi.sourceforge.net/DTD/sodipodi-0.dtd"
   xmlns="http://www.w3.org/2000/svg"
   xmlns:svg="http://www.w3.org/2000/svg">
  <sodipodi:namedview
     id="namedview1432"
     pagecolor="#ffffff"
     bordercolor="#666666"
     borderopacity="1.0"
     inkscape:pageshadow="2"
     inkscape:pageopacity="0.0"
     inkscape:pagecheckerboard="0"
     inkscape:document-units="mm"
     showgrid="false"
     width="700mm"
     inkscape:zoom="0.5"
     inkscape:cx="1954"
     inkscape:cy="547"
     inkscape:window-width="3739"
     inkscape:window-height="2123"
     inkscape:window-x="101"
     inkscape:window-y="0"
     inkscape:window-maximized="1"
     inkscape:current-layer="layer1" />
  <defs
     id="defs1427" />
  <g
     inkscape:label="Layer 1"
     inkscape:groupmode="layer"
     id="layer1">
    <rect
       style="opacity:0.15;fill:#0000ff;fill-rule:evenodd;stroke-width:0.0978686"
       id="rect3607"
       width="50.250816"
       height="38.897663"
       x="391.51782"
       y="69.998489" />
    <rect
       style="opacity:0.15;fill:#0000ff;fill-rule:evenodd;stroke-width:0.0978686"
       id="rect3607-6"
       width="50.250816"
       height="38.897663"
       x="34.520817"
       y="67.13221" />
    <rect
       style="opacity:0.15;fill:#00ff00;stroke-width:0.35691"
       id="rect3697"
       width="77.906441"
       height="68.900497"
       x="787.70813"
       y="110.46416" />
    <g
       transform="matrix(0.05291667,0,0,-0.05291667,-63.912729,233.795)"
       fill="#000000"
       stroke="none"
       id="g8923">
      <path
         d="m 1870,3844 c 0,-55 0,-55 -22,-40 -48,34 -109,9 -124,-49 -12,-49 2,-127 26,-147 27,-22 68,-23 98,-2 20,14 22,14 22,0 0,-9 7,-16 15,-16 13,0 15,24 15,155 0,131 -2,155 -15,155 -12,0 -15,-13 -15,-56 z m -19,-71 c 18,-21 17,-116 0,-137 -16,-19 -62,-21 -79,-4 -7,7 -12,39 -12,73 0,34 5,66 12,73 17,17 63,15 79,-5 z"
         id="path8363" />
      <path
         d="m 1960,3880 c 0,-11 7,-20 15,-20 8,0 15,9 15,20 0,11 -7,20 -15,20 -8,0 -15,-9 -15,-20 z"
         id="path8365" />
      <path
         d="m 2072,3888 c -6,-6 -12,-25 -12,-40 0,-18 -5,-28 -15,-28 -8,0 -15,-7 -15,-15 0,-8 7,-15 15,-15 12,0 15,-18 15,-100 0,-82 3,-100 15,-100 12,0 15,18 15,100 v 100 h 40 40 v -100 c 0,-82 3,-100 15,-100 12,0 15,18 15,99 0,95 1,100 22,103 32,5 35,28 3,28 -22,0 -26,4 -23,23 2,14 11,23 26,25 29,4 24,26 -7,30 -31,5 -51,-15 -51,-49 0,-27 -3,-29 -41,-29 -36,0 -40,2 -37,23 2,14 11,23 26,25 13,2 21,9 19,15 -5,17 -50,20 -65,5 z"
         id="path8367" />
      <path
         d="m 2457,3882 c -58,-64 -76,-214 -36,-302 23,-51 46,-80 65,-80 8,0 1,22 -19,61 -28,54 -32,72 -32,139 0,67 4,85 32,139 20,39 27,61 19,61 -7,0 -20,-8 -29,-18 z"
         id="path8369" />
      <path
         d="m 3397,3882 c -36,-40 -57,-106 -57,-182 0,-97 44,-200 86,-200 8,0 1,22 -19,61 -28,54 -32,72 -32,139 0,67 4,85 32,139 20,39 27,61 19,61 -7,0 -20,-8 -29,-18 z"
         id="path8371" />
      <path
         d="m 4510,3891 c 0,-5 5,-13 11,-17 6,-3 21,-27 32,-53 38,-86 23,-235 -30,-293 -19,-22 -9,-37 15,-22 35,22 65,94 70,168 5,80 -8,138 -41,187 -22,33 -57,51 -57,30 z"
         id="path8373" />
      <path
         d="m 4867,3882 c -36,-40 -57,-106 -57,-182 0,-97 44,-200 86,-200 8,0 1,22 -19,61 -28,54 -32,72 -32,139 0,67 4,85 32,139 20,39 27,61 19,61 -7,0 -20,-8 -29,-18 z"
         id="path8375" />
      <path
         d="m 5007,3882 c -36,-40 -57,-106 -57,-182 0,-97 44,-200 86,-200 8,0 1,22 -19,61 -28,54 -32,72 -32,139 0,67 4,85 32,139 20,39 27,61 19,61 -7,0 -20,-8 -29,-18 z"
         id="path8377" />
      <path
         d="m 5460,3745 c 0,-131 2,-155 15,-155 11,0 15,11 15,38 0,35 14,62 31,62 4,0 24,-22 44,-50 20,-27 43,-50 51,-50 20,0 18,5 -26,65 -22,30 -40,60 -40,67 0,7 19,32 42,55 33,33 38,43 24,43 -11,0 -43,-26 -72,-57 l -53,-58 -1,98 c 0,79 -3,97 -15,97 -13,0 -15,-24 -15,-155 z"
         id="path8379" />
      <path
         d="m 6250,3880 c 0,-11 7,-20 15,-20 8,0 15,9 15,20 0,11 -7,20 -15,20 -8,0 -15,-9 -15,-20 z"
         id="path8381" />
      <path
         d="m 6627,3882 c -36,-40 -57,-106 -57,-182 0,-97 44,-200 86,-200 8,0 1,22 -19,61 -28,54 -32,72 -32,139 0,67 4,85 32,139 20,39 27,61 19,61 -7,0 -20,-8 -29,-18 z"
         id="path8383" />
      <path
         d="m 8067,3882 c -36,-40 -57,-106 -57,-182 0,-97 44,-200 86,-200 8,0 1,22 -19,61 -28,54 -32,72 -32,139 0,67 4,85 32,139 20,39 27,61 19,61 -7,0 -20,-8 -29,-18 z"
         id="path8385" />
      <path
         d="m 8590,3891 c 0,-5 5,-13 11,-17 6,-3 21,-27 32,-53 38,-86 23,-235 -30,-293 -19,-22 -9,-37 15,-22 35,22 65,94 70,168 5,80 -8,138 -41,187 -22,33 -57,51 -57,30 z"
         id="path8387" />
      <path
         d="m 9080,3891 c 0,-5 5,-13 11,-17 6,-3 21,-27 32,-53 38,-86 23,-235 -30,-293 -19,-22 -9,-37 15,-22 35,22 65,94 70,168 5,80 -8,138 -41,187 -22,33 -57,51 -57,30 z"
         id="path8389" />
      <path
         d="m 9220,3891 c 0,-5 5,-13 11,-17 6,-3 21,-27 32,-53 38,-86 23,-235 -30,-293 -19,-22 -9,-37 15,-22 35,22 65,94 70,168 5,80 -8,138 -41,187 -22,33 -57,51 -57,30 z"
         id="path8391" />
      <path
         d="m 9677,3882 c -36,-40 -57,-106 -57,-182 0,-97 44,-200 86,-200 8,0 1,22 -19,61 -28,54 -32,72 -32,139 0,67 4,85 32,139 20,39 27,61 19,61 -7,0 -20,-8 -29,-18 z"
         id="path8393" />
      <path
         d="m 11417,3882 c -36,-40 -57,-106 -57,-182 0,-97 44,-200 86,-200 8,0 1,22 -19,61 -28,54 -32,72 -32,139 0,67 4,85 32,139 20,39 27,61 19,61 -7,0 -20,-8 -29,-18 z"
         id="path8395" />
      <path
         d="m 12857,3882 c -36,-40 -57,-106 -57,-182 0,-97 44,-200 86,-200 8,0 1,22 -19,61 -28,54 -32,72 -32,139 0,67 4,85 32,139 20,39 27,61 19,61 -7,0 -20,-8 -29,-18 z"
         id="path8397" />
      <path
         d="m 13380,3891 c 0,-5 5,-13 11,-17 6,-3 21,-27 32,-53 38,-86 23,-235 -30,-293 -19,-22 -9,-37 15,-22 35,22 65,94 70,168 5,80 -8,138 -41,187 -22,33 -57,51 -57,30 z"
         id="path8399" />
      <path
         d="m 13870,3891 c 0,-5 5,-13 11,-17 6,-3 21,-27 32,-53 38,-86 23,-235 -30,-293 -19,-22 -9,-37 15,-22 35,22 65,94 70,168 5,80 -8,138 -41,187 -22,33 -57,51 -57,30 z"
         id="path8401" />
      <path
         d="m 14010,3891 c 0,-5 5,-13 11,-17 6,-3 21,-27 32,-53 38,-86 23,-235 -30,-293 -19,-22 -9,-37 15,-22 35,22 65,94 70,168 5,80 -8,138 -41,187 -22,33 -57,51 -57,30 z"
         id="path8403" />
      <path
         d="m 14150,3891 c 0,-5 5,-13 11,-17 6,-3 21,-27 32,-53 38,-86 23,-235 -30,-293 -19,-22 -9,-37 15,-22 35,22 65,94 70,168 5,80 -8,138 -41,187 -22,33 -57,51 -57,30 z"
         id="path8405" />
      <path
         d="m 14847,3882 c -36,-40 -57,-106 -57,-182 0,-97 44,-200 86,-200 8,0 1,22 -19,61 -28,54 -32,72 -32,139 0,67 4,85 32,139 20,39 27,61 19,61 -7,0 -20,-8 -29,-18 z"
         id="path8407" />
      <path
         d="m 15970,3880 c 0,-11 7,-20 15,-20 8,0 15,9 15,20 0,11 -7,20 -15,20 -8,0 -15,-9 -15,-20 z"
         id="path8409" />
      <path
         d="m 16347,3882 c -36,-40 -57,-106 -57,-182 0,-97 44,-200 86,-200 8,0 1,22 -19,61 -28,54 -32,72 -32,139 0,67 4,85 32,139 20,39 27,61 19,61 -7,0 -20,-8 -29,-18 z"
         id="path8411" />
      <path
         d="m 17450,3891 c 0,-5 5,-13 11,-17 6,-3 21,-27 32,-53 38,-86 23,-235 -30,-293 -19,-22 -9,-37 15,-22 35,22 65,94 70,168 5,80 -8,138 -41,187 -22,33 -57,51 -57,30 z"
         id="path8413" />
      <path
         d="m 19277,3882 c -36,-40 -57,-106 -57,-182 0,-97 44,-200 86,-200 8,0 1,22 -19,61 -28,54 -32,72 -32,139 0,67 4,85 32,139 20,39 27,61 19,61 -7,0 -20,-8 -29,-18 z"
         id="path8415" />
      <path
         d="m 20380,3891 c 0,-5 5,-13 11,-17 6,-3 21,-27 32,-53 38,-86 23,-235 -30,-293 -19,-22 -9,-37 15,-22 35,22 65,94 70,168 5,80 -8,138 -41,187 -22,33 -57,51 -57,30 z"
         id="path8417" />
      <path
         d="m 20520,3891 c 0,-5 5,-13 11,-17 6,-3 21,-27 32,-53 38,-86 23,-235 -30,-293 -19,-22 -9,-37 15,-22 35,22 65,94 70,168 5,80 -8,138 -41,187 -22,33 -57,51 -57,30 z"
         id="path8419" />
      <path
         d="m 20696,3759 c -21,-77 -40,-147 -43,-156 -4,-11 -1,-14 13,-11 15,3 26,31 56,138 41,152 44,170 24,170 -9,0 -26,-47 -50,-141 z"
         id="path8421" />
      <path
         d="m 21240,3891 c 0,-5 5,-13 11,-17 6,-3 21,-27 32,-53 38,-86 23,-235 -30,-293 -19,-22 -9,-37 15,-22 35,22 65,94 70,168 5,80 -8,138 -41,187 -22,33 -57,51 -57,30 z"
         id="path8423" />
      <path
         d="m 3150,3811 c -35,-72 -38,-81 -21,-81 13,0 27,19 48,67 l 31,68 30,-68 c 19,-41 37,-67 46,-67 22,0 20,5 -22,85 -20,38 -45,71 -54,73 -13,2 -28,-18 -58,-77 z"
         id="path8425" />
      <path
         d="m 2550,3860 c -15,-15 -20,-33 -20,-70 0,-75 46,-112 95,-76 12,9 20,30 23,68 4,47 1,59 -17,77 -26,26 -55,27 -81,1 z m 74,-37 c 13,-46 -3,-97 -32,-101 -16,-3 -25,4 -32,23 -21,56 -3,118 32,113 15,-2 25,-13 32,-35 z"
         id="path8427" />
      <path
         d="m 2739,3823 c -20,-32 -62,-97 -93,-145 -31,-49 -50,-88 -44,-88 7,0 47,52 88,116 41,64 83,130 93,145 14,22 16,29 5,29 -7,0 -29,-26 -49,-57 z"
         id="path8429" />
      <path
         d="m 3726,3858 c -3,-13 -6,-47 -6,-75 0,-46 3,-53 19,-53 11,0 23,5 26,10 11,17 64,11 85,-10 41,-41 10,-110 -48,-110 -16,0 -37,9 -47,20 -17,18 -45,27 -45,14 0,-18 23,-43 49,-54 70,-28 141,17 141,89 0,64 -61,106 -122,83 -27,-10 -28,-9 -28,18 0,55 7,60 76,60 50,0 64,3 64,15 0,12 -15,15 -79,15 -73,0 -79,-2 -85,-22 z"
         id="path8431" />
      <path
         d="m 3989,3865 c -33,-18 -49,-61 -49,-132 0,-113 61,-169 139,-128 35,18 51,60 51,132 0,116 -61,171 -141,128 z m 85,-30 c 33,-34 34,-159 1,-195 -23,-26 -57,-25 -81,1 -15,17 -19,36 -19,94 0,58 4,77 19,94 22,25 58,27 80,6 z"
         id="path8433" />
      <path
         d="m 5100,3860 c -15,-15 -20,-33 -20,-70 0,-75 46,-112 95,-76 12,9 20,30 23,68 4,47 1,59 -17,77 -26,26 -55,27 -81,1 z m 74,-37 c 13,-46 -3,-97 -32,-101 -16,-3 -25,4 -32,23 -21,56 -3,118 32,113 15,-2 25,-13 32,-35 z"
         id="path8435" />
      <path
         d="m 5289,3823 c -20,-32 -62,-97 -93,-145 -31,-49 -50,-88 -44,-88 7,0 47,52 88,116 41,64 83,130 93,145 14,22 16,29 5,29 -7,0 -29,-26 -49,-57 z"
         id="path8437" />
      <path
         d="m 5709,3865 c -15,-8 -30,-22 -33,-31 -9,-24 16,-38 28,-16 13,24 27,32 57,32 32,0 49,-17 49,-51 0,-21 -17,-45 -69,-96 -38,-37 -72,-78 -76,-90 -6,-23 -5,-23 89,-23 77,0 96,3 96,15 0,11 -18,15 -77,17 l -78,3 73,71 c 62,61 72,75 72,106 0,21 -7,41 -19,52 -26,24 -81,29 -112,11 z"
         id="path8439" />
      <path
         d="m 6716,3858 c -3,-13 -6,-47 -6,-75 0,-46 3,-53 19,-53 11,0 23,5 26,10 11,17 64,11 85,-10 41,-41 10,-110 -48,-110 -16,0 -37,9 -47,20 -17,18 -45,27 -45,14 0,-18 23,-43 49,-54 70,-28 141,17 141,89 0,64 -61,106 -122,83 -27,-10 -28,-9 -28,18 0,55 7,60 76,60 50,0 64,3 64,15 0,12 -15,15 -79,15 -73,0 -79,-2 -85,-22 z"
         id="path8441" />
      <path
         d="m 6979,3865 c -33,-18 -49,-61 -49,-132 0,-113 61,-169 139,-128 35,18 51,60 51,132 0,116 -61,171 -141,128 z m 85,-30 c 33,-34 34,-159 1,-195 -23,-26 -57,-25 -81,1 -15,17 -19,36 -19,94 0,58 4,77 19,94 22,25 58,27 80,6 z"
         id="path8443" />
      <path
         d="m 8193,3854 c -18,-14 -33,-32 -33,-40 0,-12 5,-11 26,5 15,12 31,21 35,21 5,0 9,-49 9,-110 v -110 h -40 c -29,0 -40,-4 -40,-15 0,-12 17,-15 90,-15 73,0 90,3 90,15 0,10 -11,15 -35,15 h -35 v 130 c 0,146 -5,154 -67,104 z"
         id="path8445" />
      <path
         d="m 8420,3867 c -56,-28 -64,-117 -13,-157 31,-24 61,-26 91,-4 31,21 35,15 20,-32 -19,-56 -59,-68 -110,-32 -31,22 -34,-3 -4,-29 59,-51 138,-8 151,82 8,52 -1,123 -18,146 -28,37 -74,48 -117,26 z m 82,-34 c 22,-20 24,-76 2,-97 -18,-18 -47,-20 -75,-6 -26,14 -27,94 -1,109 25,15 53,13 74,-6 z"
         id="path8447" />
      <path
         d="m 9801,3868 c -35,-19 -49,-44 -32,-60 11,-11 14,-11 18,0 15,41 68,55 97,26 30,-29 19,-59 -41,-114 -60,-55 -93,-96 -93,-117 0,-10 26,-13 95,-13 77,0 95,3 95,15 0,11 -18,15 -77,17 l -78,3 73,71 c 63,61 72,75 72,105 0,22 -7,42 -19,53 -25,23 -80,30 -110,14 z"
         id="path8449" />
      <path
         d="m 10151,3867 c -13,-6 -31,-22 -39,-34 -13,-21 -13,-23 4,-23 11,0 25,9 32,20 22,35 102,20 102,-20 0,-26 -27,-50 -56,-50 -15,0 -24,-6 -24,-15 0,-9 9,-15 25,-15 26,0 65,-31 65,-53 0,-7 -7,-23 -16,-35 -21,-31 -68,-29 -98,3 -26,28 -46,32 -46,10 0,-47 89,-79 146,-52 55,27 59,103 7,130 -26,14 -26,15 -5,21 47,15 41,98 -9,115 -41,14 -58,14 -88,-2 z"
         id="path8451" />
      <path
         d="m 10346,3858 c -3,-13 -6,-47 -6,-75 0,-46 3,-53 19,-53 11,0 23,5 26,10 11,17 64,11 85,-10 41,-41 10,-110 -48,-110 -16,0 -37,9 -47,20 -17,18 -45,27 -45,14 0,-18 23,-43 49,-54 70,-28 141,17 141,89 0,64 -61,106 -122,83 -27,-10 -28,-9 -28,18 0,55 7,60 76,60 50,0 64,3 64,15 0,12 -15,15 -79,15 -73,0 -79,-2 -85,-22 z"
         id="path8453" />
      <path
         d="m 11506,3858 c -3,-13 -6,-47 -6,-75 0,-46 3,-53 19,-53 11,0 23,5 26,10 11,17 64,11 85,-10 41,-41 10,-110 -48,-110 -16,0 -37,9 -47,20 -17,18 -45,27 -45,14 0,-18 23,-43 49,-54 70,-28 141,17 141,89 0,64 -61,106 -122,83 -27,-10 -28,-9 -28,18 0,55 7,60 76,60 50,0 64,3 64,15 0,12 -15,15 -79,15 -73,0 -79,-2 -85,-22 z"
         id="path8455" />
      <path
         d="m 11769,3865 c -33,-18 -49,-61 -49,-132 0,-113 61,-169 139,-128 35,18 51,60 51,132 0,116 -61,171 -141,128 z m 85,-30 c 33,-34 34,-159 1,-195 -23,-26 -57,-25 -81,1 -15,17 -19,36 -19,94 0,58 4,77 19,94 22,25 58,27 80,6 z"
         id="path8457" />
      <path
         d="m 12983,3854 c -18,-14 -33,-32 -33,-40 0,-12 5,-11 26,5 15,12 31,21 35,21 5,0 9,-49 9,-110 v -110 h -40 c -29,0 -40,-4 -40,-15 0,-12 17,-15 90,-15 73,0 90,3 90,15 0,10 -11,15 -35,15 h -35 v 130 c 0,146 -5,154 -67,104 z"
         id="path8459" />
      <path
         d="m 13210,3867 c -56,-28 -64,-117 -13,-157 31,-24 61,-26 91,-4 31,21 35,15 20,-32 -19,-56 -59,-68 -110,-32 -31,22 -34,-3 -4,-29 59,-51 138,-8 151,82 8,52 -1,123 -18,146 -28,37 -74,48 -117,26 z m 82,-34 c 22,-20 24,-76 2,-97 -18,-18 -47,-20 -75,-6 -26,14 -27,94 -1,109 25,15 53,13 74,-6 z"
         id="path8461" />
      <path
         d="m 14973,3854 c -18,-14 -33,-32 -33,-40 0,-12 5,-11 26,5 15,12 31,21 35,21 5,0 9,-49 9,-110 v -110 h -40 c -29,0 -40,-4 -40,-15 0,-12 17,-15 90,-15 73,0 90,3 90,15 0,10 -11,15 -35,15 h -35 v 130 c 0,146 -5,154 -67,104 z"
         id="path8463" />
      <path
         d="m 15209,3865 c -61,-33 -76,-183 -25,-241 12,-14 37,-27 58,-31 32,-5 41,-1 68,25 75,76 -2,201 -92,149 -28,-16 -28,-16 -28,12 0,54 69,93 100,56 13,-16 40,-21 40,-7 -1,22 -45,52 -77,52 -10,-1 -30,-7 -44,-15 z m 85,-137 c 33,-46 7,-108 -44,-108 -51,0 -81,78 -44,114 23,24 70,20 88,-6 z"
         id="path8465" />
      <path
         d="m 15429,3865 c -33,-18 -49,-61 -49,-132 0,-113 61,-169 139,-128 35,18 51,60 51,132 0,116 -61,171 -141,128 z m 85,-30 c 33,-34 34,-159 1,-195 -23,-26 -57,-25 -81,1 -15,17 -19,36 -19,94 0,58 4,77 19,94 22,25 58,27 80,6 z"
         id="path8467" />
      <path
         d="m 16473,3854 c -18,-14 -33,-32 -33,-40 0,-12 5,-11 26,5 15,12 31,21 35,21 5,0 9,-49 9,-110 v -110 h -40 c -29,0 -40,-4 -40,-15 0,-12 17,-15 90,-15 73,0 90,3 90,15 0,10 -11,15 -35,15 h -35 v 130 c 0,146 -5,154 -67,104 z"
         id="path8469" />
      <path
         d="m 16699,3865 c -33,-18 -49,-61 -49,-132 0,-113 61,-169 139,-128 35,18 51,60 51,132 0,116 -61,171 -141,128 z m 85,-30 c 33,-34 34,-159 1,-195 -23,-26 -57,-25 -81,1 -15,17 -19,36 -19,94 0,58 4,77 19,94 22,25 58,27 80,6 z"
         id="path8471" />
      <path
         d="m 16929,3865 c -33,-18 -49,-61 -49,-132 0,-113 61,-169 139,-128 35,18 51,60 51,132 0,116 -61,171 -141,128 z m 85,-30 c 33,-34 34,-159 1,-195 -23,-26 -57,-25 -81,1 -15,17 -19,36 -19,94 0,58 4,77 19,94 22,25 58,27 80,6 z"
         id="path8473" />
      <path
         d="m 18016,3783 c -36,-54 -66,-104 -66,-110 0,-9 21,-13 70,-13 h 70 v -35 c 0,-24 5,-35 15,-35 10,0 15,11 15,35 0,28 4,35 20,35 11,0 20,7 20,15 0,8 -9,15 -20,15 -19,0 -20,7 -20,95 0,87 -2,95 -19,95 -13,0 -40,-31 -85,-97 z m 74,-23 v -70 h -51 c -28,0 -49,4 -47,8 9,23 84,132 91,132 4,0 7,-31 7,-70 z"
         id="path8475" />
      <path
         d="m 18239,3865 c -33,-18 -49,-61 -49,-132 0,-113 61,-169 139,-128 35,18 51,60 51,132 0,116 -61,171 -141,128 z m 85,-30 c 33,-34 34,-159 1,-195 -23,-26 -57,-25 -81,1 -15,17 -19,36 -19,94 0,58 4,77 19,94 22,25 58,27 80,6 z"
         id="path8477" />
      <path
         d="m 19403,3854 c -18,-14 -33,-32 -33,-40 0,-12 5,-11 26,5 15,12 31,21 35,21 5,0 9,-49 9,-110 v -110 h -40 c -29,0 -40,-4 -40,-15 0,-12 17,-15 90,-15 73,0 90,3 90,15 0,10 -11,15 -35,15 h -35 v 130 c 0,146 -5,154 -67,104 z"
         id="path8479" />
      <path
         d="m 19629,3865 c -33,-18 -49,-61 -49,-132 0,-113 61,-169 139,-128 35,18 51,60 51,132 0,116 -61,171 -141,128 z m 85,-30 c 33,-34 34,-159 1,-195 -23,-26 -57,-25 -81,1 -15,17 -19,36 -19,94 0,58 4,77 19,94 22,25 58,27 80,6 z"
         id="path8481" />
      <path
         d="m 19859,3865 c -33,-18 -49,-61 -49,-132 0,-113 61,-169 139,-128 35,18 51,60 51,132 0,116 -61,171 -141,128 z m 85,-30 c 33,-34 34,-159 1,-195 -23,-26 -57,-25 -81,1 -15,17 -19,36 -19,94 0,58 4,77 19,94 22,25 58,27 80,6 z"
         id="path8483" />
      <path
         d="m 20843,3854 c -18,-14 -33,-32 -33,-40 0,-12 5,-11 26,5 15,12 31,21 35,21 5,0 9,-49 9,-110 v -110 h -40 c -29,0 -40,-4 -40,-15 0,-12 17,-15 90,-15 73,0 90,3 90,15 0,10 -11,15 -35,15 h -35 v 130 c 0,146 -5,154 -67,104 z"
         id="path8485" />
      <path
         d="m 21020,3865 c 0,-12 15,-15 76,-15 42,0 74,-3 72,-7 -1,-5 -20,-43 -42,-85 -42,-85 -59,-168 -33,-168 10,0 17,15 22,48 7,51 42,136 75,182 38,54 31,60 -75,60 -78,0 -95,-3 -95,-15 z"
         id="path8487" />
      <path
         d="m 7900,3850 c 0,-11 -7,-23 -15,-26 -17,-7 -21,-34 -5,-34 6,0 10,-34 10,-81 0,-96 10,-119 50,-119 34,0 42,25 10,33 -18,5 -20,14 -20,86 0,74 2,81 20,81 11,0 20,7 20,15 0,8 -9,15 -20,15 -15,0 -20,7 -20,25 0,16 -6,25 -15,25 -8,0 -15,-9 -15,-20 z"
         id="path8489" />
      <path
         d="m 12690,3850 c 0,-11 -7,-23 -15,-26 -17,-7 -21,-34 -5,-34 6,0 10,-34 10,-81 0,-96 10,-119 50,-119 34,0 42,25 10,33 -18,5 -20,14 -20,86 0,74 2,81 20,81 11,0 20,7 20,15 0,8 -9,15 -20,15 -15,0 -20,7 -20,25 0,16 -6,25 -15,25 -8,0 -15,-9 -15,-20 z"
         id="path8491" />
      <path
         d="m 9460,3795 v -45 h -45 c -33,0 -45,-4 -45,-15 0,-11 12,-15 45,-15 h 45 v -45 c 0,-33 4,-45 15,-45 11,0 15,12 15,45 v 45 h 40 c 29,0 40,4 40,15 0,11 -11,15 -40,15 h -40 v 45 c 0,33 -4,45 -15,45 -11,0 -15,-12 -15,-45 z"
         id="path8493" />
      <path
         d="m 1960,3705 c 0,-96 3,-115 15,-115 12,0 15,19 15,115 0,96 -3,115 -15,115 -12,0 -15,-19 -15,-115 z"
         id="path8495" />
      <path
         d="m 2949,3805 c -69,-38 -61,-175 10,-205 37,-15 105,0 115,25 8,21 -15,31 -26,11 -6,-11 -22,-16 -49,-16 -36,0 -41,3 -55,35 -7,19 -14,37 -14,40 0,3 37,5 81,5 h 82 l -6,37 c -4,20 -15,45 -25,55 -25,25 -81,32 -113,13 z m 95,-37 c 9,-12 16,-26 16,-30 0,-5 -29,-8 -65,-8 -67,0 -73,7 -42,48 16,21 74,15 91,-10 z"
         id="path8497" />
      <path
         d="m 4310,3814 c 0,-3 14,-25 30,-49 17,-24 30,-49 30,-55 0,-6 -16,-35 -35,-65 -43,-69 -21,-77 25,-10 17,25 35,43 40,40 5,-3 19,-23 31,-45 14,-24 30,-40 41,-40 16,0 13,9 -21,59 l -40,58 35,51 c 38,58 40,62 19,62 -8,0 -26,-20 -41,-45 -14,-25 -28,-45 -30,-45 -2,0 -15,20 -30,45 -14,25 -32,45 -40,45 -8,0 -14,-3 -14,-6 z"
         id="path8499" />
      <path
         d="m 6063,3810 c -27,-11 -39,-50 -24,-78 7,-13 33,-27 66,-37 59,-17 76,-35 55,-60 -16,-19 -74,-19 -94,0 -19,19 -36,19 -36,0 0,-28 47,-48 97,-42 49,5 73,25 73,61 0,34 -15,47 -71,66 -45,15 -54,23 -54,42 0,19 6,24 33,26 22,2 41,-3 53,-14 14,-12 23,-14 30,-7 16,16 -37,53 -75,52 -17,0 -41,-4 -53,-9 z"
         id="path8501" />
      <path
         d="m 6250,3705 c 0,-96 3,-115 15,-115 12,0 15,19 15,115 0,96 -3,115 -15,115 -12,0 -15,-19 -15,-115 z"
         id="path8503" />
      <path
         d="m 6340,3705 c 0,-108 1,-115 20,-115 18,0 20,7 20,84 0,92 11,116 55,116 35,0 45,-28 45,-119 0,-65 3,-81 15,-81 12,0 15,18 15,99 0,92 -2,101 -22,115 -31,22 -60,20 -92,-5 l -26,-20 v 20 c 0,12 -6,21 -15,21 -12,0 -15,-19 -15,-115 z"
         id="path8505" />
      <path
         d="m 7333,3810 c -27,-11 -39,-50 -24,-78 7,-13 33,-27 66,-37 59,-17 76,-35 55,-60 -16,-19 -74,-19 -94,0 -19,19 -36,19 -36,0 0,-28 47,-48 97,-42 49,5 73,25 73,61 0,34 -15,47 -71,66 -45,15 -54,23 -54,42 0,19 6,24 33,26 22,2 41,-3 53,-14 14,-12 23,-14 30,-7 16,16 -37,53 -75,52 -17,0 -41,-4 -53,-9 z"
         id="path8507" />
      <path
         d="m 7540,3800 c -26,-26 -34,-60 -28,-122 4,-38 12,-57 28,-70 27,-22 68,-23 98,-2 l 22,15 v -60 c 0,-48 3,-61 15,-61 13,0 15,24 15,160 0,136 -2,160 -15,160 -8,0 -15,-7 -15,-16 0,-14 -2,-14 -22,0 -31,22 -74,20 -98,-4 z m 101,-27 c 18,-21 17,-116 0,-137 -16,-19 -62,-21 -79,-4 -7,7 -12,39 -12,73 0,34 5,66 12,73 17,17 63,15 79,-5 z"
         id="path8509" />
      <path
         d="m 7750,3705 c 0,-108 1,-115 20,-115 18,0 20,7 20,84 0,87 12,116 46,116 8,0 14,7 14,15 0,23 -36,18 -53,-7 l -16,-23 v 23 c -1,13 -7,22 -16,22 -12,0 -15,-19 -15,-115 z"
         id="path8511" />
      <path
         d="m 8880,3814 c 0,-3 14,-25 30,-49 17,-24 30,-49 30,-55 0,-6 -16,-35 -35,-65 -43,-69 -21,-77 25,-10 17,25 35,43 40,40 5,-3 19,-23 31,-45 14,-24 30,-40 41,-40 16,0 13,9 -21,59 l -40,58 35,51 c 38,58 40,62 19,62 -8,0 -26,-20 -41,-45 -14,-25 -28,-45 -30,-45 -2,0 -15,20 -30,45 -14,25 -32,45 -40,45 -8,0 -14,-3 -14,-6 z"
         id="path8513" />
      <path
         d="m 10729,3791 c -25,-26 -29,-37 -29,-86 0,-49 4,-60 29,-86 41,-40 82,-39 124,3 28,28 30,33 14,36 -11,2 -25,-5 -33,-17 -18,-25 -56,-27 -78,-5 -18,18 -22,104 -6,135 15,26 66,26 80,-1 12,-23 40,-27 40,-6 0,22 -49,56 -82,56 -19,0 -40,-10 -59,-29 z"
         id="path8515" />
      <path
         d="m 10939,3791 c -25,-26 -29,-37 -29,-86 0,-49 4,-60 29,-86 22,-21 39,-29 66,-29 57,0 95,44 95,109 0,61 -14,95 -47,110 -43,20 -82,13 -114,-18 z m 112,-17 c 7,-9 13,-40 13,-69 0,-63 -15,-85 -60,-85 -41,0 -54,21 -54,85 0,64 13,85 54,85 19,0 40,-7 47,-16 z"
         id="path8517" />
      <path
         d="m 11173,3810 c -27,-11 -39,-50 -24,-78 7,-13 33,-27 66,-37 59,-17 76,-35 55,-60 -16,-19 -74,-19 -94,0 -19,19 -36,19 -36,0 0,-28 47,-48 97,-42 49,5 73,25 73,61 0,34 -15,47 -71,66 -45,15 -54,23 -54,42 0,19 6,24 33,26 22,2 41,-3 53,-14 14,-12 23,-14 30,-7 16,16 -37,53 -75,52 -17,0 -41,-4 -53,-9 z"
         id="path8519" />
      <path
         d="m 12123,3810 c -27,-11 -39,-50 -24,-78 7,-13 33,-27 66,-37 59,-17 76,-35 55,-60 -16,-19 -74,-19 -94,0 -19,19 -36,19 -36,0 0,-28 47,-48 97,-42 49,5 73,25 73,61 0,34 -15,47 -71,66 -45,15 -54,23 -54,42 0,19 6,24 33,26 22,2 41,-3 53,-14 14,-12 23,-14 30,-7 16,16 -37,53 -75,52 -17,0 -41,-4 -53,-9 z"
         id="path8521" />
      <path
         d="m 12330,3800 c -26,-26 -34,-60 -28,-122 4,-38 12,-57 28,-70 27,-22 68,-23 98,-2 l 22,15 v -60 c 0,-48 3,-61 15,-61 13,0 15,24 15,160 0,136 -2,160 -15,160 -8,0 -15,-7 -15,-16 0,-14 -2,-14 -22,0 -31,22 -74,20 -98,-4 z m 101,-27 c 18,-21 17,-116 0,-137 -16,-19 -62,-21 -79,-4 -7,7 -12,39 -12,73 0,34 5,66 12,73 17,17 63,15 79,-5 z"
         id="path8523" />
      <path
         d="m 12540,3705 c 0,-108 1,-115 20,-115 18,0 20,7 20,84 0,87 12,116 46,116 8,0 14,7 14,15 0,23 -36,18 -53,-7 l -16,-23 v 23 c -1,13 -7,22 -16,22 -12,0 -15,-19 -15,-115 z"
         id="path8525" />
      <path
         d="m 13670,3814 c 0,-3 14,-25 30,-49 17,-24 30,-49 30,-55 0,-6 -16,-35 -35,-65 -43,-69 -21,-77 25,-10 17,25 35,43 40,40 5,-3 19,-23 31,-45 14,-24 30,-40 41,-40 16,0 13,9 -21,59 l -40,58 35,51 c 38,58 40,62 19,62 -8,0 -26,-20 -41,-45 -14,-25 -28,-45 -30,-45 -2,0 -15,20 -30,45 -14,25 -32,45 -40,45 -8,0 -14,-3 -14,-6 z"
         id="path8527" />
      <path
         d="m 15783,3810 c -27,-11 -39,-50 -24,-78 7,-13 33,-27 66,-37 59,-17 76,-35 55,-60 -16,-19 -74,-19 -94,0 -19,19 -36,19 -36,0 0,-28 47,-48 97,-42 49,5 73,25 73,61 0,34 -15,47 -71,66 -45,15 -54,23 -54,42 0,19 6,24 33,26 22,2 41,-3 53,-14 14,-12 23,-14 30,-7 16,16 -37,53 -75,52 -17,0 -41,-4 -53,-9 z"
         id="path8529" />
      <path
         d="m 15970,3705 c 0,-96 3,-115 15,-115 12,0 15,19 15,115 0,96 -3,115 -15,115 -12,0 -15,-19 -15,-115 z"
         id="path8531" />
      <path
         d="m 16060,3705 c 0,-108 1,-115 20,-115 18,0 20,7 20,84 0,92 11,116 55,116 35,0 45,-28 45,-119 0,-65 3,-81 15,-81 12,0 15,18 15,99 0,92 -2,101 -22,115 -31,22 -60,20 -92,-5 l -26,-20 v 20 c 0,12 -6,21 -15,21 -12,0 -15,-19 -15,-115 z"
         id="path8533" />
      <path
         d="m 17250,3814 c 0,-3 14,-25 30,-49 17,-24 30,-49 30,-55 0,-6 -16,-35 -35,-65 -43,-69 -21,-77 25,-10 17,25 35,43 40,40 5,-3 19,-23 31,-45 14,-24 30,-40 41,-40 16,0 13,9 -21,59 l -40,58 35,51 c 38,58 40,62 19,62 -8,0 -26,-20 -41,-45 -14,-25 -28,-45 -30,-45 -2,0 -15,20 -30,45 -14,25 -32,45 -40,45 -8,0 -14,-3 -14,-6 z"
         id="path8535" />
      <path
         d="m 18589,3791 c -25,-26 -29,-37 -29,-86 0,-49 4,-60 29,-86 41,-40 82,-39 124,3 28,28 30,33 14,36 -11,2 -25,-5 -33,-17 -18,-25 -56,-27 -78,-5 -18,18 -22,104 -6,135 15,26 66,26 80,-1 12,-23 40,-27 40,-6 0,22 -49,56 -82,56 -19,0 -40,-10 -59,-29 z"
         id="path8537" />
      <path
         d="m 18799,3791 c -25,-26 -29,-37 -29,-86 0,-49 4,-60 29,-86 22,-21 39,-29 66,-29 57,0 95,44 95,109 0,61 -14,95 -47,110 -43,20 -82,13 -114,-18 z m 112,-17 c 7,-9 13,-40 13,-69 0,-63 -15,-85 -60,-85 -41,0 -54,21 -54,85 0,64 13,85 54,85 19,0 40,-7 47,-16 z"
         id="path8539" />
      <path
         d="m 19033,3810 c -27,-11 -39,-50 -24,-78 7,-13 33,-27 66,-37 59,-17 76,-35 55,-60 -16,-19 -74,-19 -94,0 -19,19 -36,19 -36,0 0,-28 47,-48 97,-42 49,5 73,25 73,61 0,34 -15,47 -71,66 -45,15 -54,23 -54,42 0,19 6,24 33,26 22,2 41,-3 53,-14 14,-12 23,-14 30,-7 16,16 -37,53 -75,52 -17,0 -41,-4 -53,-9 z"
         id="path8541" />
      <path
         d="m 20180,3814 c 0,-3 14,-25 30,-49 17,-24 30,-49 30,-55 0,-6 -16,-35 -35,-65 -43,-69 -21,-77 25,-10 17,25 35,43 40,40 5,-3 19,-23 31,-45 14,-24 30,-40 41,-40 16,0 13,9 -21,59 l -40,58 35,51 c 38,58 40,62 19,62 -8,0 -26,-20 -41,-45 -14,-25 -28,-45 -30,-45 -2,0 -15,20 -30,45 -14,25 -32,45 -40,45 -8,0 -14,-3 -14,-6 z"
         id="path8543" />
      <path
         d="m 2766,3767 c -19,-14 -32,-82 -22,-121 14,-54 60,-72 96,-36 15,15 20,33 20,75 0,79 -44,118 -94,82 z m 64,-26 c 13,-25 13,-72 0,-106 -14,-37 -51,-31 -62,10 -21,75 30,155 62,96 z"
         id="path8545" />
      <path
         d="m 5316,3767 c -19,-14 -32,-82 -22,-121 14,-54 60,-72 96,-36 15,15 20,33 20,75 0,79 -44,118 -94,82 z m 64,-26 c 13,-25 13,-72 0,-106 -14,-37 -51,-31 -62,10 -21,75 30,155 62,96 z"
         id="path8547" />
      <path
         d="m 3470,3725 c 0,-12 18,-15 100,-15 82,0 100,3 100,15 0,12 -18,15 -100,15 -82,0 -100,-3 -100,-15 z"
         id="path8549" />
      <path
         d="m 14420,3725 c 0,-12 18,-15 100,-15 82,0 100,3 100,15 0,12 -18,15 -100,15 -82,0 -100,-3 -100,-15 z"
         id="path8551" />
      <path
         d="m 17720,3725 c 0,-12 18,-15 100,-15 82,0 100,3 100,15 0,12 -18,15 -100,15 -82,0 -100,-3 -100,-15 z"
         id="path8553" />
      <path
         d="m 4200,3705 c 0,-18 5,-25 20,-25 15,0 20,7 20,25 0,18 -5,25 -20,25 -15,0 -20,-7 -20,-25 z"
         id="path8555" />
      <path
         d="m 4690,3705 c 0,-18 5,-25 20,-25 15,0 20,7 20,25 0,18 -5,25 -20,25 -15,0 -20,-7 -20,-25 z"
         id="path8557" />
      <path
         d="m 5920,3705 c 0,-18 5,-25 20,-25 15,0 20,7 20,25 0,18 -5,25 -20,25 -15,0 -20,-7 -20,-25 z"
         id="path8559" />
      <path
         d="m 7190,3705 c 0,-18 5,-25 20,-25 15,0 20,7 20,25 0,18 -5,25 -20,25 -15,0 -20,-7 -20,-25 z"
         id="path8561" />
      <path
         d="m 8770,3705 c 0,-18 5,-25 20,-25 15,0 20,7 20,25 0,18 -5,25 -20,25 -15,0 -20,-7 -20,-25 z"
         id="path8563" />
      <path
         d="m 10590,3705 c 0,-18 5,-25 20,-25 15,0 20,7 20,25 0,18 -5,25 -20,25 -15,0 -20,-7 -20,-25 z"
         id="path8565" />
      <path
         d="m 11980,3705 c 0,-18 5,-25 20,-25 15,0 20,7 20,25 0,18 -5,25 -20,25 -15,0 -20,-7 -20,-25 z"
         id="path8567" />
      <path
         d="m 13560,3705 c 0,-18 5,-25 20,-25 15,0 20,7 20,25 0,18 -5,25 -20,25 -15,0 -20,-7 -20,-25 z"
         id="path8569" />
      <path
         d="m 15640,3705 c 0,-18 5,-25 20,-25 15,0 20,7 20,25 0,18 -5,25 -20,25 -15,0 -20,-7 -20,-25 z"
         id="path8571" />
      <path
         d="m 17140,3705 c 0,-18 5,-25 20,-25 15,0 20,7 20,25 0,18 -5,25 -20,25 -15,0 -20,-7 -20,-25 z"
         id="path8573" />
      <path
         d="m 18450,3705 c 0,-18 5,-25 20,-25 15,0 20,7 20,25 0,18 -5,25 -20,25 -15,0 -20,-7 -20,-25 z"
         id="path8575" />
      <path
         d="m 20070,3705 c 0,-18 5,-25 20,-25 15,0 20,7 20,25 0,18 -5,25 -20,25 -15,0 -20,-7 -20,-25 z"
         id="path8577" />
      <path
         d="m 10000,3616 c 0,-20 5,-26 21,-26 15,0 20,5 17,22 -5,34 -38,37 -38,4 z"
         id="path8579" />
      <path
         d="m 3710,3216 c 0,-7 -3,-34 -6,-60 l -7,-47 56,7 c 53,6 57,5 67,-17 8,-17 8,-33 1,-52 -9,-22 -17,-27 -46,-27 -22,0 -38,6 -41,15 -8,19 -34,20 -34,1 0,-22 40,-46 76,-46 43,0 73,27 80,72 5,31 2,41 -21,63 -23,23 -32,27 -67,22 -37,-5 -40,-4 -34,16 3,12 6,25 6,30 0,4 23,7 50,7 38,0 50,4 50,15 0,12 -14,15 -65,15 -48,0 -65,-4 -65,-14 z"
         id="path8581" />
      <path
         d="m 3921,3213 c -29,-24 -44,-91 -32,-145 17,-74 75,-99 126,-55 44,37 47,155 4,198 -24,24 -70,25 -98,2 z m 89,-43 c 14,-35 9,-113 -10,-135 -16,-19 -54,-19 -70,0 -15,18 -15,132 1,151 6,8 24,14 39,14 21,0 30,-7 40,-30 z"
         id="path8583" />
      <path
         d="m 13920,3216 c 0,-7 -3,-34 -6,-60 l -7,-47 56,7 c 53,6 57,5 67,-17 8,-17 8,-33 1,-52 -9,-22 -17,-27 -46,-27 -22,0 -38,6 -41,15 -8,19 -34,20 -34,1 0,-22 40,-46 76,-46 43,0 73,27 80,72 5,31 2,41 -21,63 -23,23 -32,27 -67,22 -37,-5 -40,-4 -34,16 3,12 6,25 6,30 0,4 23,7 50,7 38,0 50,4 50,15 0,12 -14,15 -65,15 -48,0 -65,-4 -65,-14 z"
         id="path8585" />
      <path
         d="m 14131,3213 c -29,-24 -44,-91 -32,-145 17,-74 75,-99 126,-55 44,37 47,155 4,198 -24,24 -70,25 -98,2 z m 89,-43 c 14,-35 9,-113 -10,-135 -16,-19 -54,-19 -70,0 -15,18 -15,132 1,151 6,8 24,14 39,14 21,0 30,-7 40,-30 z"
         id="path8587" />
      <path
         d="m 4210,3175 c 0,-3 9,-24 20,-46 l 21,-40 -40,-47 c -49,-56 -33,-72 17,-18 18,21 35,36 37,34 1,-2 10,-18 19,-35 9,-18 23,-33 31,-33 13,0 13,5 -1,38 -9,20 -18,42 -21,49 -3,7 12,33 32,58 45,55 24,64 -24,10 l -31,-36 -17,36 c -9,19 -23,35 -30,35 -7,0 -13,-2 -13,-5 z"
         id="path8589" />
      <path
         d="m 14420,3175 c 0,-3 9,-24 20,-46 l 21,-40 -40,-47 c -49,-56 -33,-72 17,-18 18,21 35,36 37,34 1,-2 10,-18 19,-35 9,-18 23,-33 31,-33 13,0 13,5 -1,38 -9,20 -18,42 -21,49 -3,7 12,33 32,58 45,55 24,64 -24,10 l -31,-36 -17,36 c -9,19 -23,35 -30,35 -7,0 -13,-2 -13,-5 z"
         id="path8591" />
      <path
         d="m 3442,3108 c 3,-9 32,-14 86,-16 68,-2 82,0 82,13 0,12 -15,15 -86,15 -64,0 -85,-3 -82,-12 z"
         id="path8593" />
      <path
         d="m 13652,3108 c 3,-9 32,-14 86,-16 68,-2 82,0 82,13 0,12 -15,15 -86,15 -64,0 -85,-3 -82,-12 z"
         id="path8595" />
      <path
         d="m 7225,3081 c -3,-6 -15,-100 -27,-210 -12,-111 -24,-201 -27,-201 -3,0 -26,36 -51,80 -25,44 -52,80 -60,80 -25,0 -100,-38 -100,-51 0,-11 5,-10 67,7 20,5 27,-4 70,-90 39,-78 52,-96 70,-96 12,0 24,4 28,9 3,5 14,94 25,198 11,103 23,203 26,221 l 5,32 h 274 275 v -56 c 0,-40 3,-55 13,-52 7,3 13,29 15,71 l 3,67 h -300 c -179,0 -302,-4 -306,-9 z"
         id="path8597" />
      <path
         d="m 11345,3081 c -3,-6 -15,-100 -27,-210 -12,-111 -24,-201 -27,-201 -3,0 -26,36 -51,80 -25,44 -52,80 -60,80 -25,0 -100,-38 -100,-51 0,-11 5,-10 67,7 20,5 27,-4 70,-90 39,-78 52,-96 70,-96 12,0 24,4 28,9 3,5 14,94 25,198 11,103 23,203 26,221 l 5,32 h 274 275 v -56 c 0,-40 3,-55 13,-52 7,3 13,29 15,71 l 3,67 h -300 c -179,0 -302,-4 -306,-9 z"
         id="path8599" />
      <path
         d="m 1787,2932 c -58,-64 -76,-214 -36,-302 23,-51 46,-80 65,-80 8,0 1,22 -19,61 -28,54 -32,72 -32,139 0,67 4,85 32,139 20,39 27,61 19,61 -7,0 -20,-8 -29,-18 z"
         id="path8601" />
      <path
         d="m 4567,2932 c -36,-40 -57,-106 -57,-182 0,-97 44,-200 86,-200 8,0 1,22 -19,61 -28,54 -32,72 -32,139 0,67 4,85 32,139 20,39 27,61 19,61 -7,0 -20,-8 -29,-18 z"
         id="path8603" />
      <path
         d="m 5087,2799 c -15,-83 -26,-154 -23,-157 14,-13 34,11 40,46 5,33 20,52 40,52 1,0 13,-22 26,-50 16,-33 30,-50 42,-50 23,0 23,0 -13,71 l -30,61 53,49 c 46,42 50,48 30,49 -15,0 -43,-19 -78,-51 -59,-56 -60,-55 -39,41 19,84 18,90 -3,90 -14,0 -22,-24 -45,-151 z"
         id="path8605" />
      <path
         d="m 5860,2930 c 0,-11 7,-20 15,-20 8,0 15,9 15,20 0,11 -7,20 -15,20 -8,0 -15,-9 -15,-20 z"
         id="path8607" />
      <path
         d="m 6297,2932 c -36,-40 -57,-106 -57,-182 0,-97 44,-200 86,-200 8,0 1,22 -19,61 -28,54 -32,72 -32,139 0,67 4,85 32,139 20,39 27,61 19,61 -7,0 -20,-8 -29,-18 z"
         id="path8609" />
      <path
         d="m 8220,2941 c 0,-5 5,-13 11,-17 6,-3 21,-27 32,-53 38,-86 23,-235 -30,-293 -19,-22 -9,-37 15,-22 35,22 65,94 70,168 5,80 -8,138 -41,187 -22,33 -57,51 -57,30 z"
         id="path8611" />
      <path
         d="m 10417,2932 c -36,-40 -57,-106 -57,-182 0,-97 44,-200 86,-200 8,0 1,22 -19,61 -28,54 -32,72 -32,139 0,67 4,85 32,139 20,39 27,61 19,61 -7,0 -20,-8 -29,-18 z"
         id="path8613" />
      <path
         d="m 12340,2941 c 0,-5 5,-13 11,-17 6,-3 21,-27 32,-53 38,-86 23,-235 -30,-293 -19,-22 -9,-37 15,-22 35,22 65,94 70,168 5,80 -8,138 -41,187 -22,33 -57,51 -57,30 z"
         id="path8615" />
      <path
         d="m 12510,2941 c 0,-5 5,-13 11,-17 6,-3 21,-27 32,-53 38,-86 23,-235 -30,-293 -19,-22 -9,-37 15,-22 35,22 65,94 70,168 5,80 -8,138 -41,187 -22,33 -57,51 -57,30 z"
         id="path8617" />
      <path
         d="m 2230,2855 c 0,-81 4,-86 54,-64 35,16 75,3 87,-28 26,-68 -50,-124 -101,-73 -20,20 -50,27 -50,12 0,-38 71,-71 125,-58 67,17 90,112 39,163 -23,23 -31,25 -76,20 -48,-6 -50,-5 -44,16 3,12 6,30 6,40 0,14 10,17 65,17 51,0 65,3 65,15 0,12 -16,15 -85,15 h -85 z"
         id="path8619" />
      <path
         d="m 2497,2919 c -45,-26 -63,-150 -33,-224 31,-73 124,-76 161,-5 17,33 22,116 11,167 -13,59 -87,92 -139,62 z m 89,-40 c 15,-17 19,-36 19,-94 0,-81 -18,-115 -61,-115 -37,0 -59,44 -59,115 0,100 52,148 101,94 z"
         id="path8621" />
      <path
         d="m 2827,2912 c -22,-24 -23,-110 -1,-140 19,-28 57,-29 84,-2 25,25 27,105 4,138 -19,27 -64,29 -87,4 z m 61,-14 c 17,-17 15,-103 -3,-118 -12,-10 -18,-10 -30,0 -28,23 -16,130 15,130 3,0 11,-5 18,-12 z"
         id="path8623" />
      <path
         d="m 2968,2798 c -108,-170 -102,-158 -85,-158 8,0 55,62 103,137 103,158 100,153 81,153 -8,0 -53,-60 -99,-132 z"
         id="path8625" />
      <path
         d="m 4742,2907 c -31,-33 -41,-111 -17,-137 45,-50 115,5 115,90 0,39 -4,52 -19,60 -31,16 -56,12 -79,-13 z m 66,-13 c 5,-9 6,-34 1,-57 -12,-71 -69,-87 -69,-20 0,66 45,117 68,77 z"
         id="path8627" />
      <path
         d="m 4865,2798 c -126,-151 -131,-158 -112,-158 12,0 247,271 247,285 0,24 -42,-15 -135,-127 z"
         id="path8629" />
      <path
         d="m 5349,2915 c -30,-16 -44,-44 -31,-57 6,-6 20,1 35,16 30,30 58,33 81,10 32,-32 11,-69 -69,-124 -63,-43 -105,-86 -105,-107 0,-10 26,-13 95,-13 78,0 95,3 95,15 0,12 -15,15 -72,15 l -73,1 36,32 c 20,17 56,45 79,61 50,34 74,83 60,120 -17,45 -78,60 -131,31 z"
         id="path8631" />
      <path
         d="m 6440,2855 c 0,-81 4,-86 54,-64 35,16 75,3 87,-28 26,-68 -50,-124 -101,-73 -20,20 -50,27 -50,12 0,-38 71,-71 125,-58 67,17 90,112 39,163 -23,23 -31,25 -76,20 -48,-6 -50,-5 -44,16 3,12 6,30 6,40 0,14 10,17 65,17 51,0 65,3 65,15 0,12 -16,15 -85,15 h -85 z"
         id="path8633" />
      <path
         d="m 6707,2919 c -45,-26 -63,-150 -33,-224 31,-73 124,-76 161,-5 17,33 22,116 11,167 -13,59 -87,92 -139,62 z m 89,-40 c 15,-17 19,-36 19,-94 0,-81 -18,-115 -61,-115 -37,0 -59,44 -59,115 0,100 52,148 101,94 z"
         id="path8635" />
      <path
         d="m 7373,2907 c -18,-12 -33,-30 -33,-40 0,-17 2,-17 30,3 l 30,21 v -110 -111 h -35 c -24,0 -35,-5 -35,-15 0,-12 17,-15 90,-15 73,0 90,3 90,15 0,10 -11,15 -35,15 h -35 v 130 c 0,146 -3,150 -67,107 z"
         id="path8637" />
      <path
         d="m 7579,2901 c -47,-47 -35,-128 22,-152 28,-11 43,-10 82,6 25,10 23,-35 -3,-63 -24,-26 -52,-28 -74,-7 -17,17 -46,20 -46,5 0,-22 41,-50 73,-50 66,0 107,57 107,150 0,60 -20,114 -48,129 -38,20 -82,13 -113,-18 z m 105,-23 c 45,-64 -20,-142 -76,-91 -10,9 -18,30 -18,46 0,60 63,90 94,45 z"
         id="path8639" />
      <path
         d="m 8738,2910 c -28,-21 -38,-60 -17,-60 6,0 20,11 31,25 22,28 59,33 82,9 30,-29 18,-56 -48,-119 -61,-57 -86,-91 -86,-114 0,-7 34,-11 95,-11 78,0 95,3 95,15 0,12 -15,15 -77,15 h -77 l 74,75 c 64,64 74,79 74,110 0,46 -21,66 -75,72 -35,4 -50,0 -71,-17 z"
         id="path8641" />
      <path
         d="m 9095,2919 c -22,-13 -45,-39 -45,-51 0,-15 30,-8 50,12 33,33 100,17 100,-24 0,-21 -35,-46 -63,-46 -43,0 -33,-27 13,-34 43,-7 62,-32 52,-69 -11,-42 -99,-47 -109,-7 -6,23 -43,27 -43,5 0,-21 34,-53 65,-61 39,-10 93,4 110,29 24,34 19,82 -10,105 l -25,20 22,14 c 26,17 29,71 6,95 -20,19 -97,27 -123,12 z"
         id="path8643" />
      <path
         d="m 9290,2855 c 0,-81 4,-86 54,-64 35,16 75,3 87,-28 26,-68 -50,-124 -101,-73 -20,20 -50,27 -50,12 0,-38 71,-71 125,-58 67,17 90,112 39,163 -23,23 -31,25 -76,20 -48,-6 -50,-5 -44,16 3,12 6,30 6,40 0,14 10,17 65,17 51,0 65,3 65,15 0,12 -16,15 -85,15 h -85 z"
         id="path8645" />
      <path
         d="m 10560,2855 c 0,-81 4,-86 54,-64 35,16 75,3 87,-28 26,-68 -50,-124 -101,-73 -20,20 -50,27 -50,12 0,-38 71,-71 125,-58 67,17 90,112 39,163 -23,23 -31,25 -76,20 -48,-6 -50,-5 -44,16 3,12 6,30 6,40 0,14 10,17 65,17 51,0 65,3 65,15 0,12 -16,15 -85,15 h -85 z"
         id="path8647" />
      <path
         d="m 10827,2919 c -45,-26 -63,-150 -33,-224 31,-73 124,-76 161,-5 17,33 22,116 11,167 -13,59 -87,92 -139,62 z m 89,-40 c 15,-17 19,-36 19,-94 0,-81 -18,-115 -61,-115 -37,0 -59,44 -59,115 0,100 52,148 101,94 z"
         id="path8649" />
      <path
         d="m 11493,2907 c -18,-12 -33,-30 -33,-40 0,-17 2,-17 30,3 l 30,21 v -110 -111 h -35 c -24,0 -35,-5 -35,-15 0,-12 17,-15 90,-15 73,0 90,3 90,15 0,10 -11,15 -35,15 h -35 v 130 c 0,146 -3,150 -67,107 z"
         id="path8651" />
      <path
         d="m 11699,2901 c -47,-47 -35,-128 22,-152 28,-11 43,-10 82,6 25,10 23,-35 -3,-63 -24,-26 -52,-28 -74,-7 -17,17 -46,20 -46,5 0,-22 41,-50 73,-50 66,0 107,57 107,150 0,60 -20,114 -48,129 -38,20 -82,13 -113,-18 z m 105,-23 c 45,-64 -20,-142 -76,-91 -10,9 -18,30 -18,46 0,60 63,90 94,45 z"
         id="path8653" />
      <path
         d="m 13037,2912 c -22,-24 -23,-110 -1,-140 19,-28 57,-29 84,-2 25,25 27,105 4,138 -19,27 -64,29 -87,4 z m 61,-14 c 17,-17 15,-103 -3,-118 -12,-10 -18,-10 -30,0 -28,23 -16,130 15,130 3,0 11,-5 18,-12 z"
         id="path8655" />
      <path
         d="m 13178,2798 c -108,-170 -102,-158 -85,-158 8,0 55,62 103,137 103,158 100,153 81,153 -8,0 -53,-60 -99,-132 z"
         id="path8657" />
      <path
         d="m 8490,2845 v -45 h -40 c -29,0 -40,-4 -40,-15 0,-11 11,-15 40,-15 h 40 v -45 c 0,-33 4,-45 15,-45 11,0 15,12 15,45 v 45 h 45 c 33,0 45,4 45,15 0,11 -12,15 -45,15 h -45 v 45 c 0,33 -4,45 -15,45 -11,0 -15,-12 -15,-45 z"
         id="path8659" />
      <path
         d="m 12810,2845 v -45 h -40 c -29,0 -40,-4 -40,-15 0,-11 11,-15 40,-15 h 40 v -45 c 0,-33 4,-45 15,-45 11,0 15,12 15,45 v 45 h 45 c 33,0 45,4 45,15 0,11 -12,15 -45,15 h -45 v 45 c 0,33 -4,45 -15,45 -11,0 -15,-12 -15,-45 z"
         id="path8661" />
      <path
         d="m 3209,2841 c -25,-26 -29,-37 -29,-86 0,-49 4,-60 29,-86 21,-20 39,-29 63,-29 42,0 82,20 86,43 4,21 -21,23 -38,2 -30,-36 -100,-5 -100,43 0,21 5,22 75,22 h 75 v 31 c 0,45 -47,89 -95,89 -27,0 -44,-8 -66,-29 z m 109,-13 c 7,-7 12,-20 12,-30 0,-15 -9,-18 -55,-18 -41,0 -55,4 -55,14 0,38 70,62 98,34 z"
         id="path8663" />
      <path
         d="m 5673,2860 c -12,-5 -25,-20 -29,-34 -10,-40 11,-64 70,-81 56,-16 75,-37 55,-61 -16,-19 -74,-18 -93,2 -9,8 -24,14 -34,12 -14,-3 -13,-8 11,-32 25,-25 34,-28 77,-24 61,6 80,21 80,63 0,39 -9,47 -78,70 -45,14 -53,20 -50,38 4,29 61,36 88,12 20,-18 42,-12 34,9 -12,31 -84,45 -131,26 z"
         id="path8665" />
      <path
         d="m 5860,2755 c 0,-96 3,-115 15,-115 12,0 15,19 15,115 0,96 -3,115 -15,115 -12,0 -15,-19 -15,-115 z"
         id="path8667" />
      <path
         d="m 5950,2755 c 0,-108 1,-115 20,-115 18,0 20,7 20,84 0,92 11,116 55,116 35,0 45,-28 45,-119 0,-65 3,-81 15,-81 12,0 15,18 15,98 0,83 -3,102 -18,115 -23,21 -62,22 -88,2 -25,-19 -34,-19 -34,0 0,8 -7,15 -15,15 -12,0 -15,-19 -15,-115 z"
         id="path8669" />
      <path
         d="m 7995,2820 c 14,-27 25,-53 25,-58 0,-4 -20,-32 -45,-61 -25,-29 -45,-55 -45,-57 0,-2 8,-4 18,-4 9,0 33,20 52,45 19,24 37,44 40,45 3,0 13,-20 23,-45 13,-31 25,-45 38,-45 24,0 24,1 -6,60 -14,27 -25,53 -25,57 0,5 21,32 46,61 42,48 44,52 22,52 -15,0 -32,-14 -51,-40 -16,-22 -32,-40 -37,-40 -4,0 -15,18 -24,40 -11,28 -22,40 -36,40 -20,0 -20,-1 5,-50 z"
         id="path8671" />
      <path
         d="m 9669,2841 c -25,-26 -29,-37 -29,-86 0,-49 4,-60 29,-86 44,-43 116,-35 140,17 9,20 8,24 -7,24 -9,0 -23,-9 -30,-20 -7,-11 -23,-20 -36,-20 -40,0 -56,25 -56,85 0,60 16,85 55,85 14,0 29,-9 35,-20 12,-22 40,-27 40,-7 0,18 -12,32 -37,46 -37,19 -73,13 -104,-18 z"
         id="path8673" />
      <path
         d="m 9880,2842 c -26,-27 -30,-37 -30,-87 0,-49 4,-60 29,-86 22,-21 39,-29 66,-29 27,0 44,8 66,29 26,26 29,37 29,89 0,77 -19,102 -82,109 -42,5 -50,3 -78,-25 z m 111,-18 c 16,-20 17,-102 0,-131 -8,-16 -21,-23 -41,-23 -44,0 -60,23 -60,85 0,35 5,59 16,69 20,21 68,20 85,0 z"
         id="path8675" />
      <path
         d="m 10113,2860 c -12,-5 -25,-20 -29,-34 -10,-40 11,-64 70,-81 56,-16 75,-37 55,-61 -16,-19 -74,-18 -93,2 -9,8 -24,14 -34,12 -14,-3 -13,-8 11,-32 25,-25 34,-28 77,-24 61,6 80,21 80,63 0,39 -9,47 -78,70 -45,14 -53,20 -50,38 4,29 61,36 88,12 20,-18 42,-12 34,9 -12,31 -84,45 -131,26 z"
         id="path8677" />
      <path
         d="m 12115,2820 c 14,-27 25,-53 25,-58 0,-4 -20,-32 -45,-61 -25,-29 -45,-55 -45,-57 0,-2 8,-4 18,-4 9,0 33,20 52,45 19,24 37,44 40,45 3,0 13,-20 23,-45 13,-31 25,-45 38,-45 24,0 24,1 -6,60 -14,27 -25,53 -25,57 0,5 21,32 46,61 42,48 44,52 22,52 -15,0 -32,-14 -51,-40 -16,-22 -32,-40 -37,-40 -4,0 -15,18 -24,40 -11,28 -22,40 -36,40 -20,0 -20,-1 5,-50 z"
         id="path8679" />
      <path
         d="m 13419,2841 c -25,-26 -29,-37 -29,-86 0,-49 4,-60 29,-86 21,-20 39,-29 63,-29 42,0 82,20 86,43 4,21 -21,23 -38,2 -30,-36 -100,-5 -100,43 0,21 5,22 75,22 h 75 v 31 c 0,45 -47,89 -95,89 -27,0 -44,-8 -66,-29 z m 109,-13 c 7,-7 12,-20 12,-30 0,-15 -9,-18 -55,-18 -41,0 -55,4 -55,14 0,38 70,62 98,34 z"
         id="path8681" />
      <path
         d="m 3040,2810 c -15,-15 -20,-33 -20,-75 0,-62 22,-95 65,-95 35,0 57,39 57,101 -1,81 -54,117 -102,69 z m 60,-16 c 19,-22 17,-101 -3,-121 -27,-27 -47,0 -47,61 0,67 23,94 50,60 z"
         id="path8683" />
      <path
         d="m 4930,2805 c -31,-33 -40,-123 -15,-149 44,-44 115,17 115,100 0,72 -53,99 -100,49 z m 65,-59 c -1,-61 -20,-91 -52,-79 -23,9 -13,111 13,130 30,22 39,10 39,-51 z"
         id="path8685" />
      <path
         d="m 13250,2810 c -15,-15 -20,-33 -20,-75 0,-62 22,-95 65,-95 35,0 57,39 57,101 -1,81 -54,117 -102,69 z m 60,-16 c 19,-22 17,-101 -3,-121 -27,-27 -47,0 -47,61 0,67 23,94 50,60 z"
         id="path8687" />
      <path
         d="m 1930,2775 c 0,-12 18,-15 100,-15 82,0 100,3 100,15 0,12 -18,15 -100,15 -82,0 -100,-3 -100,-15 z"
         id="path8689" />
      <path
         d="m 8950,2666 c 0,-20 5,-26 21,-26 15,0 20,5 17,22 -5,34 -38,37 -38,4 z"
         id="path8691" />
      <path
         d="m 14430,2135 c 0,-8 7,-15 15,-15 8,0 15,7 15,15 0,8 -7,15 -15,15 -8,0 -15,-7 -15,-15 z"
         id="path8693" />
      <path
         d="m 14815,2112 c -33,-51 -47,-128 -35,-194 11,-58 52,-128 75,-128 10,0 6,15 -17,58 -27,52 -30,63 -26,133 4,60 10,86 32,123 21,36 24,46 12,46 -9,0 -27,-17 -41,-38 z"
         id="path8695" />
      <path
         d="m 15960,2142 c 0,-5 6,-15 14,-21 22,-18 46,-98 46,-152 0,-52 -22,-124 -47,-151 -9,-10 -13,-21 -10,-24 14,-15 39,9 62,58 36,76 35,166 -2,239 -16,30 -36,55 -45,57 -10,2 -18,-1 -18,-6 z"
         id="path8697" />
      <path
         d="m 18285,2112 c -33,-51 -47,-128 -35,-194 11,-58 52,-128 75,-128 10,0 6,15 -17,58 -27,52 -30,63 -26,133 4,60 10,86 32,123 21,36 24,46 12,46 -9,0 -27,-17 -41,-38 z"
         id="path8699" />
      <path
         d="m 19430,2142 c 0,-5 6,-15 14,-21 22,-18 46,-98 46,-152 0,-52 -22,-124 -47,-151 -9,-10 -13,-21 -10,-24 14,-15 39,9 62,58 36,76 35,166 -2,239 -16,30 -36,55 -45,57 -10,2 -18,-1 -18,-6 z"
         id="path8701" />
      <path
         d="m 13310,2050 c -33,-49 -60,-96 -60,-105 0,-12 13,-15 60,-15 h 60 v -30 c 0,-20 5,-30 15,-30 10,0 15,10 15,30 0,23 4,30 20,30 11,0 20,7 20,15 0,8 -9,15 -20,15 -19,0 -20,7 -20,90 0,73 -3,90 -15,90 -8,0 -42,-40 -75,-90 z m 60,-25 v -65 h -41 c -22,0 -39,3 -37,8 5,13 73,121 76,122 1,0 2,-29 2,-65 z"
         id="path8703" />
      <path
         d="m 13514,2128 c -32,-15 -44,-51 -44,-129 0,-65 2,-73 29,-100 78,-78 164,8 146,144 -12,82 -66,117 -131,85 z m 78,-35 c 24,-22 26,-138 2,-171 -21,-31 -64,-26 -82,8 -16,31 -11,142 7,164 17,21 50,20 73,-1 z"
         id="path8705" />
      <path
         d="m 13724,2128 c -32,-15 -44,-51 -44,-129 0,-65 2,-73 29,-100 78,-78 164,8 146,144 -12,82 -66,117 -131,85 z m 78,-35 c 24,-22 26,-138 2,-171 -21,-31 -64,-26 -82,8 -16,31 -11,142 7,164 17,21 50,20 73,-1 z"
         id="path8707" />
      <path
         d="m 13934,2128 c -32,-15 -44,-51 -44,-129 0,-65 2,-73 29,-100 78,-78 164,8 146,144 -12,82 -66,117 -131,85 z m 78,-35 c 24,-22 26,-138 2,-171 -21,-31 -64,-26 -82,8 -16,31 -11,142 7,164 17,21 50,20 73,-1 z"
         id="path8709" />
      <path
         d="m 15008,2119 c -16,-11 -28,-28 -28,-36 0,-14 3,-13 25,1 13,9 27,16 30,16 3,0 5,-45 5,-100 v -100 h -35 c -24,0 -35,-5 -35,-15 0,-12 16,-15 80,-15 64,0 80,3 80,15 0,10 -10,15 -30,15 h -30 v 120 c 0,108 -2,120 -17,120 -10,0 -30,-10 -45,-21 z"
         id="path8711" />
      <path
         d="m 15214,2128 c -32,-15 -44,-51 -44,-129 0,-65 2,-73 29,-100 78,-78 164,8 146,144 -12,82 -66,117 -131,85 z m 78,-35 c 24,-22 26,-138 2,-171 -21,-31 -64,-26 -82,8 -16,31 -11,142 7,164 17,21 50,20 73,-1 z"
         id="path8713" />
      <path
         d="m 15424,2128 c -32,-15 -44,-51 -44,-129 0,-65 2,-73 29,-100 78,-78 164,8 146,144 -12,82 -66,117 -131,85 z m 78,-35 c 24,-22 26,-138 2,-171 -21,-31 -64,-26 -82,8 -16,31 -11,142 7,164 17,21 50,20 73,-1 z"
         id="path8715" />
      <path
         d="m 16458,2119 c -16,-11 -28,-28 -28,-36 0,-14 3,-13 25,1 13,9 27,16 30,16 3,0 5,-45 5,-100 v -100 h -35 c -24,0 -35,-5 -35,-15 0,-12 16,-15 80,-15 64,0 80,3 80,15 0,10 -10,15 -30,15 h -30 v 120 c 0,108 -2,120 -17,120 -10,0 -30,-10 -45,-21 z"
         id="path8717" />
      <path
         d="m 16675,2129 c -31,-15 -46,-45 -52,-104 -13,-124 67,-197 143,-132 21,18 27,32 27,65 0,71 -54,107 -113,77 l -31,-16 7,28 c 14,58 58,80 95,47 28,-26 44,-6 18,22 -24,25 -59,30 -94,13 z m 69,-125 c 18,-18 21,-56 6,-85 -13,-23 -53,-25 -74,-3 -19,18 -21,75 -4,92 17,17 54,15 72,-4 z"
         id="path8719" />
      <path
         d="m 16874,2128 c -32,-15 -44,-51 -44,-129 0,-65 2,-73 29,-100 78,-78 164,8 146,144 -12,82 -66,117 -131,85 z m 78,-35 c 24,-22 26,-138 2,-171 -21,-31 -64,-26 -82,8 -16,31 -11,142 7,164 17,21 50,20 73,-1 z"
         id="path8721" />
      <path
         d="m 17084,2128 c -32,-15 -44,-51 -44,-129 0,-65 2,-73 29,-100 78,-78 164,8 146,144 -12,82 -66,117 -131,85 z m 78,-35 c 24,-22 26,-138 2,-171 -21,-31 -64,-26 -82,8 -16,31 -11,142 7,164 17,21 50,20 73,-1 z"
         id="path8723" />
      <path
         d="m 17294,2128 c -32,-15 -44,-51 -44,-129 0,-65 2,-73 29,-100 78,-78 164,8 146,144 -12,82 -66,117 -131,85 z m 78,-35 c 24,-22 26,-138 2,-171 -21,-31 -64,-26 -82,8 -16,31 -11,142 7,164 17,21 50,20 73,-1 z"
         id="path8725" />
      <path
         d="m 18478,2119 c -16,-11 -28,-28 -28,-36 0,-14 3,-13 25,1 13,9 27,16 30,16 3,0 5,-45 5,-100 v -100 h -35 c -24,0 -35,-5 -35,-15 0,-12 16,-15 80,-15 64,0 80,3 80,15 0,10 -10,15 -30,15 h -30 v 120 c 0,108 -2,120 -17,120 -10,0 -30,-10 -45,-21 z"
         id="path8727" />
      <path
         d="m 18684,2128 c -32,-15 -44,-51 -44,-129 0,-65 2,-73 29,-100 78,-78 164,8 146,144 -12,82 -66,117 -131,85 z m 78,-35 c 24,-22 26,-138 2,-171 -21,-31 -64,-26 -82,8 -16,31 -11,142 7,164 17,21 50,20 73,-1 z"
         id="path8729" />
      <path
         d="m 18894,2128 c -32,-15 -44,-51 -44,-129 0,-65 2,-73 29,-100 78,-78 164,8 146,144 -12,82 -66,117 -131,85 z m 78,-35 c 24,-22 26,-138 2,-171 -21,-31 -64,-26 -82,8 -16,31 -11,142 7,164 17,21 50,20 73,-1 z"
         id="path8731" />
      <path
         d="m 22480,2126 c 0,-7 -3,-34 -6,-60 l -7,-47 56,7 c 53,6 57,5 67,-17 8,-17 8,-33 1,-52 -9,-22 -17,-27 -46,-27 -22,0 -38,6 -41,15 -8,19 -34,20 -34,1 0,-22 40,-46 76,-46 43,0 73,27 80,72 5,31 2,41 -21,63 -23,23 -32,27 -67,22 -37,-5 -40,-4 -34,16 3,12 6,25 6,30 0,4 23,7 50,7 38,0 50,4 50,15 0,12 -14,15 -65,15 -48,0 -65,-4 -65,-14 z"
         id="path8733" />
      <path
         d="m 22691,2123 c -29,-24 -44,-91 -32,-145 17,-74 75,-99 126,-55 44,37 47,155 4,198 -24,24 -70,25 -98,2 z m 89,-43 c 14,-35 9,-113 -10,-135 -16,-19 -54,-19 -70,0 -15,18 -15,132 1,151 6,8 24,14 39,14 21,0 30,-7 40,-30 z"
         id="path8735" />
      <path
         d="m 16210,2050 v -40 h -41 c -52,0 -48,-24 4,-28 36,-3 37,-4 37,-43 0,-28 4,-39 15,-39 11,0 15,11 15,40 v 40 h 40 c 29,0 40,4 40,15 0,11 -11,15 -40,15 h -40 v 40 c 0,29 -4,40 -15,40 -11,0 -15,-11 -15,-40 z"
         id="path8737" />
      <path
         d="m 22980,2085 c 0,-3 9,-24 20,-46 l 21,-40 -40,-47 c -49,-56 -33,-72 17,-18 18,21 35,36 37,34 1,-2 10,-18 19,-35 9,-18 23,-33 31,-33 13,0 13,5 -1,38 -9,20 -18,42 -21,49 -3,7 12,33 32,58 45,55 24,64 -24,10 l -31,-36 -17,36 c -9,19 -23,35 -30,35 -7,0 -13,-2 -13,-5 z"
         id="path8739" />
      <path
         d="m 14252,2064 c -48,-33 -22,-77 61,-104 31,-10 38,-16 35,-33 -4,-28 -61,-36 -87,-13 -23,20 -46,7 -28,-17 30,-42 141,-28 153,20 9,33 -18,60 -75,76 -35,9 -46,18 -46,32 0,25 47,33 82,14 32,-17 43,-1 14,22 -28,23 -78,25 -109,3 z"
         id="path8741" />
      <path
         d="m 14430,1975 c 0,-87 3,-105 15,-105 12,0 15,18 15,105 0,87 -3,105 -15,105 -12,0 -15,-18 -15,-105 z"
         id="path8743" />
      <path
         d="m 14510,1975 c 0,-87 3,-105 15,-105 12,0 15,15 15,73 0,86 13,110 55,105 l 30,-3 3,-87 c 3,-80 5,-88 22,-88 18,0 20,7 20,85 0,72 -3,88 -20,105 -24,24 -57,26 -88,4 -20,-14 -22,-14 -22,0 0,9 -7,16 -15,16 -12,0 -15,-18 -15,-105 z"
         id="path8745" />
      <path
         d="m 15730,2075 c 0,-3 9,-23 20,-45 25,-49 25,-62 -1,-86 -12,-10 -30,-31 -41,-46 -18,-27 -18,-28 -1,-28 10,1 32,19 48,40 17,21 33,39 36,40 3,0 14,-18 24,-40 10,-22 24,-40 32,-40 18,0 17,12 -9,64 l -21,44 42,51 c 36,43 40,51 23,51 -11,0 -32,-16 -46,-35 -15,-19 -30,-35 -35,-35 -4,0 -15,16 -24,35 -9,19 -23,35 -32,35 -8,0 -15,-2 -15,-5 z"
         id="path8747" />
      <path
         d="m 17615,2055 c -21,-20 -25,-34 -25,-80 0,-46 4,-60 25,-80 14,-15 36,-25 53,-25 33,0 82,34 82,56 0,21 -28,17 -40,-6 -25,-46 -90,-8 -90,52 0,52 17,78 50,78 18,0 33,-6 36,-15 7,-16 44,-21 44,-6 0,18 -53,51 -82,51 -17,0 -39,-10 -53,-25 z"
         id="path8749" />
      <path
         d="m 17805,2055 c -21,-20 -25,-34 -25,-80 0,-46 4,-60 25,-80 32,-33 84,-33 122,-1 24,21 27,31 27,81 0,50 -3,60 -27,81 -38,32 -90,32 -122,-1 z m 105,-24 c 5,-11 10,-36 10,-56 0,-54 -15,-75 -54,-75 -25,0 -35,6 -44,25 -15,32 -15,65 -2,99 8,21 16,26 44,26 25,0 38,-6 46,-19 z"
         id="path8751" />
      <path
         d="m 18012,2064 c -48,-33 -22,-77 61,-104 31,-10 38,-16 35,-33 -4,-28 -61,-36 -87,-13 -23,20 -46,7 -28,-17 30,-42 141,-28 153,20 9,33 -18,60 -75,76 -35,9 -46,18 -46,32 0,25 47,33 82,14 32,-17 43,-1 14,22 -28,23 -78,25 -109,3 z"
         id="path8753" />
      <path
         d="m 19200,2075 c 0,-3 9,-23 20,-45 25,-49 25,-62 -1,-86 -12,-10 -30,-31 -41,-46 -18,-27 -18,-28 -1,-28 10,1 32,19 48,40 17,21 33,39 36,40 3,0 14,-18 24,-40 10,-22 24,-40 32,-40 18,0 17,12 -9,64 l -21,44 42,51 c 36,43 40,51 23,51 -11,0 -32,-16 -46,-35 -15,-19 -30,-35 -35,-35 -4,0 -15,16 -24,35 -9,19 -23,35 -32,35 -8,0 -15,-2 -15,-5 z"
         id="path8755" />
      <path
         d="m 22212,2018 c 3,-9 32,-14 86,-16 68,-2 82,0 82,13 0,12 -15,15 -86,15 -64,0 -85,-3 -82,-12 z"
         id="path8757" />
      <path
         d="m 2745,1991 c -3,-6 -15,-100 -27,-210 -12,-111 -24,-201 -27,-201 -3,0 -26,36 -51,80 -25,44 -52,80 -60,80 -25,0 -100,-38 -100,-51 0,-11 5,-10 67,7 20,5 27,-4 70,-90 39,-78 52,-96 70,-96 12,0 24,4 28,9 3,5 14,94 25,198 11,103 23,203 26,221 l 5,32 h 274 275 v -56 c 0,-40 3,-55 13,-52 7,3 13,29 15,71 l 3,67 h -300 c -179,0 -302,-4 -306,-9 z"
         id="path8759" />
      <path
         d="m 6125,1991 c -3,-6 -15,-100 -27,-210 -12,-111 -24,-201 -27,-201 -3,0 -26,36 -51,80 -25,44 -52,80 -60,80 -25,0 -100,-38 -100,-51 0,-11 5,-10 67,7 20,5 27,-4 70,-90 39,-78 52,-96 70,-96 12,0 24,4 28,9 3,5 14,94 25,198 11,103 23,203 26,221 l 5,32 h 274 275 v -56 c 0,-40 3,-55 13,-52 7,3 13,29 15,71 l 3,67 h -300 c -179,0 -302,-4 -306,-9 z"
         id="path8761" />
      <path
         d="m 8945,1991 c -3,-6 -15,-100 -27,-210 -12,-111 -24,-201 -27,-201 -3,0 -26,36 -51,80 -25,44 -52,80 -60,80 -25,0 -100,-38 -100,-51 0,-11 5,-10 67,7 20,5 27,-4 70,-90 39,-78 52,-96 70,-96 12,0 24,4 28,9 3,5 14,94 25,198 11,103 23,203 26,221 l 5,32 h 274 275 v -56 c 0,-40 3,-55 13,-52 7,3 13,29 15,71 l 3,67 h -300 c -179,0 -302,-4 -306,-9 z"
         id="path8763" />
      <path
         d="m 11265,1991 c -3,-6 -15,-100 -27,-210 -12,-111 -24,-201 -27,-201 -3,0 -26,36 -51,80 -25,44 -52,80 -60,80 -25,0 -100,-38 -100,-51 0,-11 5,-10 67,7 20,5 27,-4 70,-90 39,-78 52,-96 70,-96 12,0 24,4 28,9 3,5 14,94 25,198 11,103 23,203 26,221 l 5,32 h 274 275 v -56 c 0,-40 3,-55 13,-52 7,3 13,29 15,71 l 3,67 h -300 c -179,0 -302,-4 -306,-9 z"
         id="path8765" />
      <path
         d="m 1817,1842 c -58,-64 -76,-214 -36,-302 23,-51 46,-80 65,-80 8,0 1,22 -19,61 -28,54 -32,72 -32,139 0,67 4,85 32,139 20,39 27,61 19,61 -7,0 -20,-8 -29,-18 z"
         id="path8767" />
      <path
         d="m 3867,1709 c -15,-83 -26,-154 -23,-157 14,-13 34,11 40,46 5,33 20,52 40,52 1,0 13,-22 26,-50 16,-33 30,-50 42,-50 23,0 23,0 -13,71 l -30,61 53,49 c 46,42 50,48 30,49 -15,0 -43,-19 -78,-51 -59,-56 -60,-55 -39,41 19,84 18,90 -3,90 -14,0 -22,-24 -45,-151 z"
         id="path8769" />
      <path
         d="m 5197,1842 c -36,-40 -57,-106 -57,-182 0,-97 44,-200 86,-200 8,0 1,22 -19,61 -28,54 -32,72 -32,139 0,67 4,85 32,139 20,39 27,61 19,61 -7,0 -20,-8 -29,-18 z"
         id="path8771" />
      <path
         d="m 7120,1851 c 0,-5 5,-13 11,-17 6,-3 21,-27 32,-53 38,-86 23,-235 -30,-293 -19,-22 -9,-37 15,-22 35,22 65,94 70,168 5,80 -8,138 -41,187 -22,33 -57,51 -57,30 z"
         id="path8773" />
      <path
         d="m 9900,1840 c 0,-11 7,-20 15,-20 8,0 15,9 15,20 0,11 -7,20 -15,20 -8,0 -15,-9 -15,-20 z"
         id="path8775" />
      <path
         d="m 10337,1842 c -36,-40 -57,-106 -57,-182 0,-97 44,-200 86,-200 8,0 1,22 -19,61 -28,54 -32,72 -32,139 0,67 4,85 32,139 20,39 27,61 19,61 -7,0 -20,-8 -29,-18 z"
         id="path8777" />
      <path
         d="m 12260,1851 c 0,-5 5,-13 11,-17 6,-3 21,-27 32,-53 38,-86 23,-235 -30,-293 -19,-22 -9,-37 15,-22 35,22 65,94 70,168 5,80 -8,138 -41,187 -22,33 -57,51 -57,30 z"
         id="path8779" />
      <path
         d="m 12430,1851 c 0,-5 5,-13 11,-17 6,-3 21,-27 32,-53 38,-86 23,-235 -30,-293 -19,-22 -9,-37 15,-22 35,22 65,94 70,168 5,80 -8,138 -41,187 -22,33 -57,51 -57,30 z"
         id="path8781" />
      <path
         d="m 19750,1851 c 0,-5 5,-13 11,-17 6,-3 21,-27 32,-53 38,-86 23,-235 -30,-293 -19,-22 -9,-37 15,-22 35,22 65,94 70,168 5,80 -8,138 -41,187 -22,33 -57,51 -57,30 z"
         id="path8783" />
      <path
         d="m 20180,1804 c 0,-55 0,-55 -22,-40 -30,21 -71,20 -99,-3 -21,-17 -24,-27 -24,-96 0,-69 3,-79 24,-96 28,-23 69,-24 99,-3 20,14 22,14 22,0 0,-9 7,-16 15,-16 13,0 15,24 15,155 0,131 -2,155 -15,155 -12,0 -15,-13 -15,-56 z m -19,-71 c 18,-21 17,-116 0,-137 -19,-23 -68,-21 -81,3 -5,11 -10,41 -10,66 0,25 5,55 10,66 13,24 62,25 81,2 z"
         id="path8785" />
      <path
         d="m 20500,1705 c 0,-148 1,-155 20,-155 19,0 20,7 20,155 0,148 -1,155 -20,155 -19,0 -20,-7 -20,-155 z"
         id="path8787" />
      <path
         d="m 20707,1842 c -36,-40 -57,-106 -57,-182 0,-97 44,-200 86,-200 8,0 1,22 -19,61 -28,54 -32,72 -32,139 0,67 4,85 32,139 20,39 27,61 19,61 -7,0 -20,-8 -29,-18 z"
         id="path8789" />
      <path
         d="m 21100,1851 c 0,-5 5,-13 11,-17 6,-3 21,-27 32,-53 38,-86 23,-235 -30,-293 -19,-22 -9,-37 15,-22 35,22 65,94 70,168 5,80 -8,138 -41,187 -22,33 -57,51 -57,30 z"
         id="path8791" />
      <path
         d="m 1960,1765 c 0,-81 4,-86 54,-64 35,16 75,3 87,-28 26,-68 -50,-124 -101,-73 -20,20 -50,27 -50,12 0,-38 71,-71 125,-58 67,17 90,112 39,163 -23,23 -31,25 -76,20 -48,-6 -50,-5 -44,16 3,12 6,30 6,40 0,14 10,17 65,17 51,0 65,3 65,15 0,12 -16,15 -85,15 h -85 z"
         id="path8793" />
      <path
         d="m 2227,1829 c -45,-26 -63,-150 -33,-224 31,-73 124,-76 161,-5 17,33 22,116 11,167 -13,59 -87,92 -139,62 z m 89,-40 c 15,-17 19,-36 19,-94 0,-81 -18,-115 -61,-115 -37,0 -59,44 -59,115 0,100 52,148 101,94 z"
         id="path8795" />
      <path
         d="m 2893,1817 c -18,-12 -33,-30 -33,-40 0,-17 2,-17 30,3 l 30,21 v -110 -111 h -35 c -24,0 -35,-5 -35,-15 0,-12 17,-15 90,-15 73,0 90,3 90,15 0,10 -11,15 -35,15 h -35 v 130 c 0,146 -3,150 -67,107 z"
         id="path8797" />
      <path
         d="m 3099,1811 c -47,-47 -35,-128 22,-152 28,-11 43,-10 82,6 25,10 23,-35 -3,-63 -24,-26 -52,-28 -74,-7 -17,17 -46,20 -46,5 0,-22 41,-50 73,-50 66,0 107,57 107,150 0,60 -20,114 -48,129 -38,20 -82,13 -113,-18 z m 105,-23 c 45,-64 -20,-142 -76,-91 -10,9 -18,30 -18,46 0,60 63,90 94,45 z"
         id="path8799" />
      <path
         d="m 3522,1817 c -31,-33 -41,-111 -17,-137 45,-50 115,5 115,90 0,39 -4,52 -19,60 -31,16 -56,12 -79,-13 z m 66,-13 c 5,-9 6,-34 1,-57 -12,-71 -69,-87 -69,-20 0,66 45,117 68,77 z"
         id="path8801" />
      <path
         d="m 3645,1708 c -126,-151 -131,-158 -112,-158 12,0 247,271 247,285 0,24 -42,-15 -135,-127 z"
         id="path8803" />
      <path
         d="m 4129,1825 c -30,-16 -44,-44 -31,-57 6,-6 20,1 35,16 30,30 58,33 81,10 32,-32 11,-69 -69,-124 -63,-43 -105,-86 -105,-107 0,-10 26,-13 95,-13 78,0 95,3 95,15 0,12 -15,15 -72,15 l -73,1 36,32 c 20,17 56,45 79,61 50,34 74,83 60,120 -17,45 -78,60 -131,31 z"
         id="path8805" />
      <path
         d="m 5340,1765 c 0,-81 4,-86 54,-64 35,16 75,3 87,-28 26,-68 -50,-124 -101,-73 -20,20 -50,27 -50,12 0,-38 71,-71 125,-58 67,17 90,112 39,163 -23,23 -31,25 -76,20 -48,-6 -50,-5 -44,16 3,12 6,30 6,40 0,14 10,17 65,17 51,0 65,3 65,15 0,12 -16,15 -85,15 h -85 z"
         id="path8807" />
      <path
         d="m 5607,1829 c -45,-26 -63,-150 -33,-224 31,-73 124,-76 161,-5 17,33 22,116 11,167 -13,59 -87,92 -139,62 z m 89,-40 c 15,-17 19,-36 19,-94 0,-81 -18,-115 -61,-115 -37,0 -59,44 -59,115 0,100 52,148 101,94 z"
         id="path8809" />
      <path
         d="m 6273,1817 c -18,-12 -33,-30 -33,-40 0,-17 2,-17 30,3 l 30,21 v -110 -111 h -35 c -24,0 -35,-5 -35,-15 0,-12 17,-15 90,-15 73,0 90,3 90,15 0,10 -11,15 -35,15 h -35 v 130 c 0,146 -3,150 -67,107 z"
         id="path8811" />
      <path
         d="m 6479,1811 c -47,-47 -35,-128 22,-152 28,-11 43,-10 82,6 25,10 23,-35 -3,-63 -24,-26 -52,-28 -74,-7 -17,17 -46,20 -46,5 0,-22 41,-50 73,-50 66,0 107,57 107,150 0,60 -20,114 -48,129 -38,20 -82,13 -113,-18 z m 105,-23 c 45,-64 -20,-142 -76,-91 -10,9 -18,30 -18,46 0,60 63,90 94,45 z"
         id="path8813" />
      <path
         d="m 7653,1817 c -18,-12 -33,-30 -33,-40 0,-17 2,-17 30,3 l 30,21 v -110 -111 h -35 c -24,0 -35,-5 -35,-15 0,-12 17,-15 90,-15 73,0 90,3 90,15 0,10 -11,15 -35,15 h -35 v 130 c 0,146 -3,150 -67,107 z"
         id="path8815" />
      <path
         d="m 7853,1817 c -18,-12 -33,-30 -33,-40 0,-17 2,-17 30,3 l 30,21 v -110 -111 h -35 c -24,0 -35,-5 -35,-15 0,-12 17,-15 90,-15 73,0 90,3 90,15 0,10 -11,15 -35,15 h -35 v 130 c 0,146 -3,150 -67,107 z"
         id="path8817" />
      <path
         d="m 8030,1825 c 0,-12 15,-15 75,-15 41,0 75,-2 75,-5 0,-3 -11,-23 -24,-44 -35,-55 -56,-109 -65,-163 -7,-42 -6,-48 10,-48 13,0 19,11 24,43 9,54 32,110 67,168 46,76 43,79 -67,79 -78,0 -95,-3 -95,-15 z"
         id="path8819" />
      <path
         d="m 8390,1765 c 0,-81 4,-86 54,-64 35,16 75,3 87,-28 26,-68 -50,-124 -101,-73 -20,20 -50,27 -50,12 0,-38 71,-71 125,-58 67,17 90,112 39,163 -23,23 -31,25 -76,20 -48,-6 -50,-5 -44,16 3,12 6,30 6,40 0,14 10,17 65,17 51,0 65,3 65,15 0,12 -16,15 -85,15 h -85 z"
         id="path8821" />
      <path
         d="m 9093,1817 c -18,-12 -33,-30 -33,-40 0,-17 2,-17 30,3 l 30,21 v -110 -111 h -35 c -24,0 -35,-5 -35,-15 0,-12 17,-15 90,-15 73,0 90,3 90,15 0,10 -11,15 -35,15 h -35 v 130 c 0,146 -3,150 -67,107 z"
         id="path8823" />
      <path
         d="m 9299,1811 c -47,-47 -35,-128 22,-152 28,-11 43,-10 82,6 25,10 23,-35 -3,-63 -24,-26 -52,-28 -74,-7 -17,17 -46,20 -46,5 0,-22 41,-50 73,-50 66,0 107,57 107,150 0,60 -20,114 -48,129 -38,20 -82,13 -113,-18 z m 105,-23 c 45,-64 -20,-142 -76,-91 -10,9 -18,30 -18,46 0,60 63,90 94,45 z"
         id="path8825" />
      <path
         d="m 10480,1765 c 0,-81 4,-86 54,-64 35,16 75,3 87,-28 26,-68 -50,-124 -101,-73 -20,20 -50,27 -50,12 0,-38 71,-71 125,-58 67,17 90,112 39,163 -23,23 -31,25 -76,20 -48,-6 -50,-5 -44,16 3,12 6,30 6,40 0,14 10,17 65,17 51,0 65,3 65,15 0,12 -16,15 -85,15 h -85 z"
         id="path8827" />
      <path
         d="m 10747,1829 c -45,-26 -63,-150 -33,-224 31,-73 124,-76 161,-5 17,33 22,116 11,167 -13,59 -87,92 -139,62 z m 89,-40 c 15,-17 19,-36 19,-94 0,-81 -18,-115 -61,-115 -37,0 -59,44 -59,115 0,100 52,148 101,94 z"
         id="path8829" />
      <path
         d="m 11413,1817 c -18,-12 -33,-30 -33,-40 0,-17 2,-17 30,3 l 30,21 v -110 -111 h -35 c -24,0 -35,-5 -35,-15 0,-12 17,-15 90,-15 73,0 90,3 90,15 0,10 -11,15 -35,15 h -35 v 130 c 0,146 -3,150 -67,107 z"
         id="path8831" />
      <path
         d="m 11619,1811 c -47,-47 -35,-128 22,-152 28,-11 43,-10 82,6 25,10 23,-35 -3,-63 -24,-26 -52,-28 -74,-7 -17,17 -46,20 -46,5 0,-22 41,-50 73,-50 66,0 107,57 107,150 0,60 -20,114 -48,129 -38,20 -82,13 -113,-18 z m 105,-23 c 45,-64 -20,-142 -76,-91 -10,9 -18,30 -18,46 0,60 63,90 94,45 z"
         id="path8833" />
      <path
         d="m 21597,1822 c -22,-24 -23,-110 -1,-140 19,-28 57,-29 84,-2 25,25 27,105 4,138 -19,27 -64,29 -87,4 z m 61,-14 c 17,-17 15,-103 -3,-118 -12,-10 -18,-10 -30,0 -28,23 -16,130 15,130 3,0 11,-5 18,-12 z"
         id="path8835" />
      <path
         d="m 21738,1708 c -108,-170 -102,-158 -85,-158 8,0 55,62 103,137 103,158 100,153 81,153 -8,0 -53,-60 -99,-132 z"
         id="path8837" />
      <path
         d="m 21370,1755 v -45 h -40 c -29,0 -40,-4 -40,-15 0,-11 11,-15 40,-15 h 40 v -45 c 0,-33 4,-45 15,-45 11,0 15,12 15,45 v 45 h 45 c 33,0 45,4 45,15 0,11 -12,15 -45,15 h -45 v 45 c 0,33 -4,45 -15,45 -11,0 -15,-12 -15,-45 z"
         id="path8839" />
      <path
         d="m 4449,1751 c -25,-26 -29,-37 -29,-86 0,-49 4,-60 29,-86 44,-43 116,-35 140,17 9,20 8,24 -7,24 -9,0 -23,-9 -30,-20 -7,-11 -23,-20 -36,-20 -40,0 -56,25 -56,85 0,60 16,85 55,85 14,0 29,-9 35,-20 12,-22 40,-27 40,-7 0,18 -12,32 -37,46 -37,19 -73,13 -104,-18 z"
         id="path8841" />
      <path
         d="m 4660,1752 c -26,-27 -30,-37 -30,-87 0,-49 4,-60 29,-86 22,-21 39,-29 66,-29 27,0 44,8 66,29 26,26 29,37 29,89 0,77 -19,102 -82,109 -42,5 -50,3 -78,-25 z m 111,-18 c 16,-20 17,-102 0,-131 -8,-16 -21,-23 -41,-23 -44,0 -60,23 -60,85 0,35 5,59 16,69 20,21 68,20 85,0 z"
         id="path8843" />
      <path
         d="m 4893,1770 c -12,-5 -25,-20 -29,-34 -10,-40 11,-64 70,-81 56,-16 75,-37 55,-61 -16,-19 -74,-18 -93,2 -9,8 -24,14 -34,12 -14,-3 -13,-8 11,-32 25,-25 34,-28 77,-24 61,6 80,21 80,63 0,39 -9,47 -78,70 -45,14 -53,20 -50,38 4,29 61,36 88,12 20,-18 42,-12 34,9 -12,31 -84,45 -131,26 z"
         id="path8845" />
      <path
         d="m 6895,1730 c 14,-27 25,-53 25,-58 0,-4 -20,-32 -45,-61 -25,-29 -45,-55 -45,-57 0,-2 8,-4 18,-4 9,0 33,20 52,45 19,24 37,44 40,45 3,0 13,-20 23,-45 13,-31 25,-45 38,-45 24,0 24,1 -6,60 -14,27 -25,53 -25,57 0,5 21,32 46,61 42,48 44,52 22,52 -15,0 -32,-14 -51,-40 -16,-22 -32,-40 -37,-40 -4,0 -15,18 -24,40 -11,28 -22,40 -36,40 -20,0 -20,-1 5,-50 z"
         id="path8847" />
      <path
         d="m 9713,1770 c -12,-5 -25,-20 -29,-34 -10,-40 11,-64 70,-81 56,-16 75,-37 55,-61 -16,-19 -74,-18 -93,2 -9,8 -24,14 -34,12 -14,-3 -13,-8 11,-32 25,-25 34,-28 77,-24 61,6 80,21 80,63 0,39 -9,47 -78,70 -45,14 -53,20 -50,38 4,29 61,36 88,12 20,-18 42,-12 34,9 -12,31 -84,45 -131,26 z"
         id="path8849" />
      <path
         d="m 9900,1665 c 0,-96 3,-115 15,-115 12,0 15,19 15,115 0,96 -3,115 -15,115 -12,0 -15,-19 -15,-115 z"
         id="path8851" />
      <path
         d="m 9990,1665 c 0,-108 1,-115 20,-115 18,0 20,7 20,84 0,92 11,116 55,116 35,0 45,-28 45,-119 0,-65 3,-81 15,-81 12,0 15,18 15,98 0,83 -3,102 -18,115 -23,21 -62,22 -88,2 -25,-19 -34,-19 -34,0 0,8 -7,15 -15,15 -12,0 -15,-19 -15,-115 z"
         id="path8853" />
      <path
         d="m 12035,1730 c 14,-27 25,-53 25,-58 0,-4 -20,-32 -45,-61 -25,-29 -45,-55 -45,-57 0,-2 8,-4 18,-4 9,0 33,20 52,45 19,24 37,44 40,45 3,0 13,-20 23,-45 13,-31 25,-45 38,-45 24,0 24,1 -6,60 -14,27 -25,53 -25,57 0,5 21,32 46,61 42,48 44,52 22,52 -15,0 -32,-14 -51,-40 -16,-22 -32,-40 -37,-40 -4,0 -15,18 -24,40 -11,28 -22,40 -36,40 -20,0 -20,-1 5,-50 z"
         id="path8855" />
      <path
         d="m 20289,1751 c -25,-26 -29,-37 -29,-86 0,-49 4,-60 29,-86 21,-20 39,-29 63,-29 42,0 82,20 86,43 4,21 -21,23 -38,2 -30,-36 -100,-5 -100,43 0,21 5,22 75,22 h 75 v 31 c 0,45 -47,89 -95,89 -27,0 -44,-8 -66,-29 z m 109,-13 c 7,-7 12,-20 12,-30 0,-15 -9,-18 -55,-18 -41,0 -55,4 -55,14 0,38 70,62 98,34 z"
         id="path8857" />
      <path
         d="m 20875,1730 c 14,-27 25,-53 25,-58 0,-4 -20,-32 -45,-61 -25,-29 -45,-55 -45,-57 0,-2 8,-4 18,-4 9,0 33,20 52,45 19,24 37,44 40,45 3,0 13,-20 23,-45 13,-31 25,-45 38,-45 24,0 24,1 -6,60 -14,27 -25,53 -25,57 0,5 21,32 46,61 42,48 44,52 22,52 -15,0 -32,-14 -51,-40 -16,-22 -32,-40 -37,-40 -4,0 -15,18 -24,40 -11,28 -22,40 -36,40 -20,0 -20,-1 5,-50 z"
         id="path8859" />
      <path
         d="m 21979,1751 c -25,-26 -29,-37 -29,-86 0,-49 4,-60 29,-86 21,-20 39,-29 63,-29 42,0 82,20 86,43 4,21 -21,23 -38,2 -30,-36 -100,-5 -100,43 0,21 5,22 75,22 h 75 v 31 c 0,45 -47,89 -95,89 -27,0 -44,-8 -66,-29 z m 109,-13 c 7,-7 12,-20 12,-30 0,-15 -9,-18 -55,-18 -41,0 -55,4 -55,14 0,38 70,62 98,34 z"
         id="path8861" />
      <path
         d="m 3710,1715 c -31,-33 -40,-123 -15,-149 44,-44 115,17 115,100 0,72 -53,99 -100,49 z m 65,-59 c -1,-61 -20,-91 -52,-79 -23,9 -13,111 13,130 30,22 39,10 39,-51 z"
         id="path8863" />
      <path
         d="m 21810,1720 c -15,-15 -20,-33 -20,-75 0,-62 22,-95 65,-95 35,0 57,39 57,101 -1,81 -54,117 -102,69 z m 60,-16 c 19,-22 17,-101 -3,-121 -27,-27 -47,0 -47,61 0,67 23,94 50,60 z"
         id="path8865" />
      <path
         d="m 7310,1685 c 0,-12 18,-15 100,-15 82,0 100,3 100,15 0,12 -18,15 -100,15 -82,0 -100,-3 -100,-15 z"
         id="path8867" />
      <path
         d="m 12650,1685 c 0,-12 18,-15 100,-15 82,0 100,3 100,15 0,12 -18,15 -100,15 -82,0 -100,-3 -100,-15 z"
         id="path8869" />
      <path
         d="m 13057,1653 c -4,-3 -7,-10 -7,-15 0,-4 1497,-7 3327,-6 2650,2 3327,6 3331,16 3,9 -666,12 -3320,12 -1829,0 -3328,-3 -3331,-7 z"
         id="path8871" />
      <path
         d="m 8280,1576 c 0,-20 5,-26 21,-26 15,0 20,5 17,22 -5,34 -38,37 -38,4 z"
         id="path8873" />
      <path
         d="m 16238,1469 c -16,-11 -28,-28 -28,-36 0,-14 3,-13 25,1 13,9 27,16 30,16 3,0 5,-45 5,-100 v -100 h -35 c -24,0 -35,-5 -35,-15 0,-12 16,-15 80,-15 64,0 80,3 80,15 0,10 -10,15 -30,15 h -30 v 120 c 0,108 -2,120 -17,120 -10,0 -30,-10 -45,-21 z"
         id="path8875" />
      <path
         d="m 16400,1475 c 0,-12 14,-15 68,-15 h 68 l -39,-78 c -44,-89 -59,-162 -34,-162 11,0 19,17 27,56 7,31 27,86 46,121 19,36 34,72 34,79 0,11 -20,14 -85,14 -69,0 -85,-3 -85,-15 z"
         id="path8877" />
      <path
         d="m 3335,1051 c -3,-6 -15,-100 -27,-210 -12,-111 -24,-201 -27,-201 -3,0 -26,36 -51,80 -25,44 -52,80 -60,80 -25,0 -100,-38 -100,-51 0,-11 5,-10 67,7 20,5 27,-4 70,-90 39,-78 52,-96 70,-96 12,0 24,4 28,9 3,5 14,94 25,198 11,103 23,203 26,221 l 5,32 h 274 275 v -56 c 0,-40 3,-55 13,-52 7,3 13,29 15,71 l 3,67 h -300 c -179,0 -302,-4 -306,-9 z"
         id="path8879" />
      <path
         d="m 1970,900 c 0,-11 7,-20 15,-20 8,0 15,9 15,20 0,11 -7,20 -15,20 -8,0 -15,-9 -15,-20 z"
         id="path8881" />
      <path
         d="m 2407,902 c -58,-64 -76,-214 -36,-302 23,-51 46,-80 65,-80 8,0 1,22 -19,61 -28,54 -32,72 -32,139 0,67 4,85 32,139 20,39 27,61 19,61 -7,0 -20,-8 -29,-18 z"
         id="path8883" />
      <path
         d="m 4330,911 c 0,-5 5,-13 11,-17 6,-3 21,-27 32,-53 38,-86 23,-235 -30,-293 -19,-22 -9,-37 15,-22 35,22 65,94 70,168 5,80 -8,138 -41,187 -22,33 -57,51 -57,30 z"
         id="path8885" />
      <path
         d="m 4730,864 c 0,-55 0,-55 -22,-40 -30,21 -71,20 -99,-3 -21,-17 -24,-27 -24,-96 0,-69 3,-79 24,-96 28,-23 69,-24 99,-3 20,14 22,14 22,0 0,-9 7,-16 15,-16 13,0 15,24 15,155 0,131 -2,155 -15,155 -12,0 -15,-13 -15,-56 z m -19,-71 c 18,-21 17,-116 0,-137 -19,-23 -68,-21 -81,3 -5,11 -10,41 -10,66 0,25 5,55 10,66 13,24 62,25 81,2 z"
         id="path8887" />
      <path
         d="m 5050,765 c 0,-148 1,-155 20,-155 19,0 20,7 20,155 0,148 -1,155 -20,155 -19,0 -20,-7 -20,-155 z"
         id="path8889" />
      <path
         d="m 5257,902 c -36,-40 -57,-106 -57,-182 0,-97 44,-200 86,-200 8,0 1,22 -19,61 -28,54 -32,72 -32,139 0,67 4,85 32,139 20,39 27,61 19,61 -7,0 -20,-8 -29,-18 z"
         id="path8891" />
      <path
         d="m 5777,769 c -15,-83 -26,-154 -23,-157 14,-13 34,11 40,46 5,33 20,52 40,52 1,0 13,-22 26,-50 16,-33 30,-50 42,-50 23,0 23,0 -13,71 l -30,61 53,49 c 46,42 50,48 30,49 -15,0 -43,-19 -78,-51 -59,-56 -60,-55 -39,41 19,84 18,90 -3,90 -14,0 -22,-24 -45,-151 z"
         id="path8893" />
      <path
         d="m 6250,911 c 0,-5 5,-13 11,-17 6,-3 21,-27 32,-53 38,-86 23,-235 -30,-293 -19,-22 -9,-37 15,-22 35,22 65,94 70,168 5,80 -8,138 -41,187 -22,33 -57,51 -57,30 z"
         id="path8895" />
      <path
         d="m 2550,825 c 0,-81 4,-86 54,-64 35,16 75,3 87,-28 26,-68 -50,-124 -101,-73 -20,20 -50,27 -50,12 0,-38 71,-71 125,-58 67,17 90,112 39,163 -23,23 -31,25 -76,20 -48,-6 -50,-5 -44,16 3,12 6,30 6,40 0,14 10,17 65,17 51,0 65,3 65,15 0,12 -16,15 -85,15 h -85 z"
         id="path8897" />
      <path
         d="m 2817,889 c -45,-26 -63,-150 -33,-224 31,-73 124,-76 161,-5 17,33 22,116 11,167 -13,59 -87,92 -139,62 z m 89,-40 c 15,-17 19,-36 19,-94 0,-81 -18,-115 -61,-115 -37,0 -59,44 -59,115 0,100 52,148 101,94 z"
         id="path8899" />
      <path
         d="m 3483,877 c -18,-12 -33,-30 -33,-40 0,-17 2,-17 30,3 l 30,21 V 751 640 h -35 c -24,0 -35,-5 -35,-15 0,-12 17,-15 90,-15 73,0 90,3 90,15 0,10 -11,15 -35,15 h -35 v 130 c 0,146 -3,150 -67,107 z"
         id="path8901" />
      <path
         d="m 3689,871 c -47,-47 -35,-128 22,-152 28,-11 43,-10 82,6 25,10 23,-35 -3,-63 -24,-26 -52,-28 -74,-7 -17,17 -46,20 -46,5 0,-22 41,-50 73,-50 66,0 107,57 107,150 0,60 -20,114 -48,129 -38,20 -82,13 -113,-18 z m 105,-23 c 45,-64 -20,-142 -76,-91 -10,9 -18,30 -18,46 0,60 63,90 94,45 z"
         id="path8903" />
      <path
         d="m 5432,877 c -31,-33 -41,-111 -17,-137 45,-50 115,5 115,90 0,39 -4,52 -19,60 -31,16 -56,12 -79,-13 z m 66,-13 c 5,-9 6,-34 1,-57 -12,-71 -69,-87 -69,-20 0,66 45,117 68,77 z"
         id="path8905" />
      <path
         d="M 5555,768 C 5429,617 5424,610 5443,610 c 12,0 247,271 247,285 0,24 -42,-15 -135,-127 z"
         id="path8907" />
      <path
         d="m 6039,885 c -30,-16 -44,-44 -31,-57 6,-6 20,1 35,16 30,30 58,33 81,10 32,-32 11,-69 -69,-124 -63,-43 -105,-86 -105,-107 0,-10 26,-13 95,-13 78,0 95,3 95,15 0,12 -15,15 -72,15 l -73,1 36,32 c 20,17 56,45 79,61 50,34 74,83 60,120 -17,45 -78,60 -131,31 z"
         id="path8909" />
      <path
         d="m 1783,830 c -12,-5 -25,-20 -29,-34 -10,-40 11,-64 70,-81 56,-16 75,-37 55,-61 -16,-19 -74,-18 -93,2 -9,8 -24,14 -34,12 -14,-3 -13,-8 11,-32 25,-25 34,-28 77,-24 61,6 80,21 80,63 0,39 -9,47 -78,70 -45,14 -53,20 -50,38 4,29 61,36 88,12 20,-18 42,-12 34,9 -12,31 -84,45 -131,26 z"
         id="path8911" />
      <path
         d="m 1970,725 c 0,-96 3,-115 15,-115 12,0 15,19 15,115 0,96 -3,115 -15,115 -12,0 -15,-19 -15,-115 z"
         id="path8913" />
      <path
         d="m 2060,725 c 0,-108 1,-115 20,-115 18,0 20,7 20,84 0,92 11,116 55,116 35,0 45,-28 45,-119 0,-65 3,-81 15,-81 12,0 15,18 15,98 0,83 -3,102 -18,115 -23,21 -62,22 -88,2 -25,-19 -34,-19 -34,0 0,8 -7,15 -15,15 -12,0 -15,-19 -15,-115 z"
         id="path8915" />
      <path
         d="m 4105,790 c 14,-27 25,-53 25,-58 0,-4 -20,-32 -45,-61 -25,-29 -45,-55 -45,-57 0,-2 8,-4 18,-4 9,0 33,20 52,45 19,24 37,44 40,45 3,0 13,-20 23,-45 13,-31 25,-45 38,-45 24,0 24,1 -6,60 -14,27 -25,53 -25,57 0,5 21,32 46,61 42,48 44,52 22,52 -15,0 -32,-14 -51,-40 -16,-22 -32,-40 -37,-40 -4,0 -15,18 -24,40 -11,28 -22,40 -36,40 -20,0 -20,-1 5,-50 z"
         id="path8917" />
      <path
         d="m 4839,811 c -25,-26 -29,-37 -29,-86 0,-49 4,-60 29,-86 21,-20 39,-29 63,-29 42,0 82,20 86,43 4,21 -21,23 -38,2 -30,-36 -100,-5 -100,43 0,21 5,22 75,22 h 75 v 31 c 0,20 -10,40 -29,60 -41,40 -91,40 -132,0 z m 109,-13 c 7,-7 12,-20 12,-30 0,-15 -9,-18 -55,-18 -41,0 -55,4 -55,14 0,38 70,62 98,34 z"
         id="path8919" />
      <path
         d="m 5620,775 c -31,-33 -40,-123 -15,-149 44,-44 115,17 115,100 0,72 -53,99 -100,49 z m 65,-59 c -1,-61 -20,-91 -52,-79 -23,9 -13,111 13,130 30,22 39,10 39,-51 z"
         id="path8921" />
    </g>
    <rect
       style="opacity:0.15;fill:#ff0000;stroke-width:0.378169"
       id="rect3697-3"
       width="143.39749"
       height="42.025082"
       x="20.830456"
       y="121.14368" />
  </g>
</svg>
