<?xml version="1.0" encoding="UTF-8" standalone="no"?>
<svg
   version="1.0"
   width="2350pt"
   height="624pt"
   viewBox="0 0 2350 624"
   preserveAspectRatio="xMidYMid meet"
   id="svg380"
   sodipodi:docname="bessel_at_point2oo.svg"
   inkscape:version="1.1.1 (3bf5ae0d25, 2021-09-20)"
   xmlns:inkscape="http://www.inkscape.org/namespaces/inkscape"
   xmlns:sodipodi="http://sodipodi.sourceforge.net/DTD/sodipodi-0.dtd"
   xmlns="http://www.w3.org/2000/svg"
   xmlns:svg="http://www.w3.org/2000/svg">
  <defs
     id="defs384" />
  <sodipodi:namedview
     id="namedview382"
     pagecolor="#ffffff"
     bordercolor="#666666"
     borderopacity="1.0"
     inkscape:pageshadow="2"
     inkscape:pageopacity="0.0"
     inkscape:pagecheckerboard="0"
     inkscape:document-units="pt"
     showgrid="false"
     inkscape:zoom="0.43"
     inkscape:cx="486.04651"
     inkscape:cy="417.44186"
     inkscape:current-layer="svg380" />
  <g
     transform="matrix(0.1,0,0,-0.1,0,624)"
     fill="#000000"
     stroke="none"
     id="g378">
    <path
       d="m 1920,5961 v -148 l 75,-1 c 68,-1 76,1 95,25 15,19 20,40 20,83 0,75 -25,110 -79,110 -20,0 -42,-5 -49,-12 -9,-9 -12,0 -12,40 0,49 -2,52 -25,52 h -25 z m 138,9 c 14,-28 10,-93 -8,-115 -33,-40 -80,-4 -80,62 0,77 57,111 88,53 z"
       id="path2" />
    <path
       d="m 3190,6095 c 0,-10 10,-15 30,-15 h 30 v -129 c 0,-144 -2,-141 76,-141 57,0 63,27 7,32 l -38,3 -3,133 -3,132 h -49 c -38,0 -50,-4 -50,-15 z"
       id="path4" />
    <path
       d="m 3760,6090 c 0,-15 7,-20 25,-20 18,0 25,5 25,20 0,15 -7,20 -25,20 -18,0 -25,-5 -25,-20 z"
       id="path6" />
    <path
       d="m 3995,6067 c -51,-88 -51,-206 0,-293 19,-33 32,-44 51,-44 h 24 l -32,58 c -29,50 -33,66 -33,132 0,66 4,82 33,133 l 32,57 h -24 c -19,0 -31,-11 -51,-43 z"
       id="path8" />
    <path
       d="m 4960,6105 c 0,-3 11,-22 25,-43 35,-54 49,-130 35,-194 -6,-29 -22,-70 -35,-90 -31,-46 -31,-48 -1,-48 20,0 30,12 55,62 25,50 31,73 31,128 0,55 -6,78 -31,128 -25,50 -35,62 -55,62 -13,0 -24,-2 -24,-5 z"
       id="path10" />
    <path
       d="m 4250,6066 c -6,-8 -27,-20 -46,-26 -19,-6 -34,-18 -34,-26 0,-19 40,-18 68,2 l 22,15 v -95 -96 h -45 c -33,0 -45,-4 -45,-15 0,-12 18,-15 100,-15 82,0 100,3 100,15 0,10 -11,15 -35,15 h -35 v 120 c 0,111 -1,120 -19,120 -10,0 -24,-7 -31,-14 z"
       id="path12" />
    <path
       d="m 4750,6066 c -6,-8 -27,-20 -46,-26 -19,-6 -34,-18 -34,-26 0,-19 40,-18 68,2 l 22,15 v -95 -96 h -45 c -33,0 -45,-4 -45,-15 0,-12 18,-15 100,-15 82,0 100,3 100,15 0,10 -11,15 -35,15 h -35 v 120 c 0,111 -1,120 -19,120 -10,0 -24,-7 -31,-14 z"
       id="path14" />
    <path
       d="m 395,6002 c -28,-44 -30,-54 -30,-142 0,-88 2,-98 30,-142 21,-34 37,-48 52,-48 22,0 21,1 -10,52 -30,47 -32,58 -32,138 0,80 2,91 32,138 31,51 32,52 10,52 -15,0 -31,-14 -52,-48 z"
       id="path16" />
    <path
       d="m 900,6030 c 0,-13 7,-20 20,-20 13,0 20,7 20,20 0,13 -7,20 -20,20 -13,0 -20,-7 -20,-20 z"
       id="path18" />
    <path
       d="m 1642,5990 c 27,-51 32,-73 32,-130 0,-57 -5,-79 -31,-129 -29,-56 -30,-61 -12,-61 22,0 61,56 79,114 20,62 8,158 -27,214 -17,29 -37,48 -50,50 -21,3 -21,1 9,-58 z"
       id="path20" />
    <path
       d="m 2195,6006 c -45,-45 -41,-147 8,-181 34,-24 101,-19 134,9 24,21 26,25 11,31 -10,4 -27,0 -40,-9 -32,-22 -64,-20 -82,6 -29,42 -22,48 59,48 74,0 75,0 75,25 0,33 -25,81 -45,89 -39,14 -96,6 -120,-18 z m 109,-28 c 24,-34 20,-38 -39,-38 -59,0 -68,10 -38,42 22,25 59,23 77,-4 z"
       id="path22" />
    <path
       d="m 2452,6014 c -25,-17 -30,-65 -8,-83 7,-6 37,-18 65,-27 38,-11 51,-20 51,-33 0,-32 -67,-44 -90,-16 -14,17 -50,20 -50,5 0,-5 9,-19 20,-30 15,-15 33,-20 74,-20 47,0 57,4 75,26 12,15 21,33 21,40 0,24 -38,53 -86,65 -25,7 -48,18 -51,26 -12,31 53,45 81,18 19,-19 46,-19 46,-1 0,24 -41,46 -85,46 -22,0 -51,-7 -63,-16 z"
       id="path24" />
    <path
       d="m 2702,6014 c -25,-17 -30,-65 -8,-83 7,-6 37,-18 65,-27 38,-11 51,-20 51,-33 0,-32 -67,-44 -90,-16 -14,17 -50,20 -50,5 0,-5 9,-19 20,-30 15,-15 33,-20 74,-20 47,0 57,4 75,26 12,15 21,33 21,40 0,24 -38,53 -86,65 -25,7 -48,18 -51,26 -12,31 53,45 81,18 19,-19 46,-19 46,-1 0,24 -41,46 -85,46 -22,0 -51,-7 -63,-16 z"
       id="path26" />
    <path
       d="m 2945,6006 c -45,-45 -41,-147 8,-181 34,-24 101,-19 134,9 24,21 26,25 11,31 -10,4 -27,0 -40,-9 -32,-22 -64,-20 -82,6 -29,42 -22,48 59,48 74,0 75,0 75,25 0,33 -25,81 -45,89 -39,14 -96,6 -120,-18 z m 109,-28 c 24,-34 20,-38 -39,-38 -59,0 -68,10 -38,42 22,25 59,23 77,-4 z"
       id="path28" />
    <path
       d="m 3690,6015 c 0,-11 11,-15 40,-15 h 40 v -104 c 0,-97 -2,-106 -22,-120 -15,-11 -33,-14 -55,-10 -29,5 -33,4 -33,-15 0,-19 6,-21 53,-21 43,0 58,5 75,23 20,21 22,34 22,150 v 127 h -60 c -47,0 -60,-3 -60,-15 z"
       id="path30" />
    <path
       d="m 5240,6000 c 0,-25 4,-30 25,-30 21,0 25,5 25,30 0,25 -4,30 -25,30 -21,0 -25,-5 -25,-30 z"
       id="path32" />
    <path
       d="m 550,6001 c -15,-29 -12,-87 5,-101 24,-20 67,-15 87,10 22,27 23,58 2,88 -20,29 -79,31 -94,3 z m 68,-41 c 4,-40 -11,-59 -33,-40 -18,15 -20,51 -3,68 19,19 33,9 36,-28 z"
       id="path34" />
    <path
       d="m 728,6003 c -23,-27 -168,-240 -168,-247 0,-3 6,-6 14,-6 10,0 149,188 190,258 11,19 -19,15 -36,-5 z"
       id="path36" />
    <path
       d="m 1150,6006 c -6,-8 -27,-20 -46,-26 -35,-12 -47,-40 -16,-40 9,0 29,7 45,14 l 27,15 v -95 -94 h -45 c -33,0 -45,-4 -45,-15 0,-12 18,-15 100,-15 82,0 100,3 100,15 0,10 -11,15 -35,15 h -35 v 120 c 0,111 -1,120 -19,120 -10,0 -24,-7 -31,-14 z"
       id="path38" />
    <path
       d="m 1320,6005 c 0,-12 14,-15 70,-15 39,0 70,-2 70,-5 0,-2 -14,-26 -30,-52 -30,-47 -60,-129 -60,-165 0,-11 7,-18 20,-18 11,0 20,7 20,15 0,30 40,135 70,184 17,26 30,53 30,60 0,7 -31,11 -95,11 -78,0 -95,-3 -95,-15 z"
       id="path40" />
    <path
       d="m 840,5955 c 0,-10 10,-15 30,-15 h 30 v -80 -80 h -40 c -29,0 -40,-4 -40,-15 0,-12 18,-15 100,-15 82,0 100,3 100,15 0,11 -11,15 -40,15 h -40 v 95 95 h -50 c -38,0 -50,-4 -50,-15 z"
       id="path42" />
    <path
       d="m 680,5861 c -15,-29 -12,-77 6,-95 23,-24 70,-20 88,6 20,29 20,72 0,92 -22,23 -81,21 -94,-3 z m 65,-46 c 0,-45 -20,-57 -36,-22 -8,18 -8,30 1,46 17,32 35,20 35,-24 z"
       id="path44" />
    <path
       d="m 5226,5815 c -20,-78 -19,-75 -1,-75 10,0 27,26 45,66 17,36 30,68 30,70 0,2 -13,4 -29,4 -27,0 -30,-4 -45,-65 z"
       id="path46" />
    <path
       d="m 4456,5812 c -20,-71 -20,-72 -1,-72 12,0 75,105 75,125 0,3 -13,5 -29,5 -26,0 -30,-5 -45,-58 z"
       id="path48" />
    <path
       d="m 3385,5780 c -4,-6 40,-10 124,-10 81,0 131,4 131,10 0,6 -48,10 -124,10 -73,0 -127,-4 -131,-10 z"
       id="path50" />
    <path
       d="m 397,5292 c -62,-68 -62,-226 0,-294 9,-10 22,-18 30,-18 10,0 6,13 -14,47 -38,66 -39,158 -1,231 28,53 19,72 -15,34 z"
       id="path52" />
    <path
       d="m 1428,5263 c 22,-39 27,-61 27,-118 0,-57 -5,-79 -27,-117 -24,-44 -25,-48 -8,-48 31,0 70,92 70,165 0,73 -39,165 -70,165 -17,0 -16,-4 8,-47 z"
       id="path54" />
    <path
       d="m 3567,5273 c -88,-93 -90,-257 -4,-350 21,-24 57,-31 57,-12 0,6 -11,24 -25,41 -35,41 -58,128 -50,181 8,45 27,88 56,126 18,22 18,41 0,41 -4,0 -19,-12 -34,-27 z"
       id="path56" />
    <path
       d="m 4515,5289 c -4,-6 2,-20 13,-32 40,-44 56,-90 56,-157 0,-64 -14,-103 -60,-167 -15,-21 -15,-23 1,-30 13,-4 25,2 42,23 84,106 88,248 7,343 -27,32 -48,39 -59,20 z"
       id="path58" />
    <path
       d="m 1890,5274 c -11,-13 -10,-16 8,-21 21,-5 22,-10 22,-144 v -138 l 44,-6 c 98,-15 147,21 154,113 3,47 0,62 -18,85 -23,29 -73,37 -111,17 -18,-10 -19,-7 -19,50 v 60 h -34 c -18,0 -39,-7 -46,-16 z m 164,-140 c 9,-9 16,-32 16,-55 0,-49 -29,-82 -68,-77 -26,3 -27,6 -30,63 -3,47 0,62 14,72 24,17 49,16 68,-3 z"
       id="path60" />
    <path
       d="m 2970,5274 c -11,-13 -10,-16 8,-21 21,-5 22,-11 22,-128 0,-115 -1,-124 -20,-130 -40,-13 -18,-25 45,-25 51,0 65,3 65,15 0,8 -9,15 -20,15 -19,0 -20,7 -20,145 v 145 h -34 c -18,0 -39,-7 -46,-16 z"
       id="path62" />
    <path
       d="m 3334,5275 c -10,-25 4,-47 28,-43 17,2 24,11 26,31 3,23 0,27 -23,27 -14,0 -28,-7 -31,-15 z"
       id="path64" />
    <path
       d="m 512,5268 c -17,-17 -15,-73 2,-87 8,-7 27,-11 43,-9 59,7 55,108 -5,108 -15,0 -33,-5 -40,-12 z m 56,-40 c -2,-21 -8,-33 -18,-33 -10,0 -16,12 -18,33 -3,27 0,32 18,32 18,0 21,-5 18,-32 z"
       id="path66" />
    <path
       d="m 596,5171 c -42,-60 -76,-112 -76,-115 0,-20 24,3 66,62 26,37 63,88 81,115 24,32 30,47 20,47 -8,0 -48,-49 -91,-109 z"
       id="path68" />
    <path
       d="m 1011,5266 c -7,-8 -26,-18 -42,-21 -17,-4 -28,-12 -26,-18 4,-14 46,-10 65,5 9,8 12,-7 12,-71 v -81 h -35 c -24,0 -35,-5 -35,-15 0,-12 16,-15 86,-15 64,0 85,3 82,13 -3,6 -17,13 -31,15 l -27,3 v 100 c 0,90 -2,99 -19,99 -10,0 -24,-6 -30,-14 z"
       id="path70" />
    <path
       d="m 1160,5265 c 0,-12 13,-15 60,-15 h 60 l -24,-37 c -46,-70 -70,-163 -42,-163 15,0 26,21 26,50 0,11 18,53 40,95 22,42 40,78 40,80 0,3 -36,5 -80,5 -64,0 -80,-3 -80,-15 z"
       id="path72" />
    <path
       d="m 3783,5242 c -50,-19 -57,-42 -13,-42 h 31 l -3,-97 c -3,-94 -4,-97 -27,-103 -14,-3 -26,-11 -29,-18 -3,-9 18,-12 77,-12 63,0 81,3 81,14 0,8 -11,17 -25,20 -25,6 -25,6 -25,131 0,138 3,133 -67,107 z"
       id="path74" />
    <path
       d="m 4273,5242 c -50,-19 -57,-42 -13,-42 h 31 l -3,-97 c -3,-94 -4,-97 -27,-103 -14,-3 -26,-11 -29,-18 -3,-9 18,-12 77,-12 63,0 81,3 81,14 0,8 -11,17 -25,20 -25,6 -25,6 -25,131 0,138 3,133 -67,107 z"
       id="path76" />
    <path
       d="m 763,5225 c -25,-17 -39,-71 -29,-110 16,-65 94,-88 141,-40 19,18 25,35 25,70 0,35 -6,52 -25,70 -28,29 -79,33 -112,10 z m 82,-19 c 26,-19 26,-103 0,-122 -20,-15 -55,-9 -67,10 -4,6 -8,29 -8,51 0,44 7,59 30,68 23,8 25,8 45,-7 z"
       id="path78" />
    <path
       d="m 2186,5160 c -50,-60 -42,-156 14,-185 38,-19 90,-19 118,1 35,24 26,34 -27,32 -37,-2 -55,3 -70,16 -39,35 -27,46 49,46 h 70 v 38 c 0,52 -32,82 -87,82 -34,0 -46,-6 -67,-30 z m 85,-10 c 10,-6 19,-20 19,-30 0,-17 -7,-20 -45,-20 -38,0 -43,3 -38,18 5,15 31,42 41,42 2,0 12,-5 23,-10 z"
       id="path80" />
    <path
       d="m 2402,5174 c -18,-12 -22,-24 -20,-52 3,-33 8,-40 51,-61 57,-28 66,-61 17,-61 -24,0 -33,6 -40,26 -13,33 -34,26 -38,-11 -5,-36 19,-55 69,-55 48,0 89,32 89,70 0,31 -27,58 -80,80 -19,8 -30,19 -28,29 5,25 45,26 60,2 7,-12 18,-21 24,-21 16,0 23,34 12,54 -12,21 -86,22 -116,0 z"
       id="path82" />
    <path
       d="m 2602,5174 c -18,-12 -22,-24 -20,-52 3,-33 8,-40 51,-61 57,-28 66,-61 17,-61 -24,0 -33,6 -40,26 -13,33 -34,26 -38,-11 -5,-36 19,-55 69,-55 48,0 89,32 89,70 0,31 -27,58 -80,80 -19,8 -30,19 -28,29 5,25 45,26 60,2 7,-12 18,-21 24,-21 16,0 23,34 12,54 -12,21 -86,22 -116,0 z"
       id="path84" />
    <path
       d="m 2796,5160 c -50,-60 -42,-156 14,-185 38,-19 90,-19 118,1 35,24 26,34 -27,32 -37,-2 -55,3 -70,16 -39,35 -27,46 49,46 h 70 v 38 c 0,52 -32,82 -87,82 -34,0 -46,-6 -67,-30 z m 85,-10 c 10,-6 19,-20 19,-30 0,-17 -7,-20 -45,-20 -38,0 -43,3 -38,18 5,15 31,42 41,42 2,0 12,-5 23,-10 z"
       id="path86" />
    <path
       d="m 3311,5181 c -16,-10 -6,-31 15,-31 11,0 14,-20 14,-100 0,-87 -3,-103 -20,-120 -11,-11 -24,-20 -30,-20 -5,0 -10,-7 -10,-15 0,-23 45,-18 77,9 28,24 28,26 31,155 l 4,131 h -34 c -18,0 -39,-4 -47,-9 z"
       id="path88" />
    <path
       d="m 626,5148 c -9,-12 -16,-29 -16,-38 0,-45 59,-77 88,-48 16,16 16,80 0,96 -19,19 -55,14 -72,-10 z m 58,-22 c 8,-32 -3,-58 -23,-54 -17,3 -27,39 -17,64 9,22 33,16 40,-10 z"
       id="path90" />
    <path
       d="m 4054,5014 c -6,-3 -9,-15 -7,-28 3,-13 -2,-37 -11,-54 -20,-39 -20,-42 3,-42 26,0 63,62 59,97 -3,27 -20,37 -44,27 z"
       id="path92" />
    <path
       d="m 3090,4935 c 0,-12 18,-15 105,-15 87,0 105,3 105,15 0,12 -18,15 -105,15 -87,0 -105,-3 -105,-15 z"
       id="path94" />
    <path
       d="m 1987,4452 c -10,-10 -17,-28 -17,-40 0,-18 -6,-22 -30,-22 -20,0 -30,-5 -30,-15 0,-10 10,-15 30,-15 h 30 v -95 c 0,-88 1,-95 20,-95 19,0 20,7 20,95 v 95 h 50 c 38,0 50,4 50,15 0,11 -12,15 -51,15 -43,0 -50,3 -47,18 2,13 15,18 51,20 39,3 47,6 47,23 0,16 -7,19 -53,19 -40,0 -58,-5 -70,-18 z"
       id="path96" />
    <path
       d="m 2190,4455 c 0,-10 10,-15 30,-15 h 30 v -129 c 0,-144 -2,-141 76,-141 57,0 63,27 7,32 l -38,3 -3,133 -3,132 h -49 c -38,0 -50,-4 -50,-15 z"
       id="path98" />
    <path
       d="m 3245,4427 c -51,-88 -51,-206 0,-293 19,-33 32,-44 51,-44 h 24 l -32,58 c -29,50 -33,66 -33,132 0,66 4,82 33,133 l 32,57 h -24 c -19,0 -31,-11 -51,-43 z"
       id="path100" />
    <path
       d="m 3710,4465 c 0,-3 11,-22 25,-43 13,-20 29,-61 35,-89 14,-65 0,-141 -35,-195 -31,-46 -31,-48 -1,-48 20,0 30,12 55,62 25,50 31,73 31,128 0,55 -6,78 -31,128 -25,50 -35,62 -55,62 -13,0 -24,-2 -24,-5 z"
       id="path102" />
    <path
       d="m 2964,4415 c -4,-16 -13,-25 -25,-25 -10,0 -19,-7 -19,-15 0,-8 9,-15 20,-15 18,0 20,-7 20,-84 0,-100 7,-108 82,-104 42,2 54,7 56,22 4,16 0,18 -33,12 -54,-10 -65,4 -65,85 v 69 h 45 c 33,0 45,4 45,15 0,11 -12,15 -45,15 -41,0 -45,2 -45,25 0,15 -6,25 -15,25 -8,0 -17,-11 -21,-25 z"
       id="path104" />
    <path
       d="m 3400,4421 c -15,-29 -12,-87 6,-101 23,-20 75,-16 90,5 19,25 18,80 -2,99 -22,23 -81,21 -94,-3 z m 65,-46 c 0,-45 -20,-57 -36,-22 -8,18 -8,30 1,46 17,32 35,20 35,-24 z"
       id="path106" />
    <path
       d="m 3500,4314 c -96,-142 -97,-144 -76,-144 12,0 196,248 196,265 0,3 -8,5 -17,5 -12,-1 -49,-47 -103,-126 z"
       id="path108" />
    <path
       d="m 395,4362 c -28,-44 -30,-54 -30,-142 0,-88 2,-98 30,-142 21,-34 37,-48 52,-48 22,0 21,1 -10,52 -30,47 -32,58 -32,138 0,80 2,91 32,138 31,51 32,52 10,52 -15,0 -31,-14 -52,-48 z"
       id="path110" />
    <path
       d="m 900,4390 c 0,-13 7,-20 20,-20 13,0 20,7 20,20 0,13 -7,20 -20,20 -13,0 -20,-7 -20,-20 z"
       id="path112" />
    <path
       d="m 1642,4350 c 27,-51 32,-73 32,-130 0,-57 -5,-79 -31,-129 -29,-56 -30,-61 -12,-61 22,0 61,56 79,114 20,62 8,158 -27,214 -17,29 -37,48 -50,50 -21,3 -21,1 9,-58 z"
       id="path114" />
    <path
       d="m 2445,4366 c -30,-30 -40,-84 -25,-130 15,-47 44,-66 98,-66 64,0 92,34 92,112 0,49 -4,63 -25,83 -34,35 -106,35 -140,1 z m 105,-21 c 18,-22 22,-87 8,-115 -17,-31 -53,-37 -79,-14 -25,22 -26,99 -2,126 19,22 56,24 73,3 z"
       id="path116" />
    <path
       d="m 2690,4370 c -11,-11 -20,-24 -20,-30 0,-16 47,-12 54,5 7,18 47,20 64,3 24,-24 12,-35 -40,-40 -78,-8 -111,-61 -72,-116 17,-25 70,-30 106,-11 14,8 23,8 31,0 17,-17 67,-14 67,4 0,8 -6,15 -14,15 -18,0 -26,31 -26,101 0,70 -18,89 -83,89 -34,0 -53,-6 -67,-20 z m 110,-108 c 0,-59 -82,-86 -88,-29 -3,21 2,29 20,36 39,16 68,13 68,-7 z"
       id="path118" />
    <path
       d="m 3990,4360 c 0,-25 4,-30 25,-30 21,0 25,5 25,30 0,25 -4,30 -25,30 -21,0 -25,-5 -25,-30 z"
       id="path120" />
    <path
       d="m 550,4361 c -15,-29 -12,-87 5,-101 24,-20 67,-15 87,10 22,27 23,58 2,88 -20,29 -79,31 -94,3 z m 68,-41 c 4,-40 -11,-59 -33,-40 -18,15 -20,51 -3,68 19,19 33,9 36,-28 z"
       id="path122" />
    <path
       d="m 728,4363 c -23,-27 -168,-240 -168,-247 0,-3 6,-6 14,-6 10,0 149,188 190,258 11,19 -19,15 -36,-5 z"
       id="path124" />
    <path
       d="m 1150,4366 c -6,-8 -27,-20 -46,-26 -35,-12 -47,-40 -16,-40 9,0 29,7 45,14 l 27,15 v -95 -94 h -45 c -33,0 -45,-4 -45,-15 0,-12 18,-15 100,-15 82,0 100,3 100,15 0,10 -11,15 -35,15 h -35 v 120 c 0,111 -1,120 -19,120 -10,0 -24,-7 -31,-14 z"
       id="path126" />
    <path
       d="m 1346,4359 c -31,-25 -34,-59 -6,-84 18,-17 19,-20 5,-28 -26,-14 -38,-57 -25,-88 22,-53 122,-68 165,-24 30,30 33,77 6,104 -17,17 -18,21 -5,32 22,19 18,75 -8,93 -32,23 -100,20 -132,-5 z m 98,-15 c 23,-9 20,-51 -5,-64 -28,-16 -66,-5 -74,21 -12,38 31,61 79,43 z m 10,-120 c 34,-33 8,-84 -43,-84 -34,0 -51,17 -51,50 0,14 5,31 12,38 17,17 64,15 82,-4 z"
       id="path128" />
    <path
       d="m 840,4315 c 0,-10 10,-15 30,-15 h 30 v -80 -80 h -40 c -29,0 -40,-4 -40,-15 0,-12 18,-15 100,-15 82,0 100,3 100,15 0,11 -11,15 -40,15 h -40 v 95 95 h -50 c -38,0 -50,-4 -50,-15 z"
       id="path130" />
    <path
       d="m 3530,4281 c -15,-29 -12,-77 6,-95 8,-9 28,-16 44,-16 37,0 60,24 60,61 0,51 -16,69 -60,69 -29,0 -42,-5 -50,-19 z m 65,-47 c 0,-28 -4,-39 -15,-39 -16,0 -26,45 -16,72 11,28 31,7 31,-33 z"
       id="path132" />
    <path
       d="m 680,4221 c -15,-29 -12,-77 6,-95 23,-24 70,-20 88,6 20,29 20,72 0,92 -22,23 -81,21 -94,-3 z m 65,-46 c 0,-45 -20,-57 -36,-22 -8,18 -8,30 1,46 17,32 35,20 35,-24 z"
       id="path134" />
    <path
       d="m 3976,4175 c -20,-78 -19,-75 -1,-75 10,0 27,26 45,66 17,36 30,68 30,70 0,2 -13,4 -29,4 -27,0 -30,-4 -45,-65 z"
       id="path136" />
    <path
       d="m 397,3712 c -28,-31 -47,-90 -47,-147 0,-80 40,-165 77,-165 10,0 6,13 -14,47 -38,66 -39,158 -1,231 28,53 19,72 -15,34 z"
       id="path138" />
    <path
       d="m 1428,3683 c 22,-39 27,-61 27,-118 0,-57 -5,-79 -27,-117 -24,-44 -25,-48 -8,-48 31,0 70,92 70,165 0,73 -39,165 -70,165 -17,0 -16,-4 8,-47 z"
       id="path140" />
    <path
       d="m 512,3688 c -17,-17 -15,-73 2,-87 8,-7 27,-11 43,-9 59,7 55,108 -5,108 -15,0 -33,-5 -40,-12 z m 56,-40 c -2,-21 -8,-33 -18,-33 -10,0 -16,12 -18,33 -3,27 0,32 18,32 18,0 21,-5 18,-32 z"
       id="path142" />
    <path
       d="m 596,3591 c -42,-60 -76,-112 -76,-115 0,-20 24,3 66,62 26,37 63,88 81,115 24,32 30,47 20,47 -8,0 -48,-49 -91,-109 z"
       id="path144" />
    <path
       d="m 1011,3686 c -7,-8 -26,-18 -42,-21 -17,-4 -28,-12 -26,-18 4,-14 46,-10 65,5 9,8 12,-7 12,-71 v -81 h -35 c -24,0 -35,-5 -35,-15 0,-12 16,-15 86,-15 64,0 85,3 82,13 -3,6 -17,13 -31,15 l -27,3 v 100 c 0,90 -2,99 -19,99 -10,0 -24,-6 -30,-14 z"
       id="path146" />
    <path
       d="m 1182,3684 c -25,-17 -29,-56 -8,-73 13,-11 12,-15 -5,-32 -26,-26 -24,-55 6,-84 30,-31 82,-33 119,-4 32,25 35,71 6,92 -18,13 -19,16 -5,27 39,32 1,90 -60,90 -17,0 -41,-7 -53,-16 z m 84,-18 c 15,-12 17,-18 8,-33 -14,-22 -50,-29 -70,-13 -21,18 -17,39 9,50 30,12 31,12 53,-4 z m 14,-107 c 21,-38 -20,-76 -64,-59 -35,13 -37,66 -4,79 29,11 56,3 68,-20 z"
       id="path148" />
    <path
       d="m 1962,3664 c -36,-25 -54,-72 -54,-139 0,-74 20,-117 61,-135 60,-25 125,7 150,73 26,68 5,184 -37,206 -30,16 -94,13 -120,-5 z m 104,-59 c 36,-88 -4,-200 -65,-180 -29,9 -44,58 -39,124 5,69 19,91 60,91 24,0 32,-6 44,-35 z"
       id="path150" />
    <path
       d="m 2335,3586 c -79,-113 -78,-126 6,-126 h 59 v -40 c 0,-36 3,-40 25,-40 23,0 25,4 25,40 0,36 3,40 25,40 18,0 25,5 25,20 0,15 -7,20 -25,20 -25,0 -25,1 -25,90 0,89 0,90 -25,90 -19,0 -37,-19 -90,-94 z m 62,-83 c -3,-2 -19,-3 -36,-1 l -32,3 33,47 33,47 3,-45 c 2,-26 1,-48 -1,-51 z"
       id="path152" />
    <path
       d="m 2595,3586 c -79,-113 -78,-126 6,-126 h 59 v -40 c 0,-36 3,-40 25,-40 23,0 25,4 25,40 0,36 3,40 25,40 18,0 25,5 25,20 0,15 -7,20 -25,20 -25,0 -25,1 -25,90 0,89 0,90 -25,90 -19,0 -37,-19 -90,-94 z m 62,-83 c -3,-2 -19,-3 -36,-1 l -32,3 33,47 33,47 3,-45 c 2,-26 1,-48 -1,-51 z"
       id="path154" />
    <path
       d="m 2852,3664 c -36,-25 -54,-72 -54,-139 0,-74 20,-117 61,-135 60,-25 125,7 150,73 26,68 5,184 -37,206 -30,16 -94,13 -120,-5 z m 104,-59 c 36,-88 -4,-200 -65,-180 -29,9 -44,58 -39,124 5,69 19,91 60,91 24,0 32,-6 44,-35 z"
       id="path156" />
    <path
       d="m 3112,3664 c -36,-25 -54,-72 -54,-139 0,-74 20,-117 61,-135 60,-25 125,7 150,73 26,68 5,184 -37,206 -30,16 -94,13 -120,-5 z m 104,-59 c 36,-88 -4,-200 -65,-180 -29,9 -44,58 -39,124 5,69 19,91 60,91 24,0 32,-6 44,-35 z"
       id="path158" />
    <path
       d="m 3366,3664 c -3,-9 -6,-40 -6,-69 v -53 l 38,-7 c 46,-8 62,-21 62,-50 0,-32 -33,-57 -85,-62 -28,-4 -45,-11 -45,-19 0,-37 110,-26 152,16 53,53 31,143 -37,156 -30,5 -35,10 -35,35 0,28 1,29 55,29 48,0 55,2 55,20 0,18 -7,20 -74,20 -58,0 -75,-3 -80,-16 z"
       id="path160" />
    <path
       d="m 3632,3664 c -36,-25 -54,-72 -54,-139 0,-74 20,-117 61,-135 60,-25 125,7 150,73 26,68 5,184 -37,206 -30,16 -94,13 -120,-5 z m 104,-59 c 36,-88 -4,-200 -65,-180 -29,9 -44,58 -39,124 5,69 19,91 60,91 24,0 32,-6 44,-35 z"
       id="path162" />
    <path
       d="m 3886,3664 c -3,-9 -6,-40 -6,-69 v -53 l 38,-7 c 46,-8 62,-21 62,-50 0,-32 -33,-57 -85,-62 -28,-4 -45,-11 -45,-19 0,-37 110,-26 152,16 53,53 31,143 -37,156 -30,5 -35,10 -35,35 0,28 1,29 55,29 48,0 55,2 55,20 0,18 -7,20 -74,20 -58,0 -75,-3 -80,-16 z"
       id="path164" />
    <path
       d="m 4145,3655 c -30,-29 -32,-68 -5,-95 19,-19 19,-20 -5,-44 -40,-40 -32,-96 16,-121 38,-20 78,-19 116,5 52,31 55,100 5,131 -18,11 -18,13 5,35 50,50 16,114 -62,114 -35,0 -52,-6 -70,-25 z m 103,-41 c 2,-11 -5,-28 -16,-37 -16,-15 -20,-15 -40,-1 -22,15 -29,44 -15,58 4,4 21,6 38,4 21,-2 31,-9 33,-24 z m -12,-117 c 32,-28 26,-63 -11,-73 -53,-13 -85,38 -48,78 21,23 26,23 59,-5 z"
       id="path166" />
    <path
       d="m 4406,3664 c -3,-9 -6,-40 -6,-69 v -53 l 38,-7 c 46,-8 62,-21 62,-50 0,-32 -33,-57 -85,-62 -28,-4 -45,-11 -45,-19 0,-37 110,-26 152,16 53,53 31,143 -37,156 -30,5 -35,10 -35,35 0,28 1,29 55,29 48,0 55,2 55,20 0,18 -7,20 -74,20 -58,0 -75,-3 -80,-16 z"
       id="path168" />
    <path
       d="m 4640,3635 c 0,-51 25,-64 36,-20 6,22 11,25 55,25 h 48 l -39,-67 c -61,-107 -78,-200 -33,-191 11,2 20,20 28,53 12,51 52,138 87,188 34,48 20,57 -87,57 h -95 z"
       id="path170" />
    <path
       d="m 4935,3586 c -79,-113 -78,-126 6,-126 h 59 v -40 c 0,-36 3,-40 25,-40 23,0 25,4 25,40 0,36 3,40 25,40 18,0 25,5 25,20 0,15 -7,20 -25,20 -25,0 -25,1 -25,90 0,89 0,90 -25,90 -19,0 -37,-19 -90,-94 z m 62,-83 c -3,-2 -19,-3 -36,-1 l -32,3 33,47 33,47 3,-45 c 2,-26 1,-48 -1,-51 z"
       id="path172" />
    <path
       d="m 5195,3586 c -79,-113 -78,-126 6,-126 h 59 v -40 c 0,-36 3,-40 25,-40 23,0 25,4 25,40 0,36 3,40 25,40 18,0 25,5 25,20 0,15 -7,20 -25,20 -25,0 -25,1 -25,90 0,89 0,90 -25,90 -19,0 -37,-19 -90,-94 z m 62,-83 c -3,-2 -19,-3 -36,-1 l -32,3 33,47 33,47 3,-45 c 2,-26 1,-48 -1,-51 z"
       id="path174" />
    <path
       d="m 5447,3669 c -11,-6 -25,-25 -32,-43 -28,-66 12,-127 84,-128 36,0 39,-2 30,-19 -13,-25 -52,-50 -92,-58 -40,-8 -41,-22 -4,-35 42,-15 115,26 145,81 39,71 25,188 -23,207 -26,9 -88,7 -108,-5 z m 85,-46 c 23,-20 24,-78 2,-87 -28,-11 -69,16 -72,47 -2,16 -1,35 2,43 7,19 45,18 68,-3 z"
       id="path176" />
    <path
       d="m 5693,3656 c -27,-24 -27,-26 -10,-43 16,-17 18,-16 33,5 18,26 69,30 78,6 9,-24 -10,-50 -46,-64 -42,-17 -39,-15 -32,-33 3,-9 12,-13 20,-10 28,11 64,-6 64,-31 0,-33 -32,-58 -85,-63 -47,-6 -53,-11 -33,-31 27,-27 115,-5 153,37 24,28 26,89 2,106 -16,11 -16,15 -2,41 20,39 19,60 -5,84 -30,30 -100,27 -137,-4 z"
       id="path178" />
    <path
       d="m 5953,3656 c -27,-24 -27,-26 -10,-43 16,-17 18,-16 33,5 18,26 69,30 78,6 9,-24 -10,-50 -46,-64 -42,-17 -39,-15 -32,-33 3,-9 12,-13 20,-10 28,11 64,-6 64,-31 0,-33 -32,-58 -85,-63 -47,-6 -53,-11 -33,-31 27,-27 115,-5 153,37 24,28 26,89 2,106 -16,11 -16,15 -2,41 20,39 19,60 -5,84 -30,30 -100,27 -137,-4 z"
       id="path180" />
    <path
       d="m 6226,3664 c -3,-9 -6,-40 -6,-69 v -53 l 38,-7 c 46,-8 62,-21 62,-50 0,-32 -33,-57 -85,-62 -28,-4 -45,-11 -45,-19 0,-37 110,-26 152,16 53,53 31,143 -37,156 -30,5 -35,10 -35,35 0,28 1,29 55,29 48,0 55,2 55,20 0,18 -7,20 -74,20 -58,0 -75,-3 -80,-16 z"
       id="path182" />
    <path
       d="m 763,3645 c -25,-17 -39,-71 -29,-110 16,-65 94,-88 141,-40 19,18 25,35 25,70 0,35 -6,52 -25,70 -28,29 -79,33 -112,10 z m 82,-19 c 26,-19 26,-103 0,-122 -20,-15 -55,-9 -67,10 -4,6 -8,29 -8,51 0,44 7,59 30,68 23,8 25,8 45,-7 z"
       id="path184" />
    <path
       d="m 626,3568 c -9,-12 -16,-29 -16,-38 0,-45 59,-77 88,-48 16,16 16,80 0,96 -19,19 -55,14 -72,-10 z m 58,-22 c 8,-32 -3,-58 -23,-54 -17,3 -27,39 -17,64 9,22 33,16 40,-10 z"
       id="path186" />
    <path
       d="m 2176,3424 c -10,-26 19,-52 42,-38 9,6 17,20 17,30 0,26 -50,32 -59,8 z"
       id="path188" />
    <path
       d="m 1920,2791 v -148 l 75,-1 c 68,-1 76,1 95,25 15,19 20,40 20,83 0,75 -25,110 -79,110 -20,0 -42,-5 -49,-12 -9,-9 -12,0 -12,40 0,49 -2,52 -25,52 h -25 z m 138,9 c 14,-28 10,-93 -8,-115 -33,-40 -80,-4 -80,62 0,77 57,111 88,53 z"
       id="path190" />
    <path
       d="m 3190,2925 c 0,-10 10,-15 30,-15 h 30 v -129 c 0,-144 -2,-141 76,-141 57,0 63,27 7,32 l -38,3 -3,133 -3,132 h -49 c -38,0 -50,-4 -50,-15 z"
       id="path192" />
    <path
       d="m 3995,2897 c -51,-88 -51,-206 0,-293 19,-33 32,-44 51,-44 h 24 l -32,58 c -29,50 -33,66 -33,132 0,66 4,82 33,133 l 32,57 h -24 c -19,0 -31,-11 -51,-43 z"
       id="path194" />
    <path
       d="m 4960,2935 c 0,-3 11,-22 25,-43 35,-54 49,-130 35,-194 -6,-29 -22,-70 -35,-90 -31,-46 -31,-48 -1,-48 20,0 30,12 55,62 25,50 31,73 31,128 0,55 -6,78 -31,128 -25,50 -35,62 -55,62 -13,0 -24,-2 -24,-5 z"
       id="path196" />
    <path
       d="m 4250,2896 c -6,-8 -27,-20 -46,-26 -19,-6 -34,-18 -34,-26 0,-19 40,-18 68,2 l 22,15 v -95 -96 h -45 c -33,0 -45,-4 -45,-15 0,-12 18,-15 100,-15 82,0 100,3 100,15 0,10 -11,15 -35,15 h -35 v 120 c 0,111 -1,120 -19,120 -10,0 -24,-7 -31,-14 z"
       id="path198" />
    <path
       d="m 4750,2896 c -6,-8 -27,-20 -46,-26 -19,-6 -34,-18 -34,-26 0,-19 40,-18 68,2 l 22,15 v -95 -96 h -45 c -33,0 -45,-4 -45,-15 0,-12 18,-15 100,-15 82,0 100,3 100,15 0,10 -11,15 -35,15 h -35 v 120 c 0,111 -1,120 -19,120 -10,0 -24,-7 -31,-14 z"
       id="path200" />
    <path
       d="m 395,2832 c -28,-44 -30,-54 -30,-142 0,-88 2,-98 30,-142 21,-34 37,-48 52,-48 22,0 21,1 -10,52 -30,47 -32,58 -32,138 0,80 2,91 32,138 31,51 32,52 10,52 -15,0 -31,-14 -52,-48 z"
       id="path202" />
    <path
       d="m 900,2860 c 0,-13 7,-20 20,-20 13,0 20,7 20,20 0,13 -7,20 -20,20 -13,0 -20,-7 -20,-20 z"
       id="path204" />
    <path
       d="m 1642,2820 c 27,-51 32,-73 32,-130 0,-57 -5,-79 -31,-129 -29,-56 -30,-61 -12,-61 22,0 61,56 79,114 20,62 8,158 -27,214 -17,29 -37,48 -50,50 -21,3 -21,1 9,-58 z"
       id="path206" />
    <path
       d="m 2195,2836 c -45,-45 -41,-147 8,-181 34,-24 101,-19 134,9 24,21 26,25 11,31 -10,4 -27,0 -40,-9 -32,-22 -64,-20 -82,6 -29,42 -22,48 59,48 74,0 75,0 75,25 0,33 -25,81 -45,89 -39,14 -96,6 -120,-18 z m 109,-28 c 24,-34 20,-38 -39,-38 -59,0 -68,10 -38,42 22,25 59,23 77,-4 z"
       id="path208" />
    <path
       d="m 2452,2844 c -25,-17 -30,-65 -8,-83 7,-6 37,-18 65,-27 38,-11 51,-20 51,-33 0,-32 -67,-44 -90,-16 -14,17 -50,20 -50,5 0,-5 9,-19 20,-30 15,-15 33,-20 74,-20 47,0 57,4 75,26 12,15 21,33 21,40 0,24 -38,53 -86,65 -25,7 -48,18 -51,26 -12,31 53,45 81,18 19,-19 46,-19 46,-1 0,24 -41,46 -85,46 -22,0 -51,-7 -63,-16 z"
       id="path210" />
    <path
       d="m 2702,2844 c -25,-17 -30,-65 -8,-83 7,-6 37,-18 65,-27 38,-11 51,-20 51,-33 0,-32 -67,-44 -90,-16 -14,17 -50,20 -50,5 0,-5 9,-19 20,-30 15,-15 33,-20 74,-20 47,0 57,4 75,26 12,15 21,33 21,40 0,24 -38,53 -86,65 -25,7 -48,18 -51,26 -12,31 53,45 81,18 19,-19 46,-19 46,-1 0,24 -41,46 -85,46 -22,0 -51,-7 -63,-16 z"
       id="path212" />
    <path
       d="m 2945,2836 c -45,-45 -41,-147 8,-181 34,-24 101,-19 134,9 24,21 26,25 11,31 -10,4 -27,0 -40,-9 -32,-22 -64,-20 -82,6 -29,42 -22,48 59,48 74,0 75,0 75,25 0,33 -25,81 -45,89 -39,14 -96,6 -120,-18 z m 109,-28 c 24,-34 20,-38 -39,-38 -59,0 -68,10 -38,42 22,25 59,23 77,-4 z"
       id="path214" />
    <path
       d="m 3664,2828 c 7,-18 28,-66 47,-107 30,-68 32,-75 18,-100 -8,-14 -25,-27 -37,-29 -12,-2 -22,-10 -22,-18 0,-18 50,-19 73,-1 9,6 43,74 76,150 60,138 60,138 34,135 -21,-3 -30,-14 -55,-78 -16,-41 -31,-76 -33,-78 -1,-1 -17,33 -35,78 -28,69 -36,80 -56,80 -24,0 -24,-1 -10,-32 z"
       id="path216" />
    <path
       d="m 5240,2830 c 0,-25 4,-30 25,-30 21,0 25,5 25,30 0,25 -4,30 -25,30 -21,0 -25,-5 -25,-30 z"
       id="path218" />
    <path
       d="m 550,2831 c -15,-29 -12,-87 5,-101 24,-20 67,-15 87,10 22,27 23,58 2,88 -20,29 -79,31 -94,3 z m 68,-41 c 4,-40 -11,-59 -33,-40 -18,15 -20,51 -3,68 19,19 33,9 36,-28 z"
       id="path220" />
    <path
       d="m 728,2833 c -23,-27 -168,-240 -168,-247 0,-3 6,-6 14,-6 10,0 149,188 190,258 11,19 -19,15 -36,-5 z"
       id="path222" />
    <path
       d="m 1150,2836 c -6,-8 -27,-20 -46,-26 -35,-12 -47,-40 -16,-40 9,0 29,7 45,14 l 27,15 v -95 -94 h -45 c -33,0 -45,-4 -45,-15 0,-12 18,-15 100,-15 82,0 100,3 100,15 0,10 -11,15 -35,15 h -35 v 120 c 0,111 -1,120 -19,120 -10,0 -24,-7 -31,-14 z"
       id="path224" />
    <path
       d="m 1345,2825 c -19,-18 -25,-35 -25,-65 0,-73 71,-114 128,-74 24,17 27,9 12,-30 -14,-39 -53,-53 -85,-32 -14,10 -33,16 -42,14 -12,-2 -11,-8 7,-30 29,-37 96,-40 128,-5 58,62 54,204 -6,236 -37,20 -91,13 -117,-14 z m 92,-13 c 19,-12 31,-55 22,-79 -11,-31 -54,-40 -79,-18 -49,45 2,132 57,97 z"
       id="path226" />
    <path
       d="m 840,2785 c 0,-10 10,-15 30,-15 h 30 v -80 -80 h -40 c -29,0 -40,-4 -40,-15 0,-12 18,-15 100,-15 82,0 100,3 100,15 0,11 -11,15 -40,15 h -40 v 95 95 h -50 c -38,0 -50,-4 -50,-15 z"
       id="path228" />
    <path
       d="m 680,2691 c -15,-29 -12,-77 6,-95 23,-24 70,-20 88,6 20,29 20,72 0,92 -22,23 -81,21 -94,-3 z m 65,-46 c 0,-45 -20,-57 -36,-22 -8,18 -8,30 1,46 17,32 35,20 35,-24 z"
       id="path230" />
    <path
       d="m 5226,2645 c -20,-78 -19,-75 -1,-75 10,0 27,26 45,66 17,36 30,68 30,70 0,2 -13,4 -29,4 -27,0 -30,-4 -45,-65 z"
       id="path232" />
    <path
       d="m 4456,2642 c -20,-71 -20,-72 -1,-72 12,0 75,105 75,125 0,3 -13,5 -29,5 -26,0 -30,-5 -45,-58 z"
       id="path234" />
    <path
       d="m 3385,2610 c -4,-6 40,-10 124,-10 81,0 131,4 131,10 0,6 -48,10 -124,10 -73,0 -127,-4 -131,-10 z"
       id="path236" />
    <path
       d="m 397,2122 c -62,-68 -62,-226 0,-294 9,-10 22,-18 30,-18 10,0 6,13 -14,47 -38,66 -39,158 -1,231 28,53 19,72 -15,34 z"
       id="path238" />
    <path
       d="m 1428,2093 c 22,-39 27,-61 27,-118 0,-57 -5,-79 -27,-117 -24,-44 -25,-48 -8,-48 31,0 70,92 70,165 0,73 -39,165 -70,165 -17,0 -16,-4 8,-47 z"
       id="path240" />
    <path
       d="m 3697,2103 c -88,-93 -90,-257 -4,-350 21,-24 57,-31 57,-12 0,6 -11,24 -25,41 -35,41 -58,128 -50,181 8,45 27,88 56,126 18,22 18,41 0,41 -4,0 -19,-12 -34,-27 z"
       id="path242" />
    <path
       d="m 4645,2119 c -4,-6 2,-20 13,-32 40,-44 56,-90 56,-157 0,-64 -14,-103 -60,-167 -15,-21 -15,-23 1,-30 13,-4 25,2 42,23 84,106 88,248 7,343 -27,32 -48,39 -59,20 z"
       id="path244" />
    <path
       d="m 1890,2104 c -11,-13 -10,-16 8,-21 21,-5 22,-10 22,-144 v -138 l 44,-6 c 98,-15 147,21 154,113 3,47 0,62 -18,85 -23,29 -73,37 -111,17 -18,-10 -19,-7 -19,50 v 60 h -34 c -18,0 -39,-7 -46,-16 z m 164,-140 c 9,-9 16,-32 16,-55 0,-49 -29,-82 -68,-77 -26,3 -27,6 -30,63 -3,47 0,62 14,72 24,17 49,16 68,-3 z"
       id="path246" />
    <path
       d="m 2970,2104 c -11,-13 -10,-16 8,-21 21,-5 22,-11 22,-128 0,-115 -1,-124 -20,-130 -40,-13 -18,-25 45,-25 51,0 65,3 65,15 0,8 -9,15 -20,15 -19,0 -20,7 -20,145 v 145 h -34 c -18,0 -39,-7 -46,-16 z"
       id="path248" />
    <path
       d="m 512,2098 c -17,-17 -15,-73 2,-87 8,-7 27,-11 43,-9 59,7 55,108 -5,108 -15,0 -33,-5 -40,-12 z m 56,-40 c -2,-21 -8,-33 -18,-33 -10,0 -16,12 -18,33 -3,27 0,32 18,32 18,0 21,-5 18,-32 z"
       id="path250" />
    <path
       d="m 596,2001 c -42,-60 -76,-112 -76,-115 0,-20 24,3 66,62 26,37 63,88 81,115 24,32 30,47 20,47 -8,0 -48,-49 -91,-109 z"
       id="path252" />
    <path
       d="m 1011,2096 c -7,-8 -26,-18 -42,-21 -17,-4 -28,-12 -26,-18 4,-14 46,-10 65,5 9,8 12,-7 12,-71 v -81 h -35 c -24,0 -35,-5 -35,-15 0,-12 16,-15 86,-15 64,0 85,3 82,13 -3,6 -17,13 -31,15 l -27,3 v 100 c 0,90 -2,99 -19,99 -10,0 -24,-6 -30,-14 z"
       id="path254" />
    <path
       d="m 1179,2091 c -51,-41 -17,-131 50,-131 15,0 32,5 39,12 9,9 12,8 12,-6 0,-50 -45,-72 -90,-44 -29,18 -39,-1 -11,-23 32,-26 77,-24 106,5 43,43 45,146 4,187 -24,24 -80,25 -110,0 z m 89,-23 c 7,-7 12,-25 12,-40 0,-29 -27,-44 -67,-36 -22,4 -30,52 -12,74 14,17 51,18 67,2 z"
       id="path256" />
    <path
       d="m 3913,2072 c -50,-19 -57,-42 -13,-42 h 31 l -3,-97 c -3,-94 -4,-97 -27,-103 -14,-3 -26,-11 -29,-18 -3,-9 18,-12 77,-12 63,0 81,3 81,14 0,8 -11,17 -25,20 -25,6 -25,6 -25,131 0,138 3,133 -67,107 z"
       id="path258" />
    <path
       d="m 4403,2072 c -50,-19 -57,-42 -13,-42 h 31 l -3,-97 c -3,-94 -4,-97 -27,-103 -14,-3 -26,-11 -29,-18 -3,-9 18,-12 77,-12 63,0 81,3 81,14 0,8 -11,17 -25,20 -25,6 -25,6 -25,131 0,138 3,133 -67,107 z"
       id="path260" />
    <path
       d="m 763,2055 c -25,-17 -39,-71 -29,-110 16,-65 94,-88 141,-40 19,18 25,35 25,70 0,35 -6,52 -25,70 -28,29 -79,33 -112,10 z m 82,-19 c 26,-19 26,-103 0,-122 -20,-15 -55,-9 -67,10 -4,6 -8,29 -8,51 0,44 7,59 30,68 23,8 25,8 45,-7 z"
       id="path262" />
    <path
       d="m 2186,1990 c -50,-60 -42,-156 14,-185 38,-19 90,-19 118,1 35,24 26,34 -27,32 -37,-2 -55,3 -70,16 -39,35 -27,46 49,46 h 70 v 38 c 0,52 -32,82 -87,82 -34,0 -46,-6 -67,-30 z m 85,-10 c 10,-6 19,-20 19,-30 0,-17 -7,-20 -45,-20 -38,0 -43,3 -38,18 5,15 31,42 41,42 2,0 12,-5 23,-10 z"
       id="path264" />
    <path
       d="m 2402,2004 c -18,-12 -22,-24 -20,-52 3,-33 8,-40 51,-61 57,-28 66,-61 17,-61 -24,0 -33,6 -40,26 -13,33 -34,26 -38,-11 -5,-36 19,-55 69,-55 48,0 89,32 89,70 0,31 -27,58 -80,80 -19,8 -30,19 -28,29 5,25 45,26 60,2 7,-12 18,-21 24,-21 16,0 23,34 12,54 -12,21 -86,22 -116,0 z"
       id="path266" />
    <path
       d="m 2602,2004 c -18,-12 -22,-24 -20,-52 3,-33 8,-40 51,-61 57,-28 66,-61 17,-61 -24,0 -33,6 -40,26 -13,33 -34,26 -38,-11 -5,-36 19,-55 69,-55 48,0 89,32 89,70 0,31 -27,58 -80,80 -19,8 -30,19 -28,29 5,25 45,26 60,2 7,-12 18,-21 24,-21 16,0 23,34 12,54 -12,21 -86,22 -116,0 z"
       id="path268" />
    <path
       d="m 2796,1990 c -50,-60 -42,-156 14,-185 38,-19 90,-19 118,1 35,24 26,34 -27,32 -37,-2 -55,3 -70,16 -39,35 -27,46 49,46 h 70 v 38 c 0,52 -32,82 -87,82 -34,0 -46,-6 -67,-30 z m 85,-10 c 10,-6 19,-20 19,-30 0,-17 -7,-20 -45,-20 -38,0 -43,3 -38,18 5,15 31,42 41,42 2,0 12,-5 23,-10 z"
       id="path270" />
    <path
       d="m 3300,2000 c 0,-5 6,-13 14,-17 8,-4 31,-45 50,-91 38,-88 37,-110 -4,-132 -28,-15 -60,-12 -60,5 0,12 -18,15 -105,15 -87,0 -105,-3 -105,-15 0,-12 18,-15 104,-15 95,0 104,-2 109,-20 8,-30 67,-27 99,5 13,13 46,73 73,132 27,59 55,112 62,116 26,16 12,27 -37,27 -47,0 -67,-14 -36,-26 12,-5 12,-11 -1,-42 -8,-20 -20,-48 -25,-62 -10,-24 -11,-22 -33,35 -19,50 -21,61 -9,68 29,16 12,27 -41,27 -30,0 -55,-4 -55,-10 z"
       id="path272" />
    <path
       d="m 626,1978 c -9,-12 -16,-29 -16,-38 0,-45 59,-77 88,-48 16,16 16,80 0,96 -19,19 -55,14 -72,-10 z m 58,-22 c 8,-32 -3,-58 -23,-54 -17,3 -27,39 -17,64 9,22 33,16 40,-10 z"
       id="path274" />
    <path
       d="m 4184,1844 c -6,-3 -9,-15 -7,-28 3,-13 -2,-37 -11,-54 -20,-39 -20,-42 3,-42 26,0 63,62 59,97 -3,27 -20,37 -44,27 z"
       id="path276" />
    <path
       d="m 1987,1282 c -10,-10 -17,-28 -17,-40 0,-18 -6,-22 -30,-22 -20,0 -30,-5 -30,-15 0,-10 10,-15 30,-15 h 30 v -95 c 0,-88 1,-95 20,-95 19,0 20,7 20,95 v 95 h 50 c 38,0 50,4 50,15 0,11 -12,15 -51,15 -43,0 -50,3 -47,18 2,13 15,18 51,20 39,3 47,6 47,23 0,16 -7,19 -53,19 -40,0 -58,-5 -70,-18 z"
       id="path278" />
    <path
       d="m 2190,1285 c 0,-10 10,-15 30,-15 h 30 v -129 c 0,-144 -2,-141 76,-141 57,0 63,27 7,32 l -38,3 -3,133 -3,132 h -49 c -38,0 -50,-4 -50,-15 z"
       id="path280" />
    <path
       d="m 3245,1257 c -51,-88 -51,-206 0,-293 19,-33 32,-44 51,-44 h 24 l -32,58 c -29,50 -33,66 -33,132 0,66 4,82 33,133 l 32,57 h -24 c -19,0 -31,-11 -51,-43 z"
       id="path282" />
    <path
       d="m 3710,1295 c 0,-3 11,-22 25,-43 13,-20 29,-61 35,-89 14,-65 0,-141 -35,-195 -31,-46 -31,-48 -1,-48 20,0 30,12 55,62 25,50 31,73 31,128 0,55 -6,78 -31,128 -25,50 -35,62 -55,62 -13,0 -24,-2 -24,-5 z"
       id="path284" />
    <path
       d="m 2964,1245 c -4,-16 -13,-25 -25,-25 -10,0 -19,-7 -19,-15 0,-8 9,-15 20,-15 18,0 20,-7 20,-84 0,-100 7,-108 82,-104 42,2 54,7 56,22 4,16 0,18 -33,12 -54,-10 -65,4 -65,85 v 69 h 45 c 33,0 45,4 45,15 0,11 -12,15 -45,15 -41,0 -45,2 -45,25 0,15 -6,25 -15,25 -8,0 -17,-11 -21,-25 z"
       id="path286" />
    <path
       d="m 3400,1251 c -15,-29 -12,-87 6,-101 23,-20 75,-16 90,5 19,25 18,80 -2,99 -22,23 -81,21 -94,-3 z m 65,-46 c 0,-45 -20,-57 -36,-22 -8,18 -8,30 1,46 17,32 35,20 35,-24 z"
       id="path288" />
    <path
       d="m 3500,1144 c -96,-142 -97,-144 -76,-144 12,0 196,248 196,265 0,3 -8,5 -17,5 -12,-1 -49,-47 -103,-126 z"
       id="path290" />
    <path
       d="m 395,1192 c -28,-44 -30,-54 -30,-142 0,-88 2,-98 30,-142 21,-34 37,-48 52,-48 22,0 21,1 -10,52 -30,47 -32,58 -32,138 0,80 2,91 32,138 31,51 32,52 10,52 -15,0 -31,-14 -52,-48 z"
       id="path292" />
    <path
       d="m 900,1220 c 0,-13 7,-20 20,-20 13,0 20,7 20,20 0,13 -7,20 -20,20 -13,0 -20,-7 -20,-20 z"
       id="path294" />
    <path
       d="m 1642,1180 c 27,-51 32,-73 32,-130 0,-57 -5,-79 -31,-129 -29,-56 -30,-61 -12,-61 22,0 61,56 79,114 20,62 8,158 -27,214 -17,29 -37,48 -50,50 -21,3 -21,1 9,-58 z"
       id="path296" />
    <path
       d="m 2445,1196 c -30,-30 -40,-84 -25,-130 15,-47 44,-66 98,-66 64,0 92,34 92,112 0,49 -4,63 -25,83 -34,35 -106,35 -140,1 z m 105,-21 c 18,-22 22,-87 8,-115 -17,-31 -53,-37 -79,-14 -25,22 -26,99 -2,126 19,22 56,24 73,3 z"
       id="path298" />
    <path
       d="m 2690,1200 c -11,-11 -20,-24 -20,-30 0,-16 47,-12 54,5 7,18 47,20 64,3 24,-24 12,-35 -40,-40 -78,-8 -111,-61 -72,-116 17,-25 70,-30 106,-11 14,8 23,8 31,0 17,-17 67,-14 67,4 0,8 -6,15 -14,15 -18,0 -26,31 -26,101 0,70 -18,89 -83,89 -34,0 -53,-6 -67,-20 z m 110,-108 c 0,-59 -82,-86 -88,-29 -3,21 2,29 20,36 39,16 68,13 68,-7 z"
       id="path300" />
    <path
       d="m 3990,1190 c 0,-25 4,-30 25,-30 21,0 25,5 25,30 0,25 -4,30 -25,30 -21,0 -25,-5 -25,-30 z"
       id="path302" />
    <path
       d="m 550,1191 c -15,-29 -12,-87 5,-101 24,-20 67,-15 87,10 22,27 23,58 2,88 -20,29 -79,31 -94,3 z m 68,-41 c 4,-40 -11,-59 -33,-40 -18,15 -20,51 -3,68 19,19 33,9 36,-28 z"
       id="path304" />
    <path
       d="M 728,1193 C 705,1166 560,953 560,946 c 0,-3 6,-6 14,-6 10,0 149,188 190,258 11,19 -19,15 -36,-5 z"
       id="path306" />
    <path
       d="m 1095,1185 c -14,-13 -25,-31 -25,-40 0,-24 29,-18 54,12 21,24 27,26 52,18 47,-17 44,-54 -7,-101 -77,-70 -99,-96 -99,-115 0,-17 8,-19 95,-19 78,0 95,3 95,15 0,12 -14,15 -70,15 -82,0 -83,6 -9,65 59,46 72,67 71,109 -1,42 -33,66 -89,66 -33,0 -50,-6 -68,-25 z"
       id="path308" />
    <path
       d="m 1346,1185 c -39,-42 -47,-118 -20,-185 18,-46 38,-60 84,-60 73,0 104,48 98,153 -3,61 -7,72 -31,93 -39,34 -100,33 -131,-1 z m 99,-19 c 22,-16 33,-116 16,-158 -14,-38 -56,-47 -84,-20 -17,17 -21,34 -21,86 0,91 38,130 89,92 z"
       id="path310" />
    <path
       d="m 1390,1075 c 0,-20 5,-25 25,-25 20,0 25,5 25,25 0,20 -5,25 -25,25 -20,0 -25,-5 -25,-25 z"
       id="path312" />
    <path
       d="m 840,1145 c 0,-10 10,-15 30,-15 h 30 v -80 -80 h -40 c -29,0 -40,-4 -40,-15 0,-12 18,-15 100,-15 82,0 100,3 100,15 0,11 -11,15 -40,15 h -40 v 95 95 h -50 c -38,0 -50,-4 -50,-15 z"
       id="path314" />
    <path
       d="m 3530,1111 c -15,-29 -12,-77 6,-95 8,-9 28,-16 44,-16 37,0 60,24 60,61 0,51 -16,69 -60,69 -29,0 -42,-5 -50,-19 z m 65,-47 c 0,-28 -4,-39 -15,-39 -16,0 -26,45 -16,72 11,28 31,7 31,-33 z"
       id="path316" />
    <path
       d="m 680,1051 c -15,-29 -12,-77 6,-95 23,-24 70,-20 88,6 20,29 20,72 0,92 -22,23 -81,21 -94,-3 z m 65,-46 c 0,-45 -20,-57 -36,-22 -8,18 -8,30 1,46 17,32 35,20 35,-24 z"
       id="path318" />
    <path
       d="m 3976,1005 c -20,-78 -19,-75 -1,-75 10,0 27,26 45,66 17,36 30,68 30,70 0,2 -13,4 -29,4 -27,0 -30,-4 -45,-65 z"
       id="path320" />
    <path
       d="m 397,542 c -62,-68 -62,-226 0,-294 9,-10 22,-18 30,-18 10,0 6,13 -14,47 -38,66 -39,158 -1,231 28,53 19,72 -15,34 z"
       id="path322" />
    <path
       d="m 1428,513 c 22,-39 27,-61 27,-118 0,-57 -5,-79 -27,-118 -24,-43 -25,-47 -8,-47 31,0 70,92 70,165 0,73 -39,165 -70,165 -17,0 -16,-4 8,-47 z"
       id="path324" />
    <path
       d="m 512,518 c -17,-17 -15,-73 2,-87 8,-7 27,-11 43,-9 59,7 55,108 -5,108 -15,0 -33,-5 -40,-12 z m 56,-40 c -2,-21 -8,-33 -18,-33 -10,0 -16,12 -18,33 -3,27 0,32 18,32 18,0 21,-5 18,-32 z"
       id="path326" />
    <path
       d="m 596,421 c -42,-60 -76,-112 -76,-115 0,-20 24,3 66,62 26,37 63,88 81,115 24,32 30,47 20,47 -8,0 -48,-49 -91,-109 z"
       id="path328" />
    <path
       d="m 972,514 c -24,-16 -29,-39 -11,-49 6,-4 17,3 26,14 21,31 77,26 81,-7 3,-16 -13,-38 -62,-85 -36,-35 -66,-69 -66,-75 0,-8 27,-12 86,-12 64,0 85,3 82,13 -3,7 -28,13 -64,15 l -59,3 58,53 c 46,43 57,59 57,84 0,37 -30,62 -75,62 -17,0 -41,-7 -53,-16 z"
       id="path330" />
    <path
       d="m 1181,511 c -40,-40 -40,-145 0,-187 22,-24 60,-31 94,-18 59,23 59,195 0,218 -32,12 -75,6 -94,-13 z m 99,-47 c 13,-39 8,-97 -11,-120 -15,-19 -53,-18 -70,2 -7,9 -13,40 -13,69 0,61 15,85 54,85 24,0 30,-6 40,-36 z"
       id="path332" />
    <path
       d="m 1210,420 c 0,-15 7,-20 25,-20 18,0 25,5 25,20 0,15 -7,20 -25,20 -18,0 -25,-5 -25,-20 z"
       id="path334" />
    <path
       d="m 2282,494 c -36,-25 -54,-72 -54,-139 0,-74 20,-117 61,-135 60,-25 125,7 150,73 26,68 5,184 -37,206 -30,16 -94,13 -120,-5 z m 104,-59 c 36,-88 -4,-200 -65,-180 -29,9 -44,58 -39,124 5,69 19,91 60,91 24,0 32,-6 44,-35 z"
       id="path336" />
    <path
       d="m 2620,465 c 0,-51 25,-64 36,-20 6,22 11,25 55,25 h 48 l -39,-67 c -61,-107 -78,-200 -33,-191 11,2 20,20 28,53 12,51 52,138 87,188 34,48 20,57 -87,57 h -95 z"
       id="path338" />
    <path
       d="m 2905,485 c -30,-29 -32,-68 -5,-95 19,-19 19,-20 -5,-44 -40,-40 -32,-96 16,-121 38,-20 78,-19 116,5 52,31 55,100 5,131 -18,11 -18,13 5,35 50,50 16,114 -62,114 -35,0 -52,-6 -70,-25 z m 103,-41 c 2,-11 -5,-28 -16,-37 -16,-15 -20,-15 -40,-1 -22,15 -29,44 -15,58 4,4 21,6 38,4 21,-2 31,-9 33,-24 z m -12,-117 c 32,-28 26,-63 -11,-73 -53,-13 -85,38 -48,78 21,23 26,23 59,-5 z"
       id="path340" />
    <path
       d="m 3193,492 c -50,-19 -57,-42 -13,-42 h 31 l -3,-97 c -3,-94 -4,-97 -27,-103 -14,-3 -26,-11 -29,-18 -3,-9 18,-12 77,-12 63,0 81,3 81,14 0,8 -11,17 -25,20 -25,6 -25,6 -25,131 0,138 3,133 -67,107 z"
       id="path342" />
    <path
       d="m 3416,489 c -19,-15 -26,-29 -24,-48 4,-37 31,-38 45,-1 10,28 16,31 45,28 28,-3 34,-7 36,-31 4,-33 -8,-54 -78,-130 -72,-79 -66,-89 52,-85 79,3 93,6 96,21 3,15 -5,17 -68,17 h -71 l 51,50 c 78,76 95,134 52,183 -22,25 -101,23 -136,-4 z"
       id="path344" />
    <path
       d="m 3713,492 c -50,-19 -57,-42 -13,-42 h 31 l -3,-97 c -3,-94 -4,-97 -27,-103 -14,-3 -26,-11 -29,-18 -3,-9 18,-12 77,-12 63,0 81,3 81,14 0,8 -11,17 -25,20 -25,6 -25,6 -25,131 0,138 3,133 -67,107 z"
       id="path346" />
    <path
       d="m 3936,489 c -19,-15 -26,-29 -24,-48 4,-37 31,-38 45,-1 10,28 16,31 45,28 28,-3 34,-7 36,-31 4,-33 -8,-54 -78,-130 -72,-79 -66,-89 52,-85 79,3 93,6 96,21 3,15 -5,17 -68,17 h -71 l 51,50 c 78,76 95,134 52,183 -22,25 -101,23 -136,-4 z"
       id="path348" />
    <path
       d="m 4205,485 c -30,-29 -32,-68 -5,-95 19,-19 19,-20 -5,-44 -40,-40 -32,-96 16,-121 38,-20 78,-19 116,5 52,31 55,100 5,131 -18,11 -18,13 5,35 50,50 16,114 -62,114 -35,0 -52,-6 -70,-25 z m 103,-41 c 2,-11 -5,-28 -16,-37 -16,-15 -20,-15 -40,-1 -22,15 -29,44 -15,58 4,4 21,6 38,4 21,-2 31,-9 33,-24 z m -12,-117 c 32,-28 26,-63 -11,-73 -53,-13 -85,38 -48,78 21,23 26,23 59,-5 z"
       id="path350" />
    <path
       d="m 4456,489 c -19,-15 -26,-29 -24,-48 4,-37 31,-38 45,-1 10,28 16,31 45,28 28,-3 34,-7 36,-31 4,-33 -8,-54 -78,-130 -72,-79 -66,-89 52,-85 79,3 93,6 96,21 3,15 -5,17 -68,17 h -71 l 51,50 c 78,76 95,134 52,183 -22,25 -101,23 -136,-4 z"
       id="path352" />
    <path
       d="m 4753,492 c -50,-19 -57,-42 -13,-42 h 31 l -3,-97 c -3,-94 -4,-97 -27,-103 -14,-3 -26,-11 -29,-18 -3,-9 18,-12 77,-12 63,0 81,3 81,14 0,8 -11,17 -25,20 -25,6 -25,6 -25,131 0,138 3,133 -67,107 z"
       id="path354" />
    <path
       d="m 4973,486 c -27,-24 -27,-26 -10,-43 16,-17 18,-16 33,5 18,26 69,30 78,6 9,-24 -10,-50 -46,-64 -42,-17 -39,-15 -32,-33 3,-9 12,-13 20,-10 28,11 64,-6 64,-31 0,-33 -32,-58 -85,-63 -47,-6 -53,-11 -33,-31 27,-27 115,-5 153,37 24,28 26,89 2,106 -16,11 -16,15 -2,41 20,39 19,60 -5,84 -30,30 -100,27 -137,-4 z"
       id="path356" />
    <path
       d="m 5252,494 c -36,-25 -54,-72 -54,-139 0,-74 20,-117 61,-135 60,-25 125,7 150,73 26,68 5,184 -37,206 -30,16 -94,13 -120,-5 z m 104,-59 c 36,-88 -4,-200 -65,-180 -29,9 -44,58 -39,124 5,69 19,91 60,91 24,0 32,-6 44,-35 z"
       id="path358" />
    <path
       d="m 5512,494 c -36,-25 -54,-72 -54,-139 0,-74 20,-117 61,-135 60,-25 125,7 150,73 26,68 5,184 -37,206 -30,16 -94,13 -120,-5 z m 104,-59 c 36,-88 -4,-200 -65,-180 -29,9 -44,58 -39,124 5,69 19,91 60,91 24,0 32,-6 44,-35 z"
       id="path360" />
    <path
       d="m 5756,489 c -19,-15 -26,-29 -24,-48 4,-37 31,-38 45,-1 10,28 16,31 45,28 28,-3 34,-7 36,-31 4,-33 -8,-54 -78,-130 -72,-79 -66,-89 52,-85 79,3 93,6 96,21 3,15 -5,17 -68,17 h -71 l 51,50 c 78,76 95,134 52,183 -22,25 -101,23 -136,-4 z"
       id="path362" />
    <path
       d="m 6025,485 c -30,-29 -32,-68 -5,-95 19,-19 19,-20 -5,-44 -40,-40 -32,-96 16,-121 38,-20 78,-19 116,5 52,31 55,100 5,131 -18,11 -18,13 5,35 50,50 16,114 -62,114 -35,0 -52,-6 -70,-25 z m 103,-41 c 2,-11 -5,-28 -16,-37 -16,-15 -20,-15 -40,-1 -22,15 -29,44 -15,58 4,4 21,6 38,4 21,-2 31,-9 33,-24 z m -12,-117 c 32,-28 26,-63 -11,-73 -53,-13 -85,38 -48,78 21,23 26,23 59,-5 z"
       id="path364" />
    <path
       d="m 6285,485 c -30,-29 -32,-68 -5,-95 19,-19 19,-20 -5,-44 -40,-40 -32,-96 16,-121 38,-20 78,-19 116,5 52,31 55,100 5,131 -18,11 -18,13 5,35 50,50 16,114 -62,114 -35,0 -52,-6 -70,-25 z m 103,-41 c 2,-11 -5,-28 -16,-37 -16,-15 -20,-15 -40,-1 -22,15 -29,44 -15,58 4,4 21,6 38,4 21,-2 31,-9 33,-24 z m -12,-117 c 32,-28 26,-63 -11,-73 -53,-13 -85,38 -48,78 21,23 26,23 59,-5 z"
       id="path366" />
    <path
       d="m 6545,485 c -30,-29 -32,-68 -5,-95 19,-19 19,-20 -5,-44 -40,-40 -32,-96 16,-121 38,-20 78,-19 116,5 52,31 55,100 5,131 -18,11 -18,13 5,35 50,50 16,114 -62,114 -35,0 -52,-6 -70,-25 z m 103,-41 c 2,-11 -5,-28 -16,-37 -16,-15 -20,-15 -40,-1 -22,15 -29,44 -15,58 4,4 21,6 38,4 21,-2 31,-9 33,-24 z m -12,-117 c 32,-28 26,-63 -11,-73 -53,-13 -85,38 -48,78 21,23 26,23 59,-5 z"
       id="path368" />
    <path
       d="m 763,475 c -25,-17 -39,-71 -29,-110 16,-65 94,-88 141,-40 19,18 25,35 25,70 0,35 -6,52 -25,70 -28,29 -79,33 -112,10 z m 82,-19 c 26,-19 26,-103 0,-122 -20,-15 -55,-9 -67,10 -4,6 -8,29 -8,51 0,44 7,59 30,68 23,8 25,8 45,-7 z"
       id="path370" />
    <path
       d="m 626,398 c -9,-12 -16,-29 -16,-38 0,-45 59,-77 88,-48 16,16 16,80 0,96 -19,19 -55,14 -72,-10 z m 58,-22 c 8,-32 -3,-58 -23,-54 -17,3 -27,39 -17,64 9,22 33,16 40,-10 z"
       id="path372" />
    <path
       d="m 1930,360 c 0,-19 6,-20 91,-20 81,0 90,2 87,18 -3,14 -17,17 -91,20 -82,3 -87,2 -87,-18 z"
       id="path374" />
    <path
       d="m 2496,254 c -10,-26 19,-52 42,-38 9,6 17,20 17,30 0,26 -50,32 -59,8 z"
       id="path376" />
  </g>
</svg>
