<?xml version="1.0" encoding="UTF-8" standalone="no"?>
<svg
   width="1000pt"
   viewBox="0 0 1000 314"
   height="314pt"
   version="1.1"
   id="svg2521"
   sodipodi:docname="burgersw.svg"
   inkscape:version="1.1 (c68e22c387, 2021-05-23)"
   xmlns:inkscape="http://www.inkscape.org/namespaces/inkscape"
   xmlns:sodipodi="http://sodipodi.sourceforge.net/DTD/sodipodi-0.dtd"
   xmlns="http://www.w3.org/2000/svg"
   xmlns:svg="http://www.w3.org/2000/svg"
   xmlns:rdf="http://www.w3.org/1999/02/22-rdf-syntax-ns#"
   xmlns:cc="http://creativecommons.org/ns#"
   xmlns:dc="http://purl.org/dc/elements/1.1/">
  <sodipodi:namedview
     id="namedview2523"
     pagecolor="#ffffff"
     bordercolor="#666666"
     borderopacity="1.0"
     inkscape:pageshadow="2"
     inkscape:pageopacity="0.0"
     inkscape:pagecheckerboard="0"
     inkscape:document-units="pt"
     showgrid="false"
     inkscape:zoom="0.54115914"
     inkscape:cx="389.90379"
     inkscape:cy="209.73498"
     inkscape:window-width="1828"
     inkscape:window-height="1055"
     inkscape:window-x="85"
     inkscape:window-y="-7"
     inkscape:window-maximized="1"
     inkscape:current-layer="svg2521" />
  <title
     id="title2146">gl2ps_renderer figure</title>
  <desc
     id="desc2148">
Creator: GL2PS 1.4.2, (C) 1999-2020 C. Geuzaine
For: Octave
CreationDate: Sat Jan 21 22:10:13 2023
</desc>
  <defs
     id="defs2150" />
  <polygon
     points="584,0 584,314 0,314 0,0 "
     fill="#ffffff"
     id="polygon2152" />
  <g
     id="g2519">
    <polygon
       points="584,314 584,0 0,0 0,314 "
       shape-rendering="crispEdges"
       fill="#ffffff"
       id="polygon2154" />
    <clipPath
       id="cp00584314">
      <polygon
         points="584,314 584,0 0,0 0,314 "
         id="polygon2156" />
    </clipPath>
    <g
       clip-path="url(#cp00584314)"
       id="g2517">
      <polygon
         shape-rendering="crispEdges"
         points="529.186,280.224 529.186,23.6143 76.0157,23.6143 76.0157,280.224 "
         fill="#ffffff"
         id="polygon2159" />
      <polyline
         stroke-linecap="butt"
         stroke-linejoin="miter"
         points="76.0157,280.224 76.0157,275.699"
         stroke="#262626"
         fill="none"
         stroke-width="0.5"
         id="polyline2161" />
      <polyline
         stroke-linecap="butt"
         stroke-linejoin="miter"
         points="76.0157,23.6143 76.0157,28.1392"
         stroke="#262626"
         fill="none"
         stroke-width="0.5"
         id="polyline2163" />
      <polyline
         stroke-linecap="butt"
         stroke-linejoin="miter"
         points="189.308,280.224 189.308,275.699"
         stroke="#262626"
         fill="none"
         stroke-width="0.5"
         id="polyline2165" />
      <polyline
         stroke-linecap="butt"
         stroke-linejoin="miter"
         points="189.308,23.6143 189.308,28.1392"
         stroke="#262626"
         fill="none"
         stroke-width="0.5"
         id="polyline2167" />
      <polyline
         stroke-linecap="butt"
         stroke-linejoin="miter"
         points="302.601,280.224 302.601,275.699"
         stroke="#262626"
         fill="none"
         stroke-width="0.5"
         id="polyline2169" />
      <polyline
         stroke-linecap="butt"
         stroke-linejoin="miter"
         points="302.601,23.6143 302.601,28.1392"
         stroke="#262626"
         fill="none"
         stroke-width="0.5"
         id="polyline2171" />
      <polyline
         stroke-linecap="butt"
         stroke-linejoin="miter"
         points="415.894,280.224 415.894,275.699"
         stroke="#262626"
         fill="none"
         stroke-width="0.5"
         id="polyline2173" />
      <polyline
         stroke-linecap="butt"
         stroke-linejoin="miter"
         points="415.894,23.6143 415.894,28.1392"
         stroke="#262626"
         fill="none"
         stroke-width="0.5"
         id="polyline2175" />
      <polyline
         stroke-linecap="butt"
         stroke-linejoin="miter"
         points="529.186,280.224 529.186,275.699"
         stroke="#262626"
         fill="none"
         stroke-width="0.5"
         id="polyline2177" />
      <polyline
         stroke-linecap="butt"
         stroke-linejoin="miter"
         points="529.186,23.6143 529.186,28.1392"
         stroke="#262626"
         fill="none"
         stroke-width="0.5"
         id="polyline2179" />
      <text
         font-weight="normal"
         font-size="10px"
         xml:space="preserve"
         font-family="FreeSans"
         transform="translate(71.5157,295.712)"
         font-style="normal"
         id="text2183">     <tspan
   x="0 3"
   fill="#262626"
   y="0"
   id="tspan2181">-2</tspan>   </text>
      <text
         font-weight="normal"
         font-size="10px"
         xml:space="preserve"
         font-family="FreeSans"
         transform="translate(184.808,295.712)"
         font-style="normal"
         id="text2187">     <tspan
   x="0 3"
   fill="#262626"
   y="0"
   id="tspan2185">-1</tspan>   </text>
      <text
         font-weight="normal"
         font-size="10px"
         xml:space="preserve"
         font-family="FreeSans"
         transform="translate(299.601,295.712)"
         font-style="normal"
         id="text2191">     <tspan
   x="0"
   fill="#262626"
   y="0"
   id="tspan2189">0</tspan>   </text>
      <text
         font-weight="normal"
         font-size="10px"
         xml:space="preserve"
         font-family="FreeSans"
         transform="translate(412.894,295.712)"
         font-style="normal"
         id="text2195">     <tspan
   x="0"
   fill="#262626"
   y="0"
   id="tspan2193">1</tspan>   </text>
      <text
         font-weight="normal"
         font-size="10px"
         xml:space="preserve"
         font-family="FreeSans"
         transform="translate(526.186,295.712)"
         font-style="normal"
         id="text2199">     <tspan
   x="0"
   fill="#262626"
   y="0"
   id="tspan2197">2</tspan>   </text>
      <polyline
         stroke-linecap="butt"
         stroke-linejoin="miter"
         points="76.0157,280.224 80.5491,280.224"
         stroke="#262626"
         fill="none"
         stroke-width="0.5"
         id="polyline2201" />
      <polyline
         stroke-linecap="butt"
         stroke-linejoin="miter"
         points="529.186,280.224 524.653,280.224"
         stroke="#262626"
         fill="none"
         stroke-width="0.5"
         id="polyline2203" />
      <polyline
         stroke-linecap="butt"
         stroke-linejoin="miter"
         points="76.0157,228.902 80.5491,228.902"
         stroke="#262626"
         fill="none"
         stroke-width="0.5"
         id="polyline2205" />
      <polyline
         stroke-linecap="butt"
         stroke-linejoin="miter"
         points="529.186,228.902 524.653,228.902"
         stroke="#262626"
         fill="none"
         stroke-width="0.5"
         id="polyline2207" />
      <polyline
         stroke-linecap="butt"
         stroke-linejoin="miter"
         points="76.0157,177.58 80.5491,177.58"
         stroke="#262626"
         fill="none"
         stroke-width="0.5"
         id="polyline2209" />
      <polyline
         stroke-linecap="butt"
         stroke-linejoin="miter"
         points="529.186,177.58 524.653,177.58"
         stroke="#262626"
         fill="none"
         stroke-width="0.5"
         id="polyline2211" />
      <polyline
         stroke-linecap="butt"
         stroke-linejoin="miter"
         points="76.0157,126.258 80.5491,126.258"
         stroke="#262626"
         fill="none"
         stroke-width="0.5"
         id="polyline2213" />
      <polyline
         stroke-linecap="butt"
         stroke-linejoin="miter"
         points="529.186,126.258 524.653,126.258"
         stroke="#262626"
         fill="none"
         stroke-width="0.5"
         id="polyline2215" />
      <polyline
         stroke-linecap="butt"
         stroke-linejoin="miter"
         points="76.0157,74.9362 80.5491,74.9362"
         stroke="#262626"
         fill="none"
         stroke-width="0.5"
         id="polyline2217" />
      <polyline
         stroke-linecap="butt"
         stroke-linejoin="miter"
         points="529.186,74.9362 524.653,74.9362"
         stroke="#262626"
         fill="none"
         stroke-width="0.5"
         id="polyline2219" />
      <polyline
         stroke-linecap="butt"
         stroke-linejoin="miter"
         points="76.0157,23.6143 80.5491,23.6143"
         stroke="#262626"
         fill="none"
         stroke-width="0.5"
         id="polyline2221" />
      <polyline
         stroke-linecap="butt"
         stroke-linejoin="miter"
         points="529.186,23.6143 524.653,23.6143"
         stroke="#262626"
         fill="none"
         stroke-width="0.5"
         id="polyline2223" />
      <text
         font-weight="normal"
         font-size="10px"
         xml:space="preserve"
         font-family="FreeSans"
         transform="translate(65.0138,284.224)"
         font-style="normal"
         id="text2227">     <tspan
   x="0"
   fill="#262626"
   y="0"
   id="tspan2225">0</tspan>   </text>
      <text
         font-weight="normal"
         font-size="10px"
         xml:space="preserve"
         font-family="FreeSans"
         transform="translate(56.0138,232.902)"
         font-style="normal"
         id="text2231">     <tspan
   x="0 6 9"
   fill="#262626"
   y="0"
   id="tspan2229">0.2</tspan>   </text>
      <text
         font-weight="normal"
         font-size="10px"
         xml:space="preserve"
         font-family="FreeSans"
         transform="translate(56.0138,181.58)"
         font-style="normal"
         id="text2235">     <tspan
   x="0 6 9"
   fill="#262626"
   y="0"
   id="tspan2233">0.4</tspan>   </text>
      <text
         font-weight="normal"
         font-size="10px"
         xml:space="preserve"
         font-family="FreeSans"
         transform="translate(56.0138,130.258)"
         font-style="normal"
         id="text2239">     <tspan
   x="0 6 9"
   fill="#262626"
   y="0"
   id="tspan2237">0.6</tspan>   </text>
      <text
         font-weight="normal"
         font-size="10px"
         xml:space="preserve"
         font-family="FreeSans"
         transform="translate(56.0138,78.9362)"
         font-style="normal"
         id="text2243">     <tspan
   x="0 6 9"
   fill="#262626"
   y="0"
   id="tspan2241">0.8</tspan>   </text>
      <text
         font-weight="normal"
         font-size="10px"
         xml:space="preserve"
         font-family="FreeSans"
         transform="translate(65.0138,27.6143)"
         font-style="normal"
         id="text2247">     <tspan
   x="0"
   fill="#262626"
   y="0"
   id="tspan2245">1</tspan>   </text>
      <polyline
         stroke-linecap="square"
         stroke-linejoin="miter"
         points="76.0157,280.224 529.186,280.224"
         stroke-dasharray="16, 0"
         stroke="#262626"
         fill="none"
         stroke-width="0.5"
         id="polyline2249" />
      <polyline
         stroke-linecap="square"
         stroke-linejoin="miter"
         points="76.0157,23.6143 529.186,23.6143"
         stroke-dasharray="16, 0"
         stroke="#262626"
         fill="none"
         stroke-width="0.5"
         id="polyline2251" />
      <polyline
         stroke-linecap="square"
         stroke-linejoin="miter"
         points="76.0157,280.224 76.0157,23.6143"
         stroke-dasharray="16, 0"
         stroke="#262626"
         fill="none"
         stroke-width="0.5"
         id="polyline2253" />
      <polyline
         stroke-linecap="square"
         stroke-linejoin="miter"
         points="529.186,280.224 529.186,23.6143"
         stroke-dasharray="16, 0"
         stroke="#262626"
         fill="none"
         stroke-width="0.5"
         id="polyline2255" />
      <polyline
         stroke-linecap="butt"
         stroke-linejoin="round"
         points="76.0157,275.524 79.5561,274.91 83.0965,274.221 86.6369,273.456 90.1773,272.608 93.7177,271.671 97.2581,270.638 100.798,269.501 104.339,268.253 107.879,266.885 111.42,265.391 114.96,263.762 118.5,261.989 122.041,260.066 125.581,257.983 129.122,255.734 132.662,253.31 136.202,250.705 139.743,247.911 143.283,244.921 146.824,241.731 150.364,238.335 153.904,234.729 157.445,230.908 160.985,226.872 164.526,222.618 168.066,218.146 171.606,213.457 175.147,208.553 178.687,203.439 182.228,198.119 185.768,192.601 189.308,186.893 192.849,181.004 196.389,174.947 199.93,168.736 203.47,162.384 207.01,155.909 210.551,149.329 214.091,142.665 217.632,135.936 221.172,129.167 224.712,122.38 228.253,115.603 231.793,108.86 235.333,102.178 238.874,95.5874 242.414,89.1149 245.955,82.7901 249.495,76.6421 253.035,70.7002 256.576,64.9934 260.116,59.5504 263.657,54.399 267.197,49.5663 270.737,45.0784 274.278,40.96 277.818,37.2341 281.359,33.9224 284.899,31.044 288.439,28.6165 291.98,26.6548 295.52,25.1715 299.061,24.1765 302.601,23.6769 306.141,23.6772 309.682,24.1788 313.222,25.1803 316.763,26.6771 320.303,28.662 323.843,31.1246 327.384,34.0518 330.924,37.4279 334.465,41.2344 338.005,45.4506 341.545,50.0534 345.086,55.0178 348.626,60.3168 352.167,65.9222 355.707,71.8044 359.247,77.9326 362.788,84.2756 366.328,90.8015 369.868,97.4785 373.409,104.275 376.949,111.158 380.49,118.099 384.03,125.067 387.57,132.033 391.111,138.969 394.651,145.85 398.192,152.651 401.732,159.349 405.272,165.923 408.813,172.354 412.353,178.625 415.894,184.721 419.434,190.628 422.974,196.335 426.515,201.834 430.055,207.116 433.596,212.175 437.136,217.009 440.676,221.614 444.217,225.989 447.757,230.136 451.298,234.056 454.838,237.751 458.378,241.227 461.919,244.488 465.459,247.54 469,250.389 472.54,253.042 476.08,255.508 479.621,257.793 483.161,259.906 486.702,261.856 490.242,263.651 493.782,265.299 497.323,266.81 500.863,268.191 504.404,269.45 507.944,270.597 511.484,271.638 515.025,272.581 518.565,273.434 522.105,274.204 525.646,274.896 529.186,275.524"
         stroke="#0071bc"
         fill="none"
         stroke-width="0.5"
         id="polyline2257" />
      <polyline
         stroke-linecap="round"
         stroke-linejoin="round"
         points="79.0157,275.524 78.4427,277.287 76.9428,278.377 75.0887,278.377 73.5887,277.287 73.0157,275.524 73.5887,273.76 75.0887,272.67 76.9428,272.67 78.4427,273.76 79.0157,275.524"
         stroke="#0071bc"
         fill="none"
         stroke-width="0.5"
         id="polyline2259" />
      <polyline
         stroke-linecap="round"
         stroke-linejoin="round"
         points="82.5561,274.91 81.9831,276.673 80.4831,277.763 78.629,277.763 77.129,276.673 76.5561,274.91 77.129,273.146 78.629,272.057 80.4831,272.057 81.9831,273.146 82.5561,274.91"
         stroke="#0071bc"
         fill="none"
         stroke-width="0.5"
         id="polyline2261" />
      <polyline
         stroke-linecap="round"
         stroke-linejoin="round"
         points="86.0965,274.221 85.5235,275.984 84.0235,277.074 82.1694,277.074 80.6694,275.984 80.0965,274.221 80.6694,272.457 82.1694,271.368 84.0235,271.368 85.5235,272.457 86.0965,274.221"
         stroke="#0071bc"
         fill="none"
         stroke-width="0.5"
         id="polyline2263" />
      <polyline
         stroke-linecap="round"
         stroke-linejoin="round"
         points="89.6369,273.456 89.0639,275.219 87.5639,276.309 85.7098,276.309 84.2098,275.219 83.6369,273.456 84.2098,271.692 85.7098,270.603 87.5639,270.603 89.0639,271.692 89.6369,273.456"
         stroke="#0071bc"
         fill="none"
         stroke-width="0.5"
         id="polyline2265" />
      <polyline
         stroke-linecap="round"
         stroke-linejoin="round"
         points="93.1773,272.608 92.6043,274.372 91.1043,275.461 89.2502,275.461 87.7502,274.372 87.1773,272.608 87.7502,270.845 89.2502,269.755 91.1043,269.755 92.6043,270.845 93.1773,272.608"
         stroke="#0071bc"
         fill="none"
         stroke-width="0.5"
         id="polyline2267" />
      <polyline
         stroke-linecap="round"
         stroke-linejoin="round"
         points="96.7177,271.671 96.1447,273.435 94.6447,274.524 92.7906,274.524 91.2906,273.435 90.7177,271.671 91.2906,269.908 92.7906,268.818 94.6447,268.818 96.1447,269.908 96.7177,271.671"
         stroke="#0071bc"
         fill="none"
         stroke-width="0.5"
         id="polyline2269" />
      <polyline
         stroke-linecap="round"
         stroke-linejoin="round"
         points="100.258,270.638 99.6851,272.401 98.1851,273.491 96.331,273.491 94.831,272.401 94.2581,270.638 94.831,268.875 96.331,267.785 98.1851,267.785 99.6851,268.875 100.258,270.638"
         stroke="#0071bc"
         fill="none"
         stroke-width="0.5"
         id="polyline2271" />
      <polyline
         stroke-linecap="round"
         stroke-linejoin="round"
         points="103.798,269.501 103.226,271.264 101.726,272.354 99.8714,272.354 98.3714,271.264 97.7985,269.501 98.3714,267.738 99.8714,266.648 101.726,266.648 103.226,267.738 103.798,269.501"
         stroke="#0071bc"
         fill="none"
         stroke-width="0.5"
         id="polyline2273" />
      <polyline
         stroke-linecap="round"
         stroke-linejoin="round"
         points="107.339,268.253 106.766,270.016 105.266,271.106 103.412,271.106 101.912,270.016 101.339,268.253 101.912,266.489 103.412,265.399 105.266,265.399 106.766,266.489 107.339,268.253"
         stroke="#0071bc"
         fill="none"
         stroke-width="0.5"
         id="polyline2275" />
      <polyline
         stroke-linecap="round"
         stroke-linejoin="round"
         points="110.879,266.885 110.306,268.649 108.806,269.738 106.952,269.738 105.452,268.649 104.879,266.885 105.452,265.122 106.952,264.032 108.806,264.032 110.306,265.122 110.879,266.885"
         stroke="#0071bc"
         fill="none"
         stroke-width="0.5"
         id="polyline2277" />
      <polyline
         stroke-linecap="round"
         stroke-linejoin="round"
         points="114.42,265.391 113.847,267.154 112.347,268.244 110.493,268.244 108.993,267.154 108.42,265.391 108.993,263.628 110.493,262.538 112.347,262.538 113.847,263.628 114.42,265.391"
         stroke="#0071bc"
         fill="none"
         stroke-width="0.5"
         id="polyline2279" />
      <polyline
         stroke-linecap="round"
         stroke-linejoin="round"
         points="117.96,263.762 117.387,265.525 115.887,266.615 114.033,266.615 112.533,265.525 111.96,263.762 112.533,261.998 114.033,260.908 115.887,260.908 117.387,261.998 117.96,263.762"
         stroke="#0071bc"
         fill="none"
         stroke-width="0.5"
         id="polyline2281" />
      <polyline
         stroke-linecap="round"
         stroke-linejoin="round"
         points="121.5,261.989 120.928,263.753 119.428,264.842 117.573,264.842 116.073,263.753 115.5,261.989 116.073,260.226 117.573,259.136 119.428,259.136 120.928,260.226 121.5,261.989"
         stroke="#0071bc"
         fill="none"
         stroke-width="0.5"
         id="polyline2283" />
      <polyline
         stroke-linecap="round"
         stroke-linejoin="round"
         points="125.041,260.066 124.468,261.829 122.968,262.919 121.114,262.919 119.614,261.829 119.041,260.066 119.614,258.303 121.114,257.213 122.968,257.213 124.468,258.303 125.041,260.066"
         stroke="#0071bc"
         fill="none"
         stroke-width="0.5"
         id="polyline2285" />
      <polyline
         stroke-linecap="round"
         stroke-linejoin="round"
         points="128.581,257.984 128.008,259.747 126.508,260.837 124.654,260.837 123.154,259.747 122.581,257.984 123.154,256.22 124.654,255.13 126.508,255.13 128.008,256.22 128.581,257.984"
         stroke="#0071bc"
         fill="none"
         stroke-width="0.5"
         id="polyline2287" />
      <polyline
         stroke-linecap="round"
         stroke-linejoin="round"
         points="132.122,255.734 131.549,257.498 130.049,258.587 128.195,258.587 126.695,257.498 126.122,255.734 126.695,253.971 128.195,252.881 130.049,252.881 131.549,253.971 132.122,255.734"
         stroke="#0071bc"
         fill="none"
         stroke-width="0.5"
         id="polyline2289" />
      <polyline
         stroke-linecap="round"
         stroke-linejoin="round"
         points="135.662,253.31 135.089,255.074 133.589,256.164 131.735,256.164 130.235,255.074 129.662,253.31 130.235,251.547 131.735,250.457 133.589,250.457 135.089,251.547 135.662,253.31"
         stroke="#0071bc"
         fill="none"
         stroke-width="0.5"
         id="polyline2291" />
      <polyline
         stroke-linecap="round"
         stroke-linejoin="round"
         points="139.202,250.705 138.629,252.468 137.129,253.558 135.275,253.558 133.775,252.468 133.202,250.705 133.775,248.941 135.275,247.852 137.129,247.852 138.629,248.941 139.202,250.705"
         stroke="#0071bc"
         fill="none"
         stroke-width="0.5"
         id="polyline2293" />
      <polyline
         stroke-linecap="round"
         stroke-linejoin="round"
         points="142.743,247.911 142.17,249.674 140.67,250.764 138.816,250.764 137.316,249.674 136.743,247.911 137.316,246.147 138.816,245.057 140.67,245.057 142.17,246.147 142.743,247.911"
         stroke="#0071bc"
         fill="none"
         stroke-width="0.5"
         id="polyline2295" />
      <polyline
         stroke-linecap="round"
         stroke-linejoin="round"
         points="146.283,244.921 145.71,246.685 144.21,247.775 142.356,247.775 140.856,246.685 140.283,244.921 140.856,243.158 142.356,242.068 144.21,242.068 145.71,243.158 146.283,244.921"
         stroke="#0071bc"
         fill="none"
         stroke-width="0.5"
         id="polyline2297" />
      <polyline
         stroke-linecap="round"
         stroke-linejoin="round"
         points="149.824,241.731 149.251,243.495 147.751,244.584 145.897,244.584 144.397,243.495 143.824,241.731 144.397,239.968 145.897,238.878 147.751,238.878 149.251,239.968 149.824,241.731"
         stroke="#0071bc"
         fill="none"
         stroke-width="0.5"
         id="polyline2299" />
      <polyline
         stroke-linecap="round"
         stroke-linejoin="round"
         points="153.364,238.335 152.791,240.098 151.291,241.188 149.437,241.188 147.937,240.098 147.364,238.335 147.937,236.572 149.437,235.482 151.291,235.482 152.791,236.572 153.364,238.335"
         stroke="#0071bc"
         fill="none"
         stroke-width="0.5"
         id="polyline2301" />
      <polyline
         stroke-linecap="round"
         stroke-linejoin="round"
         points="156.904,234.729 156.331,236.492 154.831,237.582 152.977,237.582 151.477,236.492 150.904,234.729 151.477,232.965 152.977,231.875 154.831,231.875 156.331,232.965 156.904,234.729"
         stroke="#0071bc"
         fill="none"
         stroke-width="0.5"
         id="polyline2303" />
      <polyline
         stroke-linecap="round"
         stroke-linejoin="round"
         points="160.445,230.908 159.872,232.672 158.372,233.762 156.518,233.762 155.018,232.672 154.445,230.908 155.018,229.145 156.518,228.055 158.372,228.055 159.872,229.145 160.445,230.908"
         stroke="#0071bc"
         fill="none"
         stroke-width="0.5"
         id="polyline2305" />
      <polyline
         stroke-linecap="round"
         stroke-linejoin="round"
         points="163.985,226.872 163.412,228.635 161.912,229.725 160.058,229.725 158.558,228.635 157.985,226.872 158.558,225.109 160.058,224.019 161.912,224.019 163.412,225.109 163.985,226.872"
         stroke="#0071bc"
         fill="none"
         stroke-width="0.5"
         id="polyline2307" />
      <polyline
         stroke-linecap="round"
         stroke-linejoin="round"
         points="167.526,222.618 166.953,224.381 165.453,225.471 163.599,225.471 162.099,224.381 161.526,222.618 162.099,220.854 163.599,219.764 165.453,219.764 166.953,220.854 167.526,222.618"
         stroke="#0071bc"
         fill="none"
         stroke-width="0.5"
         id="polyline2309" />
      <polyline
         stroke-linecap="round"
         stroke-linejoin="round"
         points="171.066,218.146 170.493,219.909 168.993,220.999 167.139,220.999 165.639,219.909 165.066,218.146 165.639,216.382 167.139,215.292 168.993,215.292 170.493,216.382 171.066,218.146"
         stroke="#0071bc"
         fill="none"
         stroke-width="0.5"
         id="polyline2311" />
      <polyline
         stroke-linecap="round"
         stroke-linejoin="round"
         points="174.606,213.457 174.033,215.22 172.533,216.31 170.679,216.31 169.179,215.22 168.606,213.457 169.179,211.693 170.679,210.603 172.533,210.603 174.033,211.693 174.606,213.457"
         stroke="#0071bc"
         fill="none"
         stroke-width="0.5"
         id="polyline2313" />
      <polyline
         stroke-linecap="round"
         stroke-linejoin="round"
         points="178.147,208.553 177.574,210.316 176.074,211.406 174.22,211.406 172.72,210.316 172.147,208.553 172.72,206.79 174.22,205.7 176.074,205.7 177.574,206.79 178.147,208.553"
         stroke="#0071bc"
         fill="none"
         stroke-width="0.5"
         id="polyline2315" />
      <polyline
         stroke-linecap="round"
         stroke-linejoin="round"
         points="181.687,203.439 181.114,205.202 179.614,206.292 177.76,206.292 176.26,205.202 175.687,203.439 176.26,201.676 177.76,200.586 179.614,200.586 181.114,201.676 181.687,203.439"
         stroke="#0071bc"
         fill="none"
         stroke-width="0.5"
         id="polyline2317" />
      <polyline
         stroke-linecap="round"
         stroke-linejoin="round"
         points="185.228,198.119 184.655,199.883 183.155,200.972 181.301,200.972 179.801,199.883 179.228,198.119 179.801,196.356 181.301,195.266 183.155,195.266 184.655,196.356 185.228,198.119"
         stroke="#0071bc"
         fill="none"
         stroke-width="0.5"
         id="polyline2319" />
      <polyline
         stroke-linecap="round"
         stroke-linejoin="round"
         points="188.768,192.601 188.195,194.364 186.695,195.454 184.841,195.454 183.341,194.364 182.768,192.601 183.341,190.838 184.841,189.748 186.695,189.748 188.195,190.838 188.768,192.601"
         stroke="#0071bc"
         fill="none"
         stroke-width="0.5"
         id="polyline2321" />
      <polyline
         stroke-linecap="round"
         stroke-linejoin="round"
         points="192.308,186.893 191.735,188.656 190.235,189.746 188.381,189.746 186.881,188.656 186.308,186.893 186.881,185.129 188.381,184.04 190.235,184.04 191.735,185.129 192.308,186.893"
         stroke="#0071bc"
         fill="none"
         stroke-width="0.5"
         id="polyline2323" />
      <polyline
         stroke-linecap="round"
         stroke-linejoin="round"
         points="195.849,181.004 195.276,182.768 193.776,183.857 191.922,183.857 190.422,182.768 189.849,181.004 190.422,179.241 191.922,178.151 193.776,178.151 195.276,179.241 195.849,181.004"
         stroke="#0071bc"
         fill="none"
         stroke-width="0.5"
         id="polyline2325" />
      <polyline
         stroke-linecap="round"
         stroke-linejoin="round"
         points="199.389,174.947 198.816,176.711 197.316,177.801 195.462,177.801 193.962,176.711 193.389,174.947 193.962,173.184 195.462,172.094 197.316,172.094 198.816,173.184 199.389,174.947"
         stroke="#0071bc"
         fill="none"
         stroke-width="0.5"
         id="polyline2327" />
      <polyline
         stroke-linecap="round"
         stroke-linejoin="round"
         points="202.93,168.736 202.357,170.499 200.857,171.589 199.002,171.589 197.502,170.499 196.93,168.736 197.502,166.972 199.002,165.883 200.857,165.883 202.357,166.972 202.93,168.736"
         stroke="#0071bc"
         fill="none"
         stroke-width="0.5"
         id="polyline2329" />
      <polyline
         stroke-linecap="round"
         stroke-linejoin="round"
         points="206.47,162.384 205.897,164.147 204.397,165.237 202.543,165.237 201.043,164.147 200.47,162.384 201.043,160.621 202.543,159.531 204.397,159.531 205.897,160.621 206.47,162.384"
         stroke="#0071bc"
         fill="none"
         stroke-width="0.5"
         id="polyline2331" />
      <polyline
         stroke-linecap="round"
         stroke-linejoin="round"
         points="210.01,155.909 209.437,157.673 207.937,158.762 206.083,158.762 204.583,157.673 204.01,155.909 204.583,154.146 206.083,153.056 207.937,153.056 209.437,154.146 210.01,155.909"
         stroke="#0071bc"
         fill="none"
         stroke-width="0.5"
         id="polyline2333" />
      <polyline
         stroke-linecap="round"
         stroke-linejoin="round"
         points="213.551,149.329 212.978,151.093 211.478,152.183 209.624,152.183 208.124,151.093 207.551,149.329 208.124,147.566 209.624,146.476 211.478,146.476 212.978,147.566 213.551,149.329"
         stroke="#0071bc"
         fill="none"
         stroke-width="0.5"
         id="polyline2335" />
      <polyline
         stroke-linecap="round"
         stroke-linejoin="round"
         points="217.091,142.665 216.518,144.428 215.018,145.518 213.164,145.518 211.664,144.428 211.091,142.665 211.664,140.901 213.164,139.811 215.018,139.811 216.518,140.901 217.091,142.665"
         stroke="#0071bc"
         fill="none"
         stroke-width="0.5"
         id="polyline2337" />
      <polyline
         stroke-linecap="round"
         stroke-linejoin="round"
         points="220.632,135.936 220.059,137.7 218.559,138.789 216.704,138.789 215.204,137.7 214.632,135.936 215.204,134.173 216.704,133.083 218.559,133.083 220.059,134.173 220.632,135.936"
         stroke="#0071bc"
         fill="none"
         stroke-width="0.5"
         id="polyline2339" />
      <polyline
         stroke-linecap="round"
         stroke-linejoin="round"
         points="224.172,129.167 223.599,130.93 222.099,132.02 220.245,132.02 218.745,130.93 218.172,129.167 218.745,127.403 220.245,126.314 222.099,126.314 223.599,127.403 224.172,129.167"
         stroke="#0071bc"
         fill="none"
         stroke-width="0.5"
         id="polyline2341" />
      <polyline
         stroke-linecap="round"
         stroke-linejoin="round"
         points="227.712,122.38 227.139,124.144 225.639,125.234 223.785,125.234 222.285,124.144 221.712,122.38 222.285,120.617 223.785,119.527 225.639,119.527 227.139,120.617 227.712,122.38"
         stroke="#0071bc"
         fill="none"
         stroke-width="0.5"
         id="polyline2343" />
      <polyline
         stroke-linecap="round"
         stroke-linejoin="round"
         points="231.253,115.603 230.68,117.366 229.18,118.456 227.326,118.456 225.826,117.366 225.253,115.603 225.826,113.839 227.326,112.749 229.18,112.749 230.68,113.839 231.253,115.603"
         stroke="#0071bc"
         fill="none"
         stroke-width="0.5"
         id="polyline2345" />
      <polyline
         stroke-linecap="round"
         stroke-linejoin="round"
         points="234.793,108.86 234.22,110.623 232.72,111.713 230.866,111.713 229.366,110.623 228.793,108.86 229.366,107.096 230.866,106.006 232.72,106.006 234.22,107.096 234.793,108.86"
         stroke="#0071bc"
         fill="none"
         stroke-width="0.5"
         id="polyline2347" />
      <polyline
         stroke-linecap="round"
         stroke-linejoin="round"
         points="238.333,102.178 237.761,103.942 236.261,105.032 234.406,105.032 232.906,103.942 232.333,102.178 232.906,100.415 234.406,99.3253 236.261,99.3253 237.761,100.415 238.333,102.178"
         stroke="#0071bc"
         fill="none"
         stroke-width="0.5"
         id="polyline2349" />
      <polyline
         stroke-linecap="round"
         stroke-linejoin="round"
         points="241.874,95.5874 241.301,97.3507 239.801,98.4405 237.947,98.4405 236.447,97.3507 235.874,95.5874 236.447,93.824 237.947,92.7342 239.801,92.7342 241.301,93.824 241.874,95.5874"
         stroke="#0071bc"
         fill="none"
         stroke-width="0.5"
         id="polyline2351" />
      <polyline
         stroke-linecap="round"
         stroke-linejoin="round"
         points="245.414,89.1149 244.841,90.8783 243.341,91.9681 241.487,91.9681 239.987,90.8783 239.414,89.1149 239.987,87.3516 241.487,86.2617 243.341,86.2617 244.841,87.3516 245.414,89.1149"
         stroke="#0071bc"
         fill="none"
         stroke-width="0.5"
         id="polyline2353" />
      <polyline
         stroke-linecap="round"
         stroke-linejoin="round"
         points="248.955,82.7901 248.382,84.5535 246.882,85.6433 245.028,85.6433 243.528,84.5535 242.955,82.7901 243.528,81.0267 245.028,79.9369 246.882,79.9369 248.382,81.0267 248.955,82.7901"
         stroke="#0071bc"
         fill="none"
         stroke-width="0.5"
         id="polyline2355" />
      <polyline
         stroke-linecap="round"
         stroke-linejoin="round"
         points="252.495,76.6421 251.922,78.4055 250.422,79.4953 248.568,79.4953 247.068,78.4055 246.495,76.6421 247.068,74.8788 248.568,73.789 250.422,73.789 251.922,74.8788 252.495,76.6421"
         stroke="#0071bc"
         fill="none"
         stroke-width="0.5"
         id="polyline2357" />
      <polyline
         stroke-linecap="round"
         stroke-linejoin="round"
         points="256.035,70.7002 255.463,72.4636 253.963,73.5534 252.108,73.5534 250.608,72.4636 250.035,70.7002 250.608,68.9369 252.108,67.8471 253.963,67.8471 255.463,68.9369 256.035,70.7002"
         stroke="#0071bc"
         fill="none"
         stroke-width="0.5"
         id="polyline2359" />
      <polyline
         stroke-linecap="round"
         stroke-linejoin="round"
         points="259.576,64.9934 259.003,66.7568 257.503,67.8466 255.649,67.8466 254.149,66.7568 253.576,64.9934 254.149,63.2301 255.649,62.1403 257.503,62.1403 259.003,63.2301 259.576,64.9934"
         stroke="#0071bc"
         fill="none"
         stroke-width="0.5"
         id="polyline2361" />
      <polyline
         stroke-linecap="round"
         stroke-linejoin="round"
         points="263.116,59.5504 262.543,61.3137 261.043,62.4035 259.189,62.4035 257.689,61.3137 257.116,59.5504 257.689,57.787 259.189,56.6972 261.043,56.6972 262.543,57.787 263.116,59.5504"
         stroke="#0071bc"
         fill="none"
         stroke-width="0.5"
         id="polyline2363" />
      <polyline
         stroke-linecap="round"
         stroke-linejoin="round"
         points="266.657,54.399 266.084,56.1623 264.584,57.2521 262.73,57.2521 261.23,56.1623 260.657,54.399 261.23,52.6356 262.73,51.5458 264.584,51.5458 266.084,52.6356 266.657,54.399"
         stroke="#0071bc"
         fill="none"
         stroke-width="0.5"
         id="polyline2365" />
      <polyline
         stroke-linecap="round"
         stroke-linejoin="round"
         points="270.197,49.5663 269.624,51.3297 268.124,52.4195 266.27,52.4195 264.77,51.3297 264.197,49.5663 264.77,47.8029 266.27,46.7131 268.124,46.7131 269.624,47.8029 270.197,49.5663"
         stroke="#0071bc"
         fill="none"
         stroke-width="0.5"
         id="polyline2367" />
      <polyline
         stroke-linecap="round"
         stroke-linejoin="round"
         points="273.737,45.0784 273.164,46.8418 271.664,47.9316 269.81,47.9316 268.31,46.8418 267.737,45.0784 268.31,43.3151 269.81,42.2253 271.664,42.2253 273.164,43.3151 273.737,45.0784"
         stroke="#0071bc"
         fill="none"
         stroke-width="0.5"
         id="polyline2369" />
      <polyline
         stroke-linecap="round"
         stroke-linejoin="round"
         points="277.278,40.96 276.705,42.7233 275.205,43.8131 273.351,43.8131 271.851,42.7233 271.278,40.96 271.851,39.1966 273.351,38.1068 275.205,38.1068 276.705,39.1966 277.278,40.96"
         stroke="#0071bc"
         fill="none"
         stroke-width="0.5"
         id="polyline2371" />
      <polyline
         stroke-linecap="round"
         stroke-linejoin="round"
         points="280.818,37.2342 280.245,38.9975 278.745,40.0873 276.891,40.0873 275.391,38.9975 274.818,37.2342 275.391,35.4708 276.891,34.381 278.745,34.381 280.245,35.4708 280.818,37.2342"
         stroke="#0071bc"
         fill="none"
         stroke-width="0.5"
         id="polyline2373" />
      <polyline
         stroke-linecap="round"
         stroke-linejoin="round"
         points="284.359,33.9223 283.786,35.6857 282.286,36.7755 280.432,36.7755 278.932,35.6857 278.359,33.9223 278.932,32.159 280.432,31.0692 282.286,31.0692 283.786,32.159 284.359,33.9223"
         stroke="#0071bc"
         fill="none"
         stroke-width="0.5"
         id="polyline2375" />
      <polyline
         stroke-linecap="round"
         stroke-linejoin="round"
         points="287.899,31.044 287.326,32.8074 285.826,33.8972 283.972,33.8972 282.472,32.8074 281.899,31.044 282.472,29.2807 283.972,28.1909 285.826,28.1909 287.326,29.2807 287.899,31.044"
         stroke="#0071bc"
         fill="none"
         stroke-width="0.5"
         id="polyline2377" />
      <polyline
         stroke-linecap="round"
         stroke-linejoin="round"
         points="291.439,28.6165 290.866,30.3799 289.366,31.4697 287.512,31.4697 286.012,30.3799 285.439,28.6165 286.012,26.8531 287.512,25.7633 289.366,25.7633 290.866,26.8531 291.439,28.6165"
         stroke="#0071bc"
         fill="none"
         stroke-width="0.5"
         id="polyline2379" />
      <polyline
         stroke-linecap="round"
         stroke-linejoin="round"
         points="294.98,26.6548 294.407,28.4182 292.907,29.508 291.053,29.508 289.553,28.4182 288.98,26.6548 289.553,24.8914 291.053,23.8016 292.907,23.8016 294.407,24.8914 294.98,26.6548"
         stroke="#0071bc"
         fill="none"
         stroke-width="0.5"
         id="polyline2381" />
      <polyline
         stroke-linecap="round"
         stroke-linejoin="round"
         points="298.52,25.1715 297.947,26.9348 296.447,28.0247 294.593,28.0247 293.093,26.9348 292.52,25.1715 293.093,23.4081 294.593,22.3183 296.447,22.3183 297.947,23.4081 298.52,25.1715"
         stroke="#0071bc"
         fill="none"
         stroke-width="0.5"
         id="polyline2383" />
      <polyline
         stroke-linecap="round"
         stroke-linejoin="round"
         points="302.061,24.1765 301.488,25.9398 299.988,27.0296 298.134,27.0296 296.634,25.9398 296.061,24.1765 296.634,22.4131 298.134,21.3233 299.988,21.3233 301.488,22.4131 302.061,24.1765"
         stroke="#0071bc"
         fill="none"
         stroke-width="0.5"
         id="polyline2385" />
      <polyline
         stroke-linecap="round"
         stroke-linejoin="round"
         points="305.601,23.6769 305.028,25.4402 303.528,26.5301 301.674,26.5301 300.174,25.4402 299.601,23.6769 300.174,21.9136 301.674,20.8237 303.528,20.8237 305.028,21.9136 305.601,23.6769"
         stroke="#0071bc"
         fill="none"
         stroke-width="0.5"
         id="polyline2387" />
      <polyline
         stroke-linecap="round"
         stroke-linejoin="round"
         points="309.141,23.6772 308.568,25.4406 307.068,26.5304 305.214,26.5304 303.714,25.4406 303.141,23.6772 303.714,21.9138 305.214,20.824 307.068,20.824 308.568,21.9138 309.141,23.6772"
         stroke="#0071bc"
         fill="none"
         stroke-width="0.5"
         id="polyline2389" />
      <polyline
         stroke-linecap="round"
         stroke-linejoin="round"
         points="312.682,24.1788 312.109,25.9422 310.609,27.032 308.755,27.032 307.255,25.9422 306.682,24.1788 307.255,22.4155 308.755,21.3257 310.609,21.3257 312.109,22.4155 312.682,24.1788"
         stroke="#0071bc"
         fill="none"
         stroke-width="0.5"
         id="polyline2391" />
      <polyline
         stroke-linecap="round"
         stroke-linejoin="round"
         points="316.222,25.1803 315.649,26.9436 314.149,28.0334 312.295,28.0334 310.795,26.9436 310.222,25.1803 310.795,23.4169 312.295,22.3271 314.149,22.3271 315.649,23.4169 316.222,25.1803"
         stroke="#0071bc"
         fill="none"
         stroke-width="0.5"
         id="polyline2393" />
      <polyline
         stroke-linecap="round"
         stroke-linejoin="round"
         points="319.763,26.6771 319.19,28.4405 317.69,29.5303 315.836,29.5303 314.336,28.4405 313.763,26.6771 314.336,24.9138 315.836,23.824 317.69,23.824 319.19,24.9138 319.763,26.6771"
         stroke="#0071bc"
         fill="none"
         stroke-width="0.5"
         id="polyline2395" />
      <polyline
         stroke-linecap="round"
         stroke-linejoin="round"
         points="323.303,28.662 322.73,30.4254 321.23,31.5152 319.376,31.5152 317.876,30.4254 317.303,28.662 317.876,26.8986 319.376,25.8088 321.23,25.8088 322.73,26.8986 323.303,28.662"
         stroke="#0071bc"
         fill="none"
         stroke-width="0.5"
         id="polyline2397" />
      <polyline
         stroke-linecap="round"
         stroke-linejoin="round"
         points="326.843,31.1246 326.27,32.8879 324.77,33.9778 322.916,33.9778 321.416,32.8879 320.843,31.1246 321.416,29.3612 322.916,28.2714 324.77,28.2714 326.27,29.3612 326.843,31.1246"
         stroke="#0071bc"
         fill="none"
         stroke-width="0.5"
         id="polyline2399" />
      <polyline
         stroke-linecap="round"
         stroke-linejoin="round"
         points="330.384,34.0518 329.811,35.8152 328.311,36.905 326.457,36.905 324.957,35.8152 324.384,34.0518 324.957,32.2885 326.457,31.1987 328.311,31.1987 329.811,32.2885 330.384,34.0518"
         stroke="#0071bc"
         fill="none"
         stroke-width="0.5"
         id="polyline2401" />
      <polyline
         stroke-linecap="round"
         stroke-linejoin="round"
         points="333.924,37.4279 333.351,39.1913 331.851,40.2811 329.997,40.2811 328.497,39.1913 327.924,37.4279 328.497,35.6646 329.997,34.5748 331.851,34.5748 333.351,35.6646 333.924,37.4279"
         stroke="#0071bc"
         fill="none"
         stroke-width="0.5"
         id="polyline2403" />
      <polyline
         stroke-linecap="round"
         stroke-linejoin="round"
         points="337.465,41.2344 336.892,42.9978 335.392,44.0876 333.537,44.0876 332.037,42.9978 331.465,41.2344 332.037,39.4711 333.537,38.3813 335.392,38.3813 336.892,39.4711 337.465,41.2344"
         stroke="#0071bc"
         fill="none"
         stroke-width="0.5"
         id="polyline2405" />
      <polyline
         stroke-linecap="round"
         stroke-linejoin="round"
         points="341.005,45.4506 340.432,47.214 338.932,48.3038 337.078,48.3038 335.578,47.214 335.005,45.4506 335.578,43.6873 337.078,42.5974 338.932,42.5974 340.432,43.6873 341.005,45.4506"
         stroke="#0071bc"
         fill="none"
         stroke-width="0.5"
         id="polyline2407" />
      <polyline
         stroke-linecap="round"
         stroke-linejoin="round"
         points="344.545,50.0534 343.972,51.8168 342.472,52.9066 340.618,52.9066 339.118,51.8168 338.545,50.0534 339.118,48.2901 340.618,47.2003 342.472,47.2003 343.972,48.2901 344.545,50.0534"
         stroke="#0071bc"
         fill="none"
         stroke-width="0.5"
         id="polyline2409" />
      <polyline
         stroke-linecap="round"
         stroke-linejoin="round"
         points="348.086,55.0178 347.513,56.7811 346.013,57.8709 344.159,57.8709 342.659,56.7811 342.086,55.0178 342.659,53.2544 344.159,52.1646 346.013,52.1646 347.513,53.2544 348.086,55.0178"
         stroke="#0071bc"
         fill="none"
         stroke-width="0.5"
         id="polyline2411" />
      <polyline
         stroke-linecap="round"
         stroke-linejoin="round"
         points="351.626,60.3168 351.053,62.0802 349.553,63.17 347.699,63.17 346.199,62.0802 345.626,60.3168 346.199,58.5535 347.699,57.4637 349.553,57.4637 351.053,58.5535 351.626,60.3168"
         stroke="#0071bc"
         fill="none"
         stroke-width="0.5"
         id="polyline2413" />
      <polyline
         stroke-linecap="round"
         stroke-linejoin="round"
         points="355.167,65.9222 354.594,67.6856 353.094,68.7754 351.24,68.7754 349.74,67.6856 349.167,65.9222 349.74,64.1589 351.24,63.0691 353.094,63.0691 354.594,64.1589 355.167,65.9222"
         stroke="#0071bc"
         fill="none"
         stroke-width="0.5"
         id="polyline2415" />
      <polyline
         stroke-linecap="round"
         stroke-linejoin="round"
         points="358.707,71.8044 358.134,73.5677 356.634,74.6576 354.78,74.6576 353.28,73.5677 352.707,71.8044 353.28,70.041 354.78,68.9512 356.634,68.9512 358.134,70.041 358.707,71.8044"
         stroke="#0071bc"
         fill="none"
         stroke-width="0.5"
         id="polyline2417" />
      <polyline
         stroke-linecap="round"
         stroke-linejoin="round"
         points="362.247,77.9326 361.674,79.696 360.174,80.7858 358.32,80.7858 356.82,79.696 356.247,77.9326 356.82,76.1693 358.32,75.0795 360.174,75.0795 361.674,76.1693 362.247,77.9326"
         stroke="#0071bc"
         fill="none"
         stroke-width="0.5"
         id="polyline2419" />
      <polyline
         stroke-linecap="round"
         stroke-linejoin="round"
         points="365.788,84.2756 365.215,86.039 363.715,87.1288 361.861,87.1288 360.361,86.039 359.788,84.2756 360.361,82.5122 361.861,81.4224 363.715,81.4224 365.215,82.5122 365.788,84.2756"
         stroke="#0071bc"
         fill="none"
         stroke-width="0.5"
         id="polyline2421" />
      <polyline
         stroke-linecap="round"
         stroke-linejoin="round"
         points="369.328,90.8015 368.755,92.5649 367.255,93.6547 365.401,93.6547 363.901,92.5649 363.328,90.8015 363.901,89.0382 365.401,87.9484 367.255,87.9484 368.755,89.0382 369.328,90.8015"
         stroke="#0071bc"
         fill="none"
         stroke-width="0.5"
         id="polyline2423" />
      <polyline
         stroke-linecap="round"
         stroke-linejoin="round"
         points="372.868,97.4785 372.296,99.2418 370.796,100.332 368.941,100.332 367.441,99.2418 366.868,97.4785 367.441,95.7151 368.941,94.6253 370.796,94.6253 372.296,95.7151 372.868,97.4785"
         stroke="#0071bc"
         fill="none"
         stroke-width="0.5"
         id="polyline2425" />
      <polyline
         stroke-linecap="round"
         stroke-linejoin="round"
         points="376.409,104.275 375.836,106.038 374.336,107.128 372.482,107.128 370.982,106.038 370.409,104.275 370.982,102.511 372.482,101.421 374.336,101.421 375.836,102.511 376.409,104.275"
         stroke="#0071bc"
         fill="none"
         stroke-width="0.5"
         id="polyline2427" />
      <polyline
         stroke-linecap="round"
         stroke-linejoin="round"
         points="379.949,111.158 379.376,112.922 377.876,114.012 376.022,114.012 374.522,112.922 373.949,111.158 374.522,109.395 376.022,108.305 377.876,108.305 379.376,109.395 379.949,111.158"
         stroke="#0071bc"
         fill="none"
         stroke-width="0.5"
         id="polyline2429" />
      <polyline
         stroke-linecap="round"
         stroke-linejoin="round"
         points="383.49,118.099 382.917,119.863 381.417,120.952 379.563,120.952 378.063,119.863 377.49,118.099 378.063,116.336 379.563,115.246 381.417,115.246 382.917,116.336 383.49,118.099"
         stroke="#0071bc"
         fill="none"
         stroke-width="0.5"
         id="polyline2431" />
      <polyline
         stroke-linecap="round"
         stroke-linejoin="round"
         points="387.03,125.067 386.457,126.83 384.957,127.92 383.103,127.92 381.603,126.83 381.03,125.067 381.603,123.304 383.103,122.214 384.957,122.214 386.457,123.304 387.03,125.067"
         stroke="#0071bc"
         fill="none"
         stroke-width="0.5"
         id="polyline2433" />
      <polyline
         stroke-linecap="round"
         stroke-linejoin="round"
         points="390.57,132.033 389.998,133.796 388.498,134.886 386.643,134.886 385.143,133.796 384.57,132.033 385.143,130.27 386.643,129.18 388.498,129.18 389.998,130.27 390.57,132.033"
         stroke="#0071bc"
         fill="none"
         stroke-width="0.5"
         id="polyline2435" />
      <polyline
         stroke-linecap="round"
         stroke-linejoin="round"
         points="394.111,138.969 393.538,140.733 392.038,141.823 390.184,141.823 388.684,140.733 388.111,138.969 388.684,137.206 390.184,136.116 392.038,136.116 393.538,137.206 394.111,138.969"
         stroke="#0071bc"
         fill="none"
         stroke-width="0.5"
         id="polyline2437" />
      <polyline
         stroke-linecap="round"
         stroke-linejoin="round"
         points="397.651,145.85 397.078,147.614 395.578,148.704 393.724,148.704 392.224,147.614 391.651,145.85 392.224,144.087 393.724,142.997 395.578,142.997 397.078,144.087 397.651,145.85"
         stroke="#0071bc"
         fill="none"
         stroke-width="0.5"
         id="polyline2439" />
      <polyline
         stroke-linecap="round"
         stroke-linejoin="round"
         points="401.192,152.651 400.619,154.415 399.119,155.504 397.265,155.504 395.765,154.415 395.192,152.651 395.765,150.888 397.265,149.798 399.119,149.798 400.619,150.888 401.192,152.651"
         stroke="#0071bc"
         fill="none"
         stroke-width="0.5"
         id="polyline2441" />
      <polyline
         stroke-linecap="round"
         stroke-linejoin="round"
         points="404.732,159.349 404.159,161.112 402.659,162.202 400.805,162.202 399.305,161.112 398.732,159.349 399.305,157.586 400.805,156.496 402.659,156.496 404.159,157.586 404.732,159.349"
         stroke="#0071bc"
         fill="none"
         stroke-width="0.5"
         id="polyline2443" />
      <polyline
         stroke-linecap="round"
         stroke-linejoin="round"
         points="408.272,165.923 407.699,167.686 406.199,168.776 404.345,168.776 402.845,167.686 402.272,165.923 402.845,164.16 404.345,163.07 406.199,163.07 407.699,164.16 408.272,165.923"
         stroke="#0071bc"
         fill="none"
         stroke-width="0.5"
         id="polyline2445" />
      <polyline
         stroke-linecap="round"
         stroke-linejoin="round"
         points="411.813,172.354 411.24,174.117 409.74,175.207 407.886,175.207 406.386,174.117 405.813,172.354 406.386,170.591 407.886,169.501 409.74,169.501 411.24,170.591 411.813,172.354"
         stroke="#0071bc"
         fill="none"
         stroke-width="0.5"
         id="polyline2447" />
      <polyline
         stroke-linecap="round"
         stroke-linejoin="round"
         points="415.353,178.625 414.78,180.388 413.28,181.478 411.426,181.478 409.926,180.388 409.353,178.625 409.926,176.862 411.426,175.772 413.28,175.772 414.78,176.862 415.353,178.625"
         stroke="#0071bc"
         fill="none"
         stroke-width="0.5"
         id="polyline2449" />
      <polyline
         stroke-linecap="round"
         stroke-linejoin="round"
         points="418.894,184.721 418.321,186.484 416.821,187.574 414.967,187.574 413.467,186.484 412.894,184.721 413.467,182.957 414.967,181.868 416.821,181.868 418.321,182.957 418.894,184.721"
         stroke="#0071bc"
         fill="none"
         stroke-width="0.5"
         id="polyline2451" />
      <polyline
         stroke-linecap="round"
         stroke-linejoin="round"
         points="422.434,190.628 421.861,192.391 420.361,193.481 418.507,193.481 417.007,192.391 416.434,190.628 417.007,188.865 418.507,187.775 420.361,187.775 421.861,188.865 422.434,190.628"
         stroke="#0071bc"
         fill="none"
         stroke-width="0.5"
         id="polyline2453" />
      <polyline
         stroke-linecap="round"
         stroke-linejoin="round"
         points="425.974,196.335 425.401,198.099 423.901,199.189 422.047,199.189 420.547,198.099 419.974,196.335 420.547,194.572 422.047,193.482 423.901,193.482 425.401,194.572 425.974,196.335"
         stroke="#0071bc"
         fill="none"
         stroke-width="0.5"
         id="polyline2455" />
      <polyline
         stroke-linecap="round"
         stroke-linejoin="round"
         points="429.515,201.834 428.942,203.597 427.442,204.687 425.588,204.687 424.088,203.597 423.515,201.834 424.088,200.07 425.588,198.981 427.442,198.981 428.942,200.07 429.515,201.834"
         stroke="#0071bc"
         fill="none"
         stroke-width="0.5"
         id="polyline2457" />
      <polyline
         stroke-linecap="round"
         stroke-linejoin="round"
         points="433.055,207.116 432.482,208.879 430.982,209.969 429.128,209.969 427.628,208.879 427.055,207.116 427.628,205.352 429.128,204.262 430.982,204.262 432.482,205.352 433.055,207.116"
         stroke="#0071bc"
         fill="none"
         stroke-width="0.5"
         id="polyline2459" />
      <polyline
         stroke-linecap="round"
         stroke-linejoin="round"
         points="436.596,212.175 436.023,213.939 434.523,215.028 432.669,215.028 431.169,213.939 430.596,212.175 431.169,210.412 432.669,209.322 434.523,209.322 436.023,210.412 436.596,212.175"
         stroke="#0071bc"
         fill="none"
         stroke-width="0.5"
         id="polyline2461" />
      <polyline
         stroke-linecap="round"
         stroke-linejoin="round"
         points="440.136,217.009 439.563,218.772 438.063,219.862 436.209,219.862 434.709,218.772 434.136,217.009 434.709,215.245 436.209,214.156 438.063,214.156 439.563,215.245 440.136,217.009"
         stroke="#0071bc"
         fill="none"
         stroke-width="0.5"
         id="polyline2463" />
      <polyline
         stroke-linecap="round"
         stroke-linejoin="round"
         points="443.676,221.614 443.103,223.377 441.603,224.467 439.749,224.467 438.249,223.377 437.676,221.614 438.249,219.85 439.749,218.761 441.603,218.761 443.103,219.85 443.676,221.614"
         stroke="#0071bc"
         fill="none"
         stroke-width="0.5"
         id="polyline2465" />
      <polyline
         stroke-linecap="round"
         stroke-linejoin="round"
         points="447.217,225.989 446.644,227.753 445.144,228.842 443.29,228.842 441.79,227.753 441.217,225.989 441.79,224.226 443.29,223.136 445.144,223.136 446.644,224.226 447.217,225.989"
         stroke="#0071bc"
         fill="none"
         stroke-width="0.5"
         id="polyline2467" />
      <polyline
         stroke-linecap="round"
         stroke-linejoin="round"
         points="450.757,230.136 450.184,231.899 448.684,232.989 446.83,232.989 445.33,231.899 444.757,230.136 445.33,228.373 446.83,227.283 448.684,227.283 450.184,228.373 450.757,230.136"
         stroke="#0071bc"
         fill="none"
         stroke-width="0.5"
         id="polyline2469" />
      <polyline
         stroke-linecap="round"
         stroke-linejoin="round"
         points="454.298,234.056 453.725,235.819 452.225,236.909 450.371,236.909 448.871,235.819 448.298,234.056 448.871,232.292 450.371,231.202 452.225,231.202 453.725,232.292 454.298,234.056"
         stroke="#0071bc"
         fill="none"
         stroke-width="0.5"
         id="polyline2471" />
      <polyline
         stroke-linecap="round"
         stroke-linejoin="round"
         points="457.838,237.751 457.265,239.515 455.765,240.604 453.911,240.604 452.411,239.515 451.838,237.751 452.411,235.988 453.911,234.898 455.765,234.898 457.265,235.988 457.838,237.751"
         stroke="#0071bc"
         fill="none"
         stroke-width="0.5"
         id="polyline2473" />
      <polyline
         stroke-linecap="round"
         stroke-linejoin="round"
         points="461.378,241.227 460.805,242.99 459.305,244.08 457.451,244.08 455.951,242.99 455.378,241.227 455.951,239.464 457.451,238.374 459.305,238.374 460.805,239.464 461.378,241.227"
         stroke="#0071bc"
         fill="none"
         stroke-width="0.5"
         id="polyline2475" />
      <polyline
         stroke-linecap="round"
         stroke-linejoin="round"
         points="464.919,244.488 464.346,246.251 462.846,247.341 460.992,247.341 459.492,246.251 458.919,244.488 459.492,242.725 460.992,241.635 462.846,241.635 464.346,242.725 464.919,244.488"
         stroke="#0071bc"
         fill="none"
         stroke-width="0.5"
         id="polyline2477" />
      <polyline
         stroke-linecap="round"
         stroke-linejoin="round"
         points="468.459,247.54 467.886,249.303 466.386,250.393 464.532,250.393 463.032,249.303 462.459,247.54 463.032,245.776 464.532,244.686 466.386,244.686 467.886,245.776 468.459,247.54"
         stroke="#0071bc"
         fill="none"
         stroke-width="0.5"
         id="polyline2479" />
      <polyline
         stroke-linecap="round"
         stroke-linejoin="round"
         points="472,250.389 471.427,252.152 469.927,253.242 468.072,253.242 466.572,252.152 466,250.389 466.572,248.625 468.072,247.535 469.927,247.535 471.427,248.625 472,250.389"
         stroke="#0071bc"
         fill="none"
         stroke-width="0.5"
         id="polyline2481" />
      <polyline
         stroke-linecap="round"
         stroke-linejoin="round"
         points="475.54,253.042 474.967,254.805 473.467,255.895 471.613,255.895 470.113,254.805 469.54,253.042 470.113,251.279 471.613,250.189 473.467,250.189 474.967,251.279 475.54,253.042"
         stroke="#0071bc"
         fill="none"
         stroke-width="0.5"
         id="polyline2483" />
      <polyline
         stroke-linecap="round"
         stroke-linejoin="round"
         points="479.08,255.508 478.507,257.271 477.007,258.361 475.153,258.361 473.653,257.271 473.08,255.508 473.653,253.744 475.153,252.654 477.007,252.654 478.507,253.744 479.08,255.508"
         stroke="#0071bc"
         fill="none"
         stroke-width="0.5"
         id="polyline2485" />
      <polyline
         stroke-linecap="round"
         stroke-linejoin="round"
         points="482.621,257.793 482.048,259.556 480.548,260.646 478.694,260.646 477.194,259.556 476.621,257.793 477.194,256.029 478.694,254.94 480.548,254.94 482.048,256.029 482.621,257.793"
         stroke="#0071bc"
         fill="none"
         stroke-width="0.5"
         id="polyline2487" />
      <polyline
         stroke-linecap="round"
         stroke-linejoin="round"
         points="486.161,259.906 485.588,261.67 484.088,262.759 482.234,262.759 480.734,261.67 480.161,259.906 480.734,258.143 482.234,257.053 484.088,257.053 485.588,258.143 486.161,259.906"
         stroke="#0071bc"
         fill="none"
         stroke-width="0.5"
         id="polyline2489" />
      <polyline
         stroke-linecap="round"
         stroke-linejoin="round"
         points="489.702,261.856 489.129,263.619 487.629,264.709 485.774,264.709 484.274,263.619 483.702,261.856 484.274,260.093 485.774,259.003 487.629,259.003 489.129,260.093 489.702,261.856"
         stroke="#0071bc"
         fill="none"
         stroke-width="0.5"
         id="polyline2491" />
      <polyline
         stroke-linecap="round"
         stroke-linejoin="round"
         points="493.242,263.651 492.669,265.414 491.169,266.504 489.315,266.504 487.815,265.414 487.242,263.651 487.815,261.888 489.315,260.798 491.169,260.798 492.669,261.888 493.242,263.651"
         stroke="#0071bc"
         fill="none"
         stroke-width="0.5"
         id="polyline2493" />
      <polyline
         stroke-linecap="round"
         stroke-linejoin="round"
         points="496.782,265.299 496.209,267.063 494.709,268.153 492.855,268.153 491.355,267.063 490.782,265.299 491.355,263.536 492.855,262.446 494.709,262.446 496.209,263.536 496.782,265.299"
         stroke="#0071bc"
         fill="none"
         stroke-width="0.5"
         id="polyline2495" />
      <polyline
         stroke-linecap="round"
         stroke-linejoin="round"
         points="500.323,266.81 499.75,268.573 498.25,269.663 496.396,269.663 494.896,268.573 494.323,266.81 494.896,265.047 496.396,263.957 498.25,263.957 499.75,265.047 500.323,266.81"
         stroke="#0071bc"
         fill="none"
         stroke-width="0.5"
         id="polyline2497" />
      <polyline
         stroke-linecap="round"
         stroke-linejoin="round"
         points="503.863,268.191 503.29,269.954 501.79,271.044 499.936,271.044 498.436,269.954 497.863,268.191 498.436,266.427 499.936,265.338 501.79,265.338 503.29,266.427 503.863,268.191"
         stroke="#0071bc"
         fill="none"
         stroke-width="0.5"
         id="polyline2499" />
      <polyline
         stroke-linecap="round"
         stroke-linejoin="round"
         points="507.404,269.45 506.831,271.214 505.331,272.304 503.476,272.304 501.976,271.214 501.404,269.45 501.976,267.687 503.476,266.597 505.331,266.597 506.831,267.687 507.404,269.45"
         stroke="#0071bc"
         fill="none"
         stroke-width="0.5"
         id="polyline2501" />
      <polyline
         stroke-linecap="round"
         stroke-linejoin="round"
         points="510.944,270.597 510.371,272.36 508.871,273.45 507.017,273.45 505.517,272.36 504.944,270.597 505.517,268.834 507.017,267.744 508.871,267.744 510.371,268.834 510.944,270.597"
         stroke="#0071bc"
         fill="none"
         stroke-width="0.5"
         id="polyline2503" />
      <polyline
         stroke-linecap="round"
         stroke-linejoin="round"
         points="514.484,271.638 513.911,273.401 512.411,274.491 510.557,274.491 509.057,273.401 508.484,271.638 509.057,269.875 510.557,268.785 512.411,268.785 513.911,269.875 514.484,271.638"
         stroke="#0071bc"
         fill="none"
         stroke-width="0.5"
         id="polyline2505" />
      <polyline
         stroke-linecap="round"
         stroke-linejoin="round"
         points="518.025,272.581 517.452,274.345 515.952,275.435 514.098,275.435 512.598,274.345 512.025,272.581 512.598,270.818 514.098,269.728 515.952,269.728 517.452,270.818 518.025,272.581"
         stroke="#0071bc"
         fill="none"
         stroke-width="0.5"
         id="polyline2507" />
      <polyline
         stroke-linecap="round"
         stroke-linejoin="round"
         points="521.565,273.434 520.992,275.198 519.492,276.287 517.638,276.287 516.138,275.198 515.565,273.434 516.138,271.671 517.638,270.581 519.492,270.581 520.992,271.671 521.565,273.434"
         stroke="#0071bc"
         fill="none"
         stroke-width="0.5"
         id="polyline2509" />
      <polyline
         stroke-linecap="round"
         stroke-linejoin="round"
         points="525.105,274.204 524.533,275.967 523.033,277.057 521.178,277.057 519.678,275.967 519.105,274.204 519.678,272.44 521.178,271.35 523.033,271.35 524.533,272.44 525.105,274.204"
         stroke="#0071bc"
         fill="none"
         stroke-width="0.5"
         id="polyline2511" />
      <polyline
         stroke-linecap="round"
         stroke-linejoin="round"
         points="528.646,274.896 528.073,276.66 526.573,277.749 524.719,277.749 523.219,276.66 522.646,274.896 523.219,273.133 524.719,272.043 526.573,272.043 528.073,273.133 528.646,274.896"
         stroke="#0071bc"
         fill="none"
         stroke-width="0.5"
         id="polyline2513" />
      <polyline
         stroke-linecap="round"
         stroke-linejoin="round"
         points="532.186,275.524 531.613,277.287 530.113,278.377 528.259,278.377 526.759,277.287 526.186,275.524 526.759,273.76 528.259,272.67 530.113,272.67 531.613,273.76 532.186,275.524"
         stroke="#0071bc"
         fill="none"
         stroke-width="0.5"
         id="polyline2515" />
    </g>
  </g>
  <metadata
     id="metadata2605">
    <rdf:RDF>
      <cc:Work
         rdf:about="">
        <dc:title>gl2ps_renderer figure</dc:title>
      </cc:Work>
    </rdf:RDF>
  </metadata>
</svg>
