<?xml version="1.0" encoding="UTF-8" standalone="no"?>
<svg
   version="1.0"
   width="1525pt"
   height="700pt"
   viewBox="0 0 1525 700"
   preserveAspectRatio="xMidYMid meet"
   id="svg624"
   sodipodi:docname="255laphic2.svg"
   inkscape:version="1.1.1 (3bf5ae0d25, 2021-09-20)"
   xmlns:inkscape="http://www.inkscape.org/namespaces/inkscape"
   xmlns:sodipodi="http://sodipodi.sourceforge.net/DTD/sodipodi-0.dtd"
   xmlns="http://www.w3.org/2000/svg"
   xmlns:svg="http://www.w3.org/2000/svg">
  <defs
     id="defs628" />
  <sodipodi:namedview
     id="namedview626"
     pagecolor="#ffffff"
     bordercolor="#666666"
     borderopacity="1.0"
     inkscape:pageshadow="2"
     inkscape:pageopacity="0.0"
     inkscape:pagecheckerboard="0"
     inkscape:document-units="pt"
     showgrid="false"
     inkscape:zoom="1.1581967"
     inkscape:cx="1009.3277"
     inkscape:cy="564.23921"
     inkscape:window-width="3739"
     inkscape:window-height="2123"
     inkscape:window-x="101"
     inkscape:window-y="0"
     inkscape:window-maximized="1"
     inkscape:current-layer="svg624" />
  <g
     transform="matrix(0.06731333,0,0,-0.06731333,-14.294727,698.15448)"
     fill="#000000"
     stroke="none"
     id="g23606">
    <path
       d="m 2210,10139 c 0,-44 -2,-50 -14,-40 -8,7 -31,11 -52,9 -53,-4 -77,-40 -77,-113 0,-73 24,-109 77,-113 21,-2 45,3 53,10 13,10 17,10 20,1 3,-7 13,-13 24,-13 18,0 19,9 19,155 v 155 h -25 c -23,0 -25,-3 -25,-51 z m -16,-75 c 22,-21 21,-111 -1,-136 -37,-41 -83,-4 -83,67 0,70 46,108 84,69 z"
       id="path22898" />
    <path
       d="m 3220,10138 c 0,-40 -3,-49 -12,-40 -21,21 -82,15 -105,-10 -39,-44 -37,-165 3,-195 22,-16 86,-17 102,-1 9,9 12,9 12,0 0,-7 11,-12 25,-12 h 25 v 155 155 h -25 c -23,0 -25,-3 -25,-52 z m -16,-77 c 13,-14 16,-33 14,-72 -3,-47 -7,-55 -31,-69 -27,-14 -29,-14 -48,9 -37,45 -16,151 30,151 10,0 26,-9 35,-19 z"
       id="path22900" />
    <path
       d="m 3310,10170 c 0,-15 7,-20 25,-20 18,0 25,5 25,20 0,15 -7,20 -25,20 -18,0 -25,-5 -25,-20 z"
       id="path22902" />
    <path
       d="m 3420,10171 c -5,-11 -10,-29 -10,-40 0,-12 -7,-21 -15,-21 -8,0 -15,-7 -15,-15 0,-8 7,-15 15,-15 12,0 15,-18 15,-100 v -100 h 25 25 v 100 100 h 30 30 v -100 -100 h 25 25 v 100 c 0,93 1,100 20,100 11,0 20,7 20,15 0,8 -9,15 -20,15 -14,0 -20,7 -20,21 0,12 8,23 20,26 34,9 24,33 -15,33 -36,0 -55,-20 -55,-59 0,-17 -6,-21 -30,-21 -24,0 -30,4 -30,21 0,12 8,23 20,26 34,9 24,33 -15,33 -24,0 -37,-6 -45,-19 z"
       id="path22904" />
    <path
       d="m 3675,10146 c -57,-97 -57,-215 0,-312 19,-33 32,-44 50,-44 h 24 l -32,52 c -30,48 -32,56 -32,148 0,92 2,100 32,148 l 32,52 h -24 c -18,0 -31,-11 -50,-44 z"
       id="path22906" />
    <path
       d="m 4025,10146 c -57,-97 -57,-215 0,-312 19,-33 32,-44 50,-44 h 24 l -32,52 c -30,48 -32,56 -32,148 0,92 2,100 32,148 l 32,52 h -24 c -18,0 -31,-11 -50,-44 z"
       id="path22908" />
    <path
       d="m 4239,10161 c 68,-95 68,-247 0,-342 l -21,-31 28,4 c 23,2 34,13 59,62 25,51 30,70 30,136 0,66 -5,85 -30,136 -25,49 -36,60 -59,62 l -28,4 z"
       id="path22910" />
    <path
       d="m 5209,10161 c 33,-45 51,-107 51,-171 0,-64 -18,-126 -51,-171 l -21,-31 28,4 c 23,2 34,13 59,62 25,51 30,70 30,136 0,66 -5,85 -30,136 -25,49 -36,60 -59,62 l -28,4 z"
       id="path22912" />
    <path
       d="m 6205,10146 c -38,-65 -52,-143 -37,-212 16,-78 56,-144 87,-144 h 24 l -32,52 c -30,48 -32,56 -32,148 0,92 2,100 32,148 l 32,52 h -24 c -18,0 -31,-11 -50,-44 z"
       id="path22914" />
    <path
       d="m 6419,10161 c 33,-45 51,-107 51,-171 0,-64 -18,-126 -51,-171 l -21,-31 28,4 c 23,2 34,13 59,62 25,51 30,70 30,136 0,66 -5,85 -30,136 -25,49 -36,60 -59,62 l -28,4 z"
       id="path22916" />
    <path
       d="m 7250,10170 c 0,-15 7,-20 25,-20 18,0 25,5 25,20 0,15 -7,20 -25,20 -18,0 -25,-5 -25,-20 z"
       id="path22918" />
    <path
       d="m 7615,10146 c -38,-65 -52,-143 -37,-212 16,-78 56,-144 87,-144 h 24 l -32,52 c -30,48 -32,56 -32,148 0,92 2,100 32,148 l 32,52 h -24 c -18,0 -31,-11 -50,-44 z"
       id="path22920" />
    <path
       d="m 7829,10161 c 33,-45 51,-107 51,-171 0,-64 -18,-126 -51,-171 l -21,-31 28,4 c 23,2 34,13 59,62 25,51 30,70 30,136 0,66 -5,85 -30,136 -25,49 -36,60 -59,62 l -28,4 z"
       id="path22922" />
    <path
       d="m 2555,10145 c -14,-13 -25,-31 -25,-40 0,-22 46,-20 53,3 5,23 35,32 65,21 16,-6 22,-17 22,-39 0,-24 -14,-43 -70,-98 -45,-44 -70,-76 -70,-90 0,-21 4,-22 101,-22 90,0 100,2 97,18 -3,14 -16,18 -78,20 l -74,3 72,67 c 61,57 72,72 72,100 0,50 -37,82 -95,82 -35,0 -52,-6 -70,-25 z"
       id="path22924" />
    <path
       d="m 3000,10120 c 0,-43 3,-50 20,-50 17,0 20,7 20,50 0,43 -3,50 -20,50 -17,0 -20,-7 -20,-50 z"
       id="path22926" />
    <path
       d="m 5005,10145 c -14,-13 -25,-31 -25,-40 0,-21 37,-19 49,4 13,23 40,31 69,20 16,-6 22,-17 22,-39 0,-24 -14,-43 -70,-98 -45,-44 -70,-76 -70,-90 0,-21 4,-22 95,-22 88,0 95,1 95,20 0,18 -7,20 -72,20 l -73,1 62,57 c 90,83 104,122 58,167 -18,19 -35,25 -70,25 -35,0 -52,-6 -70,-25 z"
       id="path22928" />
    <path
       d="m 4136,10135 c -4,-14 -13,-25 -21,-25 -8,0 -15,-7 -15,-15 0,-8 7,-15 15,-15 12,0 15,-16 15,-88 0,-98 7,-112 57,-112 38,0 47,27 11,32 -21,3 -23,9 -26,86 -3,77 -2,82 18,82 11,0 20,7 20,15 0,8 -9,15 -20,15 -15,0 -20,7 -20,25 0,15 -6,25 -14,25 -8,0 -17,-11 -20,-25 z"
       id="path22930" />
    <path
       d="m 4636,10135 c -4,-14 -13,-25 -21,-25 -8,0 -15,-7 -15,-15 0,-8 7,-15 15,-15 12,0 15,-16 15,-88 0,-98 7,-112 57,-112 38,0 47,27 11,32 -21,3 -23,9 -26,86 -3,77 -2,82 18,82 11,0 20,7 20,15 0,8 -9,15 -20,15 -15,0 -20,7 -20,25 0,15 -6,25 -14,25 -8,0 -17,-11 -20,-25 z"
       id="path22932" />
    <path
       d="m 6316,10135 c -4,-14 -13,-25 -21,-25 -8,0 -15,-7 -15,-15 0,-8 7,-15 15,-15 12,0 15,-16 15,-88 0,-98 7,-112 57,-112 38,0 47,27 11,32 -21,3 -23,9 -26,86 -3,77 -2,82 18,82 11,0 20,7 20,15 0,8 -9,15 -20,15 -15,0 -20,7 -20,25 0,15 -6,25 -14,25 -8,0 -17,-11 -20,-25 z"
       id="path22934" />
    <path
       d="m 7726,10135 c -4,-14 -13,-25 -21,-25 -8,0 -15,-7 -15,-15 0,-8 7,-15 15,-15 12,0 15,-16 15,-88 0,-98 7,-112 57,-112 38,0 47,27 11,32 -21,3 -23,9 -26,86 -3,77 -2,82 18,82 11,0 20,7 20,15 0,8 -9,15 -20,15 -15,0 -20,7 -20,25 0,15 -6,25 -14,25 -8,0 -17,-11 -20,-25 z"
       id="path22936" />
    <path
       d="m 401,10095 c -25,-37 -51,-121 -51,-165 0,-77 57,-200 93,-200 22,0 21,6 -1,38 -30,43 -42,90 -42,162 0,72 12,119 42,162 22,32 23,38 1,38 -10,0 -29,-16 -42,-35 z"
       id="path22938" />
    <path
       d="m 862,10113 c 2,-10 13,-19 26,-21 17,-3 22,2 22,17 0,16 -6,21 -26,21 -19,0 -25,-5 -22,-17 z"
       id="path22940" />
    <path
       d="m 1415,10094 c 32,-47 45,-95 45,-164 0,-69 -13,-117 -45,-164 -23,-34 -23,-36 -5,-36 23,0 63,52 80,103 27,85 11,201 -37,265 -13,17 -33,32 -43,32 -18,0 -18,-2 5,-36 z"
       id="path22942" />
    <path
       d="m 507,10095 c -32,-32 -32,-118 0,-150 21,-21 67,-19 88,5 26,28 26,112 0,140 -21,24 -67,26 -88,5 z m 71,-54 c 6,-55 -5,-83 -31,-79 -18,2 -23,10 -25,47 -4,57 3,73 30,69 18,-2 24,-11 26,-37 z"
       id="path22944" />
    <path
       d="m 712,10083 c -61,-88 -163,-255 -158,-260 14,-14 37,14 119,140 48,75 87,138 87,142 0,16 -31,1 -48,-22 z"
       id="path22946" />
    <path
       d="m 1003,10017 c -35,-51 -63,-100 -63,-110 0,-14 10,-17 65,-17 h 65 v -35 c 0,-28 4,-35 20,-35 16,0 20,7 20,35 0,28 4,35 20,35 11,0 20,7 20,15 0,8 -9,15 -20,15 -19,0 -20,7 -20,95 0,92 -1,95 -22,95 -18,-1 -38,-23 -85,-93 z m 64,-94 c -3,-2 -23,-3 -46,-1 l -40,3 42,61 42,61 3,-60 c 2,-32 1,-61 -1,-64 z"
       id="path22948" />
    <path
       d="m 1206,10084 c -14,-15 -26,-33 -26,-40 0,-22 31,-16 56,11 28,30 47,32 74,5 28,-28 13,-61 -65,-134 -43,-40 -65,-69 -65,-84 0,-21 3,-22 95,-22 78,0 95,3 95,15 0,12 -14,15 -70,15 -38,0 -70,4 -70,9 0,6 25,31 56,58 87,75 104,124 59,168 -35,36 -102,35 -139,-1 z"
       id="path22950" />
    <path
       d="m 1871,10093 c -46,-37 -46,-159 0,-195 26,-22 97,-24 126,-3 51,36 55,156 6,195 -33,26 -102,27 -132,3 z m 101,-30 c 24,-22 25,-109 1,-135 -40,-45 -93,-6 -93,69 0,69 50,105 92,66 z"
       id="path22952" />
    <path
       d="m 2325,10084 c -32,-34 -37,-97 -13,-157 14,-36 36,-47 91,-47 33,0 49,6 65,23 12,13 22,26 22,29 0,15 -36,12 -52,-4 -10,-10 -27,-18 -38,-18 -26,0 -60,34 -60,60 0,18 7,20 80,20 89,0 92,3 66,65 -17,41 -42,55 -96,55 -31,0 -47,-6 -65,-26 z m 107,-21 c 33,-30 23,-43 -37,-43 -59,0 -63,4 -39,38 18,26 50,28 76,5 z"
       id="path22954" />
    <path
       d="m 2772,10088 c 2,-15 11,-24 26,-26 18,-3 22,1 22,22 0,21 -5,26 -26,26 -21,0 -25,-4 -22,-22 z"
       id="path22956" />
    <path
       d="m 3310,9995 v -115 h 25 25 v 115 115 h -25 -25 z"
       id="path22958" />
    <path
       d="m 3750,10106 c 0,-2 18,-52 41,-111 45,-122 45,-151 -1,-168 -39,-15 -39,-37 -1,-37 29,0 53,16 70,48 8,16 101,262 101,269 0,2 -10,3 -23,3 -20,0 -27,-11 -51,-87 l -29,-88 -30,88 c -27,76 -33,87 -54,87 -13,0 -23,-2 -23,-4 z"
       id="path22960" />
    <path
       d="m 5950,10095 c 0,-10 15,-15 55,-17 l 55,-3 -60,-85 c -33,-47 -60,-91 -60,-97 0,-10 25,-13 90,-13 72,0 90,3 90,15 0,10 -16,15 -60,17 l -60,3 60,84 c 33,46 60,90 60,98 0,10 -21,13 -85,13 -68,0 -85,-3 -85,-15 z"
       id="path22962" />
    <path
       d="m 7057,10092 c -22,-24 -22,-66 -1,-83 9,-8 37,-21 63,-29 30,-10 47,-22 49,-34 8,-38 -55,-49 -88,-16 -19,19 -50,18 -50,-1 0,-5 9,-18 20,-29 17,-17 31,-20 77,-18 48,3 59,7 77,31 19,26 19,30 6,55 -10,17 -34,33 -69,47 -30,11 -56,26 -59,34 -10,29 56,43 78,16 16,-19 50,-20 50,-1 0,43 -120,64 -153,28 z"
       id="path22964" />
    <path
       d="m 7250,9995 v -115 h 25 25 v 115 115 h -25 -25 z"
       id="path22966" />
    <path
       d="m 7340,9995 v -115 h 25 c 25,0 25,1 25,80 0,67 3,83 20,100 11,11 26,20 33,20 29,0 37,-25 37,-112 0,-87 0,-88 25,-88 25,0 25,1 25,88 0,113 -12,136 -68,140 -24,2 -50,-2 -58,-9 -10,-8 -14,-8 -14,0 0,6 -11,11 -25,11 h -25 z"
       id="path22968" />
    <path
       d="m 7990,10085 c 0,-18 5,-25 20,-25 15,0 20,7 20,25 0,18 -5,25 -20,25 -15,0 -20,-7 -20,-25 z"
       id="path22970" />
    <path
       d="m 6680,10075 c 0,-12 18,-15 105,-15 87,0 105,3 105,15 0,12 -18,15 -105,15 -87,0 -105,-3 -105,-15 z"
       id="path22972" />
    <path
       d="m 860,9935 v -115 h 25 25 v 115 115 h -25 -25 z"
       id="path22974" />
    <path
       d="m 5597,10034 c -4,-4 -7,-13 -7,-21 0,-10 24,-13 106,-13 95,0 105,2 102,18 -3,14 -17,17 -99,20 -52,1 -98,0 -102,-4 z"
       id="path22976" />
    <path
       d="m 714,9989 c -13,-14 -18,-36 -18,-74 0,-62 22,-95 64,-95 42,0 65,33 65,95 0,38 -5,59 -19,74 -24,27 -68,27 -92,0 z m 71,-74 c 0,-57 -1,-60 -25,-60 -23,0 -25,4 -28,49 -4,62 2,78 30,74 21,-3 23,-8 23,-63 z"
       id="path22978" />
    <path
       d="m 6680,9965 c 0,-12 18,-15 105,-15 87,0 105,3 105,15 0,12 -18,15 -105,15 -87,0 -105,-3 -105,-15 z"
       id="path22980" />
    <path
       d="m 2777,9923 c -4,-3 -7,-15 -7,-25 0,-13 7,-18 25,-18 20,0 25,5 25,25 0,18 -5,25 -18,25 -10,0 -22,-3 -25,-7 z"
       id="path22982" />
    <path
       d="m 4397,9923 c -11,-10 -8,-43 4,-43 7,0 8,-11 4,-30 -5,-23 -3,-30 8,-30 19,0 27,21 27,71 0,31 -4,39 -18,39 -10,0 -22,-3 -25,-7 z"
       id="path22984" />
    <path
       d="m 4757,9923 c -11,-10 -8,-43 4,-43 7,0 8,-11 4,-30 -5,-23 -3,-30 8,-30 19,0 27,21 27,71 0,31 -4,39 -18,39 -10,0 -22,-3 -25,-7 z"
       id="path22986" />
    <path
       d="m 7993,9875 c 3,-85 37,-70 37,16 0,32 -3,39 -19,39 -18,0 -20,-7 -18,-55 z"
       id="path22988" />
    <path
       d="m 2378,9438 c -8,-7 -18,-21 -21,-30 -8,-23 28,-25 37,-2 4,10 15,14 33,12 49,-5 41,-39 -21,-102 -77,-76 -75,-86 19,-86 60,0 75,3 75,15 0,11 -12,15 -51,15 h -52 l 52,54 c 55,59 64,91 33,119 -22,20 -82,22 -104,5 z"
       id="path22990" />
    <path
       d="m 2250,9153 c 0,-37 -3,-44 -12,-35 -7,7 -29,12 -50,12 -51,0 -73,-33 -73,-111 1,-72 21,-99 75,-99 20,0 41,5 48,12 9,9 12,9 12,0 0,-7 9,-12 20,-12 19,0 20,7 20,140 0,133 -1,140 -20,140 -17,0 -20,-7 -20,-47 z m -22,-62 c 8,-4 16,-27 19,-49 9,-67 -38,-117 -75,-80 -16,16 -16,110 0,126 14,14 37,15 56,3 z"
       id="path22992" />
    <path
       d="m 3255,8916 c -57,-97 -57,-215 0,-312 19,-33 32,-44 50,-44 h 24 l -32,52 c -30,48 -32,56 -32,148 0,92 2,100 32,148 l 32,52 h -24 c -18,0 -31,-11 -50,-44 z"
       id="path22994" />
    <path
       d="m 3589,8931 c 68,-95 68,-247 0,-342 l -21,-31 28,4 c 23,2 34,13 59,62 25,51 30,70 30,136 0,66 -5,85 -30,136 -25,49 -36,60 -59,62 l -28,4 z"
       id="path22996" />
    <path
       d="m 4375,8916 c -57,-97 -57,-215 0,-312 19,-33 32,-44 50,-44 h 24 l -32,52 c -30,48 -32,56 -32,148 0,92 2,100 32,148 l 32,52 h -24 c -18,0 -31,-11 -50,-44 z"
       id="path22998" />
    <path
       d="m 4709,8931 c 68,-95 68,-247 0,-342 l -21,-31 28,4 c 23,2 34,13 59,62 25,51 30,70 30,136 0,66 -5,85 -30,136 -25,49 -36,60 -59,62 l -28,4 z"
       id="path23000" />
    <path
       d="m 5390,8940 c 0,-15 7,-20 25,-20 18,0 25,5 25,20 0,15 -7,20 -25,20 -18,0 -25,-5 -25,-20 z"
       id="path23002" />
    <path
       d="m 5815,8916 c -38,-65 -52,-143 -37,-212 16,-78 56,-144 87,-144 h 24 l -32,52 c -30,48 -32,56 -32,148 0,92 2,100 32,148 l 32,52 h -24 c -18,0 -31,-11 -50,-44 z"
       id="path23004" />
    <path
       d="m 6149,8931 c 33,-45 51,-107 51,-171 0,-64 -18,-126 -51,-171 l -21,-31 28,4 c 23,2 34,13 59,62 25,51 30,70 30,136 0,66 -5,85 -30,136 -25,49 -36,60 -59,62 l -28,4 z"
       id="path23006" />
    <path
       d="m 3450,8905 c -5,-14 -16,-25 -25,-25 -17,0 -21,-26 -5,-32 7,-2 6,-31 -2,-84 -14,-99 -10,-114 37,-114 28,0 35,4 35,20 0,12 -5,17 -14,14 -23,-9 -28,13 -16,74 17,86 20,92 41,92 10,0 19,7 19,15 0,8 -7,15 -15,15 -9,0 -15,9 -15,25 0,16 -6,25 -15,25 -9,0 -20,-11 -25,-25 z"
       id="path23008" />
    <path
       d="m 4570,8905 c -5,-14 -16,-25 -25,-25 -17,0 -21,-26 -5,-32 7,-2 6,-31 -2,-84 -14,-99 -10,-114 37,-114 28,0 35,4 35,20 0,12 -5,17 -14,14 -23,-9 -28,13 -16,74 17,86 20,92 41,92 10,0 19,7 19,15 0,8 -7,15 -15,15 -9,0 -15,9 -15,25 0,16 -6,25 -15,25 -9,0 -20,-11 -25,-25 z"
       id="path23010" />
    <path
       d="m 6010,8905 c -5,-14 -16,-25 -25,-25 -17,0 -21,-26 -5,-32 7,-2 6,-31 -2,-84 -14,-99 -10,-114 37,-114 28,0 35,4 35,20 0,12 -5,17 -14,14 -23,-9 -28,13 -16,74 17,86 20,92 41,92 10,0 19,7 19,15 0,8 -7,15 -15,15 -9,0 -15,9 -15,25 0,16 -6,25 -15,25 -9,0 -20,-11 -25,-25 z"
       id="path23012" />
    <path
       d="m 396,8883 c -36,-55 -50,-130 -36,-195 14,-66 53,-128 81,-128 19,0 19,1 -4,33 -64,85 -64,209 0,295 23,31 23,32 4,32 -13,0 -30,-15 -45,-37 z"
       id="path23014" />
    <path
       d="m 1480,8914 c 0,-3 8,-18 18,-32 56,-80 56,-204 0,-284 -22,-32 -22,-38 -3,-38 22,0 63,68 76,127 15,65 1,141 -37,196 -21,32 -54,50 -54,31 z"
       id="path23016" />
    <path
       d="m 497,8895 c -37,-36 -27,-137 14,-150 37,-12 67,3 79,40 21,63 -7,125 -55,125 -13,0 -30,-7 -38,-15 z m 64,-32 c 16,-40 0,-98 -26,-98 -15,0 -22,10 -29,37 -17,69 31,122 55,61 z"
       id="path23018" />
    <path
       d="m 620,8775 c -68,-101 -86,-135 -73,-135 12,1 48,47 105,135 54,83 82,135 73,135 -8,0 -55,-61 -105,-135 z"
       id="path23020" />
    <path
       d="m 1101,8821 c -34,-49 -61,-97 -61,-105 0,-13 12,-16 65,-16 h 65 v -30 c 0,-20 5,-30 15,-30 10,0 15,10 15,30 0,23 4,30 20,30 11,0 20,7 20,15 0,8 -9,15 -20,15 -19,0 -20,7 -20,90 0,82 -2,90 -19,90 -12,0 -39,-30 -80,-89 z m 69,-26 v -65 h -46 c -25,0 -44,3 -42,8 6,14 81,122 84,122 2,0 4,-29 4,-65 z"
       id="path23022" />
    <path
       d="m 1295,8885 c -14,-13 -25,-29 -25,-35 0,-18 35,-11 48,10 14,22 61,27 80,8 24,-24 11,-52 -58,-119 -41,-40 -70,-77 -70,-89 0,-19 7,-20 90,-20 73,0 90,3 90,15 0,12 -15,15 -72,15 h -73 l 63,61 c 70,67 86,97 72,133 -19,51 -103,64 -145,21 z"
       id="path23024" />
    <path
       d="m 2920,8876 c 0,-2 18,-52 41,-111 45,-122 45,-151 -1,-168 -39,-15 -39,-37 -1,-37 30,0 53,16 71,50 9,17 100,259 100,267 0,2 -10,3 -23,3 -20,0 -27,-11 -51,-87 l -29,-88 -30,88 c -27,76 -33,87 -54,87 -13,0 -23,-2 -23,-4 z"
       id="path23026" />
    <path
       d="m 4060,8865 c 0,-10 15,-15 55,-17 l 55,-3 -60,-85 c -33,-47 -60,-91 -60,-97 0,-10 25,-13 90,-13 72,0 90,3 90,15 0,10 -16,15 -60,17 l -60,3 60,84 c 33,46 60,90 60,98 0,10 -21,13 -85,13 -68,0 -85,-3 -85,-15 z"
       id="path23028" />
    <path
       d="m 5197,8862 c -22,-24 -22,-66 -1,-83 9,-8 37,-21 63,-29 30,-10 47,-22 49,-34 8,-38 -55,-49 -88,-16 -19,19 -50,18 -50,-1 0,-5 9,-18 20,-29 15,-15 33,-20 74,-20 47,0 57,4 75,26 12,15 21,33 21,40 0,24 -45,61 -88,73 -24,7 -46,19 -49,28 -12,30 54,46 77,18 15,-19 50,-20 50,-2 0,45 -119,67 -153,29 z"
       id="path23030" />
    <path
       d="m 5390,8765 v -115 h 25 25 v 115 115 h -25 -25 z"
       id="path23032" />
    <path
       d="m 5480,8765 v -115 h 25 c 25,0 25,1 25,80 0,67 3,83 20,100 11,11 26,20 33,20 29,0 37,-25 37,-112 0,-87 0,-88 25,-88 25,0 25,0 25,93 0,115 -12,137 -74,137 -23,0 -47,-5 -54,-12 -9,-9 -12,-9 -12,0 0,7 -11,12 -25,12 h -25 z"
       id="path23034" />
    <path
       d="m 4880,8845 c 0,-12 18,-15 105,-15 87,0 105,3 105,15 0,12 -18,15 -105,15 -87,0 -105,-3 -105,-15 z"
       id="path23036" />
    <path
       d="m 855,8825 c -21,-20 -25,-34 -25,-80 0,-72 28,-105 90,-105 62,0 90,33 90,105 0,72 -28,105 -90,105 -30,0 -47,-6 -65,-25 z m 105,-20 c 15,-18 15,-102 0,-120 -17,-20 -64,-19 -81,2 -8,9 -14,35 -14,58 0,23 6,49 14,58 17,21 64,22 81,2 z"
       id="path23038" />
    <path
       d="m 697,8795 c -23,-22 -30,-70 -17,-109 12,-38 37,-51 75,-42 42,11 58,111 24,153 -15,18 -64,17 -82,-2 z m 63,-24 c 24,-45 1,-121 -33,-108 -35,13 -28,127 7,127 9,0 20,-9 26,-19 z"
       id="path23040" />
    <path
       d="m 3767,8803 c -4,-3 -7,-12 -7,-20 0,-10 24,-13 105,-13 98,0 105,1 105,20 0,19 -7,20 -98,20 -54,0 -102,-3 -105,-7 z"
       id="path23042" />
    <path
       d="m 1790,8745 c 0,-13 64,-15 515,-15 451,0 515,2 515,15 0,13 -64,15 -515,15 -451,0 -515,-2 -515,-15 z"
       id="path23044" />
    <path
       d="m 4880,8735 c 0,-12 18,-15 105,-15 87,0 105,3 105,15 0,12 -18,15 -105,15 -87,0 -105,-3 -105,-15 z"
       id="path23046" />
    <path
       d="m 2498,8588 c -8,-7 -18,-21 -21,-30 -8,-23 28,-25 37,-2 4,10 15,14 33,12 49,-5 41,-39 -21,-102 -77,-76 -75,-86 19,-86 60,0 75,3 75,15 0,11 -12,15 -51,15 h -52 l 52,54 c 55,59 64,91 33,119 -22,20 -82,22 -104,5 z"
       id="path23048" />
    <path
       d="m 2130,8303 c 0,-37 -3,-44 -12,-35 -7,7 -29,12 -50,12 -51,0 -73,-33 -73,-111 1,-72 21,-99 75,-99 20,0 41,5 48,12 9,9 12,9 12,0 0,-7 9,-12 20,-12 19,0 20,7 20,140 0,133 -1,140 -20,140 -17,0 -20,-7 -20,-47 z m -22,-62 c 8,-4 16,-27 19,-49 9,-67 -38,-117 -75,-80 -16,16 -16,110 0,126 14,14 37,15 56,3 z"
       id="path23050" />
    <path
       d="m 2376,8305 c -4,-14 -13,-25 -21,-25 -16,0 -21,-26 -6,-32 5,-2 3,-35 -5,-77 -16,-84 -10,-101 37,-101 19,0 29,5 29,15 0,8 -7,15 -15,15 -18,0 -19,29 -4,100 8,39 15,50 30,50 10,0 19,7 19,15 0,8 -7,15 -15,15 -9,0 -15,9 -15,25 0,15 -6,25 -14,25 -8,0 -17,-11 -20,-25 z"
       id="path23052" />
    <path
       d="m 2630,7485 v -155 h 25 25 v 155 155 h -25 -25 z"
       id="path23054" />
    <path
       d="m 3225,7596 c -57,-97 -57,-215 0,-312 19,-33 32,-44 50,-44 h 24 l -32,52 c -30,48 -32,56 -32,148 0,92 2,100 32,148 l 32,52 h -24 c -18,0 -31,-11 -50,-44 z"
       id="path23056" />
    <path
       d="m 3575,7596 c -57,-97 -57,-215 0,-312 19,-33 32,-44 50,-44 h 24 l -32,52 c -30,48 -32,56 -32,148 0,92 2,100 32,148 l 32,52 h -24 c -18,0 -31,-11 -50,-44 z"
       id="path23058" />
    <path
       d="m 3789,7611 c 68,-95 68,-247 0,-342 l -21,-31 28,4 c 23,2 34,13 59,62 25,51 30,70 30,136 0,66 -5,85 -30,136 -25,49 -36,60 -59,62 l -28,4 z"
       id="path23060" />
    <path
       d="m 5469,7611 c 33,-45 51,-107 51,-171 0,-64 -18,-126 -51,-171 l -21,-31 28,4 c 23,2 34,13 59,62 25,51 30,70 30,136 0,66 -5,85 -30,136 -25,49 -36,60 -59,62 l -28,4 z"
       id="path23062" />
    <path
       d="m 4557,7590 c -47,-55 -47,-175 0,-231 33,-38 98,-41 131,-6 43,46 54,136 26,207 -19,48 -38,60 -92,60 -32,0 -45,-6 -65,-30 z m 111,-28 c 7,-9 12,-45 12,-87 0,-72 -11,-102 -40,-105 -34,-5 -47,1 -58,25 -14,31 -16,124 -3,159 15,37 61,41 89,8 z"
       id="path23064" />
    <path
       d="m 5288,7597 c -16,-13 -28,-30 -28,-40 0,-21 13,-22 30,-2 24,29 30,14 30,-85 v -100 h -35 c -28,0 -35,-4 -35,-20 0,-19 7,-20 96,-20 86,0 95,2 92,18 -2,11 -14,18 -36,20 l -32,3 v 125 124 h -27 c -16,-1 -40,-11 -55,-23 z"
       id="path23066" />
    <path
       d="m 2084,7585 c -3,-14 -12,-25 -20,-25 -8,0 -14,-7 -14,-15 0,-8 7,-15 15,-15 12,0 15,-16 15,-88 0,-99 7,-112 58,-112 26,0 33,4 30,17 -2,10 -12,18 -23,18 -18,0 -20,8 -23,83 -3,77 -2,82 18,82 11,0 20,7 20,15 0,8 -9,15 -20,15 -15,0 -20,7 -20,25 0,15 -6,25 -15,25 -8,0 -17,-11 -21,-25 z"
       id="path23068" />
    <path
       d="m 3686,7585 c -4,-14 -13,-25 -21,-25 -8,0 -15,-7 -15,-15 0,-8 7,-15 15,-15 12,0 15,-16 15,-88 0,-98 7,-112 57,-112 38,0 47,27 11,32 -21,3 -23,9 -26,86 -3,77 -2,82 18,82 11,0 20,7 20,15 0,8 -9,15 -20,15 -15,0 -20,7 -20,25 0,15 -6,25 -14,25 -8,0 -17,-11 -20,-25 z"
       id="path23070" />
    <path
       d="m 4186,7585 c -4,-14 -13,-25 -21,-25 -8,0 -15,-7 -15,-15 0,-8 7,-15 15,-15 12,0 15,-16 15,-88 0,-98 7,-112 57,-112 38,0 47,27 11,32 -21,3 -23,9 -26,86 -3,77 -2,82 18,82 11,0 20,7 20,15 0,8 -9,15 -20,15 -15,0 -20,7 -20,25 0,15 -6,25 -14,25 -8,0 -17,-11 -20,-25 z"
       id="path23072" />
    <path
       d="m 401,7545 c -25,-37 -51,-121 -51,-165 0,-77 57,-200 93,-200 22,0 21,6 -1,38 -30,43 -42,90 -42,162 0,72 12,119 42,162 22,32 23,38 1,38 -10,0 -29,-16 -42,-35 z"
       id="path23074" />
    <path
       d="m 862,7563 c 2,-10 13,-19 26,-21 17,-3 22,2 22,17 0,16 -6,21 -26,21 -19,0 -25,-5 -22,-17 z"
       id="path23076" />
    <path
       d="m 1415,7544 c 32,-47 45,-95 45,-164 0,-69 -13,-117 -45,-164 -23,-34 -23,-36 -5,-36 23,0 63,52 80,103 27,85 11,201 -37,265 -13,17 -33,32 -43,32 -18,0 -18,-2 5,-36 z"
       id="path23078" />
    <path
       d="m 507,7545 c -32,-32 -32,-118 0,-150 21,-21 67,-19 88,5 26,28 26,112 0,140 -21,24 -67,26 -88,5 z m 71,-54 c 6,-55 -5,-83 -31,-79 -18,2 -23,10 -25,47 -4,57 3,73 30,69 18,-2 24,-11 26,-37 z"
       id="path23080" />
    <path
       d="m 712,7533 c -61,-88 -163,-255 -158,-260 14,-14 37,14 119,140 48,75 87,138 87,142 0,16 -31,1 -48,-22 z"
       id="path23082" />
    <path
       d="m 1003,7467 c -35,-51 -63,-100 -63,-110 0,-14 10,-17 65,-17 h 65 v -35 c 0,-28 4,-35 20,-35 16,0 20,7 20,35 0,28 4,35 20,35 11,0 20,7 20,15 0,8 -9,15 -20,15 -19,0 -20,7 -20,95 0,92 -1,95 -22,95 -18,-1 -38,-23 -85,-93 z m 64,-94 c -3,-2 -23,-3 -46,-1 l -40,3 42,61 42,61 3,-60 c 2,-32 1,-61 -1,-64 z"
       id="path23084" />
    <path
       d="m 1205,7535 c -29,-28 -31,-40 -10,-49 8,-3 25,5 39,19 28,28 38,30 67,15 42,-23 13,-80 -41,-80 -35,0 -21,-34 15,-38 17,-2 36,-8 43,-14 20,-17 14,-56 -13,-74 -29,-19 -60,-11 -81,21 -18,28 -54,24 -47,-6 15,-57 118,-80 168,-36 36,30 37,82 4,111 l -24,21 23,22 c 48,48 7,113 -73,113 -35,0 -52,-6 -70,-25 z"
       id="path23086" />
    <path
       d="m 1860,7533 -21,-27 22,-8 c 17,-6 25,-4 36,12 17,24 46,26 67,4 30,-30 20,-44 -33,-44 -65,0 -95,-24 -95,-75 0,-25 6,-42 19,-51 26,-19 89,-18 106,2 12,14 14,14 25,-1 8,-10 23,-15 40,-13 33,4 43,23 14,31 -18,5 -20,13 -20,81 0,96 -15,116 -89,116 -42,0 -53,-4 -71,-27 z m 120,-108 c 0,-19 -44,-65 -63,-65 -18,0 -37,20 -37,40 0,26 22,40 62,40 28,0 38,-4 38,-15 z"
       id="path23088" />
    <path
       d="m 2171,7553 c 0,-5 17,-55 37,-113 33,-95 40,-105 63,-108 24,-3 29,2 43,40 8,24 27,74 41,112 14,37 25,70 25,72 0,2 -10,4 -23,4 -20,0 -27,-12 -53,-92 l -30,-93 -29,93 c -25,82 -31,92 -52,92 -12,0 -23,-3 -22,-7 z"
       id="path23090" />
    <path
       d="m 2420,7533 -21,-27 22,-8 c 17,-6 25,-4 36,12 17,24 46,26 67,4 30,-30 20,-44 -33,-44 -65,0 -95,-24 -95,-75 0,-25 6,-42 19,-51 26,-19 89,-18 106,2 12,14 14,14 25,-1 8,-10 23,-15 40,-13 33,4 43,23 14,31 -18,5 -20,13 -20,81 0,96 -15,116 -89,116 -42,0 -53,-4 -71,-27 z m 120,-108 c 0,-19 -44,-65 -63,-65 -18,0 -37,20 -37,40 0,26 22,40 62,40 28,0 38,-4 38,-15 z"
       id="path23092" />
    <path
       d="m 2722,7459 c 2,-86 6,-103 22,-115 24,-17 88,-18 104,-2 9,9 12,9 12,0 0,-7 11,-12 25,-12 h 25 v 115 115 h -25 c -25,0 -25,-1 -25,-85 0,-80 -1,-85 -26,-102 -46,-30 -59,-10 -62,96 -3,90 -3,91 -28,91 h -26 z"
       id="path23094" />
    <path
       d="m 2976,7537 c -45,-45 -41,-158 7,-192 34,-24 109,-20 135,8 12,13 22,26 22,29 0,15 -36,12 -52,-4 -10,-10 -27,-18 -38,-18 -26,0 -60,34 -60,60 0,18 7,20 80,20 89,0 92,3 66,65 -17,41 -42,55 -96,55 -29,0 -47,-6 -64,-23 z m 106,-24 c 33,-30 23,-43 -37,-43 -59,0 -67,8 -35,40 24,24 47,25 72,3 z"
       id="path23096" />
    <path
       d="m 3320,7545 c 0,-10 15,-15 55,-17 l 55,-3 -60,-85 c -33,-47 -60,-91 -60,-97 0,-10 25,-13 90,-13 72,0 90,3 90,15 0,10 -16,15 -60,17 l -60,3 60,84 c 33,46 60,90 60,98 0,10 -21,13 -85,13 -68,0 -85,-3 -85,-15 z"
       id="path23098" />
    <path
       d="m 5630,7535 c 0,-18 5,-25 20,-25 15,0 20,7 20,25 0,18 -5,25 -20,25 -15,0 -20,-7 -20,-25 z"
       id="path23100" />
    <path
       d="m 4290,7525 c 0,-12 18,-15 105,-15 87,0 105,3 105,15 0,12 -18,15 -105,15 -87,0 -105,-3 -105,-15 z"
       id="path23102" />
    <path
       d="m 860,7385 v -115 h 25 25 v 115 115 h -25 -25 z"
       id="path23104" />
    <path
       d="m 5007,7484 c -4,-4 -7,-13 -7,-21 0,-10 24,-13 106,-13 95,0 105,2 102,18 -3,14 -17,17 -99,20 -52,1 -98,0 -102,-4 z"
       id="path23106" />
    <path
       d="m 714,7439 c -13,-14 -18,-36 -18,-74 0,-62 22,-95 64,-95 42,0 65,33 65,95 0,38 -5,59 -19,74 -24,27 -68,27 -92,0 z m 71,-74 c 0,-57 -1,-60 -25,-60 -23,0 -25,4 -28,49 -4,62 2,78 30,74 21,-3 23,-8 23,-63 z"
       id="path23108" />
    <path
       d="m 4290,7415 c 0,-12 18,-15 105,-15 87,0 105,3 105,15 0,12 -18,15 -105,15 -87,0 -105,-3 -105,-15 z"
       id="path23110" />
    <path
       d="m 3947,7373 c -11,-10 -8,-43 4,-43 7,0 8,-11 4,-30 -5,-23 -3,-30 8,-30 19,0 27,21 27,71 0,31 -4,39 -18,39 -10,0 -22,-3 -25,-7 z"
       id="path23112" />
    <path
       d="m 4777,7373 c -11,-10 -8,-43 4,-43 7,0 8,-11 4,-30 -5,-23 -3,-30 8,-30 19,0 27,21 27,71 0,31 -4,39 -18,39 -10,0 -22,-3 -25,-7 z"
       id="path23114" />
    <path
       d="m 5633,7325 c 3,-85 37,-70 37,16 0,32 -3,39 -19,39 -18,0 -20,-7 -18,-55 z"
       id="path23116" />
    <path
       d="m 2188,6939 c -16,-11 -28,-29 -28,-40 0,-23 4,-23 35,-3 l 25,16 v -101 -101 h -35 c -28,0 -35,-4 -35,-20 0,-19 7,-20 96,-20 86,0 95,2 92,18 -2,11 -14,18 -36,20 l -32,3 v 125 124 h -27 c -16,0 -40,-10 -55,-21 z"
       id="path23118" />
    <path
       d="m 396,6903 c -36,-55 -50,-130 -36,-195 14,-66 53,-128 81,-128 19,0 19,1 -4,33 -64,85 -64,209 0,295 23,31 23,32 4,32 -13,0 -30,-15 -45,-37 z"
       id="path23120" />
    <path
       d="m 1480,6934 c 0,-3 8,-18 18,-32 56,-80 56,-204 0,-284 -22,-32 -22,-38 -3,-38 22,0 63,68 76,127 15,65 1,141 -37,196 -21,32 -54,50 -54,31 z"
       id="path23122" />
    <path
       d="m 497,6915 c -37,-36 -27,-137 14,-150 37,-12 67,3 79,40 21,63 -7,125 -55,125 -13,0 -30,-7 -38,-15 z m 64,-32 c 16,-40 0,-98 -26,-98 -15,0 -22,10 -29,37 -17,69 31,122 55,61 z"
       id="path23124" />
    <path
       d="m 620,6795 c -68,-101 -86,-135 -73,-135 12,1 48,47 105,135 54,83 82,135 73,135 -8,0 -55,-61 -105,-135 z"
       id="path23126" />
    <path
       d="m 1101,6841 c -34,-49 -61,-97 -61,-105 0,-13 12,-16 65,-16 h 65 v -30 c 0,-20 5,-30 15,-30 10,0 15,10 15,30 0,23 4,30 20,30 11,0 20,7 20,15 0,8 -9,15 -20,15 -19,0 -20,7 -20,90 0,82 -2,90 -19,90 -12,0 -39,-30 -80,-89 z m 69,-26 v -65 h -46 c -25,0 -44,3 -42,8 6,14 81,122 84,122 2,0 4,-29 4,-65 z"
       id="path23128" />
    <path
       d="m 1296,6909 c -27,-22 -35,-49 -13,-49 7,0 20,9 30,20 28,33 97,22 97,-16 0,-21 -30,-44 -56,-44 -15,0 -24,-6 -24,-15 0,-8 9,-15 21,-15 36,0 59,-19 59,-48 0,-16 -5,-33 -12,-40 -21,-21 -65,-14 -86,13 -24,30 -42,32 -42,6 0,-29 47,-61 90,-61 52,0 90,32 90,75 0,24 -7,39 -23,52 -24,17 -24,18 -4,33 27,22 25,69 -3,92 -30,25 -91,23 -124,-3 z"
       id="path23130" />
    <path
       d="m 855,6845 c -21,-20 -25,-34 -25,-80 0,-72 28,-105 90,-105 62,0 90,33 90,105 0,72 -28,105 -90,105 -30,0 -47,-6 -65,-25 z m 105,-20 c 15,-18 15,-102 0,-120 -17,-20 -64,-19 -81,2 -8,9 -14,35 -14,58 0,23 6,49 14,58 17,21 64,22 81,2 z"
       id="path23132" />
    <path
       d="m 697,6815 c -23,-22 -30,-70 -17,-109 12,-38 37,-51 75,-42 42,11 58,111 24,153 -15,18 -64,17 -82,-2 z m 63,-24 c 24,-45 1,-121 -33,-108 -35,13 -28,127 7,127 9,0 20,-9 26,-19 z"
       id="path23134" />
    <path
       d="m 1847,6823 c -4,-3 -7,-12 -7,-20 0,-10 24,-13 105,-13 98,0 105,1 105,20 0,19 -7,20 -98,20 -54,0 -102,-3 -105,-7 z"
       id="path23136" />
    <path
       d="m 2630,6075 v -155 h 25 25 v 155 155 h -25 -25 z"
       id="path23138" />
    <path
       d="m 3225,6186 c -57,-97 -57,-215 0,-312 19,-33 32,-44 50,-44 h 24 l -32,52 c -30,48 -32,56 -32,148 0,92 2,100 32,148 l 32,52 h -24 c -18,0 -31,-11 -50,-44 z"
       id="path23140" />
    <path
       d="m 3540,6178 c 0,-40 -3,-49 -12,-40 -21,21 -82,15 -105,-10 -39,-44 -37,-165 3,-195 22,-16 86,-17 102,-1 9,9 12,9 12,0 0,-7 11,-12 25,-12 h 25 v 155 155 h -25 c -23,0 -25,-3 -25,-52 z m -16,-77 c 13,-14 16,-33 14,-72 -3,-47 -7,-55 -31,-69 -27,-14 -29,-14 -48,9 -37,45 -16,151 30,151 10,0 26,-9 35,-19 z"
       id="path23142" />
    <path
       d="m 3630,6210 c 0,-15 7,-20 25,-20 18,0 25,5 25,20 0,15 -7,20 -25,20 -18,0 -25,-5 -25,-20 z"
       id="path23144" />
    <path
       d="m 3740,6211 c -5,-11 -10,-29 -10,-40 0,-12 -7,-21 -15,-21 -8,0 -15,-7 -15,-15 0,-8 7,-15 15,-15 12,0 15,-18 15,-100 v -100 h 25 25 v 100 100 h 30 30 v -100 -100 h 25 25 v 100 c 0,93 1,100 20,100 11,0 20,7 20,15 0,8 -9,15 -20,15 -14,0 -20,7 -20,21 0,12 8,23 20,26 34,9 24,33 -15,33 -36,0 -55,-20 -55,-59 0,-17 -6,-21 -30,-21 -24,0 -30,4 -30,21 0,12 8,23 20,26 34,9 24,33 -15,33 -24,0 -37,-6 -45,-19 z"
       id="path23146" />
    <path
       d="m 3995,6186 c -57,-97 -57,-215 0,-312 19,-33 32,-44 50,-44 h 24 l -32,52 c -30,48 -32,56 -32,148 0,92 2,100 32,148 l 32,52 h -24 c -18,0 -31,-11 -50,-44 z"
       id="path23148" />
    <path
       d="m 4345,6186 c -57,-97 -57,-215 0,-312 19,-33 32,-44 50,-44 h 24 l -32,52 c -30,48 -32,56 -32,148 0,92 2,100 32,148 l 32,52 h -24 c -18,0 -31,-11 -50,-44 z"
       id="path23150" />
    <path
       d="m 4559,6201 c 68,-95 68,-247 0,-342 l -21,-31 28,4 c 23,2 34,13 59,62 25,51 30,70 30,136 0,66 -5,85 -30,136 -25,49 -36,60 -59,62 l -28,4 z"
       id="path23152" />
    <path
       d="m 5059,6201 c 33,-45 51,-107 51,-171 0,-64 -18,-126 -51,-171 l -21,-31 28,4 c 23,2 34,13 59,62 25,51 30,70 30,136 0,66 -5,85 -30,136 -25,49 -36,60 -59,62 l -28,4 z"
       id="path23154" />
    <path
       d="m 6739,6201 c 33,-45 51,-107 51,-171 0,-64 -18,-126 -51,-171 l -21,-31 28,4 c 23,2 34,13 59,62 25,51 30,70 30,136 0,66 -5,85 -30,136 -25,49 -36,60 -59,62 l -28,4 z"
       id="path23156" />
    <path
       d="m 3320,6160 c 0,-43 3,-50 20,-50 17,0 20,7 20,50 0,43 -3,50 -20,50 -17,0 -20,-7 -20,-50 z"
       id="path23158" />
    <path
       d="m 5827,6180 c -47,-55 -47,-175 0,-231 33,-38 98,-41 131,-6 43,46 54,136 26,207 -19,48 -38,60 -92,60 -32,0 -45,-6 -65,-30 z m 111,-28 c 7,-9 12,-45 12,-87 0,-72 -11,-102 -40,-105 -34,-5 -47,1 -58,25 -14,31 -16,124 -3,159 15,37 61,41 89,8 z"
       id="path23160" />
    <path
       d="m 6558,6187 c -16,-13 -28,-30 -28,-40 0,-21 13,-22 30,-2 24,29 30,14 30,-85 v -100 h -35 c -28,0 -35,-4 -35,-20 0,-19 7,-20 96,-20 86,0 95,2 92,18 -2,11 -14,18 -36,20 l -32,3 v 125 124 h -27 c -16,-1 -40,-11 -55,-23 z"
       id="path23162" />
    <path
       d="m 2084,6175 c -3,-14 -12,-25 -20,-25 -8,0 -14,-7 -14,-15 0,-8 7,-15 15,-15 12,0 15,-16 15,-88 0,-99 7,-112 58,-112 26,0 33,4 30,17 -2,10 -12,18 -23,18 -18,0 -20,8 -23,83 -3,77 -2,82 18,82 11,0 20,7 20,15 0,8 -9,15 -20,15 -15,0 -20,7 -20,25 0,15 -6,25 -15,25 -8,0 -17,-11 -21,-25 z"
       id="path23164" />
    <path
       d="m 4456,6175 c -4,-14 -13,-25 -21,-25 -8,0 -15,-7 -15,-15 0,-8 7,-15 15,-15 12,0 15,-16 15,-88 0,-98 7,-112 57,-112 38,0 47,27 11,32 -21,3 -23,9 -26,86 -3,77 -2,82 18,82 11,0 20,7 20,15 0,8 -9,15 -20,15 -15,0 -20,7 -20,25 0,15 -6,25 -14,25 -8,0 -17,-11 -20,-25 z"
       id="path23166" />
    <path
       d="m 4956,6175 c -4,-14 -13,-25 -21,-25 -8,0 -15,-7 -15,-15 0,-8 7,-15 15,-15 12,0 15,-16 15,-88 0,-98 7,-112 57,-112 38,0 47,27 11,32 -21,3 -23,9 -26,86 -3,77 -2,82 18,82 11,0 20,7 20,15 0,8 -9,15 -20,15 -15,0 -20,7 -20,25 0,15 -6,25 -14,25 -8,0 -17,-11 -20,-25 z"
       id="path23168" />
    <path
       d="m 5456,6175 c -4,-14 -13,-25 -21,-25 -8,0 -15,-7 -15,-15 0,-8 7,-15 15,-15 12,0 15,-16 15,-88 0,-98 7,-112 57,-112 38,0 47,27 11,32 -21,3 -23,9 -26,86 -3,77 -2,82 18,82 11,0 20,7 20,15 0,8 -9,15 -20,15 -15,0 -20,7 -20,25 0,15 -6,25 -14,25 -8,0 -17,-11 -20,-25 z"
       id="path23170" />
    <path
       d="m 401,6135 c -25,-37 -51,-121 -51,-165 0,-77 57,-200 93,-200 22,0 21,6 -1,38 -30,43 -42,90 -42,162 0,72 12,119 42,162 22,32 23,38 1,38 -10,0 -29,-16 -42,-35 z"
       id="path23172" />
    <path
       d="m 862,6153 c 2,-10 13,-19 26,-21 17,-3 22,2 22,17 0,16 -6,21 -26,21 -19,0 -25,-5 -22,-17 z"
       id="path23174" />
    <path
       d="m 1415,6134 c 32,-47 45,-95 45,-164 0,-69 -13,-117 -45,-164 -23,-34 -23,-36 -5,-36 23,0 63,52 80,103 27,85 11,201 -37,265 -13,17 -33,32 -43,32 -18,0 -18,-2 5,-36 z"
       id="path23176" />
    <path
       d="m 507,6135 c -32,-32 -32,-118 0,-150 21,-21 67,-19 88,5 26,28 26,112 0,140 -21,24 -67,26 -88,5 z m 71,-54 c 6,-55 -5,-83 -31,-79 -18,2 -23,10 -25,47 -4,57 3,73 30,69 18,-2 24,-11 26,-37 z"
       id="path23178" />
    <path
       d="m 712,6123 c -61,-88 -163,-255 -158,-260 14,-14 37,14 119,140 48,75 87,138 87,142 0,16 -31,1 -48,-22 z"
       id="path23180" />
    <path
       d="m 1003,6057 c -35,-51 -63,-100 -63,-110 0,-14 10,-17 65,-17 h 65 v -35 c 0,-28 4,-35 20,-35 16,0 20,7 20,35 0,28 4,35 20,35 11,0 20,7 20,15 0,8 -9,15 -20,15 -19,0 -20,7 -20,95 0,92 -1,95 -22,95 -18,-1 -38,-23 -85,-93 z m 64,-94 c -3,-2 -23,-3 -46,-1 l -40,3 42,61 42,61 3,-60 c 2,-32 1,-61 -1,-64 z"
       id="path23182" />
    <path
       d="m 1233,6057 c -35,-51 -63,-100 -63,-110 0,-14 10,-17 65,-17 h 65 v -35 c 0,-28 4,-35 20,-35 16,0 20,7 20,35 0,28 4,35 20,35 11,0 20,7 20,15 0,8 -9,15 -20,15 -19,0 -20,7 -20,95 0,92 -1,95 -22,95 -18,-1 -38,-23 -85,-93 z m 64,-94 c -3,-2 -23,-3 -46,-1 l -40,3 42,61 42,61 3,-60 c 2,-32 1,-61 -1,-64 z"
       id="path23184" />
    <path
       d="m 1860,6123 -21,-27 22,-8 c 17,-6 25,-4 36,12 17,24 46,26 67,4 30,-30 20,-44 -33,-44 -65,0 -95,-24 -95,-75 0,-25 6,-42 19,-51 26,-19 89,-18 106,2 12,14 14,14 25,-1 8,-10 23,-15 40,-13 33,4 43,23 14,31 -18,5 -20,13 -20,81 0,96 -15,116 -89,116 -42,0 -53,-4 -71,-27 z m 120,-108 c 0,-19 -44,-65 -63,-65 -18,0 -37,20 -37,40 0,26 22,40 62,40 28,0 38,-4 38,-15 z"
       id="path23186" />
    <path
       d="m 2171,6143 c 0,-5 17,-55 37,-113 33,-95 40,-105 63,-108 24,-3 29,2 43,40 8,24 27,74 41,112 14,37 25,70 25,72 0,2 -10,4 -23,4 -20,0 -27,-12 -53,-92 l -30,-93 -29,93 c -25,82 -31,92 -52,92 -12,0 -23,-3 -22,-7 z"
       id="path23188" />
    <path
       d="m 2420,6123 -21,-27 22,-8 c 17,-6 25,-4 36,12 17,24 46,26 67,4 30,-30 20,-44 -33,-44 -65,0 -95,-24 -95,-75 0,-25 6,-42 19,-51 26,-19 89,-18 106,2 12,14 14,14 25,-1 8,-10 23,-15 40,-13 33,4 43,23 14,31 -18,5 -20,13 -20,81 0,96 -15,116 -89,116 -42,0 -53,-4 -71,-27 z m 120,-108 c 0,-19 -44,-65 -63,-65 -18,0 -37,20 -37,40 0,26 22,40 62,40 28,0 38,-4 38,-15 z"
       id="path23190" />
    <path
       d="m 2722,6049 c 2,-86 6,-103 22,-115 24,-17 88,-18 104,-2 9,9 12,9 12,0 0,-7 11,-12 25,-12 h 25 v 115 115 h -25 c -25,0 -25,-1 -25,-85 0,-80 -1,-85 -26,-102 -46,-30 -59,-10 -62,96 -3,90 -3,91 -28,91 h -26 z"
       id="path23192" />
    <path
       d="m 2976,6127 c -45,-45 -41,-158 7,-192 34,-24 109,-20 135,8 12,13 22,26 22,29 0,15 -36,12 -52,-4 -10,-10 -27,-18 -38,-18 -26,0 -60,34 -60,60 0,18 7,20 80,20 89,0 92,3 66,65 -17,41 -42,55 -96,55 -29,0 -47,-6 -64,-23 z m 106,-24 c 33,-30 23,-43 -37,-43 -59,0 -67,8 -35,40 24,24 47,25 72,3 z"
       id="path23194" />
    <path
       d="m 3630,6035 v -115 h 25 25 v 115 115 h -25 -25 z"
       id="path23196" />
    <path
       d="m 4090,6135 c 0,-10 15,-15 55,-17 l 55,-3 -60,-85 c -33,-47 -60,-91 -60,-97 0,-10 25,-13 90,-13 72,0 90,3 90,15 0,10 -16,15 -60,17 l -60,3 60,84 c 33,46 60,90 60,98 0,10 -21,13 -85,13 -68,0 -85,-3 -85,-15 z"
       id="path23198" />
    <path
       d="m 6900,6125 c 0,-18 5,-25 20,-25 15,0 20,7 20,25 0,18 -5,25 -20,25 -15,0 -20,-7 -20,-25 z"
       id="path23200" />
    <path
       d="m 5560,6115 c 0,-12 18,-15 105,-15 87,0 105,3 105,15 0,12 -18,15 -105,15 -87,0 -105,-3 -105,-15 z"
       id="path23202" />
    <path
       d="m 860,5975 v -115 h 25 25 v 115 115 h -25 -25 z"
       id="path23204" />
    <path
       d="m 6277,6074 c -4,-4 -7,-13 -7,-21 0,-10 24,-13 106,-13 95,0 105,2 102,18 -3,14 -17,17 -99,20 -52,1 -98,0 -102,-4 z"
       id="path23206" />
    <path
       d="m 714,6029 c -13,-14 -18,-36 -18,-74 0,-62 22,-95 64,-95 42,0 65,33 65,95 0,38 -5,59 -19,74 -24,27 -68,27 -92,0 z m 71,-74 c 0,-57 -1,-60 -25,-60 -23,0 -25,4 -28,49 -4,62 2,78 30,74 21,-3 23,-8 23,-63 z"
       id="path23208" />
    <path
       d="m 5560,6005 c 0,-12 18,-15 105,-15 87,0 105,3 105,15 0,12 -18,15 -105,15 -87,0 -105,-3 -105,-15 z"
       id="path23210" />
    <path
       d="m 4717,5963 c -11,-10 -8,-43 4,-43 7,0 8,-11 4,-30 -5,-23 -3,-30 8,-30 19,0 27,21 27,71 0,31 -4,39 -18,39 -10,0 -22,-3 -25,-7 z"
       id="path23212" />
    <path
       d="m 5217,5963 c -11,-10 -8,-43 4,-43 7,0 8,-11 4,-30 -5,-23 -3,-30 8,-30 19,0 27,21 27,71 0,31 -4,39 -18,39 -10,0 -22,-3 -25,-7 z"
       id="path23214" />
    <path
       d="m 6047,5963 c -11,-10 -8,-43 4,-43 7,0 8,-11 4,-30 -5,-23 -3,-30 8,-30 19,0 27,21 27,71 0,31 -4,39 -18,39 -10,0 -22,-3 -25,-7 z"
       id="path23216" />
    <path
       d="m 6903,5915 c 3,-85 37,-70 37,16 0,32 -3,39 -19,39 -18,0 -20,-7 -18,-55 z"
       id="path23218" />
    <path
       d="m 2188,5529 c -16,-11 -28,-29 -28,-40 0,-23 4,-23 35,-3 l 25,16 v -101 -101 h -35 c -28,0 -35,-4 -35,-20 0,-19 7,-20 96,-20 86,0 95,2 92,18 -2,11 -14,18 -36,20 l -32,3 v 125 124 h -27 c -16,0 -40,-10 -55,-21 z"
       id="path23220" />
    <path
       d="m 396,5493 c -36,-55 -50,-130 -36,-195 14,-66 53,-128 81,-128 19,0 19,1 -4,33 -64,85 -64,209 0,295 23,31 23,32 4,32 -13,0 -30,-15 -45,-37 z"
       id="path23222" />
    <path
       d="m 1480,5524 c 0,-3 8,-18 18,-32 56,-80 56,-204 0,-284 -22,-32 -22,-38 -3,-38 22,0 63,68 76,127 15,65 1,141 -37,196 -21,32 -54,50 -54,31 z"
       id="path23224" />
    <path
       d="m 497,5505 c -37,-36 -27,-137 14,-150 37,-12 67,3 79,40 21,63 -7,125 -55,125 -13,0 -30,-7 -38,-15 z m 64,-32 c 16,-40 0,-98 -26,-98 -15,0 -22,10 -29,37 -17,69 31,122 55,61 z"
       id="path23226" />
    <path
       d="m 620,5385 c -68,-101 -86,-135 -73,-135 12,1 48,47 105,135 54,83 82,135 73,135 -8,0 -55,-61 -105,-135 z"
       id="path23228" />
    <path
       d="m 1101,5431 c -34,-49 -61,-97 -61,-105 0,-13 12,-16 65,-16 h 65 v -30 c 0,-20 5,-30 15,-30 10,0 15,10 15,30 0,23 4,30 20,30 11,0 20,7 20,15 0,8 -9,15 -20,15 -19,0 -20,7 -20,90 0,82 -2,90 -19,90 -12,0 -39,-30 -80,-89 z m 69,-26 v -65 h -46 c -25,0 -44,3 -42,8 6,14 81,122 84,122 2,0 4,-29 4,-65 z"
       id="path23230" />
    <path
       d="m 1321,5431 c -34,-49 -61,-97 -61,-105 0,-13 12,-16 65,-16 h 65 v -30 c 0,-20 5,-30 15,-30 10,0 15,10 15,30 0,23 4,30 20,30 11,0 20,7 20,15 0,8 -9,15 -20,15 -19,0 -20,7 -20,90 0,82 -2,90 -19,90 -12,0 -39,-30 -80,-89 z m 69,-26 v -65 h -46 c -25,0 -44,3 -42,8 6,14 81,122 84,122 2,0 4,-29 4,-65 z"
       id="path23232" />
    <path
       d="m 855,5435 c -21,-20 -25,-34 -25,-80 0,-72 28,-105 90,-105 62,0 90,33 90,105 0,72 -28,105 -90,105 -30,0 -47,-6 -65,-25 z m 105,-20 c 15,-18 15,-102 0,-120 -17,-20 -64,-19 -81,2 -8,9 -14,35 -14,58 0,23 6,49 14,58 17,21 64,22 81,2 z"
       id="path23234" />
    <path
       d="m 697,5405 c -23,-22 -30,-70 -17,-109 12,-38 37,-51 75,-42 42,11 58,111 24,153 -15,18 -64,17 -82,-2 z m 63,-24 c 24,-45 1,-121 -33,-108 -35,13 -28,127 7,127 9,0 20,-9 26,-19 z"
       id="path23236" />
    <path
       d="m 1847,5413 c -4,-3 -7,-12 -7,-20 0,-10 24,-13 105,-13 98,0 105,1 105,20 0,19 -7,20 -98,20 -54,0 -102,-3 -105,-7 z"
       id="path23238" />
    <path
       d="m 2630,4665 v -155 h 25 25 v 155 155 h -25 -25 z"
       id="path23240" />
    <path
       d="m 3225,4776 c -57,-97 -57,-215 0,-312 19,-33 32,-44 50,-44 h 24 l -32,52 c -30,48 -32,56 -32,148 0,92 2,100 32,148 l 32,52 h -24 c -18,0 -31,-11 -50,-44 z"
       id="path23242" />
    <path
       d="m 3575,4776 c -57,-97 -57,-215 0,-312 19,-33 32,-44 50,-44 h 24 l -32,52 c -30,48 -32,56 -32,148 0,92 2,100 32,148 l 32,52 h -24 c -18,0 -31,-11 -50,-44 z"
       id="path23244" />
    <path
       d="m 3789,4791 c 33,-45 51,-107 51,-171 0,-64 -18,-126 -51,-171 l -21,-31 28,4 c 23,2 34,13 59,62 25,51 30,70 30,136 0,66 -5,85 -30,136 -25,49 -36,60 -59,62 l -28,4 z"
       id="path23246" />
    <path
       d="m 5229,4791 c 33,-45 51,-107 51,-171 0,-64 -18,-126 -51,-171 l -21,-31 28,4 c 23,2 34,13 59,62 25,51 30,70 30,136 0,66 -5,85 -30,136 -25,49 -36,60 -59,62 l -28,4 z"
       id="path23248" />
    <path
       d="m 4557,4770 c -47,-55 -47,-175 0,-231 33,-38 98,-41 131,-6 43,46 54,136 26,207 -19,48 -38,60 -92,60 -32,0 -45,-6 -65,-30 z m 111,-28 c 7,-9 12,-45 12,-87 0,-72 -11,-102 -40,-105 -34,-5 -47,1 -58,25 -14,31 -16,124 -3,159 15,37 61,41 89,8 z"
       id="path23250" />
    <path
       d="m 5048,4777 c -16,-13 -28,-30 -28,-40 0,-21 13,-22 30,-2 24,29 30,14 30,-85 v -100 h -35 c -28,0 -35,-4 -35,-20 0,-19 7,-20 96,-20 86,0 95,2 92,18 -2,11 -14,18 -36,20 l -32,3 v 125 124 h -27 c -16,-1 -40,-11 -55,-23 z"
       id="path23252" />
    <path
       d="m 2084,4765 c -3,-14 -12,-25 -20,-25 -8,0 -14,-7 -14,-15 0,-8 7,-15 15,-15 12,0 15,-16 15,-88 0,-99 7,-112 58,-112 26,0 33,4 30,17 -2,10 -12,18 -23,18 -18,0 -20,8 -23,83 -3,77 -2,82 18,82 11,0 20,7 20,15 0,8 -9,15 -20,15 -15,0 -20,7 -20,25 0,15 -6,25 -15,25 -8,0 -17,-11 -21,-25 z"
       id="path23254" />
    <path
       d="m 3686,4765 c -4,-14 -13,-25 -21,-25 -8,0 -15,-7 -15,-15 0,-8 7,-15 15,-15 12,0 15,-16 15,-88 0,-98 7,-112 57,-112 38,0 47,27 11,32 -21,3 -23,9 -26,86 -3,77 -2,82 18,82 11,0 20,7 20,15 0,8 -9,15 -20,15 -15,0 -20,7 -20,25 0,15 -6,25 -14,25 -8,0 -17,-11 -20,-25 z"
       id="path23256" />
    <path
       d="m 4186,4765 c -4,-14 -13,-25 -21,-25 -8,0 -15,-7 -15,-15 0,-8 7,-15 15,-15 12,0 15,-16 15,-88 0,-98 7,-112 57,-112 38,0 47,27 11,32 -21,3 -23,9 -26,86 -3,77 -2,82 18,82 11,0 20,7 20,15 0,8 -9,15 -20,15 -15,0 -20,7 -20,25 0,15 -6,25 -14,25 -8,0 -17,-11 -20,-25 z"
       id="path23258" />
    <path
       d="m 401,4725 c -25,-37 -51,-121 -51,-165 0,-77 57,-200 93,-200 22,0 21,6 -1,38 -30,43 -42,90 -42,162 0,72 12,119 42,162 22,32 23,38 1,38 -10,0 -29,-16 -42,-35 z"
       id="path23260" />
    <path
       d="m 862,4743 c 2,-10 13,-19 26,-21 17,-3 22,2 22,17 0,16 -6,21 -26,21 -19,0 -25,-5 -22,-17 z"
       id="path23262" />
    <path
       d="m 1415,4724 c 32,-47 45,-95 45,-164 0,-69 -13,-117 -45,-164 -23,-34 -23,-36 -5,-36 23,0 63,52 80,103 27,85 11,201 -37,265 -13,17 -33,32 -43,32 -18,0 -18,-2 5,-36 z"
       id="path23264" />
    <path
       d="m 507,4725 c -32,-32 -32,-118 0,-150 21,-21 67,-19 88,5 26,28 26,112 0,140 -21,24 -67,26 -88,5 z m 71,-54 c 6,-55 -5,-83 -31,-79 -18,2 -23,10 -25,47 -4,57 3,73 30,69 18,-2 24,-11 26,-37 z"
       id="path23266" />
    <path
       d="m 712,4713 c -61,-88 -163,-255 -158,-260 14,-14 37,14 119,140 48,75 87,138 87,142 0,16 -31,1 -48,-22 z"
       id="path23268" />
    <path
       d="m 1003,4647 c -35,-51 -63,-100 -63,-110 0,-14 10,-17 65,-17 h 65 v -35 c 0,-28 4,-35 20,-35 16,0 20,7 20,35 0,28 4,35 20,35 11,0 20,7 20,15 0,8 -9,15 -20,15 -19,0 -20,7 -20,95 0,92 -1,95 -22,95 -18,-1 -38,-23 -85,-93 z m 64,-94 c -3,-2 -23,-3 -46,-1 l -40,3 42,61 42,61 3,-60 c 2,-32 1,-61 -1,-64 z"
       id="path23270" />
    <path
       d="m 1231,4724 c -66,-47 -68,-228 -3,-263 30,-16 84,-13 109,4 26,18 43,71 36,109 -11,53 -83,83 -135,55 -19,-10 -20,-9 -14,17 7,31 39,64 61,64 8,0 21,-7 29,-16 9,-8 26,-14 38,-12 l 23,3 -27,28 c -32,32 -80,36 -117,11 z m 83,-130 c 9,-8 16,-31 16,-49 0,-68 -76,-82 -100,-19 -14,35 -13,41 10,64 24,24 53,26 74,4 z"
       id="path23272" />
    <path
       d="m 1860,4713 -21,-27 22,-8 c 17,-6 25,-4 36,12 17,24 46,26 67,4 30,-30 20,-44 -33,-44 -65,0 -95,-24 -95,-75 0,-25 6,-42 19,-51 26,-19 89,-18 106,2 12,14 14,14 25,-1 8,-10 23,-15 40,-13 33,4 43,23 14,31 -18,5 -20,13 -20,81 0,96 -15,116 -89,116 -42,0 -53,-4 -71,-27 z m 120,-108 c 0,-19 -44,-65 -63,-65 -18,0 -37,20 -37,40 0,26 22,40 62,40 28,0 38,-4 38,-15 z"
       id="path23274" />
    <path
       d="m 2171,4733 c 0,-5 17,-55 37,-113 33,-95 40,-105 63,-108 24,-3 29,2 43,40 8,24 27,74 41,112 14,37 25,70 25,72 0,2 -10,4 -23,4 -20,0 -27,-12 -53,-92 l -30,-93 -29,93 c -25,82 -31,92 -52,92 -12,0 -23,-3 -22,-7 z"
       id="path23276" />
    <path
       d="m 2420,4713 -21,-27 22,-8 c 17,-6 25,-4 36,12 17,24 46,26 67,4 30,-30 20,-44 -33,-44 -65,0 -95,-24 -95,-75 0,-25 6,-42 19,-51 26,-19 89,-18 106,2 12,14 14,14 25,-1 8,-10 23,-15 40,-13 33,4 43,23 14,31 -18,5 -20,13 -20,81 0,96 -15,116 -89,116 -42,0 -53,-4 -71,-27 z m 120,-108 c 0,-19 -44,-65 -63,-65 -18,0 -37,20 -37,40 0,26 22,40 62,40 28,0 38,-4 38,-15 z"
       id="path23278" />
    <path
       d="m 2722,4639 c 2,-86 6,-103 22,-115 24,-17 88,-18 104,-2 9,9 12,9 12,0 0,-7 11,-12 25,-12 h 25 v 115 115 h -25 c -25,0 -25,-1 -25,-85 0,-80 -1,-85 -26,-102 -46,-30 -59,-10 -62,96 -3,90 -3,91 -28,91 h -26 z"
       id="path23280" />
    <path
       d="m 2976,4717 c -45,-45 -41,-158 7,-192 34,-24 109,-20 135,8 12,13 22,26 22,29 0,15 -36,12 -52,-4 -24,-24 -53,-23 -78,2 -11,11 -20,29 -20,40 0,18 7,20 80,20 89,0 92,3 66,65 -17,41 -42,55 -96,55 -29,0 -47,-6 -64,-23 z m 106,-24 c 33,-30 23,-43 -37,-43 -59,0 -67,8 -35,40 24,24 47,25 72,3 z"
       id="path23282" />
    <path
       d="m 3300,4736 c 0,-2 18,-52 41,-111 45,-122 45,-151 -1,-168 -39,-15 -39,-37 -1,-37 29,0 53,16 70,48 8,16 101,262 101,269 0,2 -10,3 -23,3 -20,0 -27,-11 -51,-87 l -29,-88 -30,88 c -27,76 -33,87 -54,87 -13,0 -23,-2 -23,-4 z"
       id="path23284" />
    <path
       d="m 5390,4715 c 0,-18 5,-25 20,-25 15,0 20,7 20,25 0,18 -5,25 -20,25 -15,0 -20,-7 -20,-25 z"
       id="path23286" />
    <path
       d="m 4290,4705 c 0,-12 18,-15 105,-15 87,0 105,3 105,15 0,12 -18,15 -105,15 -87,0 -105,-3 -105,-15 z"
       id="path23288" />
    <path
       d="m 860,4565 v -115 h 25 25 v 115 115 h -25 -25 z"
       id="path23290" />
    <path
       d="m 714,4619 c -13,-14 -18,-36 -18,-74 0,-62 22,-95 64,-95 42,0 65,33 65,95 0,38 -5,59 -19,74 -24,27 -68,27 -92,0 z m 71,-74 c 0,-57 -1,-60 -25,-60 -23,0 -25,4 -28,49 -4,62 2,78 30,74 21,-3 23,-8 23,-63 z"
       id="path23292" />
    <path
       d="m 4290,4595 c 0,-12 18,-15 105,-15 87,0 105,3 105,15 0,12 -18,15 -105,15 -87,0 -105,-3 -105,-15 z"
       id="path23294" />
    <path
       d="m 3947,4553 c -11,-10 -8,-43 4,-43 7,0 8,-11 4,-30 -5,-23 -3,-30 8,-30 19,0 27,21 27,71 0,31 -4,39 -18,39 -10,0 -22,-3 -25,-7 z"
       id="path23296" />
    <path
       d="m 4777,4553 c -11,-10 -8,-43 4,-43 7,0 8,-11 4,-30 -5,-23 -3,-30 8,-30 19,0 27,21 27,71 0,31 -4,39 -18,39 -10,0 -22,-3 -25,-7 z"
       id="path23298" />
    <path
       d="m 5393,4505 c 3,-85 37,-70 37,16 0,32 -3,39 -19,39 -18,0 -20,-7 -18,-55 z"
       id="path23300" />
    <path
       d="m 1888,4119 c -16,-11 -28,-29 -28,-40 0,-23 4,-23 35,-3 l 25,16 v -101 -101 h -35 c -28,0 -35,-4 -35,-20 0,-19 7,-20 96,-20 86,0 95,2 92,18 -2,11 -14,18 -36,20 l -32,3 v 125 124 h -27 c -16,0 -40,-10 -55,-21 z"
       id="path23302" />
    <path
       d="m 396,4083 c -36,-55 -50,-130 -36,-195 14,-66 53,-128 81,-128 19,0 19,1 -4,33 -64,85 -64,209 0,295 23,31 23,32 4,32 -13,0 -30,-15 -45,-37 z"
       id="path23304" />
    <path
       d="m 1480,4114 c 0,-3 8,-18 18,-32 28,-39 42,-89 42,-142 0,-53 -14,-103 -42,-142 -22,-32 -22,-38 -3,-38 22,0 63,68 76,127 15,65 1,141 -37,196 -21,32 -54,50 -54,31 z"
       id="path23306" />
    <path
       d="m 497,4095 c -37,-36 -27,-137 14,-150 37,-12 67,3 79,40 21,63 -7,125 -55,125 -13,0 -30,-7 -38,-15 z m 64,-32 c 16,-40 0,-98 -26,-98 -15,0 -22,10 -29,37 -17,69 31,122 55,61 z"
       id="path23308" />
    <path
       d="m 620,3975 c -68,-101 -86,-135 -73,-135 12,1 48,47 105,135 54,83 82,135 73,135 -8,0 -55,-61 -105,-135 z"
       id="path23310" />
    <path
       d="m 1101,4021 c -34,-49 -61,-97 -61,-105 0,-13 12,-16 65,-16 h 65 v -30 c 0,-20 5,-30 15,-30 10,0 15,10 15,30 0,23 4,30 20,30 11,0 20,7 20,15 0,8 -9,15 -20,15 -19,0 -20,7 -20,90 0,82 -2,90 -19,90 -12,0 -39,-30 -80,-89 z m 69,-26 v -65 h -46 c -25,0 -44,3 -42,8 6,14 81,122 84,122 2,0 4,-29 4,-65 z"
       id="path23312" />
    <path
       d="m 1323,4098 c -68,-33 -71,-212 -4,-248 62,-32 131,9 131,78 0,53 -27,85 -71,86 -19,0 -42,-4 -51,-8 -14,-6 -18,-4 -18,11 0,50 61,83 90,48 16,-19 40,-19 40,-1 0,37 -70,57 -117,34 z m 72,-122 c 21,-15 25,-67 5,-90 -29,-36 -90,-5 -90,45 0,50 45,74 85,45 z"
       id="path23314" />
    <path
       d="m 855,4025 c -21,-20 -25,-34 -25,-80 0,-72 28,-105 90,-105 62,0 90,33 90,105 0,46 -4,60 -25,80 -34,35 -96,35 -130,0 z m 105,-20 c 15,-18 15,-102 0,-120 -17,-20 -64,-19 -81,2 -8,9 -14,35 -14,58 0,23 6,49 14,58 17,21 64,22 81,2 z"
       id="path23316" />
    <path
       d="m 697,3995 c -23,-22 -30,-70 -17,-109 12,-38 37,-51 75,-42 42,11 58,111 24,153 -15,18 -64,17 -82,-2 z m 63,-24 c 24,-45 1,-121 -33,-108 -35,13 -28,127 7,127 9,0 20,-9 26,-19 z"
       id="path23318" />
    <path
       d="m 2630,3255 v -155 h 25 25 v 155 155 h -25 -25 z"
       id="path23320" />
    <path
       d="m 3225,3366 c -57,-97 -57,-215 0,-312 19,-33 32,-44 50,-44 h 24 l -32,52 c -30,48 -32,56 -32,148 0,92 2,100 32,148 l 32,52 h -24 c -18,0 -31,-11 -50,-44 z"
       id="path23322" />
    <path
       d="m 3540,3358 c 0,-40 -3,-49 -12,-40 -21,21 -82,15 -105,-10 -39,-44 -37,-165 3,-195 22,-16 86,-17 102,-1 9,9 12,9 12,0 0,-7 11,-12 25,-12 h 25 v 155 155 h -25 c -23,0 -25,-3 -25,-52 z m -16,-77 c 13,-14 16,-33 14,-72 -3,-47 -7,-55 -31,-69 -27,-14 -29,-14 -48,9 -37,45 -16,151 30,151 10,0 26,-9 35,-19 z"
       id="path23324" />
    <path
       d="m 3630,3390 c 0,-15 7,-20 25,-20 18,0 25,5 25,20 0,15 -7,20 -25,20 -18,0 -25,-5 -25,-20 z"
       id="path23326" />
    <path
       d="m 3740,3391 c -5,-11 -10,-29 -10,-40 0,-12 -7,-21 -15,-21 -8,0 -15,-7 -15,-15 0,-8 7,-15 15,-15 12,0 15,-18 15,-100 v -100 h 25 25 v 100 100 h 30 30 v -100 -100 h 25 25 v 100 c 0,93 1,100 20,100 11,0 20,7 20,15 0,8 -9,15 -20,15 -14,0 -20,7 -20,21 0,12 8,23 20,26 34,9 24,33 -15,33 -36,0 -55,-20 -55,-59 0,-17 -6,-21 -30,-21 -24,0 -30,4 -30,21 0,12 8,23 20,26 34,9 24,33 -15,33 -24,0 -37,-6 -45,-19 z"
       id="path23328" />
    <path
       d="m 3995,3366 c -57,-97 -57,-215 0,-312 19,-33 32,-44 50,-44 h 24 l -32,52 c -30,48 -32,56 -32,148 0,92 2,100 32,148 l 32,52 h -24 c -18,0 -31,-11 -50,-44 z"
       id="path23330" />
    <path
       d="m 4345,3366 c -57,-97 -57,-215 0,-312 19,-33 32,-44 50,-44 h 24 l -32,52 c -30,48 -32,56 -32,148 0,92 2,100 32,148 l 32,52 h -24 c -18,0 -31,-11 -50,-44 z"
       id="path23332" />
    <path
       d="m 4559,3381 c 33,-45 51,-107 51,-171 0,-64 -18,-126 -51,-171 l -21,-31 28,4 c 23,2 34,13 59,62 25,51 30,70 30,136 0,66 -5,85 -30,136 -25,49 -36,60 -59,62 l -28,4 z"
       id="path23334" />
    <path
       d="m 5059,3381 c 33,-45 51,-107 51,-171 0,-64 -18,-126 -51,-171 l -21,-31 28,4 c 23,2 34,13 59,62 25,51 30,70 30,136 0,66 -5,85 -30,136 -25,49 -36,60 -59,62 l -28,4 z"
       id="path23336" />
    <path
       d="m 6499,3381 c 33,-45 51,-107 51,-171 0,-64 -18,-126 -51,-171 l -21,-31 28,4 c 23,2 34,13 59,62 25,51 30,70 30,136 0,66 -5,85 -30,136 -25,49 -36,60 -59,62 l -28,4 z"
       id="path23338" />
    <path
       d="m 3320,3340 c 0,-43 3,-50 20,-50 17,0 20,7 20,50 0,43 -3,50 -20,50 -17,0 -20,-7 -20,-50 z"
       id="path23340" />
    <path
       d="m 5827,3360 c -47,-55 -47,-175 0,-231 33,-38 98,-41 131,-6 43,46 54,136 26,207 -19,48 -38,60 -92,60 -32,0 -45,-6 -65,-30 z m 111,-28 c 7,-9 12,-45 12,-87 0,-72 -11,-102 -40,-105 -34,-5 -47,1 -58,25 -14,31 -16,124 -3,159 15,37 61,41 89,8 z"
       id="path23342" />
    <path
       d="m 6297,3360 c -47,-55 -47,-175 0,-231 33,-38 98,-41 131,-6 43,46 54,136 26,207 -19,48 -38,60 -92,60 -32,0 -45,-6 -65,-30 z m 111,-28 c 7,-9 12,-45 12,-87 0,-72 -11,-102 -40,-105 -34,-5 -47,1 -58,25 -14,31 -16,124 -3,159 15,37 61,41 89,8 z"
       id="path23344" />
    <path
       d="m 2084,3355 c -3,-14 -12,-25 -20,-25 -8,0 -14,-7 -14,-15 0,-8 7,-15 15,-15 12,0 15,-16 15,-88 0,-99 7,-112 58,-112 26,0 33,4 30,17 -2,10 -12,18 -23,18 -18,0 -20,8 -23,83 -3,77 -2,82 18,82 11,0 20,7 20,15 0,8 -9,15 -20,15 -15,0 -20,7 -20,25 0,15 -6,25 -15,25 -8,0 -17,-11 -21,-25 z"
       id="path23346" />
    <path
       d="m 4456,3355 c -4,-14 -13,-25 -21,-25 -8,0 -15,-7 -15,-15 0,-8 7,-15 15,-15 12,0 15,-16 15,-88 0,-98 7,-112 57,-112 38,0 47,27 11,32 -21,3 -23,9 -26,86 -3,77 -2,82 18,82 11,0 20,7 20,15 0,8 -9,15 -20,15 -15,0 -20,7 -20,25 0,15 -6,25 -14,25 -8,0 -17,-11 -20,-25 z"
       id="path23348" />
    <path
       d="m 4956,3355 c -4,-14 -13,-25 -21,-25 -8,0 -15,-7 -15,-15 0,-8 7,-15 15,-15 12,0 15,-16 15,-88 0,-98 7,-112 57,-112 38,0 47,27 11,32 -21,3 -23,9 -26,86 -3,77 -2,82 18,82 11,0 20,7 20,15 0,8 -9,15 -20,15 -15,0 -20,7 -20,25 0,15 -6,25 -14,25 -8,0 -17,-11 -20,-25 z"
       id="path23350" />
    <path
       d="m 5456,3355 c -4,-14 -13,-25 -21,-25 -8,0 -15,-7 -15,-15 0,-8 7,-15 15,-15 12,0 15,-16 15,-88 0,-98 7,-112 57,-112 38,0 47,27 11,32 -21,3 -23,9 -26,86 -3,77 -2,82 18,82 11,0 20,7 20,15 0,8 -9,15 -20,15 -15,0 -20,7 -20,25 0,15 -6,25 -14,25 -8,0 -17,-11 -20,-25 z"
       id="path23352" />
    <path
       d="m 401,3315 c -25,-37 -51,-121 -51,-165 0,-77 57,-200 93,-200 22,0 21,6 -1,38 -30,43 -42,90 -42,162 0,72 12,119 42,162 22,32 23,38 1,38 -10,0 -29,-16 -42,-35 z"
       id="path23354" />
    <path
       d="m 862,3333 c 2,-10 13,-19 26,-21 17,-3 22,2 22,17 0,16 -6,21 -26,21 -19,0 -25,-5 -22,-17 z"
       id="path23356" />
    <path
       d="m 1415,3314 c 32,-47 45,-95 45,-164 0,-69 -13,-117 -45,-164 -23,-34 -23,-36 -5,-36 23,0 63,52 80,103 27,85 11,201 -37,265 -13,17 -33,32 -43,32 -18,0 -18,-2 5,-36 z"
       id="path23358" />
    <path
       d="m 507,3315 c -32,-32 -32,-118 0,-150 21,-21 67,-19 88,5 26,28 26,112 0,140 -21,24 -67,26 -88,5 z m 71,-54 c 6,-55 -5,-83 -31,-79 -18,2 -23,10 -25,47 -4,57 3,73 30,69 18,-2 24,-11 26,-37 z"
       id="path23360" />
    <path
       d="m 712,3303 c -61,-88 -163,-255 -158,-260 14,-14 37,14 119,140 48,75 87,138 87,142 0,16 -31,1 -48,-22 z"
       id="path23362" />
    <path
       d="m 1003,3237 c -35,-51 -63,-100 -63,-110 0,-14 10,-17 65,-17 h 65 v -35 c 0,-28 4,-35 20,-35 16,0 20,7 20,35 0,28 4,35 20,35 11,0 20,7 20,15 0,8 -9,15 -20,15 -19,0 -20,7 -20,95 0,92 -1,95 -22,95 -18,-1 -38,-23 -85,-93 z m 64,-94 c -3,-2 -23,-3 -46,-1 l -40,3 42,61 42,61 3,-60 c 2,-32 1,-61 -1,-64 z"
       id="path23364" />
    <path
       d="m 1187,3258 c -3,-40 -4,-74 -1,-77 2,-3 25,1 51,7 39,11 49,10 69,-3 34,-22 33,-78 0,-100 -29,-19 -72,-11 -86,16 -6,10 -17,16 -25,13 -44,-17 16,-74 79,-74 53,0 82,21 96,68 22,72 -24,127 -100,120 l -40,-4 v 38 38 h 65 c 51,0 65,3 65,15 0,12 -16,15 -84,15 h -83 z"
       id="path23366" />
    <path
       d="m 1860,3303 -21,-27 22,-8 c 17,-6 25,-4 36,12 17,24 46,26 67,4 30,-30 20,-44 -33,-44 -65,0 -95,-24 -95,-75 0,-25 6,-42 19,-51 26,-19 89,-18 106,2 12,14 14,14 25,-1 8,-10 23,-15 40,-13 33,4 43,23 14,31 -18,5 -20,13 -20,81 0,96 -15,116 -89,116 -42,0 -53,-4 -71,-27 z m 120,-108 c 0,-19 -44,-65 -63,-65 -18,0 -37,20 -37,40 0,26 22,40 62,40 28,0 38,-4 38,-15 z"
       id="path23368" />
    <path
       d="m 2171,3323 c 0,-5 17,-55 37,-113 33,-95 40,-105 63,-108 24,-3 29,2 43,40 8,24 27,74 41,112 14,37 25,70 25,72 0,2 -10,4 -23,4 -20,0 -27,-12 -53,-92 l -30,-93 -29,93 c -25,82 -31,92 -52,92 -12,0 -23,-3 -22,-7 z"
       id="path23370" />
    <path
       d="m 2420,3303 -21,-27 22,-8 c 17,-6 25,-4 36,12 17,24 46,26 67,4 30,-30 20,-44 -33,-44 -65,0 -95,-24 -95,-75 0,-25 6,-42 19,-51 26,-19 89,-18 106,2 12,14 14,14 25,-1 8,-10 23,-15 40,-13 33,4 43,23 14,31 -18,5 -20,13 -20,81 0,96 -15,116 -89,116 -42,0 -53,-4 -71,-27 z m 120,-108 c 0,-19 -44,-65 -63,-65 -18,0 -37,20 -37,40 0,26 22,40 62,40 28,0 38,-4 38,-15 z"
       id="path23372" />
    <path
       d="m 2722,3229 c 2,-86 6,-103 22,-115 24,-17 88,-18 104,-2 9,9 12,9 12,0 0,-7 11,-12 25,-12 h 25 v 115 115 h -25 c -25,0 -25,-1 -25,-85 0,-80 -1,-85 -26,-102 -46,-30 -59,-10 -62,96 -3,90 -3,91 -28,91 h -26 z"
       id="path23374" />
    <path
       d="m 2976,3307 c -45,-45 -41,-158 7,-192 34,-24 109,-20 135,8 12,13 22,26 22,29 0,15 -36,12 -52,-4 -24,-24 -53,-23 -78,2 -11,11 -20,29 -20,40 0,18 7,20 80,20 89,0 92,3 66,65 -17,41 -42,55 -96,55 -29,0 -47,-6 -64,-23 z m 106,-24 c 33,-30 23,-43 -37,-43 -59,0 -67,8 -35,40 24,24 47,25 72,3 z"
       id="path23376" />
    <path
       d="m 3630,3215 v -115 h 25 25 v 115 115 h -25 -25 z"
       id="path23378" />
    <path
       d="m 4070,3326 c 0,-2 18,-52 41,-111 45,-122 45,-151 -1,-168 -39,-15 -39,-37 -1,-37 29,0 53,16 70,48 8,16 101,262 101,269 0,2 -10,3 -23,3 -20,0 -27,-11 -51,-87 l -29,-88 -30,88 c -27,76 -33,87 -54,87 -13,0 -23,-2 -23,-4 z"
       id="path23380" />
    <path
       d="m 6660,3305 c 0,-18 5,-25 20,-25 15,0 20,7 20,25 0,18 -5,25 -20,25 -15,0 -20,-7 -20,-25 z"
       id="path23382" />
    <path
       d="m 5560,3295 c 0,-12 18,-15 105,-15 87,0 105,3 105,15 0,12 -18,15 -105,15 -87,0 -105,-3 -105,-15 z"
       id="path23384" />
    <path
       d="m 860,3155 v -115 h 25 25 v 115 115 h -25 -25 z"
       id="path23386" />
    <path
       d="m 714,3209 c -13,-14 -18,-36 -18,-74 0,-62 22,-95 64,-95 42,0 65,33 65,95 0,38 -5,59 -19,74 -24,27 -68,27 -92,0 z m 71,-74 c 0,-57 -1,-60 -25,-60 -23,0 -25,4 -28,49 -4,62 2,78 30,74 21,-3 23,-8 23,-63 z"
       id="path23388" />
    <path
       d="m 5560,3185 c 0,-12 18,-15 105,-15 87,0 105,3 105,15 0,12 -18,15 -105,15 -87,0 -105,-3 -105,-15 z"
       id="path23390" />
    <path
       d="m 4717,3143 c -11,-10 -8,-43 4,-43 7,0 8,-11 4,-30 -5,-23 -3,-30 8,-30 19,0 27,21 27,71 0,31 -4,39 -18,39 -10,0 -22,-3 -25,-7 z"
       id="path23392" />
    <path
       d="m 5217,3143 c -11,-10 -8,-43 4,-43 7,0 8,-11 4,-30 -5,-23 -3,-30 8,-30 19,0 27,21 27,71 0,31 -4,39 -18,39 -10,0 -22,-3 -25,-7 z"
       id="path23394" />
    <path
       d="m 6047,3143 c -11,-10 -8,-43 4,-43 7,0 8,-11 4,-30 -5,-23 -3,-30 8,-30 19,0 27,21 27,71 0,31 -4,39 -18,39 -10,0 -22,-3 -25,-7 z"
       id="path23396" />
    <path
       d="m 6663,3095 c 3,-85 37,-70 37,16 0,32 -3,39 -19,39 -18,0 -20,-7 -18,-55 z"
       id="path23398" />
    <path
       d="m 1872,2710 c -54,-51 -55,-189 0,-247 25,-26 91,-32 120,-9 60,45 63,220 5,261 -31,22 -99,19 -125,-5 z m 106,-38 c 15,-19 16,-145 2,-173 -15,-27 -64,-25 -84,3 -19,27 -21,125 -5,162 17,37 60,41 87,8 z"
       id="path23400" />
    <path
       d="m 396,2673 c -36,-55 -50,-130 -36,-195 14,-66 53,-128 81,-128 19,0 19,1 -4,33 -64,85 -64,209 0,295 23,31 23,32 4,32 -13,0 -30,-15 -45,-37 z"
       id="path23402" />
    <path
       d="m 1480,2704 c 0,-3 8,-18 18,-32 28,-39 42,-89 42,-142 0,-53 -14,-103 -42,-142 -22,-32 -22,-38 -3,-38 22,0 63,68 76,127 15,65 1,141 -37,196 -21,32 -54,50 -54,31 z"
       id="path23404" />
    <path
       d="m 497,2685 c -37,-36 -27,-137 14,-150 37,-12 67,3 79,40 21,63 -7,125 -55,125 -13,0 -30,-7 -38,-15 z m 64,-32 c 16,-40 0,-98 -26,-98 -15,0 -22,10 -29,37 -17,69 31,122 55,61 z"
       id="path23406" />
    <path
       d="m 620,2565 c -68,-101 -86,-135 -73,-135 12,1 48,47 105,135 54,83 82,135 73,135 -8,0 -55,-61 -105,-135 z"
       id="path23408" />
    <path
       d="m 1101,2611 c -34,-49 -61,-97 -61,-105 0,-13 12,-16 65,-16 h 65 v -30 c 0,-20 5,-30 15,-30 10,0 15,10 15,30 0,23 4,30 20,30 11,0 20,7 20,15 0,8 -9,15 -20,15 -19,0 -20,7 -20,90 0,82 -2,90 -19,90 -12,0 -39,-30 -80,-89 z m 69,-26 v -65 h -46 c -25,0 -44,3 -42,8 6,14 81,122 84,122 2,0 4,-29 4,-65 z"
       id="path23410" />
    <path
       d="m 1277,2633 c -3,-38 -3,-70 -1,-72 2,-2 21,2 43,9 47,15 79,6 92,-27 23,-61 -56,-113 -98,-64 -20,24 -43,28 -43,7 0,-57 128,-75 165,-23 21,30 19,90 -4,118 -16,20 -28,24 -70,23 h -51 v 33 33 h 65 c 51,0 65,3 65,15 0,12 -15,15 -79,15 h -78 z"
       id="path23412" />
    <path
       d="m 855,2615 c -21,-20 -25,-34 -25,-80 0,-72 28,-105 90,-105 62,0 90,33 90,105 0,46 -4,60 -25,80 -34,35 -96,35 -130,0 z m 105,-20 c 15,-18 15,-102 0,-120 -17,-20 -64,-19 -81,2 -8,9 -14,35 -14,58 0,23 6,49 14,58 17,21 64,22 81,2 z"
       id="path23414" />
    <path
       d="m 697,2585 c -23,-22 -30,-70 -17,-109 12,-38 37,-51 75,-42 42,11 58,111 24,153 -15,18 -64,17 -82,-2 z m 63,-24 c 24,-45 1,-121 -33,-108 -35,13 -28,127 7,127 9,0 20,-9 26,-19 z"
       id="path23416" />
    <path
       d="m 1840,1845 v -155 h 25 25 v 155 155 h -25 -25 z"
       id="path23418" />
    <path
       d="m 2990,1949 c 0,-44 -2,-50 -14,-40 -8,7 -31,11 -52,9 -53,-4 -77,-40 -77,-113 0,-73 24,-109 77,-113 21,-2 45,3 53,10 13,10 17,10 20,1 3,-7 13,-13 24,-13 18,0 19,9 19,155 v 155 h -25 c -23,0 -25,-3 -25,-51 z m -16,-75 c 22,-21 21,-111 -1,-136 -37,-41 -83,-4 -83,67 0,70 46,108 84,69 z"
       id="path23420" />
    <path
       d="m 3780,1845 v -155 h 25 25 v 155 155 h -25 -25 z"
       id="path23422" />
    <path
       d="m 4330,1845 v -155 h 25 25 v 155 155 h -25 -25 z"
       id="path23424" />
    <path
       d="m 5135,1956 c -57,-97 -57,-215 0,-312 19,-33 32,-44 50,-44 h 24 l -32,52 c -30,48 -32,56 -32,148 0,92 2,100 32,148 l 32,52 h -24 c -18,0 -31,-11 -50,-44 z"
       id="path23426" />
    <path
       d="m 5600,1949 c 0,-44 -2,-50 -14,-40 -25,21 -87,9 -109,-21 -28,-37 -28,-129 0,-166 23,-31 84,-42 110,-20 13,10 17,10 20,1 3,-7 13,-13 24,-13 18,0 19,9 19,155 v 155 h -25 c -23,0 -25,-3 -25,-51 z m -16,-75 c 22,-21 21,-111 -1,-136 -37,-41 -83,-4 -83,67 0,70 46,108 84,69 z"
       id="path23428" />
    <path
       d="m 6959,1971 c 33,-45 51,-107 51,-171 0,-64 -18,-126 -51,-171 l -21,-31 28,4 c 23,2 34,13 59,62 25,51 30,70 30,136 0,66 -5,85 -30,136 -25,49 -36,60 -59,62 l -28,4 z"
       id="path23430" />
    <path
       d="m 3335,1955 c -14,-13 -25,-31 -25,-40 0,-22 46,-20 53,3 5,23 35,32 65,21 16,-6 22,-17 22,-39 0,-24 -14,-43 -70,-98 -45,-44 -70,-76 -70,-90 0,-21 4,-22 101,-22 90,0 100,2 97,18 -3,14 -16,18 -78,20 l -74,3 72,67 c 61,57 72,72 72,100 0,50 -37,82 -95,82 -35,0 -52,-6 -70,-25 z"
       id="path23432" />
    <path
       d="m 5945,1955 c -14,-13 -25,-31 -25,-40 0,-22 46,-20 53,3 5,23 35,32 65,21 16,-6 22,-17 22,-39 0,-24 -14,-43 -70,-98 -45,-44 -70,-76 -70,-90 0,-21 4,-22 101,-22 90,0 100,2 97,18 -3,14 -16,18 -78,20 l -74,3 72,67 c 61,57 72,72 72,100 0,50 -37,82 -95,82 -35,0 -52,-6 -70,-25 z"
       id="path23434" />
    <path
       d="m 6406,1945 c -4,-14 -13,-25 -21,-25 -8,0 -15,-7 -15,-15 0,-8 7,-15 15,-15 12,0 15,-16 15,-88 0,-98 7,-112 57,-112 38,0 47,27 11,32 -21,3 -23,9 -26,86 -3,77 -2,82 18,82 11,0 20,7 20,15 0,8 -9,15 -20,15 -15,0 -20,7 -20,25 0,15 -6,25 -14,25 -8,0 -17,-11 -20,-25 z"
       id="path23436" />
    <path
       d="m 401,1905 c -25,-37 -51,-121 -51,-165 0,-77 57,-200 93,-200 22,0 21,6 -1,38 -30,43 -42,90 -42,162 0,72 12,119 42,162 22,32 23,38 1,38 -10,0 -29,-16 -42,-35 z"
       id="path23438" />
    <path
       d="m 862,1923 c 2,-10 13,-19 26,-21 17,-3 22,2 22,17 0,16 -6,21 -26,21 -19,0 -25,-5 -22,-17 z"
       id="path23440" />
    <path
       d="m 1415,1904 c 32,-47 45,-95 45,-164 0,-69 -13,-117 -45,-164 -23,-34 -23,-36 -5,-36 23,0 63,52 80,103 27,85 11,201 -37,265 -13,17 -33,32 -43,32 -18,0 -18,-2 5,-36 z"
       id="path23442" />
    <path
       d="m 507,1905 c -32,-32 -32,-118 0,-150 21,-21 67,-19 88,5 26,28 26,112 0,140 -21,24 -67,26 -88,5 z m 71,-54 c 6,-55 -5,-83 -31,-79 -18,2 -23,10 -25,47 -4,57 3,73 30,69 18,-2 24,-11 26,-37 z"
       id="path23444" />
    <path
       d="m 712,1893 c -61,-88 -163,-255 -158,-260 14,-14 37,14 119,140 48,75 87,138 87,142 0,16 -31,1 -48,-22 z"
       id="path23446" />
    <path
       d="m 1003,1827 c -35,-51 -63,-100 -63,-110 0,-14 10,-17 65,-17 h 65 v -35 c 0,-28 4,-35 20,-35 16,0 20,7 20,35 0,28 4,35 20,35 11,0 20,7 20,15 0,8 -9,15 -20,15 -19,0 -20,7 -20,95 0,92 -1,95 -22,95 -18,-1 -38,-23 -85,-93 z m 64,-94 c -3,-2 -23,-3 -46,-1 l -40,3 42,61 42,61 3,-60 c 2,-32 1,-61 -1,-64 z"
       id="path23448" />
    <path
       d="m 1180,1905 c 0,-12 15,-15 74,-15 h 74 l -44,-87 c -24,-49 -46,-107 -50,-130 -5,-41 -4,-43 19,-43 22,0 25,5 29,51 4,34 20,79 47,131 22,44 41,86 41,94 0,11 -20,14 -95,14 -78,0 -95,-3 -95,-15 z"
       id="path23450" />
    <path
       d="m 1962,1904 c -26,-18 -29,-39 -6,-48 11,-4 22,1 31,14 25,36 83,20 83,-22 0,-15 -8,-18 -49,-18 -70,0 -97,-26 -92,-92 0,-9 8,-24 17,-32 20,-21 88,-21 104,-1 12,14 15,14 31,-1 19,-18 60,-16 67,4 2,6 -3,12 -11,12 -21,0 -27,22 -27,96 0,51 -4,68 -20,84 -25,25 -95,27 -128,4 z m 108,-118 c 0,-21 -40,-66 -59,-66 -21,0 -41,19 -41,40 0,26 22,40 62,40 25,0 38,-5 38,-14 z"
       id="path23452" />
    <path
       d="m 2160,1760 v -160 h 25 c 24,0 25,3 25,57 0,44 3,54 12,45 19,-19 85,-15 107,7 42,42 36,177 -9,201 -26,14 -83,13 -98,-2 -9,-9 -12,-9 -12,0 0,7 -11,12 -25,12 h -25 z m 134,114 c 11,-10 16,-34 16,-69 0,-57 -16,-85 -50,-85 -47,0 -69,111 -30,150 24,24 43,25 64,4 z"
       id="path23454" />
    <path
       d="m 2651,1903 c -46,-37 -46,-159 0,-195 26,-22 97,-24 126,-3 51,36 55,156 6,195 -33,26 -102,27 -132,3 z m 101,-30 c 24,-22 25,-109 1,-135 -40,-45 -93,-6 -93,69 0,69 50,105 92,66 z"
       id="path23456" />
    <path
       d="m 3105,1894 c -32,-34 -37,-97 -13,-157 14,-36 36,-47 91,-47 33,0 49,6 65,23 12,13 22,26 22,29 0,15 -36,12 -52,-4 -24,-24 -53,-23 -78,2 -11,11 -20,29 -20,40 0,18 7,20 80,20 89,0 92,3 66,65 -17,41 -42,55 -96,55 -31,0 -47,-6 -65,-26 z m 107,-21 c 33,-30 23,-43 -37,-43 -59,0 -63,4 -39,38 18,26 50,28 76,5 z"
       id="path23458" />
    <path
       d="m 3552,1898 c 2,-15 11,-24 26,-26 18,-3 22,1 22,22 0,21 -5,26 -26,26 -21,0 -25,-4 -22,-22 z"
       id="path23460" />
    <path
       d="m 3890,1893 -21,-27 22,-8 c 17,-6 25,-4 36,12 17,24 46,26 67,4 30,-30 20,-44 -33,-44 -65,0 -95,-24 -95,-75 0,-25 6,-42 19,-51 26,-19 89,-18 106,2 12,14 14,14 25,-1 8,-10 23,-15 40,-13 33,4 43,23 14,31 -18,5 -20,13 -20,81 0,96 -15,116 -89,116 -42,0 -53,-4 -71,-27 z m 120,-108 c 0,-19 -44,-65 -63,-65 -18,0 -37,20 -37,40 0,26 22,40 62,40 28,0 38,-4 38,-15 z"
       id="path23462" />
    <path
       d="m 4100,1760 v -160 h 25 c 24,0 25,3 25,57 0,44 3,54 12,45 19,-19 85,-15 107,7 42,42 36,177 -9,201 -26,14 -83,13 -98,-2 -9,-9 -12,-9 -12,0 0,7 -11,12 -25,12 h -25 z m 132,113 c 13,-12 18,-30 18,-69 0,-56 -17,-84 -50,-84 -47,0 -69,111 -30,150 24,24 38,25 62,3 z"
       id="path23464" />
    <path
       d="m 4440,1893 -21,-27 22,-8 c 17,-6 25,-4 36,12 17,24 46,26 67,4 30,-30 20,-44 -33,-44 -65,0 -95,-24 -95,-75 0,-25 6,-42 19,-51 26,-19 89,-18 106,2 12,14 14,14 25,-1 8,-10 23,-15 40,-13 33,4 43,23 14,31 -18,5 -20,13 -20,81 0,96 -15,116 -89,116 -42,0 -53,-4 -71,-27 z m 120,-108 c 0,-19 -44,-65 -63,-65 -18,0 -37,20 -37,40 0,26 22,40 62,40 28,0 38,-4 38,-15 z"
       id="path23466" />
    <path
       d="m 4676,1897 c -45,-45 -41,-158 7,-192 34,-24 94,-19 122,10 14,13 25,31 25,40 0,23 -30,18 -56,-10 -28,-30 -38,-31 -64,-5 -14,14 -20,33 -20,65 0,44 24,85 50,85 6,0 19,-9 30,-20 21,-21 60,-27 60,-10 0,6 -11,22 -25,35 -33,34 -96,35 -129,2 z"
       id="path23468" />
    <path
       d="m 4886,1897 c -45,-45 -41,-158 7,-192 34,-24 109,-20 135,8 12,13 22,26 22,29 0,15 -36,12 -52,-4 -24,-24 -53,-23 -78,2 -11,11 -20,29 -20,40 0,18 7,20 80,20 89,0 92,3 66,65 -17,41 -42,55 -96,55 -29,0 -47,-6 -64,-23 z m 106,-24 c 33,-30 23,-43 -37,-43 -59,0 -67,8 -35,40 24,24 47,25 72,3 z"
       id="path23470" />
    <path
       d="m 5261,1903 c -46,-37 -46,-159 0,-195 26,-22 97,-24 126,-3 51,36 55,156 6,195 -33,26 -102,27 -132,3 z m 101,-30 c 24,-22 25,-109 1,-135 -40,-45 -93,-6 -93,69 0,69 50,105 92,66 z"
       id="path23472" />
    <path
       d="m 5715,1894 c -32,-34 -37,-97 -13,-157 14,-36 36,-47 91,-47 33,0 49,6 65,23 12,13 22,26 22,29 0,15 -36,12 -52,-4 -10,-10 -27,-18 -38,-18 -26,0 -60,34 -60,60 0,18 7,20 80,20 89,0 92,3 66,65 -17,41 -42,55 -96,55 -31,0 -47,-6 -65,-26 z m 107,-21 c 33,-30 23,-43 -37,-43 -59,0 -63,4 -39,38 18,26 50,28 76,5 z"
       id="path23474" />
    <path
       d="m 6772,1904 c -26,-18 -30,-65 -6,-85 9,-8 37,-21 63,-29 34,-11 47,-21 49,-37 5,-31 -41,-42 -81,-20 -53,31 -76,16 -37,-23 31,-31 113,-28 145,5 14,13 25,30 25,37 0,28 -32,57 -81,73 -28,10 -53,24 -56,32 -12,31 53,45 81,18 19,-19 46,-19 46,-1 0,24 -41,46 -85,46 -22,0 -51,-7 -63,-16 z"
       id="path23476" />
    <path
       d="m 7120,1895 c 0,-18 5,-25 20,-25 15,0 20,7 20,25 0,18 -5,25 -20,25 -15,0 -20,-7 -20,-25 z"
       id="path23478" />
    <path
       d="m 860,1745 v -115 h 25 25 v 115 115 h -25 -25 z"
       id="path23480" />
    <path
       d="m 714,1799 c -13,-14 -18,-36 -18,-74 0,-62 22,-95 64,-95 42,0 65,33 65,95 0,38 -5,59 -19,74 -24,27 -68,27 -92,0 z m 71,-74 c 0,-57 -1,-60 -25,-60 -23,0 -25,4 -28,49 -4,62 2,78 30,74 21,-3 23,-8 23,-63 z"
       id="path23482" />
    <path
       d="m 3557,1733 c -4,-3 -7,-15 -7,-25 0,-13 7,-18 25,-18 20,0 25,5 25,25 0,18 -5,25 -18,25 -10,0 -22,-3 -25,-7 z"
       id="path23484" />
    <path
       d="m 6167,1733 c -11,-10 -8,-43 4,-43 7,0 8,-11 4,-30 -5,-23 -3,-30 8,-30 19,0 27,21 27,71 0,31 -4,39 -18,39 -10,0 -22,-3 -25,-7 z"
       id="path23486" />
    <path
       d="m 6527,1733 c -11,-10 -8,-43 4,-43 7,0 8,-11 4,-30 -5,-23 -3,-30 8,-30 19,0 27,21 27,71 0,31 -4,39 -18,39 -10,0 -22,-3 -25,-7 z"
       id="path23488" />
    <path
       d="m 7123,1685 c 3,-85 37,-70 37,16 0,32 -3,39 -19,39 -18,0 -20,-7 -18,-55 z"
       id="path23490" />
    <path
       d="m 2360,1625 c 0,-13 21,-15 125,-15 104,0 125,2 125,15 0,13 -21,15 -125,15 -104,0 -125,-2 -125,-15 z"
       id="path23492" />
    <path
       d="m 6072,1284 c -25,-17 -30,-54 -7,-54 8,0 19,9 25,20 19,36 80,17 80,-25 0,-3 -29,-34 -65,-70 -88,-87 -87,-95 20,-95 69,0 85,3 85,15 0,12 -14,15 -62,15 l -63,1 51,47 c 29,26 57,57 63,69 14,28 4,70 -19,83 -28,15 -83,12 -108,-6 z"
       id="path23494" />
    <path
       d="m 11168,1227 c -16,-13 -28,-30 -28,-40 0,-21 13,-22 30,-2 24,29 30,14 30,-79 v -95 l -32,-3 c -17,-2 -33,-9 -36,-15 -3,-10 19,-13 87,-13 74,0 91,3 91,15 0,10 -11,15 -35,15 h -35 v 120 c 0,118 0,120 -22,120 -13,-1 -35,-11 -50,-23 z"
       id="path23496" />
    <path
       d="M 2140,865 V 710 h 25 25 v 155 155 h -25 -25 z"
       id="path23498" />
    <path
       d="M 2690,865 V 710 h 25 25 v 155 155 h -25 -25 z"
       id="path23500" />
    <path
       d="m 3555,976 c -57,-97 -57,-215 0,-312 19,-33 32,-44 50,-44 h 24 l -32,52 c -30,48 -32,56 -32,148 0,92 2,100 32,148 l 32,52 h -24 c -18,0 -31,-11 -50,-44 z"
       id="path23502" />
    <path
       d="m 4025,976 c -57,-97 -57,-215 0,-312 19,-33 32,-44 50,-44 h 24 l -32,52 c -30,48 -32,56 -32,148 0,92 2,100 32,148 l 32,52 h -24 c -18,0 -31,-11 -50,-44 z"
       id="path23504" />
    <path
       d="m 4359,991 c 33,-45 51,-107 51,-171 0,-64 -18,-126 -51,-171 l -21,-31 28,4 c 23,2 34,13 59,62 25,51 30,70 30,136 0,66 -5,85 -30,136 -25,49 -36,60 -59,62 l -28,4 z"
       id="path23506" />
    <path
       d="m 5339,991 c 33,-45 51,-107 51,-171 0,-64 -18,-126 -51,-171 l -21,-31 28,4 c 23,2 34,13 59,62 25,51 30,70 30,136 0,66 -5,85 -30,136 -25,49 -36,60 -59,62 l -28,4 z"
       id="path23508" />
    <path
       d="M 6370,865 V 710 h 25 25 v 155 155 h -25 -25 z"
       id="path23510" />
    <path
       d="M 6920,865 V 710 h 25 25 v 155 155 h -25 -25 z"
       id="path23512" />
    <path
       d="m 7785,976 c -38,-65 -52,-143 -37,-212 16,-78 56,-144 87,-144 h 24 l -32,52 c -30,48 -32,56 -32,148 0,92 2,100 32,148 l 32,52 h -24 c -18,0 -31,-11 -50,-44 z"
       id="path23514" />
    <path
       d="m 8255,976 c -38,-65 -52,-143 -37,-212 16,-78 56,-144 87,-144 h 24 l -32,52 c -30,48 -32,56 -32,148 0,92 2,100 32,148 l 32,52 h -24 c -18,0 -31,-11 -50,-44 z"
       id="path23516" />
    <path
       d="m 8589,991 c 33,-45 51,-107 51,-171 0,-64 -18,-126 -51,-171 l -21,-31 28,4 c 23,2 34,13 59,62 25,51 30,70 30,136 0,66 -5,85 -30,136 -25,49 -36,60 -59,62 l -28,4 z"
       id="path23518" />
    <path
       d="m 9569,991 c 33,-45 51,-107 51,-171 0,-64 -18,-126 -51,-171 l -21,-31 28,4 c 23,2 34,13 59,62 25,51 30,70 30,136 0,66 -5,85 -30,136 -25,49 -36,60 -59,62 l -28,4 z"
       id="path23520" />
    <path
       d="m 4220,965 c -5,-14 -16,-25 -25,-25 -17,0 -21,-26 -5,-32 7,-2 6,-31 -2,-84 -14,-99 -10,-114 37,-114 28,0 35,4 35,20 0,12 -5,17 -14,14 -23,-9 -28,13 -16,74 17,86 20,92 41,92 10,0 19,7 19,15 0,8 -7,15 -15,15 -9,0 -15,9 -15,25 0,16 -6,25 -15,25 -9,0 -20,-11 -25,-25 z"
       id="path23522" />
    <path
       d="m 4750,965 c -5,-14 -16,-25 -25,-25 -17,0 -21,-26 -5,-32 7,-2 6,-31 -2,-84 -14,-99 -10,-114 37,-114 28,0 35,4 35,20 0,12 -5,17 -14,14 -23,-9 -28,13 -16,74 17,86 20,92 41,92 10,0 19,7 19,15 0,8 -7,15 -15,15 -9,0 -15,9 -15,25 0,16 -6,25 -15,25 -9,0 -20,-11 -25,-25 z"
       id="path23524" />
    <path
       d="m 8450,965 c -5,-14 -16,-25 -25,-25 -17,0 -21,-26 -5,-32 7,-2 6,-31 -2,-84 -14,-99 -10,-114 37,-114 28,0 35,4 35,20 0,12 -5,17 -14,14 -23,-9 -28,13 -16,74 17,86 20,92 41,92 10,0 19,7 19,15 0,8 -7,15 -15,15 -9,0 -15,9 -15,25 0,16 -6,25 -15,25 -9,0 -20,-11 -25,-25 z"
       id="path23526" />
    <path
       d="m 8980,965 c -5,-14 -16,-25 -25,-25 -17,0 -21,-26 -5,-32 7,-2 6,-31 -2,-84 -14,-99 -10,-114 37,-114 28,0 35,4 35,20 0,12 -5,17 -14,14 -23,-9 -28,13 -16,74 17,86 20,92 41,92 10,0 19,7 19,15 0,8 -7,15 -15,15 -9,0 -15,9 -15,25 0,16 -6,25 -15,25 -9,0 -20,-11 -25,-25 z"
       id="path23528" />
    <path
       d="m 396,943 c -36,-55 -50,-130 -36,-195 14,-66 53,-128 81,-128 19,0 19,1 -4,33 -64,85 -64,209 0,295 23,31 23,32 4,32 -13,0 -30,-15 -45,-37 z"
       id="path23530" />
    <path
       d="m 1480,974 c 0,-3 8,-18 18,-32 28,-39 42,-89 42,-142 0,-53 -14,-103 -42,-142 -22,-32 -22,-38 -3,-38 22,0 63,68 76,127 15,65 1,141 -37,196 -21,32 -54,50 -54,31 z"
       id="path23532" />
    <path
       d="m 497,955 c -37,-36 -27,-137 14,-150 37,-12 67,3 79,40 21,63 -7,125 -55,125 -13,0 -30,-7 -38,-15 z m 64,-32 c 16,-40 0,-98 -26,-98 -15,0 -22,10 -29,37 -17,69 31,122 55,61 z"
       id="path23534" />
    <path
       d="M 620,835 C 552,734 534,700 547,700 c 12,1 48,47 105,135 54,83 82,135 73,135 -8,0 -55,-61 -105,-135 z"
       id="path23536" />
    <path
       d="m 1101,881 c -34,-49 -61,-97 -61,-105 0,-13 12,-16 65,-16 h 65 v -30 c 0,-20 5,-30 15,-30 10,0 15,10 15,30 0,23 4,30 20,30 11,0 20,7 20,15 0,8 -9,15 -20,15 -19,0 -20,7 -20,90 0,82 -2,90 -19,90 -12,0 -39,-30 -80,-89 z m 69,-26 v -65 h -46 c -25,0 -44,3 -42,8 6,14 81,122 84,122 2,0 4,-29 4,-65 z"
       id="path23538" />
    <path
       d="m 1270,955 c 0,-12 14,-15 70,-15 h 69 l -39,-77 c -22,-43 -43,-97 -46,-120 -6,-39 -5,-43 15,-43 17,0 21,6 21,33 1,37 37,130 68,175 40,56 33,62 -68,62 -73,0 -90,-3 -90,-15 z"
       id="path23540" />
    <path
       d="m 5600,915 v -45 h -45 c -33,0 -45,-4 -45,-15 0,-11 12,-15 45,-15 h 45 v -45 c 0,-38 3,-45 20,-45 17,0 20,7 20,45 v 45 h 40 c 29,0 40,4 40,15 0,11 -11,15 -40,15 h -40 v 45 c 0,38 -3,45 -20,45 -17,0 -20,-7 -20,-45 z"
       id="path23542" />
    <path
       d="m 2250,913 -21,-27 22,-8 c 17,-6 25,-4 36,12 17,24 46,26 67,4 30,-30 20,-44 -33,-44 -65,0 -95,-24 -95,-75 0,-25 6,-42 19,-51 26,-19 84,-18 107,2 16,16 18,16 24,0 8,-21 74,-23 74,-1 0,8 -6,15 -14,15 -20,0 -26,23 -26,100 0,60 -3,71 -22,84 -13,9 -43,16 -69,16 -40,0 -51,-4 -69,-27 z m 120,-108 c 0,-19 -44,-65 -63,-65 -18,0 -37,20 -37,40 0,26 22,40 62,40 28,0 38,-4 38,-15 z"
       id="path23544" />
    <path
       d="M 2460,780 V 620 h 25 c 24,0 25,3 25,57 0,44 3,54 12,45 14,-14 72,-16 98,-2 21,11 40,60 40,105 0,45 -19,94 -40,105 -26,14 -84,12 -98,-2 -9,-9 -12,-9 -12,0 0,7 -11,12 -25,12 h -25 z m 132,113 c 13,-12 18,-30 18,-69 0,-56 -17,-84 -50,-84 -47,0 -69,111 -30,150 24,24 38,25 62,3 z"
       id="path23546" />
    <path
       d="m 2800,913 -21,-27 22,-8 c 17,-6 25,-4 36,12 17,24 46,26 67,4 30,-30 20,-44 -33,-44 -65,0 -95,-24 -95,-75 0,-25 6,-42 19,-51 26,-19 84,-18 107,2 16,16 18,16 24,0 8,-21 74,-23 74,-1 0,8 -6,15 -14,15 -20,0 -26,23 -26,100 0,60 -3,71 -22,84 -13,9 -43,16 -69,16 -40,0 -51,-4 -69,-27 z m 120,-108 c 0,-19 -44,-65 -63,-65 -18,0 -37,20 -37,40 0,26 22,40 62,40 28,0 38,-4 38,-15 z"
       id="path23548" />
    <path
       d="m 3036,917 c -29,-29 -40,-85 -26,-136 13,-50 42,-71 96,-71 34,0 47,5 63,26 41,52 10,77 -35,29 -26,-29 -33,-30 -58,-12 -12,9 -20,31 -23,64 -5,42 -2,54 16,72 26,26 36,26 61,1 20,-20 60,-28 60,-11 0,4 -9,20 -21,35 -28,36 -99,37 -133,3 z"
       id="path23550" />
    <path
       d="m 3246,917 c -45,-45 -41,-158 7,-192 32,-22 108,-20 135,5 12,12 22,25 22,30 0,17 -35,15 -52,-2 -34,-34 -81,-16 -94,35 l -6,27 h 81 c 90,0 93,3 67,65 -17,41 -42,55 -96,55 -29,0 -47,-6 -64,-23 z m 106,-24 c 33,-30 23,-43 -37,-43 -59,0 -67,8 -35,40 24,24 47,25 72,3 z"
       id="path23552" />
    <path
       d="m 3710,925 c 0,-10 15,-15 55,-17 l 55,-3 -60,-85 c -33,-47 -60,-91 -60,-97 0,-10 25,-13 90,-13 72,0 90,3 90,15 0,10 -16,15 -60,17 l -60,3 60,84 c 33,46 60,90 60,98 0,10 -21,13 -85,13 -68,0 -85,-3 -85,-15 z"
       id="path23554" />
    <path
       d="m 5103,925 c -11,-8 -23,-23 -26,-35 -7,-26 25,-66 60,-75 37,-9 53,-23 53,-46 0,-27 -47,-36 -83,-16 -35,21 -57,22 -57,3 0,-25 42,-46 93,-46 38,0 53,5 72,25 44,43 31,78 -41,110 -58,26 -70,51 -30,61 28,7 66,-3 66,-17 0,-5 9,-9 20,-9 25,0 26,22 2,43 -23,21 -100,22 -129,2 z"
       id="path23556" />
    <path
       d="m 5843,925 c -11,-8 -23,-23 -26,-35 -7,-26 25,-66 60,-75 37,-9 53,-23 53,-46 0,-27 -47,-36 -83,-16 -35,21 -57,22 -57,3 0,-25 42,-46 93,-46 38,0 53,5 72,25 44,43 31,78 -41,110 -58,26 -70,51 -30,61 28,7 66,-3 66,-17 0,-5 9,-9 20,-9 25,0 26,22 2,43 -23,21 -100,22 -129,2 z"
       id="path23558" />
    <path
       d="m 6480,913 -21,-27 22,-8 c 17,-6 25,-4 36,12 17,24 46,26 67,4 30,-30 20,-44 -33,-44 -65,0 -95,-24 -95,-75 0,-25 6,-42 19,-51 26,-19 84,-18 107,2 16,16 18,16 24,0 8,-21 74,-23 74,-1 0,8 -6,15 -14,15 -20,0 -26,23 -26,100 0,60 -3,71 -22,84 -13,9 -43,16 -69,16 -40,0 -51,-4 -69,-27 z m 120,-108 c 0,-19 -44,-65 -63,-65 -18,0 -37,20 -37,40 0,26 22,40 62,40 28,0 38,-4 38,-15 z"
       id="path23560" />
    <path
       d="M 6690,780 V 620 h 25 c 24,0 25,3 25,57 0,44 3,54 12,45 14,-14 72,-16 98,-2 21,11 40,60 40,105 0,45 -19,94 -40,105 -26,14 -84,12 -98,-2 -9,-9 -12,-9 -12,0 0,7 -11,12 -25,12 h -25 z m 132,113 c 13,-12 18,-30 18,-69 0,-56 -17,-84 -50,-84 -47,0 -69,111 -30,150 24,24 38,25 62,3 z"
       id="path23562" />
    <path
       d="m 7030,913 -21,-27 22,-8 c 17,-6 25,-4 36,12 17,24 46,26 67,4 30,-30 20,-44 -33,-44 -65,0 -95,-24 -95,-75 0,-25 6,-42 19,-51 26,-19 84,-18 107,2 16,16 18,16 24,0 8,-21 74,-23 74,-1 0,8 -6,15 -14,15 -20,0 -26,23 -26,100 0,60 -3,71 -22,84 -13,9 -43,16 -69,16 -40,0 -51,-4 -69,-27 z m 120,-108 c 0,-19 -44,-65 -63,-65 -18,0 -37,20 -37,40 0,26 22,40 62,40 28,0 38,-4 38,-15 z"
       id="path23564" />
    <path
       d="m 7266,917 c -29,-29 -40,-85 -26,-136 13,-50 42,-71 96,-71 34,0 47,5 63,26 41,52 10,77 -35,29 -26,-29 -33,-30 -58,-12 -12,9 -20,31 -23,64 -5,42 -2,54 16,72 26,26 36,26 61,1 20,-20 60,-28 60,-11 0,4 -9,20 -21,35 -28,36 -99,37 -133,3 z"
       id="path23566" />
    <path
       d="m 7476,917 c -45,-45 -41,-158 7,-192 32,-22 108,-20 135,5 12,12 22,25 22,30 0,17 -35,15 -52,-2 -34,-34 -81,-16 -94,35 l -6,27 h 81 c 90,0 93,3 67,65 -17,41 -42,55 -96,55 -29,0 -47,-6 -64,-23 z m 106,-24 c 33,-30 23,-43 -37,-43 -59,0 -67,8 -35,40 24,24 47,25 72,3 z"
       id="path23568" />
    <path
       d="m 7920,936 c 0,-2 18,-52 41,-111 45,-122 45,-151 -1,-168 -39,-15 -39,-37 -1,-37 30,0 53,16 71,50 9,17 100,259 100,267 0,2 -10,3 -23,3 -20,0 -27,-11 -51,-87 l -29,-88 -30,88 c -27,76 -33,87 -54,87 -13,0 -23,-2 -23,-4 z"
       id="path23570" />
    <path
       d="m 9333,925 c -11,-8 -23,-23 -26,-35 -7,-26 25,-66 60,-75 37,-9 53,-23 53,-46 0,-27 -47,-36 -83,-16 -35,21 -57,22 -57,3 0,-25 42,-46 93,-46 38,0 53,5 72,25 44,43 31,78 -41,110 -58,26 -70,51 -30,61 28,7 66,-3 66,-17 0,-5 9,-9 20,-9 25,0 26,22 2,43 -23,21 -100,22 -129,2 z"
       id="path23572" />
    <path
       d="m 10073,925 c -11,-8 -23,-23 -26,-35 -7,-26 25,-66 60,-75 37,-9 53,-23 53,-46 0,-27 -47,-36 -83,-16 -35,21 -57,22 -57,3 0,-25 42,-46 93,-46 38,0 53,5 72,25 44,43 31,78 -41,110 -58,26 -70,51 -30,61 28,7 66,-3 66,-17 0,-5 9,-9 20,-9 25,0 26,22 2,43 -23,21 -100,22 -129,2 z"
       id="path23574" />
    <path
       d="m 10310,905 c 0,-12 18,-15 105,-15 87,0 105,3 105,15 0,12 -18,15 -105,15 -87,0 -105,-3 -105,-15 z"
       id="path23576" />
    <path
       d="m 855,885 c -21,-20 -25,-34 -25,-80 0,-72 28,-105 90,-105 62,0 90,33 90,105 0,72 -28,105 -90,105 -30,0 -47,-6 -65,-25 z m 105,-20 c 15,-18 15,-102 0,-120 -17,-20 -64,-19 -81,2 -8,9 -14,35 -14,58 0,23 6,49 14,58 17,21 64,22 81,2 z"
       id="path23578" />
    <path
       d="m 697,855 c -23,-22 -30,-70 -17,-109 12,-38 37,-51 75,-42 42,11 58,111 24,153 -15,18 -64,17 -82,-2 z m 63,-24 c 24,-45 1,-121 -33,-108 -35,13 -28,127 7,127 9,0 20,-9 26,-19 z"
       id="path23580" />
    <path
       d="m 1847,863 c -4,-3 -7,-12 -7,-20 0,-10 24,-13 105,-13 98,0 105,1 105,20 0,19 -7,20 -98,20 -54,0 -102,-3 -105,-7 z"
       id="path23582" />
    <path
       d="m 9747,863 c -4,-3 -7,-12 -7,-20 0,-10 24,-13 105,-13 98,0 105,1 105,20 0,19 -7,20 -98,20 -54,0 -102,-3 -105,-7 z"
       id="path23584" />
    <path
       d="m 10560,805 c 0,-13 80,-15 660,-15 580,0 660,2 660,15 0,13 -80,15 -660,15 -580,0 -660,-2 -660,-15 z"
       id="path23586" />
    <path
       d="m 10310,795 c 0,-12 18,-15 105,-15 87,0 105,3 105,15 0,12 -18,15 -105,15 -87,0 -105,-3 -105,-15 z"
       id="path23588" />
    <path
       d="m 4547,753 c -11,-10 -8,-43 4,-43 7,0 8,-11 4,-30 -5,-23 -3,-30 8,-30 19,0 27,21 27,71 0,31 -4,39 -18,39 -10,0 -22,-3 -25,-7 z"
       id="path23590" />
    <path
       d="m 4907,753 c -11,-10 -8,-43 4,-43 7,0 8,-11 4,-30 -5,-23 -3,-30 8,-30 19,0 27,21 27,71 0,31 -4,39 -18,39 -10,0 -22,-3 -25,-7 z"
       id="path23592" />
    <path
       d="m 8777,753 c -11,-10 -8,-43 4,-43 7,0 8,-11 4,-30 -5,-23 -3,-30 8,-30 19,0 27,21 27,71 0,31 -4,39 -18,39 -10,0 -22,-3 -25,-7 z"
       id="path23594" />
    <path
       d="m 9137,753 c -11,-10 -8,-43 4,-43 7,0 8,-11 4,-30 -5,-23 -3,-30 8,-30 19,0 27,21 27,71 0,31 -4,39 -18,39 -10,0 -22,-3 -25,-7 z"
       id="path23596" />
    <path
       d="m 11008,648 c -8,-7 -18,-21 -21,-30 -8,-23 28,-25 37,-2 4,10 15,14 33,12 49,-5 41,-39 -21,-102 -77,-76 -75,-86 19,-86 60,0 75,3 75,15 0,11 -12,15 -51,15 h -52 l 52,54 c 55,59 64,91 33,119 -22,20 -82,22 -104,5 z"
       id="path23598" />
    <path
       d="m 11538,377 c -16,-13 -28,-30 -28,-40 0,-21 13,-22 30,-2 24,29 30,14 30,-79 v -95 l -32,-3 c -17,-2 -33,-9 -36,-15 -3,-10 19,-13 87,-13 74,0 91,3 91,15 0,10 -11,15 -35,15 h -35 v 120 c 0,118 0,120 -22,120 -13,-1 -35,-11 -50,-23 z"
       id="path23600" />
    <path
       d="m 11307,354 c -4,-4 -7,-25 -7,-46 0,-38 0,-38 -40,-38 -29,0 -40,-4 -40,-15 0,-11 11,-15 40,-15 h 40 v -40 c 0,-33 3,-40 20,-40 17,0 20,7 20,40 0,39 1,40 35,40 24,0 35,5 35,15 0,10 -10,15 -34,15 -34,0 -35,1 -38,42 -3,39 -16,57 -31,42 z"
       id="path23602" />
    <path
       d="m 10790,320 c -36,-36 -19,-71 45,-96 37,-14 45,-21 43,-38 -4,-28 -62,-35 -89,-10 -15,13 -22,15 -31,6 -9,-9 -7,-16 7,-32 23,-25 100,-28 133,-4 43,30 22,91 -38,109 -39,12 -52,25 -39,41 15,19 48,18 70,-2 12,-10 23,-13 33,-7 14,8 14,11 0,31 -21,30 -104,32 -134,2 z"
       id="path23604" />
  </g>
</svg>
