<?xml version="1.0" encoding="UTF-8" standalone="no"?>
<svg
   version="1.0"
   width="1525pt"
   height="700pt"
   viewBox="0 0 1525 700"
   preserveAspectRatio="xMidYMid meet"
   id="svg624"
   sodipodi:docname="255laphic.svg"
   inkscape:version="1.1.1 (3bf5ae0d25, 2021-09-20)"
   xmlns:inkscape="http://www.inkscape.org/namespaces/inkscape"
   xmlns:sodipodi="http://sodipodi.sourceforge.net/DTD/sodipodi-0.dtd"
   xmlns="http://www.w3.org/2000/svg"
   xmlns:svg="http://www.w3.org/2000/svg">
  <defs
     id="defs628" />
  <sodipodi:namedview
     id="namedview626"
     pagecolor="#ffffff"
     bordercolor="#666666"
     borderopacity="1.0"
     inkscape:pageshadow="2"
     inkscape:pageopacity="0.0"
     inkscape:pagecheckerboard="0"
     inkscape:document-units="pt"
     showgrid="false"
     inkscape:zoom="1.1581967"
     inkscape:cx="1009.3277"
     inkscape:cy="564.23921"
     inkscape:window-width="3739"
     inkscape:window-height="2123"
     inkscape:window-x="101"
     inkscape:window-y="0"
     inkscape:window-maximized="1"
     inkscape:current-layer="svg624" />
  <g
     transform="matrix(0.06824966,0,0,-0.06824966,-16.012054,707.89645)"
     fill="#000000"
     stroke="none"
     id="g15563">
    <path
       d="m 2230,10238 c 0,-40 -3,-49 -12,-40 -19,19 -82,15 -102,-7 -40,-44 -43,-149 -5,-190 22,-23 92,-30 105,-10 4,8 9,8 17,0 6,-6 19,-11 29,-11 17,0 18,12 18,155 v 155 h -25 c -23,0 -25,-3 -25,-52 z m -15,-74 c 12,-12 15,-31 13,-72 -3,-50 -6,-58 -31,-72 -27,-14 -29,-14 -48,9 -37,46 -16,151 31,151 10,0 26,-7 35,-16 z"
       id="path14839" />
    <path
       d="m 3010,10238 c 0,-40 -3,-49 -12,-40 -20,20 -85,15 -107,-9 -40,-43 -34,-176 9,-199 26,-14 83,-13 98,2 9,9 12,9 12,0 0,-7 11,-12 25,-12 h 25 v 155 155 h -25 c -23,0 -25,-3 -25,-52 z m -18,-75 c 26,-23 25,-106 -2,-133 -26,-26 -45,-25 -64,2 -33,46 -11,148 31,148 9,0 25,-7 35,-17 z"
       id="path14841" />
    <path
       d="m 3100,10270 c 0,-15 7,-20 25,-20 18,0 25,5 25,20 0,15 -7,20 -25,20 -18,0 -25,-5 -25,-20 z"
       id="path14843" />
    <path
       d="m 3210,10271 c -5,-11 -10,-29 -10,-40 0,-12 -7,-21 -15,-21 -8,0 -15,-7 -15,-15 0,-8 7,-15 15,-15 12,0 15,-18 15,-100 v -100 h 25 25 v 100 100 h 30 30 v -100 -100 h 25 25 v 100 c 0,93 1,100 20,100 11,0 20,7 20,15 0,8 -9,15 -20,15 -14,0 -20,7 -20,21 0,12 8,23 20,26 34,9 24,33 -15,33 -36,0 -55,-20 -55,-59 0,-17 -6,-21 -30,-21 -24,0 -30,4 -30,21 0,12 8,23 20,26 34,9 24,33 -15,33 -24,0 -37,-6 -45,-19 z"
       id="path14845" />
    <path
       d="m 3465,10246 c -57,-97 -57,-215 0,-312 19,-33 32,-44 50,-44 h 24 l -31,50 c -25,41 -32,64 -36,124 -5,81 6,130 44,189 l 24,37 h -24 c -19,0 -31,-11 -51,-44 z"
       id="path14847" />
    <path
       d="m 3815,10246 c -57,-97 -57,-215 0,-312 19,-33 32,-44 50,-44 h 24 l -31,50 c -25,41 -32,64 -36,124 -5,81 6,130 44,189 l 24,37 h -24 c -19,0 -31,-11 -51,-44 z"
       id="path14849" />
    <path
       d="m 4029,10261 c 68,-95 68,-247 0,-342 l -21,-31 28,4 c 23,2 34,13 59,62 25,51 30,70 30,136 0,66 -5,85 -30,136 -25,49 -36,60 -59,62 l -28,4 z"
       id="path14851" />
    <path
       d="m 4999,10261 c 68,-95 68,-247 0,-342 l -21,-31 28,4 c 23,2 34,13 59,62 25,51 30,70 30,136 0,66 -5,85 -30,136 -25,49 -36,60 -59,62 l -28,4 z"
       id="path14853" />
    <path
       d="m 5840,10238 c 0,-40 -3,-49 -12,-40 -20,20 -85,15 -107,-9 -40,-43 -34,-176 9,-199 26,-14 83,-13 98,2 9,9 12,9 12,0 0,-7 11,-12 25,-12 h 25 v 155 155 h -25 c -23,0 -25,-3 -25,-52 z m -18,-75 c 26,-23 25,-106 -2,-133 -26,-26 -45,-25 -64,2 -33,46 -11,148 31,148 9,0 25,-7 35,-17 z"
       id="path14855" />
    <path
       d="m 5930,10270 c 0,-15 7,-20 25,-20 18,0 25,5 25,20 0,15 -7,20 -25,20 -18,0 -25,-5 -25,-20 z"
       id="path14857" />
    <path
       d="m 6040,10271 c -5,-11 -10,-29 -10,-40 0,-12 -7,-21 -15,-21 -8,0 -15,-7 -15,-15 0,-8 7,-15 15,-15 12,0 15,-18 15,-100 v -100 h 25 25 v 100 100 h 30 30 v -100 -100 h 25 25 v 100 c 0,93 1,100 20,100 11,0 20,7 20,15 0,8 -9,15 -20,15 -14,0 -20,7 -20,21 0,12 8,23 20,26 34,9 24,33 -15,33 -36,0 -55,-20 -55,-59 0,-17 -6,-21 -30,-21 -24,0 -30,4 -30,21 0,12 8,23 20,26 34,9 24,33 -15,33 -24,0 -37,-6 -45,-19 z"
       id="path14859" />
    <path
       d="m 6295,10246 c -38,-65 -52,-143 -37,-212 16,-78 56,-144 87,-144 h 24 l -31,50 c -25,41 -32,64 -36,124 -5,81 6,130 44,189 l 24,37 h -24 c -19,0 -31,-11 -51,-44 z"
       id="path14861" />
    <path
       d="m 6645,10246 c -38,-65 -52,-143 -37,-212 16,-78 56,-144 87,-144 h 24 l -31,50 c -25,41 -32,64 -36,124 -5,81 6,130 44,189 l 24,37 h -24 c -19,0 -31,-11 -51,-44 z"
       id="path14863" />
    <path
       d="m 6859,10261 c 33,-45 51,-107 51,-171 0,-64 -18,-126 -51,-171 l -21,-31 28,4 c 23,2 34,13 59,62 25,51 30,70 30,136 0,66 -5,85 -30,136 -25,49 -36,60 -59,62 l -28,4 z"
       id="path14865" />
    <path
       d="m 7359,10261 c 33,-45 51,-107 51,-171 0,-64 -18,-126 -51,-171 l -21,-31 28,4 c 23,2 34,13 59,62 25,51 30,70 30,136 0,66 -5,85 -30,136 -25,49 -36,60 -59,62 l -28,4 z"
       id="path14867" />
    <path
       d="m 8675,10246 c -38,-65 -52,-143 -37,-212 16,-78 56,-144 87,-144 h 24 l -31,50 c -25,41 -32,64 -36,124 -5,81 6,130 44,189 l 24,37 h -24 c -19,0 -31,-11 -51,-44 z"
       id="path14869" />
    <path
       d="m 8889,10261 c 33,-45 51,-107 51,-171 0,-64 -18,-126 -51,-171 l -21,-31 28,4 c 23,2 34,13 59,62 25,51 30,70 30,136 0,66 -5,85 -30,136 -25,49 -36,60 -59,62 l -28,4 z"
       id="path14871" />
    <path
       d="m 2790,10220 c 0,-43 3,-50 20,-50 17,0 20,7 20,50 0,43 -3,50 -20,50 -17,0 -20,-7 -20,-50 z"
       id="path14873" />
    <path
       d="m 4795,10245 c -14,-13 -25,-31 -25,-40 0,-22 37,-18 50,6 9,16 19,19 48,17 33,-3 37,-6 40,-35 3,-28 -5,-40 -67,-100 -46,-44 -71,-77 -71,-91 0,-21 4,-22 95,-22 88,0 95,1 95,20 0,18 -7,20 -72,20 l -73,1 68,62 c 54,49 69,70 74,99 4,30 1,41 -20,62 -36,36 -107,37 -142,1 z"
       id="path14875" />
    <path
       d="m 5620,10220 c 0,-43 3,-50 20,-50 17,0 20,7 20,50 0,43 -3,50 -20,50 -17,0 -20,-7 -20,-50 z"
       id="path14877" />
    <path
       d="m 3924,10235 c -3,-14 -12,-25 -20,-25 -8,0 -14,-7 -14,-15 0,-8 7,-15 15,-15 12,0 15,-16 15,-88 0,-99 7,-112 58,-112 27,0 33,4 30,18 -2,9 -10,16 -18,14 -22,-5 -30,19 -30,96 0,65 2,72 20,72 11,0 20,7 20,15 0,8 -9,15 -20,15 -15,0 -20,7 -20,25 0,15 -6,25 -15,25 -8,0 -17,-11 -21,-25 z"
       id="path14879" />
    <path
       d="m 4424,10235 c -3,-14 -12,-25 -20,-25 -8,0 -14,-7 -14,-15 0,-8 7,-15 15,-15 12,0 15,-16 15,-88 0,-99 7,-112 58,-112 27,0 33,4 30,18 -2,9 -10,16 -18,14 -22,-5 -30,19 -30,96 0,65 2,72 20,72 11,0 20,7 20,15 0,8 -9,15 -20,15 -15,0 -20,7 -20,25 0,15 -6,25 -15,25 -8,0 -17,-11 -21,-25 z"
       id="path14881" />
    <path
       d="m 6754,10235 c -3,-14 -12,-25 -20,-25 -8,0 -14,-7 -14,-15 0,-8 7,-15 15,-15 12,0 15,-16 15,-88 0,-99 7,-112 58,-112 27,0 33,4 30,18 -2,9 -10,16 -18,14 -22,-5 -30,19 -30,96 0,65 2,72 20,72 11,0 20,7 20,15 0,8 -9,15 -20,15 -15,0 -20,7 -20,25 0,15 -6,25 -15,25 -8,0 -17,-11 -21,-25 z"
       id="path14883" />
    <path
       d="m 7254,10235 c -3,-14 -12,-25 -20,-25 -8,0 -14,-7 -14,-15 0,-8 7,-15 15,-15 12,0 15,-16 15,-88 0,-99 7,-112 58,-112 27,0 33,4 30,18 -2,9 -10,16 -18,14 -22,-5 -30,19 -30,96 0,65 2,72 20,72 11,0 20,7 20,15 0,8 -9,15 -20,15 -15,0 -20,7 -20,25 0,15 -6,25 -15,25 -8,0 -17,-11 -21,-25 z"
       id="path14885" />
    <path
       d="m 8784,10235 c -3,-14 -12,-25 -20,-25 -8,0 -14,-7 -14,-15 0,-8 7,-15 15,-15 12,0 15,-16 15,-88 0,-99 7,-112 58,-112 27,0 33,4 30,18 -2,9 -10,16 -18,14 -22,-5 -30,19 -30,96 0,65 2,72 20,72 11,0 20,7 20,15 0,8 -9,15 -20,15 -15,0 -20,7 -20,25 0,15 -6,25 -15,25 -8,0 -17,-11 -21,-25 z"
       id="path14887" />
    <path
       d="m 415,10187 c -55,-95 -55,-219 0,-314 20,-33 32,-43 52,-43 24,0 25,1 10,18 -76,84 -76,280 0,364 15,17 14,18 -10,18 -20,0 -32,-10 -52,-43 z"
       id="path14889" />
    <path
       d="m 882,10213 c 2,-10 13,-19 26,-21 17,-3 22,2 22,17 0,16 -6,21 -26,21 -19,0 -25,-5 -22,-17 z"
       id="path14891" />
    <path
       d="m 1435,10194 c 32,-47 45,-95 45,-164 0,-69 -13,-117 -45,-164 l -24,-36 h 22 c 43,0 89,102 89,200 0,98 -46,200 -89,200 h -22 z"
       id="path14893" />
    <path
       d="m 5340,10185 v -45 h -40 c -29,0 -40,-4 -40,-15 0,-11 11,-15 40,-15 h 40 v -45 c 0,-38 3,-45 20,-45 17,0 20,7 20,45 v 45 h 45 c 33,0 45,4 45,15 0,11 -12,15 -45,15 h -45 v 45 c 0,38 -3,45 -20,45 -17,0 -20,-7 -20,-45 z"
       id="path14895" />
    <path
       d="m 526,10194 c -33,-32 -32,-116 0,-149 22,-21 68,-19 89,5 26,28 26,112 0,140 -22,24 -67,26 -89,4 z m 68,-30 c 9,-23 7,-77 -3,-92 -5,-8 -17,-12 -27,-10 -15,2 -20,13 -22,47 -2,24 -1,50 2,57 7,19 42,18 50,-2 z"
       id="path14897" />
    <path
       d="m 664,10078 c -99,-152 -102,-158 -80,-158 9,0 51,53 102,132 99,152 102,158 80,158 -9,0 -51,-53 -102,-132 z"
       id="path14899" />
    <path
       d="m 995,10185 c -14,-13 -25,-29 -25,-35 0,-22 29,-20 53,4 29,29 39,31 68,16 42,-23 13,-80 -41,-80 -35,0 -21,-34 15,-38 17,-2 36,-8 43,-14 20,-17 14,-56 -13,-74 -29,-19 -60,-11 -81,21 -18,28 -54,24 -47,-6 15,-55 115,-79 165,-39 43,34 41,111 -3,125 -16,5 -15,8 7,30 50,50 10,115 -71,115 -35,0 -52,-6 -70,-25 z"
       id="path14901" />
    <path
       d="m 1242,10188 c -29,-32 -42,-71 -42,-129 0,-59 21,-113 48,-128 30,-16 84,-13 109,4 25,18 44,74 36,107 -14,58 -80,86 -135,57 -19,-10 -20,-9 -14,17 13,53 73,79 97,42 4,-5 17,-8 30,-6 l 24,3 -27,28 c -35,35 -94,38 -126,5 z m 92,-124 c 9,-8 16,-31 16,-49 0,-68 -76,-82 -100,-19 -14,35 -13,41 10,64 24,24 53,26 74,4 z"
       id="path14903" />
    <path
       d="m 1891,10193 c -46,-37 -46,-159 0,-195 26,-22 97,-24 126,-3 51,36 55,156 6,195 -33,26 -102,27 -132,3 z m 101,-30 c 24,-22 25,-109 1,-135 -39,-43 -93,-4 -93,67 0,71 49,107 92,68 z"
       id="path14905" />
    <path
       d="m 2346,10185 c -42,-45 -42,-135 0,-180 31,-33 109,-36 142,-5 12,12 22,25 22,30 0,17 -35,15 -52,-2 -34,-34 -81,-16 -94,35 l -6,27 h 81 c 90,0 93,3 67,65 -17,41 -42,55 -96,55 -31,0 -47,-6 -64,-25 z m 106,-22 c 33,-30 23,-43 -37,-43 -59,0 -67,8 -35,40 24,24 47,25 72,3 z"
       id="path14907" />
    <path
       d="m 2562,10188 c 2,-15 11,-24 26,-26 18,-3 22,1 22,22 0,21 -5,26 -26,26 -21,0 -25,-4 -22,-22 z"
       id="path14909" />
    <path
       d="m 3100,10095 v -115 h 25 25 v 115 115 h -25 -25 z"
       id="path14911" />
    <path
       d="m 3560,10195 c 0,-10 15,-15 55,-17 l 55,-3 -60,-84 c -33,-46 -60,-90 -60,-98 0,-10 22,-13 90,-13 72,0 90,3 90,15 0,10 -16,15 -60,17 l -60,3 60,84 c 33,46 60,90 60,98 0,10 -21,13 -85,13 -68,0 -85,-3 -85,-15 z"
       id="path14913" />
    <path
       d="m 5930,10095 v -115 h 25 25 v 115 115 h -25 -25 z"
       id="path14915" />
    <path
       d="m 6370,10206 c 0,-2 18,-52 41,-111 45,-122 45,-151 -1,-168 -39,-15 -39,-37 -1,-37 29,0 53,16 70,48 8,16 101,262 101,269 0,2 -10,3 -23,3 -20,0 -27,-11 -51,-87 l -29,-88 -30,88 c -27,76 -33,87 -54,87 -13,0 -23,-2 -23,-4 z"
       id="path14917" />
    <path
       d="m 8006,10187 c -45,-45 -41,-158 7,-192 34,-24 94,-19 122,10 14,13 25,31 25,40 0,23 -30,18 -56,-10 -28,-30 -38,-31 -64,-5 -14,14 -20,33 -20,65 0,44 24,85 50,85 6,0 19,-9 30,-20 20,-20 60,-28 60,-11 0,4 -9,20 -21,35 -28,36 -99,37 -133,3 z"
       id="path14919" />
    <path
       d="m 8216,10187 c -45,-45 -41,-158 7,-192 28,-19 96,-19 124,0 48,34 54,146 11,192 -31,33 -109,32 -142,0 z m 108,-29 c 23,-33 21,-103 -4,-128 -42,-42 -90,-8 -90,65 0,73 59,113 94,63 z"
       id="path14921" />
    <path
       d="m 8437,10192 c -22,-24 -22,-66 -1,-83 9,-8 37,-21 63,-29 30,-10 47,-22 49,-34 8,-38 -55,-49 -88,-16 -19,19 -50,18 -50,-1 0,-5 9,-18 20,-29 15,-15 33,-20 74,-20 47,0 57,4 75,26 12,15 21,33 21,40 0,24 -45,61 -88,73 -24,7 -46,19 -49,28 -12,30 54,46 77,18 15,-19 50,-20 50,-2 0,45 -119,67 -153,29 z"
       id="path14923" />
    <path
       d="m 9050,10185 c 0,-18 5,-25 20,-25 15,0 20,7 20,25 0,18 -5,25 -20,25 -15,0 -20,-7 -20,-25 z"
       id="path14925" />
    <path
       d="m 7622,10173 c 3,-16 16,-18 103,-18 87,0 100,2 103,18 3,15 -7,17 -103,17 -96,0 -106,-2 -103,-17 z"
       id="path14927" />
    <path
       d="m 880,10035 v -115 h 25 25 v 115 115 h -25 -25 z"
       id="path14929" />
    <path
       d="m 734,10089 c -14,-15 -19,-36 -19,-74 0,-62 23,-95 65,-95 48,0 78,57 66,125 -4,19 -14,41 -22,50 -22,22 -68,19 -90,-6 z m 74,-53 c 5,-56 -5,-86 -27,-86 -22,0 -31,19 -31,65 0,49 9,66 34,63 17,-2 22,-11 24,-42 z"
       id="path14931" />
    <path
       d="m 7627,10084 c -4,-4 -7,-13 -7,-21 0,-10 24,-13 106,-13 95,0 105,2 102,18 -3,14 -17,17 -99,20 -52,1 -98,0 -102,-4 z"
       id="path14933" />
    <path
       d="m 2567,10023 c -4,-3 -7,-15 -7,-25 0,-13 7,-18 25,-18 20,0 25,5 25,25 0,18 -5,25 -18,25 -10,0 -22,-3 -25,-7 z"
       id="path14935" />
    <path
       d="m 4187,10023 c -11,-10 -8,-43 4,-43 7,0 8,-11 4,-30 -5,-23 -3,-30 8,-30 19,0 27,21 27,71 0,31 -4,39 -18,39 -10,0 -22,-3 -25,-7 z"
       id="path14937" />
    <path
       d="m 4547,10023 c -11,-10 -8,-43 4,-43 7,0 8,-11 4,-30 -5,-23 -3,-30 8,-30 19,0 27,21 27,71 0,31 -4,39 -18,39 -10,0 -22,-3 -25,-7 z"
       id="path14939" />
    <path
       d="m 7017,10023 c -11,-10 -8,-43 4,-43 7,0 8,-11 4,-30 -5,-23 -3,-30 8,-30 19,0 27,21 27,71 0,31 -4,39 -18,39 -10,0 -22,-3 -25,-7 z"
       id="path14941" />
    <path
       d="m 9053,9975 c 1,-35 5,-55 13,-55 16,0 24,24 24,71 0,32 -4,39 -19,39 -17,0 -19,-7 -18,-55 z"
       id="path14943" />
    <path
       d="m 2398,9538 c -8,-7 -18,-21 -21,-30 -8,-23 28,-25 41,-2 13,23 56,14 60,-13 2,-15 -13,-38 -52,-77 -77,-76 -75,-86 19,-86 60,0 75,3 75,15 0,11 -12,15 -51,15 h -52 l 52,54 c 55,59 64,91 33,119 -22,20 -82,22 -104,5 z"
       id="path14945" />
    <path
       d="m 2270,9253 c 0,-37 -3,-44 -12,-35 -7,7 -29,12 -50,12 -51,0 -73,-33 -73,-111 1,-72 21,-99 75,-99 20,0 41,5 48,12 9,9 12,9 12,0 0,-7 9,-12 20,-12 19,0 20,7 20,140 0,133 -1,140 -20,140 -17,0 -20,-7 -20,-47 z m -22,-62 c 8,-4 16,-27 19,-49 9,-67 -38,-117 -75,-80 -16,16 -16,110 0,126 14,14 37,15 56,3 z"
       id="path14947" />
    <path
       d="m 4490,9253 c 0,-37 -3,-44 -12,-35 -7,7 -29,12 -50,12 -51,0 -73,-33 -73,-111 1,-72 21,-99 75,-99 20,0 41,5 48,12 9,9 12,9 12,0 0,-7 9,-12 20,-12 19,0 20,7 20,140 0,133 -1,140 -20,140 -17,0 -20,-7 -20,-47 z m -22,-62 c 8,-4 16,-27 19,-49 9,-67 -38,-117 -75,-80 -16,16 -16,110 0,126 14,14 37,15 56,3 z"
       id="path14949" />
    <path
       d="m 3275,9016 c -57,-97 -57,-215 0,-312 19,-33 32,-44 50,-44 h 24 l -31,50 c -25,41 -32,64 -36,124 -5,81 6,130 44,189 l 24,37 h -24 c -19,0 -31,-11 -51,-44 z"
       id="path14951" />
    <path
       d="m 3609,9031 c 68,-95 68,-247 0,-342 l -21,-31 28,4 c 23,2 34,13 59,62 25,51 30,70 30,136 0,66 -5,85 -30,136 -25,49 -36,60 -59,62 l -28,4 z"
       id="path14953" />
    <path
       d="m 5295,9016 c -38,-65 -52,-143 -37,-212 16,-78 56,-144 87,-144 h 24 l -31,50 c -25,41 -32,64 -36,124 -5,81 6,130 44,189 l 24,37 h -24 c -19,0 -31,-11 -51,-44 z"
       id="path14955" />
    <path
       d="m 5629,9031 c 33,-45 51,-107 51,-171 0,-64 -18,-126 -51,-171 l -21,-31 28,4 c 23,2 34,13 59,62 25,51 30,70 30,136 0,66 -5,85 -30,136 -25,49 -36,60 -59,62 l -28,4 z"
       id="path14957" />
    <path
       d="m 6855,9016 c -38,-65 -52,-143 -37,-212 16,-78 56,-144 87,-144 h 24 l -31,50 c -25,41 -32,64 -36,124 -5,81 6,130 44,189 l 24,37 h -24 c -19,0 -31,-11 -51,-44 z"
       id="path14959" />
    <path
       d="m 7189,9031 c 33,-45 51,-107 51,-171 0,-64 -18,-126 -51,-171 l -21,-31 28,4 c 23,2 34,13 59,62 25,51 30,70 30,136 0,66 -5,85 -30,136 -25,49 -36,60 -59,62 l -28,4 z"
       id="path14961" />
    <path
       d="m 3470,9005 c -5,-14 -16,-25 -25,-25 -17,0 -21,-26 -4,-32 8,-3 8,-20 -1,-63 -6,-33 -10,-76 -8,-95 3,-33 6,-35 41,-38 32,-3 37,0 37,18 0,15 -5,20 -15,17 -22,-9 -26,6 -14,69 15,86 18,94 40,94 10,0 19,7 19,15 0,8 -7,15 -15,15 -9,0 -15,9 -15,25 0,16 -6,25 -15,25 -9,0 -20,-11 -25,-25 z"
       id="path14963" />
    <path
       d="m 5490,9005 c -5,-14 -16,-25 -25,-25 -17,0 -21,-26 -4,-32 8,-3 8,-20 -1,-63 -6,-33 -10,-76 -8,-95 3,-33 6,-35 41,-38 32,-3 37,0 37,18 0,15 -5,20 -15,17 -22,-9 -26,6 -14,69 15,86 18,94 40,94 10,0 19,7 19,15 0,8 -7,15 -15,15 -9,0 -15,9 -15,25 0,16 -6,25 -15,25 -9,0 -20,-11 -25,-25 z"
       id="path14965" />
    <path
       d="m 7050,9005 c -5,-14 -16,-25 -25,-25 -17,0 -21,-26 -4,-32 8,-3 8,-20 -1,-63 -6,-33 -10,-76 -8,-95 3,-33 6,-35 41,-38 32,-3 37,0 37,18 0,15 -5,20 -15,17 -22,-9 -26,6 -14,69 15,86 18,94 40,94 10,0 19,7 19,15 0,8 -7,15 -15,15 -9,0 -15,9 -15,25 0,16 -6,25 -15,25 -9,0 -20,-11 -25,-25 z"
       id="path14967" />
    <path
       d="m 416,8983 c -38,-55 -52,-131 -37,-196 14,-64 54,-127 81,-127 18,0 18,2 -5,36 -59,87 -59,201 0,288 23,34 23,36 5,36 -11,0 -30,-16 -44,-37 z"
       id="path14969" />
    <path
       d="m 1513,8988 c 32,-43 47,-91 47,-148 0,-57 -15,-105 -47,-147 -22,-31 -23,-33 -5,-33 46,0 86,83 86,180 0,97 -40,180 -86,180 -18,0 -17,-2 5,-32 z"
       id="path14971" />
    <path
       d="m 516,8994 c -24,-23 -30,-61 -17,-104 12,-42 36,-56 76,-46 45,11 57,113 18,151 -19,20 -57,19 -77,-1 z m 65,-31 c 19,-51 -9,-118 -42,-98 -29,18 -15,125 16,125 9,0 20,-12 26,-27 z"
       id="path14973" />
    <path
       d="m 638,8874 c -66,-101 -83,-134 -70,-134 9,0 22,8 28,18 6,9 46,70 88,135 57,87 71,117 58,116 -11,0 -49,-50 -104,-135 z"
       id="path14975" />
    <path
       d="m 1096,8989 c -14,-11 -26,-27 -26,-35 0,-21 33,-17 48,6 16,27 68,27 82,1 13,-25 13,-27 -6,-45 -8,-9 -26,-16 -40,-16 -15,0 -24,-6 -24,-15 0,-8 9,-15 21,-15 36,0 59,-19 59,-48 0,-16 -5,-33 -12,-40 -21,-21 -65,-14 -86,13 -24,30 -42,32 -42,6 0,-29 47,-61 90,-61 52,0 90,32 90,75 0,32 -21,65 -40,65 -5,0 2,11 16,25 66,66 -54,144 -130,84 z"
       id="path14977" />
    <path
       d="m 1330,8990 c -29,-29 -40,-63 -40,-121 0,-84 35,-129 100,-129 68,0 107,95 62,151 -20,23 -70,31 -104,15 -14,-6 -18,-4 -18,11 0,50 61,83 90,48 16,-19 40,-19 40,-1 0,43 -95,61 -130,26 z m 85,-114 c 21,-15 25,-67 5,-90 -29,-36 -90,-5 -90,45 0,50 45,74 85,45 z"
       id="path14979" />
    <path
       d="m 3870,8955 v -45 h -45 c -33,0 -45,-4 -45,-15 0,-11 12,-15 45,-15 h 45 v -45 c 0,-38 3,-45 20,-45 17,0 20,7 20,45 v 45 h 40 c 29,0 40,4 40,15 0,11 -11,15 -40,15 h -40 v 45 c 0,38 -3,45 -20,45 -17,0 -20,-7 -20,-45 z"
       id="path14981" />
    <path
       d="m 2960,8965 c 0,-10 15,-15 55,-17 l 55,-3 -60,-84 c -33,-46 -60,-90 -60,-98 0,-10 22,-13 90,-13 72,0 90,3 90,15 0,10 -16,15 -60,17 l -60,3 60,84 c 33,46 60,90 60,98 0,10 -21,13 -85,13 -68,0 -85,-3 -85,-15 z"
       id="path14983" />
    <path
       d="m 4960,8976 c 0,-2 18,-52 41,-111 45,-122 45,-151 -1,-168 -36,-14 -39,-37 -6,-37 38,0 56,10 71,41 14,26 105,265 105,274 0,3 -10,5 -23,5 -20,0 -27,-10 -47,-76 -13,-41 -27,-77 -30,-79 -4,-2 -19,32 -35,76 -25,67 -32,79 -52,79 -13,0 -23,-2 -23,-4 z"
       id="path14985" />
    <path
       d="m 6126,8957 c -29,-29 -40,-85 -26,-136 13,-50 42,-71 96,-71 34,0 47,5 63,26 41,52 10,77 -35,29 -26,-29 -33,-30 -58,-12 -12,9 -20,31 -23,64 -5,42 -2,54 16,72 26,26 36,26 61,1 20,-20 60,-28 60,-11 0,4 -9,20 -21,35 -28,36 -99,37 -133,3 z"
       id="path14987" />
    <path
       d="m 6336,8957 c -45,-45 -41,-158 7,-192 34,-24 101,-19 134,9 25,22 28,30 28,89 0,56 -4,69 -24,91 -34,36 -111,37 -145,3 z m 108,-29 c 23,-33 21,-103 -4,-128 -41,-41 -81,-15 -87,57 -5,42 -2,54 16,72 27,27 56,27 75,-1 z"
       id="path14989" />
    <path
       d="m 6557,8962 c -22,-24 -22,-66 -1,-83 9,-8 37,-21 63,-30 28,-10 47,-23 49,-34 8,-37 -55,-48 -88,-15 -19,19 -50,18 -50,-1 0,-5 9,-18 20,-29 15,-15 33,-20 74,-20 47,0 57,4 75,26 12,15 21,34 21,44 0,25 -35,53 -88,70 -49,16 -59,35 -29,54 13,8 24,7 48,-6 37,-21 59,-23 59,-5 0,45 -119,67 -153,29 z"
       id="path14991" />
    <path
       d="m 5802,8943 c 3,-16 16,-18 103,-18 87,0 100,2 103,18 3,15 -7,17 -103,17 -96,0 -106,-2 -103,-17 z"
       id="path14993" />
    <path
       d="m 880,8932 c -43,-35 -43,-139 1,-174 32,-27 94,-23 124,7 21,20 25,34 25,80 0,46 -4,60 -25,80 -30,31 -92,34 -125,7 z m 98,-24 c 16,-16 16,-110 0,-126 -17,-17 -63,-15 -78,4 -8,8 -13,35 -13,59 0,24 5,51 13,59 15,19 61,21 78,4 z"
       id="path14995" />
    <path
       d="m 704,8873 c -27,-64 0,-133 51,-133 45,0 73,52 61,112 -9,44 -24,58 -63,58 -30,0 -36,-5 -49,-37 z m 77,-7 c 23,-50 -12,-129 -43,-98 -13,13 -15,92 -4,110 12,20 36,14 47,-12 z"
       id="path14997" />
    <path
       d="m 1810,8845 c 0,-13 64,-15 515,-15 451,0 515,2 515,15 0,13 -64,15 -515,15 -451,0 -515,-2 -515,-15 z"
       id="path14999" />
    <path
       d="m 4030,8845 c 0,-13 53,-15 415,-15 362,0 415,2 415,15 0,13 -53,15 -415,15 -362,0 -415,-2 -415,-15 z"
       id="path15001" />
    <path
       d="m 5807,8854 c -4,-4 -7,-13 -7,-21 0,-10 24,-13 106,-13 95,0 105,2 102,18 -3,14 -17,17 -99,20 -52,1 -98,0 -102,-4 z"
       id="path15003" />
    <path
       d="m 2518,8688 c -8,-7 -18,-21 -21,-30 -8,-23 28,-25 41,-2 13,23 56,14 60,-13 2,-15 -13,-38 -52,-77 -77,-76 -75,-86 19,-86 60,0 75,3 75,15 0,11 -12,15 -51,15 h -52 l 52,54 c 55,59 64,91 33,119 -22,20 -82,22 -104,5 z"
       id="path15005" />
    <path
       d="m 4370,8653 c 0,-37 -3,-44 -12,-35 -7,7 -29,12 -50,12 -51,0 -73,-33 -73,-111 1,-72 21,-99 75,-99 20,0 41,5 48,12 9,9 12,9 12,0 0,-7 9,-12 20,-12 19,0 20,7 20,140 0,133 -1,140 -20,140 -17,0 -20,-7 -20,-47 z m -22,-62 c 8,-4 16,-27 19,-49 9,-67 -38,-117 -75,-80 -16,16 -16,110 0,126 14,14 37,15 56,3 z"
       id="path15007" />
    <path
       d="m 4616,8655 c -4,-14 -13,-25 -21,-25 -16,0 -21,-26 -6,-32 5,-2 3,-35 -5,-77 -16,-84 -10,-101 37,-101 19,0 29,5 29,15 0,8 -7,15 -16,15 -14,0 -16,8 -10,53 11,83 17,97 37,97 10,0 19,7 19,15 0,8 -7,15 -15,15 -9,0 -15,9 -15,25 0,15 -6,25 -14,25 -8,0 -17,-11 -20,-25 z"
       id="path15009" />
    <path
       d="m 2150,8403 c 0,-37 -3,-44 -12,-35 -7,7 -29,12 -50,12 -51,0 -73,-33 -73,-111 1,-72 21,-99 75,-99 20,0 41,5 48,12 9,9 12,9 12,0 0,-7 9,-12 20,-12 19,0 20,7 20,140 0,133 -1,140 -20,140 -17,0 -20,-7 -20,-47 z m -22,-62 c 8,-4 16,-27 19,-49 9,-67 -38,-117 -75,-80 -16,16 -16,110 0,126 14,14 37,15 56,3 z"
       id="path15011" />
    <path
       d="m 2396,8405 c -4,-14 -13,-25 -21,-25 -16,0 -21,-26 -6,-32 5,-2 3,-35 -5,-77 -16,-84 -10,-101 37,-101 19,0 29,5 29,15 0,8 -7,15 -16,15 -14,0 -16,8 -10,53 11,83 17,97 37,97 10,0 19,7 19,15 0,8 -7,15 -15,15 -9,0 -15,9 -15,25 0,15 -6,25 -14,25 -8,0 -17,-11 -20,-25 z"
       id="path15013" />
    <path
       d="m 2650,7585 v -155 h 25 25 v 155 155 h -25 -25 z"
       id="path15015" />
    <path
       d="m 3245,7696 c -57,-97 -57,-215 0,-312 19,-33 32,-44 50,-44 h 24 l -31,50 c -25,41 -32,64 -36,124 -5,81 6,130 44,189 l 24,37 h -24 c -19,0 -31,-11 -51,-44 z"
       id="path15017" />
    <path
       d="m 3595,7696 c -57,-97 -57,-215 0,-312 19,-33 32,-44 50,-44 h 24 l -31,50 c -25,41 -32,64 -36,124 -5,81 6,130 44,189 l 24,37 h -24 c -19,0 -31,-11 -51,-44 z"
       id="path15019" />
    <path
       d="m 3809,7711 c 68,-95 68,-247 0,-342 l -21,-31 28,4 c 23,2 34,13 59,62 25,51 30,70 30,136 0,66 -5,85 -30,136 -25,49 -36,60 -59,62 l -28,4 z"
       id="path15021" />
    <path
       d="m 5489,7711 c 33,-45 51,-107 51,-171 0,-64 -18,-126 -51,-171 l -21,-31 28,4 c 23,2 34,13 59,62 25,51 30,70 30,136 0,66 -5,85 -30,136 -25,49 -36,60 -59,62 l -28,4 z"
       id="path15023" />
    <path
       d="m 4582,7700 c -54,-51 -55,-189 0,-247 30,-32 96,-32 126,0 54,58 58,186 6,242 -30,32 -99,35 -132,5 z m 106,-38 c 15,-19 16,-145 2,-173 -17,-30 -74,-26 -88,6 -14,31 -16,124 -3,159 15,37 61,41 89,8 z"
       id="path15025" />
    <path
       d="m 5308,7697 c -16,-13 -28,-30 -28,-40 0,-21 13,-22 30,-2 24,29 30,14 30,-85 v -100 h -35 c -28,0 -35,-4 -35,-20 0,-19 7,-20 96,-20 86,0 95,2 92,18 -2,11 -14,18 -36,20 l -32,3 v 125 124 h -27 c -16,-1 -40,-11 -55,-23 z"
       id="path15027" />
    <path
       d="m 2104,7685 c -3,-14 -12,-25 -20,-25 -8,0 -14,-7 -14,-15 0,-8 7,-15 15,-15 12,0 15,-16 15,-88 0,-99 7,-112 58,-112 26,0 33,4 30,18 -2,9 -9,18 -16,18 -6,1 -16,2 -22,3 -6,0 -10,35 -10,81 0,73 2,80 20,80 11,0 20,7 20,15 0,8 -9,15 -20,15 -15,0 -20,7 -20,25 0,15 -6,25 -15,25 -8,0 -17,-11 -21,-25 z"
       id="path15029" />
    <path
       d="m 3704,7685 c -3,-14 -12,-25 -20,-25 -8,0 -14,-7 -14,-15 0,-8 7,-15 15,-15 12,0 15,-16 15,-88 0,-99 7,-112 58,-112 27,0 33,4 30,18 -2,9 -10,16 -18,14 -22,-5 -30,19 -30,96 0,65 2,72 20,72 11,0 20,7 20,15 0,8 -9,15 -20,15 -15,0 -20,7 -20,25 0,15 -6,25 -15,25 -8,0 -17,-11 -21,-25 z"
       id="path15031" />
    <path
       d="m 4204,7685 c -3,-14 -12,-25 -20,-25 -8,0 -14,-7 -14,-15 0,-8 7,-15 15,-15 12,0 15,-16 15,-88 0,-99 7,-112 58,-112 27,0 33,4 30,18 -2,9 -10,16 -18,14 -22,-5 -30,19 -30,96 0,65 2,72 20,72 11,0 20,7 20,15 0,8 -9,15 -20,15 -15,0 -20,7 -20,25 0,15 -6,25 -15,25 -8,0 -17,-11 -21,-25 z"
       id="path15033" />
    <path
       d="m 415,7637 c -55,-95 -55,-219 0,-314 20,-33 32,-43 52,-43 24,0 25,1 10,18 -76,84 -76,280 0,364 15,17 14,18 -10,18 -20,0 -32,-10 -52,-43 z"
       id="path15035" />
    <path
       d="m 882,7663 c 2,-10 13,-19 26,-21 17,-3 22,2 22,17 0,16 -6,21 -26,21 -19,0 -25,-5 -22,-17 z"
       id="path15037" />
    <path
       d="m 1435,7644 c 32,-47 45,-95 45,-164 0,-69 -13,-117 -45,-164 l -24,-36 h 22 c 43,0 89,102 89,200 0,98 -46,200 -89,200 h -22 z"
       id="path15039" />
    <path
       d="m 526,7644 c -33,-32 -32,-116 0,-149 22,-21 68,-19 89,5 26,28 26,112 0,140 -22,24 -67,26 -89,4 z m 68,-30 c 9,-23 7,-77 -3,-92 -5,-8 -17,-12 -27,-10 -15,2 -20,13 -22,47 -2,24 -1,50 2,57 7,19 42,18 50,-2 z"
       id="path15041" />
    <path
       d="m 664,7528 c -99,-152 -102,-158 -80,-158 9,0 51,53 102,132 99,152 102,158 80,158 -9,0 -51,-53 -102,-132 z"
       id="path15043" />
    <path
       d="m 995,7635 c -14,-13 -25,-29 -25,-35 0,-22 29,-20 53,4 29,29 39,31 68,16 42,-23 13,-80 -41,-80 -35,0 -21,-34 15,-38 17,-2 36,-8 43,-14 20,-17 14,-56 -13,-74 -29,-19 -60,-11 -81,21 -18,28 -54,24 -47,-6 15,-55 115,-79 165,-39 43,34 41,111 -3,125 -16,5 -15,8 7,30 50,50 10,115 -71,115 -35,0 -52,-6 -70,-25 z"
       id="path15045" />
    <path
       d="m 1202,7643 c 3,-15 16,-19 71,-21 38,-2 67,-6 65,-10 -50,-97 -79,-165 -84,-199 -6,-41 -5,-43 18,-43 23,0 26,5 30,51 4,34 20,79 47,131 22,44 41,86 41,94 0,11 -20,14 -96,14 -86,0 -95,-2 -92,-17 z"
       id="path15047" />
    <path
       d="m 1880,7633 -21,-27 22,-8 c 17,-6 25,-4 36,12 17,24 46,26 67,4 30,-30 20,-44 -33,-44 -64,0 -95,-24 -95,-73 0,-19 6,-42 13,-51 18,-21 94,-21 112,0 12,14 14,14 25,-1 8,-10 23,-15 40,-13 28,3 47,28 21,28 -21,0 -27,22 -27,100 0,60 -3,71 -22,84 -13,9 -43,16 -69,16 -40,0 -51,-4 -69,-27 z m 120,-108 c 0,-19 -44,-65 -63,-65 -18,0 -37,20 -37,40 0,26 22,40 62,40 28,0 38,-4 38,-15 z"
       id="path15049" />
    <path
       d="m 2191,7653 c 0,-5 17,-55 37,-113 33,-95 40,-105 63,-108 24,-3 29,2 43,40 8,24 27,74 41,112 14,37 25,70 25,72 0,2 -10,4 -23,4 -20,0 -27,-11 -52,-91 l -30,-91 -29,91 c -26,79 -33,91 -53,91 -13,0 -23,-3 -22,-7 z"
       id="path15051" />
    <path
       d="m 2440,7633 -21,-27 22,-8 c 17,-6 25,-4 36,12 17,24 46,26 67,4 30,-30 20,-44 -33,-44 -64,0 -95,-24 -95,-73 0,-19 6,-42 13,-51 18,-21 94,-21 112,0 12,14 14,14 25,-1 8,-10 23,-15 40,-13 28,3 47,28 21,28 -21,0 -27,22 -27,100 0,60 -3,71 -22,84 -13,9 -43,16 -69,16 -40,0 -51,-4 -69,-27 z m 120,-108 c 0,-19 -44,-65 -63,-65 -18,0 -37,20 -37,40 0,26 22,40 62,40 28,0 38,-4 38,-15 z"
       id="path15053" />
    <path
       d="m 2742,7559 c 2,-86 6,-103 22,-115 24,-17 88,-18 104,-2 9,9 12,9 12,0 0,-7 11,-12 25,-12 h 25 v 115 115 h -25 c -25,0 -25,-1 -25,-85 0,-80 -1,-85 -26,-102 -46,-30 -59,-10 -62,96 -3,90 -3,91 -28,91 h -26 z"
       id="path15055" />
    <path
       d="m 2996,7637 c -45,-45 -41,-158 7,-192 32,-22 108,-20 135,5 12,12 22,25 22,30 0,17 -35,15 -52,-2 -10,-10 -27,-18 -38,-18 -26,0 -60,34 -60,60 0,18 7,20 80,20 89,0 92,3 66,65 -17,41 -42,55 -96,55 -29,0 -47,-6 -64,-23 z m 106,-24 c 33,-30 23,-43 -37,-43 -59,0 -67,8 -35,40 24,24 47,25 72,3 z"
       id="path15057" />
    <path
       d="m 3340,7645 c 0,-10 15,-15 55,-17 l 55,-3 -60,-84 c -33,-46 -60,-90 -60,-98 0,-10 22,-13 90,-13 72,0 90,3 90,15 0,10 -16,15 -60,17 l -60,3 60,84 c 33,46 60,90 60,98 0,10 -21,13 -85,13 -68,0 -85,-3 -85,-15 z"
       id="path15059" />
    <path
       d="m 5650,7635 c 0,-18 5,-25 20,-25 15,0 20,7 20,25 0,18 -5,25 -20,25 -15,0 -20,-7 -20,-25 z"
       id="path15061" />
    <path
       d="m 4312,7623 c 3,-16 16,-18 103,-18 87,0 100,2 103,18 3,15 -7,17 -103,17 -96,0 -106,-2 -103,-17 z"
       id="path15063" />
    <path
       d="m 880,7485 v -115 h 25 25 v 115 115 h -25 -25 z"
       id="path15065" />
    <path
       d="m 5020,7570 c 0,-19 6,-20 106,-20 95,0 105,2 102,18 -3,15 -17,17 -106,20 -97,3 -102,2 -102,-18 z"
       id="path15067" />
    <path
       d="m 734,7539 c -14,-15 -19,-36 -19,-74 0,-62 23,-95 65,-95 48,0 78,57 66,125 -4,19 -14,41 -22,50 -22,22 -68,19 -90,-6 z m 74,-53 c 5,-56 -5,-86 -27,-86 -22,0 -31,19 -31,65 0,49 9,66 34,63 17,-2 22,-11 24,-42 z"
       id="path15069" />
    <path
       d="m 4317,7534 c -4,-4 -7,-13 -7,-21 0,-10 24,-13 106,-13 95,0 105,2 102,18 -3,14 -17,17 -99,20 -52,1 -98,0 -102,-4 z"
       id="path15071" />
    <path
       d="m 3967,7473 c -11,-10 -8,-43 4,-43 7,0 8,-11 4,-30 -5,-23 -3,-30 8,-30 19,0 27,21 27,71 0,31 -4,39 -18,39 -10,0 -22,-3 -25,-7 z"
       id="path15073" />
    <path
       d="m 4797,7473 c -11,-10 -8,-43 4,-43 7,0 8,-11 4,-30 -5,-23 -3,-30 8,-30 19,0 27,21 27,71 0,31 -4,39 -18,39 -10,0 -22,-3 -25,-7 z"
       id="path15075" />
    <path
       d="m 5653,7425 c 1,-35 5,-55 13,-55 16,0 24,24 24,71 0,32 -4,39 -19,39 -17,0 -19,-7 -18,-55 z"
       id="path15077" />
    <path
       d="m 2208,7039 c -16,-11 -28,-29 -28,-40 0,-23 4,-23 35,-3 l 25,16 v -101 -101 h -35 c -28,0 -35,-4 -35,-20 0,-19 7,-20 96,-20 86,0 95,2 92,18 -2,11 -14,18 -36,20 l -32,3 v 125 124 h -27 c -16,0 -40,-10 -55,-21 z"
       id="path15079" />
    <path
       d="m 416,7003 c -38,-55 -52,-131 -37,-196 14,-64 54,-127 81,-127 18,0 18,2 -5,36 -59,87 -59,201 0,288 23,34 23,36 5,36 -11,0 -30,-16 -44,-37 z"
       id="path15081" />
    <path
       d="m 1513,7008 c 32,-43 47,-91 47,-148 0,-57 -15,-105 -47,-147 -22,-31 -23,-33 -5,-33 46,0 86,83 86,180 0,97 -40,180 -86,180 -18,0 -17,-2 5,-32 z"
       id="path15083" />
    <path
       d="m 516,7014 c -24,-23 -30,-61 -17,-104 12,-42 36,-56 76,-46 45,11 57,113 18,151 -19,20 -57,19 -77,-1 z m 65,-31 c 19,-51 -9,-118 -42,-98 -29,18 -15,125 16,125 9,0 20,-12 26,-27 z"
       id="path15085" />
    <path
       d="m 638,6894 c -66,-101 -83,-134 -70,-134 9,0 22,8 28,18 6,9 46,70 88,135 57,87 71,117 58,116 -11,0 -49,-50 -104,-135 z"
       id="path15087" />
    <path
       d="m 1096,7009 c -14,-11 -26,-27 -26,-35 0,-21 33,-17 48,6 16,27 68,27 82,1 13,-25 13,-27 -6,-45 -8,-9 -26,-16 -40,-16 -15,0 -24,-6 -24,-15 0,-8 9,-15 21,-15 36,0 59,-19 59,-48 0,-16 -5,-33 -12,-40 -21,-21 -65,-14 -86,13 -24,30 -42,32 -42,6 0,-29 47,-61 90,-61 52,0 90,32 90,75 0,32 -21,65 -40,65 -5,0 2,11 16,25 66,66 -54,144 -130,84 z"
       id="path15089" />
    <path
       d="m 1290,7015 c 0,-12 14,-15 69,-15 h 69 l -40,-77 c -21,-43 -42,-97 -45,-120 -5,-39 -4,-43 16,-43 17,0 21,6 21,33 1,37 37,130 68,175 40,56 33,62 -68,62 -73,0 -90,-3 -90,-15 z"
       id="path15091" />
    <path
       d="m 880,6952 c -43,-35 -43,-139 1,-174 32,-27 94,-23 124,7 21,20 25,34 25,80 0,46 -4,60 -25,80 -30,31 -92,34 -125,7 z m 98,-24 c 16,-16 16,-110 0,-126 -17,-17 -63,-15 -78,4 -8,8 -13,35 -13,59 0,24 5,51 13,59 15,19 61,21 78,4 z"
       id="path15093" />
    <path
       d="m 704,6893 c -27,-64 0,-133 51,-133 45,0 73,52 61,112 -9,44 -24,58 -63,58 -30,0 -36,-5 -49,-37 z m 77,-7 c 23,-50 -12,-129 -43,-98 -13,13 -15,92 -4,110 12,20 36,14 47,-12 z"
       id="path15095" />
    <path
       d="m 1867,6923 c -4,-3 -7,-12 -7,-20 0,-10 24,-13 105,-13 98,0 105,1 105,20 0,19 -7,20 -98,20 -54,0 -102,-3 -105,-7 z"
       id="path15097" />
    <path
       d="m 2650,6175 v -155 h 25 25 v 155 155 h -25 -25 z"
       id="path15099" />
    <path
       d="m 3245,6286 c -57,-97 -57,-215 0,-312 19,-33 32,-44 50,-44 h 24 l -31,50 c -25,41 -32,64 -36,124 -5,81 6,130 44,189 l 24,37 h -24 c -19,0 -31,-11 -51,-44 z"
       id="path15101" />
    <path
       d="m 3560,6278 c 0,-40 -3,-49 -12,-40 -20,20 -85,15 -107,-9 -40,-43 -34,-176 9,-199 26,-14 83,-13 98,2 9,9 12,9 12,0 0,-7 11,-12 25,-12 h 25 v 155 155 h -25 c -23,0 -25,-3 -25,-52 z m -18,-75 c 26,-23 25,-106 -2,-133 -26,-26 -45,-25 -64,2 -33,46 -11,148 31,148 9,0 25,-7 35,-17 z"
       id="path15103" />
    <path
       d="m 3650,6310 c 0,-15 7,-20 25,-20 18,0 25,5 25,20 0,15 -7,20 -25,20 -18,0 -25,-5 -25,-20 z"
       id="path15105" />
    <path
       d="m 3760,6311 c -5,-11 -10,-29 -10,-40 0,-12 -7,-21 -15,-21 -8,0 -15,-7 -15,-15 0,-8 7,-15 15,-15 12,0 15,-18 15,-100 v -100 h 25 25 v 100 100 h 30 30 v -100 -100 h 25 25 v 100 c 0,93 1,100 20,100 11,0 20,7 20,15 0,8 -9,15 -20,15 -14,0 -20,7 -20,21 0,12 8,23 20,26 34,9 24,33 -15,33 -36,0 -55,-20 -55,-59 0,-17 -6,-21 -30,-21 -24,0 -30,4 -30,21 0,12 8,23 20,26 34,9 24,33 -15,33 -24,0 -37,-6 -45,-19 z"
       id="path15107" />
    <path
       d="m 4015,6286 c -57,-97 -57,-215 0,-312 19,-33 32,-44 50,-44 h 24 l -31,50 c -25,41 -32,64 -36,124 -5,81 6,130 44,189 l 24,37 h -24 c -19,0 -31,-11 -51,-44 z"
       id="path15109" />
    <path
       d="m 4365,6286 c -57,-97 -57,-215 0,-312 19,-33 32,-44 50,-44 h 24 l -31,50 c -25,41 -32,64 -36,124 -5,81 6,130 44,189 l 24,37 h -24 c -19,0 -31,-11 -51,-44 z"
       id="path15111" />
    <path
       d="m 4579,6301 c 68,-95 68,-247 0,-342 l -21,-31 28,4 c 23,2 34,13 59,62 25,51 30,70 30,136 0,66 -5,85 -30,136 -25,49 -36,60 -59,62 l -28,4 z"
       id="path15113" />
    <path
       d="m 5079,6301 c 33,-45 51,-107 51,-171 0,-64 -18,-126 -51,-171 l -21,-31 28,4 c 23,2 34,13 59,62 25,51 30,70 30,136 0,66 -5,85 -30,136 -25,49 -36,60 -59,62 l -28,4 z"
       id="path15115" />
    <path
       d="m 6759,6301 c 33,-45 51,-107 51,-171 0,-64 -18,-126 -51,-171 l -21,-31 28,4 c 23,2 34,13 59,62 25,51 30,70 30,136 0,66 -5,85 -30,136 -25,49 -36,60 -59,62 l -28,4 z"
       id="path15117" />
    <path
       d="m 3340,6260 c 0,-43 3,-50 20,-50 17,0 20,7 20,50 0,43 -3,50 -20,50 -17,0 -20,-7 -20,-50 z"
       id="path15119" />
    <path
       d="m 5852,6290 c -54,-51 -55,-189 0,-247 30,-32 96,-32 126,0 54,58 58,186 6,242 -30,32 -99,35 -132,5 z m 106,-38 c 15,-19 16,-145 2,-173 -17,-30 -74,-26 -88,6 -14,31 -16,124 -3,159 15,37 61,41 89,8 z"
       id="path15121" />
    <path
       d="m 6578,6287 c -16,-13 -28,-30 -28,-40 0,-21 13,-22 30,-2 24,29 30,14 30,-85 v -100 h -35 c -28,0 -35,-4 -35,-20 0,-19 7,-20 96,-20 86,0 95,2 92,18 -2,11 -14,18 -36,20 l -32,3 v 125 124 h -27 c -16,-1 -40,-11 -55,-23 z"
       id="path15123" />
    <path
       d="m 2104,6275 c -3,-14 -12,-25 -20,-25 -8,0 -14,-7 -14,-15 0,-8 7,-15 15,-15 12,0 15,-16 15,-88 0,-99 7,-112 58,-112 26,0 33,4 30,18 -2,9 -9,18 -16,18 -6,1 -16,2 -22,3 -6,0 -10,35 -10,81 0,73 2,80 20,80 11,0 20,7 20,15 0,8 -9,15 -20,15 -15,0 -20,7 -20,25 0,15 -6,25 -15,25 -8,0 -17,-11 -21,-25 z"
       id="path15125" />
    <path
       d="m 4474,6275 c -3,-14 -12,-25 -20,-25 -8,0 -14,-7 -14,-15 0,-8 7,-15 15,-15 12,0 15,-16 15,-88 0,-99 7,-112 58,-112 27,0 33,4 30,18 -2,9 -10,16 -18,14 -22,-5 -30,19 -30,96 0,65 2,72 20,72 11,0 20,7 20,15 0,8 -9,15 -20,15 -15,0 -20,7 -20,25 0,15 -6,25 -15,25 -8,0 -17,-11 -21,-25 z"
       id="path15127" />
    <path
       d="m 4974,6275 c -3,-14 -12,-25 -20,-25 -8,0 -14,-7 -14,-15 0,-8 7,-15 15,-15 12,0 15,-16 15,-88 0,-99 7,-112 58,-112 27,0 33,4 30,18 -2,9 -10,16 -18,14 -22,-5 -30,19 -30,96 0,65 2,72 20,72 11,0 20,7 20,15 0,8 -9,15 -20,15 -15,0 -20,7 -20,25 0,15 -6,25 -15,25 -8,0 -17,-11 -21,-25 z"
       id="path15129" />
    <path
       d="m 5474,6275 c -3,-14 -12,-25 -20,-25 -8,0 -14,-7 -14,-15 0,-8 7,-15 15,-15 12,0 15,-16 15,-88 0,-99 7,-112 58,-112 27,0 33,4 30,18 -2,9 -10,16 -18,14 -22,-5 -30,19 -30,96 0,65 2,72 20,72 11,0 20,7 20,15 0,8 -9,15 -20,15 -15,0 -20,7 -20,25 0,15 -6,25 -15,25 -8,0 -17,-11 -21,-25 z"
       id="path15131" />
    <path
       d="m 415,6227 c -55,-95 -55,-219 0,-314 20,-33 32,-43 52,-43 24,0 25,1 10,18 -76,84 -76,280 0,364 15,17 14,18 -10,18 -20,0 -32,-10 -52,-43 z"
       id="path15133" />
    <path
       d="m 882,6253 c 2,-10 13,-19 26,-21 17,-3 22,2 22,17 0,16 -6,21 -26,21 -19,0 -25,-5 -22,-17 z"
       id="path15135" />
    <path
       d="m 1435,6234 c 32,-47 45,-95 45,-164 0,-69 -13,-117 -45,-164 l -24,-36 h 22 c 43,0 89,102 89,200 0,98 -46,200 -89,200 h -22 z"
       id="path15137" />
    <path
       d="m 526,6234 c -33,-32 -32,-116 0,-149 22,-21 68,-19 89,5 26,28 26,112 0,140 -22,24 -67,26 -89,4 z m 68,-30 c 9,-23 7,-77 -3,-92 -5,-8 -17,-12 -27,-10 -15,2 -20,13 -22,47 -2,24 -1,50 2,57 7,19 42,18 50,-2 z"
       id="path15139" />
    <path
       d="m 664,6118 c -99,-152 -102,-158 -80,-158 9,0 51,53 102,132 99,152 102,158 80,158 -9,0 -51,-53 -102,-132 z"
       id="path15141" />
    <path
       d="m 995,6225 c -14,-13 -25,-29 -25,-35 0,-22 29,-20 53,4 29,29 39,31 68,16 42,-23 13,-80 -41,-80 -35,0 -21,-34 15,-38 17,-2 36,-8 43,-14 20,-17 14,-56 -13,-74 -29,-19 -60,-11 -81,21 -18,28 -54,24 -47,-6 15,-55 115,-79 165,-39 43,34 41,111 -3,125 -16,5 -15,8 7,30 50,50 10,115 -71,115 -35,0 -52,-6 -70,-25 z"
       id="path15143" />
    <path
       d="m 1225,6225 c -30,-29 -32,-55 -7,-85 18,-23 18,-24 0,-42 -29,-29 -24,-92 8,-117 38,-30 104,-28 140,3 36,30 39,90 7,115 -20,17 -20,18 -2,40 26,31 24,57 -6,86 -18,19 -35,25 -70,25 -35,0 -52,-6 -70,-25 z m 99,-11 c 26,-10 20,-62 -8,-75 -34,-16 -66,3 -66,41 0,35 32,50 74,34 z m 7,-124 c 26,-15 26,-75 0,-90 -45,-23 -91,-1 -91,45 0,46 46,68 91,45 z"
       id="path15145" />
    <path
       d="m 1880,6223 -21,-27 22,-8 c 17,-6 25,-4 36,12 17,24 46,26 67,4 30,-30 20,-44 -33,-44 -64,0 -95,-24 -95,-73 0,-19 6,-42 13,-51 18,-21 94,-21 112,0 12,14 14,14 25,-1 8,-10 23,-15 40,-13 28,3 47,28 21,28 -21,0 -27,22 -27,100 0,60 -3,71 -22,84 -13,9 -43,16 -69,16 -40,0 -51,-4 -69,-27 z m 120,-108 c 0,-19 -44,-65 -63,-65 -18,0 -37,20 -37,40 0,26 22,40 62,40 28,0 38,-4 38,-15 z"
       id="path15147" />
    <path
       d="m 2191,6243 c 0,-5 17,-55 37,-113 33,-95 40,-105 63,-108 24,-3 29,2 43,40 8,24 27,74 41,112 14,37 25,70 25,72 0,2 -10,4 -23,4 -20,0 -27,-11 -52,-91 l -30,-91 -29,91 c -26,79 -33,91 -53,91 -13,0 -23,-3 -22,-7 z"
       id="path15149" />
    <path
       d="m 2440,6223 -21,-27 22,-8 c 17,-6 25,-4 36,12 17,24 46,26 67,4 30,-30 20,-44 -33,-44 -64,0 -95,-24 -95,-73 0,-19 6,-42 13,-51 18,-21 94,-21 112,0 12,14 14,14 25,-1 8,-10 23,-15 40,-13 28,3 47,28 21,28 -21,0 -27,22 -27,100 0,60 -3,71 -22,84 -13,9 -43,16 -69,16 -40,0 -51,-4 -69,-27 z m 120,-108 c 0,-19 -44,-65 -63,-65 -18,0 -37,20 -37,40 0,26 22,40 62,40 28,0 38,-4 38,-15 z"
       id="path15151" />
    <path
       d="m 2742,6149 c 2,-86 6,-103 22,-115 24,-17 88,-18 104,-2 9,9 12,9 12,0 0,-7 11,-12 25,-12 h 25 v 115 115 h -25 c -25,0 -25,-1 -25,-85 0,-80 -1,-85 -26,-102 -46,-30 -59,-10 -62,96 -3,90 -3,91 -28,91 h -26 z"
       id="path15153" />
    <path
       d="m 2996,6227 c -45,-45 -41,-158 7,-192 32,-22 108,-20 135,5 12,12 22,25 22,30 0,17 -35,15 -52,-2 -10,-10 -27,-18 -38,-18 -26,0 -60,34 -60,60 0,18 7,20 80,20 89,0 92,3 66,65 -17,41 -42,55 -96,55 -29,0 -47,-6 -64,-23 z m 106,-24 c 33,-30 23,-43 -37,-43 -59,0 -67,8 -35,40 24,24 47,25 72,3 z"
       id="path15155" />
    <path
       d="m 3650,6135 v -115 h 25 25 v 115 115 h -25 -25 z"
       id="path15157" />
    <path
       d="m 4110,6235 c 0,-10 15,-15 55,-17 l 55,-3 -60,-84 c -33,-46 -60,-90 -60,-98 0,-10 22,-13 90,-13 72,0 90,3 90,15 0,10 -16,15 -60,17 l -60,3 60,84 c 33,46 60,90 60,98 0,10 -21,13 -85,13 -68,0 -85,-3 -85,-15 z"
       id="path15159" />
    <path
       d="m 6920,6225 c 0,-18 5,-25 20,-25 15,0 20,7 20,25 0,18 -5,25 -20,25 -15,0 -20,-7 -20,-25 z"
       id="path15161" />
    <path
       d="m 5582,6213 c 3,-16 16,-18 103,-18 87,0 100,2 103,18 3,15 -7,17 -103,17 -96,0 -106,-2 -103,-17 z"
       id="path15163" />
    <path
       d="m 880,6075 v -115 h 25 25 v 115 115 h -25 -25 z"
       id="path15165" />
    <path
       d="m 6290,6160 c 0,-19 6,-20 106,-20 95,0 105,2 102,18 -3,15 -17,17 -106,20 -97,3 -102,2 -102,-18 z"
       id="path15167" />
    <path
       d="m 734,6129 c -14,-15 -19,-36 -19,-74 0,-62 23,-95 65,-95 48,0 78,57 66,125 -4,19 -14,41 -22,50 -22,22 -68,19 -90,-6 z m 74,-53 c 5,-56 -5,-86 -27,-86 -22,0 -31,19 -31,65 0,49 9,66 34,63 17,-2 22,-11 24,-42 z"
       id="path15169" />
    <path
       d="m 5587,6124 c -4,-4 -7,-13 -7,-21 0,-10 24,-13 106,-13 95,0 105,2 102,18 -3,14 -17,17 -99,20 -52,1 -98,0 -102,-4 z"
       id="path15171" />
    <path
       d="m 4737,6063 c -11,-10 -8,-43 4,-43 7,0 8,-11 4,-30 -5,-23 -3,-30 8,-30 19,0 27,21 27,71 0,31 -4,39 -18,39 -10,0 -22,-3 -25,-7 z"
       id="path15173" />
    <path
       d="m 5237,6063 c -11,-10 -8,-43 4,-43 7,0 8,-11 4,-30 -5,-23 -3,-30 8,-30 19,0 27,21 27,71 0,31 -4,39 -18,39 -10,0 -22,-3 -25,-7 z"
       id="path15175" />
    <path
       d="m 6067,6063 c -11,-10 -8,-43 4,-43 7,0 8,-11 4,-30 -5,-23 -3,-30 8,-30 19,0 27,21 27,71 0,31 -4,39 -18,39 -10,0 -22,-3 -25,-7 z"
       id="path15177" />
    <path
       d="m 6923,6015 c 1,-35 5,-55 13,-55 16,0 24,24 24,71 0,32 -4,39 -19,39 -17,0 -19,-7 -18,-55 z"
       id="path15179" />
    <path
       d="m 2208,5629 c -16,-11 -28,-29 -28,-40 0,-23 4,-23 35,-3 l 25,16 v -101 -101 h -35 c -28,0 -35,-4 -35,-20 0,-19 7,-20 96,-20 86,0 95,2 92,18 -2,11 -14,18 -36,20 l -32,3 v 125 124 h -27 c -16,0 -40,-10 -55,-21 z"
       id="path15181" />
    <path
       d="m 416,5593 c -38,-55 -52,-131 -37,-196 14,-64 54,-127 81,-127 18,0 18,2 -5,36 -59,87 -59,201 0,288 23,34 23,36 5,36 -11,0 -30,-16 -44,-37 z"
       id="path15183" />
    <path
       d="m 1513,5598 c 32,-43 47,-91 47,-148 0,-57 -15,-105 -47,-147 -22,-31 -23,-33 -5,-33 46,0 86,83 86,180 0,97 -40,180 -86,180 -18,0 -17,-2 5,-32 z"
       id="path15185" />
    <path
       d="m 516,5604 c -24,-23 -30,-61 -17,-104 12,-42 36,-56 76,-46 45,11 57,113 18,151 -19,20 -57,19 -77,-1 z m 65,-31 c 19,-51 -9,-118 -42,-98 -29,18 -15,125 16,125 9,0 20,-12 26,-27 z"
       id="path15187" />
    <path
       d="m 638,5484 c -66,-101 -83,-134 -70,-134 9,0 22,8 28,18 6,9 46,70 88,135 57,87 71,117 58,116 -11,0 -49,-50 -104,-135 z"
       id="path15189" />
    <path
       d="m 1096,5599 c -14,-11 -26,-27 -26,-35 0,-21 33,-17 48,6 16,27 68,27 82,1 13,-25 13,-27 -6,-45 -8,-9 -26,-16 -40,-16 -15,0 -24,-6 -24,-15 0,-8 9,-15 21,-15 36,0 59,-19 59,-48 0,-16 -5,-33 -12,-40 -21,-21 -65,-14 -86,13 -24,30 -42,32 -42,6 0,-29 47,-61 90,-61 52,0 90,32 90,75 0,32 -21,65 -40,65 -5,0 2,11 16,25 66,66 -54,144 -130,84 z"
       id="path15191" />
    <path
       d="m 1315,5595 c -30,-29 -31,-45 -6,-77 19,-24 19,-24 0,-36 -13,-9 -19,-24 -19,-51 0,-50 35,-81 90,-81 55,0 90,31 90,81 0,27 -6,42 -19,51 -19,12 -19,12 0,36 25,32 24,48 -6,77 -18,19 -35,25 -65,25 -30,0 -47,-6 -65,-25 z m 103,-17 c 35,-35 -14,-82 -63,-60 -44,20 -26,72 25,72 14,0 31,-5 38,-12 z m -4,-104 c 11,-4 16,-19 16,-44 0,-39 -11,-50 -53,-50 -35,0 -50,16 -50,50 0,44 38,63 87,44 z"
       id="path15193" />
    <path
       d="m 880,5542 c -43,-35 -43,-139 1,-174 32,-27 94,-23 124,7 21,20 25,34 25,80 0,46 -4,60 -25,80 -30,31 -92,34 -125,7 z m 98,-24 c 16,-16 16,-110 0,-126 -17,-17 -63,-15 -78,4 -8,8 -13,35 -13,59 0,24 5,51 13,59 15,19 61,21 78,4 z"
       id="path15195" />
    <path
       d="m 704,5483 c -27,-64 0,-133 51,-133 45,0 73,52 61,112 -9,44 -24,58 -63,58 -30,0 -36,-5 -49,-37 z m 77,-7 c 23,-50 -12,-129 -43,-98 -13,13 -15,92 -4,110 12,20 36,14 47,-12 z"
       id="path15197" />
    <path
       d="m 1867,5513 c -4,-3 -7,-12 -7,-20 0,-10 24,-13 105,-13 98,0 105,1 105,20 0,19 -7,20 -98,20 -54,0 -102,-3 -105,-7 z"
       id="path15199" />
    <path
       d="m 2650,4765 v -155 h 25 25 v 155 155 h -25 -25 z"
       id="path15201" />
    <path
       d="m 3245,4876 c -57,-97 -57,-215 0,-312 19,-33 32,-44 50,-44 h 24 l -31,50 c -25,41 -32,64 -36,124 -5,81 6,130 44,189 l 24,37 h -24 c -19,0 -31,-11 -51,-44 z"
       id="path15203" />
    <path
       d="m 3595,4876 c -57,-97 -57,-215 0,-312 19,-33 32,-44 50,-44 h 24 l -31,50 c -25,41 -32,64 -36,124 -5,81 6,130 44,189 l 24,37 h -24 c -19,0 -31,-11 -51,-44 z"
       id="path15205" />
    <path
       d="m 3809,4891 c 33,-45 51,-107 51,-171 0,-64 -18,-126 -51,-171 l -21,-31 28,4 c 23,2 34,13 59,62 25,51 30,70 30,136 0,66 -5,85 -30,136 -25,49 -36,60 -59,62 l -28,4 z"
       id="path15207" />
    <path
       d="m 5249,4891 c 33,-45 51,-107 51,-171 0,-64 -18,-126 -51,-171 l -21,-31 28,4 c 23,2 34,13 59,62 25,51 30,70 30,136 0,66 -5,85 -30,136 -25,49 -36,60 -59,62 l -28,4 z"
       id="path15209" />
    <path
       d="m 4582,4880 c -54,-51 -55,-189 0,-247 30,-32 96,-32 126,0 54,58 58,186 6,242 -30,32 -99,35 -132,5 z m 106,-38 c 15,-19 16,-145 2,-173 -17,-30 -74,-26 -88,6 -14,31 -16,124 -3,159 15,37 61,41 89,8 z"
       id="path15211" />
    <path
       d="m 5068,4877 c -16,-13 -28,-30 -28,-40 0,-21 13,-22 30,-2 24,29 30,14 30,-85 v -100 h -35 c -28,0 -35,-4 -35,-20 0,-19 7,-20 96,-20 86,0 95,2 92,18 -2,11 -14,18 -36,20 l -32,3 v 125 124 h -27 c -16,-1 -40,-11 -55,-23 z"
       id="path15213" />
    <path
       d="m 2104,4865 c -3,-14 -12,-25 -20,-25 -8,0 -14,-7 -14,-15 0,-8 7,-15 15,-15 12,0 15,-16 15,-88 0,-99 7,-112 58,-112 26,0 33,4 30,18 -2,9 -9,18 -16,18 -6,1 -16,2 -22,3 -6,0 -10,35 -10,81 0,73 2,80 20,80 11,0 20,7 20,15 0,8 -9,15 -20,15 -15,0 -20,7 -20,25 0,15 -6,25 -15,25 -8,0 -17,-11 -21,-25 z"
       id="path15215" />
    <path
       d="m 3704,4865 c -3,-14 -12,-25 -20,-25 -8,0 -14,-7 -14,-15 0,-8 7,-15 15,-15 12,0 15,-16 15,-88 0,-99 7,-112 58,-112 27,0 33,4 30,18 -2,9 -10,16 -18,14 -22,-5 -30,19 -30,96 0,65 2,72 20,72 11,0 20,7 20,15 0,8 -9,15 -20,15 -15,0 -20,7 -20,25 0,15 -6,25 -15,25 -8,0 -17,-11 -21,-25 z"
       id="path15217" />
    <path
       d="m 4204,4865 c -3,-14 -12,-25 -20,-25 -8,0 -14,-7 -14,-15 0,-8 7,-15 15,-15 12,0 15,-16 15,-88 0,-99 7,-112 58,-112 27,0 33,4 30,18 -2,9 -10,16 -18,14 -22,-5 -30,19 -30,96 0,65 2,72 20,72 11,0 20,7 20,15 0,8 -9,15 -20,15 -15,0 -20,7 -20,25 0,15 -6,25 -15,25 -8,0 -17,-11 -21,-25 z"
       id="path15219" />
    <path
       d="m 415,4817 c -55,-95 -55,-219 0,-314 20,-33 32,-43 52,-43 24,0 25,1 10,18 -76,84 -76,280 0,364 15,17 14,18 -10,18 -20,0 -32,-10 -52,-43 z"
       id="path15221" />
    <path
       d="m 882,4843 c 2,-10 13,-19 26,-21 17,-3 22,2 22,17 0,16 -6,21 -26,21 -19,0 -25,-5 -22,-17 z"
       id="path15223" />
    <path
       d="m 1435,4824 c 32,-47 45,-95 45,-164 0,-69 -13,-117 -45,-164 l -24,-36 h 22 c 43,0 89,102 89,200 0,98 -46,200 -89,200 h -22 z"
       id="path15225" />
    <path
       d="m 526,4824 c -33,-32 -32,-116 0,-149 22,-21 68,-19 89,5 26,28 26,112 0,140 -22,24 -67,26 -89,4 z m 68,-30 c 9,-23 7,-77 -3,-92 -5,-8 -17,-12 -27,-10 -15,2 -20,13 -22,47 -2,24 -1,50 2,57 7,19 42,18 50,-2 z"
       id="path15227" />
    <path
       d="m 664,4708 c -99,-152 -102,-158 -80,-158 9,0 51,53 102,132 99,152 102,158 80,158 -9,0 -51,-53 -102,-132 z"
       id="path15229" />
    <path
       d="m 995,4815 c -14,-13 -25,-29 -25,-35 0,-22 29,-20 53,4 29,29 39,31 68,16 42,-23 13,-80 -41,-80 -35,0 -21,-34 15,-38 17,-2 36,-8 43,-14 20,-17 14,-56 -13,-74 -29,-19 -60,-11 -81,21 -18,28 -54,24 -47,-6 15,-55 115,-79 165,-39 43,34 41,111 -3,125 -16,5 -15,8 7,30 31,31 30,59 -1,90 -34,35 -106,35 -140,0 z"
       id="path15231" />
    <path
       d="m 1225,4815 c -35,-34 -35,-106 0,-140 26,-27 72,-33 106,-15 22,12 24,4 9,-34 -5,-14 -19,-30 -31,-36 -18,-10 -26,-8 -50,9 -20,15 -34,19 -45,13 -13,-7 -12,-12 6,-35 17,-22 30,-27 64,-27 80,0 113,58 104,182 -4,51 -9,65 -32,85 -38,32 -98,32 -131,-2 z m 95,-15 c 10,-5 21,-23 25,-39 13,-58 -34,-97 -80,-67 -33,22 -35,78 -3,100 26,19 33,19 58,6 z"
       id="path15233" />
    <path
       d="m 1880,4813 -21,-27 22,-8 c 17,-6 25,-4 36,12 17,24 46,26 67,4 30,-30 20,-44 -33,-44 -64,0 -95,-24 -95,-73 0,-19 6,-42 13,-51 18,-21 94,-21 112,0 12,14 14,14 25,-1 8,-10 23,-15 40,-13 28,3 47,28 21,28 -21,0 -27,22 -27,100 0,60 -3,71 -22,84 -13,9 -43,16 -69,16 -40,0 -51,-4 -69,-27 z m 120,-108 c 0,-19 -44,-65 -63,-65 -18,0 -37,20 -37,40 0,26 22,40 62,40 28,0 38,-4 38,-15 z"
       id="path15235" />
    <path
       d="m 2191,4833 c 0,-5 17,-55 37,-113 33,-95 40,-105 63,-108 24,-3 29,2 43,40 8,24 27,74 41,112 14,37 25,70 25,72 0,2 -10,4 -23,4 -20,0 -27,-11 -52,-91 l -30,-91 -29,91 c -26,79 -33,91 -53,91 -13,0 -23,-3 -22,-7 z"
       id="path15237" />
    <path
       d="m 2440,4813 -21,-27 22,-8 c 17,-6 25,-4 36,12 17,24 46,26 67,4 30,-30 20,-44 -33,-44 -64,0 -95,-24 -95,-73 0,-19 6,-42 13,-51 18,-21 94,-21 112,0 12,14 14,14 25,-1 8,-10 23,-15 40,-13 28,3 47,28 21,28 -21,0 -27,22 -27,100 0,60 -3,71 -22,84 -13,9 -43,16 -69,16 -40,0 -51,-4 -69,-27 z m 120,-108 c 0,-19 -44,-65 -63,-65 -18,0 -37,20 -37,40 0,26 22,40 62,40 28,0 38,-4 38,-15 z"
       id="path15239" />
    <path
       d="m 2742,4739 c 2,-86 6,-103 22,-115 24,-17 88,-18 104,-2 9,9 12,9 12,0 0,-7 11,-12 25,-12 h 25 v 115 115 h -25 c -25,0 -25,-1 -25,-85 0,-80 -1,-85 -26,-102 -46,-30 -59,-10 -62,96 -3,90 -3,91 -28,91 h -26 z"
       id="path15241" />
    <path
       d="m 2996,4817 c -45,-45 -41,-158 7,-192 32,-22 108,-20 135,5 12,12 22,25 22,30 0,17 -35,15 -52,-2 -24,-24 -53,-23 -78,2 -11,11 -20,29 -20,40 0,18 7,20 80,20 89,0 92,3 66,65 -17,41 -42,55 -96,55 -29,0 -47,-6 -64,-23 z m 106,-24 c 33,-30 23,-43 -37,-43 -59,0 -67,8 -35,40 24,24 47,25 72,3 z"
       id="path15243" />
    <path
       d="m 3320,4836 c 0,-2 18,-52 41,-111 45,-122 45,-151 -1,-168 -39,-15 -39,-37 -1,-37 29,0 53,16 70,48 8,16 101,262 101,269 0,2 -10,3 -23,3 -20,0 -27,-11 -51,-87 l -29,-88 -30,88 c -27,76 -33,87 -54,87 -13,0 -23,-2 -23,-4 z"
       id="path15245" />
    <path
       d="m 5410,4815 c 0,-18 5,-25 20,-25 15,0 20,7 20,25 0,18 -5,25 -20,25 -15,0 -20,-7 -20,-25 z"
       id="path15247" />
    <path
       d="m 4312,4803 c 3,-16 16,-18 103,-18 87,0 100,2 103,18 3,15 -7,17 -103,17 -96,0 -106,-2 -103,-17 z"
       id="path15249" />
    <path
       d="m 880,4665 v -115 h 25 25 v 115 115 h -25 -25 z"
       id="path15251" />
    <path
       d="m 734,4719 c -14,-15 -19,-36 -19,-74 0,-62 23,-95 65,-95 48,0 78,57 66,125 -4,19 -14,41 -22,50 -22,22 -68,19 -90,-6 z m 74,-53 c 5,-56 -5,-86 -27,-86 -22,0 -31,19 -31,65 0,49 9,66 34,63 17,-2 22,-11 24,-42 z"
       id="path15253" />
    <path
       d="m 4317,4714 c -4,-4 -7,-13 -7,-21 0,-10 24,-13 106,-13 95,0 105,2 102,18 -3,14 -17,17 -99,20 -52,1 -98,0 -102,-4 z"
       id="path15255" />
    <path
       d="m 3967,4653 c -11,-10 -8,-43 4,-43 7,0 8,-11 4,-30 -5,-23 -3,-30 8,-30 19,0 27,21 27,71 0,31 -4,39 -18,39 -10,0 -22,-3 -25,-7 z"
       id="path15257" />
    <path
       d="m 4797,4653 c -11,-10 -8,-43 4,-43 7,0 8,-11 4,-30 -5,-23 -3,-30 8,-30 19,0 27,21 27,71 0,31 -4,39 -18,39 -10,0 -22,-3 -25,-7 z"
       id="path15259" />
    <path
       d="m 5413,4605 c 1,-35 5,-55 13,-55 16,0 24,24 24,71 0,32 -4,39 -19,39 -17,0 -19,-7 -18,-55 z"
       id="path15261" />
    <path
       d="m 1908,4219 c -16,-11 -28,-29 -28,-40 0,-23 4,-23 35,-3 l 25,16 v -101 -101 h -35 c -28,0 -35,-4 -35,-20 0,-19 7,-20 96,-20 86,0 95,2 92,18 -2,11 -14,18 -36,20 l -32,3 v 125 124 h -27 c -16,0 -40,-10 -55,-21 z"
       id="path15263" />
    <path
       d="m 416,4183 c -38,-55 -52,-131 -37,-196 14,-64 54,-127 81,-127 18,0 18,2 -5,36 -59,87 -59,201 0,288 23,34 23,36 5,36 -11,0 -30,-16 -44,-37 z"
       id="path15265" />
    <path
       d="m 1513,4188 c 32,-43 47,-91 47,-148 0,-57 -15,-105 -47,-147 -22,-31 -23,-33 -5,-33 46,0 86,83 86,180 0,97 -40,180 -86,180 -18,0 -17,-2 5,-32 z"
       id="path15267" />
    <path
       d="m 516,4194 c -24,-23 -30,-61 -17,-104 12,-42 36,-56 76,-46 45,11 57,113 18,151 -19,20 -57,19 -77,-1 z m 65,-31 c 19,-51 -9,-118 -42,-98 -29,18 -15,125 16,125 9,0 20,-12 26,-27 z"
       id="path15269" />
    <path
       d="m 638,4074 c -66,-101 -83,-134 -70,-134 9,0 22,8 28,18 6,9 46,70 88,135 57,87 71,117 58,116 -11,0 -49,-50 -104,-135 z"
       id="path15271" />
    <path
       d="m 1096,4189 c -14,-11 -26,-27 -26,-35 0,-21 33,-17 48,6 16,27 68,27 82,1 13,-25 13,-27 -6,-45 -8,-9 -26,-16 -40,-16 -15,0 -24,-6 -24,-15 0,-8 9,-15 21,-15 36,0 59,-19 59,-48 0,-16 -5,-33 -12,-40 -21,-21 -65,-14 -86,13 -24,30 -42,32 -42,6 0,-29 47,-61 90,-61 52,0 90,32 90,75 0,32 -21,65 -40,65 -5,0 2,11 16,25 66,66 -54,144 -130,84 z"
       id="path15273" />
    <path
       d="m 1315,4185 c -35,-34 -35,-96 1,-132 25,-25 52,-27 97,-8 13,5 17,2 17,-12 0,-50 -61,-83 -90,-48 -15,19 -40,20 -40,2 0,-48 94,-64 135,-23 47,47 48,182 1,223 -37,31 -89,31 -121,-2 z m 97,-22 c 43,-39 4,-116 -50,-97 -22,8 -28,16 -30,47 -2,21 2,45 9,53 15,19 48,18 71,-3 z"
       id="path15275" />
    <path
       d="m 880,4132 c -43,-35 -43,-139 1,-174 32,-27 94,-23 124,7 21,20 25,34 25,80 0,46 -4,60 -25,80 -30,31 -92,34 -125,7 z m 98,-24 c 16,-16 16,-110 0,-126 -17,-17 -63,-15 -78,4 -8,8 -13,35 -13,59 0,24 5,51 13,59 15,19 61,21 78,4 z"
       id="path15277" />
    <path
       d="m 704,4073 c -27,-64 0,-133 51,-133 45,0 73,52 61,112 -9,44 -24,58 -63,58 -30,0 -36,-5 -49,-37 z m 77,-7 c 23,-50 -12,-129 -43,-98 -13,13 -15,92 -4,110 12,20 36,14 47,-12 z"
       id="path15279" />
    <path
       d="m 2650,3355 v -155 h 25 25 v 155 155 h -25 -25 z"
       id="path15281" />
    <path
       d="m 3245,3466 c -57,-97 -57,-215 0,-312 19,-33 32,-44 50,-44 h 24 l -31,50 c -25,41 -32,64 -36,124 -5,81 6,130 44,189 l 24,37 h -24 c -19,0 -31,-11 -51,-44 z"
       id="path15283" />
    <path
       d="m 3560,3458 c 0,-40 -3,-49 -12,-40 -20,20 -85,15 -107,-9 -40,-43 -34,-176 9,-199 26,-14 83,-13 98,2 9,9 12,9 12,0 0,-7 11,-12 25,-12 h 25 v 155 155 h -25 c -23,0 -25,-3 -25,-52 z m -18,-75 c 26,-23 25,-106 -2,-133 -26,-26 -45,-25 -64,2 -33,46 -11,148 31,148 9,0 25,-7 35,-17 z"
       id="path15285" />
    <path
       d="m 3650,3490 c 0,-15 7,-20 25,-20 18,0 25,5 25,20 0,15 -7,20 -25,20 -18,0 -25,-5 -25,-20 z"
       id="path15287" />
    <path
       d="m 3760,3491 c -5,-11 -10,-29 -10,-40 0,-12 -7,-21 -15,-21 -8,0 -15,-7 -15,-15 0,-8 7,-15 15,-15 12,0 15,-18 15,-100 v -100 h 25 25 v 100 100 h 30 30 v -100 -100 h 25 25 v 100 c 0,93 1,100 20,100 11,0 20,7 20,15 0,8 -9,15 -20,15 -14,0 -20,7 -20,21 0,12 8,23 20,26 34,9 24,33 -15,33 -36,0 -55,-20 -55,-59 0,-17 -6,-21 -30,-21 -24,0 -30,4 -30,21 0,12 8,23 20,26 34,9 24,33 -15,33 -24,0 -37,-6 -45,-19 z"
       id="path15289" />
    <path
       d="m 4015,3466 c -57,-97 -57,-215 0,-312 19,-33 32,-44 50,-44 h 24 l -31,50 c -25,41 -32,64 -36,124 -5,81 6,130 44,189 l 24,37 h -24 c -19,0 -31,-11 -51,-44 z"
       id="path15291" />
    <path
       d="m 4365,3466 c -57,-97 -57,-215 0,-312 19,-33 32,-44 50,-44 h 24 l -31,50 c -25,41 -32,64 -36,124 -5,81 6,130 44,189 l 24,37 h -24 c -19,0 -31,-11 -51,-44 z"
       id="path15293" />
    <path
       d="m 4579,3481 c 33,-45 51,-107 51,-171 0,-64 -18,-126 -51,-171 l -21,-31 28,4 c 23,2 34,13 59,62 25,51 30,70 30,136 0,66 -5,85 -30,136 -25,49 -36,60 -59,62 l -28,4 z"
       id="path15295" />
    <path
       d="m 5079,3481 c 33,-45 51,-107 51,-171 0,-64 -18,-126 -51,-171 l -21,-31 28,4 c 23,2 34,13 59,62 25,51 30,70 30,136 0,66 -5,85 -30,136 -25,49 -36,60 -59,62 l -28,4 z"
       id="path15297" />
    <path
       d="m 6519,3481 c 33,-45 51,-107 51,-171 0,-64 -18,-126 -51,-171 l -21,-31 28,4 c 23,2 34,13 59,62 25,51 30,70 30,136 0,66 -5,85 -30,136 -25,49 -36,60 -59,62 l -28,4 z"
       id="path15299" />
    <path
       d="m 3340,3440 c 0,-43 3,-50 20,-50 17,0 20,7 20,50 0,43 -3,50 -20,50 -17,0 -20,-7 -20,-50 z"
       id="path15301" />
    <path
       d="m 5852,3470 c -54,-51 -55,-189 0,-247 30,-32 96,-32 126,0 54,58 58,186 6,242 -30,32 -99,35 -132,5 z m 106,-38 c 15,-19 16,-145 2,-173 -17,-30 -74,-26 -88,6 -14,31 -16,124 -3,159 15,37 61,41 89,8 z"
       id="path15303" />
    <path
       d="m 6322,3470 c -54,-51 -55,-189 0,-247 30,-32 96,-32 126,0 54,58 58,186 6,242 -30,32 -99,35 -132,5 z m 106,-38 c 15,-19 16,-145 2,-173 -17,-30 -74,-26 -88,6 -14,31 -16,124 -3,159 15,37 61,41 89,8 z"
       id="path15305" />
    <path
       d="m 2104,3455 c -3,-14 -12,-25 -20,-25 -8,0 -14,-7 -14,-15 0,-8 7,-15 15,-15 12,0 15,-16 15,-88 0,-99 7,-112 58,-112 26,0 33,4 30,18 -2,9 -9,18 -16,18 -6,1 -16,2 -22,3 -6,0 -10,35 -10,81 0,73 2,80 20,80 11,0 20,7 20,15 0,8 -9,15 -20,15 -15,0 -20,7 -20,25 0,15 -6,25 -15,25 -8,0 -17,-11 -21,-25 z"
       id="path15307" />
    <path
       d="m 4474,3455 c -3,-14 -12,-25 -20,-25 -8,0 -14,-7 -14,-15 0,-8 7,-15 15,-15 12,0 15,-16 15,-88 0,-99 7,-112 58,-112 27,0 33,4 30,18 -2,9 -10,16 -18,14 -22,-5 -30,19 -30,96 0,65 2,72 20,72 11,0 20,7 20,15 0,8 -9,15 -20,15 -15,0 -20,7 -20,25 0,15 -6,25 -15,25 -8,0 -17,-11 -21,-25 z"
       id="path15309" />
    <path
       d="m 4974,3455 c -3,-14 -12,-25 -20,-25 -8,0 -14,-7 -14,-15 0,-8 7,-15 15,-15 12,0 15,-16 15,-88 0,-99 7,-112 58,-112 27,0 33,4 30,18 -2,9 -10,16 -18,14 -22,-5 -30,19 -30,96 0,65 2,72 20,72 11,0 20,7 20,15 0,8 -9,15 -20,15 -15,0 -20,7 -20,25 0,15 -6,25 -15,25 -8,0 -17,-11 -21,-25 z"
       id="path15311" />
    <path
       d="m 5474,3455 c -3,-14 -12,-25 -20,-25 -8,0 -14,-7 -14,-15 0,-8 7,-15 15,-15 12,0 15,-16 15,-88 0,-99 7,-112 58,-112 27,0 33,4 30,18 -2,9 -10,16 -18,14 -22,-5 -30,19 -30,96 0,65 2,72 20,72 11,0 20,7 20,15 0,8 -9,15 -20,15 -15,0 -20,7 -20,25 0,15 -6,25 -15,25 -8,0 -17,-11 -21,-25 z"
       id="path15313" />
    <path
       d="m 415,3407 c -55,-95 -55,-219 0,-314 20,-33 32,-43 52,-43 24,0 25,1 10,18 -76,84 -76,280 0,364 15,17 14,18 -10,18 -20,0 -32,-10 -52,-43 z"
       id="path15315" />
    <path
       d="m 882,3433 c 2,-10 13,-19 26,-21 17,-3 22,2 22,17 0,16 -6,21 -26,21 -19,0 -25,-5 -22,-17 z"
       id="path15317" />
    <path
       d="m 1435,3414 c 32,-47 45,-95 45,-164 0,-69 -13,-117 -45,-164 l -24,-36 h 22 c 43,0 89,102 89,200 0,98 -46,200 -89,200 h -22 z"
       id="path15319" />
    <path
       d="m 526,3414 c -33,-32 -32,-116 0,-149 22,-21 68,-19 89,5 26,28 26,112 0,140 -22,24 -67,26 -89,4 z m 68,-30 c 9,-23 7,-77 -3,-92 -5,-8 -17,-12 -27,-10 -15,2 -20,13 -22,47 -2,24 -1,50 2,57 7,19 42,18 50,-2 z"
       id="path15321" />
    <path
       d="m 664,3298 c -99,-152 -102,-158 -80,-158 9,0 51,53 102,132 99,152 102,158 80,158 -9,0 -51,-53 -102,-132 z"
       id="path15323" />
    <path
       d="m 995,3405 c -14,-13 -25,-29 -25,-35 0,-22 29,-20 53,4 29,29 39,31 68,16 42,-23 13,-80 -41,-80 -35,0 -21,-34 15,-38 17,-2 36,-8 43,-14 20,-17 14,-56 -13,-74 -29,-19 -60,-11 -81,21 -18,28 -54,24 -47,-6 15,-55 115,-79 165,-39 43,34 41,111 -3,125 -16,5 -15,8 7,30 31,31 30,59 -1,90 -34,35 -106,35 -140,0 z"
       id="path15325" />
    <path
       d="m 1252,3337 c -81,-120 -81,-127 3,-127 h 65 v -35 c 0,-28 4,-35 20,-35 16,0 20,7 20,35 0,28 4,35 20,35 11,0 20,7 20,15 0,8 -9,15 -20,15 -19,0 -20,7 -20,95 0,92 -1,95 -22,95 -18,-1 -38,-23 -86,-93 z m 65,-94 c -3,-2 -23,-3 -46,-1 l -40,3 42,61 42,61 3,-60 c 2,-32 1,-61 -1,-64 z"
       id="path15327" />
    <path
       d="m 1880,3403 -21,-27 22,-8 c 17,-6 25,-4 36,12 17,24 46,26 67,4 30,-30 20,-44 -33,-44 -64,0 -95,-24 -95,-73 0,-19 6,-42 13,-51 18,-21 94,-21 112,0 12,14 14,14 25,-1 8,-10 23,-15 40,-13 28,3 47,28 21,28 -21,0 -27,22 -27,100 0,60 -3,71 -22,84 -13,9 -43,16 -69,16 -40,0 -51,-4 -69,-27 z m 120,-108 c 0,-19 -44,-65 -63,-65 -18,0 -37,20 -37,40 0,26 22,40 62,40 28,0 38,-4 38,-15 z"
       id="path15329" />
    <path
       d="m 2191,3423 c 0,-5 17,-55 37,-113 33,-95 40,-105 63,-108 24,-3 29,2 43,40 8,24 27,74 41,112 14,37 25,70 25,72 0,2 -10,4 -23,4 -20,0 -27,-11 -52,-91 l -30,-91 -29,91 c -26,79 -33,91 -53,91 -13,0 -23,-3 -22,-7 z"
       id="path15331" />
    <path
       d="m 2440,3403 -21,-27 22,-8 c 17,-6 25,-4 36,12 17,24 46,26 67,4 30,-30 20,-44 -33,-44 -64,0 -95,-24 -95,-73 0,-19 6,-42 13,-51 18,-21 94,-21 112,0 12,14 14,14 25,-1 8,-10 23,-15 40,-13 28,3 47,28 21,28 -21,0 -27,22 -27,100 0,60 -3,71 -22,84 -13,9 -43,16 -69,16 -40,0 -51,-4 -69,-27 z m 120,-108 c 0,-19 -44,-65 -63,-65 -18,0 -37,20 -37,40 0,26 22,40 62,40 28,0 38,-4 38,-15 z"
       id="path15333" />
    <path
       d="m 2742,3329 c 2,-86 6,-103 22,-115 24,-17 88,-18 104,-2 9,9 12,9 12,0 0,-7 11,-12 25,-12 h 25 v 115 115 h -25 c -25,0 -25,-1 -25,-85 0,-80 -1,-85 -26,-102 -46,-30 -59,-10 -62,96 -3,90 -3,91 -28,91 h -26 z"
       id="path15335" />
    <path
       d="m 2996,3407 c -45,-45 -41,-158 7,-192 32,-22 108,-20 135,5 12,12 22,25 22,30 0,17 -35,15 -52,-2 -24,-24 -53,-23 -78,2 -11,11 -20,29 -20,40 0,18 7,20 80,20 89,0 92,3 66,65 -17,41 -42,55 -96,55 -29,0 -47,-6 -64,-23 z m 106,-24 c 33,-30 23,-43 -37,-43 -59,0 -67,8 -35,40 24,24 47,25 72,3 z"
       id="path15337" />
    <path
       d="m 3650,3315 v -115 h 25 25 v 115 115 h -25 -25 z"
       id="path15339" />
    <path
       d="m 4090,3426 c 0,-2 18,-52 41,-111 45,-122 45,-151 -1,-168 -39,-15 -39,-37 -1,-37 29,0 53,16 70,48 8,16 101,262 101,269 0,2 -10,3 -23,3 -20,0 -27,-11 -51,-87 l -29,-88 -30,88 c -27,76 -33,87 -54,87 -13,0 -23,-2 -23,-4 z"
       id="path15341" />
    <path
       d="m 6680,3405 c 0,-18 5,-25 20,-25 15,0 20,7 20,25 0,18 -5,25 -20,25 -15,0 -20,-7 -20,-25 z"
       id="path15343" />
    <path
       d="m 5582,3393 c 3,-16 16,-18 103,-18 87,0 100,2 103,18 3,15 -7,17 -103,17 -96,0 -106,-2 -103,-17 z"
       id="path15345" />
    <path
       d="m 880,3255 v -115 h 25 25 v 115 115 h -25 -25 z"
       id="path15347" />
    <path
       d="m 734,3309 c -14,-15 -19,-36 -19,-74 0,-62 23,-95 65,-95 48,0 78,57 66,125 -4,19 -14,41 -22,50 -22,22 -68,19 -90,-6 z m 74,-53 c 5,-56 -5,-86 -27,-86 -22,0 -31,19 -31,65 0,49 9,66 34,63 17,-2 22,-11 24,-42 z"
       id="path15349" />
    <path
       d="m 5587,3304 c -4,-4 -7,-13 -7,-21 0,-10 24,-13 106,-13 95,0 105,2 102,18 -3,14 -17,17 -99,20 -52,1 -98,0 -102,-4 z"
       id="path15351" />
    <path
       d="m 4737,3243 c -11,-10 -8,-43 4,-43 7,0 8,-11 4,-30 -5,-23 -3,-30 8,-30 19,0 27,21 27,71 0,31 -4,39 -18,39 -10,0 -22,-3 -25,-7 z"
       id="path15353" />
    <path
       d="m 5237,3243 c -11,-10 -8,-43 4,-43 7,0 8,-11 4,-30 -5,-23 -3,-30 8,-30 19,0 27,21 27,71 0,31 -4,39 -18,39 -10,0 -22,-3 -25,-7 z"
       id="path15355" />
    <path
       d="m 6067,3243 c -11,-10 -8,-43 4,-43 7,0 8,-11 4,-30 -5,-23 -3,-30 8,-30 19,0 27,21 27,71 0,31 -4,39 -18,39 -10,0 -22,-3 -25,-7 z"
       id="path15357" />
    <path
       d="m 6683,3195 c 1,-35 5,-55 13,-55 16,0 24,24 24,71 0,32 -4,39 -19,39 -17,0 -19,-7 -18,-55 z"
       id="path15359" />
    <path
       d="m 1891,2811 c -53,-53 -53,-191 1,-248 23,-25 83,-32 117,-13 61,32 67,224 8,265 -31,22 -102,20 -126,-4 z m 109,-40 c 13,-25 13,-131 0,-165 -7,-20 -17,-26 -39,-26 -43,0 -61,31 -61,105 0,73 18,105 60,105 19,0 33,-7 40,-19 z"
       id="path15361" />
    <path
       d="m 416,2773 c -38,-55 -52,-131 -37,-196 14,-64 54,-127 81,-127 18,0 18,2 -5,36 -59,87 -59,201 0,288 23,34 23,36 5,36 -11,0 -30,-16 -44,-37 z"
       id="path15363" />
    <path
       d="m 1513,2778 c 32,-43 47,-91 47,-148 0,-57 -15,-105 -47,-147 -22,-31 -23,-33 -5,-33 46,0 86,83 86,180 0,97 -40,180 -86,180 -18,0 -17,-2 5,-32 z"
       id="path15365" />
    <path
       d="m 516,2784 c -24,-23 -30,-61 -17,-104 12,-42 36,-56 76,-46 45,11 57,113 18,151 -19,20 -57,19 -77,-1 z m 65,-31 c 19,-51 -9,-118 -42,-98 -29,18 -15,125 16,125 9,0 20,-12 26,-27 z"
       id="path15367" />
    <path
       d="m 638,2664 c -66,-101 -83,-134 -70,-134 9,0 22,8 28,18 6,9 46,70 88,135 57,87 71,117 58,116 -11,0 -49,-50 -104,-135 z"
       id="path15369" />
    <path
       d="m 1096,2779 c -14,-11 -26,-27 -26,-35 0,-21 33,-17 48,6 16,27 68,27 82,1 13,-25 13,-27 -6,-45 -8,-9 -26,-16 -40,-16 -15,0 -24,-6 -24,-15 0,-8 9,-15 21,-15 36,0 59,-19 59,-48 0,-16 -5,-33 -12,-40 -21,-21 -65,-14 -86,13 -24,30 -42,32 -42,6 0,-29 47,-61 90,-61 52,0 90,32 90,75 0,32 -21,65 -40,65 -5,0 2,11 16,25 66,66 -54,144 -130,84 z"
       id="path15371" />
    <path
       d="m 1340,2710 c -33,-49 -60,-96 -60,-105 0,-12 13,-15 65,-15 h 65 v -30 c 0,-20 5,-30 15,-30 10,0 15,10 15,30 0,23 4,30 20,30 11,0 20,7 20,15 0,8 -9,15 -20,15 -19,0 -20,7 -20,90 0,83 -2,90 -20,90 -13,0 -38,-27 -80,-90 z m 67,-87 c -3,-2 -23,-3 -46,-1 l -41,3 43,64 42,65 3,-63 c 2,-35 1,-65 -1,-68 z"
       id="path15373" />
    <path
       d="m 880,2722 c -43,-35 -43,-139 1,-174 32,-27 94,-23 124,7 21,20 25,34 25,80 0,46 -4,60 -25,80 -30,31 -92,34 -125,7 z m 98,-24 c 16,-16 16,-110 0,-126 -17,-17 -63,-15 -78,4 -8,8 -13,35 -13,59 0,24 5,51 13,59 15,19 61,21 78,4 z"
       id="path15375" />
    <path
       d="m 704,2663 c -27,-64 0,-133 51,-133 45,0 73,52 61,112 -9,44 -24,58 -63,58 -30,0 -36,-5 -49,-37 z m 77,-7 c 23,-50 -12,-129 -43,-98 -13,13 -15,92 -4,110 12,20 36,14 47,-12 z"
       id="path15377" />
    <path
       d="m 1860,1945 v -155 h 25 25 v 155 155 h -25 -25 z"
       id="path15379" />
    <path
       d="m 3010,2048 c 0,-40 -3,-49 -12,-40 -19,19 -82,15 -102,-7 -40,-44 -43,-149 -5,-190 22,-23 92,-30 105,-10 4,8 9,8 17,0 6,-6 19,-11 29,-11 17,0 18,12 18,155 v 155 h -25 c -23,0 -25,-3 -25,-52 z m -15,-74 c 12,-12 15,-31 13,-72 -3,-50 -6,-58 -31,-72 -27,-14 -29,-14 -48,9 -37,46 -16,151 31,151 10,0 26,-7 35,-16 z"
       id="path15381" />
    <path
       d="m 3570,1945 v -155 h 25 25 v 155 155 h -25 -25 z"
       id="path15383" />
    <path
       d="m 4120,1945 v -155 h 25 25 v 155 155 h -25 -25 z"
       id="path15385" />
    <path
       d="m 4925,2056 c -57,-97 -57,-215 0,-312 19,-33 32,-44 50,-44 h 24 l -31,50 c -25,41 -32,64 -36,124 -5,81 6,130 44,189 l 24,37 h -24 c -19,0 -31,-11 -51,-44 z"
       id="path15387" />
    <path
       d="m 5390,2048 c 0,-40 -3,-49 -12,-40 -19,19 -82,15 -102,-7 -40,-44 -43,-149 -5,-190 22,-23 92,-30 105,-10 4,8 9,8 17,0 6,-6 19,-11 29,-11 17,0 18,12 18,155 v 155 h -25 c -23,0 -25,-3 -25,-52 z m -15,-74 c 12,-12 15,-31 13,-72 -3,-50 -6,-58 -31,-72 -27,-14 -29,-14 -48,9 -37,46 -16,151 31,151 10,0 26,-7 35,-16 z"
       id="path15389" />
    <path
       d="m 6519,2071 c 33,-45 51,-107 51,-171 0,-64 -18,-126 -51,-171 l -21,-31 28,4 c 23,2 34,13 59,62 25,51 30,70 30,136 0,66 -5,85 -30,136 -25,49 -36,60 -59,62 l -28,4 z"
       id="path15391" />
    <path
       d="m 5964,2045 c -3,-14 -12,-25 -20,-25 -8,0 -14,-7 -14,-15 0,-8 7,-15 15,-15 12,0 15,-16 15,-88 0,-99 7,-112 58,-112 27,0 33,4 30,18 -2,9 -10,16 -18,14 -22,-5 -30,19 -30,96 0,65 2,72 20,72 11,0 20,7 20,15 0,8 -9,15 -20,15 -15,0 -20,7 -20,25 0,15 -6,25 -15,25 -8,0 -17,-11 -21,-25 z"
       id="path15393" />
    <path
       d="m 415,1997 c -55,-95 -55,-219 0,-314 20,-33 32,-43 52,-43 24,0 25,1 10,18 -76,84 -76,280 0,364 15,17 14,18 -10,18 -20,0 -32,-10 -52,-43 z"
       id="path15395" />
    <path
       d="m 882,2023 c 2,-10 13,-19 26,-21 17,-3 22,2 22,17 0,16 -6,21 -26,21 -19,0 -25,-5 -22,-17 z"
       id="path15397" />
    <path
       d="m 1435,2004 c 32,-47 45,-95 45,-164 0,-69 -13,-117 -45,-164 l -24,-36 h 22 c 43,0 89,102 89,200 0,98 -46,200 -89,200 h -22 z"
       id="path15399" />
    <path
       d="m 526,2004 c -33,-32 -32,-116 0,-149 22,-21 68,-19 89,5 26,28 26,112 0,140 -22,24 -67,26 -89,4 z m 68,-30 c 9,-23 7,-77 -3,-92 -5,-8 -17,-12 -27,-10 -15,2 -20,13 -22,47 -2,24 -1,50 2,57 7,19 42,18 50,-2 z"
       id="path15401" />
    <path
       d="m 664,1888 c -99,-152 -102,-158 -80,-158 9,0 51,53 102,132 99,152 102,158 80,158 -9,0 -51,-53 -102,-132 z"
       id="path15403" />
    <path
       d="m 1022,1927 c -81,-120 -81,-127 3,-127 h 65 v -35 c 0,-28 4,-35 20,-35 16,0 20,7 20,35 0,28 4,35 20,35 11,0 20,7 20,15 0,8 -9,15 -20,15 -19,0 -20,7 -20,95 0,92 -1,95 -22,95 -18,-1 -38,-23 -86,-93 z m 65,-94 c -3,-2 -23,-3 -46,-1 l -40,3 42,61 42,61 3,-60 c 2,-32 1,-61 -1,-64 z"
       id="path15405" />
    <path
       d="m 1253,1999 c -20,-12 -33,-29 -33,-41 0,-19 1,-19 25,-4 13,9 27,16 30,16 3,0 5,-47 5,-105 v -105 h -35 c -24,0 -35,-5 -35,-15 0,-12 17,-15 90,-15 72,0 90,3 90,14 0,9 -12,16 -32,18 l -33,3 -3,128 c -3,142 -6,147 -69,106 z"
       id="path15407" />
    <path
       d="m 1982,2004 c -26,-18 -29,-39 -6,-48 10,-4 23,3 34,16 15,19 22,21 46,13 18,-7 30,-19 32,-33 3,-20 -1,-22 -43,-22 -56,0 -83,-13 -95,-46 -10,-26 2,-73 23,-86 21,-13 84,-9 97,7 12,14 15,14 31,-1 19,-18 60,-16 67,4 2,6 -3,12 -11,12 -21,0 -27,22 -27,100 0,60 -3,71 -22,84 -12,9 -41,16 -63,16 -22,0 -51,-7 -63,-16 z m 108,-118 c 0,-21 -40,-66 -59,-66 -21,0 -41,19 -41,40 0,26 22,40 62,40 25,0 38,-5 38,-14 z"
       id="path15409" />
    <path
       d="m 2180,1860 v -160 h 25 c 24,0 25,3 25,57 0,44 3,54 12,45 14,-14 72,-16 98,-2 21,11 40,60 40,105 0,45 -19,94 -40,105 -26,14 -84,12 -98,-2 -9,-9 -12,-9 -12,0 0,7 -11,12 -25,12 h -25 z m 134,114 c 11,-10 16,-34 16,-69 0,-57 -16,-85 -50,-85 -47,0 -69,111 -30,150 24,24 43,25 64,4 z"
       id="path15411" />
    <path
       d="m 2671,2003 c -46,-37 -46,-159 0,-195 26,-22 97,-24 126,-3 51,36 55,156 6,195 -33,26 -102,27 -132,3 z m 101,-30 c 24,-22 25,-109 1,-135 -39,-43 -93,-4 -93,67 0,71 49,107 92,68 z"
       id="path15413" />
    <path
       d="m 3126,1995 c -42,-45 -42,-135 0,-180 31,-33 109,-36 142,-5 12,12 22,25 22,30 0,17 -35,15 -52,-2 -34,-34 -81,-16 -94,35 l -6,27 h 81 c 90,0 93,3 67,65 -17,41 -42,55 -96,55 -31,0 -47,-6 -64,-25 z m 106,-22 c 33,-30 23,-43 -37,-43 -59,0 -67,8 -35,40 24,24 47,25 72,3 z"
       id="path15415" />
    <path
       d="m 3342,1998 c 2,-15 11,-24 26,-26 18,-3 22,1 22,22 0,21 -5,26 -26,26 -21,0 -25,-4 -22,-22 z"
       id="path15417" />
    <path
       d="m 3680,1993 -21,-27 22,-8 c 17,-6 25,-4 36,12 17,24 46,26 67,4 30,-30 20,-44 -33,-44 -64,0 -95,-24 -95,-73 0,-19 6,-42 13,-51 18,-21 94,-21 112,0 12,14 14,14 25,-1 8,-10 23,-15 40,-13 28,3 47,28 21,28 -21,0 -27,22 -27,100 0,60 -3,71 -22,84 -13,9 -43,16 -69,16 -40,0 -51,-4 -69,-27 z m 120,-108 c 0,-19 -44,-65 -63,-65 -18,0 -37,20 -37,40 0,26 22,40 62,40 28,0 38,-4 38,-15 z"
       id="path15419" />
    <path
       d="m 3890,1860 v -160 h 25 c 24,0 25,3 25,57 0,44 3,54 12,45 19,-19 85,-15 107,7 42,42 36,177 -9,201 -26,14 -83,13 -98,-2 -9,-9 -12,-9 -12,0 0,7 -11,12 -25,12 h -25 z m 132,113 c 13,-12 18,-30 18,-69 0,-56 -17,-84 -50,-84 -47,0 -69,111 -30,150 24,24 38,25 62,3 z"
       id="path15421" />
    <path
       d="m 4230,1993 -21,-27 22,-8 c 17,-6 25,-4 36,12 17,24 46,26 67,4 30,-30 20,-44 -33,-44 -64,0 -95,-24 -95,-73 0,-19 6,-42 13,-51 18,-21 94,-21 112,0 12,14 14,14 25,-1 8,-10 23,-15 40,-13 28,3 47,28 21,28 -21,0 -27,22 -27,100 0,60 -3,71 -22,84 -13,9 -43,16 -69,16 -40,0 -51,-4 -69,-27 z m 120,-108 c 0,-19 -44,-65 -63,-65 -18,0 -37,20 -37,40 0,26 22,40 62,40 28,0 38,-4 38,-15 z"
       id="path15423" />
    <path
       d="m 4466,1997 c -45,-45 -41,-158 7,-192 34,-24 94,-19 122,10 14,13 25,31 25,40 0,23 -30,18 -56,-10 -28,-30 -38,-31 -64,-5 -14,14 -20,33 -20,65 0,44 24,85 50,85 6,0 19,-9 30,-20 20,-20 60,-28 60,-11 0,4 -9,20 -21,35 -28,36 -99,37 -133,3 z"
       id="path15425" />
    <path
       d="m 4676,1997 c -45,-45 -41,-158 7,-192 32,-22 108,-20 135,5 12,12 22,25 22,30 0,17 -35,15 -52,-2 -24,-24 -53,-23 -78,2 -11,11 -20,29 -20,40 0,18 7,20 80,20 89,0 92,3 66,65 -17,41 -42,55 -96,55 -29,0 -47,-6 -64,-23 z m 106,-24 c 33,-30 23,-43 -37,-43 -59,0 -67,8 -35,40 24,24 47,25 72,3 z"
       id="path15427" />
    <path
       d="m 5051,2003 c -46,-37 -46,-159 0,-195 26,-22 97,-24 126,-3 51,36 55,156 6,195 -33,26 -102,27 -132,3 z m 101,-30 c 24,-22 25,-109 1,-135 -39,-43 -93,-4 -93,67 0,71 49,107 92,68 z"
       id="path15429" />
    <path
       d="m 5506,1995 c -42,-45 -42,-135 0,-180 31,-33 109,-36 142,-5 12,12 22,25 22,30 0,17 -35,15 -52,-2 -34,-34 -81,-16 -94,35 l -6,27 h 81 c 90,0 93,3 67,65 -17,41 -42,55 -96,55 -31,0 -47,-6 -64,-25 z m 106,-22 c 33,-30 23,-43 -37,-43 -59,0 -67,8 -35,40 24,24 47,25 72,3 z"
       id="path15431" />
    <path
       d="m 6327,2002 c -22,-24 -22,-66 -1,-83 9,-8 37,-21 63,-29 30,-10 47,-22 49,-34 7,-36 -54,-50 -86,-18 -17,17 -52,18 -52,1 0,-5 9,-18 20,-29 17,-17 31,-20 77,-18 48,3 59,7 77,31 19,26 19,30 6,55 -10,17 -34,33 -69,47 -30,11 -56,26 -59,34 -10,29 55,42 82,16 19,-19 46,-19 46,-1 0,43 -120,64 -153,28 z"
       id="path15433" />
    <path
       d="m 6680,1995 c 0,-18 5,-25 20,-25 15,0 20,7 20,25 0,18 -5,25 -20,25 -15,0 -20,-7 -20,-25 z"
       id="path15435" />
    <path
       d="m 880,1845 v -115 h 25 25 v 115 115 h -25 -25 z"
       id="path15437" />
    <path
       d="m 734,1899 c -14,-15 -19,-36 -19,-74 0,-62 23,-95 65,-95 48,0 78,57 66,125 -4,19 -14,41 -22,50 -22,22 -68,19 -90,-6 z m 74,-53 c 5,-56 -5,-86 -27,-86 -22,0 -31,19 -31,65 0,49 9,66 34,63 17,-2 22,-11 24,-42 z"
       id="path15439" />
    <path
       d="m 3347,1833 c -4,-3 -7,-15 -7,-25 0,-13 7,-18 25,-18 20,0 25,5 25,25 0,18 -5,25 -18,25 -10,0 -22,-3 -25,-7 z"
       id="path15441" />
    <path
       d="m 5727,1833 c -11,-10 -8,-43 4,-43 7,0 8,-11 4,-30 -5,-23 -3,-30 8,-30 19,0 27,21 27,71 0,31 -4,39 -18,39 -10,0 -22,-3 -25,-7 z"
       id="path15443" />
    <path
       d="m 6087,1833 c -11,-10 -8,-43 4,-43 7,0 8,-11 4,-30 -5,-23 -3,-30 8,-30 19,0 27,21 27,71 0,31 -4,39 -18,39 -10,0 -22,-3 -25,-7 z"
       id="path15445" />
    <path
       d="m 6683,1785 c 1,-35 5,-55 13,-55 16,0 24,24 24,71 0,32 -4,39 -19,39 -17,0 -19,-7 -18,-55 z"
       id="path15447" />
    <path
       d="m 2380,1725 c 0,-13 21,-15 125,-15 104,0 125,2 125,15 0,13 -21,15 -125,15 -104,0 -125,-2 -125,-15 z"
       id="path15449" />
    <path
       d="m 2117,1382 c -10,-10 -17,-26 -17,-35 0,-23 27,-21 40,3 19,36 80,17 80,-25 0,-3 -29,-34 -65,-70 -88,-87 -87,-95 20,-95 69,0 85,3 85,15 0,12 -14,15 -62,15 l -63,1 51,47 c 29,26 57,57 63,69 14,28 4,70 -19,83 -31,17 -95,12 -113,-8 z"
       id="path15451" />
    <path
       d="m 11220,1270 c -36,-36 -19,-71 45,-96 37,-14 45,-21 43,-38 -4,-28 -62,-35 -89,-10 -15,13 -22,15 -31,6 -9,-9 -7,-16 7,-32 23,-25 100,-28 133,-4 43,30 22,91 -38,109 -39,12 -52,25 -39,41 15,19 48,18 70,-2 12,-10 23,-13 33,-7 14,8 14,11 0,31 -21,30 -104,32 -134,2 z"
       id="path15453" />
    <path
       d="M 2420,965 V 810 h 25 25 v 155 155 h -25 -25 z"
       id="path15455" />
    <path
       d="M 2970,965 V 810 h 25 25 v 155 155 h -25 -25 z"
       id="path15457" />
    <path
       d="m 3835,1076 c -57,-97 -57,-215 0,-312 19,-33 32,-44 50,-44 h 24 l -31,50 c -25,41 -32,64 -36,124 -5,81 6,130 44,189 l 24,37 h -24 c -19,0 -31,-11 -51,-44 z"
       id="path15459" />
    <path
       d="m 4305,1076 c -57,-97 -57,-215 0,-312 19,-33 32,-44 50,-44 h 24 l -31,50 c -25,41 -32,64 -36,124 -5,81 6,130 44,189 l 24,37 h -24 c -19,0 -31,-11 -51,-44 z"
       id="path15461" />
    <path
       d="m 4639,1091 c 33,-45 51,-107 51,-171 0,-64 -18,-126 -51,-171 l -21,-31 28,4 c 23,2 34,13 59,62 25,51 30,70 30,136 0,66 -5,85 -30,136 -25,49 -36,60 -59,62 l -28,4 z"
       id="path15463" />
    <path
       d="m 5619,1091 c 33,-45 51,-107 51,-171 0,-64 -18,-126 -51,-171 l -21,-31 28,4 c 23,2 34,13 59,62 25,51 30,70 30,136 0,66 -5,85 -30,136 -25,49 -36,60 -59,62 l -28,4 z"
       id="path15465" />
    <path
       d="M 6430,965 V 810 h 25 25 v 155 155 h -25 -25 z"
       id="path15467" />
    <path
       d="M 6980,965 V 810 h 25 25 v 155 155 h -25 -25 z"
       id="path15469" />
    <path
       d="m 7845,1076 c -38,-65 -52,-143 -37,-212 16,-78 56,-144 87,-144 h 24 l -31,50 c -25,41 -32,64 -36,124 -5,81 6,130 44,189 l 24,37 h -24 c -19,0 -31,-11 -51,-44 z"
       id="path15471" />
    <path
       d="m 8315,1076 c -38,-65 -52,-143 -37,-212 16,-78 56,-144 87,-144 h 24 l -31,50 c -25,41 -32,64 -36,124 -5,81 6,130 44,189 l 24,37 h -24 c -19,0 -31,-11 -51,-44 z"
       id="path15473" />
    <path
       d="m 8649,1091 c 33,-45 51,-107 51,-171 0,-64 -18,-126 -51,-171 l -21,-31 28,4 c 23,2 34,13 59,62 25,51 30,70 30,136 0,66 -5,85 -30,136 -25,49 -36,60 -59,62 l -28,4 z"
       id="path15475" />
    <path
       d="m 9629,1091 c 33,-45 51,-107 51,-171 0,-64 -18,-126 -51,-171 l -21,-31 28,4 c 23,2 34,13 59,62 25,51 30,70 30,136 0,66 -5,85 -30,136 -25,49 -36,60 -59,62 l -28,4 z"
       id="path15477" />
    <path
       d="m 4500,1065 c -5,-14 -16,-25 -25,-25 -17,0 -21,-26 -4,-32 8,-3 8,-20 -1,-63 -6,-33 -10,-76 -8,-95 3,-33 6,-35 41,-38 32,-3 37,0 37,18 0,15 -5,20 -15,17 -22,-9 -26,6 -14,69 15,86 18,94 40,94 10,0 19,7 19,15 0,8 -7,15 -15,15 -9,0 -15,9 -15,25 0,16 -6,25 -15,25 -9,0 -20,-11 -25,-25 z"
       id="path15479" />
    <path
       d="m 5030,1065 c -5,-14 -16,-25 -25,-25 -17,0 -21,-26 -4,-32 8,-3 8,-20 -1,-63 -6,-33 -10,-76 -8,-95 3,-33 6,-35 41,-38 32,-3 37,0 37,18 0,15 -5,20 -15,17 -22,-9 -26,6 -14,69 15,86 18,94 40,94 10,0 19,7 19,15 0,8 -7,15 -15,15 -9,0 -15,9 -15,25 0,16 -6,25 -15,25 -9,0 -20,-11 -25,-25 z"
       id="path15481" />
    <path
       d="m 8510,1065 c -5,-14 -16,-25 -25,-25 -17,0 -21,-26 -4,-32 8,-3 8,-20 -1,-63 -6,-33 -10,-76 -8,-95 3,-33 6,-35 41,-38 32,-3 37,0 37,18 0,15 -5,20 -15,17 -22,-9 -26,6 -14,69 15,86 18,94 40,94 10,0 19,7 19,15 0,8 -7,15 -15,15 -9,0 -15,9 -15,25 0,16 -6,25 -15,25 -9,0 -20,-11 -25,-25 z"
       id="path15483" />
    <path
       d="m 9040,1065 c -5,-14 -16,-25 -25,-25 -17,0 -21,-26 -4,-32 8,-3 8,-20 -1,-63 -6,-33 -10,-76 -8,-95 3,-33 6,-35 41,-38 32,-3 37,0 37,18 0,15 -5,20 -15,17 -22,-9 -26,6 -14,69 15,86 18,94 40,94 10,0 19,7 19,15 0,8 -7,15 -15,15 -9,0 -15,9 -15,25 0,16 -6,25 -15,25 -9,0 -20,-11 -25,-25 z"
       id="path15485" />
    <path
       d="m 416,1043 c -38,-55 -52,-131 -37,-196 14,-64 54,-127 81,-127 18,0 18,2 -5,36 -59,87 -59,201 0,288 23,34 23,36 5,36 -11,0 -30,-16 -44,-37 z"
       id="path15487" />
    <path
       d="m 1513,1048 c 32,-43 47,-91 47,-148 0,-57 -15,-105 -47,-147 -22,-31 -23,-33 -5,-33 46,0 86,83 86,180 0,97 -40,180 -86,180 -18,0 -17,-2 5,-32 z"
       id="path15489" />
    <path
       d="m 516,1054 c -24,-23 -30,-61 -17,-104 12,-42 36,-56 76,-46 45,11 57,113 18,151 -19,20 -57,19 -77,-1 z m 65,-31 c 19,-51 -9,-118 -42,-98 -29,18 -15,125 16,125 9,0 20,-12 26,-27 z"
       id="path15491" />
    <path
       d="M 638,934 C 572,833 555,800 568,800 c 9,0 22,8 28,18 6,9 46,70 88,135 57,87 71,117 58,116 -11,0 -49,-50 -104,-135 z"
       id="path15493" />
    <path
       d="m 1120,980 c -33,-49 -60,-96 -60,-105 0,-12 13,-15 65,-15 h 65 v -30 c 0,-20 5,-30 15,-30 10,0 15,10 15,30 0,23 4,30 20,30 11,0 20,7 20,15 0,8 -9,15 -20,15 -19,0 -20,7 -20,90 0,83 -2,90 -20,90 -13,0 -38,-27 -80,-90 z m 67,-87 c -3,-2 -23,-3 -46,-1 l -41,3 43,64 42,65 3,-63 c 2,-35 1,-65 -1,-68 z"
       id="path15495" />
    <path
       d="m 1338,1049 c -16,-11 -28,-27 -28,-35 0,-18 14,-18 30,1 24,29 30,14 30,-85 V 830 h -35 c -24,0 -35,-5 -35,-15 0,-12 16,-15 85,-15 69,0 85,3 85,15 0,10 -10,15 -30,15 h -30 v 120 c 0,118 0,120 -22,120 -13,0 -35,-10 -50,-21 z"
       id="path15497" />
    <path
       d="m 5880,1015 v -45 h -45 c -33,0 -45,-4 -45,-15 0,-11 12,-15 45,-15 h 45 v -45 c 0,-38 3,-45 20,-45 17,0 20,7 20,45 v 45 h 40 c 29,0 40,4 40,15 0,11 -11,15 -40,15 h -40 v 45 c 0,38 -3,45 -20,45 -17,0 -20,-7 -20,-45 z"
       id="path15499" />
    <path
       d="m 9890,1015 v -45 h -45 c -33,0 -45,-4 -45,-15 0,-11 12,-15 45,-15 h 45 v -45 c 0,-38 3,-45 20,-45 17,0 20,7 20,45 v 45 h 40 c 29,0 40,4 40,15 0,11 -11,15 -40,15 h -40 v 45 c 0,38 -3,45 -20,45 -17,0 -20,-7 -20,-45 z"
       id="path15501" />
    <path
       d="m 1888,1023 c -39,-46 -24,-81 47,-112 32,-14 45,-26 45,-40 0,-29 -46,-39 -83,-18 -35,21 -57,22 -57,3 0,-45 116,-63 164,-25 48,38 33,82 -40,114 -54,24 -69,47 -38,59 26,10 51,7 64,-9 15,-19 50,-20 50,-2 0,44 -119,67 -152,30 z"
       id="path15503" />
    <path
       d="m 2530,1013 -21,-28 21,-9 c 16,-7 24,-5 36,12 18,26 46,28 68,6 30,-30 20,-44 -33,-44 -64,0 -95,-24 -95,-73 0,-19 6,-42 13,-51 18,-21 89,-21 113,0 16,16 18,16 24,0 8,-21 74,-23 74,-1 0,8 -6,15 -14,15 -20,0 -26,23 -26,100 0,60 -3,71 -22,84 -13,9 -43,16 -69,16 -40,0 -51,-4 -69,-27 z m 120,-108 c 0,-19 -44,-65 -63,-65 -35,0 -50,52 -19,69 28,17 82,14 82,-4 z"
       id="path15505" />
    <path
       d="M 2740,880 V 720 h 25 c 24,0 25,3 25,57 0,44 3,54 12,45 14,-14 72,-16 98,-2 21,11 40,60 40,105 0,45 -19,94 -40,105 -26,14 -84,12 -98,-2 -9,-9 -12,-9 -12,0 0,7 -11,12 -25,12 h -25 z m 132,113 c 13,-12 18,-30 18,-69 0,-56 -17,-84 -50,-84 -47,0 -69,111 -30,150 24,24 38,25 62,3 z"
       id="path15507" />
    <path
       d="m 3080,1013 -21,-28 21,-9 c 16,-7 24,-5 36,12 18,26 46,28 68,6 30,-30 20,-44 -33,-44 -64,0 -95,-24 -95,-73 0,-19 6,-42 13,-51 18,-21 89,-21 113,0 16,16 18,16 24,0 8,-21 74,-23 74,-1 0,8 -6,15 -14,15 -20,0 -26,23 -26,100 0,60 -3,71 -22,84 -13,9 -43,16 -69,16 -40,0 -51,-4 -69,-27 z m 120,-108 c 0,-19 -44,-65 -63,-65 -35,0 -50,52 -19,69 28,17 82,14 82,-4 z"
       id="path15509" />
    <path
       d="m 3316,1017 c -29,-29 -40,-85 -26,-136 13,-50 42,-71 96,-71 34,0 47,5 63,26 41,52 10,77 -35,29 -26,-29 -33,-30 -58,-12 -12,9 -20,31 -23,64 -5,42 -2,54 16,72 26,26 36,26 61,1 20,-20 60,-28 60,-11 0,4 -9,20 -21,35 -28,36 -99,37 -133,3 z"
       id="path15511" />
    <path
       d="m 3526,1017 c -45,-45 -41,-158 7,-192 32,-22 112,-20 137,5 11,11 20,24 20,29 0,17 -35,16 -52,-1 -34,-34 -81,-16 -94,35 l -6,27 h 81 c 90,0 93,3 67,65 -17,41 -42,55 -96,55 -29,0 -47,-6 -64,-23 z m 106,-24 c 33,-30 23,-43 -37,-43 -59,0 -67,8 -35,40 24,24 47,25 72,3 z"
       id="path15513" />
    <path
       d="m 3990,1025 c 0,-10 15,-15 55,-17 l 55,-3 -60,-84 c -33,-46 -60,-90 -60,-98 0,-10 22,-13 90,-13 72,0 90,3 90,15 0,10 -16,15 -60,17 l -60,3 60,84 c 33,46 60,90 60,98 0,10 -21,13 -85,13 -68,0 -85,-3 -85,-15 z"
       id="path15515" />
    <path
       d="m 5378,1023 c -39,-46 -24,-81 47,-112 32,-14 45,-26 45,-40 0,-29 -46,-39 -83,-18 -35,21 -57,22 -57,3 0,-45 116,-63 164,-25 48,38 33,82 -40,114 -54,24 -69,47 -38,59 26,10 51,7 64,-9 15,-19 50,-20 50,-2 0,44 -119,67 -152,30 z"
       id="path15517" />
    <path
       d="m 6118,1023 c -39,-46 -24,-81 47,-112 32,-14 45,-26 45,-40 0,-29 -46,-39 -83,-18 -35,21 -57,22 -57,3 0,-45 116,-63 164,-25 48,38 33,82 -40,114 -54,24 -69,47 -38,59 26,10 51,7 64,-9 15,-19 50,-20 50,-2 0,44 -119,67 -152,30 z"
       id="path15519" />
    <path
       d="m 6540,1013 -21,-28 21,-9 c 16,-7 24,-5 36,12 18,26 46,28 68,6 30,-30 20,-44 -33,-44 -64,0 -95,-24 -95,-73 0,-19 6,-42 13,-51 18,-21 89,-21 113,0 16,16 18,16 24,0 8,-21 74,-23 74,-1 0,8 -6,15 -14,15 -20,0 -26,23 -26,100 0,60 -3,71 -22,84 -13,9 -43,16 -69,16 -40,0 -51,-4 -69,-27 z m 120,-108 c 0,-19 -44,-65 -63,-65 -35,0 -50,52 -19,69 28,17 82,14 82,-4 z"
       id="path15521" />
    <path
       d="M 6750,880 V 720 h 25 c 24,0 25,3 25,57 0,44 3,54 12,45 14,-14 72,-16 98,-2 21,11 40,60 40,105 0,45 -19,94 -40,105 -26,14 -84,12 -98,-2 -9,-9 -12,-9 -12,0 0,7 -11,12 -25,12 h -25 z m 132,113 c 13,-12 18,-30 18,-69 0,-56 -17,-84 -50,-84 -47,0 -69,111 -30,150 24,24 38,25 62,3 z"
       id="path15523" />
    <path
       d="m 7090,1013 -21,-28 21,-9 c 16,-7 24,-5 36,12 18,26 46,28 68,6 30,-30 20,-44 -33,-44 -64,0 -95,-24 -95,-73 0,-19 6,-42 13,-51 18,-21 89,-21 113,0 16,16 18,16 24,0 8,-21 74,-23 74,-1 0,8 -6,15 -14,15 -20,0 -26,23 -26,100 0,60 -3,71 -22,84 -13,9 -43,16 -69,16 -40,0 -51,-4 -69,-27 z m 120,-108 c 0,-19 -44,-65 -63,-65 -35,0 -50,52 -19,69 28,17 82,14 82,-4 z"
       id="path15525" />
    <path
       d="m 7326,1017 c -29,-29 -40,-85 -26,-136 13,-50 42,-71 96,-71 34,0 47,5 63,26 41,52 10,77 -35,29 -26,-29 -33,-30 -58,-12 -12,9 -20,31 -23,64 -5,42 -2,54 16,72 26,26 36,26 61,1 20,-20 60,-28 60,-11 0,4 -9,20 -21,35 -28,36 -99,37 -133,3 z"
       id="path15527" />
    <path
       d="m 7536,1017 c -45,-45 -41,-158 7,-192 32,-22 112,-20 137,5 11,11 20,24 20,29 0,17 -35,16 -52,-1 -34,-34 -81,-16 -94,35 l -6,27 h 81 c 90,0 93,3 67,65 -17,41 -42,55 -96,55 -29,0 -47,-6 -64,-23 z m 106,-24 c 33,-30 23,-43 -37,-43 -59,0 -67,8 -35,40 24,24 47,25 72,3 z"
       id="path15529" />
    <path
       d="m 7980,1036 c 0,-2 18,-52 41,-111 45,-122 45,-151 -1,-168 -36,-14 -39,-37 -6,-37 38,0 56,10 71,41 14,26 105,265 105,274 0,3 -10,5 -23,5 -20,0 -27,-10 -47,-76 -13,-41 -27,-77 -30,-79 -4,-2 -19,32 -35,76 -25,67 -32,79 -52,79 -13,0 -23,-2 -23,-4 z"
       id="path15531" />
    <path
       d="m 9388,1023 c -39,-46 -24,-81 47,-112 32,-14 45,-26 45,-40 0,-29 -46,-39 -83,-18 -35,21 -57,22 -57,3 0,-45 116,-63 164,-25 48,38 33,82 -40,114 -54,24 -69,47 -38,59 26,10 51,7 64,-9 15,-19 50,-20 50,-2 0,44 -119,67 -152,30 z"
       id="path15533" />
    <path
       d="m 10128,1023 c -39,-46 -24,-81 47,-112 32,-14 45,-26 45,-40 0,-29 -46,-39 -83,-18 -35,21 -57,22 -57,3 0,-45 116,-63 164,-25 48,38 33,82 -40,114 -54,24 -69,47 -38,59 26,10 51,7 64,-9 15,-19 50,-20 50,-2 0,44 -119,67 -152,30 z"
       id="path15535" />
    <path
       d="m 10372,1003 c 3,-16 16,-18 103,-18 87,0 100,2 103,18 3,15 -7,17 -103,17 -96,0 -106,-2 -103,-17 z"
       id="path15537" />
    <path
       d="m 880,992 c -43,-35 -43,-139 1,-174 32,-27 94,-23 124,7 21,20 25,34 25,80 0,46 -4,60 -25,80 -30,31 -92,34 -125,7 z m 98,-24 c 16,-16 16,-110 0,-126 -17,-17 -63,-15 -78,4 -8,8 -13,35 -13,59 0,24 5,51 13,59 15,19 61,21 78,4 z"
       id="path15539" />
    <path
       d="m 704,933 c -27,-64 0,-133 51,-133 45,0 73,52 61,112 -9,44 -24,58 -63,58 -30,0 -36,-5 -49,-37 z m 77,-7 c 23,-50 -12,-129 -43,-98 -13,13 -15,92 -4,110 12,20 36,14 47,-12 z"
       id="path15541" />
    <path
       d="m 10377,914 c -4,-4 -7,-13 -7,-21 0,-10 24,-13 106,-13 95,0 105,2 102,18 -3,14 -17,17 -99,20 -52,1 -98,0 -102,-4 z"
       id="path15543" />
    <path
       d="m 10620,905 c 0,-13 80,-15 660,-15 580,0 660,2 660,15 0,13 -80,15 -660,15 -580,0 -660,-2 -660,-15 z"
       id="path15545" />
    <path
       d="m 4827,853 c -11,-10 -8,-43 4,-43 7,0 8,-11 4,-30 -5,-23 -3,-30 8,-30 19,0 27,21 27,71 0,31 -4,39 -18,39 -10,0 -22,-3 -25,-7 z"
       id="path15547" />
    <path
       d="m 5187,853 c -11,-10 -8,-43 4,-43 7,0 8,-11 4,-30 -5,-23 -3,-30 8,-30 19,0 27,21 27,71 0,31 -4,39 -18,39 -10,0 -22,-3 -25,-7 z"
       id="path15549" />
    <path
       d="m 8837,853 c -11,-10 -8,-43 4,-43 7,0 8,-11 4,-30 -5,-23 -3,-30 8,-30 19,0 27,21 27,71 0,31 -4,39 -18,39 -10,0 -22,-3 -25,-7 z"
       id="path15551" />
    <path
       d="m 9197,853 c -11,-10 -8,-43 4,-43 7,0 8,-11 4,-30 -5,-23 -3,-30 8,-30 19,0 27,21 27,71 0,31 -4,39 -18,39 -10,0 -22,-3 -25,-7 z"
       id="path15553" />
    <path
       d="m 11068,748 c -8,-7 -18,-21 -21,-30 -8,-23 28,-25 41,-2 13,23 56,14 60,-13 2,-15 -13,-38 -52,-77 -77,-76 -75,-86 19,-86 60,0 75,3 75,15 0,11 -12,15 -51,15 h -52 l 52,54 c 55,59 64,91 33,119 -22,20 -82,22 -104,5 z"
       id="path15555" />
    <path
       d="m 11598,477 c -16,-13 -28,-30 -28,-40 0,-21 13,-22 30,-2 24,29 30,14 30,-80 v -95 h -35 c -24,0 -35,-5 -35,-15 0,-12 17,-15 90,-15 73,0 90,3 90,15 0,10 -11,15 -35,15 h -35 v 120 c 0,118 0,120 -22,120 -13,-1 -35,-11 -50,-23 z"
       id="path15557" />
    <path
       d="m 11367,454 c -4,-4 -7,-25 -7,-46 0,-38 0,-38 -40,-38 -29,0 -40,-4 -40,-15 0,-11 11,-15 40,-15 h 40 v -40 c 0,-33 3,-40 20,-40 17,0 20,7 20,40 0,39 1,40 35,40 24,0 35,5 35,15 0,10 -10,15 -34,15 -34,0 -35,1 -38,42 -3,39 -16,57 -31,42 z"
       id="path15559" />
    <path
       d="m 10850,420 c -36,-36 -19,-71 45,-96 37,-14 45,-21 43,-38 -4,-28 -62,-35 -89,-10 -15,13 -22,15 -31,6 -9,-9 -7,-16 7,-32 23,-25 100,-28 133,-4 43,30 22,91 -38,109 -39,12 -52,25 -39,41 15,19 48,18 70,-2 12,-10 23,-13 33,-7 14,8 14,11 0,31 -21,30 -104,32 -134,2 z"
       id="path15561" />
  </g>
</svg>
